<svg width="19" height="22" viewBox="0 0 19 22" fill="none" xmlns="http://www.w3.org/2000/svg">
<path d="M15.7526 11.7866C15.7634 10.9543 15.9849 10.1382 16.3967 9.41432C16.8085 8.69042 17.397 8.0822 18.1077 7.64627C17.6562 7.00293 17.0607 6.47349 16.3683 6.1C15.6759 5.72651 14.9058 5.51925 14.1191 5.49469C12.4409 5.31893 10.814 6.49668 9.95886 6.49668C9.08715 6.49668 7.7705 5.51214 6.35268 5.54125C5.4356 5.57081 4.54183 5.83691 3.75846 6.31362C2.97508 6.79032 2.32882 7.46138 1.88264 8.2614C-0.0501093 11.6004 1.39155 16.5075 3.24297 19.2064C4.16927 20.528 5.25185 22.0043 6.66839 21.952C8.05456 21.8946 8.57226 21.07 10.2455 21.07C11.9032 21.07 12.3889 21.952 13.8342 21.9187C15.3216 21.8946 16.2587 20.5912 17.1525 19.2571C17.8181 18.3154 18.3302 17.2746 18.67 16.1733C17.8058 15.8086 17.0684 15.1982 16.5496 14.4181C16.0308 13.638 15.7536 12.7228 15.7526 11.7866Z" fill="white"/>
<path d="M13.0228 3.72005C13.8338 2.74858 14.2333 1.49993 14.1366 0.239258C12.8976 0.369112 11.753 0.960002 10.9311 1.89419C10.5292 2.35057 10.2214 2.88151 10.0253 3.45666C9.82915 4.0318 9.74856 4.63988 9.7881 5.24612C10.4078 5.25249 11.021 5.11845 11.5813 4.85411C12.1416 4.58977 12.6344 4.20202 13.0228 3.72005Z" fill="white"/>
</svg>
