<svg width="15" height="15" viewBox="0 0 15 15" fill="none" xmlns="http://www.w3.org/2000/svg">
<path d="M14.5 7.5C14.5 9.07412 13.981 10.5256 13.1046 11.6946C12.3389 12.7159 11.3009 13.5208 10.0992 14.0017C9.29623 14.323 8.41939 14.5 7.5 14.5C6.58061 14.5 5.70377 14.323 4.90083 14.0017C3.69914 13.5208 2.66109 12.7159 1.89537 11.6946C1.01898 10.5256 0.5 9.07412 0.5 7.5C0.5 5.92588 1.01898 4.47443 1.89537 3.30544C2.66109 2.28407 3.69914 1.47915 4.90083 0.998289C5.70377 0.676988 6.58061 0.5 7.5 0.5C8.41939 0.5 9.29623 0.676987 10.0992 0.998289C11.3009 1.47915 12.3389 2.28407 13.1046 3.30544C13.981 4.47443 14.5 5.92588 14.5 7.5Z" stroke="#F8F8F8"/>
</svg>
