<svg width="50" height="53" viewBox="0 0 50 53" fill="none" xmlns="http://www.w3.org/2000/svg">
<circle cx="25" cy="25" r="24.5833" stroke="#E3B04B" stroke-width="0.833333"/>
<path d="M17.6667 23.1949H12.0017V40.2301H17.6675L17.6667 23.1949Z" fill="#E3B04B"/>
<path d="M18.04 17.9252C18.0033 16.2556 16.81 14.983 14.8717 14.983C12.9342 14.983 11.6667 16.2556 11.6667 17.9252C11.6667 19.5614 12.8967 20.8699 14.7983 20.8699H14.8342C16.81 20.8699 18.04 19.5597 18.04 17.9252Z" fill="#E3B04B"/>
<path d="M38.1 30.4629C38.1 25.2306 35.305 22.7955 31.5767 22.7955C28.5683 22.7955 27.2225 24.4484 26.47 25.6084V23.1958H20.8033C20.8783 24.7945 20.8033 40.231 20.8033 40.231H26.47V30.7172C26.47 30.2085 26.5067 29.6998 26.6567 29.3354C27.0667 28.3179 27.9983 27.2655 29.5642 27.2655C31.6142 27.2655 32.435 28.8275 32.435 31.1167V40.2301H38.1V30.4629Z" fill="#E3B04B"/>
</svg>
