<svg width="51" height="47" viewBox="0 0 51 47" fill="none" xmlns="http://www.w3.org/2000/svg">
<path opacity="0.2" d="M0 46.1498V30.9232C0 27.4518 0.613116 23.8226 1.83935 20.0357C3.06558 16.1962 4.7261 12.5407 6.82092 9.06938C8.96682 5.59802 11.3682 2.62632 14.025 0.154297L25.0611 6.30807C23.0174 9.98981 21.4591 13.803 20.3861 17.7478C19.3643 21.6399 18.8533 26.0317 18.8533 30.9232V46.1498H0ZM25.8275 46.1498V30.9232C25.8275 27.4518 26.4406 23.8226 27.6669 20.0357C28.8931 16.1962 30.5536 12.5407 32.6484 9.06938C34.7943 5.59802 37.1957 2.62632 39.8525 0.154297L50.8886 6.30807C48.8449 9.98981 47.2866 13.803 46.2136 17.7478C45.1918 21.6399 44.6808 26.0317 44.6808 30.9232V46.1498H25.8275Z" fill="#E3B04B"/>
</svg>
