<svg width="50" height="53" viewBox="0 0 50 53" fill="none" xmlns="http://www.w3.org/2000/svg">
<circle cx="25" cy="25" r="24.5833" stroke="#E3B04B" stroke-width="0.833333"/>
<path d="M24.2517 22.8088L24.3033 23.6745L23.4292 23.5685C20.2467 23.1624 17.4667 21.7839 15.1058 19.4697L13.9517 18.3213L13.6542 19.1694C13.025 21.06 13.4267 23.0565 14.7383 24.3992C15.4383 25.1414 15.28 25.2473 14.0742 24.8053C13.6542 24.6635 13.2867 24.5585 13.2517 24.611C13.1292 24.7353 13.5492 26.3423 13.8817 26.9786C14.3358 27.8626 15.2633 28.7274 16.2775 29.2403L17.1342 29.6464L16.12 29.6639C15.1408 29.6639 15.1058 29.6814 15.2108 30.0526C15.5608 31.2009 16.9417 32.4202 18.4808 32.9505L19.5642 33.3208L18.6208 33.8862C17.1925 34.7076 15.5811 35.1572 13.9342 35.1939C13.1467 35.2114 12.5 35.2823 12.5 35.3357C12.5 35.5116 14.6333 36.5015 15.875 36.8902C19.6 38.0385 24.0242 37.544 27.3467 35.5825C29.7075 34.1873 32.0683 31.4127 33.17 28.7274C33.7642 27.2963 34.3583 24.6819 34.3583 23.4276C34.3583 22.6145 34.4108 22.5086 35.3908 21.537C35.9675 20.9716 36.51 20.3528 36.6142 20.1768C36.7892 19.8408 36.7725 19.8408 35.8808 20.141C34.3933 20.6714 34.1842 20.6005 34.9183 19.8057C35.46 19.2403 36.1075 18.2154 36.1075 17.9152C36.1075 17.8626 35.845 17.9502 35.5475 18.1095C35.2333 18.2863 34.5333 18.5515 34.0092 18.7099L33.065 19.0101L32.2075 18.4272C31.7358 18.1103 31.0708 17.7559 30.7217 17.65C29.83 17.4031 28.4658 17.4381 27.6608 17.7208C25.475 18.5156 24.0942 20.5646 24.2517 22.8088Z" fill="#E3B04B"/>
</svg>
