<svg width="70" height="71" viewBox="0 0 70 71" fill="none" xmlns="http://www.w3.org/2000/svg">
<path d="M34.7498 70.2045C53.9393 70.2045 69.5218 54.5671 69.5544 35.2775C69.5869 15.9879 54.0572 0.350586 34.8677 0.350586C15.6782 0.350586 0.0956862 15.9879 0.0631398 35.2775C0.0305933 54.5671 15.5604 70.2045 34.7498 70.2045Z" fill="url(#paint0_linear)"/>
<path d="M34.5786 69.2911C34.3101 69.2911 34.0444 69.2911 33.7759 69.2737L33.9492 63.3094H34.6306L34.5786 69.2911ZM35.7191 69.2911L35.5632 63.3239C35.7884 63.3239 36.0107 63.3239 36.233 63.3007L36.5218 69.2592C36.2533 69.2621 35.9905 69.2708 35.7191 69.2795V69.2911ZM32.6441 69.2331C32.3727 69.2185 32.0984 69.1953 31.827 69.1721L32.3496 63.2281C32.569 63.2484 32.7885 63.2629 33.0108 63.2774L32.6441 69.2331ZM37.6594 69.1837L37.1743 63.2368L37.8326 63.1729L38.4765 69.1053C38.2051 69.1227 37.9337 69.1605 37.6594 69.1605V69.1837ZM30.7009 69.053C30.4324 69.0211 30.1639 68.9862 29.8954 68.9456L30.7616 63.0393C30.981 63.0742 31.2033 63.1032 31.4257 63.1293L30.7009 69.053ZM39.5997 68.963L38.7652 63.0567C38.9876 63.0248 39.207 62.99 39.4264 62.9522L40.4023 68.8382C40.1367 68.8701 39.8682 68.9137 39.5997 68.9514V68.963ZM28.778 68.7626L27.9782 68.6087L29.1649 62.7606L29.8203 62.8883L28.778 68.7626ZM41.5169 68.632L40.3619 62.7809C40.5785 62.7373 40.795 62.6909 41.0087 62.6415L42.3282 68.449C42.0539 68.51 41.7854 68.5797 41.5169 68.6204V68.632ZM26.8723 68.359C26.6067 68.2951 26.3382 68.2283 26.0754 68.1558L27.6086 62.3918L28.2467 62.5544L26.8723 68.359ZM43.4225 68.1906L41.9095 62.4179C42.129 62.3599 42.3455 62.3018 42.5621 62.2379L44.2021 67.9728L43.4225 68.1906ZM24.9927 67.8334C24.7299 67.7521 24.4701 67.6708 24.2131 67.5837L26.0783 61.9185C26.2891 61.9911 26.4999 62.0579 26.7106 62.1217L24.9927 67.8334ZM45.2993 67.6244L43.4629 61.9504C43.6795 61.8807 43.8902 61.8081 44.1039 61.7326L46.0673 67.363C45.8045 67.453 45.5476 67.5402 45.2906 67.6244H45.2993ZM23.1419 67.2062C22.8878 67.1133 22.6366 67.0175 22.3854 66.9159L24.5625 61.3639C24.7704 61.4452 24.9811 61.5265 25.1948 61.6049L23.1419 67.2062ZM47.1414 66.9623L44.9788 61.4045C45.1866 61.3232 45.3945 61.239 45.5995 61.1519L47.9094 66.669C47.6409 66.759 47.3868 66.8607 47.1327 66.9623H47.1414ZM21.3344 66.4803L20.5953 66.1464L23.087 60.7395L23.6963 61.0154L21.3344 66.4803ZM48.9402 66.1899L46.4628 60.7686C46.665 60.6757 46.8671 60.5769 47.0663 60.4782L49.6649 65.8386C49.4253 65.9663 49.1798 66.0796 48.9315 66.1928L48.9402 66.1899ZM19.5616 65.6469C19.322 65.525 19.0852 65.4001 18.8484 65.2723L21.6549 60.0136C21.8513 60.121 22.0505 60.2227 22.2497 60.3272L19.5616 65.6469ZM50.6899 65.3188L47.8979 60.0543C48.0942 59.9468 48.2905 59.8394 48.4753 59.729L51.3973 64.9239C51.1634 65.0574 50.9238 65.191 50.6899 65.3188ZM17.8581 64.7177C17.6242 64.5812 17.3903 64.4273 17.1594 64.2967L20.2632 59.2122C20.4509 59.3283 20.6415 59.4416 20.8407 59.5548L17.8581 64.7177ZM52.379 64.346L49.2924 59.2528L49.8699 58.8957L53.0806 63.9134C52.841 64.0614 52.6129 64.2037 52.379 64.346ZM16.2036 63.6869C15.9784 63.5388 15.7532 63.3965 15.5309 63.2281L18.9293 58.3294C19.1112 58.4572 19.2931 58.582 19.4808 58.704L16.2036 63.6869ZM54.0277 63.2803L50.6553 58.3701C50.84 58.2423 51.022 58.1116 51.2039 57.9781L54.6888 62.807C54.4579 62.9696 54.2384 63.1264 54.0161 63.2803H54.0277ZM14.5983 62.5602C14.3846 62.3976 14.1681 62.235 13.9573 62.0666L17.6156 57.3712C17.7946 57.5106 17.9707 57.6615 18.1526 57.7806L14.5983 62.5602ZM55.5984 62.1188L51.9459 57.4147L52.4772 56.9879L56.2307 61.6136C56.0084 61.7849 55.8005 61.9504 55.5984 62.1188ZM13.0824 61.3493C12.8774 61.1751 12.6724 60.998 12.4703 60.818L16.3884 56.3345C16.5559 56.4855 16.7263 56.6249 16.8966 56.7759L13.0824 61.3493ZM57.0882 60.8702L53.1817 56.3839C53.3491 56.2358 53.5166 56.0935 53.6812 55.9309L57.6917 60.333C57.4924 60.513 57.2903 60.6931 57.0882 60.8702ZM11.6359 60.0513C11.4367 59.8655 11.2432 59.6768 11.0584 59.4706L15.2104 55.2224L15.6897 55.687L11.6359 60.0513ZM58.5174 59.5374L54.3568 55.2834C54.5185 55.1237 54.6773 54.964 54.8332 54.8013L59.0891 58.9595C58.9015 59.1541 58.7109 59.3457 58.5174 59.5374ZM10.2442 58.6662C10.0623 58.4717 9.8804 58.2742 9.70139 58.0855L14.0988 54.0609L14.5608 54.5632L10.2442 58.6662ZM59.8658 58.1262L55.4742 54.1131C55.6243 53.9476 55.7629 53.7821 55.916 53.6137L60.4058 57.5135C60.2181 57.7196 60.0477 57.9258 59.8658 58.1262ZM8.94491 57.1999C8.77167 56.9937 8.60131 56.7846 8.43385 56.5755L13.0536 52.8355L13.4867 53.364L8.94491 57.1999ZM61.1334 56.6394L56.5136 52.8907C56.6551 52.7164 56.8024 52.5393 56.9265 52.3622L61.6358 55.9948C61.4712 56.2126 61.3037 56.4275 61.1334 56.6394ZM7.73223 55.6696C7.57054 55.4518 7.41174 55.2311 7.25582 55.0104L12.0863 51.5491C12.2191 51.7321 12.3491 51.9121 12.4848 52.095L7.73223 55.6696ZM62.3027 55.0888L57.4751 51.6043L57.862 51.0468L62.7705 54.4151C62.6261 54.6416 62.4731 54.8594 62.3172 55.0772L62.3027 55.0888ZM6.61194 54.0609C6.4618 53.8315 6.32321 53.6021 6.17018 53.3698L11.1912 50.1902C11.3096 50.3789 11.428 50.5676 11.5522 50.7535L6.61194 54.0609ZM63.3941 53.4598L58.3846 50.2657C58.503 50.0769 58.6185 49.8882 58.734 49.6849L63.8215 52.7513C63.6829 52.9981 63.5472 53.2304 63.3941 53.4598ZM5.5725 52.4028C5.43391 52.1676 5.3011 51.9295 5.17117 51.6914L10.3684 48.808C10.4781 49.0054 10.5878 49.2029 10.7004 49.3887L5.5725 52.4028ZM64.3903 51.7785L59.1931 48.8748C59.3028 48.6802 59.4067 48.4828 59.5107 48.294L64.7685 51.0613C64.6559 51.2994 64.5289 51.5404 64.396 51.7785H64.3903ZM4.62258 50.678C4.50131 50.437 4.38004 50.1931 4.26454 49.9492L9.61188 47.3648C9.71005 47.571 9.80822 47.7713 9.90061 47.9746L4.62258 50.678ZM65.2565 50.045L59.9178 47.4461C60.0131 47.2486 60.1055 47.0454 60.2065 46.845L65.6145 49.3016C65.5221 49.5513 65.4153 49.7981 65.2882 50.045H65.2565ZM3.77658 48.9067C3.66687 48.657 3.56293 48.4044 3.45898 48.1517L8.94491 45.8868C9.03153 46.0958 9.11814 46.302 9.20765 46.5082L3.77658 48.9067ZM66.0851 48.2533L60.5992 45.9768C60.6829 45.7677 60.7667 45.5587 60.8475 45.3467L66.3825 47.5013C66.2815 47.7539 66.1891 48.0065 66.0851 48.2533ZM3.07207 47.0715C2.97968 46.816 2.89018 46.5604 2.80067 46.3049L8.41652 44.371C8.48871 44.5859 8.56378 44.7979 8.64173 45.0128L3.07207 47.0715ZM66.7752 46.424L61.1709 44.4785C61.246 44.2694 61.3153 44.0574 61.3846 43.8425L67.0351 45.64C66.9513 45.91 66.8589 46.1685 66.7752 46.4269V46.424ZM2.44842 45.2073C2.37046 44.9489 2.29539 44.6904 2.22321 44.4291L7.93723 42.8233C7.99786 43.0411 8.06138 43.2589 8.1249 43.4737L2.44842 45.2073ZM67.3613 44.551L61.6618 42.9278C61.7224 42.713 61.7801 42.4952 61.8379 42.2803L67.5837 43.7641C67.5086 44.0284 67.4364 44.2926 67.3613 44.554V44.551ZM1.93736 43.3169C1.87095 43.0527 1.81321 42.7885 1.75257 42.5184L7.55032 41.2437C7.59941 41.4643 7.64849 41.6821 7.70046 41.8999L1.93736 43.3169ZM67.8378 42.6462L62.0458 41.3482C62.0949 41.1333 62.1382 40.9155 62.1815 40.6977L68.0139 41.8476C67.9532 42.1177 67.8984 42.3877 67.8378 42.6578V42.6462ZM1.53024 41.3947C1.48116 41.1246 1.43496 40.8575 1.39454 40.5874L7.25582 39.6611C7.29047 39.8818 7.328 40.1054 7.36842 40.3232L1.53024 41.3947ZM68.2044 40.7123L62.346 39.7657L62.4471 39.092L68.3257 39.9108C68.2891 40.1896 68.2487 40.4606 68.2044 40.7239V40.7123ZM1.23574 39.452C1.20398 39.1849 1.17222 38.9177 1.14623 38.6477L7.05081 38.0669L7.12589 38.7435L1.23574 39.452ZM68.4585 38.7755L62.5568 38.1599C62.5799 37.9392 62.6001 37.7185 62.6175 37.4978L68.5336 37.9508C68.5134 38.2383 68.4874 38.5112 68.4585 38.7871V38.7755ZM1.05384 37.5123C1.03651 37.2394 1.02208 36.9664 1.01053 36.6906L6.9411 36.4466C6.9411 36.6673 6.96131 36.8909 6.97575 37.1116L1.05384 37.5123ZM68.6173 36.8154L62.6896 36.5512L62.7127 35.8688L68.6462 36.0082C68.6231 36.2898 68.6144 36.557 68.5913 36.827L68.6173 36.8154ZM0.996094 35.5465V34.7508L6.92955 34.8322V35.5116L0.996094 35.5465ZM62.7185 34.9309C62.7185 34.7044 62.7185 34.4808 62.7012 34.2572L68.6318 34.0452C68.6318 34.3182 68.6318 34.5882 68.652 34.8612L62.7185 34.9309ZM6.96131 33.8855L1.03651 33.5951C1.03651 33.3251 1.06539 33.055 1.08271 32.7879L7.00173 33.2089L6.96131 33.8855ZM62.6521 33.3048C62.6386 33.0841 62.6213 32.8634 62.6001 32.6427L68.5076 32.0794C68.5336 32.3523 68.5538 32.6282 68.574 32.9041L62.6521 33.3048ZM7.07103 32.2826L1.16933 31.6554C1.1982 31.3825 1.22997 31.1124 1.26461 30.8424L7.14899 31.6148C7.12012 31.8326 7.09124 32.0561 7.07103 32.2826ZM62.4846 31.7193L62.3923 31.0456L68.2593 30.1745C68.2997 30.4387 68.3372 30.7059 68.369 30.9759L62.4846 31.7193ZM7.2847 30.6856L1.42919 29.7099C1.47539 29.4399 1.52158 29.1756 1.57067 28.9114L7.40307 30.0177L7.2847 30.6856ZM62.2363 30.1048C62.1959 29.888 62.1526 29.6702 62.1064 29.4515L67.9099 28.2116C67.9677 28.4816 68.0197 28.7488 68.0716 29.0217L62.2363 30.1048ZM7.59363 29.0885L1.80165 27.7963C1.8594 27.5263 1.92292 27.2562 1.99222 26.9891L7.74378 28.441C7.69181 28.6558 7.64272 28.8707 7.59363 29.0885ZM61.8985 28.5455C61.8465 28.3277 61.7917 28.1128 61.731 27.898L67.4537 26.3183C67.5259 26.5825 67.5923 26.8468 67.6587 27.1139L61.8985 28.5455ZM7.98919 27.5321L2.28384 25.8944C2.35891 25.6301 2.43687 25.3688 2.5206 25.1074L8.17976 26.8962C8.11335 27.0994 8.04983 27.3143 7.98919 27.5292V27.5321ZM61.4683 26.9862C61.4019 26.7713 61.3355 26.5593 61.2633 26.3473L66.8878 24.4425C66.9744 24.7038 67.0582 24.9652 67.139 25.2265L61.4683 26.9862ZM8.47427 25.9931L2.87574 24.0185C2.96525 23.763 3.05764 23.5075 3.16447 23.2548L8.71681 25.3572C8.6273 25.5662 8.54934 25.7782 8.47427 25.9902V25.9931ZM60.9486 25.453C60.8706 25.241 60.7898 25.0319 60.706 24.8229L66.2151 22.6015C66.3132 22.8541 66.4143 23.1096 66.5038 23.3652L60.9486 25.453ZM9.05174 24.4802L3.56581 22.1979C3.66687 21.9452 3.77659 21.6926 3.8863 21.4429L9.31449 23.8617C9.22498 24.0708 9.13547 24.2741 9.05174 24.4773V24.4802ZM60.3422 23.9517C60.2527 23.7485 60.1603 23.5452 60.0535 23.3449L65.4182 20.7953C65.5365 21.0422 65.6492 21.2948 65.7589 21.5445L60.3422 23.9517ZM9.70716 23.0196L4.37137 20.4062C4.49264 20.1623 4.61102 19.9184 4.73518 19.6774L10.0074 22.4098C9.90639 22.616 9.80533 22.8164 9.70716 23.0167V23.0196ZM59.6579 22.4941C59.5569 22.2908 59.45 22.0904 59.3432 21.8901L64.5491 19.0473C64.6761 19.2854 64.8032 19.5235 64.9273 19.7645L59.6579 22.4941ZM10.4608 21.5881L5.28089 18.6843C5.41082 18.4462 5.54652 18.211 5.68511 17.9787L10.7928 21.0131C10.6715 21.1961 10.556 21.3906 10.4521 21.5852L10.4608 21.5881ZM58.8813 21.0712C58.7696 20.8776 58.6541 20.684 58.5348 20.4905L63.576 17.3428C63.7204 17.5751 63.8648 17.8103 64.0005 18.0455L58.8813 21.0712ZM11.2865 20.2001L6.27701 17.0059C6.42138 16.7736 6.56574 16.5442 6.72743 16.3148L11.6359 19.6484C11.5146 19.8255 11.3962 20.0113 11.2779 20.1972L11.2865 20.2001ZM58.0295 19.7035L57.6426 19.1402L62.4962 15.7312C62.6492 15.9519 62.8022 16.1726 62.9495 16.3961L58.0295 19.7035ZM12.1932 18.8614L7.36554 15.3914C7.52434 15.1649 7.68892 14.9414 7.85638 14.7207L12.5772 18.3446C12.4415 18.5043 12.3115 18.6814 12.1845 18.8585L12.1932 18.8614ZM57.0969 18.3881C56.9641 18.2081 56.8255 18.0281 56.684 17.8509L61.3326 14.1399C61.5001 14.3519 61.6646 14.5668 61.8292 14.7845L57.0969 18.3881ZM13.1546 17.5896L8.55223 13.8147C8.72258 13.6056 8.89582 13.3966 9.06906 13.1904L13.5848 17.064C13.4434 17.2411 13.2932 17.4154 13.1546 17.5896ZM56.0834 17.1192C55.9391 16.9479 55.7947 16.7765 55.6417 16.6081L60.0737 12.6416C60.2527 12.8448 60.4289 13.0481 60.605 13.2543L56.0834 17.1192ZM14.2172 16.3613L9.8342 12.3396C10.0161 12.1363 10.2009 11.9389 10.3886 11.7414L14.6705 15.8706C14.503 16.0216 14.3529 16.1958 14.2027 16.3613H14.2172ZM55.018 15.9141C54.865 15.7544 54.712 15.5947 54.556 15.4379L58.7427 11.21C58.9352 11.4036 59.1276 11.5972 59.3201 11.7908L55.018 15.9141ZM15.3375 15.1969L11.1855 10.9342C11.3789 10.7396 11.5781 10.5509 11.7803 10.3534L15.8225 14.7265C15.6377 14.8891 15.4789 15.0401 15.323 15.1969H15.3375ZM53.866 14.7787C53.7014 14.6248 53.5397 14.4738 53.3722 14.3258L57.3163 9.86847C57.5184 10.0485 57.7205 10.2343 57.9198 10.4202L53.866 14.7787ZM16.4982 14.1051L12.6089 9.59843C12.811 9.4213 13.016 9.24707 13.2239 9.07285L17.0121 13.6666C16.8389 13.8118 16.6656 13.957 16.4982 14.1051ZM52.6591 13.6985L52.1393 13.2717L55.8265 8.59662C56.0401 8.76795 56.248 8.93637 56.4559 9.1106L52.6591 13.6985ZM17.7484 13.0626L14.1074 8.36142C14.3211 8.19591 14.5377 8.0304 14.7571 7.86778L18.2825 12.6677L17.7484 13.0626ZM51.3944 12.6967C51.2154 12.5661 51.0364 12.4354 50.8545 12.3076L54.2673 7.42351C54.4887 7.58031 54.7081 7.74002 54.9256 7.90263L51.3944 12.6967ZM19.0563 12.116L15.6984 7.19701C15.9207 7.04311 16.1488 6.88921 16.3769 6.74112L19.6107 11.7443L19.0563 12.116ZM50.0951 11.785L49.5176 11.4191L52.6533 6.35202C52.8814 6.4943 53.1066 6.6424 53.3318 6.78758L50.0951 11.785ZM20.4047 11.242L17.3297 6.14875C17.5607 6.00937 17.7917 5.85837 18.0256 5.73641L20.9735 10.9138L20.4047 11.242ZM48.7207 10.9342C48.5273 10.8238 48.3338 10.7135 48.1433 10.606L50.9844 5.37926C51.2212 5.50702 51.4551 5.64059 51.6889 5.77707L48.7207 10.9342ZM21.8108 10.4405L19.0332 5.16728C19.2758 5.03951 19.5183 4.91465 19.7637 4.79269L22.4028 10.1356C22.192 10.2402 21.9956 10.3418 21.7993 10.4463L21.8108 10.4405ZM47.3146 10.1734C47.1154 10.0717 46.9133 9.97301 46.7112 9.88299L49.2462 4.4878C49.4888 4.60104 49.7313 4.7201 49.971 4.84206L47.3146 10.1734ZM23.2603 9.732L20.7887 4.30777L21.5366 3.97383L23.8724 9.45904L23.2603 9.732ZM45.8681 9.4997C45.6602 9.40968 45.4552 9.32257 45.2473 9.23836L47.4648 3.70378L48.2068 4.01448L45.8681 9.4997ZM24.7039 9.10769L22.5875 3.53536C22.8387 3.43664 23.0899 3.34371 23.344 3.24499L25.3651 8.86087L24.7039 9.10769ZM44.3378 8.89862L43.7083 8.67793L45.6053 3.0243L46.3762 3.29435L44.3378 8.89862ZM26.2227 8.56469L24.4152 2.88202C24.6693 2.80071 24.9263 2.7194 25.1861 2.64391L26.8723 8.36433C26.6673 8.42821 26.4537 8.495 26.24 8.56469H26.2227ZM42.8133 8.39337C42.6025 8.32658 42.3888 8.2656 42.1723 8.20752L43.7603 2.45226C44.0231 2.52195 44.2829 2.60035 44.5428 2.67585L42.8133 8.39337ZM27.7616 8.10299L26.2833 2.32159C26.5432 2.2548 26.803 2.19092 27.0658 2.12994L28.4199 7.93747C28.2149 8.00136 27.9984 8.05652 27.779 8.1146L27.7616 8.10299ZM41.2628 7.9607L40.6189 7.81551L41.8374 1.97604C42.1059 2.03412 42.3744 2.09219 42.64 2.15607L41.2628 7.9607ZM29.341 7.74002L28.1861 1.88892C28.4546 1.83375 28.726 1.78439 28.9974 1.73503L30.0022 7.61806C29.7885 7.66742 29.572 7.70807 29.3583 7.75163L29.341 7.74002ZM39.6978 7.63548L39.028 7.52513L39.9317 1.62759C40.1973 1.66824 40.4601 1.7118 40.7257 1.75826L39.6978 7.63548ZM30.9204 7.47287L30.1004 1.5637C30.3689 1.52596 30.6345 1.49111 30.9059 1.45917L31.5845 7.38866C31.3795 7.4235 31.1571 7.45254 30.9377 7.48449L30.9204 7.47287ZM38.104 7.40027C37.8817 7.37414 37.6594 7.34801 37.4371 7.32768L37.9914 1.38658C38.2628 1.41271 38.5314 1.44175 38.7999 1.47369L38.104 7.40027ZM32.5373 7.31026L32.0493 1.36334C32.3236 1.34011 32.595 1.31979 32.8693 1.30527L33.1985 7.2638L32.5373 7.31026ZM36.5247 7.2696L35.8548 7.23766L36.0627 1.27333C36.3312 1.27333 36.6026 1.29656 36.874 1.31398L36.5247 7.2696ZM34.1397 7.22605L33.9983 1.26172C34.2697 1.26172 34.5382 1.26172 34.8096 1.26172L34.9222 7.23186H34.7518L34.1397 7.22605Z" fill="url(#paint1_linear)"/>
<path d="M34.8141 8.40088C29.5299 8.4003 24.3643 9.97563 19.9704 12.9276C15.5765 15.8796 12.1518 20.0757 10.1292 24.9853C8.10668 29.8948 7.5772 35.2973 8.60774 40.5095C9.63827 45.7217 12.1825 50.5095 15.9188 54.2674C19.655 58.0253 24.4154 60.5846 29.598 61.6216C34.7806 62.6585 40.1525 62.1266 45.0345 60.0931C49.9164 58.0595 54.0891 54.6157 57.0249 50.1972C59.9607 45.7786 61.5277 40.5837 61.5277 35.2695C61.5277 28.144 58.7133 21.3103 53.7036 16.2715C48.6939 11.2328 41.8992 8.40165 34.8141 8.40088Z" fill="url(#paint2_linear)"/>
<path d="M60.4399 35.2712C60.4758 38.679 59.8395 42.0603 58.5676 45.2192C57.2957 48.3781 55.4136 51.252 53.0302 53.6747C50.6467 56.0973 47.8092 58.0205 44.6818 59.3331C41.5544 60.6457 38.1993 61.3215 34.8105 61.3215C31.4217 61.3215 28.0666 60.6457 24.9392 59.3331C21.8118 58.0205 18.9743 56.0973 16.5909 53.6747C14.2074 51.252 12.3252 48.3781 11.0534 45.2192C9.78152 42.0603 9.14516 38.679 9.18113 35.2712C9.1841 33.9935 9.27574 32.7176 9.45542 31.4527C10.365 25.3431 13.4256 19.765 18.0802 15.7338C22.7348 11.7025 28.674 9.48604 34.8167 9.48779C40.9594 9.48955 46.8974 11.7094 51.5497 15.7434C56.202 19.7773 59.2595 25.3571 60.1656 31.4672C60.3447 32.7273 60.4364 33.9983 60.4399 35.2712Z" fill="url(#paint3_linear)"/>
<path style="mix-blend-mode:color-burn" opacity="0.15" d="M60.1642 31.4647C59.4579 26.661 57.4157 22.156 54.2732 18.4693C51.1307 14.7826 47.0159 12.0644 42.4035 10.6283C37.7911 9.19214 32.8689 9.09657 28.2048 10.3526C23.5407 11.6086 19.3246 14.165 16.043 17.727C19.4428 14.4831 23.6628 12.24 28.2431 11.2423C32.8234 10.2446 37.5881 10.5305 42.0178 12.0689C46.4476 13.6073 50.3725 16.3392 53.3646 19.9667C56.3567 23.5942 58.3012 27.9782 58.9862 32.6407C59.1715 33.8993 59.268 35.1695 59.2749 36.4418C59.2757 42.992 56.7863 49.2946 52.3165 54.0589C54.8801 51.6551 56.9242 48.7463 58.3215 45.5137C59.7188 42.281 60.4395 38.7936 60.4385 35.2686C60.4351 33.9958 60.3434 32.7247 60.1642 31.4647Z" fill="url(#paint4_linear)"/>
<path style="mix-blend-mode:screen" opacity="0.45" d="M60.1652 31.4672C53.9978 36.8944 44.9172 40.315 34.8115 40.315C24.7059 40.315 15.6166 36.8944 9.44922 31.4527C10.3588 25.3431 13.4194 19.765 18.074 15.7338C22.7286 11.7025 28.6678 9.48604 34.8105 9.48779C40.9532 9.48955 46.8912 11.7094 51.5435 15.7434C56.1958 19.7773 59.2533 25.3571 60.1594 31.4672H60.1652Z" fill="url(#paint5_linear)"/>
<g filter="url(#filter0_d)">
<path d="M39.8683 59H34.2309V21.0745L22.9258 25.2884V20.121L38.9893 14H39.8683V59Z" fill="url(#paint6_linear)"/>
</g>
<defs>
<filter id="filter0_d" x="21.9258" y="14" width="17.9425" height="46" filterUnits="userSpaceOnUse" color-interpolation-filters="sRGB">
<feFlood flood-opacity="0" result="BackgroundImageFix"/>
<feColorMatrix in="SourceAlpha" type="matrix" values="0 0 0 0 0 0 0 0 0 0 0 0 0 0 0 0 0 0 127 0"/>
<feOffset dx="-1" dy="1"/>
<feColorMatrix type="matrix" values="0 0 0 0 0.8125 0 0 0 0 0.636458 0 0 0 0 0.284375 0 0 0 1 0"/>
<feBlend mode="normal" in2="BackgroundImageFix" result="effect1_dropShadow"/>
<feBlend mode="normal" in="SourceGraphic" in2="effect1_dropShadow" result="shape"/>
</filter>
<linearGradient id="paint0_linear" x1="68.9848" y1="17.9301" x2="0.453587" y2="52.2688" gradientUnits="userSpaceOnUse">
<stop stop-color="#F1D6AB"/>
<stop offset="0.17" stop-color="#F0D3A4"/>
<stop offset="0.42" stop-color="#EDCC91"/>
<stop offset="0.7" stop-color="#E9C072"/>
<stop offset="1" stop-color="#E3B04B"/>
</linearGradient>
<linearGradient id="paint1_linear" x1="0.981657" y1="35.2706" x2="68.6375" y2="35.2706" gradientUnits="userSpaceOnUse">
<stop offset="0.49" stop-color="#F1D6AB"/>
<stop offset="0.54" stop-color="#F0D3A4"/>
<stop offset="0.63" stop-color="#EDCC91"/>
<stop offset="0.73" stop-color="#E9C072"/>
<stop offset="0.83" stop-color="#E3B04B"/>
</linearGradient>
<linearGradient id="paint2_linear" x1="25296.3" y1="33728.5" x2="28703.6" y2="30546.1" gradientUnits="userSpaceOnUse">
<stop stop-color="#F1D6AB"/>
<stop offset="0.17" stop-color="#F0D3A4"/>
<stop offset="0.42" stop-color="#EDCC91"/>
<stop offset="0.7" stop-color="#E9C072"/>
<stop offset="1" stop-color="#E3B04B"/>
</linearGradient>
<linearGradient id="paint3_linear" x1="50.6922" y1="16.0221" x2="26.654" y2="60.3006" gradientUnits="userSpaceOnUse">
<stop stop-color="#F1D6AB"/>
<stop offset="1" stop-color="#E3B04B"/>
</linearGradient>
<linearGradient id="paint4_linear" x1="5.20105" y1="73.3428" x2="60.4438" y2="3.23969" gradientUnits="userSpaceOnUse">
<stop stop-color="#F1D6AB"/>
<stop offset="0.34" stop-color="#F1D6AB"/>
<stop offset="0.41" stop-color="#EECF98"/>
<stop offset="0.56" stop-color="#E9C177"/>
<stop offset="0.7" stop-color="#E6B85F"/>
<stop offset="0.83" stop-color="#E4B250"/>
<stop offset="0.94" stop-color="#E3B04B"/>
</linearGradient>
<linearGradient id="paint5_linear" x1="-12.4339" y1="-16.7846" x2="80.9431" y2="70.0202" gradientUnits="userSpaceOnUse">
<stop stop-color="#F1D6AB" stop-opacity="0.24"/>
</linearGradient>
<linearGradient id="paint6_linear" x1="38.3281" y1="14.7759" x2="14.251" y2="43.4239" gradientUnits="userSpaceOnUse">
<stop stop-color="#E3B04B"/>
<stop offset="0.19" stop-color="#E3B04B"/>
<stop offset="1" stop-color="#F1D6AB"/>
</linearGradient>
</defs>
</svg>
