<svg width="67" height="71" viewBox="0 0 67 71" fill="none" xmlns="http://www.w3.org/2000/svg">
<path d="M33.3737 70.0864C51.8032 70.0864 66.7687 54.4491 66.7999 35.1594C66.8312 15.8698 51.9164 0.232422 33.4869 0.232422C15.0573 0.232422 0.0918482 15.8698 0.0605906 35.1594C0.029333 54.4491 14.9441 70.0864 33.3737 70.0864Z" fill="url(#paint0_linear)"/>
<path d="M33.2097 69.1729C32.9518 69.1729 32.6967 69.1729 32.4388 69.1555L32.6052 63.1912H33.2596L33.2097 69.1729ZM34.3051 69.1729L34.1553 63.2057C34.3716 63.2057 34.5851 63.2057 34.7986 63.1824L35.0759 69.141C34.8181 69.1439 34.5657 69.1526 34.3051 69.1613V69.1729ZM31.3518 69.1148C31.0912 69.1003 30.8277 69.0771 30.5671 69.0538L31.069 63.1099C31.2797 63.1302 31.4905 63.1447 31.704 63.1592L31.3518 69.1148ZM36.1685 69.0655L35.7026 63.1186L36.3349 63.0547L36.9533 68.9871C36.6926 69.0045 36.4319 69.0422 36.1685 69.0422V69.0655ZM29.4856 68.9348C29.2277 68.9029 28.9698 68.868 28.7119 68.8274L29.5438 62.9211C29.7546 62.956 29.9681 62.985 30.1816 63.0111L29.4856 68.9348ZM38.032 68.8448L37.2306 62.9385C37.4441 62.9066 37.6548 62.8717 37.8656 62.834L38.8029 68.7199C38.5477 68.7519 38.2899 68.7954 38.032 68.8332V68.8448ZM27.6388 68.6444L26.8707 68.4905L28.0104 62.6424L28.6398 62.7701L27.6388 68.6444ZM39.8732 68.5138L38.764 62.6627C38.972 62.6191 39.18 62.5727 39.3852 62.5233L40.6524 68.3308C40.389 68.3918 40.1311 68.4615 39.8732 68.5021V68.5138ZM25.8086 68.2408C25.5535 68.1769 25.2956 68.1101 25.0433 68.0375L26.5157 62.2736L27.1286 62.4362L25.8086 68.2408ZM41.7034 68.0724L40.2504 62.2997C40.4611 62.2416 40.6691 62.1835 40.877 62.1197L42.4521 67.8546L41.7034 68.0724ZM24.0034 67.7152C23.751 67.6339 23.5015 67.5526 23.2547 67.4655L25.046 61.8003C25.2485 61.8729 25.4509 61.9396 25.6533 62.0035L24.0034 67.7152ZM43.5059 67.5062L41.7422 61.8322C41.9502 61.7625 42.1526 61.6899 42.3578 61.6144L44.2435 67.2448C43.9911 67.3348 43.7443 67.422 43.4975 67.5062H43.5059ZM22.2259 67.088C21.9819 66.9951 21.7406 66.8993 21.4994 66.7976L23.5902 61.2456C23.7899 61.327 23.9923 61.4082 24.1975 61.4866L22.2259 67.088ZM45.275 66.8441L43.198 61.2863C43.3977 61.205 43.5974 61.1208 43.7942 61.0337L46.0126 66.5508C45.7547 66.6408 45.5107 66.7425 45.2667 66.8441H45.275ZM20.49 66.3621L19.7801 66.0281L22.1732 60.6213L22.7583 60.8972L20.49 66.3621ZM47.0026 66.0717L44.6234 60.6504C44.8175 60.5574 45.0116 60.4587 45.2029 60.36L47.6986 65.7203C47.4685 65.8481 47.2327 65.9614 46.9943 66.0746L47.0026 66.0717ZM18.7874 65.5287C18.5572 65.4067 18.3298 65.2819 18.1025 65.1541L20.7978 59.8954C20.9864 60.0028 21.1777 60.1045 21.369 60.209L18.7874 65.5287ZM48.683 65.2006L46.0016 59.936C46.1901 59.8286 46.3787 59.7212 46.5562 59.6108L49.3624 64.8056C49.1378 64.9392 48.9076 65.0728 48.683 65.2006ZM17.1513 64.5995C16.9267 64.463 16.7021 64.3091 16.4802 64.1784L19.4612 59.0939C19.6415 59.2101 19.8245 59.3233 20.0158 59.4366L17.1513 64.5995ZM50.3052 64.2278L47.3409 59.1346L47.8955 58.7774L50.9791 63.7951C50.7489 63.9432 50.5298 64.0855 50.3052 64.2278ZM15.5624 63.5687C15.3461 63.4206 15.1298 63.2783 14.9163 63.1099L18.1801 58.2112C18.3548 58.339 18.5295 58.4638 18.7097 58.5858L15.5624 63.5687ZM51.8886 63.1621L48.6498 58.2519C48.8272 58.1241 49.0019 57.9934 49.1766 57.8598L52.5236 62.6888C52.3018 62.8514 52.091 63.0082 51.8775 63.1621H51.8886ZM14.0206 62.442C13.8154 62.2794 13.6074 62.1168 13.405 61.9484L16.9184 57.253C17.0903 57.3924 17.2595 57.5433 17.4342 57.6624L14.0206 62.442ZM53.3971 62.0006L49.8893 57.2965L50.3995 56.8697L54.0044 61.4954C53.7909 61.6667 53.5912 61.8322 53.3971 62.0006ZM12.5648 61.2311C12.3679 61.0569 12.171 60.8798 11.9769 60.6997L15.7399 56.2163C15.9007 56.3673 16.0643 56.5067 16.2279 56.6577L12.5648 61.2311ZM54.828 60.752L51.0761 56.2657C51.237 56.1176 51.3978 55.9753 51.5559 55.8127L55.4075 60.2148C55.2162 60.3948 55.0221 60.5749 54.828 60.752ZM11.1755 59.9331C10.9842 59.7473 10.7984 59.5586 10.6209 59.3524L14.6085 55.1042L15.0688 55.5688L11.1755 59.9331ZM56.2006 59.4192L52.2047 55.1652C52.36 55.0055 52.5125 54.8457 52.6623 54.6831L56.7497 58.8413C56.5694 59.0359 56.3864 59.2275 56.2006 59.4192ZM9.83893 58.548C9.66423 58.3535 9.48953 58.156 9.31761 57.9673L13.5409 53.9427L13.9846 54.445L9.83893 58.548ZM57.4956 58.0079L53.2779 53.9949C53.4221 53.8294 53.5552 53.6639 53.7021 53.4955L58.0142 57.3953C57.8339 57.6014 57.6703 57.8076 57.4956 58.0079ZM8.59108 57.0816C8.4247 56.8755 8.26109 56.6664 8.10026 56.4573L12.5371 52.7173L12.953 53.2458L8.59108 57.0816ZM58.7129 56.5212L54.2762 52.7724C54.412 52.5982 54.5535 52.4211 54.6727 52.244L59.1954 55.8766C59.0374 56.0944 58.8766 56.3092 58.7129 56.5212ZM7.42642 55.5514C7.27114 55.3336 7.11862 55.1129 6.96888 54.8922L11.6081 51.4309C11.7357 51.6138 11.8604 51.7939 11.9908 51.9768L7.42642 55.5514ZM59.836 54.9706L55.1996 51.4861L55.5712 50.9286L60.2852 54.2969C60.1466 54.5234 59.9996 54.7412 59.8499 54.959L59.836 54.9706ZM6.3505 53.9427C6.2063 53.7133 6.0732 53.4839 5.92623 53.2516L10.7485 50.072C10.8622 50.2607 10.9759 50.4494 11.0951 50.6353L6.3505 53.9427ZM60.8842 53.3416L56.0731 50.1475C56.1868 49.9587 56.2977 49.77 56.4086 49.5667L61.2946 52.6331C61.1615 52.8799 61.0312 53.1122 60.8842 53.3416ZM5.35222 52.2846C5.21912 52.0494 5.09156 51.8113 4.96678 51.5732L9.95817 48.6898C10.0635 48.8872 10.1689 49.0847 10.2771 49.2705L5.35222 52.2846ZM61.8409 51.6603L56.8495 48.7566C56.9549 48.562 57.0547 48.3646 57.1545 48.1758L62.2042 50.9431C62.096 51.1812 61.974 51.4222 61.8464 51.6603H61.8409ZM4.43991 50.5598C4.32345 50.3188 4.20697 50.0749 4.09605 49.831L9.23165 47.2466C9.32593 47.4528 9.42021 47.6531 9.50894 47.8564L4.43991 50.5598ZM62.6728 49.9268L57.5455 47.3279C57.637 47.1304 57.7258 46.9272 57.8228 46.7268L63.0166 49.1834C62.9279 49.4331 62.8253 49.6799 62.7033 49.9268H62.6728ZM3.62742 48.7885C3.52204 48.5388 3.42222 48.2862 3.3224 48.0335L8.59108 45.7686C8.67427 45.9776 8.75746 46.1838 8.84342 46.39L3.62742 48.7885ZM63.4686 48.1351L58.2 45.8586C58.2804 45.6495 58.3608 45.4405 58.4384 45.2285L63.7542 47.3831C63.6572 47.6357 63.5685 47.8883 63.4686 48.1351ZM2.95081 46.9533C2.86207 46.6978 2.77612 46.4422 2.69015 46.1867L8.08362 44.2528C8.15295 44.4677 8.22504 44.6797 8.29991 44.8946L2.95081 46.9533ZM64.1314 46.3058L58.749 44.3603C58.8211 44.1512 58.8876 43.9392 58.9542 43.7243L64.381 45.5218C64.3005 45.7918 64.2118 46.0503 64.1314 46.3087V46.3058ZM2.35185 45.0891C2.27698 44.8307 2.20488 44.5722 2.13555 44.3109L7.6233 42.7051C7.68154 42.9229 7.74254 43.1407 7.80355 43.3555L2.35185 45.0891ZM64.6943 44.4328L59.2204 42.8096C59.2786 42.5948 59.3341 42.377 59.3896 42.1621L64.9078 43.6459C64.8357 43.9102 64.7664 44.1744 64.6943 44.4358V44.4328ZM1.86102 43.1987C1.79724 42.9345 1.74179 42.6703 1.68355 42.4002L7.25172 41.1255C7.29886 41.3461 7.346 41.5639 7.39592 41.7817L1.86102 43.1987ZM65.1518 42.528L59.5892 41.23C59.6364 41.0151 59.678 40.7973 59.7195 40.5796L65.321 41.7294C65.2628 41.9995 65.2101 42.2695 65.1518 42.5396V42.528ZM1.47003 41.2765C1.42289 41.0064 1.37852 40.7393 1.3397 40.4692L6.96888 39.5429C7.00216 39.7636 7.0382 39.9872 7.07702 40.205L1.47003 41.2765ZM65.504 40.5941L59.8776 39.6475L59.9747 38.9738L65.6205 39.7926C65.5854 40.0714 65.5465 40.3424 65.504 40.6057V40.5941ZM1.18719 39.3338C1.15668 39.0667 1.12618 38.7995 1.10122 38.5295L6.77199 37.9487L6.84409 38.6253L1.18719 39.3338ZM65.748 38.6573L60.08 38.0417C60.1022 37.821 60.1216 37.6003 60.1383 37.3796L65.8201 37.8326C65.8007 38.1201 65.7758 38.393 65.748 38.6689V38.6573ZM1.01249 37.3941C0.995848 37.1212 0.981985 36.8482 0.970893 36.5724L6.66663 36.3285C6.66663 36.5491 6.68604 36.7727 6.6999 36.9934L1.01249 37.3941ZM65.9006 36.6972L60.2076 36.433L60.2298 35.7506L65.9283 35.89C65.9061 36.1716 65.8978 36.4388 65.8756 36.7088L65.9006 36.6972ZM0.957031 35.4283V34.6326L6.65553 34.714V35.3934L0.957031 35.4283ZM60.2353 34.8127C60.2353 34.5862 60.2353 34.3626 60.2187 34.139L65.9144 33.927C65.9144 34.2 65.9144 34.47 65.9338 34.743L60.2353 34.8127ZM6.68603 33.7673L0.995849 33.477C0.995849 33.2069 1.02358 32.9368 1.04022 32.6697L6.72486 33.0908L6.68603 33.7673ZM60.1715 33.1866C60.1586 32.9659 60.142 32.7452 60.1216 32.5245L65.7952 31.9612C65.8201 32.2341 65.8395 32.51 65.859 32.7859L60.1715 33.1866ZM6.79141 32.1645L1.1234 31.5372C1.15113 31.2643 1.18164 30.9942 1.21492 30.7242L6.86628 31.4966C6.83855 31.7144 6.81082 31.938 6.79141 32.1645ZM60.0107 31.6011L59.922 30.9274L65.5567 30.0563C65.5955 30.3206 65.6316 30.5877 65.6621 30.8578L60.0107 31.6011ZM6.99661 30.5674L1.37298 29.5917C1.41735 29.3217 1.46171 29.0574 1.50885 28.7932L7.1103 29.8995L6.99661 30.5674ZM59.7722 29.9866C59.7334 29.7698 59.6918 29.552 59.6474 29.3333L65.2212 28.0934C65.2766 28.3634 65.3265 28.6306 65.3765 28.9035L59.7722 29.9866ZM7.29332 28.9703L1.73069 27.6781C1.78615 27.4081 1.84716 27.138 1.91371 26.8709L7.43752 28.3228C7.3876 28.5377 7.34046 28.7525 7.29332 28.9703ZM59.4478 28.4273C59.3979 28.2095 59.3452 27.9947 59.287 27.7798L64.783 26.2001C64.8524 26.4644 64.9161 26.7286 64.9799 26.9958L59.4478 28.4273ZM7.67322 27.4139L2.19378 25.7762C2.26588 25.5119 2.34076 25.2506 2.42117 24.9893L7.85623 26.778C7.79246 26.9812 7.73145 27.1961 7.67322 27.411V27.4139ZM59.0346 26.868C58.9708 26.6531 58.9071 26.4411 58.8377 26.2292L64.2395 24.3243C64.3227 24.5856 64.4031 24.847 64.4808 25.1083L59.0346 26.868ZM8.13908 25.8749L2.76224 23.9003C2.84821 23.6448 2.93694 23.3893 3.03954 23.1367L8.37202 25.239C8.28605 25.448 8.21118 25.66 8.13908 25.872V25.8749ZM58.5355 25.3348C58.4606 25.1228 58.383 24.9138 58.3026 24.7047L63.5934 22.4833C63.6877 22.7359 63.7848 22.9915 63.8707 23.247L58.5355 25.3348ZM8.69368 24.362L3.42499 22.0797C3.52205 21.8271 3.62742 21.5744 3.73279 21.3247L8.94603 23.7435C8.86006 23.9526 8.7741 24.1559 8.69368 24.3591V24.362ZM57.9532 23.8336C57.8672 23.6303 57.7785 23.427 57.6758 23.2267L62.8281 20.6772C62.9418 20.924 63.0499 21.1766 63.1553 21.4263L57.9532 23.8336ZM9.32315 22.9014L4.19865 20.2881C4.31512 20.0441 4.42882 19.8002 4.54805 19.5592L9.61154 22.2917C9.51449 22.4978 9.41743 22.6982 9.32315 22.8985V22.9014ZM57.296 22.3759C57.1989 22.1726 57.0963 21.9722 56.9937 21.7719L61.9934 18.9291C62.1154 19.1672 62.2374 19.4053 62.3567 19.6463L57.296 22.3759ZM10.0469 21.4699L5.07215 18.5661C5.19694 18.328 5.32727 18.0928 5.46037 17.8605L10.3658 20.8949C10.2493 21.0779 10.1384 21.2724 10.0386 21.467L10.0469 21.4699ZM56.55 20.953C56.4428 20.7594 56.3319 20.5659 56.2173 20.3723L61.0589 17.2246C61.1976 17.4569 61.3362 17.6921 61.4665 17.9273L56.55 20.953ZM10.84 20.0819L6.02883 16.8878C6.16748 16.6555 6.30613 16.4261 6.46142 16.1967L11.1755 19.5302C11.059 19.7073 10.9454 19.8932 10.8317 20.079L10.84 20.0819ZM55.732 19.5853L55.3604 19.022L60.0218 15.613C60.1688 15.8337 60.3158 16.0544 60.4572 16.278L55.732 19.5853ZM11.7107 18.7433L7.07426 15.2733C7.22677 15.0468 7.38483 14.8232 7.54566 14.6025L12.0795 18.2264C11.9492 18.3861 11.8244 18.5632 11.7024 18.7404L11.7107 18.7433ZM54.8363 18.2699C54.7088 18.0899 54.5756 17.9099 54.4398 17.7327L58.9043 14.0217C59.0651 14.2337 59.2232 14.4486 59.3812 14.6664L54.8363 18.2699ZM12.6341 17.4714L8.21395 13.6965C8.37756 13.4874 8.54394 13.2784 8.71032 13.0722L13.0473 16.9458C12.9114 17.123 12.7672 17.2972 12.6341 17.4714ZM53.863 17.001C53.7243 16.8297 53.5857 16.6584 53.4387 16.4899L57.6953 12.5234C57.8672 12.7267 58.0364 12.9299 58.2055 13.1361L53.863 17.001ZM13.6546 16.2431L9.44516 12.2214C9.61986 12.0181 9.79734 11.8207 9.97758 11.6232L14.0899 15.7524C13.9291 15.9034 13.7849 16.0776 13.6407 16.2431H13.6546ZM52.8397 15.7959C52.6928 15.6362 52.5458 15.4765 52.3961 15.3197L56.4169 11.0918C56.6018 11.2854 56.7867 11.479 56.9715 11.6726L52.8397 15.7959ZM14.7305 15.0787L10.7429 10.816C10.9287 10.6214 11.12 10.4327 11.3142 10.2352L15.1964 14.6083C15.0189 14.7709 14.8664 14.9219 14.7166 15.0787H14.7305ZM51.7333 14.6606C51.5753 14.5067 51.42 14.3557 51.2591 14.2076L55.0471 9.7503C55.2412 9.93034 55.4353 10.1162 55.6266 10.302L51.7333 14.6606ZM15.8452 13.9869L12.11 9.48026C12.3041 9.30313 12.501 9.1289 12.7007 8.95468L16.3388 13.5484C16.1724 13.6936 16.0061 13.8388 15.8452 13.9869ZM50.5742 13.5804L50.0751 13.1535L53.6162 8.47845C53.8214 8.64978 54.021 8.8182 54.2207 8.99243L50.5742 13.5804ZM17.0459 12.9444L13.5492 8.24325C13.7544 8.07774 13.9624 7.91223 14.1731 7.74962L17.5589 12.5495L17.0459 12.9444ZM49.3596 12.5786C49.1877 12.4479 49.0158 12.3172 48.8411 12.1895L52.1188 7.30534C52.3314 7.46214 52.5421 7.62185 52.751 7.78446L49.3596 12.5786ZM18.3021 11.9978L15.0771 7.07884C15.2906 6.92494 15.5097 6.77105 15.7288 6.62295L18.8345 11.6261L18.3021 11.9978ZM48.1118 11.6668L47.5572 11.3009L50.5687 6.23385C50.7877 6.37614 51.004 6.52423 51.2203 6.66942L48.1118 11.6668ZM19.5971 11.1238L16.6439 6.03058C16.8657 5.8912 17.0875 5.7402 17.3121 5.61825L20.1434 10.7957L19.5971 11.1238ZM46.7918 10.816C46.6061 10.7056 46.4203 10.5953 46.2373 10.4879L48.9659 5.26109C49.1933 5.38885 49.4179 5.52243 49.6425 5.6589L46.7918 10.816ZM20.9475 10.3223L18.2799 5.04911C18.5128 4.92134 18.7458 4.79648 18.9815 4.67452L21.516 10.0175C21.3136 10.122 21.125 10.2236 20.9365 10.3281L20.9475 10.3223ZM45.4414 10.0552C45.2501 9.95356 45.0559 9.85484 44.8618 9.76482L47.2965 4.36963C47.5295 4.48288 47.7624 4.60193 47.9926 4.72389L45.4414 10.0552ZM22.3396 9.61383L19.9659 4.1896L20.6841 3.85567L22.9275 9.34087L22.3396 9.61383ZM44.0521 9.38153C43.8525 9.29151 43.6556 9.2044 43.4559 9.12019L45.5856 3.58561L46.2983 3.89632L44.0521 9.38153ZM23.7261 8.98952L21.6935 3.4172C21.9347 3.31847 22.176 3.22555 22.42 3.12682L24.3611 8.7427L23.7261 8.98952ZM42.5824 8.78045L41.9779 8.55976L43.7998 2.90613L44.5402 3.17619L42.5824 8.78045ZM25.1847 8.44652L23.4488 2.76385C23.6928 2.68255 23.9396 2.60124 24.1892 2.52574L25.8086 8.24616C25.6117 8.31004 25.4065 8.37683 25.2013 8.44652H25.1847ZM41.1183 8.2752C40.9159 8.20841 40.7107 8.14743 40.5027 8.08935L42.0278 2.33409C42.2802 2.40378 42.5298 2.48219 42.7793 2.55769L41.1183 8.2752ZM26.6627 7.98482L25.2429 2.20343C25.4925 2.13664 25.742 2.07276 25.9944 2.01178L27.2949 7.8193C27.098 7.88319 26.8901 7.93835 26.6793 7.99643L26.6627 7.98482ZM39.6292 7.84253L39.0108 7.69734L40.181 1.85788C40.4389 1.91595 40.6968 1.97403 40.9519 2.03791L39.6292 7.84253ZM28.1795 7.62185L27.0703 1.77076C27.3282 1.71559 27.5889 1.66622 27.8495 1.61686L28.8145 7.49989C28.6093 7.54925 28.4014 7.5899 28.1961 7.63346L28.1795 7.62185ZM38.1262 7.51731L37.4829 7.40696L38.3509 1.50942C38.606 1.55008 38.8583 1.59364 39.1134 1.6401L38.1262 7.51731ZM29.6963 7.3547L28.9088 1.44554C29.1667 1.40779 29.4218 1.37295 29.6825 1.34101L30.3341 7.27049C30.1373 7.30533 29.9237 7.33438 29.713 7.36632L29.6963 7.3547ZM36.5955 7.2821C36.382 7.25597 36.1685 7.22984 35.955 7.20951L36.4874 1.26841C36.7481 1.29455 37.006 1.32358 37.2638 1.35552L36.5955 7.2821ZM31.2492 7.19209L30.7806 1.24518C31.044 1.22195 31.3047 1.20163 31.5681 1.18711L31.8842 7.14563L31.2492 7.19209ZM35.0787 7.15143L34.4354 7.1195L34.6351 1.15516C34.8929 1.15516 35.1536 1.1784 35.4143 1.19582L35.0787 7.15143ZM32.7882 7.10788L32.6524 1.14355C32.913 1.14355 33.1709 1.14355 33.4316 1.14355L33.5397 7.11369H33.3761L32.7882 7.10788Z" fill="url(#paint1_linear)"/>
<path d="M33.4357 8.2832C28.3608 8.28263 23.3997 9.85795 19.1798 12.81C14.96 15.762 11.6708 19.9581 9.72836 24.8676C7.7859 29.7772 7.27738 35.1796 8.26711 40.3918C9.25684 45.604 11.7003 50.3918 15.2886 54.1497C18.8769 57.9076 23.4488 60.4669 28.4262 61.5039C33.4035 62.5409 38.5627 62.0089 43.2514 59.9754C47.94 57.9419 51.9475 54.4981 54.767 50.0795C57.5865 45.6609 59.0914 40.466 59.0914 35.1518C59.0914 28.0263 56.3885 21.1926 51.5772 16.1539C46.7659 11.1151 40.2403 8.28397 33.4357 8.2832Z" fill="url(#paint2_linear)"/>
<path d="M58.0477 35.153C58.0822 38.5609 57.4711 41.9421 56.2496 45.101C55.0281 48.26 53.2205 51.1339 50.9314 53.5565C48.6423 55.9791 45.9171 57.9024 42.9136 59.2149C39.9101 60.5275 36.6878 61.2033 33.4332 61.2033C30.1786 61.2033 26.9564 60.5275 23.9528 59.2149C20.9493 57.9024 18.2242 55.9791 15.9351 53.5565C13.646 51.1339 11.8384 48.26 10.6169 45.101C9.39538 41.9421 8.78423 38.5609 8.81877 35.153C8.82162 33.8753 8.90964 32.5994 9.0822 31.3346C9.95573 25.225 12.8951 19.6469 17.3654 15.6156C21.8357 11.5843 27.5397 9.36787 33.4392 9.36963C39.3387 9.37139 45.0415 11.5913 49.5096 15.6252C53.9777 19.6591 56.914 25.2389 57.7843 31.3491C57.9563 32.6091 58.0443 33.8802 58.0477 35.153Z" fill="url(#paint3_linear)"/>
<path style="mix-blend-mode:color-burn" opacity="0.15" d="M57.7842 31.3465C57.1058 26.5429 55.1445 22.0378 52.1264 18.3511C49.1084 14.6644 45.1565 11.9463 40.7268 10.5101C36.297 9.07398 31.5698 8.9784 27.0904 10.2344C22.611 11.4904 18.5619 14.0469 15.4102 17.6088C18.6753 14.3649 22.7283 12.1218 27.1271 11.1241C31.526 10.1264 36.102 10.4123 40.3564 11.9508C44.6108 13.4892 48.3802 16.221 51.2538 19.8486C54.1274 23.4761 55.9949 27.86 56.6528 32.5226C56.8308 33.7811 56.9234 35.0513 56.9301 36.3236C56.9308 42.8738 54.54 49.1765 50.2472 53.9407C52.7093 51.537 54.6724 48.6282 56.0144 45.3955C57.3564 42.1628 58.0485 38.6754 58.0476 35.1505C58.0443 33.8776 57.9562 32.6066 57.7842 31.3465Z" fill="url(#paint4_linear)"/>
<path style="mix-blend-mode:screen" opacity="0.45" d="M57.7819 31.3491C51.8587 36.7762 43.1377 40.1968 33.4322 40.1968C23.7267 40.1968 14.9973 36.7762 9.07422 31.3346C9.94775 25.225 12.8872 19.6469 17.3575 15.6156C21.8278 11.5843 27.5317 9.36787 33.4312 9.36963C39.3307 9.37139 45.0335 11.5913 49.5016 15.6252C53.9697 19.6591 56.9061 25.2389 57.7763 31.3491H57.7819Z" fill="url(#paint5_linear)"/>
<g filter="url(#filter0_d)">
<path d="M45.9486 55.9995H20.8423V52.3952L34.106 37.219C36.071 34.9245 37.4219 33.0636 38.1588 31.6364C38.9132 30.191 39.2904 28.7005 39.2904 27.1648C39.2904 25.1052 38.6851 23.416 37.4746 22.0971C36.264 20.7782 34.6499 20.1188 32.6323 20.1188C30.2111 20.1188 28.3251 20.8324 26.9742 22.2597C25.6408 23.6689 24.9741 25.6382 24.9741 28.1675H20.1055C20.1055 24.5361 21.2371 21.6002 23.5003 19.3599C25.7811 17.1197 28.8251 15.9995 32.6323 15.9995C36.1938 15.9995 39.0097 16.9661 41.08 18.8992C43.1502 20.8143 44.1853 23.3708 44.1853 26.5686C44.1853 30.453 41.7817 35.0781 36.9745 40.444L26.711 51.9074H45.9486V55.9995Z" fill="url(#paint6_linear)"/>
</g>
<defs>
<filter id="filter0_d" x="19.1055" y="15.9995" width="26.8431" height="41" filterUnits="userSpaceOnUse" color-interpolation-filters="sRGB">
<feFlood flood-opacity="0" result="BackgroundImageFix"/>
<feColorMatrix in="SourceAlpha" type="matrix" values="0 0 0 0 0 0 0 0 0 0 0 0 0 0 0 0 0 0 127 0"/>
<feOffset dx="-1" dy="1"/>
<feColorMatrix type="matrix" values="0 0 0 0 0.8125 0 0 0 0 0.636458 0 0 0 0 0.284375 0 0 0 1 0"/>
<feBlend mode="normal" in2="BackgroundImageFix" result="effect1_dropShadow"/>
<feBlend mode="normal" in="SourceGraphic" in2="effect1_dropShadow" result="shape"/>
</filter>
<linearGradient id="paint0_linear" x1="66.2529" y1="17.812" x2="-0.606106" y2="49.9861" gradientUnits="userSpaceOnUse">
<stop stop-color="#F1D6AB"/>
<stop offset="0.17" stop-color="#F0D3A4"/>
<stop offset="0.42" stop-color="#EDCC91"/>
<stop offset="0.7" stop-color="#E9C072"/>
<stop offset="1" stop-color="#E3B04B"/>
</linearGradient>
<linearGradient id="paint1_linear" x1="0.943166" y1="35.1524" x2="65.92" y2="35.1524" gradientUnits="userSpaceOnUse">
<stop offset="0.49" stop-color="#F1D6AB"/>
<stop offset="0.54" stop-color="#F0D3A4"/>
<stop offset="0.63" stop-color="#EDCC91"/>
<stop offset="0.73" stop-color="#E9C072"/>
<stop offset="0.83" stop-color="#E3B04B"/>
</linearGradient>
<linearGradient id="paint2_linear" x1="24294.6" y1="33728.4" x2="27689.7" y2="30682.9" gradientUnits="userSpaceOnUse">
<stop stop-color="#F1D6AB"/>
<stop offset="0.17" stop-color="#F0D3A4"/>
<stop offset="0.42" stop-color="#EDCC91"/>
<stop offset="0.7" stop-color="#E9C072"/>
<stop offset="1" stop-color="#E3B04B"/>
</linearGradient>
<linearGradient id="paint3_linear" x1="48.686" y1="15.904" x2="24.1272" y2="59.3501" gradientUnits="userSpaceOnUse">
<stop stop-color="#F1D6AB"/>
<stop offset="1" stop-color="#E3B04B"/>
</linearGradient>
<linearGradient id="paint4_linear" x1="4.99759" y1="73.2246" x2="60.7215" y2="5.31132" gradientUnits="userSpaceOnUse">
<stop stop-color="#F1D6AB"/>
<stop offset="0.34" stop-color="#F1D6AB"/>
<stop offset="0.41" stop-color="#EECF98"/>
<stop offset="0.56" stop-color="#E9C177"/>
<stop offset="0.7" stop-color="#E6B85F"/>
<stop offset="0.83" stop-color="#E4B250"/>
<stop offset="0.94" stop-color="#E3B04B"/>
</linearGradient>
<linearGradient id="paint5_linear" x1="-11.9423" y1="-16.9028" x2="81.0848" y2="66.1523" gradientUnits="userSpaceOnUse">
<stop stop-color="#F1D6AB" stop-opacity="0.24"/>
</linearGradient>
<linearGradient id="paint6_linear" x1="43.5992" y1="16.6892" x2="26.4351" y2="51.7347" gradientUnits="userSpaceOnUse">
<stop stop-color="#E3B04B"/>
<stop offset="0.19" stop-color="#E3B04B"/>
<stop offset="1" stop-color="#F1D6AB"/>
</linearGradient>
</defs>
</svg>
