<svg width="69" height="70" viewBox="0 0 69 70" fill="none" xmlns="http://www.w3.org/2000/svg">
<path d="M34.177 69.9687C53.05 69.9687 68.3757 54.3314 68.408 35.0417C68.4402 15.7521 53.1667 0.114746 34.2937 0.114746C15.4207 0.114746 0.0949583 15.7521 0.0627186 35.0417C0.0304788 54.3314 15.3039 69.9687 34.177 69.9687Z" fill="url(#paint0_linear)"/>
<path d="M34.0092 69.0553C33.7451 69.0553 33.4838 69.0553 33.2197 69.0379L33.3901 63.0735H34.0603L34.0092 69.0553ZM35.1309 69.0553L34.9775 63.0881C35.199 63.0881 35.4177 63.0881 35.6363 63.0648L35.9203 69.0234C35.6562 69.0263 35.3978 69.035 35.1309 69.0437V69.0553ZM32.1066 68.9972C31.8396 68.9827 31.5699 68.9595 31.3029 68.9362L31.8169 62.9922C32.0327 63.0126 32.2486 63.0271 32.4672 63.0416L32.1066 68.9972ZM37.0392 68.9479L36.5621 63.0009L37.2095 62.9371L37.8428 68.8695C37.5759 68.8869 37.3089 68.9246 37.0392 68.9246V68.9479ZM30.1955 68.8172C29.9314 68.7852 29.6673 68.7504 29.4032 68.7097L30.2551 62.8035C30.4709 62.8383 30.6896 62.8674 30.9082 62.8935L30.1955 68.8172ZM38.9475 68.7272L38.1268 62.8209C38.3454 62.789 38.5612 62.7541 38.7771 62.7164L39.7369 68.6023C39.4756 68.6342 39.2115 68.6778 38.9475 68.7156V68.7272ZM28.3042 68.5268L27.5176 68.3729L28.6847 62.5247L29.3293 62.6525L28.3042 68.5268ZM40.833 68.3961L39.6971 62.5451C39.9101 62.5015 40.1231 62.455 40.3332 62.4057L41.631 68.2132C41.3612 68.2742 41.0971 68.3439 40.833 68.3845V68.3961ZM26.43 68.1232C26.1687 68.0593 25.9046 67.9925 25.6462 67.9199L27.1541 62.1559L27.7817 62.3186L26.43 68.1232ZM42.7072 67.9548L41.2192 62.1821C41.435 62.124 41.648 62.0659 41.861 62.002L43.474 67.737L42.7072 67.9548ZM24.5813 67.5976C24.3229 67.5163 24.0673 67.435 23.8146 67.3479L25.6491 61.6826C25.8564 61.7552 26.0637 61.822 26.271 61.8859L24.5813 67.5976ZM44.5531 67.3885L42.747 61.7146C42.96 61.6449 43.1673 61.5723 43.3774 61.4968L45.3084 67.1272C45.05 67.2172 44.7973 67.3043 44.5445 67.3885H44.5531ZM22.7611 66.9704C22.5112 66.8775 22.2641 66.7816 22.0171 66.68L24.1582 61.128C24.3627 61.2093 24.57 61.2906 24.7801 61.369L22.7611 66.9704ZM46.3648 66.7265L44.2378 61.1687C44.4423 61.0874 44.6468 61.0031 44.8484 60.916L47.1201 66.4332C46.8561 66.5232 46.6062 66.6248 46.3563 66.7265H46.3648ZM20.9834 66.2445L20.2565 65.9105L22.7071 60.5037L23.3063 60.7796L20.9834 66.2445ZM48.1339 65.9541L45.6974 60.5327C45.8962 60.4398 46.095 60.3411 46.291 60.2424L48.8467 65.6027C48.611 65.7305 48.3696 65.8437 48.1254 65.957L48.1339 65.9541ZM19.2398 65.4111C19.0041 65.2891 18.7713 65.1642 18.5384 65.0365L21.2986 59.7778C21.4917 59.8852 21.6877 59.9868 21.8836 60.0914L19.2398 65.4111ZM49.8548 65.0829L47.1088 59.8184C47.3019 59.711 47.495 59.6035 47.6767 59.4932L50.5505 64.688C50.3205 64.8216 50.0848 64.9552 49.8548 65.0829ZM17.5644 64.4819C17.3344 64.3454 17.1044 64.1915 16.8772 64.0608L19.9299 58.9763C20.1145 59.0925 20.3019 59.2057 20.4978 59.319L17.5644 64.4819ZM51.516 64.1102L48.4804 59.017L49.0483 58.6598L52.2061 63.6775C51.9704 63.8256 51.746 63.9679 51.516 64.1102ZM15.9372 63.451C15.7157 63.3029 15.4942 63.1606 15.2756 62.9922L18.6179 58.0936C18.7968 58.2213 18.9757 58.3462 19.1603 58.4682L15.9372 63.451ZM53.1375 63.0445L49.8207 58.1342C50.0025 58.0065 50.1814 57.8758 50.3603 57.7422L53.7878 62.5712C53.5606 62.7338 53.3448 62.8906 53.1261 63.0445H53.1375ZM14.3584 62.3244C14.1482 62.1618 13.9352 61.9991 13.7279 61.8307L17.3259 57.1353C17.5019 57.2747 17.6751 57.4257 17.854 57.5448L14.3584 62.3244ZM54.6823 61.883L51.0901 57.1789L51.6126 56.752L55.3042 61.3777C55.0855 61.5491 54.8811 61.7146 54.6823 61.883ZM12.8675 61.1135C12.6659 60.9393 12.4643 60.7621 12.2655 60.5821L16.119 56.0987C16.2837 56.2497 16.4512 56.3891 16.6188 56.5401L12.8675 61.1135ZM56.1476 60.6344L52.3055 56.1481C52.4702 56 52.6349 55.8577 52.7967 55.6951L56.7411 60.0972C56.5452 60.2772 56.3464 60.4572 56.1476 60.6344ZM11.4448 59.8155C11.2489 59.6297 11.0586 59.4409 10.8769 59.2348L14.9604 54.9865L15.4318 55.4511L11.4448 59.8155ZM57.5533 59.3015L53.4612 55.0475C53.6203 54.8878 53.7764 54.7281 53.9298 54.5655L58.1155 58.7237C57.931 58.9182 57.7435 59.1099 57.5533 59.3015ZM10.0761 58.4304C9.89717 58.2359 9.71827 58.0384 9.54221 57.8497L13.8671 53.825L14.3214 54.3274L10.0761 58.4304ZM58.8794 57.8903L54.5602 53.8773C54.7079 53.7118 54.8442 53.5463 54.9947 53.3779L59.4104 57.2776C59.2259 57.4838 59.0583 57.69 58.8794 57.8903ZM8.7982 56.964C8.62782 56.7578 8.46027 56.5488 8.29557 56.3397L12.8391 52.5997L13.2651 53.1281L8.7982 56.964ZM60.126 56.4036L55.5825 52.6548C55.7216 52.4806 55.8665 52.3035 55.9886 52.1263L60.6201 55.7589C60.4583 55.9767 60.2936 56.1916 60.126 56.4036ZM7.60552 55.4337C7.4465 55.2159 7.29031 54.9953 7.13697 54.7746L11.8878 51.3133C12.0184 51.4962 12.1462 51.6763 12.2797 51.8592L7.60552 55.4337ZM61.2761 54.853L56.5281 51.3685L56.9086 50.8109L61.7362 54.1793C61.5942 54.4058 61.4437 54.6236 61.2903 54.8414L61.2761 54.853ZM6.50371 53.825C6.35604 53.5956 6.21974 53.3662 6.06923 53.1339L11.0075 49.9543C11.1239 50.1431 11.2404 50.3318 11.3625 50.5177L6.50371 53.825ZM62.3495 53.224L57.4226 50.0298C57.5391 49.8411 57.6526 49.6523 57.7662 49.4491L62.7698 52.5154C62.6335 52.7623 62.5 52.9946 62.3495 53.224ZM5.48141 52.167C5.3451 51.9318 5.21448 51.6937 5.08669 51.4556L10.1982 48.5721C10.3061 48.7696 10.414 48.967 10.5247 49.1529L5.48141 52.167ZM63.3292 51.5427L58.2178 48.6389C58.3257 48.4444 58.4279 48.2469 58.5301 48.0582L63.7012 50.8254C63.5905 51.0636 63.4655 51.3046 63.3349 51.5427H63.3292ZM4.54715 50.4421C4.42788 50.2011 4.30861 49.9572 4.19502 49.7133L9.45418 47.129C9.55073 47.3351 9.64728 47.5355 9.73815 47.7387L4.54715 50.4421ZM64.1812 49.8091L58.9305 47.2103C59.0242 47.0128 59.1151 46.8096 59.2145 46.6092L64.5333 49.0658C64.4424 49.3155 64.3373 49.5623 64.2124 49.8091H64.1812ZM3.71511 48.6709C3.6072 48.4211 3.50497 48.1685 3.40275 47.9159L8.7982 45.6509C8.88339 45.86 8.96858 46.0662 9.05661 46.2723L3.71511 48.6709ZM64.9962 48.0175L59.6007 45.741C59.683 45.5319 59.7654 45.3228 59.8449 45.1108L65.2886 47.2654C65.1892 47.5181 65.0984 47.7707 64.9962 48.0175ZM3.02222 46.8357C2.93134 46.5801 2.84332 46.3246 2.75529 46.0691L8.27853 44.1352C8.34952 44.3501 8.42336 44.562 8.50003 44.7769L3.02222 46.8357ZM65.6749 46.1881L60.163 44.2426C60.2368 44.0335 60.3049 43.8216 60.3731 43.6067L65.9304 45.4041C65.8481 45.6742 65.7572 45.9326 65.6749 46.191V46.1881ZM2.40884 44.9715C2.33217 44.713 2.25834 44.4546 2.18735 44.1933L7.80714 42.5875C7.86677 42.8052 7.92924 43.023 7.99172 43.2379L2.40884 44.9715ZM66.2513 44.3152L60.6457 42.692C60.7053 42.4771 60.7621 42.2593 60.8189 42.0445L66.47 43.5283C66.3961 43.7925 66.3251 44.0568 66.2513 44.3181V44.3152ZM1.90621 43.0811C1.8409 42.8169 1.78411 42.5526 1.72447 42.2826L7.42662 41.0078C7.47489 41.2285 7.52316 41.4463 7.57428 41.6641L1.90621 43.0811ZM66.7199 42.4103L61.0234 41.1123C61.0717 40.8975 61.1143 40.6797 61.1569 40.4619L66.8931 41.6118C66.8334 41.8819 66.7795 42.1519 66.7199 42.422V42.4103ZM1.50581 41.1588C1.45753 40.8888 1.4121 40.6216 1.37234 40.3516L7.13697 39.4253C7.17104 39.6459 7.20796 39.8695 7.24771 40.0873L1.50581 41.1588ZM67.0805 40.4764L61.3187 39.5298L61.4181 38.8561L67.1998 39.675C67.1638 39.9538 67.124 40.2248 67.0805 40.488V40.4764ZM1.21616 39.2162C1.18492 38.9491 1.15369 38.6819 1.12813 38.4118L6.93534 37.8311L7.00918 38.5077L1.21616 39.2162ZM67.3304 38.5396L61.526 37.924C61.5487 37.7033 61.5686 37.4827 61.5857 37.262L67.4042 37.715C67.3843 38.0024 67.3588 38.2754 67.3304 38.5512V38.5396ZM1.03726 37.2765C1.02022 37.0035 1.00602 36.7306 0.994664 36.4547L6.82744 36.2108C6.82744 36.4315 6.84732 36.6551 6.86152 36.8758L1.03726 37.2765ZM67.4866 36.5796L61.6566 36.3153L61.6794 35.6329L67.515 35.7723C67.4923 36.054 67.4837 36.3212 67.461 36.5912L67.4866 36.5796ZM0.980469 35.3106V34.515L6.81608 34.5963V35.2758L0.980469 35.3106ZM61.685 34.695C61.685 34.4685 61.685 34.2449 61.668 34.0214L67.5008 33.8094C67.5008 34.0823 67.5008 34.3524 67.5207 34.6253L61.685 34.695ZM6.84731 33.6497L1.02022 33.3593C1.02022 33.0893 1.04862 32.8192 1.06566 32.5521L6.88707 32.9731L6.84731 33.6497ZM61.6197 33.0689C61.6065 32.8482 61.5894 32.6276 61.5686 32.4069L67.3787 31.8435C67.4042 32.1165 67.4241 32.3924 67.444 32.6682L61.6197 33.0689ZM6.95522 32.0468L1.15084 31.4196C1.17924 31.1466 1.21048 30.8766 1.24456 30.6065L7.0319 31.3789C7.0035 31.5967 6.9751 31.8203 6.95522 32.0468ZM61.455 31.4835L61.3642 30.8098L67.1344 29.9387C67.1742 30.2029 67.2111 30.4701 67.2424 30.7401L61.455 31.4835ZM7.16537 30.4497L1.40643 29.4741C1.45186 29.204 1.49729 28.9398 1.54557 28.6755L7.28179 29.7819L7.16537 30.4497ZM61.2108 29.869C61.1711 29.6522 61.1285 29.4344 61.083 29.2156L66.7909 27.9757C66.8476 28.2458 66.8988 28.5129 66.9499 28.7859L61.2108 29.869ZM7.46921 28.8527L1.77274 27.5605C1.82954 27.2904 1.89201 27.0204 1.96017 26.7532L7.61688 28.2051C7.56577 28.42 7.51748 28.6349 7.46921 28.8527ZM60.8786 28.3097C60.8274 28.0919 60.7735 27.877 60.7139 27.6621L66.3422 26.0825C66.4132 26.3467 66.4785 26.611 66.5438 26.8781L60.8786 28.3097ZM7.85825 27.2962L2.24698 25.6585C2.32081 25.3943 2.39749 25.1329 2.47984 24.8716L8.04567 26.6603C7.98036 26.8636 7.91788 27.0785 7.85825 27.2933V27.2962ZM60.4555 26.7503C60.3901 26.5355 60.3248 26.3235 60.2538 26.1115L65.7856 24.2066C65.8708 24.468 65.9531 24.7293 66.0326 24.9907L60.4555 26.7503ZM8.33533 25.7572L2.82912 23.7827C2.91715 23.5272 3.00802 23.2716 3.11309 23.019L8.57386 25.1213C8.48583 25.3304 8.40916 25.5424 8.33533 25.7543V25.7572ZM59.9443 25.2171C59.8676 25.0052 59.7881 24.7961 59.7058 24.587L65.1239 22.3656C65.2205 22.6183 65.3199 22.8738 65.4079 23.1293L59.9443 25.2171ZM8.90327 24.2444L3.50781 21.962C3.6072 21.7094 3.71511 21.4568 3.82302 21.207L9.16169 23.6259C9.07365 23.835 8.98562 24.0382 8.90327 24.2415V24.2444ZM59.348 23.7159C59.2599 23.5126 59.1691 23.3094 59.064 23.109L64.3402 20.5595C64.4566 20.8063 64.5674 21.059 64.6753 21.3087L59.348 23.7159ZM9.54788 22.7838L4.30009 20.1704C4.41936 19.9265 4.53579 19.6826 4.65789 19.4416L9.84322 22.174C9.74383 22.3802 9.64443 22.5805 9.54788 22.7809V22.7838ZM58.6749 22.2582C58.5756 22.0549 58.4705 21.8546 58.3654 21.6542L63.4854 18.8114C63.6104 19.0496 63.7353 19.2877 63.8574 19.5287L58.6749 22.2582ZM10.2891 21.3522L5.1946 18.4485C5.32239 18.2104 5.45586 17.9752 5.59216 17.7428L10.6156 20.7773C10.4964 20.9602 10.3828 21.1548 10.2805 21.3493L10.2891 21.3522ZM57.9111 20.8354C57.8013 20.6418 57.6877 20.4482 57.5703 20.2546L62.5284 17.1069C62.6704 17.3392 62.8124 17.5744 62.9459 17.8096L57.9111 20.8354ZM11.1012 19.9642L6.1743 16.7701C6.31629 16.5378 6.45827 16.3084 6.6173 16.079L11.4448 19.4125C11.3255 19.5896 11.2091 19.7755 11.0927 19.9613L11.1012 19.9642ZM57.0733 19.4677L56.6928 18.9044L61.4664 15.4953C61.6169 15.716 61.7674 15.9367 61.9122 16.1603L57.0733 19.4677ZM11.9929 18.6256L7.24488 15.1556C7.40106 14.9291 7.56292 14.7055 7.72762 14.4848L12.3706 18.1087C12.2371 18.2684 12.1093 18.4456 11.9844 18.6227L11.9929 18.6256ZM56.1561 18.1523C56.0255 17.9722 55.8892 17.7922 55.75 17.6151L60.322 13.9041C60.4867 14.116 60.6486 14.3309 60.8104 14.5487L56.1561 18.1523ZM12.9385 17.3537L8.412 13.5789C8.57954 13.3698 8.74993 13.1607 8.92031 12.9545L13.3616 16.8282C13.2225 17.0053 13.0748 17.1795 12.9385 17.3537ZM55.1594 16.8833C55.0174 16.712 54.8754 16.5407 54.7249 16.3723L59.0839 12.4057C59.2599 12.609 59.4332 12.8123 59.6064 13.0184L55.1594 16.8833ZM13.9835 16.1255L9.67283 12.1037C9.85173 11.9005 10.0335 11.703 10.2181 11.5056L14.4294 15.6347C14.2646 15.7857 14.117 15.9599 13.9693 16.1255H13.9835ZM54.1115 15.6783C53.961 15.5186 53.8105 15.3589 53.6572 15.2021L57.7748 10.9742C57.9641 11.1678 58.1534 11.3613 58.3427 11.5549L54.1115 15.6783ZM15.0853 14.961L11.0018 10.6983C11.1921 10.5038 11.388 10.315 11.5868 10.1176L15.5624 14.4906C15.3807 14.6532 15.2245 14.8042 15.0711 14.961H15.0853ZM52.9785 14.5429C52.8166 14.389 52.6576 14.238 52.4929 14.0899L56.3719 9.63264C56.5707 9.81267 56.7695 9.99851 56.9654 10.1843L52.9785 14.5429ZM16.2269 13.8692L12.4018 9.36259C12.6006 9.18546 12.8022 9.01123 13.0067 8.83701L16.7324 13.4308C16.562 13.576 16.3916 13.7211 16.2269 13.8692ZM51.7915 13.4627L51.2803 13.0358L54.9066 8.36078C55.1168 8.53211 55.3212 8.70053 55.5257 8.87476L51.7915 13.4627ZM17.4565 12.8268L13.8756 8.12558C14.0857 7.96007 14.2987 7.79456 14.5145 7.63195L17.9818 12.4319L17.4565 12.8268ZM50.5477 12.4609C50.3716 12.3302 50.1956 12.1996 50.0167 12.0718L53.3732 7.18767C53.5909 7.34447 53.8067 7.50418 54.0206 7.66679L50.5477 12.4609ZM18.7429 11.8801L15.4403 6.96117C15.6589 6.80727 15.8833 6.65337 16.1076 6.50528L19.2881 11.5085L18.7429 11.8801ZM49.2698 11.5491L48.7019 11.1832L51.7858 6.11618C52.0101 6.25846 52.2316 6.40656 52.4531 6.55174L49.2698 11.5491ZM20.069 11.0061L17.0447 5.91291C17.2719 5.77353 17.4991 5.62253 17.7291 5.50057L20.6285 10.678L20.069 11.0061ZM47.9181 10.6983C47.7278 10.588 47.5376 10.4776 47.3502 10.3702L50.1444 5.14342C50.3773 5.27118 50.6073 5.40475 50.8373 5.54123L47.9181 10.6983ZM21.452 10.2047L18.7202 4.93144C18.9587 4.80367 19.1972 4.67881 19.4386 4.55685L22.0341 9.89979C21.8268 10.0043 21.6337 10.1059 21.4406 10.2105L21.452 10.2047ZM46.5352 9.93753C46.3392 9.8359 46.1404 9.73717 45.9417 9.64715L48.4349 4.25196C48.6735 4.3652 48.912 4.48426 49.1477 4.60622L46.5352 9.93753ZM22.8775 9.49616L20.4467 4.07193L21.1822 3.73799L23.4795 9.2232L22.8775 9.49616ZM45.1125 9.26386C44.908 9.17384 44.7064 9.08673 44.5019 9.00252L46.6828 3.46794L47.4126 3.77864L45.1125 9.26386ZM24.2974 8.87185L22.2158 3.29952C22.4629 3.2008 22.71 3.10787 22.9598 3.00915L24.9476 8.62503L24.2974 8.87185ZM43.6074 8.66278L42.9884 8.44209L44.8541 2.78846L45.6123 3.05851L43.6074 8.66278ZM25.7911 8.32885L24.0134 2.64618C24.2633 2.56487 24.516 2.48356 24.7716 2.40807L26.43 8.12849C26.2284 8.19237 26.0182 8.25916 25.8081 8.32885H25.7911ZM42.108 8.15753C41.9007 8.09074 41.6906 8.02976 41.4776 7.97168L43.0395 2.21642C43.2979 2.28611 43.5535 2.36451 43.809 2.44001L42.108 8.15753ZM27.3046 7.86715L25.8507 2.08575C26.1063 2.01896 26.3618 1.95508 26.6202 1.8941L27.9521 7.70163C27.7505 7.76552 27.5375 7.82068 27.3217 7.87876L27.3046 7.86715ZM40.5831 7.72486L39.9499 7.57967L41.1482 1.7402C41.4123 1.79828 41.6764 1.85635 41.9377 1.92023L40.5831 7.72486ZM28.8579 7.50418L27.7221 1.65308C27.9861 1.59791 28.2531 1.54855 28.52 1.49919L29.5082 7.38222C29.2981 7.43158 29.0851 7.47223 28.875 7.51579L28.8579 7.50418ZM39.044 7.39964L38.3852 7.28929L39.274 1.39175C39.5353 1.4324 39.7937 1.47596 40.0549 1.52242L39.044 7.39964ZM30.4113 7.23703L29.6048 1.32786C29.8689 1.29012 30.1301 1.25527 30.3971 1.22333L31.0644 7.15282C30.8628 7.18766 30.6441 7.2167 30.4283 7.24865L30.4113 7.23703ZM37.4765 7.16443C37.2578 7.1383 37.0392 7.11217 36.8205 7.09184L37.3657 1.15074C37.6327 1.17687 37.8968 1.20591 38.1609 1.23785L37.4765 7.16443ZM32.0015 7.07442L31.5216 1.1275C31.7914 1.10427 32.0583 1.08395 32.3281 1.06943L32.6518 7.02796L32.0015 7.07442ZM35.9232 7.03376L35.2643 7.00182L35.4688 1.03749C35.7329 1.03749 35.9998 1.06072 36.2668 1.07814L35.9232 7.03376ZM33.5775 6.99021L33.4384 1.02588C33.7053 1.02588 33.9694 1.02588 34.2364 1.02588L34.3471 6.99602H34.1796L33.5775 6.99021Z" fill="url(#paint1_linear)"/>
<path d="M34.2397 8.16504C29.0427 8.16446 23.9622 9.73978 19.6408 12.6918C15.3194 15.6438 11.9511 19.8399 9.96189 24.7494C7.9727 29.6589 7.45195 35.0614 8.46549 40.2736C9.47903 45.4857 11.9813 50.2735 15.656 54.0314C19.3306 57.7894 24.0125 60.3486 29.1096 61.3856C34.2067 62.4226 39.4901 61.8906 44.2915 59.8571C49.093 57.8236 53.1968 54.3798 56.0842 49.9612C58.9716 45.5426 60.5127 40.3478 60.5127 35.0336C60.5127 27.9081 57.7447 21.0744 52.8177 16.0357C47.8906 10.9969 41.208 8.16581 34.2397 8.16504Z" fill="url(#paint2_linear)"/>
<path d="M59.4422 35.0354C59.4776 38.4432 58.8517 41.8245 57.6008 44.9834C56.3499 48.1423 54.4988 51.0163 52.1547 53.4389C49.8105 55.8615 47.0198 57.7847 43.944 59.0973C40.8682 60.4099 37.5684 61.0857 34.2355 61.0857C30.9026 61.0857 27.6028 60.4099 24.527 59.0973C21.4512 57.7847 18.6605 55.8615 16.3163 53.4389C13.9721 51.0163 12.121 48.1423 10.8701 44.9834C9.61925 41.8245 8.99339 38.4432 9.02876 35.0354C9.03168 33.7577 9.12182 32.4818 9.29853 31.2169C10.1931 25.1073 13.2032 19.5292 17.7811 15.4979C22.3589 11.4667 28.2002 9.2502 34.2416 9.25195C40.283 9.25371 46.123 11.4736 50.6986 15.5075C55.2742 19.5415 58.2813 25.1213 59.1724 31.2314C59.3486 32.4915 59.4388 33.7625 59.4422 35.0354Z" fill="url(#paint3_linear)"/>
<path style="mix-blend-mode:color-burn" opacity="0.15" d="M59.171 31.2288C58.4763 26.4252 56.4678 21.9202 53.3771 18.2335C50.2864 14.5468 46.2395 11.8286 41.7031 10.3924C37.1668 8.9563 32.3258 8.86073 27.7386 10.1167C23.1514 11.3727 19.0049 13.9292 15.7773 17.4911C19.1211 14.2472 23.2715 12.0041 27.7763 11.0064C32.281 10.0087 36.9671 10.2947 41.3239 11.8331C45.6806 13.3715 49.5407 16.1033 52.4835 19.7309C55.4262 23.3584 57.3387 27.7423 58.0124 32.4048C58.1946 33.6634 58.2895 34.9336 58.2964 36.2059C58.2971 42.7561 55.8487 49.0587 51.4527 53.823C53.974 51.4192 55.9844 48.5105 57.3586 45.2778C58.7329 42.0451 59.4417 38.5577 59.4408 35.0327C59.4373 33.7599 59.3472 32.4889 59.171 31.2288Z" fill="url(#paint4_linear)"/>
<path style="mix-blend-mode:screen" opacity="0.45" d="M59.1726 31.2314C53.1069 36.6585 44.176 40.0792 34.237 40.0792C24.298 40.0792 15.3586 36.6585 9.29297 31.2169C10.1875 25.1073 13.1977 19.5292 17.7755 15.4979C22.3534 11.4667 28.1946 9.2502 34.236 9.25195C40.2775 9.25371 46.1175 11.4736 50.6931 15.5075C55.2687 19.5415 58.2757 25.1213 59.1669 31.2314H59.1726Z" fill="url(#paint5_linear)"/>
<g filter="url(#filter0_d)">
<path d="M30.4053 33.5931H34.0956C36.4142 33.5574 38.2372 32.9425 39.5647 31.7482C40.8921 30.5539 41.5558 28.9407 41.5558 26.9086C41.5558 22.3453 39.2992 20.0637 34.7859 20.0637C32.662 20.0637 30.9629 20.6787 29.6885 21.9086C28.4319 23.1207 27.8035 24.7339 27.8035 26.7482H22.892C22.892 23.6644 24.0071 21.1065 26.2372 19.0744C28.485 17.0245 31.3345 15.9995 34.7859 15.9995C38.4319 15.9995 41.2903 16.971 43.3612 18.914C45.432 20.8569 46.4674 23.5574 46.4674 27.0156C46.4674 28.709 45.9187 30.3489 44.8213 31.9353C43.7417 33.5218 42.2638 34.7072 40.3877 35.4915C42.5116 36.1689 44.1488 37.2918 45.2992 38.8605C46.4674 40.4291 47.0514 42.3453 47.0514 44.6091C47.0514 48.1029 45.9187 50.8747 43.6532 52.9246C41.3877 54.9746 38.4408 55.9995 34.8124 55.9995C31.1841 55.9995 28.2283 55.0102 25.9451 53.0316C23.6796 51.053 22.5469 48.4416 22.5469 45.1974H27.485C27.485 47.2473 28.1487 48.8872 29.4761 50.1172C30.8036 51.3471 32.5823 51.9621 34.8124 51.9621C37.1841 51.9621 38.9983 51.3382 40.2549 50.0904C41.5116 48.8426 42.1399 47.0512 42.1399 44.7161C42.1399 42.4523 41.4496 40.7143 40.0691 39.5022C38.6886 38.2901 36.6974 37.6662 34.0956 37.6305H30.4053V33.5931Z" fill="url(#paint6_linear)"/>
</g>
<defs>
<filter id="filter0_d" x="21.5469" y="15.9995" width="25.5046" height="41" filterUnits="userSpaceOnUse" color-interpolation-filters="sRGB">
<feFlood flood-opacity="0" result="BackgroundImageFix"/>
<feColorMatrix in="SourceAlpha" type="matrix" values="0 0 0 0 0 0 0 0 0 0 0 0 0 0 0 0 0 0 127 0"/>
<feOffset dx="-1" dy="1"/>
<feColorMatrix type="matrix" values="0 0 0 0 0.8125 0 0 0 0 0.636458 0 0 0 0 0.284375 0 0 0 1 0"/>
<feBlend mode="normal" in2="BackgroundImageFix" result="effect1_dropShadow"/>
<feBlend mode="normal" in="SourceGraphic" in2="effect1_dropShadow" result="shape"/>
</filter>
<linearGradient id="paint0_linear" x1="67.848" y1="17.6943" x2="0.000897347" y2="51.1287" gradientUnits="userSpaceOnUse">
<stop stop-color="#F1D6AB"/>
<stop offset="0.17" stop-color="#F0D3A4"/>
<stop offset="0.42" stop-color="#EDCC91"/>
<stop offset="0.7" stop-color="#E9C072"/>
<stop offset="1" stop-color="#E3B04B"/>
</linearGradient>
<linearGradient id="paint1_linear" x1="0.96627" y1="35.0348" x2="67.5065" y2="35.0348" gradientUnits="userSpaceOnUse">
<stop offset="0.49" stop-color="#F1D6AB"/>
<stop offset="0.54" stop-color="#F0D3A4"/>
<stop offset="0.63" stop-color="#EDCC91"/>
<stop offset="0.73" stop-color="#E9C072"/>
<stop offset="0.83" stop-color="#E3B04B"/>
</linearGradient>
<linearGradient id="paint2_linear" x1="24879.1" y1="33728.2" x2="28282.1" y2="30602.3" gradientUnits="userSpaceOnUse">
<stop stop-color="#F1D6AB"/>
<stop offset="0.17" stop-color="#F0D3A4"/>
<stop offset="0.42" stop-color="#EDCC91"/>
<stop offset="0.7" stop-color="#E9C072"/>
<stop offset="1" stop-color="#E3B04B"/>
</linearGradient>
<linearGradient id="paint3_linear" x1="49.8553" y1="15.7863" x2="25.6007" y2="59.7265" gradientUnits="userSpaceOnUse">
<stop stop-color="#F1D6AB"/>
<stop offset="1" stop-color="#E3B04B"/>
</linearGradient>
<linearGradient id="paint4_linear" x1="5.11422" y1="73.1069" x2="60.5648" y2="3.90035" gradientUnits="userSpaceOnUse">
<stop stop-color="#F1D6AB"/>
<stop offset="0.34" stop-color="#F1D6AB"/>
<stop offset="0.41" stop-color="#EECF98"/>
<stop offset="0.56" stop-color="#E9C177"/>
<stop offset="0.7" stop-color="#E6B85F"/>
<stop offset="0.83" stop-color="#E4B250"/>
<stop offset="0.94" stop-color="#E3B04B"/>
</linearGradient>
<linearGradient id="paint5_linear" x1="-12.2292" y1="-17.0205" x2="81.0219" y2="68.2378" gradientUnits="userSpaceOnUse">
<stop stop-color="#F1D6AB" stop-opacity="0.24"/>
</linearGradient>
<linearGradient id="paint6_linear" x1="44.8238" y1="16.6892" x2="27.1068" y2="50.9899" gradientUnits="userSpaceOnUse">
<stop stop-color="#E3B04B"/>
<stop offset="0.19" stop-color="#E3B04B"/>
<stop offset="1" stop-color="#F1D6AB"/>
</linearGradient>
</defs>
</svg>
