<svg width="70" height="71" viewBox="0 0 70 71" fill="none" xmlns="http://www.w3.org/2000/svg">
<path d="M34.7498 70.8408C53.9393 70.8408 69.5219 55.2034 69.5544 35.9138C69.587 16.6241 54.0572 0.986816 34.8677 0.986816C15.6782 0.986816 0.0956862 16.6241 0.0631397 35.9138C0.0305933 55.2034 15.5604 70.8408 34.7498 70.8408Z" fill="url(#paint0_linear)"/>
<path d="M34.5786 69.9274C34.3101 69.9274 34.0444 69.9274 33.7759 69.9099L33.9492 63.9456H34.6306L34.5786 69.9274ZM35.7191 69.9274L35.5632 63.9601C35.7884 63.9601 36.0107 63.9601 36.233 63.9369L36.5218 69.8954C36.2533 69.8983 35.9905 69.907 35.7191 69.9157V69.9274ZM32.6441 69.8693C32.3727 69.8548 32.0984 69.8315 31.827 69.8083L32.3496 63.8643C32.569 63.8846 32.7885 63.8991 33.0108 63.9137L32.6441 69.8693ZM37.6594 69.8199L37.1743 63.873L37.8326 63.8091L38.4765 69.7415C38.2051 69.7589 37.9337 69.7967 37.6594 69.7967V69.8199ZM30.7009 69.6893C30.4324 69.6573 30.1639 69.6225 29.8954 69.5818L30.7616 63.6755C30.981 63.7104 31.2033 63.7394 31.4257 63.7656L30.7009 69.6893ZM39.5997 69.5992L38.7652 63.693C38.9876 63.661 39.207 63.6262 39.4264 63.5884L40.4023 69.4744C40.1367 69.5063 39.8682 69.5499 39.5997 69.5876V69.5992ZM28.778 69.3989L27.9782 69.245L29.1649 63.3968L29.8203 63.5246L28.778 69.3989ZM41.5169 69.2682L40.3619 63.4171C40.5785 63.3736 40.795 63.3271 41.0087 63.2777L42.3282 69.0853C42.0539 69.1462 41.7854 69.2159 41.5169 69.2566V69.2682ZM26.8723 68.9952C26.6067 68.9314 26.3382 68.8646 26.0754 68.792L27.6086 63.028L28.2467 63.1906L26.8723 68.9952ZM43.4225 68.8268L41.9095 63.0542C42.129 62.9961 42.3455 62.938 42.5621 62.8741L44.2021 68.609L43.4225 68.8268ZM24.9927 68.4697C24.7299 68.3884 24.4701 68.3071 24.2131 68.2199L26.0783 62.5547C26.2891 62.6273 26.4999 62.6941 26.7106 62.758L24.9927 68.4697ZM45.2993 68.2606L43.4629 62.5866C43.6795 62.5169 43.8902 62.4444 44.1039 62.3689L46.0673 67.9993C45.8045 68.0893 45.5476 68.1764 45.2906 68.2606H45.2993ZM23.1419 67.8425C22.8878 67.7495 22.6366 67.6537 22.3854 67.5521L24.5625 62.0001C24.7704 62.0814 24.9811 62.1627 25.1948 62.2411L23.1419 67.8425ZM47.1414 67.5985L44.9788 62.0407C45.1866 61.9594 45.3945 61.8752 45.5995 61.7881L47.9094 67.3053C47.6409 67.3953 47.3868 67.4969 47.1327 67.5985H47.1414ZM21.3344 67.1165L20.5953 66.7826L23.087 61.3758L23.6963 61.6516L21.3344 67.1165ZM48.9402 66.8261L46.4628 61.4048C46.665 61.3119 46.8671 61.2132 47.0663 61.1144L49.6649 66.4748C49.4253 66.6025 49.1798 66.7158 48.9315 66.8291L48.9402 66.8261ZM19.5616 66.2831C19.322 66.1612 19.0852 66.0363 18.8484 65.9085L21.6549 60.6498C21.8513 60.7573 22.0505 60.8589 22.2497 60.9634L19.5616 66.2831ZM50.6899 65.955L47.8979 60.6905C48.0942 60.583 48.2905 60.4756 48.4753 60.3653L51.3973 65.5601C51.1634 65.6937 50.9238 65.8273 50.6899 65.955ZM17.8581 65.3539C17.6242 65.2175 17.3903 65.0636 17.1594 64.9329L20.2632 59.8484C20.4509 59.9645 20.6415 60.0778 20.8407 60.191L17.8581 65.3539ZM52.379 64.9822L49.2924 59.889L49.8699 59.5319L53.0806 64.5496C52.841 64.6977 52.6129 64.84 52.379 64.9822ZM16.2036 64.3231C15.9784 64.175 15.7532 64.0327 15.5309 63.8643L18.9293 58.9657C19.1112 59.0934 19.2931 59.2183 19.4808 59.3402L16.2036 64.3231ZM54.0277 63.9166L50.6553 59.0063C50.84 58.8785 51.022 58.7479 51.2039 58.6143L54.6888 63.4433C54.4579 63.6059 54.2384 63.7627 54.0161 63.9166H54.0277ZM14.5983 63.1964C14.3846 63.0338 14.1681 62.8712 13.9573 62.7028L17.6156 58.0074C17.7946 58.1468 17.9707 58.2978 18.1526 58.4168L14.5983 63.1964ZM55.5984 62.7551L51.9459 58.051L52.4772 57.6241L56.2307 62.2498C56.0084 62.4211 55.8005 62.5866 55.5984 62.7551ZM13.0824 61.9856C12.8774 61.8113 12.6724 61.6342 12.4703 61.4542L16.3884 56.9708C16.5559 57.1218 16.7263 57.2611 16.8966 57.4121L13.0824 61.9856ZM57.0882 61.5064L53.1817 57.0201C53.3491 56.872 53.5166 56.7297 53.6812 56.5671L57.6917 60.9692C57.4924 61.1493 57.2903 61.3293 57.0882 61.5064ZM11.6359 60.6876C11.4367 60.5017 11.2432 60.313 11.0584 60.1068L15.2104 55.8586L15.6897 56.3232L11.6359 60.6876ZM58.5174 60.1736L54.3568 55.9196C54.5185 55.7599 54.6773 55.6002 54.8332 55.4376L59.0891 59.5958C58.9015 59.7903 58.7109 59.982 58.5174 60.1736ZM10.2442 59.3025C10.0623 59.1079 9.8804 58.9105 9.70139 58.7217L14.0988 54.6971L14.5608 55.1995L10.2442 59.3025ZM59.8658 58.7624L55.4742 54.7494C55.6243 54.5839 55.7629 54.4184 55.916 54.2499L60.4058 58.1497C60.2181 58.3559 60.0477 58.562 59.8658 58.7624ZM8.94491 57.8361C8.77167 57.6299 8.60131 57.4208 8.43385 57.2118L13.0536 53.4717L13.4867 54.0002L8.94491 57.8361ZM61.1334 57.2757L56.5136 53.5269C56.6551 53.3527 56.8024 53.1755 56.9265 52.9984L61.6358 56.631C61.4712 56.8488 61.3037 57.0637 61.1334 57.2757ZM7.73223 56.3058C7.57054 56.088 7.41174 55.8673 7.25582 55.6466L12.0863 52.1853C12.2191 52.3683 12.3491 52.5483 12.4848 52.7313L7.73223 56.3058ZM62.3027 55.725L57.4751 52.2405L57.862 51.683L62.7705 55.0514C62.6261 55.2779 62.4731 55.4956 62.3172 55.7134L62.3027 55.725ZM6.61194 54.6971C6.4618 54.4677 6.32321 54.2383 6.17018 54.006L11.1912 50.8264C11.3096 51.0151 11.428 51.2039 11.5522 51.3897L6.61194 54.6971ZM63.3941 54.096L58.3846 50.9019C58.503 50.7131 58.6185 50.5244 58.734 50.3211L63.8215 53.3875C63.6829 53.6343 63.5472 53.8666 63.3941 54.096ZM5.5725 53.0391C5.43391 52.8039 5.3011 52.5658 5.17117 52.3276L10.3684 49.4442C10.4781 49.6416 10.5878 49.8391 10.7004 50.0249L5.5725 53.0391ZM64.3903 52.4148L59.1931 49.511C59.3028 49.3164 59.4067 49.119 59.5107 48.9302L64.7685 51.6975C64.6559 51.9356 64.5289 52.1766 64.396 52.4148H64.3903ZM4.62258 51.3142C4.50131 51.0732 4.38004 50.8293 4.26454 50.5854L9.61188 48.001C9.71005 48.2072 9.80822 48.4076 9.90061 48.6108L4.62258 51.3142ZM65.2565 50.6812L59.9178 48.0823C60.0131 47.8849 60.1055 47.6816 60.2065 47.4813L65.6145 49.9378C65.5221 50.1876 65.4153 50.4344 65.2882 50.6812H65.2565ZM3.77658 49.5429C3.66687 49.2932 3.56293 49.0406 3.45898 48.788L8.94491 46.523C9.03153 46.7321 9.11814 46.9382 9.20765 47.1444L3.77658 49.5429ZM66.0851 48.8896L60.5992 46.613C60.6829 46.4039 60.7667 46.1949 60.8475 45.9829L66.3825 48.1375C66.2815 48.3901 66.1891 48.6428 66.0851 48.8896ZM3.07207 47.7077C2.97968 47.4522 2.89018 47.1967 2.80067 46.9411L8.41652 45.0072C8.48871 45.2221 8.56378 45.4341 8.64173 45.649L3.07207 47.7077ZM66.7752 47.0602L61.1709 45.1147C61.246 44.9056 61.3153 44.6936 61.3846 44.4788L67.0351 46.2762C66.9513 46.5462 66.8589 46.8047 66.7752 47.0631V47.0602ZM2.44842 45.8435C2.37046 45.5851 2.29539 45.3267 2.22321 45.0653L7.93723 43.4595C7.99786 43.6773 8.06138 43.8951 8.1249 44.11L2.44842 45.8435ZM67.3613 45.1873L61.6618 43.5641C61.7224 43.3492 61.7801 43.1314 61.8379 42.9165L67.5837 44.4004C67.5086 44.6646 67.4364 44.9288 67.3613 45.1902V45.1873ZM1.93736 43.9532C1.87095 43.6889 1.81321 43.4247 1.75257 43.1546L7.55032 41.8799C7.59941 42.1006 7.64849 42.3184 7.70046 42.5361L1.93736 43.9532ZM67.8378 43.2824L62.0458 41.9844C62.0949 41.7695 62.1382 41.5518 62.1815 41.334L68.0139 42.4839C67.9532 42.7539 67.8984 43.024 67.8378 43.294V43.2824ZM1.53024 42.0309C1.48116 41.7608 1.43496 41.4937 1.39454 41.2236L7.25582 40.2973C7.29047 40.518 7.328 40.7416 7.36842 40.9594L1.53024 42.0309ZM68.2044 41.3485L62.346 40.4019L62.4471 39.7282L68.3257 40.5471C68.2891 40.8258 68.2487 41.0968 68.2044 41.3601V41.3485ZM1.23574 40.0883C1.20398 39.8211 1.17222 39.554 1.14623 39.2839L7.05081 38.7032L7.12589 39.3797L1.23574 40.0883ZM68.4585 39.4117L62.5568 38.7961C62.5799 38.5754 62.6001 38.3547 62.6175 38.134L68.5336 38.587C68.5134 38.8745 68.4874 39.1475 68.4585 39.4233V39.4117ZM1.05384 38.1486C1.03651 37.8756 1.02208 37.6026 1.01053 37.3268L6.9411 37.0829C6.9411 37.3036 6.96131 37.5271 6.97575 37.7478L1.05384 38.1486ZM68.6173 37.4516L62.6896 37.1874L62.7127 36.505L68.6462 36.6444C68.6231 36.9261 68.6144 37.1932 68.5913 37.4633L68.6173 37.4516ZM0.996094 36.1827V35.3871L6.92955 35.4684V36.1479L0.996094 36.1827ZM62.7185 35.5671C62.7185 35.3406 62.7185 35.117 62.7012 34.8934L68.6318 34.6815C68.6318 34.9544 68.6318 35.2245 68.652 35.4974L62.7185 35.5671ZM6.96131 34.5218L1.03651 34.2314C1.03651 33.9613 1.06539 33.6913 1.08271 33.4241L7.00173 33.8452L6.96131 34.5218ZM62.6521 33.941C62.6386 33.7203 62.6213 33.4996 62.6001 33.2789L68.5076 32.7156C68.5336 32.9886 68.5538 33.2644 68.574 33.5403L62.6521 33.941ZM7.07103 32.9189L1.16933 32.2917C1.1982 32.0187 1.22997 31.7486 1.26461 31.4786L7.14899 32.251C7.12012 32.4688 7.09124 32.6924 7.07103 32.9189ZM62.4846 32.3555L62.3923 31.6819L68.2593 30.8107C68.2997 31.075 68.3372 31.3421 68.369 31.6122L62.4846 32.3555ZM7.2847 31.3218L1.42919 30.3461C1.47539 30.0761 1.52158 29.8118 1.57067 29.5476L7.40307 30.6539L7.2847 31.3218ZM62.2363 30.741C62.1959 30.5242 62.1526 30.3064 62.1064 30.0877L67.9099 28.8478C67.9677 29.1178 68.0197 29.385 68.0716 29.6579L62.2363 30.741ZM7.59363 29.7247L1.80165 28.4326C1.8594 28.1625 1.92292 27.8925 1.99222 27.6253L7.74378 29.0772C7.69181 29.2921 7.64272 29.5069 7.59363 29.7247ZM61.8985 29.1817C61.8465 28.9639 61.7917 28.7491 61.731 28.5342L67.4537 26.9545C67.5259 27.2188 67.5923 27.483 67.6587 27.7502L61.8985 29.1817ZM7.98919 28.1683L2.28384 26.5306C2.35891 26.2663 2.43687 26.005 2.5206 25.7437L8.17976 27.5324C8.11335 27.7357 8.04983 27.9505 7.98919 28.1654V28.1683ZM61.4683 27.6224C61.4019 27.4075 61.3355 27.1955 61.2633 26.9836L66.8878 25.0787C66.9744 25.34 67.0582 25.6014 67.139 25.8627L61.4683 27.6224ZM8.47427 26.6293L2.87574 24.6548C2.96525 24.3992 3.05764 24.1437 3.16447 23.8911L8.71681 25.9934C8.6273 26.2025 8.54934 26.4144 8.47427 26.6264V26.6293ZM60.9486 26.0892C60.8706 25.8772 60.7898 25.6682 60.706 25.4591L66.2151 23.2377C66.3132 23.4903 66.4143 23.7459 66.5038 24.0014L60.9486 26.0892ZM9.05174 25.1165L3.56581 22.8341C3.66687 22.5815 3.77659 22.3288 3.8863 22.0791L9.31449 24.498C9.22498 24.707 9.13547 24.9103 9.05174 25.1135V25.1165ZM60.3422 24.588C60.2527 24.3847 60.1603 24.1814 60.0535 23.9811L65.4182 21.4316C65.5365 21.6784 65.6492 21.931 65.7589 22.1807L60.3422 24.588ZM9.70716 23.6559L4.37137 21.0425C4.49264 20.7986 4.61102 20.5546 4.73518 20.3136L10.0074 23.0461C9.90639 23.2522 9.80533 23.4526 9.70716 23.653V23.6559ZM59.6579 23.1303C59.5569 22.927 59.45 22.7267 59.3432 22.5263L64.5491 19.6835C64.6761 19.9216 64.8032 20.1597 64.9273 20.4007L59.6579 23.1303ZM10.4608 22.2243L5.28089 19.3205C5.41082 19.0824 5.54652 18.8472 5.68511 18.6149L10.7928 21.6494C10.6715 21.8323 10.556 22.0268 10.4521 22.2214L10.4608 22.2243ZM58.8813 21.7074C58.7696 21.5139 58.6541 21.3203 58.5348 21.1267L63.576 17.979C63.7204 18.2113 63.8648 18.4465 64.0005 18.6817L58.8813 21.7074ZM11.2865 20.8363L6.27701 17.6422C6.42138 17.4099 6.56574 17.1805 6.72743 16.9511L11.6359 20.2846C11.5146 20.4617 11.3962 20.6476 11.2779 20.8334L11.2865 20.8363ZM58.0295 20.3398L57.6426 19.7764L62.4962 16.3674C62.6492 16.5881 62.8022 16.8088 62.9495 17.0324L58.0295 20.3398ZM12.1932 19.4977L7.36554 16.0277C7.52434 15.8012 7.68892 15.5776 7.85638 15.3569L12.5772 18.9808C12.4415 19.1405 12.3115 19.3176 12.1845 19.4948L12.1932 19.4977ZM57.0969 19.0244C56.9641 18.8443 56.8255 18.6643 56.684 18.4872L61.3326 14.7761C61.5001 14.9881 61.6646 15.203 61.8292 15.4208L57.0969 19.0244ZM13.1546 18.2258L8.55223 14.4509C8.72258 14.2419 8.89582 14.0328 9.06906 13.8266L13.5848 17.7002C13.4434 17.8774 13.2932 18.0516 13.1546 18.2258ZM56.0834 17.7554C55.9391 17.5841 55.7947 17.4128 55.6417 17.2443L60.0737 13.2778C60.2527 13.4811 60.4289 13.6843 60.605 13.8905L56.0834 17.7554ZM14.2172 16.9975L9.8342 12.9758C10.0161 12.7725 10.2009 12.5751 10.3886 12.3776L14.6705 16.5068C14.503 16.6578 14.3529 16.832 14.2027 16.9975H14.2172ZM55.018 16.5503C54.865 16.3906 54.712 16.2309 54.556 16.0741L58.7427 11.8462C58.9352 12.0398 59.1276 12.2334 59.3201 12.427L55.018 16.5503ZM15.3375 15.8331L11.1855 11.5704C11.3789 11.3758 11.5781 11.1871 11.7803 10.9896L15.8225 15.3627C15.6377 15.5253 15.4789 15.6763 15.323 15.8331H15.3375ZM53.866 15.415C53.7014 15.2611 53.5397 15.1101 53.3722 14.962L57.3163 10.5047C57.5184 10.6847 57.7205 10.8706 57.9198 11.0564L53.866 15.415ZM16.4982 14.7413L12.6089 10.2347C12.811 10.0575 13.016 9.8833 13.2239 9.70908L17.0121 14.3028C16.8389 14.448 16.6656 14.5932 16.4982 14.7413ZM52.6591 14.3348L52.1393 13.9079L55.8265 9.23285C56.0401 9.40418 56.248 9.5726 56.4559 9.74683L52.6591 14.3348ZM17.7484 13.6988L14.1074 8.99765C14.3211 8.83214 14.5377 8.66663 14.7571 8.50402L18.2825 13.3039L17.7484 13.6988ZM51.3944 13.333C51.2154 13.2023 51.0364 13.0716 50.8545 12.9439L54.2673 8.05974C54.4887 8.21654 54.7081 8.37625 54.9256 8.53886L51.3944 13.333ZM19.0563 12.7522L15.6984 7.83324C15.9207 7.67934 16.1488 7.52544 16.3769 7.37735L19.6107 12.3805L19.0563 12.7522ZM50.0951 12.4212L49.5176 12.0553L52.6533 6.98825C52.8814 7.13053 53.1066 7.27863 53.3318 7.42381L50.0951 12.4212ZM20.4047 11.8782L17.3297 6.78498C17.5607 6.6456 17.7917 6.4946 18.0256 6.37264L20.9735 11.5501L20.4047 11.8782ZM48.7207 11.5704C48.5273 11.46 48.3338 11.3497 48.1433 11.2423L50.9844 6.01549C51.2212 6.14325 51.4551 6.27682 51.6889 6.4133L48.7207 11.5704ZM21.8108 11.0767L19.0332 5.80351C19.2758 5.67574 19.5183 5.55088 19.7637 5.42892L22.4028 10.7719C22.192 10.8764 21.9956 10.978 21.7993 11.0826L21.8108 11.0767ZM47.3146 10.8096C47.1154 10.708 46.9133 10.6092 46.7112 10.5192L49.2462 5.12403C49.4888 5.23728 49.7313 5.35633 49.971 5.47829L47.3146 10.8096ZM23.2603 10.3682L20.7887 4.944L21.5366 4.61006L23.8724 10.0953L23.2603 10.3682ZM45.8681 10.1359C45.6602 10.0459 45.4552 9.9588 45.2473 9.87459L47.4648 4.34001L48.2068 4.65071L45.8681 10.1359ZM24.7039 9.74392L22.5875 4.17159C22.8387 4.07287 23.0899 3.97995 23.344 3.88122L25.3651 9.4971L24.7039 9.74392ZM44.3378 9.53485L43.7083 9.31416L45.6053 3.66053L46.3762 3.93058L44.3378 9.53485ZM26.2227 9.20092L24.4152 3.51825C24.6693 3.43694 24.9263 3.35563 25.1861 3.28014L26.8723 9.00056C26.6673 9.06444 26.4537 9.13123 26.24 9.20092H26.2227ZM42.8133 9.0296C42.6025 8.96281 42.3888 8.90183 42.1723 8.84375L43.7603 3.08849C44.0231 3.15818 44.2829 3.23658 44.5428 3.31208L42.8133 9.0296ZM27.7616 8.73922L26.2833 2.95782C26.5432 2.89104 26.803 2.82715 27.0658 2.76617L28.4199 8.5737C28.2149 8.63759 27.9984 8.69275 27.779 8.75083L27.7616 8.73922ZM41.2628 8.59693L40.6189 8.45174L41.8374 2.61227C42.1059 2.67035 42.3744 2.72842 42.64 2.79231L41.2628 8.59693ZM29.341 8.37625L28.1861 2.52515C28.4546 2.46998 28.726 2.42062 28.9974 2.37126L30.0022 8.25429C29.7885 8.30365 29.572 8.3443 29.3583 8.38786L29.341 8.37625ZM39.6978 8.27171L39.028 8.16136L39.9317 2.26382C40.1973 2.30447 40.4601 2.34803 40.7257 2.39449L39.6978 8.27171ZM30.9204 8.1091L30.1004 2.19993C30.3689 2.16219 30.6345 2.12734 30.9059 2.0954L31.5845 8.02489C31.3795 8.05973 31.1571 8.08878 30.9377 8.12072L30.9204 8.1091ZM38.104 8.0365C37.8817 8.01037 37.6594 7.98424 37.4371 7.96391L37.9914 2.02281C38.2628 2.04894 38.5314 2.07798 38.7999 2.10992L38.104 8.0365ZM32.5373 7.94649L32.0493 1.99957C32.3236 1.97634 32.595 1.95602 32.8693 1.9415L33.1985 7.90003L32.5373 7.94649ZM36.5247 7.90583L35.8548 7.87389L36.0627 1.90956C36.3312 1.90956 36.6026 1.93279 36.874 1.95021L36.5247 7.90583ZM34.1397 7.86228L33.9983 1.89795C34.2697 1.89795 34.5382 1.89795 34.8096 1.89795L34.9222 7.86809H34.7518L34.1397 7.86228Z" fill="url(#paint1_linear)"/>
<path d="M34.814 9.03711C29.5299 9.03654 24.3643 10.6119 19.9704 13.5639C15.5765 16.5159 12.1518 20.712 10.1292 25.6215C8.10668 30.531 7.5772 35.9335 8.60774 41.1457C9.63827 46.3579 12.1825 51.1456 15.9188 54.9036C19.655 58.6615 24.4154 61.2208 29.598 62.2577C34.7805 63.2947 40.1525 62.7628 45.0344 60.7292C49.9164 58.6957 54.0891 55.2519 57.0248 50.8333C59.9606 46.4148 61.5276 41.2199 61.5276 35.9057C61.5276 28.7802 58.7132 21.9465 53.7035 16.9078C48.6939 11.869 41.8992 9.03788 34.814 9.03711Z" fill="url(#paint2_linear)"/>
<path d="M60.4398 35.9073C60.4758 39.3152 59.8394 42.6964 58.5676 45.8553C57.2957 49.0142 55.4136 51.8881 53.0301 54.3107C50.6466 56.7334 47.8091 58.6566 44.6818 59.9691C41.5544 61.2817 38.1993 61.9575 34.8105 61.9575C31.4217 61.9575 28.0666 61.2817 24.9392 59.9691C21.8118 58.6566 18.9743 56.7334 16.5909 54.3107C14.2074 51.8881 12.3252 49.0142 11.0534 45.8553C9.78152 42.6964 9.14516 39.3152 9.18113 35.9073C9.1841 34.6296 9.27574 33.3537 9.45542 32.0889C10.365 25.9793 13.4256 20.4012 18.0802 16.37C22.7348 12.3387 28.674 10.1223 34.8167 10.124C40.9594 10.1258 46.8973 12.3456 51.5497 16.3796C56.202 20.4135 59.2595 25.9933 60.1655 32.1034C60.3447 33.3634 60.4364 34.6345 60.4398 35.9073Z" fill="url(#paint3_linear)"/>
<path style="mix-blend-mode:color-burn" opacity="0.15" d="M60.1642 32.1008C59.4579 27.2972 57.4156 22.7922 54.2731 19.1055C51.1306 15.4188 47.0159 12.7006 42.4034 11.2645C37.791 9.82838 32.8689 9.7328 28.2048 10.9888C23.5407 12.2448 19.3246 14.8012 16.043 18.3632C19.4428 15.1193 23.6628 12.8762 28.2431 11.8785C32.8233 10.8808 37.588 11.1667 42.0178 12.7051C46.4476 14.2436 50.3724 16.9754 53.3645 20.6029C56.3566 24.2304 58.3012 28.6143 58.9861 33.2769C59.1715 34.5354 59.2679 35.8056 59.2749 37.0779C59.2756 43.6281 56.7862 49.9307 52.3164 54.695C54.88 52.2912 56.9241 49.3824 58.3214 46.1497C59.7188 42.917 60.4394 39.4297 60.4385 35.9047C60.435 34.6319 60.3433 33.3609 60.1642 32.1008Z" fill="url(#paint4_linear)"/>
<path style="mix-blend-mode:screen" opacity="0.45" d="M60.1652 32.1034C53.9978 37.5306 44.9172 40.9512 34.8115 40.9512C24.7059 40.9512 15.6166 37.5306 9.44922 32.0889C10.3588 25.9793 13.4194 20.4013 18.074 16.37C22.7286 12.3387 28.6678 10.1223 34.8105 10.124C40.9532 10.1258 46.8912 12.3456 51.5435 16.3796C56.1958 20.4135 59.2533 25.9933 60.1594 32.1034H60.1652Z" fill="url(#paint5_linear)"/>
<g filter="url(#filter0_d)">
<path d="M43.2845 43.5654H48.8394V47.7138H43.2845V56.9995H38.1696V47.7138H19.9375V44.7193L37.8671 16.9995H43.2845V43.5654ZM25.7124 43.5654H38.1696V23.9501L37.5646 25.049L25.7124 43.5654Z" fill="url(#paint6_linear)"/>
</g>
<defs>
<filter id="filter0_d" x="18.9375" y="16.9995" width="29.9019" height="41" filterUnits="userSpaceOnUse" color-interpolation-filters="sRGB">
<feFlood flood-opacity="0" result="BackgroundImageFix"/>
<feColorMatrix in="SourceAlpha" type="matrix" values="0 0 0 0 0 0 0 0 0 0 0 0 0 0 0 0 0 0 127 0"/>
<feOffset dx="-1" dy="1"/>
<feColorMatrix type="matrix" values="0 0 0 0 0.8125 0 0 0 0 0.636458 0 0 0 0 0.284375 0 0 0 1 0"/>
<feBlend mode="normal" in2="BackgroundImageFix" result="effect1_dropShadow"/>
<feBlend mode="normal" in="SourceGraphic" in2="effect1_dropShadow" result="shape"/>
</filter>
<linearGradient id="paint0_linear" x1="68.9849" y1="18.5664" x2="0.453576" y2="52.9051" gradientUnits="userSpaceOnUse">
<stop stop-color="#F1D6AB"/>
<stop offset="0.17" stop-color="#F0D3A4"/>
<stop offset="0.42" stop-color="#EDCC91"/>
<stop offset="0.7" stop-color="#E9C072"/>
<stop offset="1" stop-color="#E3B04B"/>
</linearGradient>
<linearGradient id="paint1_linear" x1="0.981657" y1="35.9069" x2="68.6375" y2="35.9069" gradientUnits="userSpaceOnUse">
<stop offset="0.49" stop-color="#F1D6AB"/>
<stop offset="0.54" stop-color="#F0D3A4"/>
<stop offset="0.63" stop-color="#EDCC91"/>
<stop offset="0.73" stop-color="#E9C072"/>
<stop offset="0.83" stop-color="#E3B04B"/>
</linearGradient>
<linearGradient id="paint2_linear" x1="25296.3" y1="33729.1" x2="28703.5" y2="30546.7" gradientUnits="userSpaceOnUse">
<stop stop-color="#F1D6AB"/>
<stop offset="0.17" stop-color="#F0D3A4"/>
<stop offset="0.42" stop-color="#EDCC91"/>
<stop offset="0.7" stop-color="#E9C072"/>
<stop offset="1" stop-color="#E3B04B"/>
</linearGradient>
<linearGradient id="paint3_linear" x1="50.6922" y1="16.6583" x2="26.6541" y2="60.9367" gradientUnits="userSpaceOnUse">
<stop stop-color="#F1D6AB"/>
<stop offset="1" stop-color="#E3B04B"/>
</linearGradient>
<linearGradient id="paint4_linear" x1="5.20106" y1="73.9788" x2="60.4436" y2="3.8758" gradientUnits="userSpaceOnUse">
<stop stop-color="#F1D6AB"/>
<stop offset="0.34" stop-color="#F1D6AB"/>
<stop offset="0.41" stop-color="#EECF98"/>
<stop offset="0.56" stop-color="#E9C177"/>
<stop offset="0.7" stop-color="#E6B85F"/>
<stop offset="0.83" stop-color="#E4B250"/>
<stop offset="0.94" stop-color="#E3B04B"/>
</linearGradient>
<linearGradient id="paint5_linear" x1="-12.4339" y1="-16.1483" x2="80.943" y2="70.6565" gradientUnits="userSpaceOnUse">
<stop stop-color="#F1D6AB" stop-opacity="0.24"/>
</linearGradient>
<linearGradient id="paint6_linear" x1="46.212" y1="17.6892" x2="30.2452" y2="54.1487" gradientUnits="userSpaceOnUse">
<stop stop-color="#E3B04B"/>
<stop offset="0.19" stop-color="#E3B04B"/>
<stop offset="1" stop-color="#F1D6AB"/>
</linearGradient>
</defs>
</svg>
