<svg width="70" height="71" viewBox="0 0 70 71" fill="none" xmlns="http://www.w3.org/2000/svg">
<path d="M34.7456 70.7231C53.9351 70.7231 69.5177 55.0858 69.5503 35.7961C69.5829 16.5065 54.0532 0.869141 34.8638 0.869141C15.6743 0.869141 0.0917203 16.5065 0.0591002 35.7961C0.0264801 55.0858 15.5562 70.7231 34.7456 70.7231Z" fill="url(#paint0_linear)"/>
<path d="M34.5747 69.8096C34.3062 69.8096 34.0405 69.8096 33.772 69.7922L33.9453 63.8278H34.6267L34.5747 69.8096ZM35.7152 69.8096L35.5593 63.8423C35.7845 63.8423 36.0068 63.8423 36.2291 63.8191L36.5179 69.7776C36.2494 69.7805 35.9866 69.7892 35.7152 69.7979V69.8096ZM32.6402 69.7515C32.3688 69.737 32.0945 69.7137 31.8231 69.6905L32.3457 63.7465C32.5651 63.7668 32.7846 63.7814 33.0069 63.7959L32.6402 69.7515ZM37.6555 69.7021L37.1704 63.7552L37.8287 63.6913L38.4726 69.6237C38.2012 69.6412 37.9298 69.6789 37.6555 69.6789V69.7021ZM30.697 69.5715C30.4285 69.5395 30.16 69.5047 29.8914 69.464L30.7576 63.5578C30.9771 63.5926 31.1994 63.6216 31.4217 63.6478L30.697 69.5715ZM39.5958 69.4814L38.7613 63.5752C38.9837 63.5432 39.2031 63.5084 39.4225 63.4707L40.3984 69.3566C40.1328 69.3885 39.8643 69.4321 39.5958 69.4698V69.4814ZM28.7741 69.2811L27.9743 69.1272L29.161 63.279L29.8164 63.4068L28.7741 69.2811ZM41.5129 69.1504L40.358 63.2993C40.5746 63.2558 40.7911 63.2093 41.0048 63.16L42.3243 68.9675C42.05 69.0285 41.7815 69.0982 41.5129 69.1388V69.1504ZM26.8684 68.8775C26.6028 68.8136 26.3343 68.7468 26.0715 68.6742L27.6047 62.9102L28.2428 63.0728L26.8684 68.8775ZM43.4186 68.709L41.9056 62.9364C42.1251 62.8783 42.3416 62.8202 42.5582 62.7563L44.1982 68.4912L43.4186 68.709ZM24.9888 68.3519C24.726 68.2706 24.4662 68.1893 24.2092 68.1022L26.0744 62.4369C26.2852 62.5095 26.496 62.5763 26.7067 62.6402L24.9888 68.3519ZM45.2954 68.1428L43.459 62.4689C43.6756 62.3992 43.8863 62.3266 44.1 62.2511L46.0634 67.8815C45.8006 67.9715 45.5437 68.0586 45.2867 68.1428H45.2954ZM23.138 67.7247C22.8839 67.6318 22.6327 67.5359 22.3815 67.4343L24.5586 61.8823C24.7664 61.9636 24.9772 62.0449 25.1909 62.1233L23.138 67.7247ZM47.1375 67.4808L44.9748 61.9229C45.1827 61.8416 45.3906 61.7574 45.5956 61.6703L47.9055 67.1875C47.637 67.2775 47.3829 67.3791 47.1288 67.4808H47.1375ZM21.3305 66.9987L20.5914 66.6648L23.0831 61.258L23.6924 61.5339L21.3305 66.9987ZM48.9363 66.7084L46.4589 61.287C46.6611 61.1941 46.8632 61.0954 47.0624 60.9966L49.661 66.357C49.4213 66.4848 49.1759 66.598 48.9276 66.7113L48.9363 66.7084ZM19.5577 66.1654C19.3181 66.0434 19.0813 65.9185 18.8445 65.7908L21.651 60.5321C21.8474 60.6395 22.0466 60.7411 22.2458 60.8457L19.5577 66.1654ZM50.686 65.8372L47.894 60.5727C48.0903 60.4653 48.2866 60.3578 48.4714 60.2475L51.3934 65.4423C51.1595 65.5759 50.9199 65.7095 50.686 65.8372ZM17.8542 65.2361C17.6203 65.0997 17.3864 64.9458 17.1554 64.8151L20.2593 59.7306C20.447 59.8468 20.6376 59.96 20.8368 60.0733L17.8542 65.2361ZM52.3751 64.8645L49.2885 59.7713L49.866 59.4141L53.0767 64.4318C52.8371 64.5799 52.6089 64.7222 52.3751 64.8645ZM16.1997 64.2053C15.9745 64.0572 15.7493 63.9149 15.527 63.7465L18.9254 58.8479C19.1073 58.9756 19.2892 59.1005 19.4769 59.2225L16.1997 64.2053ZM54.0237 63.7988L50.6513 58.8885C50.8361 58.7608 51.018 58.6301 51.1999 58.4965L54.6849 63.3255C54.454 63.4881 54.2345 63.6449 54.0122 63.7988H54.0237ZM14.5944 63.0787C14.3807 62.916 14.1642 62.7534 13.9534 62.585L17.6117 57.8896C17.7907 58.029 17.9668 58.18 18.1487 58.2991L14.5944 63.0787ZM55.5945 62.6373L51.942 57.9332L52.4733 57.5063L56.2268 62.132C56.0045 62.3033 55.7966 62.4689 55.5945 62.6373ZM13.0785 61.8678C12.8735 61.6936 12.6685 61.5164 12.4664 61.3364L16.3845 56.853C16.552 57.004 16.7223 57.1434 16.8927 57.2944L13.0785 61.8678ZM57.0843 61.3887L53.1778 56.9024C53.3452 56.7543 53.5127 56.612 53.6773 56.4494L57.6878 60.8515C57.4885 61.0315 57.2864 61.2115 57.0843 61.3887ZM11.632 60.5698C11.4328 60.384 11.2393 60.1952 11.0545 59.9891L15.2065 55.7408L15.6858 56.2054L11.632 60.5698ZM58.5135 60.0558L54.3529 55.8018C54.5146 55.6421 54.6734 55.4824 54.8293 55.3198L59.0852 59.478C58.8976 59.6725 58.707 59.8642 58.5135 60.0558ZM10.2403 59.1847C10.0584 58.9902 9.8765 58.7927 9.69748 58.604L14.0949 54.5793L14.5569 55.0817L10.2403 59.1847ZM59.8619 58.6446L55.4703 54.6316C55.6204 54.4661 55.759 54.3006 55.9121 54.1322L60.4019 58.0319C60.2142 58.2381 60.0438 58.4442 59.8619 58.6446ZM8.941 57.7183C8.76776 57.5121 8.5974 57.3031 8.42994 57.094L13.0497 53.354L13.4828 53.8824L8.941 57.7183ZM61.1295 57.1579L56.5097 53.4091C56.6512 53.2349 56.7985 53.0578 56.9226 52.8807L61.6319 56.5132C61.4673 56.731 61.2998 56.9459 61.1295 57.1579ZM7.72832 56.188C7.56663 55.9702 7.40783 55.7496 7.25191 55.5289L12.0824 52.0676C12.2152 52.2505 12.3452 52.4306 12.4809 52.6135L7.72832 56.188ZM62.2988 55.6073L57.4712 52.1228L57.8581 51.5652L62.7666 54.9336C62.6222 55.1601 62.4692 55.3779 62.3133 55.5957L62.2988 55.6073ZM6.60804 54.5793C6.4579 54.3499 6.3193 54.1205 6.16628 53.8882L11.1873 50.7086C11.3057 50.8974 11.4241 51.0861 11.5483 51.272L6.60804 54.5793ZM63.3902 53.9783L58.3807 50.7841C58.4991 50.5954 58.6146 50.4066 58.7301 50.2034L63.8176 53.2697C63.679 53.5166 63.5433 53.7489 63.3902 53.9783ZM5.5686 52.9213C5.43 52.6861 5.29719 52.448 5.16726 52.2099L10.3645 49.3264C10.4742 49.5239 10.5839 49.7213 10.6965 49.9072L5.5686 52.9213ZM64.3864 52.297L59.1892 49.3932C59.2989 49.1987 59.4028 49.0012 59.5068 48.8125L64.7646 51.5798C64.652 51.8179 64.525 52.0589 64.3921 52.297H64.3864ZM4.61867 51.1965C4.4974 50.9554 4.37613 50.7115 4.26064 50.4676L9.60798 47.8833C9.70614 48.0894 9.80431 48.2898 9.89671 48.4931L4.61867 51.1965ZM65.2526 50.5634L59.9139 47.9646C60.0092 47.7671 60.1016 47.5639 60.2026 47.3635L65.6106 49.8201C65.5182 50.0698 65.4114 50.3166 65.2843 50.5634H65.2526ZM3.77268 49.4252C3.66296 49.1754 3.55902 48.9228 3.45508 48.6702L8.941 46.4053C9.02762 46.6143 9.11423 46.8205 9.20374 47.0267L3.77268 49.4252ZM66.0812 48.7718L60.5953 46.4953C60.679 46.2862 60.7628 46.0771 60.8436 45.8652L66.3786 48.0197C66.2776 48.2724 66.1852 48.525 66.0812 48.7718ZM3.06817 47.59C2.97577 47.3345 2.88628 47.0789 2.79677 46.8234L8.41262 44.8895C8.4848 45.1044 8.55987 45.3164 8.63783 45.5312L3.06817 47.59ZM66.7713 46.9425L61.167 44.9969C61.2421 44.7879 61.3114 44.5759 61.3807 44.361L67.0312 46.1584C66.9474 46.4285 66.855 46.6869 66.7713 46.9454V46.9425ZM2.44451 45.7258C2.36656 45.4673 2.29149 45.2089 2.2193 44.9476L7.93332 43.3418C7.99395 43.5596 8.05747 43.7773 8.12099 43.9922L2.44451 45.7258ZM67.3574 45.0695L61.6578 43.4463C61.7185 43.2314 61.7762 43.0137 61.834 42.7988L67.5798 44.2826C67.5047 44.5468 67.4325 44.8111 67.3574 45.0724V45.0695ZM1.93345 43.8354C1.86704 43.5712 1.8093 43.3069 1.74867 43.0369L7.54642 41.7621C7.5955 41.9828 7.64458 42.2006 7.69656 42.4184L1.93345 43.8354ZM67.8338 43.1647L62.0419 41.8667C62.0909 41.6518 62.1343 41.434 62.1776 41.2162L68.01 42.3661C67.9493 42.6362 67.8945 42.9062 67.8338 43.1763V43.1647ZM1.52634 41.9131C1.47725 41.6431 1.43105 41.3759 1.39063 41.1059L7.25191 40.1796C7.28656 40.4003 7.32409 40.6239 7.36451 40.8417L1.52634 41.9131ZM68.2005 41.2308L62.3421 40.2841L62.4432 39.6105L68.3218 40.4293C68.2852 40.7081 68.2448 40.9791 68.2005 41.2424V41.2308ZM1.23183 39.9705C1.20007 39.7034 1.16831 39.4362 1.14233 39.1662L7.04691 38.5854L7.12198 39.262L1.23183 39.9705ZM68.4546 39.2939L62.5529 38.6783C62.576 38.4577 62.5962 38.237 62.6135 38.0163L68.5297 38.4693C68.5095 38.7568 68.4835 39.0297 68.4546 39.3056V39.2939ZM1.04993 38.0308C1.0326 37.7579 1.01817 37.4849 1.00662 37.209L6.9372 36.9651C6.9372 37.1858 6.95741 37.4094 6.97184 37.6301L1.04993 38.0308ZM68.6134 37.3339L62.6857 37.0697L62.7088 36.3873L68.6423 36.5267C68.6192 36.8083 68.6105 37.0755 68.5874 37.3455L68.6134 37.3339ZM0.992188 36.065V35.2693L6.92564 35.3507V36.0301L0.992188 36.065ZM62.7146 35.4494C62.7146 35.2229 62.7146 34.9993 62.6973 34.7757L68.6279 34.5637C68.6279 34.8367 68.6279 35.1067 68.6481 35.3797L62.7146 35.4494ZM6.9574 34.404L1.03261 34.1136C1.03261 33.8436 1.06148 33.5735 1.0788 33.3064L6.99783 33.7274L6.9574 34.404ZM62.6482 33.8233C62.6347 33.6026 62.6174 33.3819 62.5962 33.1612L68.5037 32.5979C68.5297 32.8708 68.5499 33.1467 68.5701 33.4226L62.6482 33.8233ZM7.06712 32.8011L1.16542 32.1739C1.19429 31.901 1.22606 31.6309 1.26071 31.3609L7.14508 32.1333C7.11621 32.3511 7.08733 32.5746 7.06712 32.8011ZM62.4807 32.2378L62.3883 31.5641L68.2554 30.693C68.2958 30.9573 68.3333 31.2244 68.3651 31.4944L62.4807 32.2378ZM7.28079 31.2041L1.42529 30.2284C1.47148 29.9584 1.51768 29.6941 1.56676 29.4299L7.39916 30.5362L7.28079 31.2041ZM62.2324 30.6233C62.192 30.4065 62.1487 30.1887 62.1025 29.97L67.906 28.7301C67.9638 29.0001 68.0157 29.2673 68.0677 29.5402L62.2324 30.6233ZM7.58973 29.607L1.79775 28.3148C1.85549 28.0448 1.91901 27.7747 1.98831 27.5076L7.73987 28.9595C7.6879 29.1744 7.63881 29.3892 7.58973 29.607ZM61.8946 29.064C61.8426 28.8462 61.7878 28.6313 61.7271 28.4165L67.4498 26.8368C67.522 27.1011 67.5884 27.3653 67.6548 27.6325L61.8946 29.064ZM7.98529 28.0506L2.27993 26.4129C2.355 26.1486 2.43296 25.8873 2.5167 25.626L8.17585 27.4147C8.10945 27.6179 8.04592 27.8328 7.98529 28.0477V28.0506ZM61.4644 27.5047C61.398 27.2898 61.3316 27.0778 61.2594 26.8659L66.8839 24.961C66.9705 25.2223 67.0543 25.4837 67.1351 25.745L61.4644 27.5047ZM8.47037 26.5116L2.87183 24.537C2.96134 24.2815 3.05373 24.026 3.16057 23.7734L8.7129 25.8757C8.62339 26.0847 8.54544 26.2967 8.47037 26.5087V26.5116ZM60.9447 25.9715C60.8667 25.7595 60.7859 25.5505 60.7021 25.3414L66.2112 23.12C66.3093 23.3726 66.4104 23.6282 66.4999 23.8837L60.9447 25.9715ZM9.04783 24.9987L3.56191 22.7164C3.66296 22.4638 3.77268 22.2111 3.8824 21.9614L9.31058 24.3802C9.22107 24.5893 9.13157 24.7926 9.04783 24.9958V24.9987ZM60.3383 24.4703C60.2488 24.267 60.1564 24.0637 60.0496 23.8634L65.4143 21.3139C65.5326 21.5607 65.6452 21.8133 65.755 22.063L60.3383 24.4703ZM9.70325 23.5381L4.36747 20.9248C4.48873 20.6808 4.60712 20.4369 4.73127 20.1959L10.0035 22.9284C9.90248 23.1345 9.80142 23.3349 9.70325 23.5352V23.5381ZM59.654 23.0126C59.553 22.8093 59.4461 22.6089 59.3393 22.4086L64.5452 19.5658C64.6722 19.8039 64.7993 20.042 64.9234 20.283L59.654 23.0126ZM10.4569 22.1066L5.27698 19.2028C5.40691 18.9647 5.54261 18.7295 5.68121 18.4972L10.7889 21.5316C10.6676 21.7146 10.5521 21.9091 10.4482 22.1037L10.4569 22.1066ZM58.8773 21.5897C58.7657 21.3961 58.6502 21.2026 58.5309 21.009L63.5721 17.8613C63.7165 18.0936 63.8609 18.3288 63.9966 18.564L58.8773 21.5897ZM11.2826 20.7186L6.27311 17.5245C6.41747 17.2922 6.56184 17.0628 6.72353 16.8334L11.632 20.1669C11.5107 20.344 11.3923 20.5299 11.274 20.7157L11.2826 20.7186ZM58.0256 20.222L57.6387 19.6587L62.4923 16.2497C62.6453 16.4704 62.7983 16.6911 62.9456 16.9147L58.0256 20.222ZM12.1892 19.38L7.36163 15.91C7.52044 15.6835 7.68501 15.4599 7.85247 15.2392L12.5733 18.8631C12.4376 19.0228 12.3076 19.1999 12.1806 19.3771L12.1892 19.38ZM57.093 18.9066C56.9602 18.7266 56.8216 18.5466 56.6801 18.3694L61.3287 14.6584C61.4962 14.8704 61.6607 15.0853 61.8253 15.3031L57.093 18.9066ZM13.1507 18.1081L8.54832 14.3332C8.71867 14.1242 8.89192 13.9151 9.06516 13.7089L13.5809 17.5825C13.4395 17.7597 13.2893 17.9339 13.1507 18.1081ZM56.0795 17.6377C55.9352 17.4664 55.7908 17.2951 55.6378 17.1266L60.0698 13.1601C60.2488 13.3634 60.425 13.5666 60.6011 13.7728L56.0795 17.6377ZM14.2133 16.8798L9.8303 12.8581C10.0122 12.6549 10.197 12.4574 10.3847 12.2599L14.6666 16.3891C14.4991 16.5401 14.349 16.7143 14.1988 16.8798H14.2133ZM55.0141 16.4326C54.8611 16.2729 54.708 16.1132 54.5521 15.9564L58.7388 11.7286C58.9312 11.9221 59.1237 12.1157 59.3162 12.3093L55.0141 16.4326ZM15.3335 15.7154L11.1816 11.4527C11.375 11.2581 11.5742 11.0694 11.7764 10.8719L15.8186 15.245C15.6338 15.4076 15.475 15.5586 15.3191 15.7154H15.3335ZM53.8621 15.2973C53.6975 15.1434 53.5358 14.9924 53.3683 14.8443L57.3124 10.387C57.5145 10.567 57.7166 10.7529 57.9159 10.9387L53.8621 15.2973ZM16.4942 14.6236L12.605 10.117C12.8071 9.93984 13.0121 9.76561 13.22 9.59139L17.0082 14.1851C16.835 14.3303 16.6617 14.4755 16.4942 14.6236ZM52.6552 14.2171L52.1354 13.7902L55.8225 9.11517C56.0362 9.28649 56.2441 9.45491 56.452 9.62914L52.6552 14.2171ZM17.7445 13.5812L14.1035 8.87996C14.3172 8.71445 14.5338 8.54894 14.7532 8.38633L18.2786 13.1862L17.7445 13.5812ZM51.3905 13.2153C51.2115 13.0846 51.0325 12.9539 50.8506 12.8262L54.2634 7.94205C54.4848 8.09886 54.7042 8.25856 54.9217 8.42117L51.3905 13.2153ZM19.0524 12.6345L15.6945 7.71555C15.9168 7.56165 16.1449 7.40776 16.373 7.25967L19.6068 12.2628L19.0524 12.6345ZM50.0912 12.3035L49.5137 11.9376L52.6494 6.87056C52.8775 7.01285 53.1027 7.16094 53.3279 7.30613L50.0912 12.3035ZM20.4008 11.7605L17.3258 6.6673C17.5568 6.52792 17.7878 6.37692 18.0216 6.25496L20.9696 11.4324L20.4008 11.7605ZM48.7168 11.4527C48.5234 11.3424 48.3299 11.232 48.1394 11.1246L50.9805 5.8978C51.2173 6.02557 51.4511 6.15914 51.685 6.29562L48.7168 11.4527ZM21.8069 10.9591L19.0293 5.68583C19.2719 5.55806 19.5144 5.4332 19.7598 5.31124L22.3988 10.6542C22.1881 10.7587 21.9917 10.8603 21.7954 10.9649L21.8069 10.9591ZM47.3107 10.6919C47.1115 10.5903 46.9094 10.4915 46.7072 10.4015L49.2423 5.00635C49.4849 5.11959 49.7274 5.23865 49.9671 5.36061L47.3107 10.6919ZM23.2564 10.2505L20.7848 4.82632L21.5326 4.49238L23.8685 9.97758L23.2564 10.2505ZM45.8642 10.0182C45.6563 9.92822 45.4513 9.84111 45.2434 9.7569L47.4609 4.22233L48.2029 4.53303L45.8642 10.0182ZM24.7 9.62623L22.5836 4.05391C22.8348 3.95519 23.086 3.86227 23.3401 3.76354L25.3612 9.37941L24.7 9.62623ZM44.3339 9.41716L43.7044 9.19647L45.6014 3.54285L46.3723 3.81291L44.3339 9.41716ZM26.2188 9.08323L24.4113 3.40057C24.6654 3.31926 24.9224 3.23796 25.1822 3.16246L26.8684 8.88287C26.6634 8.94675 26.4498 9.01354 26.2361 9.08323H26.2188ZM42.8094 8.91191C42.5986 8.84512 42.3849 8.78414 42.1684 8.72606L43.7564 2.97081C44.0192 3.0405 44.279 3.11891 44.5389 3.1944L42.8094 8.91191ZM27.7577 8.62153L26.2794 2.84014C26.5393 2.77336 26.7991 2.70947 27.0619 2.64849L28.416 8.45602C28.211 8.5199 27.9945 8.57507 27.775 8.63314L27.7577 8.62153ZM41.2589 8.47924L40.615 8.33405L41.8335 2.4946C42.102 2.55267 42.3705 2.61075 42.6361 2.67463L41.2589 8.47924ZM29.3371 8.25856L28.1822 2.40748C28.4507 2.35231 28.7221 2.30294 28.9935 2.25358L29.9983 8.1366C29.7846 8.18596 29.5681 8.22661 29.3544 8.27017L29.3371 8.25856ZM39.6939 8.15402L39.0241 8.04368L39.9278 2.14614C40.1934 2.18679 40.4562 2.23035 40.7218 2.27681L39.6939 8.15402ZM30.9165 7.99141L30.0965 2.08226C30.365 2.04451 30.6306 2.00967 30.902 1.97773L31.5805 7.9072C31.3755 7.94205 31.1532 7.97109 30.9338 8.00303L30.9165 7.99141ZM38.1001 7.91882C37.8778 7.89268 37.6555 7.86655 37.4332 7.84622L37.9875 1.90513C38.2589 1.93127 38.5275 1.9603 38.796 1.99224L38.1001 7.91882ZM32.5334 7.8288L32.0454 1.8819C32.3197 1.85867 32.5911 1.83835 32.8654 1.82383L33.1946 7.78234L32.5334 7.8288ZM36.5208 7.78815L35.8509 7.75621L36.0588 1.79188C36.3273 1.79188 36.5987 1.81512 36.8701 1.83254L36.5208 7.78815ZM34.1358 7.74459L33.9944 1.78027C34.2658 1.78027 34.5343 1.78027 34.8057 1.78027L34.9183 7.7504H34.7479L34.1358 7.74459Z" fill="url(#paint1_linear)"/>
<path d="M34.8092 8.91943C29.5251 8.91886 24.3594 10.4942 19.9655 13.4462C15.5717 16.3982 12.1469 20.5943 10.1244 25.5038C8.1018 30.4134 7.57232 35.8159 8.60285 41.028C9.63339 46.2402 12.1777 51.028 15.9139 54.7859C19.6501 58.5439 24.4106 61.1032 29.5931 62.1401C34.7757 63.1771 40.1476 62.6452 45.0296 60.6116C49.9116 58.5781 54.0843 55.1343 57.02 50.7157C59.9558 46.2971 61.5228 41.1022 61.5228 35.788C61.5228 28.6625 58.7084 21.8288 53.6987 16.7901C48.689 11.7513 41.8943 8.9202 34.8092 8.91943Z" fill="url(#paint2_linear)"/>
<path d="M60.4369 35.7897C60.4729 39.1976 59.8365 42.5788 58.5647 45.7377C57.2928 48.8966 55.4107 51.7705 53.0272 54.1932C50.6437 56.6158 47.8062 58.539 44.6789 59.8516C41.5515 61.1641 38.1963 61.84 34.8076 61.84C31.4188 61.84 28.0637 61.1641 24.9363 59.8516C21.8089 58.539 18.9714 56.6158 16.5879 54.1932C14.2044 51.7705 12.3223 48.8966 11.0505 45.7377C9.77859 42.5788 9.14223 39.1976 9.1782 35.7897C9.18117 34.512 9.27282 33.2361 9.45249 31.9713C10.362 25.8617 13.4227 20.2836 18.0773 16.2523C22.7319 12.221 28.6711 10.0046 34.8138 10.0063C40.9565 10.0081 46.8944 12.228 51.5468 16.2619C56.1991 20.2958 59.2566 25.8756 60.1626 31.9858C60.3418 33.2458 60.4335 34.5168 60.4369 35.7897Z" fill="url(#paint3_linear)"/>
<path style="mix-blend-mode:color-burn" opacity="0.15" d="M60.1613 31.9832C59.455 27.1796 57.4128 22.6745 54.2702 18.9879C51.1277 15.3012 47.013 12.583 42.4005 11.1468C37.7881 9.7107 32.866 9.61512 28.2019 10.8711C23.5378 12.1271 19.3217 14.6836 16.04 18.2455C19.4399 15.0016 23.6599 12.7585 28.2402 11.7608C32.8204 10.7631 37.5851 11.0491 42.0149 12.5875C46.4447 14.1259 50.3695 16.8577 53.3616 20.4853C56.3537 24.1128 58.2983 28.4967 58.9832 33.1592C59.1686 34.4178 59.265 35.688 59.272 36.9603C59.2727 43.5105 56.7833 49.8131 52.3135 54.5774C54.8771 52.1736 56.9212 49.2648 58.3185 46.0322C59.7159 42.7995 60.4365 39.3121 60.4356 35.7871C60.4321 34.5143 60.3404 33.2433 60.1613 31.9832Z" fill="url(#paint4_linear)"/>
<path style="mix-blend-mode:screen" opacity="0.45" d="M60.1612 31.9857C53.9939 37.4129 44.9132 40.8335 34.8076 40.8335C24.702 40.8335 15.6126 37.4129 9.44531 31.9712C10.3549 25.8616 13.4155 20.2836 18.0701 16.2523C22.7247 12.221 28.6639 10.0046 34.8066 10.0063C40.9493 10.0081 46.8872 12.228 51.5396 16.2619C56.1919 20.2958 59.2494 25.8756 60.1554 31.9857H60.1612Z" fill="url(#paint5_linear)"/>
<g filter="url(#filter0_d)">
<path d="M24.2822 36.6748L26.2166 17H45.7176V21.6341H30.3207L29.1705 32.393C31.0352 31.2547 33.1526 30.6856 35.5227 30.6856C38.9907 30.6856 41.7442 31.878 43.7832 34.2629C45.8222 36.6296 46.8417 39.8365 46.8417 43.8835C46.8417 47.9485 45.7786 51.1554 43.6525 53.5041C41.5438 55.8347 38.5899 57 34.7908 57C31.4273 57 28.6825 56.0334 26.5564 54.1003C24.4303 52.1671 23.2191 49.4932 22.9229 46.0786H27.4975C27.7938 48.3369 28.5693 50.0443 29.824 51.2005C31.0788 52.3388 32.7344 52.9079 34.7908 52.9079C37.0389 52.9079 38.799 52.1129 40.0712 50.523C41.3608 48.9332 42.0056 46.738 42.0056 43.9377C42.0056 41.2999 41.3085 39.1861 39.9144 37.5962C38.5376 35.9883 36.699 35.1843 34.3987 35.1843C32.29 35.1843 30.6344 35.6631 29.4319 36.6206L28.151 37.7046L24.2822 36.6748Z" fill="url(#paint6_linear)"/>
</g>
<defs>
<filter id="filter0_d" x="21.9229" y="17" width="24.9188" height="41" filterUnits="userSpaceOnUse" color-interpolation-filters="sRGB">
<feFlood flood-opacity="0" result="BackgroundImageFix"/>
<feColorMatrix in="SourceAlpha" type="matrix" values="0 0 0 0 0 0 0 0 0 0 0 0 0 0 0 0 0 0 127 0"/>
<feOffset dx="-1" dy="1"/>
<feColorMatrix type="matrix" values="0 0 0 0 0.8125 0 0 0 0 0.636458 0 0 0 0 0.284375 0 0 0 1 0"/>
<feBlend mode="normal" in2="BackgroundImageFix" result="effect1_dropShadow"/>
<feBlend mode="normal" in="SourceGraphic" in2="effect1_dropShadow" result="shape"/>
</filter>
<linearGradient id="paint0_linear" x1="68.9808" y1="18.4487" x2="0.449347" y2="52.7872" gradientUnits="userSpaceOnUse">
<stop stop-color="#F1D6AB"/>
<stop offset="0.17" stop-color="#F0D3A4"/>
<stop offset="0.42" stop-color="#EDCC91"/>
<stop offset="0.7" stop-color="#E9C072"/>
<stop offset="1" stop-color="#E3B04B"/>
</linearGradient>
<linearGradient id="paint1_linear" x1="0.977751" y1="35.7891" x2="68.6336" y2="35.7891" gradientUnits="userSpaceOnUse">
<stop offset="0.49" stop-color="#F1D6AB"/>
<stop offset="0.54" stop-color="#F0D3A4"/>
<stop offset="0.63" stop-color="#EDCC91"/>
<stop offset="0.73" stop-color="#E9C072"/>
<stop offset="0.83" stop-color="#E3B04B"/>
</linearGradient>
<linearGradient id="paint2_linear" x1="25296.3" y1="33729" x2="28703.6" y2="30546.6" gradientUnits="userSpaceOnUse">
<stop stop-color="#F1D6AB"/>
<stop offset="0.17" stop-color="#F0D3A4"/>
<stop offset="0.42" stop-color="#EDCC91"/>
<stop offset="0.7" stop-color="#E9C072"/>
<stop offset="1" stop-color="#E3B04B"/>
</linearGradient>
<linearGradient id="paint3_linear" x1="50.6893" y1="16.5407" x2="26.6512" y2="60.8191" gradientUnits="userSpaceOnUse">
<stop stop-color="#F1D6AB"/>
<stop offset="1" stop-color="#E3B04B"/>
</linearGradient>
<linearGradient id="paint4_linear" x1="5.19813" y1="73.8613" x2="60.4408" y2="3.75822" gradientUnits="userSpaceOnUse">
<stop stop-color="#F1D6AB"/>
<stop offset="0.34" stop-color="#F1D6AB"/>
<stop offset="0.41" stop-color="#EECF98"/>
<stop offset="0.56" stop-color="#E9C177"/>
<stop offset="0.7" stop-color="#E6B85F"/>
<stop offset="0.83" stop-color="#E4B250"/>
<stop offset="0.94" stop-color="#E3B04B"/>
</linearGradient>
<linearGradient id="paint5_linear" x1="-12.4377" y1="-16.266" x2="80.9391" y2="70.5387" gradientUnits="userSpaceOnUse">
<stop stop-color="#F1D6AB" stop-opacity="0.24"/>
</linearGradient>
<linearGradient id="paint6_linear" x1="44.6672" y1="17.6897" x2="26.7039" y2="51.636" gradientUnits="userSpaceOnUse">
<stop stop-color="#E3B04B"/>
<stop offset="0.19" stop-color="#E3B04B"/>
<stop offset="1" stop-color="#F1D6AB"/>
</linearGradient>
</defs>
</svg>
