<svg width="70" height="71" viewBox="0 0 70 71" fill="none" xmlns="http://www.w3.org/2000/svg">
<path d="M34.7458 70.6053C53.9353 70.6053 69.5178 54.968 69.5504 35.6784C69.583 16.3888 54.0533 0.751465 34.8638 0.751465C15.6743 0.751465 0.0917501 16.3888 0.0591668 35.6784C0.0265836 54.968 15.5563 70.6053 34.7458 70.6053Z" fill="url(#paint0_linear)"/>
<path d="M34.5786 69.692C34.3101 69.692 34.0444 69.692 33.7759 69.6746L33.9492 63.7102H34.6306L34.5786 69.692ZM35.7191 69.692L35.5632 63.7248C35.7884 63.7248 36.0107 63.7248 36.233 63.7015L36.5218 69.6601C36.2533 69.663 35.9905 69.6717 35.7191 69.6804V69.692ZM32.6441 69.6339C32.3727 69.6194 32.0984 69.5962 31.827 69.573L32.3496 63.629C32.569 63.6493 32.7885 63.6638 33.0108 63.6783L32.6441 69.6339ZM37.6594 69.5846L37.1743 63.6377L37.8326 63.5738L38.4765 69.5062C38.2051 69.5236 37.9337 69.5613 37.6594 69.5613V69.5846ZM30.7009 69.4539C30.4324 69.422 30.1639 69.3871 29.8954 69.3465L30.7616 63.4402C30.981 63.475 31.2033 63.5041 31.4257 63.5302L30.7009 69.4539ZM39.5997 69.3639L38.7652 63.4576C38.9876 63.4257 39.207 63.3908 39.4264 63.3531L40.4023 69.239C40.1367 69.271 39.8682 69.3145 39.5997 69.3523V69.3639ZM28.778 69.1635L27.9782 69.0096L29.1649 63.1614L29.8203 63.2892L28.778 69.1635ZM41.5169 69.0329L40.3619 63.1818C40.5785 63.1382 40.795 63.0917 41.0087 63.0424L42.3282 68.8499C42.0539 68.9109 41.7854 68.9806 41.5169 69.0212V69.0329ZM26.8723 68.7599C26.6067 68.696 26.3382 68.6292 26.0754 68.5566L27.6086 62.7927L28.2467 62.9553L26.8723 68.7599ZM43.4225 68.5915L41.9095 62.8188C42.129 62.7607 42.3455 62.7026 42.5621 62.6388L44.2021 68.3737L43.4225 68.5915ZM24.9927 68.2343C24.7299 68.153 24.4701 68.0717 24.2131 67.9846L26.0783 62.3194C26.2891 62.3919 26.4999 62.4587 26.7106 62.5226L24.9927 68.2343ZM45.2993 68.0253L43.4629 62.3513C43.6795 62.2816 43.8902 62.209 44.1039 62.1335L46.0673 67.7639C45.8045 67.8539 45.5476 67.941 45.2906 68.0253H45.2993ZM23.1419 67.6071C22.8878 67.5142 22.6366 67.4184 22.3854 67.3167L24.5625 61.7647C24.7704 61.846 24.9811 61.9273 25.1948 62.0057L23.1419 67.6071ZM47.1414 67.3632L44.9788 61.8054C45.1866 61.7241 45.3945 61.6399 45.5995 61.5527L47.9094 67.0699C47.6409 67.1599 47.3868 67.2616 47.1327 67.3632H47.1414ZM21.3344 66.8812L20.5953 66.5472L23.087 61.1404L23.6963 61.4163L21.3344 66.8812ZM48.9402 66.5908L46.4628 61.1695C46.665 61.0765 46.8671 60.9778 47.0663 60.8791L49.6649 66.2394C49.4253 66.3672 49.1798 66.4805 48.9315 66.5937L48.9402 66.5908ZM19.5616 66.0478C19.322 65.9258 19.0852 65.801 18.8484 65.6732L21.6549 60.4145C21.8513 60.5219 22.0505 60.6236 22.2497 60.7281L19.5616 66.0478ZM50.6899 65.7197L47.8979 60.4551C48.0942 60.3477 48.2905 60.2403 48.4753 60.1299L51.3973 65.3247C51.1634 65.4583 50.9238 65.5919 50.6899 65.7197ZM17.8581 65.1186C17.6242 64.9821 17.3903 64.8282 17.1594 64.6975L20.2632 59.613C20.4509 59.7292 20.6415 59.8424 20.8407 59.9557L17.8581 65.1186ZM52.379 64.7469L49.2924 59.6537L49.8699 59.2965L53.0806 64.3142C52.841 64.4623 52.6129 64.6046 52.379 64.7469ZM16.2036 64.0877C15.9784 63.9397 15.7532 63.7974 15.5309 63.629L18.9293 58.7303C19.1112 58.8581 19.2931 58.9829 19.4808 59.1049L16.2036 64.0877ZM54.0277 63.6812L50.6553 58.771C50.84 58.6432 51.022 58.5125 51.2039 58.3789L54.6888 63.2079C54.4579 63.3705 54.2384 63.5273 54.0161 63.6812H54.0277ZM14.5983 62.9611C14.3846 62.7985 14.1681 62.6359 13.9573 62.4674L17.6156 57.7721C17.7946 57.9114 17.9707 58.0624 18.1526 58.1815L14.5983 62.9611ZM55.5984 62.5197L51.9459 57.8156L52.4772 57.3888L56.2307 62.0145C56.0084 62.1858 55.8005 62.3513 55.5984 62.5197ZM13.0824 61.7502C12.8774 61.576 12.6724 61.3989 12.4703 61.2188L16.3884 56.7354C16.5559 56.8864 16.7263 57.0258 16.8966 57.1768L13.0824 61.7502ZM57.0882 61.2711L53.1817 56.7848C53.3491 56.6367 53.5166 56.4944 53.6812 56.3318L57.6917 60.7339C57.4924 60.9139 57.2903 61.094 57.0882 61.2711ZM11.6359 60.4522C11.4367 60.2664 11.2432 60.0776 11.0584 59.8715L15.2104 55.6233L15.6897 56.0879L11.6359 60.4522ZM58.5174 59.9383L54.3568 55.6843C54.5185 55.5245 54.6773 55.3648 54.8332 55.2022L59.0891 59.3604C58.9015 59.555 58.7109 59.7466 58.5174 59.9383ZM10.2442 59.0671C10.0623 58.8726 9.8804 58.6751 9.70139 58.4864L14.0988 54.4618L14.5608 54.9641L10.2442 59.0671ZM59.8658 58.527L55.4742 54.514C55.6243 54.3485 55.7629 54.183 55.916 54.0146L60.4058 57.9143C60.2181 58.1205 60.0477 58.3267 59.8658 58.527ZM8.94491 57.6007C8.77167 57.3946 8.60131 57.1855 8.43385 56.9764L13.0536 53.2364L13.4867 53.7649L8.94491 57.6007ZM61.1334 57.0403L56.5136 53.2915C56.6551 53.1173 56.8024 52.9402 56.9265 52.7631L61.6358 56.3957C61.4712 56.6134 61.3037 56.8283 61.1334 57.0403ZM7.73223 56.0704C7.57054 55.8527 7.41174 55.632 7.25582 55.4113L12.0863 51.95C12.2191 52.1329 12.3491 52.313 12.4848 52.4959L7.73223 56.0704ZM62.3027 55.4897L57.4751 52.0052L57.862 51.4477L62.7705 54.816C62.6261 55.0425 62.4731 55.2603 62.3172 55.4781L62.3027 55.4897ZM6.61194 54.4618C6.4618 54.2324 6.32321 54.003 6.17018 53.7707L11.1912 50.591C11.3096 50.7798 11.428 50.9685 11.5522 51.1544L6.61194 54.4618ZM63.3941 53.8607L58.3846 50.6665C58.503 50.4778 58.6185 50.289 58.734 50.0858L63.8215 53.1522C63.6829 53.399 63.5472 53.6313 63.3941 53.8607ZM5.5725 52.8037C5.43391 52.5685 5.3011 52.3304 5.17117 52.0923L10.3684 49.2088C10.4781 49.4063 10.5878 49.6038 10.7004 49.7896L5.5725 52.8037ZM64.3903 52.1794L59.1931 49.2756C59.3028 49.0811 59.4067 48.8836 59.5107 48.6949L64.7685 51.4622C64.6559 51.7003 64.5289 51.9413 64.396 52.1794H64.3903ZM4.62258 51.0789C4.50131 50.8379 4.38004 50.594 4.26454 50.35L9.61188 47.7657C9.71005 47.9718 9.80822 48.1722 9.90061 48.3755L4.62258 51.0789ZM65.2565 50.4458L59.9178 47.847C60.0131 47.6495 60.1055 47.4463 60.2065 47.2459L65.6145 49.7025C65.5221 49.9522 65.4153 50.199 65.2882 50.4458H65.2565ZM3.77658 49.3076C3.66687 49.0579 3.56293 48.8052 3.45898 48.5526L8.94491 46.2877C9.03153 46.4967 9.11814 46.7029 9.20765 46.9091L3.77658 49.3076ZM66.0851 48.6542L60.5992 46.3777C60.6829 46.1686 60.7667 45.9595 60.8475 45.7476L66.3825 47.9021C66.2815 48.1548 66.1891 48.4074 66.0851 48.6542ZM3.07207 47.4724C2.97968 47.2169 2.89018 46.9613 2.80067 46.7058L8.41652 44.7719C8.48871 44.9868 8.56378 45.1988 8.64173 45.4136L3.07207 47.4724ZM66.7752 46.8249L61.1709 44.8793C61.246 44.6703 61.3153 44.4583 61.3846 44.2434L67.0351 46.0408C66.9513 46.3109 66.8589 46.5693 66.7752 46.8278V46.8249ZM2.44842 45.6082C2.37046 45.3497 2.29539 45.0913 2.22321 44.83L7.93723 43.2242C7.99786 43.442 8.06138 43.6597 8.1249 43.8746L2.44842 45.6082ZM67.3613 44.9519L61.6618 43.3287C61.7224 43.1138 61.7801 42.8961 61.8379 42.6812L67.5837 44.165C67.5086 44.4292 67.4364 44.6935 67.3613 44.9548V44.9519ZM1.93736 43.7178C1.87095 43.4536 1.81321 43.1893 1.75257 42.9193L7.55032 41.6445C7.59941 41.8652 7.64849 42.083 7.70046 42.3008L1.93736 43.7178ZM67.8378 43.0471L62.0458 41.7491C62.0949 41.5342 62.1382 41.3164 62.1815 41.0986L68.0139 42.2485C67.9532 42.5186 67.8984 42.7886 67.8378 43.0587V43.0471ZM1.53024 41.7955C1.48116 41.5255 1.43496 41.2583 1.39454 40.9883L7.25582 40.062C7.29047 40.2827 7.328 40.5063 7.36842 40.724L1.53024 41.7955ZM68.2044 41.1132L62.346 40.1665L62.4471 39.4929L68.3257 40.3117C68.2891 40.5905 68.2487 40.8615 68.2044 41.1248V41.1132ZM1.23574 39.8529C1.20398 39.5858 1.17222 39.3186 1.14623 39.0486L7.05081 38.4678L7.12589 39.1444L1.23574 39.8529ZM68.4585 39.1763L62.5568 38.5607C62.5799 38.3401 62.6001 38.1194 62.6175 37.8987L68.5336 38.3517C68.5134 38.6391 68.4874 38.9121 68.4585 39.188V39.1763ZM1.05384 37.9132C1.03651 37.6403 1.02208 37.3673 1.01053 37.0914L6.9411 36.8475C6.9411 37.0682 6.96131 37.2918 6.97575 37.5125L1.05384 37.9132ZM68.6173 37.2163L62.6896 36.9521L62.7127 36.2697L68.6462 36.4091C68.6231 36.6907 68.6144 36.9579 68.5913 37.2279L68.6173 37.2163ZM0.996094 35.9473V35.1517L6.92955 35.233V35.9125L0.996094 35.9473ZM62.7185 35.3318C62.7185 35.1053 62.7185 34.8817 62.7012 34.6581L68.6318 34.4461C68.6318 34.7191 68.6318 34.9891 68.652 35.2621L62.7185 35.3318ZM6.96131 34.2864L1.03651 33.996C1.03651 33.726 1.06539 33.4559 1.08271 33.1888L7.00173 33.6098L6.96131 34.2864ZM62.6521 33.7057C62.6386 33.485 62.6213 33.2643 62.6001 33.0436L68.5076 32.4803C68.5336 32.7532 68.5538 33.0291 68.574 33.3049L62.6521 33.7057ZM7.07103 32.6835L1.16933 32.0563C1.1982 31.7834 1.22997 31.5133 1.26461 31.2432L7.14899 32.0157C7.12012 32.2334 7.09124 32.457 7.07103 32.6835ZM62.4846 32.1202L62.3923 31.4465L68.2593 30.5754C68.2997 30.8396 68.3372 31.1068 68.369 31.3768L62.4846 32.1202ZM7.2847 31.0864L1.42919 30.1108C1.47539 29.8407 1.52158 29.5765 1.57067 29.3123L7.40307 30.4186L7.2847 31.0864ZM62.2363 30.5057C62.1959 30.2889 62.1526 30.0711 62.1064 29.8523L67.9099 28.6124C67.9677 28.8825 68.0197 29.1496 68.0716 29.4226L62.2363 30.5057ZM7.59363 29.4894L1.80165 28.1972C1.8594 27.9271 1.92292 27.6571 1.99222 27.39L7.74378 28.8418C7.69181 29.0567 7.64272 29.2716 7.59363 29.4894ZM61.8985 28.9464C61.8465 28.7286 61.7917 28.5137 61.731 28.2988L67.4537 26.7192C67.5259 26.9834 67.5923 27.2477 67.6587 27.5148L61.8985 28.9464ZM7.98919 27.933L2.28384 26.2952C2.35891 26.031 2.43687 25.7697 2.5206 25.5083L8.17976 27.297C8.11335 27.5003 8.04983 27.7152 7.98919 27.9301V27.933ZM61.4683 27.3871C61.4019 27.1722 61.3355 26.9602 61.2633 26.7482L66.8878 24.8434C66.9744 25.1047 67.0582 25.366 67.139 25.6274L61.4683 27.3871ZM8.47427 26.394L2.87574 24.4194C2.96525 24.1639 3.05764 23.9083 3.16447 23.6557L8.71681 25.758C8.6273 25.9671 8.54934 26.1791 8.47427 26.3911V26.394ZM60.9486 25.8539C60.8706 25.6419 60.7898 25.4328 60.706 25.2237L66.2151 23.0024C66.3132 23.255 66.4143 23.5105 66.5038 23.7661L60.9486 25.8539ZM9.05174 24.8811L3.56581 22.5987C3.66687 22.3461 3.77659 22.0935 3.8863 21.8438L9.31449 24.2626C9.22498 24.4717 9.13547 24.6749 9.05174 24.8782V24.8811ZM60.3422 24.3526C60.2527 24.1494 60.1603 23.9461 60.0535 23.7457L65.4182 21.1962C65.5365 21.443 65.6492 21.6957 65.7589 21.9454L60.3422 24.3526ZM9.70716 23.4205L4.37137 20.8071C4.49264 20.5632 4.61102 20.3193 4.73518 20.0783L10.0074 22.8107C9.90639 23.0169 9.80533 23.2172 9.70716 23.4176V23.4205ZM59.6579 22.8949C59.5569 22.6917 59.45 22.4913 59.3432 22.2909L64.5491 19.4482C64.6761 19.6863 64.8032 19.9244 64.9273 20.1654L59.6579 22.8949ZM10.4608 21.989L5.28089 19.0852C5.41082 18.8471 5.54652 18.6119 5.68511 18.3796L10.7928 21.414C10.6715 21.5969 10.556 21.7915 10.4521 21.986L10.4608 21.989ZM58.8813 21.4721C58.7696 21.2785 58.6541 21.0849 58.5348 20.8913L63.576 17.7436C63.7204 17.9759 63.8648 18.2112 64.0005 18.4464L58.8813 21.4721ZM11.2865 20.601L6.27701 17.4068C6.42138 17.1745 6.56574 16.9451 6.72743 16.7157L11.6359 20.0492C11.5146 20.2264 11.3962 20.4122 11.2779 20.598L11.2865 20.601ZM58.0295 20.1044L57.6426 19.5411L62.4962 16.1321C62.6492 16.3527 62.8022 16.5734 62.9495 16.797L58.0295 20.1044ZM12.1932 19.2623L7.36554 15.7923C7.52434 15.5658 7.68892 15.3422 7.85638 15.1215L12.5772 18.7454C12.4415 18.9052 12.3115 19.0823 12.1845 19.2594L12.1932 19.2623ZM57.0969 18.789C56.9641 18.609 56.8255 18.4289 56.684 18.2518L61.3326 14.5408C61.5001 14.7528 61.6646 14.9676 61.8292 15.1854L57.0969 18.789ZM13.1546 17.9905L8.55223 14.2156C8.72258 14.0065 8.89582 13.7974 9.06906 13.5913L13.5848 17.4649C13.4434 17.642 13.2932 17.8162 13.1546 17.9905ZM56.0834 17.5201C55.9391 17.3487 55.7947 17.1774 55.6417 17.009L60.0737 13.0424C60.2527 13.2457 60.4289 13.449 60.605 13.6551L56.0834 17.5201ZM14.2172 16.7622L9.8342 12.7405C10.0161 12.5372 10.2009 12.3397 10.3886 12.1423L14.6705 16.2714C14.503 16.4224 14.3529 16.5967 14.2027 16.7622H14.2172ZM55.018 16.315C54.865 16.1553 54.712 15.9956 54.556 15.8388L58.7427 11.6109C58.9352 11.8045 59.1276 11.9981 59.3201 12.1916L55.018 16.315ZM15.3375 15.5978L11.1855 11.335C11.3789 11.1405 11.5781 10.9517 11.7803 10.7543L15.8225 15.1274C15.6377 15.29 15.4789 15.441 15.323 15.5978H15.3375ZM53.866 15.1796C53.7014 15.0257 53.5397 14.8747 53.3722 14.7266L57.3163 10.2694C57.5184 10.4494 57.7205 10.6352 57.9198 10.8211L53.866 15.1796ZM16.4982 14.5059L12.6089 9.99931C12.811 9.82218 13.016 9.64795 13.2239 9.47372L17.0121 14.0675C16.8389 14.2127 16.6656 14.3579 16.4982 14.5059ZM52.6591 14.0994L52.1393 13.6726L55.8265 8.9975C56.0401 9.16883 56.248 9.33725 56.4559 9.51148L52.6591 14.0994ZM17.7484 13.4635L14.1074 8.7623C14.3211 8.59678 14.5377 8.43127 14.7571 8.26866L18.2825 13.0686L17.7484 13.4635ZM51.3944 13.0976C51.2154 12.9669 51.0364 12.8363 50.8545 12.7085L54.2673 7.82439C54.4887 7.98119 54.7081 8.1409 54.9256 8.30351L51.3944 13.0976ZM19.0563 12.5169L15.6984 7.59789C15.9207 7.44399 16.1488 7.29009 16.3769 7.142L19.6107 12.1452L19.0563 12.5169ZM50.0951 12.1858L49.5176 11.82L52.6533 6.7529C52.8814 6.89518 53.1066 7.04327 53.3318 7.18846L50.0951 12.1858ZM20.4047 11.6428L17.3297 6.54963C17.5607 6.41025 17.7917 6.25925 18.0256 6.13729L20.9735 11.3147L20.4047 11.6428ZM48.7207 11.335C48.5273 11.2247 48.3338 11.1144 48.1433 11.0069L50.9844 5.78014C51.2212 5.9079 51.4551 6.04147 51.6889 6.17795L48.7207 11.335ZM21.8108 10.8414L19.0332 5.56816C19.2758 5.44039 19.5183 5.31553 19.7637 5.19357L22.4028 10.5365C22.192 10.641 21.9956 10.7427 21.7993 10.8472L21.8108 10.8414ZM47.3146 10.5742C47.1154 10.4726 46.9133 10.3739 46.7112 10.2839L49.2462 4.88868C49.4888 5.00192 49.7313 5.12098 49.971 5.24294L47.3146 10.5742ZM23.2603 10.1329L20.7887 4.70864L21.5366 4.37471L23.8724 9.85992L23.2603 10.1329ZM45.8681 9.90058C45.6602 9.81056 45.4552 9.72345 45.2473 9.63924L47.4648 4.10466L48.2068 4.41536L45.8681 9.90058ZM24.7039 9.50857L22.5875 3.93624C22.8387 3.83751 23.0899 3.74459 23.344 3.64587L25.3651 9.26175L24.7039 9.50857ZM44.3378 9.2995L43.7083 9.07881L45.6053 3.42518L46.3762 3.69523L44.3378 9.2995ZM26.2227 8.96557L24.4152 3.28289C24.6693 3.20159 24.9263 3.12028 25.1861 3.04478L26.8723 8.76521C26.6673 8.82909 26.4537 8.89588 26.24 8.96557H26.2227ZM42.8133 8.79424C42.6025 8.72746 42.3888 8.66647 42.1723 8.6084L43.7603 2.85313C44.0231 2.92282 44.2829 3.00123 44.5428 3.07673L42.8133 8.79424ZM27.7616 8.50387L26.2833 2.72247C26.5432 2.65568 26.803 2.5918 27.0658 2.53082L28.4199 8.33835C28.2149 8.40223 27.9984 8.4574 27.779 8.51548L27.7616 8.50387ZM41.2628 8.36158L40.6189 8.21639L41.8374 2.37692C42.1059 2.435 42.3744 2.49307 42.64 2.55695L41.2628 8.36158ZM29.341 8.1409L28.1861 2.2898C28.4546 2.23463 28.726 2.18527 28.9974 2.1359L30.0022 8.01894C29.7885 8.0683 29.572 8.10895 29.3583 8.15251L29.341 8.1409ZM39.6978 8.03636L39.028 7.92601L39.9317 2.02847C40.1973 2.06912 40.4601 2.11268 40.7257 2.15914L39.6978 8.03636ZM30.9204 7.87375L30.1004 1.96458C30.3689 1.92683 30.6345 1.89199 30.9059 1.86005L31.5845 7.78954C31.3795 7.82438 31.1571 7.85342 30.9377 7.88537L30.9204 7.87375ZM38.104 7.80115C37.8817 7.77502 37.6594 7.74889 37.4371 7.72856L37.9914 1.78746C38.2628 1.81359 38.5314 1.84263 38.7999 1.87457L38.104 7.80115ZM32.5373 7.71114L32.0493 1.76422C32.3236 1.74099 32.595 1.72067 32.8693 1.70615L33.1985 7.66468L32.5373 7.71114ZM36.5247 7.67048L35.8548 7.63854L36.0627 1.67421C36.3312 1.67421 36.6026 1.69744 36.874 1.71486L36.5247 7.67048ZM34.1397 7.62693L33.9983 1.6626C34.2697 1.6626 34.5382 1.6626 34.8096 1.6626L34.9222 7.63274H34.7518L34.1397 7.62693Z" fill="url(#paint1_linear)"/>
<path d="M34.8092 8.80176C29.525 8.80118 24.3594 10.3765 19.9655 13.3285C15.5716 16.2805 12.1469 20.4766 10.1243 25.3862C8.1018 30.2957 7.57232 35.6982 8.60285 40.9104C9.63339 46.1226 12.1776 50.9103 15.9139 54.6683C19.6501 58.4262 24.4105 60.9855 29.5931 62.0224C34.7757 63.0594 40.1476 62.5275 45.0295 60.494C49.9115 58.4604 54.0842 55.0166 57.02 50.598C59.9557 46.1795 61.5227 40.9846 61.5227 35.6703C61.5227 28.5448 58.7083 21.7112 53.6987 16.6724C48.689 11.6337 41.8943 8.80253 34.8092 8.80176Z" fill="url(#paint2_linear)"/>
<path d="M60.4359 35.672C60.4719 39.0798 59.8355 42.461 58.5637 45.62C57.2918 48.7789 55.4097 51.6528 53.0262 54.0754C50.6427 56.498 47.8052 58.4212 44.6779 59.7338C41.5505 61.0463 38.1954 61.7222 34.8066 61.7222C31.4178 61.7222 28.0627 61.0463 24.9353 59.7338C21.8079 58.4212 18.9704 56.498 16.5869 54.0754C14.2035 51.6528 12.3213 48.7789 11.0495 45.62C9.77761 42.461 9.14126 39.0798 9.17723 35.672C9.18019 34.3943 9.27184 33.1184 9.45152 31.8535C10.3611 25.7439 13.4217 20.1659 18.0763 16.1346C22.7309 12.1034 28.6701 9.88691 34.8128 9.88867C40.9555 9.89043 46.8934 12.1103 51.5458 16.1442C56.1981 20.1781 59.2555 25.7579 60.1616 31.868C60.3408 33.1281 60.4325 34.3991 60.4359 35.672Z" fill="url(#paint3_linear)"/>
<path style="mix-blend-mode:color-burn" opacity="0.15" d="M60.1603 31.8655C59.4539 27.0619 57.4117 22.5569 54.2692 18.8702C51.1267 15.1835 47.012 12.4653 42.3995 11.0292C37.7871 9.59302 32.865 9.49745 28.2009 10.7535C23.5368 12.0095 19.3207 14.5659 16.0391 18.1278C19.4389 14.8839 23.6589 12.6409 28.2392 11.6432C32.8194 10.6454 37.5841 10.9314 42.0139 12.4698C46.4437 14.0082 50.3685 16.7401 53.3606 20.3676C56.3527 23.9951 58.2973 28.379 58.9822 33.0416C59.1676 34.3001 59.264 35.5703 59.271 36.8426C59.2717 43.3928 56.7823 49.6955 52.3125 54.4597C54.8761 52.056 56.9202 49.1472 58.3175 45.9145C59.7149 42.6818 60.4355 39.1944 60.4346 35.6695C60.4311 34.3966 60.3394 33.1256 60.1603 31.8655Z" fill="url(#paint4_linear)"/>
<path style="mix-blend-mode:screen" opacity="0.45" d="M60.1613 31.8681C53.9939 37.2952 44.9133 40.7158 34.8076 40.7158C24.702 40.7158 15.6126 37.2952 9.44531 31.8536C10.3549 25.744 13.4155 20.1659 18.0701 16.1346C22.7247 12.1034 28.6639 9.88691 34.8066 9.88867C40.9493 9.89043 46.8873 12.1103 51.5396 16.1442C56.1919 20.1782 59.2494 25.758 60.1555 31.8681H60.1613Z" fill="url(#paint5_linear)"/>
<g filter="url(#filter0_d)">
<path d="M40.7364 17V21.2519H39.8893C36.3015 21.3241 33.4445 22.4796 31.3184 24.7183C29.1923 26.9571 27.9631 30.1077 27.6309 34.1699C29.5411 31.7867 32.1489 30.5951 35.4543 30.5951C38.6103 30.5951 41.1268 31.8048 43.0037 34.2241C44.8973 36.6434 45.8441 39.7669 45.8441 43.5944C45.8441 47.6567 44.8225 50.9066 42.7795 53.3439C40.753 55.7813 38.0289 57 34.6072 57C31.1357 57 28.3202 55.5556 26.1609 52.6669C24.0015 49.7601 22.9219 46.0228 22.9219 41.455V39.5322C22.9219 32.2742 24.3421 26.7314 27.1824 22.9039C30.0394 19.0582 34.2833 17.0903 39.9142 17H40.7364ZM34.682 34.7657C33.104 34.7657 31.6506 35.2803 30.3218 36.3094C28.9929 37.3385 28.0711 38.6294 27.5561 40.1821V42.0237C27.5561 45.2735 28.2289 47.8914 29.5743 49.8775C30.9197 51.8635 32.5974 52.8565 34.6072 52.8565C36.6835 52.8565 38.3113 52.026 39.4906 50.3649C40.6866 48.7039 41.2846 46.5283 41.2846 43.8382C41.2846 41.13 40.6783 38.9454 39.4657 37.2844C38.2698 35.6053 36.6752 34.7657 34.682 34.7657Z" fill="url(#paint6_linear)"/>
</g>
<defs>
<filter id="filter0_d" x="21.9219" y="17" width="23.9222" height="41" filterUnits="userSpaceOnUse" color-interpolation-filters="sRGB">
<feFlood flood-opacity="0" result="BackgroundImageFix"/>
<feColorMatrix in="SourceAlpha" type="matrix" values="0 0 0 0 0 0 0 0 0 0 0 0 0 0 0 0 0 0 127 0"/>
<feOffset dx="-1" dy="1"/>
<feColorMatrix type="matrix" values="0 0 0 0 0.8125 0 0 0 0 0.636458 0 0 0 0 0.284375 0 0 0 1 0"/>
<feBlend mode="normal" in2="BackgroundImageFix" result="effect1_dropShadow"/>
<feBlend mode="normal" in="SourceGraphic" in2="effect1_dropShadow" result="shape"/>
</filter>
<linearGradient id="paint0_linear" x1="68.9809" y1="18.331" x2="0.449549" y2="52.6696" gradientUnits="userSpaceOnUse">
<stop stop-color="#F1D6AB"/>
<stop offset="0.17" stop-color="#F0D3A4"/>
<stop offset="0.42" stop-color="#EDCC91"/>
<stop offset="0.7" stop-color="#E9C072"/>
<stop offset="1" stop-color="#E3B04B"/>
</linearGradient>
<linearGradient id="paint1_linear" x1="0.981657" y1="35.6715" x2="68.6375" y2="35.6715" gradientUnits="userSpaceOnUse">
<stop offset="0.49" stop-color="#F1D6AB"/>
<stop offset="0.54" stop-color="#F0D3A4"/>
<stop offset="0.63" stop-color="#EDCC91"/>
<stop offset="0.73" stop-color="#E9C072"/>
<stop offset="0.83" stop-color="#E3B04B"/>
</linearGradient>
<linearGradient id="paint2_linear" x1="25296.3" y1="33728.9" x2="28703.5" y2="30546.5" gradientUnits="userSpaceOnUse">
<stop stop-color="#F1D6AB"/>
<stop offset="0.17" stop-color="#F0D3A4"/>
<stop offset="0.42" stop-color="#EDCC91"/>
<stop offset="0.7" stop-color="#E9C072"/>
<stop offset="1" stop-color="#E3B04B"/>
</linearGradient>
<linearGradient id="paint3_linear" x1="50.6883" y1="16.423" x2="26.6502" y2="60.7014" gradientUnits="userSpaceOnUse">
<stop stop-color="#F1D6AB"/>
<stop offset="1" stop-color="#E3B04B"/>
</linearGradient>
<linearGradient id="paint4_linear" x1="5.19716" y1="73.7436" x2="60.4398" y2="3.64058" gradientUnits="userSpaceOnUse">
<stop stop-color="#F1D6AB"/>
<stop offset="0.34" stop-color="#F1D6AB"/>
<stop offset="0.41" stop-color="#EECF98"/>
<stop offset="0.56" stop-color="#E9C177"/>
<stop offset="0.7" stop-color="#E6B85F"/>
<stop offset="0.83" stop-color="#E4B250"/>
<stop offset="0.94" stop-color="#E3B04B"/>
</linearGradient>
<linearGradient id="paint5_linear" x1="-12.4378" y1="-16.3837" x2="80.9391" y2="70.4211" gradientUnits="userSpaceOnUse">
<stop stop-color="#F1D6AB" stop-opacity="0.24"/>
</linearGradient>
<linearGradient id="paint6_linear" x1="43.7602" y1="17.6897" x2="25.3733" y2="50.9888" gradientUnits="userSpaceOnUse">
<stop stop-color="#E3B04B"/>
<stop offset="0.19" stop-color="#E3B04B"/>
<stop offset="1" stop-color="#F1D6AB"/>
</linearGradient>
</defs>
</svg>
