<svg width="69" height="71" viewBox="0 0 69 71" fill="none" xmlns="http://www.w3.org/2000/svg">
<path d="M34.1739 70.4872C53.047 70.4872 68.3725 54.8499 68.4046 35.5602C68.4366 16.2706 53.1629 0.633301 34.2898 0.633301C15.4168 0.633301 0.0912385 16.2706 0.0592287 35.5602C0.0272189 54.8499 15.3009 70.4872 34.1739 70.4872Z" fill="url(#paint0_linear)"/>
<path d="M34.0053 69.5739C33.7412 69.5739 33.48 69.5739 33.2159 69.5564L33.3863 63.5921H34.0564L34.0053 69.5739ZM35.127 69.5739L34.9736 63.6066C35.1951 63.6066 35.4138 63.6066 35.6325 63.5834L35.9164 69.5419C35.6523 69.5448 35.3939 69.5535 35.127 69.5622V69.5739ZM32.1027 69.5158C31.8358 69.5013 31.566 69.478 31.2991 69.4548L31.813 63.5108C32.0289 63.5311 32.2447 63.5456 32.4633 63.5601L32.1027 69.5158ZM37.0353 69.4664L36.5582 63.5195L37.2057 63.4556L37.8389 69.388C37.572 69.4054 37.3051 69.4432 37.0353 69.4432V69.4664ZM30.1916 69.3357C29.9275 69.3038 29.6634 69.269 29.3993 69.2283L30.2512 63.322C30.467 63.3569 30.6857 63.3859 30.9043 63.4121L30.1916 69.3357ZM38.9436 69.2457L38.1229 63.3395C38.3416 63.3075 38.5574 63.2727 38.7732 63.2349L39.733 69.1209C39.4718 69.1528 39.2077 69.1964 38.9436 69.2341V69.2457ZM28.3003 69.0454L27.5137 68.8915L28.6808 63.0433L29.3254 63.1711L28.3003 69.0454ZM40.8291 68.9147L39.6933 63.0636C39.9062 63.0201 40.1192 62.9736 40.3293 62.9242L41.6271 68.7318C41.3573 68.7927 41.0932 68.8624 40.8291 68.9031V68.9147ZM26.4261 68.6417C26.1649 68.5779 25.9008 68.5111 25.6423 68.4385L27.1502 62.6745L27.7778 62.8371L26.4261 68.6417ZM42.7034 68.4733L41.2154 62.7006C41.4312 62.6426 41.6441 62.5845 41.8571 62.5206L43.4701 68.2555L42.7034 68.4733ZM24.5774 68.1162C24.319 68.0349 24.0635 67.9535 23.8107 67.8664L25.6452 62.2012C25.8525 62.2738 26.0598 62.3406 26.2671 62.4045L24.5774 68.1162ZM44.5492 67.9071L42.7431 62.2331C42.9561 62.1634 43.1634 62.0908 43.3735 62.0153L45.3045 67.6457C45.0461 67.7358 44.7934 67.8229 44.5407 67.9071H44.5492ZM22.7572 67.4889C22.5073 67.396 22.2602 67.3002 22.0132 67.1986L24.1543 61.6466C24.3588 61.7279 24.5661 61.8092 24.7762 61.8876L22.7572 67.4889ZM46.3609 67.245L44.234 61.6872C44.4384 61.6059 44.6429 61.5217 44.8445 61.4346L47.1163 66.9517C46.8522 67.0418 46.6023 67.1434 46.3524 67.245H46.3609ZM20.9795 66.763L20.2526 66.4291L22.7032 61.0223L23.3024 61.2981L20.9795 66.763ZM48.1301 66.4726L45.6936 61.0513C45.8924 60.9584 46.0911 60.8596 46.2871 60.7609L48.8428 66.1213C48.6071 66.249 48.3657 66.3623 48.1215 66.4755L48.1301 66.4726ZM19.2359 65.9296C19.0002 65.8077 18.7674 65.6828 18.5345 65.555L21.2947 60.2963C21.4878 60.4038 21.6838 60.5054 21.8797 60.6099L19.2359 65.9296ZM49.8509 65.6015L47.1049 60.337C47.298 60.2295 47.4911 60.1221 47.6729 60.0118L50.5467 65.2066C50.3166 65.3401 50.0809 65.4737 49.8509 65.6015ZM17.5605 65.0004C17.3305 64.8639 17.1005 64.71 16.8733 64.5794L19.926 59.4949C20.1106 59.611 20.298 59.7243 20.4939 59.8375L17.5605 65.0004ZM51.5122 64.6287L48.4765 59.5355L49.0444 59.1784L52.2022 64.1961C51.9665 64.3442 51.7422 64.4864 51.5122 64.6287ZM15.9333 63.9696C15.7118 63.8215 15.4904 63.6792 15.2717 63.5108L18.614 58.6121C18.7929 58.7399 18.9718 58.8648 19.1564 58.9867L15.9333 63.9696ZM53.1336 63.5631L49.8169 58.6528C49.9986 58.525 50.1775 58.3943 50.3564 58.2608L53.7839 63.0897C53.5568 63.2523 53.3409 63.4092 53.1223 63.5631H53.1336ZM14.3545 62.8429C14.1443 62.6803 13.9313 62.5177 13.724 62.3493L17.322 57.6539C17.498 57.7933 17.6713 57.9443 17.8502 58.0633L14.3545 62.8429ZM54.6784 62.4015L51.0862 57.6974L51.6087 57.2706L55.3003 61.8963C55.0817 62.0676 54.8772 62.2331 54.6784 62.4015ZM12.8636 61.632C12.662 61.4578 12.4604 61.2807 12.2616 61.1007L16.1151 56.6172C16.2798 56.7682 16.4473 56.9076 16.6149 57.0586L12.8636 61.632ZM56.1437 61.1529L52.3016 56.6666C52.4663 56.5185 52.631 56.3762 52.7929 56.2136L56.7372 60.6157C56.5413 60.7958 56.3425 60.9758 56.1437 61.1529ZM11.4409 60.3341C11.245 60.1482 11.0547 59.9595 10.873 59.7533L14.9565 55.5051L15.4279 55.9697L11.4409 60.3341ZM57.5494 59.8201L53.4574 55.5661C53.6164 55.4064 53.7726 55.2467 53.9259 55.0841L58.1117 59.2422C57.9271 59.4368 57.7397 59.6284 57.5494 59.8201ZM10.0722 58.949C9.89327 58.7544 9.71437 58.557 9.53831 58.3682L13.8632 54.3436L14.3175 54.8459L10.0722 58.949ZM58.8756 58.4089L54.5563 54.3959C54.704 54.2303 54.8403 54.0648 54.9908 53.8964L59.4066 57.7962C59.222 58.0023 59.0545 58.2085 58.8756 58.4089ZM8.7943 57.4826C8.62392 57.2764 8.45637 57.0673 8.29167 56.8582L12.8352 53.1182L13.2612 53.6467L8.7943 57.4826ZM60.1222 56.9221L55.5786 53.1734C55.7178 52.9991 55.8626 52.822 55.9847 52.6449L60.6163 56.2775C60.4544 56.4953 60.2897 56.7102 60.1222 56.9221ZM7.60162 55.9523C7.44259 55.7345 7.28641 55.5138 7.13307 55.2931L11.8839 51.8318C12.0145 52.0148 12.1423 52.1948 12.2758 52.3777L7.60162 55.9523ZM61.2723 55.3715L56.5243 51.887L56.9048 51.3295L61.7323 54.6978C61.5903 54.9243 61.4398 55.1421 61.2865 55.3599L61.2723 55.3715ZM6.49981 54.3436C6.35214 54.1142 6.21584 53.8848 6.06533 53.6525L11.0036 50.4729C11.12 50.6616 11.2365 50.8504 11.3586 51.0362L6.49981 54.3436ZM62.3457 53.7425L57.4188 50.5484C57.5352 50.3596 57.6488 50.1709 57.7624 49.9676L62.766 53.034C62.6296 53.2808 62.4962 53.5131 62.3457 53.7425ZM5.47751 52.6855C5.3412 52.4503 5.21058 52.2122 5.08279 51.9741L10.1943 49.0907C10.3022 49.2881 10.4101 49.4856 10.5208 49.6714L5.47751 52.6855ZM63.3254 52.0612L58.2139 49.1575C58.3218 48.9629 58.424 48.7655 58.5263 48.5767L63.6974 51.344C63.5866 51.5821 63.4617 51.8231 63.3311 52.0612H63.3254ZM4.54325 50.9607C4.42398 50.7197 4.3047 50.4758 4.19112 50.2319L9.45028 47.6475C9.54683 47.8537 9.64338 48.054 9.73425 48.2573L4.54325 50.9607ZM64.1773 50.3277L58.9267 47.7288C59.0204 47.5314 59.1113 47.3281 59.2106 47.1277L64.5294 49.5843C64.4386 49.834 64.3335 50.0809 64.2085 50.3277H64.1773ZM3.7112 49.1894C3.60329 48.9397 3.50107 48.6871 3.39884 48.4344L8.7943 46.1695C8.87949 46.3786 8.96468 46.5847 9.05271 46.7909L3.7112 49.1894ZM64.9923 48.5361L59.5968 46.2595C59.6792 46.0504 59.7615 45.8414 59.841 45.6294L65.2848 47.784C65.1854 48.0366 65.0945 48.2892 64.9923 48.5361ZM3.01831 47.3542C2.92744 47.0987 2.83942 46.8432 2.75139 46.5876L8.27463 44.6537C8.34562 44.8686 8.41946 45.0806 8.49613 45.2955L3.01831 47.3542ZM65.671 46.7067L60.1591 44.7612C60.2329 44.5521 60.3011 44.3401 60.3692 44.1252L65.9266 45.9227C65.8442 46.1927 65.7533 46.4512 65.671 46.7096V46.7067ZM2.40494 45.49C2.32827 45.2316 2.25444 44.9732 2.18344 44.7118L7.80324 43.106C7.86287 43.3238 7.92534 43.5416 7.98782 43.7565L2.40494 45.49ZM66.2475 44.8338L60.6419 43.2106C60.7015 42.9957 60.7583 42.7779 60.8151 42.563L66.4661 44.0468C66.3923 44.3111 66.3213 44.5753 66.2475 44.8367V44.8338ZM1.9023 43.5997C1.83699 43.3354 1.7802 43.0712 1.72057 42.8011L7.42271 41.5264C7.47099 41.7471 7.51926 41.9648 7.57038 42.1826L1.9023 43.5997ZM66.716 42.9289L61.0195 41.6309C61.0678 41.416 61.1104 41.1982 61.153 40.9805L66.8892 42.1304C66.8296 42.4004 66.7756 42.6705 66.716 42.9405V42.9289ZM1.5019 41.6774C1.45363 41.4073 1.40819 41.1402 1.36844 40.8701L7.13307 39.9438C7.16714 40.1645 7.20406 40.3881 7.24381 40.6059L1.5019 41.6774ZM67.0766 40.995L61.3149 40.0484L61.4142 39.3747L67.1959 40.1936C67.16 40.4723 67.1202 40.7433 67.0766 41.0066V40.995ZM1.21226 39.7348C1.18102 39.4676 1.14978 39.2005 1.12422 38.9304L6.93144 38.3497L7.00528 39.0262L1.21226 39.7348ZM67.3265 39.0582L61.5222 38.4426C61.5449 38.2219 61.5648 38.0012 61.5818 37.7805L67.4004 38.2335C67.3805 38.521 67.3549 38.7939 67.3265 39.0698V39.0582ZM1.03335 37.795C1.01631 37.5221 1.00212 37.2491 0.990758 36.9733L6.82354 36.7294C6.82354 36.9501 6.84342 37.1736 6.85761 37.3943L1.03335 37.795ZM67.4827 37.0981L61.6528 36.8339L61.6755 36.1515L67.5111 36.2909C67.4884 36.5726 67.4799 36.8397 67.4572 37.1098L67.4827 37.0981ZM0.976562 35.8292V35.0336L6.81218 35.1149V35.7943L0.976562 35.8292ZM61.6812 35.2136C61.6812 34.9871 61.6812 34.7635 61.6641 34.5399L67.4969 34.3279C67.4969 34.6009 67.4969 34.8709 67.5168 35.1439L61.6812 35.2136ZM6.84341 34.1682L1.01631 33.8779C1.01631 33.6078 1.04471 33.3378 1.06175 33.0706L6.88317 33.4917L6.84341 34.1682ZM61.6159 33.5875C61.6026 33.3668 61.5856 33.1461 61.5648 32.9254L67.3748 32.3621C67.4004 32.635 67.4203 32.9109 67.4401 33.1868L61.6159 33.5875ZM6.95132 32.5654L1.14694 31.9382C1.17534 31.6652 1.20658 31.3951 1.24065 31.1251L7.028 31.8975C6.9996 32.1153 6.9712 32.3389 6.95132 32.5654ZM61.4512 32.002L61.3603 31.3283L67.1306 30.4572C67.1704 30.7215 67.2073 30.9886 67.2385 31.2587L61.4512 32.002ZM7.16147 30.9683L1.40252 29.9926C1.44796 29.7226 1.49339 29.4583 1.54166 29.1941L7.27789 30.3004L7.16147 30.9683ZM61.207 30.3875C61.1672 30.1707 61.1246 29.9529 61.0792 29.7342L66.787 28.4943C66.8438 28.7643 66.8949 29.0315 66.946 29.3044L61.207 30.3875ZM7.46531 29.3712L1.76884 28.079C1.82563 27.809 1.88811 27.5389 1.95626 27.2718L7.61298 28.7237C7.56186 28.9386 7.51358 29.1534 7.46531 29.3712ZM60.8747 28.8282C60.8236 28.6104 60.7696 28.3956 60.71 28.1807L66.3383 26.601C66.4093 26.8653 66.4746 27.1295 66.5399 27.3967L60.8747 28.8282ZM7.85435 27.8148L2.24307 26.1771C2.31691 25.9128 2.39358 25.6515 2.47593 25.3902L8.04177 27.1789C7.97646 27.3821 7.91398 27.597 7.85435 27.8119V27.8148ZM60.4516 27.2689C60.3863 27.054 60.321 26.842 60.25 26.6301L65.7817 24.7252C65.8669 24.9865 65.9493 25.2479 66.0288 25.5092L60.4516 27.2689ZM8.33143 26.2758L2.82521 24.3012C2.91324 24.0457 3.00411 23.7902 3.10918 23.5375L8.56996 25.6399C8.48193 25.8489 8.40526 26.0609 8.33143 26.2729V26.2758ZM59.9404 25.7357C59.8638 25.5237 59.7843 25.3147 59.7019 25.1056L65.1201 22.8842C65.2166 23.1368 65.316 23.3924 65.4041 23.6479L59.9404 25.7357ZM8.89937 24.7629L3.50391 22.4806C3.6033 22.2279 3.7112 21.9753 3.81911 21.7256L9.15779 24.1444C9.06976 24.3535 8.98172 24.5568 8.89937 24.76V24.7629ZM59.3441 24.2345C59.2561 24.0312 59.1652 23.8279 59.0601 23.6276L64.3363 21.0781C64.4528 21.3249 64.5635 21.5775 64.6714 21.8272L59.3441 24.2345ZM9.54398 23.3023L4.29618 20.689C4.41545 20.445 4.53188 20.2011 4.65399 19.9601L9.83932 22.6926C9.73993 22.8987 9.64053 23.0991 9.54398 23.2994V23.3023ZM58.6711 22.7768C58.5717 22.5735 58.4666 22.3731 58.3615 22.1728L63.4816 19.33C63.6065 19.5681 63.7315 19.8062 63.8536 20.0472L58.6711 22.7768ZM10.2852 21.8708L5.1907 18.967C5.31849 18.7289 5.45195 18.4937 5.58826 18.2614L10.6117 21.2958C10.4925 21.4788 10.3789 21.6733 10.2766 21.8679L10.2852 21.8708ZM57.9072 21.3539C57.7974 21.1603 57.6838 20.9668 57.5664 20.7732L62.5246 17.6255C62.6666 17.8578 62.8085 18.093 62.942 18.3282L57.9072 21.3539ZM11.0973 20.4828L6.1704 17.2887C6.31238 17.0563 6.45437 16.827 6.61339 16.5976L11.4409 19.9311C11.3216 20.1082 11.2052 20.294 11.0888 20.4799L11.0973 20.4828ZM57.0695 19.9862L56.689 19.4229L61.4625 16.0139C61.613 16.2346 61.7635 16.4553 61.9084 16.6789L57.0695 19.9862ZM11.989 19.1442L7.24098 15.6741C7.39716 15.4477 7.55902 15.2241 7.72372 15.0034L12.3667 18.6273C12.2332 18.787 12.1054 18.9641 11.9805 19.1412L11.989 19.1442ZM56.1523 18.6708C56.0216 18.4908 55.8853 18.3108 55.7462 18.1336L60.3181 14.4226C60.4828 14.6346 60.6447 14.8495 60.8066 15.0673L56.1523 18.6708ZM12.9346 17.8723L8.4081 14.0974C8.57564 13.8883 8.74603 13.6793 8.91641 13.4731L13.3577 17.3467C13.2186 17.5238 13.0709 17.6981 12.9346 17.8723ZM55.1555 17.4019C55.0135 17.2306 54.8716 17.0592 54.7211 16.8908L59.08 12.9243C59.2561 13.1275 59.4293 13.3308 59.6025 13.537L55.1555 17.4019ZM13.9796 16.644L9.66893 12.6223C9.84783 12.419 10.0296 12.2216 10.2142 12.0241L14.4255 16.1533C14.2608 16.3043 14.1131 16.4785 13.9654 16.644H13.9796ZM54.1077 16.1968C53.9572 16.0371 53.8067 15.8774 53.6533 15.7206L57.7709 11.4927C57.9602 11.6863 58.1495 11.8799 58.3388 12.0735L54.1077 16.1968ZM15.0814 15.4796L10.9979 11.2169C11.1882 11.0223 11.3841 10.8336 11.5829 10.6361L15.5585 15.0092C15.3768 15.1718 15.2206 15.3228 15.0672 15.4796H15.0814ZM52.9746 15.0615C52.8128 14.9076 52.6537 14.7566 52.489 14.6085L56.3681 10.1512C56.5669 10.3312 56.7656 10.5171 56.9616 10.7029L52.9746 15.0615ZM16.223 14.3878L12.3979 9.88114C12.5967 9.70401 12.7983 9.52979 13.0028 9.35556L16.7285 13.9493C16.5581 14.0945 16.3877 14.2397 16.223 14.3878ZM51.7876 13.9813L51.2765 13.5544L54.9028 8.87934C55.1129 9.05066 55.3174 9.21909 55.5218 9.39331L51.7876 13.9813ZM17.4526 13.3453L13.8717 8.64413C14.0818 8.47862 14.2948 8.31311 14.5106 8.1505L17.9779 12.9504L17.4526 13.3453ZM50.5438 12.9795C50.3678 12.8488 50.1917 12.7181 50.0128 12.5904L53.3693 7.70622C53.5871 7.86303 53.8029 8.02273 54.0168 8.18534L50.5438 12.9795ZM18.739 12.3987L15.4364 7.47972C15.6551 7.32582 15.8794 7.17193 16.1037 7.02384L19.2842 12.027L18.739 12.3987ZM49.2659 12.0677L48.698 11.7018L51.7819 6.63473C52.0063 6.77702 52.2278 6.92511 52.4493 7.0703L49.2659 12.0677ZM20.0651 11.5247L17.0408 6.43147C17.268 6.29209 17.4952 6.14109 17.7252 6.01913L20.6246 11.1965L20.0651 11.5247ZM47.9142 11.2169C47.724 11.1065 47.5337 10.9962 47.3463 10.8887L50.1406 5.66197C50.3734 5.78974 50.6035 5.92331 50.8335 6.05979L47.9142 11.2169ZM21.4481 10.7232L18.7163 5.44999C18.9548 5.32223 19.1933 5.19736 19.4347 5.0754L22.0302 10.4183C21.8229 10.5229 21.6298 10.6245 21.4367 10.729L21.4481 10.7232ZM46.5313 10.4561C46.3354 10.3545 46.1366 10.2557 45.9378 10.1657L48.4311 4.77051C48.6696 4.88376 48.9081 5.00281 49.1438 5.12477L46.5313 10.4561ZM22.8736 10.0147L20.4428 4.59048L21.1783 4.25655L23.4756 9.74176L22.8736 10.0147ZM45.1086 9.78241C44.9041 9.6924 44.7025 9.60529 44.4981 9.52108L46.679 3.98649L47.4088 4.2972L45.1086 9.78241ZM24.2935 9.3904L22.212 3.81808C22.459 3.71935 22.7061 3.62643 22.956 3.5277L24.9438 9.14358L24.2935 9.3904ZM43.6035 9.18133L42.9845 8.96064L44.8502 3.30701L45.6084 3.57707L43.6035 9.18133ZM25.7872 8.8474L24.0095 3.16473C24.2594 3.08343 24.5121 3.00212 24.7677 2.92662L26.4261 8.64704C26.2245 8.71092 26.0143 8.77771 25.8042 8.8474H25.7872ZM42.1042 8.67608C41.8969 8.60929 41.6867 8.54831 41.4738 8.49024L43.0356 2.73497C43.294 2.80466 43.5496 2.88307 43.8052 2.95857L42.1042 8.67608ZM27.3007 8.3857L25.8468 2.60431C26.1024 2.53752 26.3579 2.47364 26.6164 2.41266L27.9482 8.22019C27.7466 8.28407 27.5336 8.33924 27.3178 8.39731L27.3007 8.3857ZM40.5792 8.24341L39.946 8.09823L41.1444 2.25876C41.4085 2.31683 41.6725 2.37491 41.9338 2.43879L40.5792 8.24341ZM28.8541 8.02273L27.7182 2.17164C27.9823 2.11647 28.2492 2.0671 28.5161 2.01774L29.5043 7.90077C29.2942 7.95014 29.0812 7.99079 28.8711 8.03434L28.8541 8.02273ZM39.0401 7.91819L38.3813 7.80785L39.2701 1.9103C39.5314 1.95095 39.7898 1.99451 40.0511 2.04098L39.0401 7.91819ZM30.4074 7.75558L29.6009 1.84642C29.865 1.80867 30.1262 1.77383 30.3932 1.74189L31.0605 7.67137C30.8589 7.70622 30.6402 7.73526 30.4244 7.7672L30.4074 7.75558ZM37.4726 7.68299C37.2539 7.65686 37.0353 7.63072 36.8166 7.61039L37.3619 1.66929C37.6288 1.69543 37.8929 1.72446 38.157 1.7564L37.4726 7.68299ZM31.9976 7.59297L31.5177 1.64606C31.7875 1.62283 32.0544 1.60251 32.3242 1.58799L32.6479 7.54651L31.9976 7.59297ZM35.9193 7.55232L35.2605 7.52038L35.4649 1.55604C35.729 1.55604 35.996 1.57928 36.2629 1.5967L35.9193 7.55232ZM33.5737 7.50876L33.4345 1.54443C33.7015 1.54443 33.9655 1.54443 34.2325 1.54443L34.3432 7.51457H34.1757L33.5737 7.50876Z" fill="url(#paint1_linear)"/>
<path d="M34.2358 8.68359C29.0388 8.68302 23.9583 10.2583 19.6369 13.2103C15.3155 16.1624 11.9472 20.3585 9.95799 25.268C7.96879 30.1775 7.44804 35.58 8.46158 40.7922C9.47512 46.0044 11.9774 50.7922 15.6521 54.5501C19.3267 58.308 24.0086 60.8673 29.1057 61.9043C34.2028 62.9412 39.4862 62.4093 44.2876 60.3758C49.0891 58.3423 53.193 54.8984 56.0804 50.4799C58.9677 46.0613 60.5089 40.8664 60.5089 35.5522C60.5089 28.4267 57.7409 21.593 52.8138 16.5542C47.8867 11.5155 41.2041 8.68436 34.2358 8.68359Z" fill="url(#paint2_linear)"/>
<path d="M59.4383 35.5539C59.4737 38.9618 58.8478 42.343 57.5969 45.502C56.3461 48.6609 54.495 51.5348 52.1508 53.9574C49.8066 56.3801 47.0159 58.3033 43.9401 59.6159C40.8643 60.9284 37.5645 61.6042 34.2316 61.6042C30.8987 61.6042 27.5989 60.9284 24.5231 59.6159C21.4473 58.3033 18.6566 56.3801 16.3124 53.9574C13.9682 51.5348 12.1171 48.6609 10.8662 45.502C9.61534 42.343 8.98948 38.9618 9.02486 35.5539C9.02777 34.2762 9.11791 33.0003 9.29463 31.7355C10.1892 25.6259 13.1993 20.0478 17.7772 16.0165C22.355 11.9852 28.1963 9.76875 34.2377 9.77051C40.2792 9.77227 46.1191 11.9921 50.6948 16.0261C55.2704 20.06 58.2774 25.6398 59.1686 31.75C59.3448 33.01 59.4349 34.2811 59.4383 35.5539Z" fill="url(#paint3_linear)"/>
<path style="mix-blend-mode:color-burn" opacity="0.15" d="M59.1671 31.7473C58.4725 26.9437 56.4639 22.4387 53.3732 18.752C50.2826 15.0653 46.2356 12.3471 41.6993 10.911C37.1629 9.47486 32.3219 9.37928 27.7347 10.6353C23.1475 11.8913 19.001 14.4477 15.7734 18.0097C19.1172 14.7657 23.2676 12.5227 27.7724 11.525C32.2771 10.5273 36.9632 10.8132 41.32 12.3516C45.6767 13.89 49.5369 16.6219 52.4796 20.2494C55.4224 23.8769 57.3348 28.2608 58.0085 32.9233C58.1908 34.1819 58.2857 35.4521 58.2925 36.7244C58.2933 43.2746 55.8449 49.5772 51.4488 54.3414C53.9701 51.9377 55.9805 49.0289 57.3548 45.7962C58.7291 42.5635 59.4378 39.0762 59.4369 35.5512C59.4335 34.2784 59.3433 33.0074 59.1671 31.7473Z" fill="url(#paint4_linear)"/>
<path style="mix-blend-mode:screen" opacity="0.45" d="M59.1687 31.7501C53.1031 37.1773 44.1722 40.5979 34.2331 40.5979C24.2941 40.5979 15.3547 37.1773 9.28906 31.7356C10.1836 25.6259 13.1938 20.0478 17.7716 16.0165C22.3495 11.9852 28.1907 9.76875 34.2322 9.77051C40.2736 9.77227 46.1136 11.9921 50.6892 16.0261C55.2648 20.0601 58.2719 25.6399 59.163 31.7501H59.1687Z" fill="url(#paint5_linear)"/>
<g filter="url(#filter0_d)">
<path d="M46.071 21.5709L31.0545 54.9995H26.2233L41.19 22.7578H21.5664V18.9995H46.071V21.5709Z" fill="url(#paint6_linear)"/>
</g>
<defs>
<filter id="filter0_d" x="20.5664" y="18.9995" width="25.5046" height="37" filterUnits="userSpaceOnUse" color-interpolation-filters="sRGB">
<feFlood flood-opacity="0" result="BackgroundImageFix"/>
<feColorMatrix in="SourceAlpha" type="matrix" values="0 0 0 0 0 0 0 0 0 0 0 0 0 0 0 0 0 0 127 0"/>
<feOffset dx="-1" dy="1"/>
<feColorMatrix type="matrix" values="0 0 0 0 0.8125 0 0 0 0 0.636458 0 0 0 0 0.284375 0 0 0 1 0"/>
<feBlend mode="normal" in2="BackgroundImageFix" result="effect1_dropShadow"/>
<feBlend mode="normal" in="SourceGraphic" in2="effect1_dropShadow" result="shape"/>
</filter>
<linearGradient id="paint0_linear" x1="67.8444" y1="18.2128" x2="-0.00210807" y2="51.6478" gradientUnits="userSpaceOnUse">
<stop stop-color="#F1D6AB"/>
<stop offset="0.17" stop-color="#F0D3A4"/>
<stop offset="0.42" stop-color="#EDCC91"/>
<stop offset="0.7" stop-color="#E9C072"/>
<stop offset="1" stop-color="#E3B04B"/>
</linearGradient>
<linearGradient id="paint1_linear" x1="0.962364" y1="35.5533" x2="67.5026" y2="35.5533" gradientUnits="userSpaceOnUse">
<stop offset="0.49" stop-color="#F1D6AB"/>
<stop offset="0.54" stop-color="#F0D3A4"/>
<stop offset="0.63" stop-color="#EDCC91"/>
<stop offset="0.73" stop-color="#E9C072"/>
<stop offset="0.83" stop-color="#E3B04B"/>
</linearGradient>
<linearGradient id="paint2_linear" x1="24879.2" y1="33728.8" x2="28282.1" y2="30602.9" gradientUnits="userSpaceOnUse">
<stop stop-color="#F1D6AB"/>
<stop offset="0.17" stop-color="#F0D3A4"/>
<stop offset="0.42" stop-color="#EDCC91"/>
<stop offset="0.7" stop-color="#E9C072"/>
<stop offset="1" stop-color="#E3B04B"/>
</linearGradient>
<linearGradient id="paint3_linear" x1="49.8514" y1="16.3048" x2="25.5969" y2="60.2451" gradientUnits="userSpaceOnUse">
<stop stop-color="#F1D6AB"/>
<stop offset="1" stop-color="#E3B04B"/>
</linearGradient>
<linearGradient id="paint4_linear" x1="5.1103" y1="73.6253" x2="60.5607" y2="4.4187" gradientUnits="userSpaceOnUse">
<stop stop-color="#F1D6AB"/>
<stop offset="0.34" stop-color="#F1D6AB"/>
<stop offset="0.41" stop-color="#EECF98"/>
<stop offset="0.56" stop-color="#E9C177"/>
<stop offset="0.7" stop-color="#E6B85F"/>
<stop offset="0.83" stop-color="#E4B250"/>
<stop offset="0.94" stop-color="#E3B04B"/>
</linearGradient>
<linearGradient id="paint5_linear" x1="-12.2332" y1="-16.5021" x2="81.0185" y2="68.7562" gradientUnits="userSpaceOnUse">
<stop stop-color="#F1D6AB" stop-opacity="0.24"/>
</linearGradient>
<linearGradient id="paint6_linear" x1="43.8433" y1="19.6202" x2="28.8944" y2="51.7777" gradientUnits="userSpaceOnUse">
<stop stop-color="#E3B04B"/>
<stop offset="0.19" stop-color="#E3B04B"/>
<stop offset="1" stop-color="#F1D6AB"/>
</linearGradient>
</defs>
</svg>
