<svg width="70" height="71" viewBox="0 0 70 71" fill="none" xmlns="http://www.w3.org/2000/svg">
<path d="M34.7498 70.3695C53.9393 70.3695 69.5219 54.7322 69.5544 35.4426C69.587 16.1529 54.0572 0.515625 34.8677 0.515625C15.6782 0.515625 0.0956862 16.1529 0.0631397 35.4426C0.0305933 54.7322 15.5604 70.3695 34.7498 70.3695Z" fill="url(#paint0_linear)"/>
<path d="M34.5786 69.4562C34.3101 69.4562 34.0444 69.4562 33.7759 69.4388L33.9492 63.4744H34.6306L34.5786 69.4562ZM35.7191 69.4562L35.5632 63.4889C35.7884 63.4889 36.0107 63.4889 36.233 63.4657L36.5218 69.4242C36.2533 69.4271 35.9905 69.4358 35.7191 69.4445V69.4562ZM32.6441 69.3981C32.3727 69.3836 32.0984 69.3603 31.827 69.3371L32.3496 63.3931C32.569 63.4134 32.7885 63.428 33.0108 63.4425L32.6441 69.3981ZM37.6594 69.3487L37.1743 63.4018L37.8326 63.3379L38.4765 69.2703C38.2051 69.2878 37.9337 69.3255 37.6594 69.3255V69.3487ZM30.7009 69.2181C30.4324 69.1861 30.1639 69.1513 29.8954 69.1106L30.7616 63.2044C30.981 63.2392 31.2033 63.2682 31.4257 63.2944L30.7009 69.2181ZM39.5997 69.128L38.7652 63.2218C38.9876 63.1898 39.207 63.155 39.4264 63.1172L40.4023 69.0032C40.1367 69.0351 39.8682 69.0787 39.5997 69.1164V69.128ZM28.778 68.9277L27.9782 68.7738L29.1649 62.9256L29.8203 63.0534L28.778 68.9277ZM41.5169 68.797L40.3619 62.9459C40.5785 62.9024 40.795 62.8559 41.0087 62.8065L42.3282 68.6141C42.0539 68.6751 41.7854 68.7448 41.5169 68.7854V68.797ZM26.8723 68.5241C26.6067 68.4602 26.3382 68.3934 26.0754 68.3208L27.6086 62.5568L28.2467 62.7194L26.8723 68.5241ZM43.4225 68.3556L41.9095 62.583C42.129 62.5249 42.3455 62.4668 42.5621 62.4029L44.2021 68.1379L43.4225 68.3556ZM24.9927 67.9985C24.7299 67.9172 24.4701 67.8359 24.2131 67.7488L26.0783 62.0835C26.2891 62.1561 26.4999 62.2229 26.7106 62.2868L24.9927 67.9985ZM45.2993 67.7894L43.4629 62.1154C43.6795 62.0458 43.8902 61.9732 44.1039 61.8977L46.0673 67.5281C45.8045 67.6181 45.5476 67.7052 45.2906 67.7894H45.2993ZM23.1419 67.3713C22.8878 67.2784 22.6366 67.1825 22.3854 67.0809L24.5625 61.5289C24.7704 61.6102 24.9811 61.6915 25.1948 61.7699L23.1419 67.3713ZM47.1414 67.1273L44.9788 61.5695C45.1866 61.4882 45.3945 61.404 45.5995 61.3169L47.9094 66.8341C47.6409 66.9241 47.3868 67.0257 47.1327 67.1273H47.1414ZM21.3344 66.6453L20.5953 66.3114L23.087 60.9046L23.6963 61.1804L21.3344 66.6453ZM48.9402 66.355L46.4628 60.9336C46.665 60.8407 46.8671 60.742 47.0663 60.6432L49.6649 66.0036C49.4253 66.1314 49.1798 66.2446 48.9315 66.3579L48.9402 66.355ZM19.5616 65.812C19.322 65.69 19.0852 65.5651 18.8484 65.4374L21.6549 60.1786C21.8513 60.2861 22.0505 60.3877 22.2497 60.4923L19.5616 65.812ZM50.6899 65.4838L47.8979 60.2193C48.0942 60.1119 48.2905 60.0044 48.4753 59.8941L51.3973 65.0889C51.1634 65.2225 50.9238 65.3561 50.6899 65.4838ZM17.8581 64.8827C17.6242 64.7463 17.3903 64.5924 17.1594 64.4617L20.2632 59.3772C20.4509 59.4933 20.6415 59.6066 20.8407 59.7198L17.8581 64.8827ZM52.379 64.5111L49.2924 59.4179L49.8699 59.0607L53.0806 64.0784C52.841 64.2265 52.6129 64.3688 52.379 64.5111ZM16.2036 63.8519C15.9784 63.7038 15.7532 63.5615 15.5309 63.3931L18.9293 58.4945C19.1112 58.6222 19.2931 58.7471 19.4808 58.869L16.2036 63.8519ZM54.0277 63.4454L50.6553 58.5351C50.84 58.4074 51.022 58.2767 51.2039 58.1431L54.6888 62.9721C54.4579 63.1347 54.2384 63.2915 54.0161 63.4454H54.0277ZM14.5983 62.7252C14.3846 62.5626 14.1681 62.4 13.9573 62.2316L17.6156 57.5362C17.7946 57.6756 17.9707 57.8266 18.1526 57.9456L14.5983 62.7252ZM55.5984 62.2839L51.9459 57.5798L52.4772 57.1529L56.2307 61.7786C56.0084 61.9499 55.8005 62.1155 55.5984 62.2839ZM13.0824 61.5144C12.8774 61.3401 12.6724 61.163 12.4703 60.983L16.3884 56.4996C16.5559 56.6506 16.7263 56.7899 16.8966 56.9409L13.0824 61.5144ZM57.0882 61.0353L53.1817 56.5489C53.3491 56.4008 53.5166 56.2586 53.6812 56.0959L57.6917 60.498C57.4924 60.6781 57.2903 60.8581 57.0882 61.0353ZM11.6359 60.2164C11.4367 60.0305 11.2432 59.8418 11.0584 59.6356L15.2104 55.3874L15.6897 55.852L11.6359 60.2164ZM58.5174 59.7024L54.3568 55.4484C54.5185 55.2887 54.6773 55.129 54.8332 54.9664L59.0891 59.1246C58.9015 59.3191 58.7109 59.5108 58.5174 59.7024ZM10.2442 58.8313C10.0623 58.6367 9.8804 58.4393 9.70139 58.2505L14.0988 54.2259L14.5608 54.7283L10.2442 58.8313ZM59.8658 58.2912L55.4742 54.2782C55.6243 54.1127 55.7629 53.9472 55.916 53.7787L60.4058 57.6785C60.2181 57.8847 60.0477 58.0908 59.8658 58.2912ZM8.94491 57.3649C8.77167 57.1587 8.60131 56.9496 8.43385 56.7406L13.0536 53.0005L13.4867 53.529L8.94491 57.3649ZM61.1334 56.8045L56.5136 53.0557C56.6551 52.8815 56.8024 52.7044 56.9265 52.5272L61.6358 56.1598C61.4712 56.3776 61.3037 56.5925 61.1334 56.8045ZM7.73223 55.8346C7.57054 55.6168 7.41174 55.3961 7.25582 55.1755L12.0863 51.7142C12.2191 51.8971 12.3491 52.0771 12.4848 52.2601L7.73223 55.8346ZM62.3027 55.2538L57.4751 51.7693L57.862 51.2118L62.7705 54.5802C62.6261 54.8067 62.4731 55.0245 62.3172 55.2422L62.3027 55.2538ZM6.61194 54.2259C6.4618 53.9965 6.32321 53.7671 6.17018 53.5348L11.1912 50.3552C11.3096 50.5439 11.428 50.7327 11.5522 50.9185L6.61194 54.2259ZM63.3941 53.6248L58.3846 50.4307C58.503 50.242 58.6185 50.0532 58.734 49.8499L63.8215 52.9163C63.6829 53.1631 63.5472 53.3954 63.3941 53.6248ZM5.5725 52.5679C5.43391 52.3327 5.3011 52.0946 5.17117 51.8565L10.3684 48.973C10.4781 49.1705 10.5878 49.3679 10.7004 49.5538L5.5725 52.5679ZM64.3903 51.9436L59.1931 49.0398C59.3028 48.8452 59.4067 48.6478 59.5107 48.459L64.7685 51.2263C64.6559 51.4644 64.5289 51.7055 64.396 51.9436H64.3903ZM4.62258 50.843C4.50131 50.602 4.38004 50.3581 4.26454 50.1142L9.61188 47.5298C9.71005 47.736 9.80822 47.9364 9.90061 48.1396L4.62258 50.843ZM65.2565 50.21L59.9178 47.6111C60.0131 47.4137 60.1055 47.2104 60.2065 47.0101L65.6145 49.4666C65.5221 49.7164 65.4153 49.9632 65.2882 50.21H65.2565ZM3.77658 49.0717C3.66687 48.822 3.56293 48.5694 3.45898 48.3168L8.94491 46.0518C9.03153 46.2609 9.11814 46.4671 9.20765 46.6732L3.77658 49.0717ZM66.0851 48.4184L60.5992 46.1418C60.6829 45.9328 60.7667 45.7237 60.8475 45.5117L66.3825 47.6663C66.2815 47.9189 66.1891 48.1716 66.0851 48.4184ZM3.07207 47.2366C2.97968 46.981 2.89018 46.7255 2.80067 46.47L8.41652 44.5361C8.48871 44.7509 8.56378 44.9629 8.64173 45.1778L3.07207 47.2366ZM66.7752 46.589L61.1709 44.6435C61.246 44.4344 61.3153 44.2224 61.3846 44.0076L67.0351 45.805C66.9513 46.0751 66.8589 46.3335 66.7752 46.5919V46.589ZM2.44842 45.3723C2.37046 45.1139 2.29539 44.8555 2.22321 44.5941L7.93723 42.9883C7.99786 43.2061 8.06138 43.4239 8.1249 43.6388L2.44842 45.3723ZM67.3613 44.7161L61.6618 43.0929C61.7224 42.878 61.7801 42.6602 61.8379 42.4453L67.5837 43.9292C67.5086 44.1934 67.4364 44.4577 67.3613 44.719V44.7161ZM1.93736 43.482C1.87095 43.2177 1.81321 42.9535 1.75257 42.6835L7.55032 41.4087C7.59941 41.6294 7.64849 41.8472 7.70046 42.0649L1.93736 43.482ZM67.8378 42.8112L62.0458 41.5132C62.0949 41.2983 62.1382 41.0806 62.1815 40.8628L68.0139 42.0127C67.9532 42.2827 67.8984 42.5528 67.8378 42.8228V42.8112ZM1.53024 41.5597C1.48116 41.2896 1.43496 41.0225 1.39454 40.7524L7.25582 39.8261C7.29047 40.0468 7.328 40.2704 7.36842 40.4882L1.53024 41.5597ZM68.2044 40.8773L62.346 39.9307L62.4471 39.257L68.3257 40.0759C68.2891 40.3546 68.2487 40.6257 68.2044 40.8889V40.8773ZM1.23574 39.6171C1.20398 39.3499 1.17222 39.0828 1.14623 38.8127L7.05081 38.232L7.12589 38.9086L1.23574 39.6171ZM68.4585 38.9405L62.5568 38.3249C62.5799 38.1042 62.6001 37.8835 62.6175 37.6628L68.5336 38.1158C68.5134 38.4033 68.4874 38.6763 68.4585 38.9521V38.9405ZM1.05384 37.6774C1.03651 37.4044 1.02208 37.1315 1.01053 36.8556L6.9411 36.6117C6.9411 36.8324 6.96131 37.056 6.97575 37.2766L1.05384 37.6774ZM68.6173 36.9805L62.6896 36.7162L62.7127 36.0338L68.6462 36.1732C68.6231 36.4549 68.6144 36.722 68.5913 36.9921L68.6173 36.9805ZM0.996094 35.7115V34.9159L6.92955 34.9972V35.6767L0.996094 35.7115ZM62.7185 35.0959C62.7185 34.8694 62.7185 34.6458 62.7012 34.4222L68.6318 34.2103C68.6318 34.4832 68.6318 34.7533 68.652 35.0262L62.7185 35.0959ZM6.96131 34.0506L1.03651 33.7602C1.03651 33.4901 1.06539 33.2201 1.08271 32.9529L7.00173 33.374L6.96131 34.0506ZM62.6521 33.4698C62.6386 33.2491 62.6213 33.0284 62.6001 32.8077L68.5076 32.2444C68.5336 32.5174 68.5538 32.7932 68.574 33.0691L62.6521 33.4698ZM7.07103 32.4477L1.16933 31.8205C1.1982 31.5475 1.22997 31.2775 1.26461 31.0074L7.14899 31.7798C7.12012 31.9976 7.09124 32.2212 7.07103 32.4477ZM62.4846 31.8843L62.3923 31.2107L68.2593 30.3395C68.2997 30.6038 68.3372 30.8709 68.369 31.141L62.4846 31.8843ZM7.2847 30.8506L1.42919 29.8749C1.47539 29.6049 1.52158 29.3407 1.57067 29.0764L7.40307 30.1827L7.2847 30.8506ZM62.2363 30.2699C62.1959 30.053 62.1526 29.8353 62.1064 29.6165L67.9099 28.3766C67.9677 28.6466 68.0197 28.9138 68.0716 29.1868L62.2363 30.2699ZM7.59363 29.2535L1.80165 27.9614C1.8594 27.6913 1.92292 27.4213 1.99222 27.1541L7.74378 28.606C7.69181 28.8209 7.64272 29.0358 7.59363 29.2535ZM61.8985 28.7105C61.8465 28.4928 61.7917 28.2779 61.731 28.063L67.4537 26.4833C67.5259 26.7476 67.5923 27.0118 67.6587 27.279L61.8985 28.7105ZM7.98919 27.6971L2.28384 26.0594C2.35891 25.7952 2.43687 25.5338 2.5206 25.2725L8.17976 27.0612C8.11335 27.2645 8.04983 27.4793 7.98919 27.6942V27.6971ZM61.4683 27.1512C61.4019 26.9363 61.3355 26.7244 61.2633 26.5124L66.8878 24.6075C66.9744 24.8689 67.0582 25.1302 67.139 25.3915L61.4683 27.1512ZM8.47427 26.1581L2.87574 24.1836C2.96525 23.928 3.05764 23.6725 3.16447 23.4199L8.71681 25.5222C8.6273 25.7313 8.54934 25.9432 8.47427 26.1552V26.1581ZM60.9486 25.618C60.8706 25.4061 60.7898 25.197 60.706 24.9879L66.2151 22.7665C66.3132 23.0192 66.4143 23.2747 66.5038 23.5302L60.9486 25.618ZM9.05174 24.6453L3.56581 22.3629C3.66687 22.1103 3.77659 21.8577 3.8863 21.6079L9.31449 24.0268C9.22498 24.2358 9.13547 24.4391 9.05174 24.6424V24.6453ZM60.3422 24.1168C60.2527 23.9135 60.1603 23.7103 60.0535 23.5099L65.4182 20.9604C65.5365 21.2072 65.6492 21.4598 65.7589 21.7096L60.3422 24.1168ZM9.70716 23.1847L4.37137 20.5713C4.49264 20.3274 4.61102 20.0834 4.73518 19.8424L10.0074 22.5749C9.90639 22.781 9.80533 22.9814 9.70716 23.1818V23.1847ZM59.6579 22.6591C59.5569 22.4558 59.45 22.2555 59.3432 22.0551L64.5491 19.2123C64.6761 19.4504 64.8032 19.6885 64.9273 19.9296L59.6579 22.6591ZM10.4608 21.7531L5.28089 18.8493C5.41082 18.6112 5.54652 18.376 5.68511 18.1437L10.7928 21.1782C10.6715 21.3611 10.556 21.5557 10.4521 21.7502L10.4608 21.7531ZM58.8813 21.2362C58.7696 21.0427 58.6541 20.8491 58.5348 20.6555L63.576 17.5078C63.7204 17.7401 63.8648 17.9753 64.0005 18.2105L58.8813 21.2362ZM11.2865 20.3651L6.27701 17.171C6.42138 16.9387 6.56574 16.7093 6.72743 16.4799L11.6359 19.8134C11.5146 19.9905 11.3962 20.1764 11.2779 20.3622L11.2865 20.3651ZM58.0295 19.8686L57.6426 19.3052L62.4962 15.8962C62.6492 16.1169 62.8022 16.3376 62.9495 16.5612L58.0295 19.8686ZM12.1932 19.0265L7.36554 15.5565C7.52434 15.33 7.68892 15.1064 7.85638 14.8857L12.5772 18.5096C12.4415 18.6693 12.3115 18.8464 12.1845 19.0236L12.1932 19.0265ZM57.0969 18.5532C56.9641 18.3731 56.8255 18.1931 56.684 18.016L61.3326 14.305C61.5001 14.5169 61.6646 14.7318 61.8292 14.9496L57.0969 18.5532ZM13.1546 17.7546L8.55223 13.9797C8.72258 13.7707 8.89582 13.5616 9.06906 13.3554L13.5848 17.229C13.4434 17.4062 13.2932 17.5804 13.1546 17.7546ZM56.0834 17.2842C55.9391 17.1129 55.7947 16.9416 55.6417 16.7732L60.0737 12.8066C60.2527 13.0099 60.4289 13.2131 60.605 13.4193L56.0834 17.2842ZM14.2172 16.5263L9.8342 12.5046C10.0161 12.3014 10.2009 12.1039 10.3886 11.9064L14.6705 16.0356C14.503 16.1866 14.3529 16.3608 14.2027 16.5263H14.2172ZM55.018 16.0792C54.865 15.9194 54.712 15.7597 54.556 15.6029L58.7427 11.3751C58.9352 11.5686 59.1276 11.7622 59.3201 11.9558L55.018 16.0792ZM15.3375 15.3619L11.1855 11.0992C11.3789 10.9046 11.5781 10.7159 11.7803 10.5184L15.8225 14.8915C15.6377 15.0541 15.4789 15.2051 15.323 15.3619H15.3375ZM53.866 14.9438C53.7014 14.7899 53.5397 14.6389 53.3722 14.4908L57.3163 10.0335C57.5184 10.2135 57.7205 10.3994 57.9198 10.5852L53.866 14.9438ZM16.4982 14.2701L12.6089 9.76347C12.811 9.58634 13.016 9.41211 13.2239 9.23788L17.0121 13.8316C16.8389 13.9768 16.6656 14.122 16.4982 14.2701ZM52.6591 13.8636L52.1393 13.4367L55.8265 8.76166C56.0401 8.93299 56.248 9.10141 56.4559 9.27564L52.6591 13.8636ZM17.7484 13.2277L14.1074 8.52646C14.3211 8.36094 14.5377 8.19544 14.7571 8.03282L18.2825 12.8327L17.7484 13.2277ZM51.3944 12.8618C51.2154 12.7311 51.0364 12.6004 50.8545 12.4727L54.2673 7.58855C54.4887 7.74535 54.7081 7.90506 54.9256 8.06767L51.3944 12.8618ZM19.0563 12.281L15.6984 7.36205C15.9207 7.20815 16.1488 7.05425 16.3769 6.90616L19.6107 11.9093L19.0563 12.281ZM50.0951 11.95L49.5176 11.5841L52.6533 6.51706C52.8814 6.65934 53.1066 6.80744 53.3318 6.95262L50.0951 11.95ZM20.4047 11.407L17.3297 6.31379C17.5607 6.17441 17.7917 6.02341 18.0256 5.90145L20.9735 11.0789L20.4047 11.407ZM48.7207 11.0992C48.5273 10.9889 48.3338 10.8785 48.1433 10.7711L50.9844 5.5443C51.2212 5.67206 51.4551 5.80563 51.6889 5.94211L48.7207 11.0992ZM21.8108 10.6056L19.0332 5.33232C19.2758 5.20455 19.5183 5.07969 19.7637 4.95773L22.4028 10.3007C22.192 10.4052 21.9956 10.5068 21.7993 10.6114L21.8108 10.6056ZM47.3146 10.3384C47.1154 10.2368 46.9133 10.138 46.7112 10.048L49.2462 4.65284C49.4888 4.76608 49.7313 4.88514 49.971 5.0071L47.3146 10.3384ZM23.2603 9.89704L20.7887 4.47281L21.5366 4.13887L23.8724 9.62408L23.2603 9.89704ZM45.8681 9.66474C45.6602 9.57472 45.4552 9.48761 45.2473 9.4034L47.4648 3.86882L48.2068 4.17952L45.8681 9.66474ZM24.7039 9.27273L22.5875 3.7004C22.8387 3.60167 23.0899 3.50875 23.344 3.41003L25.3651 9.02591L24.7039 9.27273ZM44.3378 9.06366L43.7083 8.84297L45.6053 3.18934L46.3762 3.45939L44.3378 9.06366ZM26.2227 8.72973L24.4152 3.04706C24.6693 2.96575 24.9263 2.88444 25.1861 2.80894L26.8723 8.52937C26.6673 8.59325 26.4537 8.66004 26.24 8.72973H26.2227ZM42.8133 8.5584C42.6025 8.49162 42.3888 8.43063 42.1723 8.37256L43.7603 2.61729C44.0231 2.68698 44.2829 2.76539 44.5428 2.84089L42.8133 8.5584ZM27.7616 8.26803L26.2833 2.48663C26.5432 2.41984 26.803 2.35596 27.0658 2.29498L28.4199 8.10251C28.2149 8.16639 27.9984 8.22156 27.779 8.27964L27.7616 8.26803ZM41.2628 8.12574L40.6189 7.98055L41.8374 2.14108C42.1059 2.19916 42.3744 2.25723 42.64 2.32111L41.2628 8.12574ZM29.341 7.90506L28.1861 2.05396C28.4546 1.99879 28.726 1.94943 28.9974 1.90006L30.0022 7.7831C29.7885 7.83246 29.572 7.87311 29.3583 7.91667L29.341 7.90506ZM39.6978 7.80052L39.028 7.69017L39.9317 1.79263C40.1973 1.83328 40.4601 1.87684 40.7257 1.9233L39.6978 7.80052ZM30.9204 7.63791L30.1004 1.72874C30.3689 1.69099 30.6345 1.65615 30.9059 1.62421L31.5845 7.5537C31.3795 7.58854 31.1571 7.61758 30.9377 7.64953L30.9204 7.63791ZM38.104 7.56531C37.8817 7.53918 37.6594 7.51305 37.4371 7.49272L37.9914 1.55162C38.2628 1.57775 38.5314 1.60679 38.7999 1.63873L38.104 7.56531ZM32.5373 7.4753L32.0493 1.52838C32.3236 1.50515 32.595 1.48483 32.8693 1.47031L33.1985 7.42884L32.5373 7.4753ZM36.5247 7.43464L35.8548 7.4027L36.0627 1.43837C36.3312 1.43837 36.6026 1.4616 36.874 1.47902L36.5247 7.43464ZM34.1397 7.39109L33.9983 1.42676C34.2697 1.42676 34.5382 1.42676 34.8096 1.42676L34.9222 7.3969H34.7518L34.1397 7.39109Z" fill="url(#paint1_linear)"/>
<path d="M34.814 8.56641C29.5299 8.56583 24.3643 10.1411 19.9704 13.0931C15.5765 16.0451 12.1518 20.2412 10.1292 25.1507C8.10668 30.0603 7.5772 35.4627 8.60774 40.6749C9.63827 45.887 12.1825 50.6748 15.9188 54.4327C19.655 58.1906 24.4154 60.7499 29.598 61.7868C34.7805 62.8238 40.1525 62.2919 45.0344 60.2584C49.9164 58.2248 54.0891 54.781 57.0248 50.3625C59.9606 45.9439 61.5276 40.7491 61.5276 35.4349C61.5276 28.3094 58.7132 21.4758 53.7035 16.437C48.6939 11.3983 41.8992 8.56718 34.814 8.56641Z" fill="url(#paint2_linear)"/>
<path d="M60.4398 35.4362C60.4758 38.8441 59.8394 42.2253 58.5676 45.3843C57.2957 48.5432 55.4136 51.4171 53.0301 53.8398C50.6466 56.2624 47.8091 58.1856 44.6818 59.4982C41.5544 60.8108 38.1993 61.4866 34.8105 61.4866C31.4217 61.4866 28.0666 60.8108 24.9392 59.4982C21.8118 58.1856 18.9743 56.2624 16.5909 53.8398C14.2074 51.4171 12.3252 48.5432 11.0534 45.3843C9.78152 42.2253 9.14516 38.8441 9.18113 35.4362C9.1841 34.1585 9.27574 32.8826 9.45542 31.6178C10.365 25.5082 13.4256 19.9301 18.0802 15.8988C22.7348 11.8675 28.674 9.65107 34.8167 9.65283C40.9594 9.65459 46.8973 11.8745 51.5497 15.9084C56.202 19.9423 59.2595 25.5222 60.1655 31.6323C60.3447 32.8923 60.4364 34.1634 60.4398 35.4362Z" fill="url(#paint3_linear)"/>
<path style="mix-blend-mode:color-burn" opacity="0.15" d="M60.1642 31.6298C59.4579 26.8261 57.4156 22.3211 54.2731 18.6344C51.1306 14.9477 47.0159 12.2295 42.4034 10.7933C37.791 9.35718 32.8689 9.26161 28.2048 10.5176C23.5407 11.7736 19.3246 14.3301 16.043 17.892C19.4428 14.6481 23.6628 12.405 28.2431 11.4073C32.8233 10.4096 37.588 10.6955 42.0178 12.234C46.4476 13.7724 50.3724 16.5042 53.3645 20.1318C56.3566 23.7593 58.3012 28.1432 58.9861 32.8058C59.1715 34.0644 59.2679 35.3346 59.2749 36.6068C59.2756 43.1571 56.7862 49.4597 52.3164 54.224C54.88 51.8202 56.9241 48.9114 58.3214 45.6787C59.7188 42.446 60.4394 38.9586 60.4385 35.4337C60.435 34.1609 60.3433 32.8898 60.1642 31.6298Z" fill="url(#paint4_linear)"/>
<path style="mix-blend-mode:screen" opacity="0.45" d="M60.1652 31.6323C53.9978 37.0595 44.9172 40.4801 34.8115 40.4801C24.7059 40.4801 15.6166 37.0595 9.44922 31.6178C10.3588 25.5082 13.4194 19.9301 18.074 15.8988C22.7286 11.8675 28.6678 9.65107 34.8105 9.65283C40.9532 9.65459 46.8912 11.8745 51.5435 15.9084C56.1958 19.9424 59.2533 25.5222 60.1594 31.6323H60.1652Z" fill="url(#paint5_linear)"/>
<g filter="url(#filter0_d)">
<path d="M45.0424 28.6257C45.0424 30.3743 44.5847 31.9305 43.6691 33.2941C42.7694 34.6578 41.546 35.7246 39.9991 36.4947C41.7986 37.2807 43.2192 38.4278 44.2611 39.9358C45.3187 41.4438 45.8475 43.1524 45.8475 45.0615C45.8475 48.0936 44.8372 50.508 42.8167 52.3048C40.812 54.1016 38.168 55 34.8847 55C31.5698 55 28.91 54.1016 26.9053 52.3048C24.9163 50.492 23.9219 48.0775 23.9219 45.0615C23.9219 43.1684 24.427 41.4599 25.4373 39.9358C26.4633 38.4118 27.8761 37.2567 29.6756 36.4706C28.1444 35.7005 26.9368 34.6337 26.0529 33.2701C25.1689 31.9064 24.7269 30.3583 24.7269 28.6257C24.7269 25.6738 25.6582 23.3316 27.5209 21.5989C29.3835 19.8663 31.8381 19 34.8847 19C37.9154 19 40.3621 19.8663 42.2248 21.5989C44.1032 23.3316 45.0424 25.6738 45.0424 28.6257ZM41.4671 44.9652C41.4671 43.008 40.8515 41.4118 39.6202 40.1765C38.4048 38.9412 36.8105 38.3235 34.8373 38.3235C32.8642 38.3235 31.2778 38.9332 30.0781 40.1524C28.8942 41.3717 28.3023 42.9759 28.3023 44.9652C28.3023 46.9545 28.8784 48.5187 30.0307 49.6578C31.1988 50.7968 32.8168 51.3663 34.8847 51.3663C36.9367 51.3663 38.5468 50.7968 39.7149 49.6578C40.883 48.5027 41.4671 46.9385 41.4671 44.9652ZM34.8847 22.6578C33.1641 22.6578 31.7671 23.2032 30.6937 24.2941C29.6361 25.369 29.1073 26.8369 29.1073 28.6979C29.1073 30.4786 29.6282 31.9225 30.67 33.0294C31.7276 34.1203 33.1325 34.6658 34.8847 34.6658C36.6368 34.6658 38.0338 34.1203 39.0756 33.0294C40.1332 31.9225 40.662 30.4786 40.662 28.6979C40.662 26.9171 40.1175 25.4652 39.0283 24.3422C37.9391 23.2193 36.5579 22.6578 34.8847 22.6578Z" fill="url(#paint6_linear)"/>
</g>
<defs>
<filter id="filter0_d" x="22.9219" y="19" width="22.9256" height="37" filterUnits="userSpaceOnUse" color-interpolation-filters="sRGB">
<feFlood flood-opacity="0" result="BackgroundImageFix"/>
<feColorMatrix in="SourceAlpha" type="matrix" values="0 0 0 0 0 0 0 0 0 0 0 0 0 0 0 0 0 0 127 0"/>
<feOffset dx="-1" dy="1"/>
<feColorMatrix type="matrix" values="0 0 0 0 0.8125 0 0 0 0 0.636458 0 0 0 0 0.284375 0 0 0 1 0"/>
<feBlend mode="normal" in2="BackgroundImageFix" result="effect1_dropShadow"/>
<feBlend mode="normal" in="SourceGraphic" in2="effect1_dropShadow" result="shape"/>
</filter>
<linearGradient id="paint0_linear" x1="68.9849" y1="18.0952" x2="0.4536" y2="52.4339" gradientUnits="userSpaceOnUse">
<stop stop-color="#F1D6AB"/>
<stop offset="0.17" stop-color="#F0D3A4"/>
<stop offset="0.42" stop-color="#EDCC91"/>
<stop offset="0.7" stop-color="#E9C072"/>
<stop offset="1" stop-color="#E3B04B"/>
</linearGradient>
<linearGradient id="paint1_linear" x1="0.981657" y1="35.4357" x2="68.6375" y2="35.4357" gradientUnits="userSpaceOnUse">
<stop offset="0.49" stop-color="#F1D6AB"/>
<stop offset="0.54" stop-color="#F0D3A4"/>
<stop offset="0.63" stop-color="#EDCC91"/>
<stop offset="0.73" stop-color="#E9C072"/>
<stop offset="0.83" stop-color="#E3B04B"/>
</linearGradient>
<linearGradient id="paint2_linear" x1="25296.3" y1="33728.5" x2="28703.5" y2="30546.1" gradientUnits="userSpaceOnUse">
<stop stop-color="#F1D6AB"/>
<stop offset="0.17" stop-color="#F0D3A4"/>
<stop offset="0.42" stop-color="#EDCC91"/>
<stop offset="0.7" stop-color="#E9C072"/>
<stop offset="1" stop-color="#E3B04B"/>
</linearGradient>
<linearGradient id="paint3_linear" x1="50.6922" y1="16.1872" x2="26.654" y2="60.4657" gradientUnits="userSpaceOnUse">
<stop stop-color="#F1D6AB"/>
<stop offset="1" stop-color="#E3B04B"/>
</linearGradient>
<linearGradient id="paint4_linear" x1="5.20106" y1="73.5079" x2="60.4439" y2="3.40487" gradientUnits="userSpaceOnUse">
<stop stop-color="#F1D6AB"/>
<stop offset="0.34" stop-color="#F1D6AB"/>
<stop offset="0.41" stop-color="#EECF98"/>
<stop offset="0.56" stop-color="#E9C177"/>
<stop offset="0.7" stop-color="#E6B85F"/>
<stop offset="0.83" stop-color="#E4B250"/>
<stop offset="0.94" stop-color="#E3B04B"/>
</linearGradient>
<linearGradient id="paint5_linear" x1="-12.4339" y1="-16.6196" x2="80.9433" y2="70.1852" gradientUnits="userSpaceOnUse">
<stop stop-color="#F1D6AB" stop-opacity="0.24"/>
</linearGradient>
<linearGradient id="paint6_linear" x1="43.8542" y1="19.6207" x2="27.8551" y2="50.4151" gradientUnits="userSpaceOnUse">
<stop stop-color="#E3B04B"/>
<stop offset="0.19" stop-color="#E3B04B"/>
<stop offset="1" stop-color="#F1D6AB"/>
</linearGradient>
</defs>
</svg>
