<svg width="69" height="71" viewBox="0 0 69 71" fill="none" xmlns="http://www.w3.org/2000/svg">
<path d="M34.1743 70.2515C53.0474 70.2515 68.3729 54.6141 68.4048 35.3245C68.4366 16.0348 53.1629 0.397461 34.2898 0.397461C15.4168 0.397461 0.0913319 16.0348 0.0594375 35.3245C0.027543 54.6141 15.3013 70.2515 34.1743 70.2515Z" fill="url(#paint0_linear)"/>
<path d="M34.0053 69.3381C33.7412 69.3381 33.4799 69.3381 33.2158 69.3207L33.3862 63.3564H34.0564L34.0053 69.3381ZM35.127 69.3381L34.9736 63.3709C35.1951 63.3709 35.4138 63.3709 35.6324 63.3477L35.9164 69.3062C35.6523 69.3091 35.3939 69.3178 35.127 69.3265V69.3381ZM32.1027 69.2801C31.8358 69.2655 31.566 69.2423 31.299 69.2191L31.813 63.2751C32.0288 63.2954 32.2447 63.3099 32.4633 63.3244L32.1027 69.2801ZM37.0353 69.2307L36.5582 63.2838L37.2056 63.2199L37.8389 69.1523C37.572 69.1697 37.305 69.2075 37.0353 69.2075V69.2307ZM30.1916 69.1C29.9275 69.0681 29.6634 69.0332 29.3993 68.9926L30.2512 63.0863C30.467 63.1212 30.6857 63.1502 30.9043 63.1763L30.1916 69.1ZM38.9436 69.01L38.1229 63.1037C38.3415 63.0718 38.5574 63.0369 38.7732 62.9992L39.733 68.8851C39.4717 68.9171 39.2077 68.9606 38.9436 68.9984V69.01ZM28.3003 68.8096L27.5137 68.6557L28.6808 62.8076L29.3254 62.9353L28.3003 68.8096ZM40.8291 68.679L39.6932 62.8279C39.9062 62.7843 40.1192 62.7379 40.3293 62.6885L41.6271 68.496C41.3573 68.557 41.0932 68.6267 40.8291 68.6674V68.679ZM26.4261 68.406C26.1648 68.3421 25.9007 68.2753 25.6423 68.2028L27.1502 62.4388L27.7778 62.6014L26.4261 68.406ZM42.7033 68.2376L41.2153 62.4649C41.4312 62.4068 41.6441 62.3487 41.8571 62.2849L43.4701 68.0198L42.7033 68.2376ZM24.5774 67.8804C24.319 67.7991 24.0634 67.7178 23.8107 67.6307L25.6452 61.9655C25.8525 62.0381 26.0598 62.1048 26.2671 62.1687L24.5774 67.8804ZM44.5492 67.6714L42.7431 61.9974C42.9561 61.9277 43.1634 61.8551 43.3735 61.7796L45.3045 67.41C45.0461 67.5 44.7934 67.5872 44.5406 67.6714H44.5492ZM22.7572 67.2532C22.5073 67.1603 22.2602 67.0645 22.0132 66.9629L24.1543 61.4108C24.3588 61.4921 24.5661 61.5734 24.7762 61.6518L22.7572 67.2532ZM46.3609 67.0093L44.2339 61.4515C44.4384 61.3702 44.6429 61.286 44.8445 61.1989L47.1163 66.716C46.8522 66.806 46.6023 66.9077 46.3524 67.0093H46.3609ZM20.9795 66.5273L20.2526 66.1933L22.7032 60.7865L23.3024 61.0624L20.9795 66.5273ZM48.13 66.2369L45.6936 60.8156C45.8923 60.7226 46.0911 60.6239 46.2871 60.5252L48.8428 65.8856C48.6071 66.0133 48.3657 66.1266 48.1215 66.2398L48.13 66.2369ZM19.2359 65.6939C19.0002 65.5719 18.7674 65.4471 18.5345 65.3193L21.2947 60.0606C21.4878 60.168 21.6838 60.2697 21.8797 60.3742L19.2359 65.6939ZM49.8509 65.3658L47.1049 60.1012C47.298 59.9938 47.4911 59.8864 47.6728 59.776L50.5466 64.9709C50.3166 65.1044 50.0809 65.238 49.8509 65.3658ZM17.5605 64.7647C17.3305 64.6282 17.1005 64.4743 16.8733 64.3436L19.926 59.2591C20.1106 59.3753 20.298 59.4885 20.4939 59.6018L17.5605 64.7647ZM51.5121 64.393L48.4765 59.2998L49.0444 58.9426L52.2022 63.9603C51.9665 64.1084 51.7421 64.2507 51.5121 64.393ZM15.9333 63.7339C15.7118 63.5858 15.4903 63.4435 15.2717 63.2751L18.614 58.3764C18.7929 58.5042 18.9718 58.629 19.1564 58.751L15.9333 63.7339ZM53.1336 63.3273L49.8168 58.4171C49.9986 58.2893 50.1775 58.1586 50.3564 58.025L53.7839 62.854C53.5567 63.0166 53.3409 63.1734 53.1223 63.3273H53.1336ZM14.3545 62.6072C14.1443 62.4446 13.9313 62.282 13.724 62.1136L17.322 57.4182C17.498 57.5575 17.6712 57.7085 17.8501 57.8276L14.3545 62.6072ZM54.6784 62.1658L51.0862 57.4617L51.6087 57.0349L55.3003 61.6606C55.0817 61.8319 54.8772 61.9974 54.6784 62.1658ZM12.8636 61.3963C12.662 61.2221 12.4604 61.045 12.2616 60.8649L16.1151 56.3815C16.2798 56.5325 16.4473 56.6719 16.6149 56.8229L12.8636 61.3963ZM56.1437 60.9172L52.3016 56.4309C52.4663 56.2828 52.631 56.1405 52.7928 55.9779L56.7372 60.38C56.5413 60.56 56.3425 60.7401 56.1437 60.9172ZM11.4409 60.0983C11.245 59.9125 11.0547 59.7237 10.873 59.5176L14.9565 55.2694L15.4279 55.734L11.4409 60.0983ZM57.5494 59.5844L53.4573 55.3303C53.6164 55.1706 53.7725 55.0109 53.9259 54.8483L58.1116 59.0065C57.9271 59.2011 57.7396 59.3927 57.5494 59.5844ZM10.0722 58.7132C9.89327 58.5187 9.71437 58.3212 9.5383 58.1325L13.8632 54.1079L14.3175 54.6102L10.0722 58.7132ZM58.8755 58.1731L54.5563 54.1601C54.704 53.9946 54.8403 53.8291 54.9908 53.6607L59.4066 57.5604C59.222 57.7666 59.0544 57.9728 58.8755 58.1731ZM8.7943 57.2468C8.62392 57.0407 8.45637 56.8316 8.29166 56.6225L12.8352 52.8825L13.2612 53.4109L8.7943 57.2468ZM60.1222 56.6864L55.5786 52.9376C55.7178 52.7634 55.8626 52.5863 55.9847 52.4092L60.6163 56.0418C60.4544 56.2595 60.2897 56.4744 60.1222 56.6864ZM7.60162 55.7165C7.44259 55.4988 7.28641 55.2781 7.13306 55.0574L11.8839 51.5961C12.0145 51.779 12.1423 51.9591 12.2758 52.142L7.60162 55.7165ZM61.2722 55.1358L56.5242 51.6513L56.9048 51.0937L61.7323 54.4621C61.5903 54.6886 61.4398 54.9064 61.2864 55.1242L61.2722 55.1358ZM6.4998 54.1079C6.35214 53.8785 6.21583 53.6491 6.06533 53.4168L11.0036 50.2371C11.12 50.4259 11.2365 50.6146 11.3586 50.8005L6.4998 54.1079ZM62.3457 53.5068L57.4188 50.3126C57.5352 50.1239 57.6488 49.9351 57.7624 49.7319L62.7659 52.7983C62.6296 53.0451 62.4962 53.2774 62.3457 53.5068ZM5.47751 52.4498C5.3412 52.2146 5.21058 51.9765 5.08279 51.7384L10.1943 48.8549C10.3022 49.0524 10.4101 49.2498 10.5208 49.4357L5.47751 52.4498ZM63.3254 51.8255L58.2139 48.9217C58.3218 48.7272 58.424 48.5297 58.5262 48.341L63.6974 51.1083C63.5866 51.3464 63.4617 51.5874 63.331 51.8255H63.3254ZM4.54324 50.725C4.42398 50.4839 4.3047 50.24 4.19111 49.9961L9.45027 47.4118C9.54682 47.6179 9.64337 47.8183 9.73425 48.0215L4.54324 50.725ZM64.1773 50.0919L58.9266 47.4931C59.0204 47.2956 59.1112 47.0924 59.2106 46.892L64.5294 49.3486C64.4385 49.5983 64.3335 49.8451 64.2085 50.0919H64.1773ZM3.7112 48.9537C3.60329 48.7039 3.50107 48.4513 3.39884 48.1987L8.7943 45.9337C8.87949 46.1428 8.96467 46.349 9.05271 46.5551L3.7112 48.9537ZM64.9923 48.3003L59.5968 46.0238C59.6792 45.8147 59.7615 45.6056 59.841 45.3936L65.2848 47.5482C65.1854 47.8009 65.0945 48.0535 64.9923 48.3003ZM3.01831 47.1185C2.92744 46.8629 2.83942 46.6074 2.75138 46.3519L8.27463 44.418C8.34562 44.6329 8.41945 44.8448 8.49612 45.0597L3.01831 47.1185ZM65.671 46.4709L60.1591 44.5254C60.2329 44.3163 60.3011 44.1044 60.3692 43.8895L65.9265 45.6869C65.8442 45.957 65.7533 46.2154 65.671 46.4738V46.4709ZM2.40494 45.2543C2.32827 44.9958 2.25443 44.7374 2.18344 44.4761L7.80323 42.8703C7.86287 43.088 7.92534 43.3058 7.98781 43.5207L2.40494 45.2543ZM66.2474 44.598L60.6418 42.9748C60.7015 42.7599 60.7583 42.5421 60.815 42.3273L66.4661 43.8111C66.3923 44.0753 66.3213 44.3396 66.2474 44.6009V44.598ZM1.9023 43.3639C1.83699 43.0997 1.7802 42.8354 1.72057 42.5654L7.42271 41.2906C7.47099 41.5113 7.51926 41.7291 7.57037 41.9469L1.9023 43.3639ZM66.716 42.6931L61.0195 41.3951C61.0678 41.1803 61.1104 40.9625 61.153 40.7447L66.8892 41.8946C66.8296 42.1646 66.7756 42.4347 66.716 42.7047V42.6931ZM1.5019 41.4416C1.45363 41.1716 1.40819 40.9044 1.36844 40.6343L7.13306 39.708C7.16714 39.9287 7.20405 40.1523 7.24381 40.3701L1.5019 41.4416ZM67.0766 40.7592L61.3148 39.8126L61.4142 39.1389L67.1959 39.9578C67.1599 40.2365 67.1202 40.5076 67.0766 40.7708V40.7592ZM1.21226 39.499C1.18102 39.2318 1.14978 38.9647 1.12422 38.6946L6.93144 38.1139L7.00527 38.7905L1.21226 39.499ZM67.3265 38.8224L61.5221 38.2068C61.5448 37.9861 61.5647 37.7654 61.5818 37.5448L67.4003 37.9977C67.3805 38.2852 67.3549 38.5582 67.3265 38.834V38.8224ZM1.03335 37.5593C1.01631 37.2863 1.00212 37.0134 0.990758 36.7375L6.82354 36.4936C6.82354 36.7143 6.84341 36.9379 6.85761 37.1585L1.03335 37.5593ZM67.4827 36.8624L61.6528 36.5981L61.6755 35.9157L67.5111 36.0551C67.4884 36.3368 67.4799 36.6039 67.4571 36.874L67.4827 36.8624ZM0.976562 35.5934V34.7978L6.81217 34.8791V35.5586L0.976562 35.5934ZM61.6812 34.9778C61.6812 34.7513 61.6812 34.5277 61.6641 34.3041L67.4969 34.0922C67.4969 34.3651 67.4969 34.6352 67.5168 34.9081L61.6812 34.9778ZM6.84341 33.9325L1.01631 33.6421C1.01631 33.372 1.04471 33.102 1.06175 32.8348L6.88317 33.2559L6.84341 33.9325ZM61.6158 33.3517C61.6026 33.131 61.5856 32.9103 61.5647 32.6896L67.3748 32.1263C67.4004 32.3993 67.4202 32.6751 67.4401 32.951L61.6158 33.3517ZM6.95132 32.3296L1.14694 31.7024C1.17534 31.4294 1.20658 31.1593 1.24065 30.8893L7.028 31.6617C6.9996 31.8795 6.9712 32.1031 6.95132 32.3296ZM61.4511 31.7662L61.3603 31.0926L67.1306 30.2214C67.1703 30.4857 67.2072 30.7528 67.2385 31.0229L61.4511 31.7662ZM7.16146 30.7325L1.40252 29.7568C1.44796 29.4868 1.49339 29.2225 1.54166 28.9583L7.27788 30.0646L7.16146 30.7325ZM61.2069 30.1517C61.1672 29.9349 61.1246 29.7171 61.0791 29.4984L66.787 28.2585C66.8438 28.5285 66.8949 28.7957 66.946 29.0686L61.2069 30.1517ZM7.46531 29.1354L1.76884 27.8432C1.82563 27.5732 1.88811 27.3032 1.95626 27.036L7.61298 28.4879C7.56186 28.7028 7.51358 28.9176 7.46531 29.1354ZM60.8747 28.5924C60.8236 28.3746 60.7696 28.1598 60.71 27.9449L66.3383 26.3652C66.4093 26.6295 66.4746 26.8937 66.5399 27.1609L60.8747 28.5924ZM7.85435 27.579L2.24307 25.9413C2.31691 25.677 2.39358 25.4157 2.47593 25.1544L8.04177 26.9431C7.97645 27.1463 7.91398 27.3612 7.85435 27.5761V27.579ZM60.4516 27.0331C60.3863 26.8182 60.3209 26.6062 60.2499 26.3943L65.7817 24.4894C65.8669 24.7507 65.9492 25.0121 66.0288 25.2734L60.4516 27.0331ZM8.33142 26.04L2.82521 24.0654C2.91324 23.8099 3.00411 23.5544 3.10918 23.3018L8.56996 25.4041C8.48193 25.6131 8.40526 25.8251 8.33142 26.0371V26.04ZM59.9404 25.4999C59.8638 25.2879 59.7842 25.0789 59.7019 24.8698L65.1201 22.6484C65.2166 22.901 65.316 23.1566 65.404 23.4121L59.9404 25.4999ZM8.89937 24.5271L3.50391 22.2448C3.6033 21.9921 3.7112 21.7395 3.81911 21.4898L9.15778 23.9086C9.06975 24.1177 8.98172 24.321 8.89937 24.5242V24.5271ZM59.3441 23.9987C59.256 23.7954 59.1652 23.5921 59.0601 23.3918L64.3363 20.8423C64.4527 21.0891 64.5635 21.3417 64.6714 21.5914L59.3441 23.9987ZM9.54398 23.0665L4.29618 20.4532C4.41545 20.2092 4.53188 19.9653 4.65399 19.7243L9.83931 22.4568C9.73992 22.6629 9.64053 22.8633 9.54398 23.0636V23.0665ZM58.6711 22.541C58.5717 22.3377 58.4666 22.1373 58.3615 21.937L63.4815 19.0942C63.6065 19.3323 63.7314 19.5704 63.8535 19.8114L58.6711 22.541ZM10.2852 21.635L5.1907 18.7312C5.31849 18.4931 5.45195 18.2579 5.58826 18.0256L10.6117 21.06C10.4924 21.243 10.3789 21.4375 10.2766 21.6321L10.2852 21.635ZM57.9072 21.1181C57.7974 20.9245 57.6838 20.7309 57.5664 20.5374L62.5246 17.3897C62.6665 17.622 62.8085 17.8572 62.942 18.0924L57.9072 21.1181ZM11.0973 20.247L6.1704 17.0528C6.31238 16.8205 6.45437 16.5911 6.61339 16.3617L11.4409 19.6953C11.3216 19.8724 11.2052 20.0582 11.0888 20.2441L11.0973 20.247ZM57.0695 19.7504L56.6889 19.1871L61.4625 15.7781C61.613 15.9988 61.7635 16.2195 61.9083 16.443L57.0695 19.7504ZM11.989 18.9083L7.24097 15.4383C7.39716 15.2118 7.55902 14.9883 7.72372 14.7676L12.3667 18.3915C12.2332 18.5512 12.1054 18.7283 11.9805 18.9054L11.989 18.9083ZM56.1522 18.435C56.0216 18.255 55.8853 18.075 55.7462 17.8978L60.3181 14.1868C60.4828 14.3988 60.6447 14.6137 60.8065 14.8314L56.1522 18.435ZM12.9346 17.6365L8.40809 13.8616C8.57564 13.6525 8.74602 13.4434 8.91641 13.2373L13.3577 17.1109C13.2186 17.288 13.0709 17.4623 12.9346 17.6365ZM55.1555 17.1661C55.0135 16.9948 54.8715 16.8234 54.721 16.655L59.08 12.6885C59.256 12.8917 59.4293 13.095 59.6025 13.3012L55.1555 17.1661ZM13.9796 16.4082L9.66893 12.3865C9.84783 12.1832 10.0296 11.9858 10.2142 11.7883L14.4255 15.9175C14.2607 16.0685 14.1131 16.2427 13.9654 16.4082H13.9796ZM54.1076 15.961C53.9571 15.8013 53.8066 15.6416 53.6533 15.4848L57.7709 11.2569C57.9602 11.4505 58.1495 11.6441 58.3388 11.8377L54.1076 15.961ZM15.0814 15.2438L10.9979 10.9811C11.1882 10.7865 11.3841 10.5978 11.5829 10.4003L15.5585 14.7734C15.3768 14.936 15.2206 15.087 15.0672 15.2438H15.0814ZM52.9746 14.8256C52.8127 14.6717 52.6537 14.5207 52.489 14.3727L56.3681 9.91537C56.5668 10.0954 56.7656 10.2812 56.9615 10.4671L52.9746 14.8256ZM16.223 14.152L12.3979 9.64532C12.5967 9.46819 12.7983 9.29396 13.0028 9.11974L16.7285 13.7135C16.5581 13.8587 16.3877 14.0039 16.223 14.152ZM51.7876 13.7454L51.2765 13.3186L54.9028 8.64351C55.1129 8.81484 55.3174 8.98326 55.5218 9.15749L51.7876 13.7454ZM17.4526 13.1095L13.8717 8.40831C14.0818 8.24279 14.2948 8.07728 14.5106 7.91467L17.9779 12.7146L17.4526 13.1095ZM50.5438 12.7436C50.3677 12.613 50.1917 12.4823 50.0128 12.3545L53.3693 7.4704C53.587 7.6272 53.8028 7.7869 54.0168 7.94952L50.5438 12.7436ZM18.739 12.1629L15.4364 7.24389C15.655 7.08999 15.8794 6.9361 16.1037 6.78801L19.2842 11.7912L18.739 12.1629ZM49.2659 11.8319L48.698 11.466L51.7819 6.3989C52.0062 6.54119 52.2278 6.68928 52.4493 6.83447L49.2659 11.8319ZM20.0651 11.2889L17.0408 6.19564C17.268 6.05626 17.4952 5.90526 17.7252 5.7833L20.6246 10.9607L20.0651 11.2889ZM47.9142 10.9811C47.724 10.8707 47.5337 10.7604 47.3463 10.6529L50.1406 5.42614C50.3734 5.5539 50.6034 5.68748 50.8335 5.82395L47.9142 10.9811ZM21.4481 10.4874L18.7163 5.21416C18.9548 5.08639 19.1933 4.96153 19.4347 4.83957L22.0302 10.1825C21.8229 10.2871 21.6298 10.3887 21.4367 10.4932L21.4481 10.4874ZM46.5313 10.2203C46.3353 10.1186 46.1366 10.0199 45.9378 9.92988L48.431 4.53468C48.6696 4.64793 48.9081 4.76698 49.1438 4.88894L46.5313 10.2203ZM22.8736 9.77889L20.4428 4.35465L21.1783 4.02071L23.4756 9.50593L22.8736 9.77889ZM45.1086 9.54659C44.9041 9.45657 44.7025 9.36946 44.4981 9.28525L46.6789 3.75066L47.4088 4.06136L45.1086 9.54659ZM24.2935 9.15458L22.2119 3.58224C22.459 3.48351 22.7061 3.39059 22.956 3.29187L24.9438 8.90776L24.2935 9.15458ZM43.6035 8.94551L42.9845 8.72482L44.8502 3.07118L45.6084 3.34123L43.6035 8.94551ZM25.7872 8.61158L24.0095 2.92889C24.2594 2.84759 24.5121 2.76628 24.7677 2.69078L26.4261 8.41121C26.2245 8.4751 26.0143 8.54188 25.8042 8.61158H25.7872ZM42.1042 8.44025C41.8969 8.37347 41.6867 8.31248 41.4737 8.25441L43.0356 2.49913C43.294 2.56882 43.5496 2.64723 43.8052 2.72273L42.1042 8.44025ZM27.3007 8.14988L25.8468 2.36847C26.1024 2.30168 26.3579 2.2378 26.6164 2.17682L27.9482 7.98436C27.7466 8.04824 27.5336 8.10341 27.3178 8.16149L27.3007 8.14988ZM40.5792 8.00759L39.946 7.8624L41.1443 2.02292C41.4084 2.08099 41.6725 2.13907 41.9338 2.20295L40.5792 8.00759ZM28.854 7.78691L27.7182 1.9358C27.9823 1.88063 28.2492 1.83127 28.5161 1.7819L29.5043 7.66494C29.2942 7.71431 29.0812 7.75496 28.8711 7.79851L28.854 7.78691ZM39.0401 7.68237L38.3813 7.57202L39.2701 1.67446C39.5314 1.71512 39.7898 1.75868 40.051 1.80514L39.0401 7.68237ZM30.4074 7.51975L29.6009 1.61058C29.865 1.57283 30.1262 1.53799 30.3932 1.50605L31.0605 7.43554C30.8589 7.47039 30.6402 7.49943 30.4244 7.53137L30.4074 7.51975ZM37.4726 7.44716C37.2539 7.42103 37.0353 7.39489 36.8166 7.37457L37.3618 1.43345C37.6288 1.45959 37.8929 1.48862 38.157 1.52056L37.4726 7.44716ZM31.9976 7.35714L31.5177 1.41022C31.7875 1.38699 32.0544 1.36667 32.3242 1.35215L32.6479 7.31068L31.9976 7.35714ZM35.9193 7.31649L35.2604 7.28455L35.4649 1.3202C35.729 1.3202 35.9959 1.34344 36.2629 1.36086L35.9193 7.31649ZM33.5737 7.27293L33.4345 1.30859C33.7014 1.30859 33.9655 1.30859 34.2325 1.30859L34.3432 7.27875H34.1757L33.5737 7.27293Z" fill="url(#paint1_linear)"/>
<path d="M34.2358 8.44824C29.0388 8.44767 23.9583 10.023 19.6369 12.975C15.3155 15.927 11.9472 20.1231 9.95799 25.0326C7.96879 29.9421 7.44804 35.3445 8.46158 40.5567C9.47512 45.7689 11.9774 50.5566 15.6521 54.3145C19.3267 58.0725 24.0086 60.6317 29.1057 61.6687C34.2028 62.7056 39.4862 62.1737 44.2876 60.1402C49.0891 58.1067 53.193 54.6629 56.0804 50.2443C58.9677 45.8258 60.5089 40.6309 60.5089 35.3167C60.5089 28.1912 57.7409 21.3576 52.8138 16.3189C47.8867 11.2801 41.2041 8.44901 34.2358 8.44824Z" fill="url(#paint2_linear)"/>
<path d="M59.4422 35.3181C59.4776 38.726 58.8517 42.1072 57.6009 45.2661C56.35 48.425 54.4989 51.299 52.1547 53.7216C49.8105 56.1442 47.0198 58.0675 43.944 59.38C40.8682 60.6926 37.5684 61.3684 34.2355 61.3684C30.9026 61.3684 27.6028 60.6926 24.527 59.38C21.4512 58.0675 18.6605 56.1442 16.3163 53.7216C13.9721 51.299 12.121 48.425 10.8701 45.2661C9.61925 42.1072 8.99339 38.726 9.02876 35.3181C9.03168 34.0404 9.12182 32.7645 9.29853 31.4996C10.1931 25.39 13.2032 19.8119 17.7811 15.7807C22.359 11.7494 28.2002 9.53291 34.2416 9.53467C40.2831 9.53643 46.1231 11.7563 50.6987 15.7902C55.2743 19.8242 58.2813 25.404 59.1725 31.5141C59.3487 32.7742 59.4388 34.0452 59.4422 35.3181Z" fill="url(#paint3_linear)"/>
<path style="mix-blend-mode:color-burn" opacity="0.15" d="M59.171 31.512C58.4764 26.7084 56.4678 22.2034 53.3772 18.5167C50.2865 14.83 46.2395 12.1118 41.7032 10.6756C37.1668 9.23951 32.3258 9.14393 27.7386 10.3999C23.1514 11.656 19.0049 14.2124 15.7773 17.7743C19.1211 14.5304 23.2716 12.2873 27.7763 11.2896C32.281 10.2919 36.9672 10.5779 41.3239 12.1163C45.6806 13.6547 49.5408 16.3866 52.4835 20.0141C55.4263 23.6416 57.3388 28.0255 58.0124 32.688C58.1947 33.9466 58.2896 35.2168 58.2964 36.4891C58.2972 43.0393 55.8488 49.3419 51.4527 54.1062C53.974 51.7024 55.9844 48.7937 57.3587 45.561C58.733 42.3283 59.4417 38.8409 59.4408 35.316C59.4374 34.0431 59.3473 32.7721 59.171 31.512Z" fill="url(#paint4_linear)"/>
<path style="mix-blend-mode:screen" opacity="0.45" d="M59.1687 31.5142C53.103 36.9414 44.1721 40.3621 34.2331 40.3621C24.2941 40.3621 15.3547 36.9414 9.28906 31.4997C10.1836 25.3901 13.1938 19.812 17.7716 15.7807C22.3495 11.7494 28.1907 9.53291 34.2321 9.53467C40.2736 9.53643 46.1136 11.7563 50.6892 15.7903C55.2648 19.8242 58.2718 25.4041 59.163 31.5142H59.1687Z" fill="url(#paint5_linear)"/>
<g filter="url(#filter0_d)">
<path d="M41.0952 39.772C40.0608 41.0801 38.8213 42.1322 37.3767 42.9284C35.9499 43.7246 34.3805 44.1227 32.6684 44.1227C30.4212 44.1227 28.4594 43.5351 26.783 42.3597C25.1244 41.1843 23.8403 39.5351 22.9307 37.4118C22.0212 35.2697 21.5664 32.9095 21.5664 30.3313C21.5664 27.5635 22.0569 25.0706 23.0378 22.8526C24.0365 20.6346 25.4454 18.9379 27.2645 17.7625C29.0836 16.5872 31.2059 15.9995 33.6314 15.9995C37.4837 15.9995 40.5156 17.5351 42.727 20.6061C44.9563 23.6583 46.071 27.8289 46.071 33.118V34.6535C46.071 42.7104 44.5729 48.5967 41.5767 52.3123C38.5805 56.009 34.0595 57.9047 28.0136 57.9995H27.0505V53.5635H28.0938C32.1779 53.4877 35.3168 52.3597 37.5104 50.1796C39.7041 47.9806 40.899 44.5114 41.0952 39.772ZM33.4709 39.772C35.1295 39.772 36.6544 39.2317 38.0455 38.1512C39.4544 37.0706 40.4799 35.7341 41.1219 34.1417V32.0374C41.1219 28.5872 40.4175 25.7815 39.0085 23.6204C37.5996 21.4592 35.8162 20.3787 33.6582 20.3787C31.4824 20.3787 29.7346 21.2697 28.4149 23.0516C27.0951 24.8147 26.4352 27.1464 26.4352 30.0469C26.4352 32.8715 27.0683 35.2033 28.3346 37.0422C29.6187 38.8621 31.3308 39.772 33.4709 39.772Z" fill="url(#paint6_linear)"/>
</g>
<defs>
<filter id="filter0_d" x="20.5664" y="15.9995" width="25.5046" height="43" filterUnits="userSpaceOnUse" color-interpolation-filters="sRGB">
<feFlood flood-opacity="0" result="BackgroundImageFix"/>
<feColorMatrix in="SourceAlpha" type="matrix" values="0 0 0 0 0 0 0 0 0 0 0 0 0 0 0 0 0 0 127 0"/>
<feOffset dx="-1" dy="1"/>
<feColorMatrix type="matrix" values="0 0 0 0 0.8125 0 0 0 0 0.636458 0 0 0 0 0.284375 0 0 0 1 0"/>
<feBlend mode="normal" in2="BackgroundImageFix" result="effect1_dropShadow"/>
<feBlend mode="normal" in="SourceGraphic" in2="effect1_dropShadow" result="shape"/>
</filter>
<linearGradient id="paint0_linear" x1="67.8445" y1="17.977" x2="-0.00173071" y2="51.4122" gradientUnits="userSpaceOnUse">
<stop stop-color="#F1D6AB"/>
<stop offset="0.17" stop-color="#F0D3A4"/>
<stop offset="0.42" stop-color="#EDCC91"/>
<stop offset="0.7" stop-color="#E9C072"/>
<stop offset="1" stop-color="#E3B04B"/>
</linearGradient>
<linearGradient id="paint1_linear" x1="0.962364" y1="35.3176" x2="67.5026" y2="35.3176" gradientUnits="userSpaceOnUse">
<stop offset="0.49" stop-color="#F1D6AB"/>
<stop offset="0.54" stop-color="#F0D3A4"/>
<stop offset="0.63" stop-color="#EDCC91"/>
<stop offset="0.73" stop-color="#E9C072"/>
<stop offset="0.83" stop-color="#E3B04B"/>
</linearGradient>
<linearGradient id="paint2_linear" x1="24879.2" y1="33728.4" x2="28282.1" y2="30602.5" gradientUnits="userSpaceOnUse">
<stop stop-color="#F1D6AB"/>
<stop offset="0.17" stop-color="#F0D3A4"/>
<stop offset="0.42" stop-color="#EDCC91"/>
<stop offset="0.7" stop-color="#E9C072"/>
<stop offset="1" stop-color="#E3B04B"/>
</linearGradient>
<linearGradient id="paint3_linear" x1="49.8553" y1="16.069" x2="25.6008" y2="60.0093" gradientUnits="userSpaceOnUse">
<stop stop-color="#F1D6AB"/>
<stop offset="1" stop-color="#E3B04B"/>
</linearGradient>
<linearGradient id="paint4_linear" x1="5.11421" y1="73.3901" x2="60.5648" y2="4.18348" gradientUnits="userSpaceOnUse">
<stop stop-color="#F1D6AB"/>
<stop offset="0.34" stop-color="#F1D6AB"/>
<stop offset="0.41" stop-color="#EECF98"/>
<stop offset="0.56" stop-color="#E9C177"/>
<stop offset="0.7" stop-color="#E6B85F"/>
<stop offset="0.83" stop-color="#E4B250"/>
<stop offset="0.94" stop-color="#E3B04B"/>
</linearGradient>
<linearGradient id="paint5_linear" x1="-12.2331" y1="-16.7379" x2="81.0185" y2="68.5203" gradientUnits="userSpaceOnUse">
<stop stop-color="#F1D6AB" stop-opacity="0.24"/>
</linearGradient>
<linearGradient id="paint6_linear" x1="43.8433" y1="16.7236" x2="24.7231" y2="51.9784" gradientUnits="userSpaceOnUse">
<stop stop-color="#E3B04B"/>
<stop offset="0.19" stop-color="#E3B04B"/>
<stop offset="1" stop-color="#F1D6AB"/>
</linearGradient>
</defs>
</svg>
