<svg width="70" height="71" viewBox="0 0 70 71" fill="none" xmlns="http://www.w3.org/2000/svg">
<path d="M34.7498 70.1342C53.9393 70.1342 69.5219 54.4968 69.5544 35.2072C69.587 15.9176 54.0572 0.280273 34.8677 0.280273C15.6782 0.280273 0.0956862 15.9176 0.0631397 35.2072C0.0305933 54.4968 15.5604 70.1342 34.7498 70.1342Z" fill="url(#paint0_linear)"/>
<path d="M34.5786 69.2207C34.3101 69.2207 34.0444 69.2207 33.7759 69.2033L33.9492 63.2389H34.6306L34.5786 69.2207ZM35.7191 69.2207L35.5632 63.2535C35.7884 63.2535 36.0107 63.2535 36.233 63.2302L36.5218 69.1888C36.2533 69.1917 35.9905 69.2004 35.7191 69.2091V69.2207ZM32.6441 69.1626C32.3727 69.1481 32.0984 69.1249 31.827 69.1016L32.3496 63.1576C32.569 63.178 32.7885 63.1925 33.0108 63.207L32.6441 69.1626ZM37.6594 69.1133L37.1743 63.1664L37.8326 63.1025L38.4765 69.0349C38.2051 69.0523 37.9337 69.09 37.6594 69.09V69.1133ZM30.7009 68.9826C30.4324 68.9507 30.1639 68.9158 29.8954 68.8752L30.7616 62.9689C30.981 63.0037 31.2033 63.0328 31.4257 63.0589L30.7009 68.9826ZM39.5997 68.8926L38.7652 62.9863C38.9876 62.9544 39.207 62.9195 39.4264 62.8818L40.4023 68.7677C40.1367 68.7997 39.8682 68.8432 39.5997 68.881V68.8926ZM28.778 68.6922L27.9782 68.5383L29.1649 62.6902L29.8203 62.8179L28.778 68.6922ZM41.5169 68.5615L40.3619 62.7105C40.5785 62.6669 40.795 62.6204 41.0087 62.5711L42.3282 68.3786C42.0539 68.4396 41.7854 68.5093 41.5169 68.5499V68.5615ZM26.8723 68.2886C26.6067 68.2247 26.3382 68.1579 26.0754 68.0853L27.6086 62.3214L28.2467 62.484L26.8723 68.2886ZM43.4225 68.1202L41.9095 62.3475C42.129 62.2894 42.3455 62.2313 42.5621 62.1675L44.2021 67.9024L43.4225 68.1202ZM24.9927 67.763C24.7299 67.6817 24.4701 67.6004 24.2131 67.5133L26.0783 61.8481C26.2891 61.9206 26.4999 61.9874 26.7106 62.0513L24.9927 67.763ZM45.2993 67.5539L43.4629 61.88C43.6795 61.8103 43.8902 61.7377 44.1039 61.6622L46.0673 67.2926C45.8045 67.3826 45.5476 67.4697 45.2906 67.5539H45.2993ZM23.1419 67.1358C22.8878 67.0429 22.6366 66.9471 22.3854 66.8454L24.5625 61.2934C24.7704 61.3747 24.9811 61.456 25.1948 61.5344L23.1419 67.1358ZM47.1414 66.8919L44.9788 61.3341C45.1866 61.2528 45.3945 61.1686 45.5995 61.0815L47.9094 66.5986C47.6409 66.6886 47.3868 66.7903 47.1327 66.8919H47.1414ZM21.3344 66.4099L20.5953 66.0759L23.087 60.6691L23.6963 60.945L21.3344 66.4099ZM48.9402 66.1195L46.4628 60.6982C46.665 60.6052 46.8671 60.5065 47.0663 60.4078L49.6649 65.7681C49.4253 65.8959 49.1798 66.0091 48.9315 66.1224L48.9402 66.1195ZM19.5616 65.5765C19.322 65.4545 19.0852 65.3297 18.8484 65.2019L21.6549 59.9432C21.8513 60.0506 22.0505 60.1523 22.2497 60.2568L19.5616 65.5765ZM50.6899 65.2484L47.8979 59.9838C48.0942 59.8764 48.2905 59.769 48.4753 59.6586L51.3973 64.8534C51.1634 64.987 50.9238 65.1206 50.6899 65.2484ZM17.8581 64.6473C17.6242 64.5108 17.3903 64.3569 17.1594 64.2262L20.2632 59.1417C20.4509 59.2579 20.6415 59.3711 20.8407 59.4844L17.8581 64.6473ZM52.379 64.2756L49.2924 59.1824L49.8699 58.8252L53.0806 63.8429C52.841 63.991 52.6129 64.1333 52.379 64.2756ZM16.2036 63.6165C15.9784 63.4684 15.7532 63.3261 15.5309 63.1576L18.9293 58.259C19.1112 58.3868 19.2931 58.5116 19.4808 58.6336L16.2036 63.6165ZM54.0277 63.2099L50.6553 58.2997C50.84 58.1719 51.022 58.0412 51.2039 57.9076L54.6888 62.7366C54.4579 62.8992 54.2384 63.056 54.0161 63.2099H54.0277ZM14.5983 62.4898C14.3846 62.3272 14.1681 62.1646 13.9573 61.9961L17.6156 57.3008C17.7946 57.4402 17.9707 57.5911 18.1526 57.7102L14.5983 62.4898ZM55.5984 62.0484L51.9459 57.3443L52.4772 56.9175L56.2307 61.5432C56.0084 61.7145 55.8005 61.88 55.5984 62.0484ZM13.0824 61.2789C12.8774 61.1047 12.6724 60.9276 12.4703 60.7475L16.3884 56.2641C16.5559 56.4151 16.7263 56.5545 16.8966 56.7055L13.0824 61.2789ZM57.0882 60.7998L53.1817 56.3135C53.3491 56.1654 53.5166 56.0231 53.6812 55.8605L57.6917 60.2626C57.4924 60.4426 57.2903 60.6227 57.0882 60.7998ZM11.6359 59.9809C11.4367 59.7951 11.2432 59.6063 11.0584 59.4002L15.2104 55.152L15.6897 55.6166L11.6359 59.9809ZM58.5174 59.467L54.3568 55.213C54.5185 55.0533 54.6773 54.8935 54.8332 54.7309L59.0891 58.8891C58.9015 59.0837 58.7109 59.2753 58.5174 59.467ZM10.2442 58.5958C10.0623 58.4013 9.8804 58.2038 9.70139 58.0151L14.0988 53.9905L14.5608 54.4928L10.2442 58.5958ZM59.8658 58.0557L55.4742 54.0427C55.6243 53.8772 55.7629 53.7117 55.916 53.5433L60.4058 57.4431C60.2181 57.6492 60.0477 57.8554 59.8658 58.0557ZM8.94491 57.1294C8.77167 56.9233 8.60131 56.7142 8.43385 56.5051L13.0536 52.7651L13.4867 53.2936L8.94491 57.1294ZM61.1334 56.569L56.5136 52.8203C56.6551 52.646 56.8024 52.4689 56.9265 52.2918L61.6358 55.9244C61.4712 56.1422 61.3037 56.357 61.1334 56.569ZM7.73223 55.5992C7.57054 55.3814 7.41174 55.1607 7.25582 54.94L12.0863 51.4787C12.2191 51.6617 12.3491 51.8417 12.4848 52.0246L7.73223 55.5992ZM62.3027 55.0184L57.4751 51.5339L57.862 50.9764L62.7705 54.3447C62.6261 54.5712 62.4731 54.789 62.3172 55.0068L62.3027 55.0184ZM6.61194 53.9905C6.4618 53.7611 6.32321 53.5317 6.17018 53.2994L11.1912 50.1198C11.3096 50.3085 11.428 50.4972 11.5522 50.6831L6.61194 53.9905ZM63.3941 53.3894L58.3846 50.1953C58.503 50.0065 58.6185 49.8178 58.734 49.6145L63.8215 52.6809C63.6829 52.9277 63.5472 53.16 63.3941 53.3894ZM5.5725 52.3324C5.43391 52.0972 5.3011 51.8591 5.17117 51.621L10.3684 48.7376C10.4781 48.935 10.5878 49.1325 10.7004 49.3183L5.5725 52.3324ZM64.3903 51.7081L59.1931 48.8044C59.3028 48.6098 59.4067 48.4124 59.5107 48.2236L64.7685 50.9909C64.6559 51.229 64.5289 51.47 64.396 51.7081H64.3903ZM4.62258 50.6076C4.50131 50.3666 4.38004 50.1227 4.26454 49.8788L9.61188 47.2944C9.71005 47.5006 9.80822 47.7009 9.90061 47.9042L4.62258 50.6076ZM65.2565 49.9746L59.9178 47.3757C60.0131 47.1782 60.1055 46.975 60.2065 46.7746L65.6145 49.2312C65.5221 49.4809 65.4153 49.7278 65.2882 49.9746H65.2565ZM3.77658 48.8363C3.66687 48.5866 3.56293 48.334 3.45898 48.0813L8.94491 45.8164C9.03153 46.0255 9.11814 46.2316 9.20765 46.4378L3.77658 48.8363ZM66.0851 48.183L60.5992 45.9064C60.6829 45.6973 60.7667 45.4883 60.8475 45.2763L66.3825 47.4309C66.2815 47.6835 66.1891 47.9361 66.0851 48.183ZM3.07207 47.0011C2.97968 46.7456 2.89018 46.4901 2.80067 46.2345L8.41652 44.3006C8.48871 44.5155 8.56378 44.7275 8.64173 44.9424L3.07207 47.0011ZM66.7752 46.3536L61.1709 44.4081C61.246 44.199 61.3153 43.987 61.3846 43.7721L67.0351 45.5696C66.9513 45.8396 66.8589 46.0981 66.7752 46.3565V46.3536ZM2.44842 45.1369C2.37046 44.8785 2.29539 44.62 2.22321 44.3587L7.93723 42.7529C7.99786 42.9707 8.06138 43.1885 8.1249 43.4034L2.44842 45.1369ZM67.3613 44.4807L61.6618 42.8575C61.7224 42.6426 61.7801 42.4248 61.8379 42.2099L67.5837 43.6937C67.5086 43.958 67.4364 44.2222 67.3613 44.4836V44.4807ZM1.93736 43.2466C1.87095 42.9823 1.81321 42.7181 1.75257 42.448L7.55032 41.1733C7.59941 41.394 7.64849 41.6117 7.70046 41.8295L1.93736 43.2466ZM67.8378 42.5758L62.0458 41.2778C62.0949 41.0629 62.1382 40.8451 62.1815 40.6274L68.0139 41.7773C67.9532 42.0473 67.8984 42.3174 67.8378 42.5874V42.5758ZM1.53024 41.3243C1.48116 41.0542 1.43496 40.7871 1.39454 40.517L7.25582 39.5907C7.29047 39.8114 7.328 40.035 7.36842 40.2528L1.53024 41.3243ZM68.2044 40.6419L62.346 39.6953L62.4471 39.0216L68.3257 39.8405C68.2891 40.1192 68.2487 40.3902 68.2044 40.6535V40.6419ZM1.23574 39.3817C1.20398 39.1145 1.17222 38.8474 1.14623 38.5773L7.05081 37.9966L7.12589 38.6731L1.23574 39.3817ZM68.4585 38.7051L62.5568 38.0895C62.5799 37.8688 62.6001 37.6481 62.6175 37.4274L68.5336 37.8804C68.5134 38.1679 68.4874 38.4408 68.4585 38.7167V38.7051ZM1.05384 37.4419C1.03651 37.169 1.02208 36.896 1.01053 36.6202L6.9411 36.3763C6.9411 36.597 6.96131 36.8205 6.97575 37.0412L1.05384 37.4419ZM68.6173 36.745L62.6896 36.4808L62.7127 35.7984L68.6462 35.9378C68.6231 36.2195 68.6144 36.4866 68.5913 36.7567L68.6173 36.745ZM0.996094 35.4761V34.6805L6.92955 34.7618V35.4413L0.996094 35.4761ZM62.7185 34.8605C62.7185 34.634 62.7185 34.4104 62.7012 34.1868L68.6318 33.9749C68.6318 34.2478 68.6318 34.5179 68.652 34.7908L62.7185 34.8605ZM6.96131 33.8152L1.03651 33.5248C1.03651 33.2547 1.06539 32.9847 1.08271 32.7175L7.00173 33.1386L6.96131 33.8152ZM62.6521 33.2344C62.6386 33.0137 62.6213 32.793 62.6001 32.5723L68.5076 32.009C68.5336 32.282 68.5538 32.5578 68.574 32.8337L62.6521 33.2344ZM7.07103 32.2123L1.16933 31.5851C1.1982 31.3121 1.22997 31.0421 1.26461 30.772L7.14899 31.5444C7.12012 31.7622 7.09124 31.9858 7.07103 32.2123ZM62.4846 31.6489L62.3923 30.9753L68.2593 30.1041C68.2997 30.3684 68.3372 30.6355 68.369 30.9056L62.4846 31.6489ZM7.2847 30.6152L1.42919 29.6395C1.47539 29.3695 1.52158 29.1053 1.57067 28.841L7.40307 29.9473L7.2847 30.6152ZM62.2363 30.0345C62.1959 29.8176 62.1526 29.5999 62.1064 29.3811L67.9099 28.1412C67.9677 28.4112 68.0197 28.6784 68.0716 28.9514L62.2363 30.0345ZM7.59363 29.0181L1.80165 27.726C1.8594 27.4559 1.92292 27.1859 1.99222 26.9187L7.74378 28.3706C7.69181 28.5855 7.64272 28.8004 7.59363 29.0181ZM61.8985 28.4751C61.8465 28.2574 61.7917 28.0425 61.731 27.8276L67.4537 26.2479C67.5259 26.5122 67.5923 26.7764 67.6587 27.0436L61.8985 28.4751ZM7.98919 27.4617L2.28384 25.824C2.35891 25.5598 2.43687 25.2984 2.5206 25.0371L8.17976 26.8258C8.11335 27.0291 8.04983 27.2439 7.98919 27.4588V27.4617ZM61.4683 26.9158C61.4019 26.7009 61.3355 26.489 61.2633 26.277L66.8878 24.3721C66.9744 24.6335 67.0582 24.8948 67.139 25.1561L61.4683 26.9158ZM8.47427 25.9227L2.87574 23.9482C2.96525 23.6926 3.05764 23.4371 3.16447 23.1845L8.71681 25.2868C8.6273 25.4959 8.54934 25.7078 8.47427 25.9198V25.9227ZM60.9486 25.3826C60.8706 25.1707 60.7898 24.9616 60.706 24.7525L66.2151 22.5311C66.3132 22.7838 66.4143 23.0393 66.5038 23.2948L60.9486 25.3826ZM9.05174 24.4099L3.56581 22.1275C3.66687 21.8749 3.77659 21.6223 3.8863 21.3725L9.31449 23.7914C9.22498 24.0004 9.13547 24.2037 9.05174 24.407V24.4099ZM60.3422 23.8814C60.2527 23.6781 60.1603 23.4749 60.0535 23.2745L65.4182 20.725C65.5365 20.9718 65.6492 21.2244 65.7589 21.4742L60.3422 23.8814ZM9.70716 22.9493L4.37137 20.3359C4.49264 20.092 4.61102 19.8481 4.73518 19.607L10.0074 22.3395C9.90639 22.5457 9.80533 22.746 9.70716 22.9464V22.9493ZM59.6579 22.4237C59.5569 22.2204 59.45 22.0201 59.3432 21.8197L64.5491 18.9769C64.6761 19.215 64.8032 19.4532 64.9273 19.6942L59.6579 22.4237ZM10.4608 21.5177L5.28089 18.614C5.41082 18.3759 5.54652 18.1406 5.68511 17.9083L10.7928 20.9428C10.6715 21.1257 10.556 21.3203 10.4521 21.5148L10.4608 21.5177ZM58.8813 21.0009C58.7696 20.8073 58.6541 20.6137 58.5348 20.4201L63.576 17.2724C63.7204 17.5047 63.8648 17.7399 64.0005 17.9751L58.8813 21.0009ZM11.2865 20.1297L6.27701 16.9356C6.42138 16.7033 6.56574 16.4739 6.72743 16.2445L11.6359 19.578C11.5146 19.7551 11.3962 19.941 11.2779 20.1268L11.2865 20.1297ZM58.0295 19.6332L57.6426 19.0699L62.4962 15.6608C62.6492 15.8815 62.8022 16.1022 62.9495 16.3258L58.0295 19.6332ZM12.1932 18.7911L7.36554 15.3211C7.52434 15.0946 7.68892 14.871 7.85638 14.6503L12.5772 18.2742C12.4415 18.4339 12.3115 18.6111 12.1845 18.7882L12.1932 18.7911ZM57.0969 18.3178C56.9641 18.1377 56.8255 17.9577 56.684 17.7806L61.3326 14.0696C61.5001 14.2816 61.6646 14.4964 61.8292 14.7142L57.0969 18.3178ZM13.1546 17.5192L8.55223 13.7444C8.72258 13.5353 8.89582 13.3262 9.06906 13.1201L13.5848 16.9937C13.4434 17.1708 13.2932 17.345 13.1546 17.5192ZM56.0834 17.0488C55.9391 16.8775 55.7947 16.7062 55.6417 16.5378L60.0737 12.5712C60.2527 12.7745 60.4289 12.9778 60.605 13.1839L56.0834 17.0488ZM14.2172 16.291L9.8342 12.2692C10.0161 12.066 10.2009 11.8685 10.3886 11.6711L14.6705 15.8002C14.503 15.9512 14.3529 16.1254 14.2027 16.291H14.2172ZM55.018 15.8438C54.865 15.6841 54.712 15.5244 54.556 15.3676L58.7427 11.1397C58.9352 11.3333 59.1276 11.5269 59.3201 11.7204L55.018 15.8438ZM15.3375 15.1265L11.1855 10.8638C11.3789 10.6693 11.5781 10.4805 11.7803 10.2831L15.8225 14.6561C15.6377 14.8188 15.4789 14.9697 15.323 15.1265H15.3375ZM53.866 14.7084C53.7014 14.5545 53.5397 14.4035 53.3722 14.2554L57.3163 9.79815C57.5184 9.97818 57.7205 10.164 57.9198 10.3499L53.866 14.7084ZM16.4982 14.0347L12.6089 9.5281C12.811 9.35097 13.016 9.17675 13.2239 9.00252L17.0121 13.5963C16.8389 13.7415 16.6656 13.8866 16.4982 14.0347ZM52.6591 13.6282L52.1393 13.2014L55.8265 8.5263C56.0401 8.69762 56.248 8.86604 56.4559 9.04027L52.6591 13.6282ZM17.7484 12.9923L14.1074 8.2911C14.3211 8.12558 14.5377 7.96007 14.7571 7.79746L18.2825 12.5974L17.7484 12.9923ZM51.3944 12.6264C51.2154 12.4957 51.0364 12.3651 50.8545 12.2373L54.2673 7.35319C54.4887 7.50999 54.7081 7.66969 54.9256 7.8323L51.3944 12.6264ZM19.0563 12.0457L15.6984 7.12668C15.9207 6.97278 16.1488 6.81889 16.3769 6.6708L19.6107 11.674L19.0563 12.0457ZM50.0951 11.7146L49.5176 11.3488L52.6533 6.2817C52.8814 6.42398 53.1066 6.57207 53.3318 6.71726L50.0951 11.7146ZM20.4047 11.1716L17.3297 6.07843C17.5607 5.93905 17.7917 5.78805 18.0256 5.66609L20.9735 10.8435L20.4047 11.1716ZM48.7207 10.8638C48.5273 10.7535 48.3338 10.6431 48.1433 10.5357L50.9844 5.30894C51.2212 5.4367 51.4551 5.57027 51.6889 5.70675L48.7207 10.8638ZM21.8108 10.3702L19.0332 5.09696C19.2758 4.96919 19.5183 4.84433 19.7637 4.72237L22.4028 10.0653C22.192 10.1698 21.9956 10.2715 21.7993 10.376L21.8108 10.3702ZM47.3146 10.103C47.1154 10.0014 46.9133 9.90268 46.7112 9.81266L49.2462 4.41748C49.4888 4.53073 49.7313 4.64978 49.971 4.77174L47.3146 10.103ZM23.2603 9.66167L20.7887 4.23745L21.5366 3.90352L23.8724 9.38872L23.2603 9.66167ZM45.8681 9.42937C45.6602 9.33936 45.4552 9.25224 45.2473 9.16804L47.4648 3.63346L48.2068 3.94417L45.8681 9.42937ZM24.7039 9.03736L22.5875 3.46505C22.8387 3.36632 23.0899 3.2734 23.344 3.17467L25.3651 8.79054L24.7039 9.03736ZM44.3378 8.82829L43.7083 8.6076L45.6053 2.95398L46.3762 3.22404L44.3378 8.82829ZM26.2227 8.49436L24.4152 2.8117C24.6693 2.7304 24.9263 2.64909 25.1861 2.57359L26.8723 8.294C26.6673 8.35788 26.4537 8.42467 26.24 8.49436H26.2227ZM42.8133 8.32304C42.6025 8.25625 42.3888 8.19527 42.1723 8.1372L43.7603 2.38194C44.0231 2.45163 44.2829 2.53004 44.5428 2.60554L42.8133 8.32304ZM27.7616 8.03266L26.2833 2.25128C26.5432 2.18449 26.803 2.12061 27.0658 2.05963L28.4199 7.86715C28.2149 7.93103 27.9984 7.9862 27.779 8.04427L27.7616 8.03266ZM41.2628 7.89037L40.6189 7.74519L41.8374 1.90573C42.1059 1.9638 42.3744 2.02188 42.64 2.08576L41.2628 7.89037ZM29.341 7.66969L28.1861 1.81861C28.4546 1.76344 28.726 1.71408 28.9974 1.66471L30.0022 7.54773C29.7885 7.5971 29.572 7.63775 29.3583 7.6813L29.341 7.66969ZM39.6978 7.56516L39.028 7.45481L39.9317 1.55727C40.1973 1.59793 40.4601 1.64149 40.7257 1.68795L39.6978 7.56516ZM30.9204 7.40254L30.1004 1.49339C30.3689 1.45564 30.6345 1.4208 30.9059 1.38886L31.5845 7.31833C31.3795 7.35318 31.1571 7.38222 30.9377 7.41416L30.9204 7.40254ZM38.104 7.32995C37.8817 7.30382 37.6594 7.27768 37.4371 7.25736L37.9914 1.31627C38.2628 1.3424 38.5314 1.37143 38.7999 1.40338L38.104 7.32995ZM32.5373 7.23994L32.0493 1.29303C32.3236 1.2698 32.595 1.24948 32.8693 1.23496L33.1985 7.19347L32.5373 7.23994ZM36.5247 7.19928L35.8548 7.16734L36.0627 1.20301C36.3312 1.20301 36.6026 1.22625 36.874 1.24367L36.5247 7.19928ZM34.1397 7.15572L33.9983 1.19141C34.2697 1.19141 34.5382 1.19141 34.8096 1.19141L34.9222 7.16154H34.7518L34.1397 7.15572Z" fill="url(#paint1_linear)"/>
<path d="M34.814 8.33105C29.5299 8.33048 24.3643 9.90579 19.9704 12.8578C15.5765 15.8098 12.1518 20.0058 10.1292 24.9154C8.10668 29.8249 7.5772 35.2273 8.60774 40.4394C9.63827 45.6516 12.1825 50.4393 15.9188 54.1973C19.655 57.9552 24.4154 60.5144 29.598 61.5514C34.7805 62.5883 40.1525 62.0564 45.0344 60.0229C49.9164 57.9894 54.0891 54.5456 57.0248 50.127C59.9606 45.7085 61.5276 40.5136 61.5276 35.1994C61.5276 28.074 58.7132 21.2404 53.7035 16.2017C48.6939 11.1629 41.8992 8.33182 34.814 8.33105Z" fill="url(#paint2_linear)"/>
<path d="M60.4398 35.2009C60.4758 38.6088 59.8394 41.99 58.5676 45.1489C57.2957 48.3079 55.4136 51.1818 53.0301 53.6044C50.6466 56.027 47.8091 57.9503 44.6818 59.2628C41.5544 60.5754 38.1993 61.2512 34.8105 61.2512C31.4217 61.2512 28.0666 60.5754 24.9392 59.2628C21.8118 57.9503 18.9743 56.027 16.5909 53.6044C14.2074 51.1818 12.3252 48.3079 11.0534 45.1489C9.78152 41.99 9.14516 38.6088 9.18113 35.2009C9.1841 33.9232 9.27574 32.6473 9.45542 31.3824C10.365 25.2728 13.4256 19.6947 18.0802 15.6635C22.7348 11.6322 28.674 9.41572 34.8167 9.41748C40.9594 9.41924 46.8973 11.6391 51.5497 15.6731C56.202 19.707 59.2595 25.2868 60.1655 31.3969C60.3447 32.657 60.4364 33.928 60.4398 35.2009Z" fill="url(#paint3_linear)"/>
<path style="mix-blend-mode:color-burn" opacity="0.15" d="M60.1642 31.3944C59.4579 26.5907 57.4156 22.0857 54.2731 18.399C51.1306 14.7123 47.0159 11.9941 42.4034 10.558C37.791 9.12183 32.8689 9.02626 28.2048 10.2823C23.5407 11.5383 19.3246 14.0947 16.043 17.6567C19.4428 14.4127 23.6628 12.1697 28.2431 11.172C32.8233 10.1742 37.588 10.4602 42.0178 11.9986C46.4476 13.537 50.3724 16.2689 53.3645 19.8964C56.3566 23.5239 58.3012 27.9078 58.9861 32.5704C59.1715 33.8289 59.2679 35.0991 59.2749 36.3714C59.2756 42.9216 56.7862 49.2243 52.3164 53.9885C54.88 51.5848 56.9241 48.676 58.3214 45.4433C59.7188 42.2106 60.4394 38.7232 60.4385 35.1983C60.435 33.9254 60.3433 32.6544 60.1642 31.3944Z" fill="url(#paint4_linear)"/>
<path style="mix-blend-mode:screen" opacity="0.45" d="M60.1652 31.3969C53.9978 36.824 44.9172 40.2446 34.8115 40.2446C24.7059 40.2446 15.6166 36.824 9.44922 31.3824C10.3588 25.2728 13.4194 19.6947 18.074 15.6634C22.7286 11.6322 28.6678 9.41572 34.8105 9.41748C40.9532 9.41924 46.8912 11.6391 51.5435 15.673C56.1958 19.707 59.2533 25.2868 60.1594 31.3969H60.1652Z" fill="url(#paint5_linear)"/>
<g filter="url(#filter0_d)">
<path d="M26.0179 51.5989H22.3362V26.873L14.9531 29.6203V26.2513L25.4438 22.2607H26.0179V51.5989Z" fill="url(#paint6_linear)"/>
<path d="M54.8178 39.1457C54.8178 43.4906 54.0855 46.7193 52.6207 48.8316C51.156 50.9439 48.8665 52 45.7523 52C42.6776 52 40.4014 50.9706 38.9234 48.9118C37.4455 46.8396 36.6801 43.7513 36.6273 39.6471V34.6939C36.6273 30.4024 37.3597 27.2139 38.8244 25.1283C40.2892 23.0428 42.5853 22 45.7127 22C48.8137 22 51.0966 23.0094 52.5613 25.0281C54.0261 27.0334 54.7782 30.135 54.8178 34.3329V39.1457ZM51.156 34.0722C51.156 30.9305 50.7205 28.6444 49.8496 27.2139C48.9787 25.7701 47.5997 25.0481 45.7127 25.0481C43.8389 25.0481 42.4731 25.7634 41.6154 27.1939C40.7576 28.6243 40.3156 30.8235 40.2892 33.7914V39.7273C40.2892 42.8824 40.7378 45.2152 41.6352 46.7259C42.5457 48.2233 43.9181 48.9719 45.7523 48.9719C47.5601 48.9719 48.8995 48.2634 49.7704 46.8463C50.6545 45.4291 51.1164 43.1965 51.156 40.1484V34.0722Z" fill="url(#paint7_linear)"/>
</g>
<defs>
<filter id="filter0_d" x="13.9531" y="22" width="40.8647" height="31" filterUnits="userSpaceOnUse" color-interpolation-filters="sRGB">
<feFlood flood-opacity="0" result="BackgroundImageFix"/>
<feColorMatrix in="SourceAlpha" type="matrix" values="0 0 0 0 0 0 0 0 0 0 0 0 0 0 0 0 0 0 127 0"/>
<feOffset dx="-1" dy="1"/>
<feColorMatrix type="matrix" values="0 0 0 0 0.8125 0 0 0 0 0.636458 0 0 0 0 0.284375 0 0 0 1 0"/>
<feBlend mode="normal" in2="BackgroundImageFix" result="effect1_dropShadow"/>
<feBlend mode="normal" in="SourceGraphic" in2="effect1_dropShadow" result="shape"/>
</filter>
<linearGradient id="paint0_linear" x1="68.9849" y1="17.8598" x2="0.4536" y2="52.1985" gradientUnits="userSpaceOnUse">
<stop stop-color="#F1D6AB"/>
<stop offset="0.17" stop-color="#F0D3A4"/>
<stop offset="0.42" stop-color="#EDCC91"/>
<stop offset="0.7" stop-color="#E9C072"/>
<stop offset="1" stop-color="#E3B04B"/>
</linearGradient>
<linearGradient id="paint1_linear" x1="0.981657" y1="35.2002" x2="68.6375" y2="35.2002" gradientUnits="userSpaceOnUse">
<stop offset="0.49" stop-color="#F1D6AB"/>
<stop offset="0.54" stop-color="#F0D3A4"/>
<stop offset="0.63" stop-color="#EDCC91"/>
<stop offset="0.73" stop-color="#E9C072"/>
<stop offset="0.83" stop-color="#E3B04B"/>
</linearGradient>
<linearGradient id="paint2_linear" x1="25296.3" y1="33728.2" x2="28703.5" y2="30545.8" gradientUnits="userSpaceOnUse">
<stop stop-color="#F1D6AB"/>
<stop offset="0.17" stop-color="#F0D3A4"/>
<stop offset="0.42" stop-color="#EDCC91"/>
<stop offset="0.7" stop-color="#E9C072"/>
<stop offset="1" stop-color="#E3B04B"/>
</linearGradient>
<linearGradient id="paint3_linear" x1="50.6922" y1="15.9518" x2="26.654" y2="60.2303" gradientUnits="userSpaceOnUse">
<stop stop-color="#F1D6AB"/>
<stop offset="1" stop-color="#E3B04B"/>
</linearGradient>
<linearGradient id="paint4_linear" x1="5.20106" y1="73.2724" x2="60.4437" y2="3.16939" gradientUnits="userSpaceOnUse">
<stop stop-color="#F1D6AB"/>
<stop offset="0.34" stop-color="#F1D6AB"/>
<stop offset="0.41" stop-color="#EECF98"/>
<stop offset="0.56" stop-color="#E9C177"/>
<stop offset="0.7" stop-color="#E6B85F"/>
<stop offset="0.83" stop-color="#E4B250"/>
<stop offset="0.94" stop-color="#E3B04B"/>
</linearGradient>
<linearGradient id="paint5_linear" x1="-12.4339" y1="-16.8549" x2="80.943" y2="69.9499" gradientUnits="userSpaceOnUse">
<stop stop-color="#F1D6AB" stop-opacity="0.24"/>
</linearGradient>
<linearGradient id="paint6_linear" x1="51.1938" y1="22.5172" x2="43.8499" y2="53.3574" gradientUnits="userSpaceOnUse">
<stop stop-color="#E3B04B"/>
<stop offset="0.19" stop-color="#E3B04B"/>
<stop offset="1" stop-color="#F1D6AB"/>
</linearGradient>
<linearGradient id="paint7_linear" x1="51.1938" y1="22.5172" x2="43.8499" y2="53.3574" gradientUnits="userSpaceOnUse">
<stop stop-color="#E3B04B"/>
<stop offset="0.19" stop-color="#E3B04B"/>
<stop offset="1" stop-color="#F1D6AB"/>
</linearGradient>
</defs>
</svg>
