<svg width="854" height="276" viewBox="0 0 854 276" fill="none" xmlns="http://www.w3.org/2000/svg">
<path d="M182.935 135.272V225.39" stroke="#101010" stroke-width="2.53388" stroke-miterlimit="10" stroke-linecap="round" stroke-linejoin="round"/>
<path d="M291.823 128.34V225.389" stroke="#101010" stroke-width="2.53388" stroke-miterlimit="10" stroke-linecap="round" stroke-linejoin="round"/>
<path d="M34.6963 139.156C34.6963 139.156 65.452 204.04 113.664 204.04C161.875 204.04 175.452 104.218 243.89 104.218C312.329 104.218 322.581 197.663 354.167 197.663C385.754 197.663 388.248 138.324 483.286 138.324" stroke="#101010" stroke-width="5.06776" stroke-miterlimit="10" stroke-linecap="round" stroke-linejoin="round"/>
<path d="M34.6963 139.156C34.6963 139.156 65.452 204.04 113.664 204.04C161.875 204.04 175.452 104.218 243.89 104.218C276.031 104.218 295.427 125.014 310.112 146.92" stroke="#4BE3BF" stroke-width="5.06776" stroke-miterlimit="10" stroke-linecap="round" stroke-linejoin="round"/>
<path d="M34.6963 112.81C34.6963 112.81 57.6938 79.259 105.905 79.259C154.117 79.259 177.392 165.494 239.457 165.494C301.523 165.494 300.137 62.0674 336.989 62.0674C373.84 62.0674 374.394 156.344 480.792 96.1733" stroke="#101010" stroke-width="5.06776" stroke-miterlimit="10" stroke-linecap="round" stroke-linejoin="round"/>
<path d="M34.6968 112.808C34.6968 112.808 57.6943 79.2568 105.906 79.2568C154.117 79.2568 177.392 165.492 239.458 165.492C278.249 165.492 292.38 125.009 306.233 94.7848" stroke="#E34B4B" stroke-width="5.06776" stroke-miterlimit="10" stroke-linecap="round"/>
<path d="M2 2.17578V225.39H486.056" stroke="#101010" stroke-width="2.53388" stroke-miterlimit="10" stroke-linecap="round" stroke-linejoin="round"/>
<path d="M34.6963 57.3562C34.6963 57.3562 74.8726 36.5598 108.399 36.5598C141.926 36.5598 166.031 88.9668 218.122 88.9668C270.213 88.9668 299.306 21.3091 341.699 21.3091C384.092 21.3091 395.452 81.4801 483.563 81.4801" stroke="#101010" stroke-width="5.06776" stroke-miterlimit="10" stroke-linecap="round" stroke-linejoin="round"/>
<path d="M34.6963 57.3562C34.6963 57.3562 74.8726 36.5598 108.399 36.5598C141.926 36.5598 166.031 88.9668 218.122 88.9668C270.213 88.9668 299.306 21.3091 341.699 21.3091C361.094 21.3091 374.117 33.7869 390.742 47.6512" stroke="#E3B04B" stroke-width="5.06776" stroke-miterlimit="10" stroke-linecap="round" stroke-linejoin="round"/>
<path d="M51.3199 275.578H15.2998C7.81865 275.578 2 269.755 2 262.269C2 254.782 7.81865 248.959 15.2998 248.959H51.3199C58.801 248.959 64.6197 254.782 64.6197 262.269C64.6197 269.755 58.524 275.578 51.3199 275.578Z" fill="#E3B04B"/>
<path d="M254.421 275.578H218.4C210.919 275.578 205.101 269.755 205.101 262.269C205.101 254.782 210.919 248.959 218.4 248.959H254.421C261.902 248.959 267.72 254.782 267.72 262.269C267.72 269.755 261.625 275.578 254.421 275.578Z" fill="#40B39B"/>
<path d="M457.515 275.578H421.495C414.014 275.578 408.195 269.755 408.195 262.269C408.195 254.782 414.014 248.959 421.495 248.959H457.515C464.996 248.959 470.815 254.782 470.815 262.269C470.815 269.755 464.996 275.578 457.515 275.578Z" fill="#E24B4B"/>
<path d="M30.5908 262.214C31.1989 262.447 31.6651 262.781 31.9895 263.217C32.3138 263.653 32.476 264.175 32.476 264.783C32.476 265.422 32.3037 265.979 31.9591 266.456C31.6145 266.922 31.1229 267.282 30.4843 267.535C29.8458 267.788 29.0958 267.915 28.2343 267.915C27.3829 267.915 26.6379 267.788 25.9994 267.535C25.371 267.282 24.8845 266.922 24.5399 266.456C24.1953 265.979 24.0229 265.422 24.0229 264.783C24.0229 264.175 24.18 263.653 24.4943 263.217C24.8186 262.781 25.2848 262.447 25.893 262.214C25.4064 261.981 25.0365 261.672 24.7831 261.286C24.5297 260.901 24.403 260.445 24.403 259.918C24.403 259.33 24.5601 258.818 24.8743 258.383C25.1987 257.947 25.6497 257.612 26.2274 257.379C26.8051 257.146 27.4741 257.03 28.2343 257.03C29.0046 257.03 29.6786 257.146 30.2563 257.379C30.8442 257.612 31.2952 257.947 31.6094 258.383C31.9337 258.818 32.0959 259.33 32.0959 259.918C32.0959 260.435 31.9641 260.891 31.7006 261.286C31.4472 261.672 31.0773 261.981 30.5908 262.214ZM28.2343 258.261C27.5146 258.261 26.947 258.418 26.5315 258.732C26.1159 259.036 25.9082 259.452 25.9082 259.979C25.9082 260.506 26.1109 260.922 26.5163 261.226C26.9318 261.53 27.5045 261.682 28.2343 261.682C28.9742 261.682 29.5519 261.53 29.9674 261.226C30.3931 260.922 30.606 260.506 30.606 259.979C30.606 259.452 30.3881 259.036 29.9522 258.732C29.5265 258.418 28.9539 258.261 28.2343 258.261ZM28.2343 266.684C29.0755 266.684 29.7394 266.511 30.2259 266.167C30.7124 265.812 30.9556 265.336 30.9556 264.738C30.9556 264.15 30.7124 263.689 30.2259 263.354C29.7394 263.009 29.0755 262.837 28.2343 262.837C27.393 262.837 26.7342 263.009 26.2578 263.354C25.7815 263.689 25.5433 264.15 25.5433 264.738C25.5433 265.336 25.7815 265.812 26.2578 266.167C26.7342 266.511 27.393 266.684 28.2343 266.684ZM38.216 267.915C37.3748 267.915 36.6248 267.702 35.966 267.277C35.3173 266.841 34.8054 266.212 34.4304 265.391C34.0554 264.57 33.8679 263.597 33.8679 262.472C33.8679 261.347 34.0554 260.374 34.4304 259.553C34.8054 258.732 35.3173 258.109 35.966 257.683C36.6248 257.247 37.3748 257.03 38.216 257.03C39.0472 257.03 39.787 257.247 40.4357 257.683C41.0945 258.109 41.6114 258.732 41.9865 259.553C42.3615 260.374 42.549 261.347 42.549 262.472C42.549 263.597 42.3615 264.57 41.9865 265.391C41.6114 266.212 41.0945 266.841 40.4357 267.277C39.787 267.702 39.0472 267.915 38.216 267.915ZM38.216 266.562C39.0674 266.562 39.7465 266.212 40.2533 265.513C40.7702 264.814 41.0287 263.8 41.0287 262.472C41.0287 261.145 40.7702 260.131 40.2533 259.432C39.7465 258.732 39.0674 258.383 38.216 258.383C37.3545 258.383 36.6653 258.732 36.1484 259.432C35.6416 260.131 35.3882 261.145 35.3882 262.472C35.3882 263.8 35.6416 264.814 36.1484 265.513C36.6653 266.212 37.3545 266.562 38.216 266.562Z" fill="#F8F8F8"/>
<path d="M236.756 265.178H234.734V267.793H233.259V265.178H227.345V264.114L232.788 257.151H234.43L229.215 263.871H233.305V261.56H234.734V263.871H236.756V265.178ZM242.015 267.915C241.174 267.915 240.424 267.702 239.765 267.277C239.116 266.841 238.605 266.212 238.23 265.391C237.855 264.57 237.667 263.597 237.667 262.472C237.667 261.347 237.855 260.374 238.23 259.553C238.605 258.732 239.116 258.109 239.765 257.683C240.424 257.247 241.174 257.03 242.015 257.03C242.846 257.03 243.586 257.247 244.235 257.683C244.894 258.109 245.411 258.732 245.786 259.553C246.161 260.374 246.348 261.347 246.348 262.472C246.348 263.597 246.161 264.57 245.786 265.391C245.411 266.212 244.894 266.841 244.235 267.277C243.586 267.702 242.846 267.915 242.015 267.915ZM242.015 266.562C242.867 266.562 243.546 266.212 244.052 265.513C244.569 264.814 244.828 263.8 244.828 262.472C244.828 261.145 244.569 260.131 244.052 259.432C243.546 258.732 242.867 258.383 242.015 258.383C241.154 258.383 240.464 258.732 239.948 259.432C239.441 260.131 239.187 261.145 239.187 262.472C239.187 263.8 239.441 264.814 239.948 265.513C240.464 266.212 241.154 266.562 242.015 266.562Z" fill="#F8F8F8"/>
<path d="M435.699 261.621C436.743 261.722 437.538 262.047 438.086 262.594C438.633 263.131 438.907 263.82 438.907 264.662C438.907 265.27 438.755 265.822 438.451 266.319C438.146 266.805 437.69 267.195 437.082 267.489C436.484 267.773 435.749 267.915 434.878 267.915C434.118 267.915 433.388 267.804 432.689 267.581C431.989 267.347 431.417 267.028 430.971 266.623L431.67 265.422C432.035 265.766 432.501 266.045 433.069 266.258C433.636 266.461 434.239 266.562 434.878 266.562C435.668 266.562 436.282 266.395 436.717 266.06C437.163 265.726 437.386 265.265 437.386 264.677C437.386 264.089 437.168 263.633 436.733 263.308C436.297 262.984 435.638 262.822 434.756 262.822H433.905V261.758L436.581 258.474H431.457V257.151H438.481V258.185L435.699 261.621ZM444.673 267.915C443.831 267.915 443.081 267.702 442.423 267.277C441.774 266.841 441.262 266.212 440.887 265.391C440.512 264.57 440.325 263.597 440.325 262.472C440.325 261.347 440.512 260.374 440.887 259.553C441.262 258.732 441.774 258.109 442.423 257.683C443.081 257.247 443.831 257.03 444.673 257.03C445.504 257.03 446.244 257.247 446.892 257.683C447.551 258.109 448.068 258.732 448.443 259.553C448.818 260.374 449.006 261.347 449.006 262.472C449.006 263.597 448.818 264.57 448.443 265.391C448.068 266.212 447.551 266.841 446.892 267.277C446.244 267.702 445.504 267.915 444.673 267.915ZM444.673 266.562C445.524 266.562 446.203 266.212 446.71 265.513C447.227 264.814 447.485 263.8 447.485 262.472C447.485 261.145 447.227 260.131 446.71 259.432C446.203 258.732 445.524 258.383 444.673 258.383C443.811 258.383 443.122 258.732 442.605 259.432C442.098 260.131 441.845 261.145 441.845 262.472C441.845 263.8 442.098 264.814 442.605 265.513C443.122 266.212 443.811 266.562 444.673 266.562Z" fill="#F8F8F8"/>
<path d="M765.535 203.315C810.229 184.21 830.985 132.464 811.894 87.7368C792.804 43.0095 741.096 22.2385 696.402 41.3434C651.708 60.4483 630.953 112.194 650.043 156.922C669.134 201.649 720.841 222.42 765.535 203.315Z" stroke="#101010" stroke-width="7.57428" stroke-miterlimit="10"/>
<path d="M730.949 34.311C779.608 34.311 818.95 73.6818 818.95 122.377C818.95 171.073 779.608 210.444 730.949 210.444C682.29 210.444 642.948 171.073 642.948 122.377" stroke="url(#paint0_linear)" stroke-width="7.57428" stroke-miterlimit="10" stroke-linecap="round" stroke-linejoin="round"/>
<path d="M773.789 221.881C828.729 198.228 854.106 134.481 830.47 79.5006C806.834 24.5197 743.135 -0.875857 688.195 22.778C633.255 46.4319 607.878 110.178 631.515 165.159C655.151 220.14 718.849 245.535 773.789 221.881Z" stroke="#101010" stroke-width="7.57428" stroke-miterlimit="10"/>
<path d="M820.607 61.6611C832.202 78.8599 839.035 99.7886 839.035 122.168C839.035 182.053 790.583 230.541 730.742 230.541C670.902 230.541 622.45 182.053 622.45 122.168" stroke="url(#paint1_linear)" stroke-width="7.57428" stroke-miterlimit="10" stroke-linecap="round"/>
<path d="M780.19 171.547C807.36 144.358 807.36 100.274 780.19 73.0846C753.021 45.895 708.97 45.895 681.801 73.0846C654.631 100.274 654.631 144.358 681.801 171.547C708.97 198.737 753.021 198.737 780.19 171.547Z" stroke="#101010" stroke-width="7.57428" stroke-miterlimit="10"/>
<path d="M800.312 122.374C800.312 160.708 769.253 191.998 730.739 191.998C692.433 191.998 661.167 160.916 661.167 122.374C661.167 84.0389 692.226 52.7495 730.739 52.7495" stroke="url(#paint2_linear)" stroke-width="7.57428" stroke-miterlimit="10" stroke-linecap="round" stroke-linejoin="round"/>
<path d="M653.404 261.443V262.216L650.188 269.396H648.984L652.131 262.431H648.496V263.852H647.405V261.443H653.404ZM657.427 269.487C656.798 269.487 656.238 269.328 655.746 269.01C655.261 268.684 654.878 268.214 654.598 267.601C654.318 266.987 654.178 266.26 654.178 265.42C654.178 264.579 654.318 263.852 654.598 263.238C654.878 262.625 655.261 262.159 655.746 261.841C656.238 261.515 656.798 261.352 657.427 261.352C658.048 261.352 658.601 261.515 659.086 261.841C659.578 262.159 659.964 262.625 660.245 263.238C660.525 263.852 660.665 264.579 660.665 265.42C660.665 266.26 660.525 266.987 660.245 267.601C659.964 268.214 659.578 268.684 659.086 269.01C658.601 269.328 658.048 269.487 657.427 269.487ZM657.427 268.476C658.063 268.476 658.571 268.214 658.949 267.692C659.336 267.169 659.529 266.412 659.529 265.42C659.529 264.427 659.336 263.67 658.949 263.147C658.571 262.625 658.063 262.363 657.427 262.363C656.783 262.363 656.268 262.625 655.882 263.147C655.503 263.67 655.314 264.427 655.314 265.42C655.314 266.412 655.503 267.169 655.882 267.692C656.268 268.214 656.783 268.476 657.427 268.476ZM663.483 265.715C662.93 265.715 662.483 265.514 662.142 265.113C661.801 264.711 661.631 264.189 661.631 263.545C661.631 262.901 661.801 262.378 662.142 261.977C662.483 261.576 662.93 261.375 663.483 261.375C664.035 261.375 664.479 261.576 664.812 261.977C665.153 262.371 665.323 262.893 665.323 263.545C665.323 264.196 665.153 264.723 664.812 265.124C664.479 265.518 664.035 265.715 663.483 265.715ZM668.277 261.443H669.152L663.721 269.396H662.846L668.277 261.443ZM663.483 265.067C663.831 265.067 664.104 264.935 664.301 264.67C664.497 264.397 664.596 264.022 664.596 263.545C664.596 263.068 664.497 262.697 664.301 262.431C664.104 262.159 663.831 262.022 663.483 262.022C663.142 262.022 662.869 262.159 662.665 262.431C662.468 262.704 662.369 263.075 662.369 263.545C662.369 264.014 662.468 264.386 662.665 264.658C662.869 264.931 663.142 265.067 663.483 265.067ZM668.516 269.464C667.963 269.464 667.516 269.267 667.175 268.873C666.842 268.472 666.675 267.946 666.675 267.294C666.675 266.643 666.842 266.12 667.175 265.726C667.516 265.325 667.963 265.124 668.516 265.124C669.069 265.124 669.515 265.325 669.856 265.726C670.197 266.128 670.368 266.65 670.368 267.294C670.368 267.938 670.197 268.461 669.856 268.862C669.515 269.263 669.069 269.464 668.516 269.464ZM668.516 268.817C668.856 268.817 669.125 268.68 669.322 268.408C669.527 268.135 669.629 267.764 669.629 267.294C669.629 266.825 669.527 266.453 669.322 266.181C669.125 265.908 668.856 265.772 668.516 265.772C668.167 265.772 667.895 265.908 667.698 266.181C667.501 266.446 667.402 266.817 667.402 267.294C667.402 267.771 667.501 268.146 667.698 268.419C667.895 268.684 668.167 268.817 668.516 268.817Z" fill="#F8F8F8"/>
<path d="M734.088 265.226C734.543 265.401 734.891 265.651 735.133 265.976C735.376 266.302 735.497 266.692 735.497 267.146C735.497 267.624 735.368 268.04 735.111 268.396C734.853 268.745 734.486 269.013 734.009 269.203C733.531 269.392 732.971 269.487 732.327 269.487C731.691 269.487 731.134 269.392 730.657 269.203C730.187 269.013 729.824 268.745 729.566 268.396C729.309 268.04 729.18 267.624 729.18 267.146C729.18 266.692 729.297 266.302 729.532 265.976C729.775 265.651 730.123 265.401 730.578 265.226C730.214 265.052 729.938 264.821 729.748 264.533C729.559 264.245 729.464 263.905 729.464 263.511C729.464 263.071 729.582 262.689 729.816 262.363C730.059 262.038 730.396 261.788 730.827 261.613C731.259 261.439 731.759 261.352 732.327 261.352C732.903 261.352 733.407 261.439 733.838 261.613C734.278 261.788 734.615 262.038 734.849 262.363C735.092 262.689 735.213 263.071 735.213 263.511C735.213 263.897 735.115 264.238 734.918 264.533C734.728 264.821 734.452 265.052 734.088 265.226ZM732.327 262.272C731.789 262.272 731.365 262.39 731.055 262.625C730.744 262.852 730.589 263.162 730.589 263.556C730.589 263.95 730.74 264.261 731.043 264.488C731.354 264.715 731.782 264.829 732.327 264.829C732.88 264.829 733.312 264.715 733.622 264.488C733.941 264.261 734.1 263.95 734.1 263.556C734.1 263.162 733.937 262.852 733.611 262.625C733.293 262.39 732.865 262.272 732.327 262.272ZM732.327 268.567C732.956 268.567 733.452 268.438 733.816 268.18C734.179 267.915 734.361 267.559 734.361 267.112C734.361 266.673 734.179 266.328 733.816 266.078C733.452 265.821 732.956 265.692 732.327 265.692C731.699 265.692 731.206 265.821 730.85 266.078C730.494 266.328 730.316 266.673 730.316 267.112C730.316 267.559 730.494 267.915 730.85 268.18C731.206 268.438 731.699 268.567 732.327 268.567ZM739.787 269.487C739.158 269.487 738.597 269.328 738.105 269.01C737.62 268.684 737.238 268.214 736.958 267.601C736.677 266.987 736.537 266.26 736.537 265.42C736.537 264.579 736.677 263.852 736.958 263.238C737.238 262.625 737.62 262.159 738.105 261.841C738.597 261.515 739.158 261.352 739.787 261.352C740.408 261.352 740.961 261.515 741.445 261.841C741.938 262.159 742.324 262.625 742.604 263.238C742.884 263.852 743.025 264.579 743.025 265.42C743.025 266.26 742.884 266.987 742.604 267.601C742.324 268.214 741.938 268.684 741.445 269.01C740.961 269.328 740.408 269.487 739.787 269.487ZM739.787 268.476C740.423 268.476 740.93 268.214 741.309 267.692C741.695 267.169 741.888 266.412 741.888 265.42C741.888 264.427 741.695 263.67 741.309 263.147C740.93 262.625 740.423 262.363 739.787 262.363C739.143 262.363 738.628 262.625 738.241 263.147C737.863 263.67 737.673 264.427 737.673 265.42C737.673 266.412 737.863 267.169 738.241 267.692C738.628 268.214 739.143 268.476 739.787 268.476ZM745.842 265.715C745.289 265.715 744.842 265.514 744.501 265.113C744.161 264.711 743.99 264.189 743.99 263.545C743.99 262.901 744.161 262.378 744.501 261.977C744.842 261.576 745.289 261.375 745.842 261.375C746.395 261.375 746.838 261.576 747.171 261.977C747.512 262.371 747.683 262.893 747.683 263.545C747.683 264.196 747.512 264.723 747.171 265.124C746.838 265.518 746.395 265.715 745.842 265.715ZM750.637 261.443H751.511L746.081 269.396H745.206L750.637 261.443ZM745.842 265.067C746.191 265.067 746.463 264.935 746.66 264.67C746.857 264.397 746.956 264.022 746.956 263.545C746.956 263.068 746.857 262.697 746.66 262.431C746.463 262.159 746.191 262.022 745.842 262.022C745.501 262.022 745.229 262.159 745.024 262.431C744.827 262.704 744.729 263.075 744.729 263.545C744.729 264.014 744.827 264.386 745.024 264.658C745.229 264.931 745.501 265.067 745.842 265.067ZM750.875 269.464C750.322 269.464 749.875 269.267 749.535 268.873C749.201 268.472 749.035 267.946 749.035 267.294C749.035 266.643 749.201 266.12 749.535 265.726C749.875 265.325 750.322 265.124 750.875 265.124C751.428 265.124 751.875 265.325 752.216 265.726C752.557 266.128 752.727 266.65 752.727 267.294C752.727 267.938 752.557 268.461 752.216 268.862C751.875 269.263 751.428 269.464 750.875 269.464ZM750.875 268.817C751.216 268.817 751.485 268.68 751.682 268.408C751.886 268.135 751.989 267.764 751.989 267.294C751.989 266.825 751.886 266.453 751.682 266.181C751.485 265.908 751.216 265.772 750.875 265.772C750.527 265.772 750.254 265.908 750.057 266.181C749.86 266.446 749.762 266.817 749.762 267.294C749.762 267.771 749.86 268.146 750.057 268.419C750.254 268.684 750.527 268.817 750.875 268.817Z" fill="#F8F8F8"/>
<path d="M815.701 265.226C816.155 265.401 816.504 265.651 816.746 265.976C816.989 266.302 817.11 266.692 817.11 267.146C817.11 267.624 816.981 268.04 816.724 268.396C816.466 268.745 816.099 269.013 815.621 269.203C815.144 269.392 814.584 269.487 813.94 269.487C813.304 269.487 812.747 269.392 812.27 269.203C811.8 269.013 811.437 268.745 811.179 268.396C810.922 268.04 810.793 267.624 810.793 267.146C810.793 266.692 810.91 266.302 811.145 265.976C811.387 265.651 811.736 265.401 812.19 265.226C811.827 265.052 811.55 264.821 811.361 264.533C811.172 264.245 811.077 263.905 811.077 263.511C811.077 263.071 811.194 262.689 811.429 262.363C811.671 262.038 812.009 261.788 812.44 261.613C812.872 261.439 813.372 261.352 813.94 261.352C814.516 261.352 815.019 261.439 815.451 261.613C815.89 261.788 816.227 262.038 816.462 262.363C816.705 262.689 816.826 263.071 816.826 263.511C816.826 263.897 816.727 264.238 816.53 264.533C816.341 264.821 816.065 265.052 815.701 265.226ZM813.94 262.272C813.402 262.272 812.978 262.39 812.668 262.625C812.357 262.852 812.202 263.162 812.202 263.556C812.202 263.95 812.353 264.261 812.656 264.488C812.967 264.715 813.395 264.829 813.94 264.829C814.493 264.829 814.925 264.715 815.235 264.488C815.553 264.261 815.712 263.95 815.712 263.556C815.712 263.162 815.55 262.852 815.224 262.625C814.906 262.39 814.478 262.272 813.94 262.272ZM813.94 268.567C814.569 268.567 815.065 268.438 815.428 268.18C815.792 267.915 815.974 267.559 815.974 267.112C815.974 266.673 815.792 266.328 815.428 266.078C815.065 265.821 814.569 265.692 813.94 265.692C813.311 265.692 812.819 265.821 812.463 266.078C812.107 266.328 811.929 266.673 811.929 267.112C811.929 267.559 812.107 267.915 812.463 268.18C812.819 268.438 813.311 268.567 813.94 268.567ZM820.422 264.613C821.558 264.613 822.392 264.829 822.922 265.26C823.46 265.685 823.728 266.268 823.728 267.01C823.728 267.48 823.615 267.904 823.388 268.283C823.168 268.654 822.831 268.949 822.376 269.169C821.93 269.381 821.377 269.487 820.718 269.487C820.157 269.487 819.616 269.404 819.093 269.237C818.57 269.063 818.139 268.824 817.798 268.521L818.32 267.624C818.593 267.881 818.942 268.089 819.366 268.248C819.79 268.4 820.237 268.476 820.706 268.476C821.305 268.476 821.767 268.351 822.092 268.101C822.426 267.843 822.592 267.495 822.592 267.056C822.592 266.578 822.411 266.219 822.047 265.976C821.683 265.726 821.062 265.601 820.184 265.601H818.377L818.798 261.443H823.285V262.431H819.752L819.536 264.613H820.422ZM826.29 265.715C825.737 265.715 825.29 265.514 824.949 265.113C824.608 264.711 824.438 264.189 824.438 263.545C824.438 262.901 824.608 262.378 824.949 261.977C825.29 261.576 825.737 261.375 826.29 261.375C826.843 261.375 827.286 261.576 827.619 261.977C827.96 262.371 828.13 262.893 828.13 263.545C828.13 264.196 827.96 264.723 827.619 265.124C827.286 265.518 826.843 265.715 826.29 265.715ZM831.084 261.443H831.959L826.529 269.396H825.654L831.084 261.443ZM826.29 265.067C826.638 265.067 826.911 264.935 827.108 264.67C827.305 264.397 827.403 264.022 827.403 263.545C827.403 263.068 827.305 262.697 827.108 262.431C826.911 262.159 826.638 262.022 826.29 262.022C825.949 262.022 825.676 262.159 825.472 262.431C825.275 262.704 825.177 263.075 825.177 263.545C825.177 264.014 825.275 264.386 825.472 264.658C825.676 264.931 825.949 265.067 826.29 265.067ZM831.323 269.464C830.77 269.464 830.323 269.267 829.982 268.873C829.649 268.472 829.482 267.946 829.482 267.294C829.482 266.643 829.649 266.12 829.982 265.726C830.323 265.325 830.77 265.124 831.323 265.124C831.876 265.124 832.323 265.325 832.664 265.726C833.005 266.128 833.175 266.65 833.175 267.294C833.175 267.938 833.005 268.461 832.664 268.862C832.323 269.263 831.876 269.464 831.323 269.464ZM831.323 268.817C831.664 268.817 831.933 268.68 832.13 268.408C832.334 268.135 832.436 267.764 832.436 267.294C832.436 266.825 832.334 266.453 832.13 266.181C831.933 265.908 831.664 265.772 831.323 265.772C830.975 265.772 830.702 265.908 830.505 266.181C830.308 266.446 830.21 266.817 830.21 267.294C830.21 267.771 830.308 268.146 830.505 268.419C830.702 268.684 830.975 268.817 831.323 268.817Z" fill="#F8F8F8"/>
<path d="M634.869 270.946C637.499 270.946 639.631 268.812 639.631 266.18C639.631 263.548 637.499 261.414 634.869 261.414C632.239 261.414 630.106 263.548 630.106 266.18C630.106 268.812 632.239 270.946 634.869 270.946Z" fill="url(#paint3_linear)"/>
<path d="M720.181 266.18C720.181 268.874 718.11 270.946 715.418 270.946C712.726 270.946 710.656 268.874 710.656 266.18C710.656 263.486 712.726 261.414 715.418 261.414C718.11 261.414 720.181 263.486 720.181 266.18Z" fill="url(#paint4_linear)"/>
<path d="M797.412 270.946C800.042 270.946 802.174 268.812 802.174 266.18C802.174 263.548 800.042 261.414 797.412 261.414C794.782 261.414 792.649 263.548 792.649 266.18C792.649 268.812 794.782 270.946 797.412 270.946Z" fill="url(#paint5_linear)"/>
<defs>
<linearGradient id="paint0_linear" x1="639.173" y1="122.277" x2="822.64" y2="122.277" gradientUnits="userSpaceOnUse">
<stop offset="0.00510204" stop-color="#E3B04B"/>
<stop offset="1" stop-color="#E3B04B"/>
</linearGradient>
<linearGradient id="paint1_linear" x1="618.869" y1="146.155" x2="842.941" y2="146.155" gradientUnits="userSpaceOnUse">
<stop stop-color="#E34B4B"/>
</linearGradient>
<linearGradient id="paint2_linear" x1="730.902" y1="48.933" x2="730.902" y2="195.613" gradientUnits="userSpaceOnUse">
<stop offset="0.00510204" stop-color="#4BE3BF"/>
</linearGradient>
<linearGradient id="paint3_linear" x1="630.085" y1="266.091" x2="639.606" y2="266.091" gradientUnits="userSpaceOnUse">
<stop stop-color="#E34B4B"/>
<stop offset="0.9949" stop-color="#E34B4B"/>
</linearGradient>
<linearGradient id="paint4_linear" x1="710.723" y1="266.091" x2="720.244" y2="266.091" gradientUnits="userSpaceOnUse">
<stop offset="0.00510204" stop-color="#E3B04B"/>
</linearGradient>
<linearGradient id="paint5_linear" x1="792.736" y1="266.091" x2="802.256" y2="266.091" gradientUnits="userSpaceOnUse">
<stop offset="0.00510204" stop-color="#4BE3BF"/>
</linearGradient>
</defs>
</svg>
