<svg width="498" height="581" viewBox="0 0 498 581" fill="none" xmlns="http://www.w3.org/2000/svg">
<path d="M186.886 137.517V229.52" stroke="#101010" stroke-width="2.58922" stroke-miterlimit="10" stroke-linecap="round" stroke-linejoin="round"/>
<path d="M298.152 130.439V229.52" stroke="#101010" stroke-width="2.58922" stroke-miterlimit="10" stroke-linecap="round" stroke-linejoin="round"/>
<path d="M35.4115 141.482C35.4115 141.482 66.8389 207.724 116.103 207.724C165.368 207.724 179.241 105.813 249.174 105.813C319.107 105.813 329.583 201.213 361.86 201.213C394.136 201.213 396.685 140.633 493.798 140.633" stroke="#101010" stroke-width="5.17844" stroke-miterlimit="10" stroke-linecap="round" stroke-linejoin="round"/>
<path d="M35.4115 141.482C35.4115 141.482 66.8389 207.724 116.103 207.724C165.368 207.724 179.241 105.813 249.174 105.813C282.017 105.813 301.836 127.045 316.842 149.408" stroke="#4BE3BF" stroke-width="5.17844" stroke-miterlimit="10" stroke-linecap="round" stroke-linejoin="round"/>
<path d="M35.4116 114.585C35.4116 114.585 58.9113 80.3321 108.176 80.3321C157.44 80.3321 181.223 168.372 244.644 168.372C308.065 168.372 306.649 62.7808 344.306 62.7808C381.962 62.7808 382.528 159.03 491.25 97.6003" stroke="#101010" stroke-width="5.17844" stroke-miterlimit="10" stroke-linecap="round" stroke-linejoin="round"/>
<path d="M35.4121 114.584C35.4121 114.584 58.9118 80.3306 108.176 80.3306C157.441 80.3306 181.224 168.37 244.645 168.37C284.283 168.37 298.722 127.04 312.879 96.1833" stroke="#E34B4B" stroke-width="5.17844" stroke-miterlimit="10" stroke-linecap="round"/>
<path d="M2 1.63525V229.52H496.627" stroke="#101010" stroke-width="2.58922" stroke-miterlimit="10" stroke-linecap="round" stroke-linejoin="round"/>
<path d="M35.4115 57.9706C35.4115 57.9706 76.4652 36.7392 110.724 36.7392C144.983 36.7392 169.615 90.2424 222.843 90.2424C276.071 90.2424 305.8 21.1694 349.119 21.1694C392.438 21.1694 404.046 82.5991 494.081 82.5991" stroke="#101010" stroke-width="5.17844" stroke-miterlimit="10" stroke-linecap="round" stroke-linejoin="round"/>
<path d="M35.4115 57.9706C35.4115 57.9706 76.4652 36.7392 110.724 36.7392C144.983 36.7392 169.615 90.2424 222.843 90.2424C276.071 90.2424 305.8 21.1694 349.119 21.1694C368.938 21.1694 382.245 33.9083 399.233 48.0626" stroke="#E3B04B" stroke-width="5.17844" stroke-miterlimit="10" stroke-linecap="round" stroke-linejoin="round"/>
<path d="M52.397 280.758H15.5902C7.94572 280.758 2 274.813 2 267.17C2 259.527 7.94572 253.582 15.5902 253.582H52.397C60.0415 253.582 65.9872 259.527 65.9872 267.17C65.9872 274.813 59.7584 280.758 52.397 280.758Z" fill="#E3B04B"/>
<path d="M259.933 280.758H223.126C215.482 280.758 209.536 274.813 209.536 267.17C209.536 259.527 215.482 253.582 223.126 253.582H259.933C267.578 253.582 273.523 259.527 273.523 267.17C273.523 274.813 267.295 280.758 259.933 280.758Z" fill="#40B39B"/>
<path d="M467.463 280.758H430.657C423.012 280.758 417.066 274.813 417.066 267.17C417.066 259.527 423.012 253.582 430.657 253.582H467.463C475.108 253.582 481.054 259.527 481.054 267.17C481.054 274.813 475.108 280.758 467.463 280.758Z" fill="#E24B4B"/>
<path d="M31.2152 266.795C31.8367 267.033 32.3131 267.375 32.6445 267.82C32.9759 268.265 33.1416 268.799 33.1416 269.42C33.1416 270.073 32.9656 270.642 32.6134 271.129C32.2613 271.605 31.759 271.973 31.1065 272.232C30.454 272.491 29.6876 272.62 28.8073 272.62C27.9373 272.62 27.1761 272.491 26.5236 272.232C25.8815 271.973 25.3843 271.605 25.0322 271.129C24.6801 270.642 24.504 270.073 24.504 269.42C24.504 268.799 24.6645 268.265 24.9856 267.82C25.317 267.375 25.7934 267.033 26.4148 266.795C25.9177 266.556 25.5397 266.241 25.2808 265.847C25.0218 265.453 24.8924 264.987 24.8924 264.449C24.8924 263.848 25.0529 263.325 25.374 262.88C25.7054 262.434 26.1663 262.093 26.7566 261.854C27.3469 261.616 28.0305 261.497 28.8073 261.497C29.5944 261.497 30.2831 261.616 30.8735 261.854C31.4742 262.093 31.935 262.434 32.2561 262.88C32.5875 263.325 32.7532 263.848 32.7532 264.449C32.7532 264.977 32.6186 265.443 32.3493 265.847C32.0904 266.241 31.7124 266.556 31.2152 266.795ZM28.8073 262.755C28.0719 262.755 27.4919 262.916 27.0673 263.237C26.6427 263.548 26.4304 263.972 26.4304 264.511C26.4304 265.05 26.6375 265.474 27.0518 265.785C27.4764 266.096 28.0616 266.251 28.8073 266.251C29.5633 266.251 30.1537 266.096 30.5783 265.785C31.0133 265.474 31.2308 265.05 31.2308 264.511C31.2308 263.972 31.0081 263.548 30.5628 263.237C30.1278 262.916 29.5426 262.755 28.8073 262.755ZM28.8073 271.362C29.6669 271.362 30.3453 271.186 30.8424 270.834C31.3395 270.471 31.5881 269.985 31.5881 269.373C31.5881 268.773 31.3395 268.302 30.8424 267.96C30.3453 267.608 29.6669 267.432 28.8073 267.432C27.9476 267.432 27.2745 267.608 26.7877 267.96C26.3009 268.302 26.0575 268.773 26.0575 269.373C26.0575 269.985 26.3009 270.471 26.7877 270.834C27.2745 271.186 27.9476 271.362 28.8073 271.362ZM39.007 272.62C38.1474 272.62 37.381 272.403 36.7078 271.968C36.045 271.523 35.522 270.88 35.1388 270.042C34.7556 269.203 34.5639 268.208 34.5639 267.059C34.5639 265.909 34.7556 264.915 35.1388 264.076C35.522 263.237 36.045 262.6 36.7078 262.165C37.381 261.72 38.1474 261.497 39.007 261.497C39.8563 261.497 40.6124 261.72 41.2752 262.165C41.9484 262.6 42.4766 263.237 42.8598 264.076C43.243 264.915 43.4346 265.909 43.4346 267.059C43.4346 268.208 43.243 269.203 42.8598 270.042C42.4766 270.88 41.9484 271.523 41.2752 271.968C40.6124 272.403 39.8563 272.62 39.007 272.62ZM39.007 271.238C39.877 271.238 40.5709 270.88 41.0888 270.166C41.617 269.451 41.8811 268.415 41.8811 267.059C41.8811 265.702 41.617 264.666 41.0888 263.952C40.5709 263.237 39.877 262.88 39.007 262.88C38.1267 262.88 37.4224 263.237 36.8942 263.952C36.3764 264.666 36.1175 265.702 36.1175 267.059C36.1175 268.415 36.3764 269.451 36.8942 270.166C37.4224 270.88 38.1267 271.238 39.007 271.238Z" fill="#F8F8F8"/>
<path d="M241.885 269.824H239.818V272.496H238.312V269.824H232.268V268.737L237.83 261.621H239.508L234.179 268.488H238.358V266.127H239.818V268.488H241.885V269.824ZM247.259 272.62C246.399 272.62 245.633 272.403 244.96 271.968C244.297 271.523 243.774 270.88 243.391 270.042C243.008 269.203 242.816 268.208 242.816 267.059C242.816 265.909 243.008 264.915 243.391 264.076C243.774 263.237 244.297 262.6 244.96 262.165C245.633 261.72 246.399 261.497 247.259 261.497C248.108 261.497 248.864 261.72 249.527 262.165C250.2 262.6 250.729 263.237 251.112 264.076C251.495 264.915 251.687 265.909 251.687 267.059C251.687 268.208 251.495 269.203 251.112 270.042C250.729 270.88 250.2 271.523 249.527 271.968C248.864 272.403 248.108 272.62 247.259 272.62ZM247.259 271.238C248.129 271.238 248.823 270.88 249.341 270.166C249.869 269.451 250.133 268.415 250.133 267.059C250.133 265.702 249.869 264.666 249.341 263.952C248.823 263.237 248.129 262.88 247.259 262.88C246.379 262.88 245.674 263.237 245.146 263.952C244.628 264.666 244.369 265.702 244.369 267.059C244.369 268.415 244.628 269.451 245.146 270.166C245.674 270.88 246.379 271.238 247.259 271.238Z" fill="#F8F8F8"/>
<path d="M445.174 266.189C446.241 266.292 447.054 266.624 447.613 267.183C448.172 267.732 448.452 268.436 448.452 269.296C448.452 269.917 448.296 270.482 447.986 270.989C447.675 271.486 447.209 271.885 446.588 272.185C445.976 272.475 445.226 272.62 444.335 272.62C443.558 272.62 442.812 272.506 442.098 272.279C441.383 272.04 440.798 271.714 440.342 271.3L441.057 270.073C441.43 270.425 441.906 270.71 442.486 270.927C443.066 271.134 443.682 271.238 444.335 271.238C445.143 271.238 445.769 271.067 446.215 270.725C446.67 270.383 446.898 269.912 446.898 269.311C446.898 268.711 446.676 268.245 446.23 267.913C445.785 267.582 445.112 267.416 444.211 267.416H443.341V266.329L446.075 262.973H440.839V261.621H448.017V262.678L445.174 266.189ZM454.344 272.62C453.484 272.62 452.718 272.403 452.045 271.968C451.382 271.523 450.859 270.88 450.475 270.042C450.092 269.203 449.901 268.208 449.901 267.059C449.901 265.909 450.092 264.915 450.475 264.076C450.859 263.237 451.382 262.6 452.045 262.165C452.718 261.72 453.484 261.497 454.344 261.497C455.193 261.497 455.949 261.72 456.612 262.165C457.285 262.6 457.813 263.237 458.197 264.076C458.58 264.915 458.771 265.909 458.771 267.059C458.771 268.208 458.58 269.203 458.197 270.042C457.813 270.88 457.285 271.523 456.612 271.968C455.949 272.403 455.193 272.62 454.344 272.62ZM454.344 271.238C455.214 271.238 455.908 270.88 456.425 270.166C456.954 269.451 457.218 268.415 457.218 267.059C457.218 265.702 456.954 264.666 456.425 263.952C455.908 263.237 455.214 262.88 454.344 262.88C453.463 262.88 452.759 263.237 452.231 263.952C451.713 264.666 451.454 265.702 451.454 267.059C451.454 268.415 451.713 269.451 452.231 270.166C452.759 270.88 453.463 271.238 454.344 271.238Z" fill="#F8F8F8"/>
<path d="M277.21 506.105C322.88 486.6 344.089 433.772 324.582 388.109C305.074 342.446 252.237 321.24 206.567 340.745C160.897 360.249 139.688 413.078 159.196 458.741C178.704 504.404 231.54 525.61 277.21 506.105Z" stroke="#101010" stroke-width="7.73969" stroke-miterlimit="10"/>
<path d="M241.868 333.565C291.59 333.565 331.791 373.759 331.791 423.474C331.791 473.188 291.59 513.383 241.868 513.383C192.146 513.383 151.946 473.188 151.946 423.474" stroke="url(#paint0_linear)" stroke-width="7.73969" stroke-miterlimit="10" stroke-linecap="round" stroke-linejoin="round"/>
<path d="M285.645 525.06C341.785 500.911 367.716 435.831 343.563 379.7C319.411 323.569 254.321 297.642 198.181 321.791C142.042 345.939 116.111 411.019 140.263 467.15C164.416 523.282 229.505 549.209 285.645 525.06Z" stroke="#101010" stroke-width="7.73969" stroke-miterlimit="10"/>
<path d="M333.485 361.487C345.333 379.046 352.315 400.412 352.315 423.26C352.315 484.398 302.805 533.901 241.658 533.901C180.51 533.901 131 484.398 131 423.26" stroke="url(#paint1_linear)" stroke-width="7.73969" stroke-miterlimit="10" stroke-linecap="round"/>
<path d="M292.187 473.672C319.949 445.914 319.949 400.908 292.187 373.15C264.424 345.391 219.412 345.391 191.649 373.15C163.886 400.908 163.886 445.914 191.649 473.672C219.412 501.431 264.424 501.431 292.187 473.672Z" stroke="#101010" stroke-width="7.73969" stroke-miterlimit="10"/>
<path d="M312.747 423.47C312.747 462.607 281.009 494.551 241.655 494.551C202.512 494.551 170.563 462.818 170.563 423.47C170.563 384.333 202.301 352.389 241.655 352.389" stroke="url(#paint2_linear)" stroke-width="7.73969" stroke-miterlimit="10" stroke-linecap="round" stroke-linejoin="round"/>
<path d="M162.631 565.212V566.002L159.346 573.339H158.115L161.331 566.222H157.616V567.674H156.501V565.212H162.631ZM166.742 573.432C166.1 573.432 165.527 573.269 165.024 572.944C164.529 572.612 164.138 572.132 163.852 571.505C163.565 570.878 163.422 570.135 163.422 569.276C163.422 568.417 163.565 567.674 163.852 567.047C164.138 566.42 164.529 565.944 165.024 565.619C165.527 565.286 166.1 565.12 166.742 565.12C167.377 565.12 167.942 565.286 168.437 565.619C168.94 565.944 169.335 566.42 169.622 567.047C169.908 567.674 170.051 568.417 170.051 569.276C170.051 570.135 169.908 570.878 169.622 571.505C169.335 572.132 168.94 572.612 168.437 572.944C167.942 573.269 167.377 573.432 166.742 573.432ZM166.742 572.399C167.393 572.399 167.911 572.132 168.298 571.598C168.693 571.064 168.89 570.29 168.89 569.276C168.89 568.262 168.693 567.488 168.298 566.954C167.911 566.42 167.393 566.153 166.742 566.153C166.085 566.153 165.558 566.42 165.164 566.954C164.777 567.488 164.583 568.262 164.583 569.276C164.583 570.29 164.777 571.064 165.164 571.598C165.558 572.132 166.085 572.399 166.742 572.399ZM172.93 569.578C172.365 569.578 171.909 569.373 171.56 568.962C171.212 568.552 171.038 568.018 171.038 567.36C171.038 566.702 171.212 566.168 171.56 565.758C171.909 565.348 172.365 565.143 172.93 565.143C173.495 565.143 173.948 565.348 174.289 565.758C174.637 566.161 174.811 566.695 174.811 567.36C174.811 568.026 174.637 568.564 174.289 568.974C173.948 569.376 173.495 569.578 172.93 569.578ZM177.829 565.212H178.723L173.174 573.339H172.28L177.829 565.212ZM172.93 568.916C173.286 568.916 173.565 568.78 173.766 568.51C173.967 568.231 174.068 567.848 174.068 567.36C174.068 566.873 173.967 566.493 173.766 566.222C173.565 565.944 173.286 565.805 172.93 565.805C172.582 565.805 172.303 565.944 172.094 566.222C171.893 566.501 171.792 566.88 171.792 567.36C171.792 567.84 171.893 568.219 172.094 568.498C172.303 568.777 172.582 568.916 172.93 568.916ZM178.073 573.409C177.508 573.409 177.052 573.208 176.703 572.805C176.363 572.395 176.192 571.857 176.192 571.191C176.192 570.526 176.363 569.992 176.703 569.589C177.052 569.179 177.508 568.974 178.073 568.974C178.638 568.974 179.095 569.179 179.443 569.589C179.791 569.999 179.966 570.533 179.966 571.191C179.966 571.849 179.791 572.383 179.443 572.793C179.095 573.204 178.638 573.409 178.073 573.409ZM178.073 572.747C178.422 572.747 178.696 572.608 178.898 572.329C179.106 572.05 179.211 571.671 179.211 571.191C179.211 570.711 179.106 570.332 178.898 570.054C178.696 569.775 178.422 569.636 178.073 569.636C177.717 569.636 177.439 569.775 177.237 570.054C177.036 570.325 176.936 570.704 176.936 571.191C176.936 571.679 177.036 572.062 177.237 572.341C177.439 572.612 177.717 572.747 178.073 572.747Z" fill="#F8F8F8"/>
<path d="M245.076 569.079C245.541 569.257 245.897 569.513 246.145 569.846C246.392 570.178 246.516 570.577 246.516 571.041C246.516 571.529 246.384 571.955 246.121 572.318C245.858 572.674 245.483 572.949 244.995 573.143C244.508 573.336 243.935 573.433 243.277 573.433C242.627 573.433 242.058 573.336 241.57 573.143C241.09 572.949 240.719 572.674 240.456 572.318C240.193 571.955 240.061 571.529 240.061 571.041C240.061 570.577 240.181 570.178 240.421 569.846C240.669 569.513 241.025 569.257 241.489 569.079C241.118 568.901 240.835 568.665 240.642 568.371C240.448 568.077 240.351 567.729 240.351 567.326C240.351 566.877 240.471 566.486 240.711 566.154C240.959 565.821 241.303 565.565 241.744 565.387C242.186 565.209 242.696 565.12 243.277 565.12C243.865 565.12 244.38 565.209 244.821 565.387C245.27 565.565 245.614 565.821 245.854 566.154C246.102 566.486 246.226 566.877 246.226 567.326C246.226 567.721 246.125 568.069 245.924 568.371C245.73 568.665 245.448 568.901 245.076 569.079ZM243.277 566.061C242.727 566.061 242.294 566.181 241.977 566.421C241.659 566.653 241.501 566.97 241.501 567.373C241.501 567.775 241.655 568.092 241.965 568.325C242.282 568.557 242.72 568.673 243.277 568.673C243.842 568.673 244.283 568.557 244.6 568.325C244.926 568.092 245.088 567.775 245.088 567.373C245.088 566.97 244.922 566.653 244.589 566.421C244.264 566.181 243.826 566.061 243.277 566.061ZM243.277 572.493C243.919 572.493 244.426 572.361 244.798 572.098C245.169 571.827 245.355 571.463 245.355 571.006C245.355 570.558 245.169 570.205 244.798 569.95C244.426 569.687 243.919 569.555 243.277 569.555C242.635 569.555 242.131 569.687 241.768 569.95C241.404 570.205 241.222 570.558 241.222 571.006C241.222 571.463 241.404 571.827 241.768 572.098C242.131 572.361 242.635 572.493 243.277 572.493ZM250.899 573.433C250.257 573.433 249.684 573.27 249.181 572.945C248.686 572.612 248.295 572.133 248.008 571.506C247.722 570.879 247.579 570.136 247.579 569.277C247.579 568.418 247.722 567.675 248.008 567.048C248.295 566.421 248.686 565.945 249.181 565.62C249.684 565.287 250.257 565.12 250.899 565.12C251.534 565.12 252.099 565.287 252.594 565.62C253.097 565.945 253.492 566.421 253.778 567.048C254.065 567.675 254.208 568.418 254.208 569.277C254.208 570.136 254.065 570.879 253.778 571.506C253.492 572.133 253.097 572.612 252.594 572.945C252.099 573.27 251.534 573.433 250.899 573.433ZM250.899 572.4C251.549 572.4 252.068 572.133 252.455 571.599C252.85 571.065 253.047 570.291 253.047 569.277C253.047 568.263 252.85 567.489 252.455 566.955C252.068 566.421 251.549 566.154 250.899 566.154C250.241 566.154 249.715 566.421 249.32 566.955C248.933 567.489 248.74 568.263 248.74 569.277C248.74 570.291 248.933 571.065 249.32 571.599C249.715 572.133 250.241 572.4 250.899 572.4ZM257.087 569.579C256.522 569.579 256.065 569.373 255.717 568.963C255.369 568.553 255.195 568.019 255.195 567.361C255.195 566.703 255.369 566.169 255.717 565.759C256.065 565.349 256.522 565.144 257.087 565.144C257.652 565.144 258.105 565.349 258.445 565.759C258.794 566.161 258.968 566.695 258.968 567.361C258.968 568.027 258.794 568.565 258.445 568.975C258.105 569.377 257.652 569.579 257.087 569.579ZM261.986 565.213H262.88L257.331 573.34H256.437L261.986 565.213ZM257.087 568.917C257.443 568.917 257.722 568.781 257.923 568.51C258.124 568.232 258.225 567.849 258.225 567.361C258.225 566.873 258.124 566.494 257.923 566.223C257.722 565.945 257.443 565.805 257.087 565.805C256.739 565.805 256.46 565.945 256.251 566.223C256.05 566.502 255.949 566.881 255.949 567.361C255.949 567.841 256.05 568.22 256.251 568.499C256.46 568.777 256.739 568.917 257.087 568.917ZM262.23 573.41C261.665 573.41 261.208 573.208 260.86 572.806C260.52 572.396 260.349 571.858 260.349 571.192C260.349 570.527 260.52 569.993 260.86 569.59C261.208 569.18 261.665 568.975 262.23 568.975C262.795 568.975 263.252 569.18 263.6 569.59C263.948 570 264.122 570.534 264.122 571.192C264.122 571.85 263.948 572.384 263.6 572.794C263.252 573.205 262.795 573.41 262.23 573.41ZM262.23 572.748C262.578 572.748 262.853 572.609 263.054 572.33C263.263 572.051 263.368 571.672 263.368 571.192C263.368 570.712 263.263 570.333 263.054 570.054C262.853 569.776 262.578 569.637 262.23 569.637C261.874 569.637 261.595 569.776 261.394 570.054C261.193 570.325 261.092 570.705 261.092 571.192C261.092 571.68 261.193 572.063 261.394 572.342C261.595 572.612 261.874 572.748 262.23 572.748Z" fill="#F8F8F8"/>
<path d="M328.474 569.078C328.938 569.256 329.294 569.512 329.542 569.845C329.79 570.177 329.913 570.576 329.913 571.04C329.913 571.528 329.782 571.954 329.519 572.317C329.256 572.673 328.88 572.948 328.393 573.142C327.905 573.335 327.332 573.432 326.674 573.432C326.024 573.432 325.455 573.335 324.968 573.142C324.488 572.948 324.116 572.673 323.853 572.317C323.59 571.954 323.459 571.528 323.459 571.04C323.459 570.576 323.579 570.177 323.818 569.845C324.066 569.512 324.422 569.256 324.887 569.078C324.515 568.9 324.233 568.664 324.039 568.37C323.846 568.076 323.749 567.728 323.749 567.325C323.749 566.876 323.869 566.486 324.109 566.153C324.356 565.82 324.701 565.565 325.142 565.387C325.583 565.209 326.094 565.12 326.674 565.12C327.263 565.12 327.777 565.209 328.218 565.387C328.667 565.565 329.012 565.82 329.252 566.153C329.499 566.486 329.623 566.876 329.623 567.325C329.623 567.72 329.523 568.068 329.321 568.37C329.128 568.664 328.845 568.9 328.474 569.078ZM326.674 566.06C326.125 566.06 325.691 566.18 325.374 566.42C325.057 566.652 324.898 566.969 324.898 567.372C324.898 567.774 325.053 568.092 325.363 568.324C325.68 568.556 326.117 568.672 326.674 568.672C327.239 568.672 327.681 568.556 327.998 568.324C328.323 568.092 328.486 567.774 328.486 567.372C328.486 566.969 328.319 566.652 327.986 566.42C327.661 566.18 327.224 566.06 326.674 566.06ZM326.674 572.492C327.317 572.492 327.824 572.36 328.195 572.097C328.567 571.826 328.753 571.462 328.753 571.006C328.753 570.557 328.567 570.205 328.195 569.949C327.824 569.686 327.317 569.554 326.674 569.554C326.032 569.554 325.529 569.686 325.165 569.949C324.801 570.205 324.62 570.557 324.62 571.006C324.62 571.462 324.801 571.826 325.165 572.097C325.529 572.36 326.032 572.492 326.674 572.492ZM333.298 568.451C334.459 568.451 335.311 568.672 335.852 569.113C336.402 569.547 336.677 570.143 336.677 570.901C336.677 571.381 336.561 571.814 336.328 572.201C336.104 572.581 335.76 572.882 335.295 573.107C334.838 573.324 334.273 573.432 333.6 573.432C333.027 573.432 332.474 573.347 331.94 573.177C331.406 572.999 330.965 572.755 330.616 572.445L331.151 571.528C331.429 571.791 331.785 572.004 332.219 572.167C332.652 572.321 333.109 572.399 333.589 572.399C334.2 572.399 334.672 572.271 335.005 572.016C335.345 571.752 335.516 571.396 335.516 570.948C335.516 570.46 335.33 570.092 334.958 569.845C334.587 569.589 333.952 569.462 333.054 569.462H331.209L331.638 565.212H336.224V566.222H332.613L332.393 568.451H333.298ZM339.294 569.578C338.729 569.578 338.272 569.373 337.924 568.962C337.576 568.552 337.402 568.018 337.402 567.36C337.402 566.702 337.576 566.168 337.924 565.758C338.272 565.348 338.729 565.143 339.294 565.143C339.859 565.143 340.312 565.348 340.652 565.758C341.001 566.161 341.175 566.695 341.175 567.36C341.175 568.026 341.001 568.564 340.652 568.974C340.312 569.376 339.859 569.578 339.294 569.578ZM344.193 565.212H345.087L339.538 573.339H338.644L344.193 565.212ZM339.294 568.916C339.65 568.916 339.929 568.78 340.13 568.51C340.331 568.231 340.432 567.848 340.432 567.36C340.432 566.873 340.331 566.493 340.13 566.222C339.929 565.944 339.65 565.805 339.294 565.805C338.946 565.805 338.667 565.944 338.458 566.222C338.257 566.501 338.156 566.88 338.156 567.36C338.156 567.84 338.257 568.219 338.458 568.498C338.667 568.777 338.946 568.916 339.294 568.916ZM344.437 573.409C343.872 573.409 343.415 573.208 343.067 572.805C342.727 572.395 342.556 571.857 342.556 571.191C342.556 570.526 342.727 569.992 343.067 569.589C343.415 569.179 343.872 568.974 344.437 568.974C345.002 568.974 345.459 569.179 345.807 569.589C346.155 569.999 346.329 570.533 346.329 571.191C346.329 571.849 346.155 572.383 345.807 572.793C345.459 573.204 345.002 573.409 344.437 573.409ZM344.437 572.747C344.785 572.747 345.06 572.608 345.261 572.329C345.47 572.05 345.575 571.671 345.575 571.191C345.575 570.711 345.47 570.332 345.261 570.054C345.06 569.775 344.785 569.636 344.437 569.636C344.081 569.636 343.802 569.775 343.601 570.054C343.4 570.325 343.299 570.704 343.299 571.191C343.299 571.679 343.4 572.062 343.601 572.341C343.802 572.612 344.081 572.747 344.437 572.747Z" fill="#F8F8F8"/>
<path d="M143.692 575.153C146.38 575.153 148.558 572.974 148.558 570.287C148.558 567.6 146.38 565.422 143.692 565.422C141.004 565.422 138.826 567.6 138.826 570.287C138.826 572.974 141.004 575.153 143.692 575.153Z" fill="url(#paint3_linear)"/>
<path d="M230.866 570.287C230.866 573.037 228.75 575.153 226 575.153C223.249 575.153 221.133 573.037 221.133 570.287C221.133 567.537 223.249 565.422 226 565.422C228.75 565.422 230.866 567.537 230.866 570.287Z" fill="url(#paint4_linear)"/>
<path d="M309.785 575.153C312.472 575.153 314.651 572.974 314.651 570.287C314.651 567.6 312.472 565.422 309.785 565.422C307.097 565.422 304.918 567.6 304.918 570.287C304.918 572.974 307.097 575.153 309.785 575.153Z" fill="url(#paint5_linear)"/>
<defs>
<linearGradient id="paint0_linear" x1="148.088" y1="423.371" x2="335.562" y2="423.371" gradientUnits="userSpaceOnUse">
<stop offset="0.00510204" stop-color="#E3B04B"/>
<stop offset="1" stop-color="#E3B04B"/>
</linearGradient>
<linearGradient id="paint1_linear" x1="127.341" y1="447.749" x2="356.307" y2="447.749" gradientUnits="userSpaceOnUse">
<stop stop-color="#E34B4B"/>
</linearGradient>
<linearGradient id="paint2_linear" x1="241.821" y1="348.493" x2="241.821" y2="498.242" gradientUnits="userSpaceOnUse">
<stop offset="0.00510204" stop-color="#4BE3BF"/>
</linearGradient>
<linearGradient id="paint3_linear" x1="138.804" y1="570.196" x2="148.533" y2="570.196" gradientUnits="userSpaceOnUse">
<stop stop-color="#E34B4B"/>
<stop offset="0.9949" stop-color="#E34B4B"/>
</linearGradient>
<linearGradient id="paint4_linear" x1="221.202" y1="570.196" x2="230.93" y2="570.196" gradientUnits="userSpaceOnUse">
<stop offset="0.00510204" stop-color="#E3B04B"/>
</linearGradient>
<linearGradient id="paint5_linear" x1="305.007" y1="570.196" x2="314.735" y2="570.196" gradientUnits="userSpaceOnUse">
<stop offset="0.00510204" stop-color="#4BE3BF"/>
</linearGradient>
</defs>
</svg>
