<svg width="230" height="37" viewBox="0 0 230 37" fill="none" xmlns="http://www.w3.org/2000/svg">
<path fill-rule="evenodd" clip-rule="evenodd" d="M52.505 14.1153L52.6714 14.2817L57.6931 8.9891L57.5418 8.82269L52.505 14.1153ZM43.0819 30.0386L43.2332 30.2201L38.6199 35.0741L38.4383 34.9684L43.0819 30.0386ZM43.9894 30.0689L44.1559 30.235L38.1358 36.5864L37.9242 36.4654L43.9894 30.0689ZM44.7457 31.2938L44.9121 31.4599L39.6938 36.9492L39.4519 36.8737L44.7457 31.2938ZM53.5335 14.947L59.4171 8.82269L59.5684 8.9891L53.6847 15.1134L53.5335 14.947ZM53.488 16.0813L61.444 7.70361L61.5953 7.87001L53.6393 16.2474L53.488 16.0813ZM53.1555 14.4026L63.123 3.92322L63.2894 4.08962L53.3068 14.569L53.1555 14.4026ZM56.1502 6.62999L50.9167 12.0587V11.7262L55.908 6.50905L56.1502 6.62999ZM37.4402 25.9708L30.9363 32.8208L31.0421 33.0479L37.4402 26.3185V25.9708ZM52.2177 12.7543L56.9368 7.73392L56.7552 7.61298L56.7249 7.64329L52.021 12.6031L52.2177 12.7543ZM38.1206 27.2712L33.2806 32.3674L33.4015 32.5941L38.2567 27.4679L38.1206 27.2712ZM51.8394 6.13107L45.9254 12.3612L45.7742 12.1645L51.6127 5.97982L51.8394 6.13107ZM46.7423 12.1345L55.3788 3.00085L55.5301 3.16726L46.9239 12.3009L46.7423 12.1345ZM43.3541 6.97796L25.2491 26.0463V25.7138L42.9758 7.03828L43.3541 6.97796ZM43.3541 8.08189L28.3647 23.8085L28.395 23.4453L42.9458 8.14221L43.3541 8.08189ZM45.9557 6.29748L28.2286 24.9727L28.2741 24.5796L45.5474 6.38811L45.9557 6.29748ZM49.4497 3.60586L32.3427 21.6461V21.2981L49.0414 3.69649L49.4497 3.60586ZM45.2598 35.7849H45.4717C45.6078 35.8149 45.6381 35.7092 45.8499 35.4824L59.7651 20.8295C60.0676 20.5118 59.977 20.6782 59.977 20.2548C59.9164 20.3003 59.8106 20.4212 59.75 20.4815L54.0024 26.5455C53.6847 26.8781 53.5032 27.2109 53.1704 27.6192C52.8982 27.9365 52.7924 28.0575 52.4899 28.36C52.4444 28.4054 52.4141 28.4206 52.3689 28.4809L52.1267 28.7079L52.0058 28.8289C51.9152 28.9043 51.8394 28.965 51.7488 29.0556C51.6578 29.1162 51.5824 29.1917 51.4914 29.2523C51.295 29.3884 46.5304 34.454 45.7135 35.316C45.6532 35.3463 45.2901 35.7243 45.2598 35.7849ZM47.1809 35.7849C47.2412 35.7849 47.4986 35.7698 47.5437 35.7395C47.6195 35.694 58.3735 24.3528 59.75 22.8861C59.7803 22.8406 59.9315 22.7045 59.9467 22.6591C59.977 22.5987 59.977 22.3717 59.9921 22.2811C59.9164 22.3114 59.251 23.037 59.1753 23.1128C58.0259 24.3377 47.2412 35.6789 47.1809 35.7849ZM46.1825 35.8301C46.2734 35.8301 46.2885 35.8149 46.364 35.8149C46.5456 35.8149 46.4698 35.8301 46.7575 35.5428C46.9087 35.3915 47.0448 35.2406 47.1961 35.0893L59.7348 21.8728C59.9315 21.6612 59.9921 21.6309 60.007 21.54V21.2378C59.9467 21.2829 59.8557 21.389 59.7954 21.4645L47.0448 34.8926C46.8936 35.0438 46.7574 35.1951 46.6062 35.3463C46.5456 35.4218 46.1976 35.7698 46.1825 35.8301ZM48.2397 35.6488C48.3454 35.6488 48.4815 35.6185 48.5573 35.6034C48.6479 35.5882 48.6631 35.5579 48.754 35.437L59.6593 23.9597C59.8409 23.763 59.7954 23.8536 59.8409 23.5814C59.8582 23.5278 59.8682 23.4717 59.8709 23.4153L48.2397 35.6488ZM49.4345 35.4067C49.5103 35.4067 49.8428 35.3312 49.9186 35.2554L59.145 25.5474C59.2507 25.4265 59.3568 25.3207 59.4626 25.2146C59.5232 25.1543 59.5384 25.0785 59.5684 24.9879C59.5836 24.9124 59.6139 24.7611 59.6442 24.7157C59.5684 24.746 59.0695 25.3055 59.0089 25.381C58.0559 26.3185 49.4951 35.316 49.4345 35.4067ZM32.9177 17.0188L42.1593 7.28016C42.0986 7.28016 41.781 7.38625 41.7207 7.41626C41.6449 7.46173 40.9341 8.21799 40.8432 8.30862L33.326 16.2325C33.2503 16.308 33.0838 16.4592 33.0538 16.5499C33.0387 16.6257 32.9326 16.9582 32.9177 17.0188ZM50.7806 34.9832C50.8564 34.9832 50.9167 34.9381 50.9774 34.9229C51.295 34.802 51.2647 34.8323 51.4766 34.6052L58.8576 26.8326C58.9937 26.6965 59.0089 26.6968 59.0846 26.5152L59.2359 26.0918L50.7806 34.9832ZM33.5076 15.4008L40.6467 7.88517C40.5861 7.90033 40.0869 8.14221 40.0417 8.18767L34.2336 14.2969C34.0833 14.4492 33.9371 14.6055 33.7949 14.7655C33.7192 14.8412 33.6889 14.9773 33.6285 15.0831C33.5982 15.1286 33.5076 15.3553 33.5076 15.4008ZM38.3628 15.9752C38.2567 16.0358 33.1748 21.419 32.5849 22.0544C32.5243 22.1147 32.4337 22.1905 32.3882 22.2659C32.3427 22.3266 32.3579 22.3417 32.3731 22.4172C32.3882 22.5078 32.3731 22.5381 32.3882 22.6139C32.494 22.5533 37.3192 17.4271 37.7427 16.9733C37.9542 16.7466 37.9242 16.7466 38.0603 16.5047C38.1055 16.4138 38.1509 16.3383 38.1964 16.2474C38.2267 16.2022 38.2419 16.1871 38.2719 16.1264C38.3174 16.0661 38.3477 16.0206 38.3628 15.9752ZM41.176 13.0114L41.8871 12.5879C42.0232 12.5124 45.5474 8.73206 45.9103 8.36894L47.2564 6.94765C47.3018 6.90218 47.4228 6.81155 47.4379 6.72092C47.0145 6.72092 47.2867 6.53936 46.5304 7.34078C46.1221 7.79454 41.2366 12.9056 41.176 13.0114ZM39.8905 18.3949C40.2685 18.3949 40.1475 18.4552 40.4046 18.183L45.3962 12.9207C45.4868 12.8301 45.6987 12.6182 45.759 12.5276C45.6987 12.5276 45.4565 12.5428 45.4262 12.5579C45.3356 12.5879 45.2901 12.6789 45.2298 12.724L40.0569 18.1679C40.0114 18.2285 39.9056 18.3191 39.8905 18.3949ZM52.4899 34.2121C52.6563 34.1215 53.0949 33.8944 53.2007 33.7887L57.8895 28.8592C57.9501 28.7986 58.0107 28.7231 58.071 28.6625C58.1771 28.5567 58.4038 28.0575 58.4796 27.8913C58.4038 27.9214 57.7837 28.587 57.7234 28.6625L52.6563 34.0005C52.6108 34.0457 52.505 34.1366 52.4899 34.2121ZM38.9224 18.3949C39.3158 18.3949 39.2249 18.4249 39.4367 18.1982L44.5035 12.8601C44.549 12.815 44.6548 12.724 44.6699 12.6637C44.6248 12.694 44.4584 12.7092 44.3826 12.724C44.2162 12.7695 44.2616 12.7543 44.1407 12.8601C43.6112 13.4348 38.983 18.2888 38.9224 18.3949ZM49.9941 30.1444C49.9337 30.1444 49.9337 30.1595 49.8883 30.1898L49.5251 30.3411C49.4194 30.3862 49.253 30.5678 49.1623 30.6736L44.7457 35.3312C44.6548 35.4218 44.4584 35.6034 44.4129 35.694C44.7457 35.7698 44.7154 35.7243 44.897 35.5428C45.3962 34.9984 49.9337 30.2501 49.9941 30.1444ZM54.6226 25.2752L57.8292 21.9183C57.814 21.8273 57.7988 21.7215 57.7988 21.6158C57.7382 21.6309 57.6779 21.7215 57.6324 21.767L57.466 21.9483L54.9705 24.5493C54.789 24.746 54.8344 24.7308 54.7283 25.003C54.698 25.0936 54.6377 25.1997 54.6226 25.2752ZM40.8283 18.3798C41.1911 18.3798 41.1005 18.4249 41.3272 18.1982L45.7135 13.5709C45.8196 13.45 45.9406 13.3442 46.0615 13.2081C46.107 13.1626 46.0918 13.1626 46.1221 13.0871C46.1524 12.9962 46.2279 12.7543 46.2431 12.6637L40.8283 18.3798ZM43.0516 12.0435C43.0819 12.0435 43.4751 11.9074 43.5205 11.8774C43.6263 11.7713 43.7324 11.6504 43.8382 11.5446C44.201 11.1666 48.2245 6.94765 48.2851 6.85702C47.9675 6.78124 47.9975 6.81156 47.8462 6.97796C47.7404 7.0989 47.6347 7.20469 47.5289 7.31047C47.4228 7.43142 47.317 7.5375 47.2112 7.64329L43.6869 11.3782C43.596 11.454 43.0971 11.9681 43.0516 12.0435ZM38.3931 18.2888L43.3844 13.0417C43.2784 13.0568 43.0365 13.1778 42.9307 13.2232C42.8246 13.2684 42.8246 13.2684 42.7491 13.3593L38.6956 17.6235C38.5592 17.7596 38.5592 17.8354 38.4686 18.0469C38.4534 18.1076 38.408 18.2133 38.3931 18.2888ZM43.566 35.5731C43.6415 35.5731 43.7776 35.6185 43.8533 35.6185L48.5119 30.6888C48.4212 30.7039 48.3454 30.7342 48.27 30.7342C47.9826 30.8097 48.1339 30.7191 47.7556 31.1425C47.4076 31.5205 43.6263 35.4824 43.566 35.5731ZM55.1518 23.6875C55.2427 23.6269 61.0358 17.5026 61.5047 17.0188C61.6711 16.8524 61.6711 16.913 61.6105 16.5802C61.5047 16.6408 55.8174 22.6894 55.303 23.2186C55.2276 23.2944 55.2427 23.3092 55.2124 23.4453C55.1821 23.506 55.1518 23.6269 55.1518 23.6875ZM44.3523 11.6504C44.428 11.6504 44.5187 11.6204 44.5945 11.6052C44.7154 11.5749 44.7306 11.6052 44.806 11.5295C45.4262 10.849 46.1825 10.093 46.8026 9.41254L49.7522 6.26717C49.7219 6.25201 49.5251 6.20655 49.4648 6.20655L44.3523 11.6504ZM32.6001 24.0503C32.6001 24.1561 32.6301 24.2471 32.6453 24.3528C32.7059 24.3074 33.704 23.2338 33.7949 23.1431L36.6687 20.1187C36.7745 20.0129 36.8503 19.922 36.9561 19.8162C37.0922 19.6801 37.0167 19.4988 37.0922 19.3324C37.0167 19.3627 36.593 19.8465 36.5175 19.9068C36.3359 20.1035 36.1544 20.3003 35.9579 20.4967L32.6001 24.0503ZM42.8097 35.3915C42.8852 35.4067 42.9458 35.437 43.0213 35.437C43.0971 35.4521 43.1271 35.3915 43.1877 35.3312L47.09 31.218L47.2264 31.0819C47.2715 31.0367 47.3321 30.9913 47.3473 30.9306C47.1961 31.0064 47.06 30.8855 46.9087 31.0516C46.8178 31.1577 46.7423 31.2331 46.6362 31.3389L46.0767 31.9288L43.0516 35.1193C43.0213 35.1345 42.8246 35.3312 42.8097 35.3915ZM45.4413 11.5143L45.6835 11.4992C45.7893 11.4992 45.8045 11.4691 45.8648 11.4085C46.4398 10.7735 47.1354 10.0627 47.7253 9.44286C47.7859 9.38223 49.8128 7.26531 49.858 7.18953C49.7825 7.14407 49.6615 7.14407 49.6009 7.11406L45.4413 11.5143ZM55.3637 22.4927L62.4122 15.0831C62.397 14.9925 62.3667 14.8864 62.3516 14.7958L59.0543 18.2588C58.8728 18.4552 58.6912 18.6368 58.4945 18.8484C57.5115 19.892 56.4679 21.0107 55.4694 22.0392C55.3788 22.1147 55.394 22.0844 55.3788 22.2356C55.3788 22.2962 55.3637 22.4172 55.3637 22.4927ZM32.842 25.124C32.9177 25.1088 33.326 24.6402 33.3864 24.5796C33.5679 24.3832 33.7495 24.2016 33.9159 24.02C34.884 23.007 35.867 21.9334 36.8351 20.9353C36.8955 20.8747 36.9258 20.8747 36.9258 20.7537C36.9258 20.6479 36.9409 20.5873 36.9409 20.4815C36.8806 20.527 35.9428 21.5251 35.8519 21.6158L32.8723 24.746C32.721 24.9124 32.7665 24.8214 32.842 25.124ZM50.0395 23.7175L50.1153 23.9749L54.2897 19.5895C54.2746 19.4988 54.2443 19.4079 54.2443 19.3021L50.0395 23.7175ZM42.0383 35.1648C42.0835 35.1799 42.2499 35.2254 42.2802 35.2406L46.2885 31.0064C45.8951 30.9913 46.0012 30.9609 45.6077 31.3692C45.3356 31.6869 42.0986 35.0742 42.0383 35.1648ZM50.2814 24.4738L50.3572 24.7308C50.4327 24.6854 52.3689 22.6139 52.4292 22.5533L54.2294 20.6479L54.3655 20.5118C54.4258 20.4364 54.3955 20.3757 54.3955 20.2851C54.3807 20.1187 54.4107 20.1338 54.1839 20.3757C53.7605 20.8143 50.342 24.4132 50.2814 24.4738ZM50.5084 25.2449C50.5236 25.2904 50.5691 25.4416 50.5839 25.5019C50.6445 25.4868 50.69 25.4265 50.7203 25.381L54.3352 21.5703C54.4561 21.4342 54.4258 21.4645 54.4258 21.1317L50.5084 25.2449ZM55.394 20.4212C55.4543 20.406 55.8326 19.9978 55.878 19.9371L62.397 13.072C62.397 12.9962 62.3364 12.8904 62.3212 12.815C62.2306 12.8753 55.8932 19.5895 55.4694 20.0129C55.3182 20.1793 55.394 20.1035 55.394 20.4212ZM42.9004 29.2372C42.9758 29.2675 43.0819 29.3126 43.1423 29.3429L47.06 25.2146L46.8784 25.0785L42.9004 29.2372ZM42.2651 28.9195C42.356 28.9498 42.4011 28.9953 42.4921 29.0253L46.5001 24.8063C46.4095 24.746 46.3943 24.7914 46.1976 24.9575L45.6077 25.4113C45.3659 25.608 44.5641 26.4849 44.3071 26.7571L42.386 28.7834C42.3408 28.8137 42.2802 28.844 42.2651 28.9195ZM43.5809 29.4942C43.6415 29.5397 43.7473 29.5545 43.823 29.5848L47.574 25.638C47.5437 25.5929 47.4228 25.5171 47.3925 25.4868L43.5809 29.4942ZM38.9072 25.3961C38.9375 25.4719 38.983 25.5322 39.013 25.6229C39.0888 25.5929 39.8602 24.746 39.9208 24.6854L42.5072 21.9483C42.5372 21.9031 42.5979 21.8728 42.613 21.8122C42.5827 21.7973 42.4921 21.7215 42.4315 21.6761L38.9072 25.3961ZM33.8101 27.7853L33.9159 28.0123C33.9765 27.9668 37.3795 24.3528 37.3795 24.3528C37.3795 24.2619 37.3192 24.2016 37.3192 24.0958C37.2586 24.111 36.9258 24.4889 36.8803 24.5341L34.0368 27.5434C33.9614 27.6192 33.8401 27.7098 33.8101 27.7853ZM40.6467 34.6204C40.7222 34.6204 40.8132 34.6962 40.8735 34.6962C40.9341 34.6962 41.7358 33.8038 41.7961 33.7435L43.6263 31.823C43.7927 31.6566 43.9288 31.5053 44.0801 31.3389L44.5338 30.84C44.4584 30.8248 44.3523 30.7945 44.2768 30.7945C44.2768 30.8097 40.6919 34.5601 40.6467 34.6204ZM48.8901 11.9074L49.132 11.9832C49.1775 11.9074 49.9186 11.1515 49.9941 11.0609L52.4899 8.42956C52.5202 8.38409 52.5805 8.36893 52.5957 8.29346C52.505 8.26315 52.4596 8.21799 52.3689 8.18767C52.3083 8.23284 52.2025 8.33893 52.1419 8.4144L51.9152 8.64113C51.7639 8.79238 51.6278 8.94363 51.4766 9.09488L49.7219 10.9399C49.5706 11.0909 49.4345 11.2421 49.2833 11.3934L48.9656 11.7262C48.9504 11.8168 48.905 11.8471 48.8901 11.9074ZM41.7961 18.3798C42.2047 18.3798 42.0535 18.4552 42.4466 18.0318C43.4599 16.9582 44.5187 15.8242 45.5474 14.7655C45.6229 14.7051 45.6078 14.7203 45.6532 14.6142L45.7742 14.2059L41.7961 18.3798ZM44.3523 29.7209C44.7002 29.7664 44.5035 29.9176 44.9273 29.4639L48.0429 26.1673C48.0733 26.1221 48.1339 26.0918 48.1487 26.0312C48.1187 26.016 48.0278 25.9405 47.9675 25.8951L44.3523 29.7209ZM50.7352 26.0012L50.8109 26.2582C50.8864 26.2127 53.458 23.4908 53.5941 23.3244L54.3049 22.5987C54.3655 22.5381 54.3804 22.2811 54.3804 22.1753L50.7352 26.0012ZM55.2427 19.2415C55.2427 19.3324 55.273 19.4231 55.273 19.5288L60.2492 14.2969C60.2492 14.2514 60.2189 14.2211 60.2189 14.1759L60.1734 14.0398L55.2427 19.2415ZM38.2116 33.1536C38.2419 33.1991 38.3628 33.2897 38.3931 33.3049C38.4838 33.2443 41.0247 30.5527 41.3121 30.2501C41.3575 30.205 41.7055 29.857 41.7207 29.7967L41.4936 29.6758L38.2116 33.1536ZM48.1487 11.711C48.5119 11.711 48.1942 11.9832 48.8447 11.2876C48.995 11.1351 49.1411 10.9787 49.2833 10.8187C49.5858 10.5013 49.8731 10.1988 50.1756 9.88115L51.8545 8.1119C51.8849 8.06673 51.9452 8.05158 51.9603 7.9758L51.7336 7.87001C51.6881 7.94579 48.6631 11.1212 48.2397 11.5446C48.2093 11.6204 48.1639 11.6504 48.1487 11.711ZM33.5076 27.1199C33.5228 27.1654 33.5831 27.3015 33.6134 27.347L37.198 23.5814C37.1831 23.5514 37.1528 23.3547 37.1376 23.3092L33.5076 27.1199ZM34.8689 29.6606L35.005 29.857L38.287 26.3943C38.2719 26.3488 38.2567 26.3185 38.2267 26.2733C38.1964 26.2279 38.1964 26.2127 38.1813 26.1673C38.1055 26.1976 37.4098 26.9538 37.3492 27.0293C37.168 27.2409 34.9292 29.5697 34.8689 29.6606ZM33.4015 22.5078L33.9159 21.9634C34.2487 21.6158 37.2586 18.4552 37.2889 18.3949C37.3192 18.3494 37.3795 18.0773 37.425 17.9715C37.3795 17.9866 35.3529 20.149 35.3529 20.149L33.5376 22.0544C33.3715 22.2508 33.4015 22.1601 33.4015 22.5078ZM54.1839 16.3231C54.2143 16.3986 54.2594 16.4592 54.2897 16.5499C54.3655 16.5196 55.0611 15.7636 55.1218 15.6881L57.1938 13.5106C57.2996 13.4045 57.5418 13.1778 57.6173 13.072C57.6021 12.9962 57.5266 12.9207 57.4963 12.8601L54.1839 16.3231ZM53.6999 19.1963C53.6244 19.2266 53.0191 19.7104 52.883 19.801L52.6108 20.0129C52.4141 20.1642 49.8428 22.8861 49.8128 22.9464C49.8277 22.9919 49.8731 23.1583 49.8883 23.2034L53.6999 19.1963ZM35.7309 30.7794C35.7612 30.8552 35.8367 30.9155 35.867 30.9761L39.1191 27.5737C39.0888 27.5282 39.013 27.4224 38.9678 27.3921C38.892 27.4224 38.2267 28.1635 38.1509 28.2239C37.9694 28.4054 35.7915 30.6736 35.7309 30.7794ZM36.6536 31.7927C36.6839 31.8533 36.7745 31.9288 36.82 31.9742L40.0417 28.5718C40.0114 28.5264 39.8905 28.4357 39.8753 28.4054L36.6536 31.7927ZM39.6786 26.6059C39.7241 26.6816 39.7844 26.742 39.8299 26.8026C39.9208 26.742 42.4921 23.9897 42.7946 23.6875C42.9004 23.5666 42.9004 23.5814 42.961 23.4153C42.991 23.3092 43.0668 23.1583 43.0668 23.0674L39.6786 26.6059ZM34.1429 28.4509C34.1729 28.5112 34.2487 28.6018 34.2487 28.6776C34.3393 28.6321 37.6369 25.0936 37.6369 25.0936C37.6369 25.0485 37.5762 24.9275 37.5611 24.8518L34.1429 28.4509ZM50.8564 12.815C50.947 12.8453 50.9774 12.9056 51.0831 12.9359L54.3504 9.50317C54.32 9.45771 54.2143 9.38223 54.1688 9.35192L50.8564 12.815ZM54.5316 17.0036L54.6377 17.2304L58.0259 13.6767C57.9956 13.6315 57.9198 13.5406 57.9198 13.4803C57.8595 13.4954 57.557 13.8583 57.4812 13.9037C57.209 14.1608 54.5771 16.9279 54.5316 17.0036ZM49.6009 12.1648C49.6764 12.2099 49.7522 12.2251 49.8277 12.2706L56.483 5.29934C56.4376 5.26903 56.3166 5.19355 56.2712 5.1784L49.6009 12.1648ZM51.9906 13.6315C52.0816 13.6767 52.1267 13.7676 52.1722 13.7828L55.394 10.3955C55.3637 10.3501 55.3637 10.3501 55.303 10.3046C55.273 10.2743 55.2427 10.2594 55.1973 10.2291L51.9906 13.6315ZM45.154 29.8722C45.2598 29.8722 45.3659 29.9025 45.4565 29.9176L48.7086 26.4849C48.6631 26.4698 48.5725 26.3791 48.527 26.3488L45.154 29.8722ZM48.4512 18.3798C48.8598 18.3798 48.7086 18.4401 49.0262 18.1076L51.9603 14.9925L51.7939 14.8261L48.4512 18.3798ZM38.7863 33.5771C38.862 33.6223 38.9527 33.6829 38.9981 33.698L42.386 30.1444C42.3065 30.1183 42.2303 30.0828 42.1593 30.0386L38.7863 33.5771ZM48.179 17.6538C48.179 17.6993 48.2397 17.8805 48.2548 17.9108L51.4614 14.5387C51.4311 14.4933 51.3253 14.4026 51.2799 14.3875C51.2041 14.4481 48.179 17.6538 48.179 17.6538ZM37.6669 32.7454C37.7427 32.7908 37.7881 32.8511 37.8484 32.8966L41.1157 29.4336L40.9341 29.2975L37.6669 32.7454ZM50.9774 26.7571C50.9774 26.8177 51.0228 26.9387 51.0377 27.0141C51.1134 26.9838 51.8091 26.2279 51.8697 26.1521L53.9118 23.9897C54.0175 23.8688 54.0175 23.8991 54.063 23.7327C54.093 23.6269 54.1233 23.506 54.1536 23.385C54.093 23.4453 50.9774 26.7571 50.9774 26.7571ZM37.168 32.2764C37.198 32.3219 37.2889 32.4125 37.3344 32.4428L40.5861 29.0253L40.4197 28.874L37.168 32.2764ZM34.5967 13.2684L38.5895 9.06457C38.5141 9.07973 38.0906 9.39739 37.9997 9.48802C37.8333 9.62411 37.425 9.92662 37.3041 10.0779C37.2586 10.1233 37.2283 10.1533 37.1831 10.214L35.5645 11.9226C35.3226 12.1648 35.005 12.6789 34.7931 12.9662C34.7628 12.9814 34.6115 13.2232 34.5967 13.2684ZM46.0121 29.9328C46.1179 29.9328 46.2994 29.9628 46.3752 29.9176C46.3901 29.9025 49.1732 26.999 49.2187 26.8932C49.1429 26.8477 49.0978 26.7874 49.022 26.7571L46.0121 29.9328ZM36.1847 31.3089L36.3511 31.4902L39.588 28.0878C39.5425 28.0426 39.467 27.982 39.4367 27.9214C39.361 27.9517 38.6956 28.6928 38.6199 28.7531C38.4231 28.9498 36.2604 31.2483 36.1847 31.3089ZM38.2828 24.02L38.3583 24.2471C38.434 24.2167 39.0694 23.5211 39.1297 23.4453C39.2961 23.2641 41.4136 21.0562 41.4742 20.9807C41.4439 20.9656 41.3533 20.8898 41.2927 20.8446L38.2828 24.02ZM34.0941 24.8063C34.1699 24.7914 34.2302 24.6854 34.2757 24.6402L35.5763 23.2792C35.8185 23.0222 36.0755 22.7648 36.3177 22.4927L36.8773 21.9031C36.9227 21.8425 36.9076 21.6309 36.9076 21.54C36.8318 21.5703 36.2116 22.2356 36.1362 22.3265L34.2605 24.3074C34.1999 24.368 34.1396 24.4435 34.079 24.5041C33.9883 24.5644 34.079 24.625 34.0941 24.8063ZM49.3463 18.3949C49.7243 18.3949 49.6033 18.4704 49.8607 18.1982L50.9495 17.0491L51.6606 16.2928L52.1898 15.7333C52.2353 15.6881 52.3562 15.5972 52.3562 15.5217C52.3259 15.4611 52.2504 15.4308 52.2353 15.3553C52.1598 15.3553 52.1295 15.4308 52.0385 15.5217L50.0571 17.6083C49.9362 17.7444 49.8152 17.8505 49.6943 17.9866C49.6185 18.0924 49.4069 18.304 49.3463 18.3949ZM38.1312 23.2186C38.1312 23.3395 38.1767 23.385 38.1767 23.4908C38.2522 23.4605 38.8117 22.8406 38.8875 22.7649C39.0539 22.5987 40.9296 20.6328 40.9899 20.5573C40.9296 20.5118 40.8538 20.4363 40.7932 20.4212C40.7025 20.4815 38.1312 23.2186 38.1312 23.2186ZM55.1054 18.4401C55.1357 18.531 55.166 18.6216 55.166 18.6971L59.1892 14.4481L59.0228 14.2817L55.1054 18.4401ZM47.073 29.8873C47.451 29.857 47.421 29.857 47.5722 29.7209C47.8141 29.479 49.7955 27.4073 49.841 27.3167L49.6594 27.1806L47.073 29.8873ZM42.6779 18.3798C43.1165 18.3798 42.9349 18.4704 43.4948 17.8805L45.1131 16.1719C45.1434 16.1264 45.2795 15.7181 45.2795 15.6578L42.6779 18.3798ZM54.8023 17.669C54.8326 17.7444 54.8629 17.8202 54.8929 17.9108C54.9687 17.8805 55.4073 17.3968 55.4679 17.3213C55.6643 17.1094 55.8459 16.913 56.0426 16.7163C56.1333 16.6257 57.1469 15.5669 57.192 15.4914L57.0256 15.325L54.8023 17.669ZM37.9797 22.3869C37.9797 22.4626 38.01 22.5987 38.01 22.6742L40.4149 20.149C40.3846 20.1035 40.2788 20.0281 40.2333 19.9978L37.9797 22.3869ZM40.1015 27.1502L40.2679 27.3167C40.3736 27.256 42.4157 25.0636 42.4157 25.0636C42.446 25.0182 42.567 24.625 42.567 24.5644L40.1015 27.1502ZM50.4072 18.3798C50.8306 18.3798 50.6491 18.4552 51.1483 17.9412L51.7382 17.3213L52.6154 16.3986C52.6911 16.3232 52.8575 16.1719 52.9179 16.0813L52.8878 16.0358L52.7818 15.8997L50.4072 18.3798ZM53.6002 24.9575L51.165 27.5131L51.2404 27.7704C51.3162 27.7249 52.98 25.9557 53.1313 25.7893C53.2825 25.638 53.237 25.6986 53.3431 25.5171C53.3731 25.4719 53.3731 25.4719 53.4034 25.4113C53.4338 25.3207 53.585 25.0485 53.6002 24.9575ZM34.6455 24.8518C34.6606 24.9124 34.7061 25.0333 34.7361 25.0785C34.8119 25.0333 36.99 22.7045 36.99 22.7045C37.0049 22.6591 36.9597 22.4927 36.9597 22.4172L34.6455 24.8518ZM48.2854 29.6606C48.4215 29.6303 48.5425 29.6 48.6634 29.5545C48.7998 29.5094 48.8601 29.4184 48.9511 29.3278C49.072 29.1917 50.3878 27.8307 50.4333 27.7553C50.403 27.7098 50.2972 27.6343 50.2517 27.6192L48.2854 29.6606ZM37.9824 21.7367C38.043 21.7215 38.4213 21.3132 38.4816 21.2378L39.7974 19.8465C39.8429 19.801 39.9035 19.7859 39.9187 19.7104C39.8884 19.6649 39.7826 19.5895 39.7523 19.5743C39.6765 19.6198 38.2701 21.1317 38.0885 21.3284C37.9524 21.4645 37.9824 21.4039 37.9824 21.7367ZM51.3165 18.3798H51.5433C51.6493 18.3798 51.6493 18.3797 51.7097 18.3191C52.1444 17.8516 52.5831 17.3879 53.0258 16.9279C53.0861 16.8675 53.1922 16.7618 53.2525 16.686C53.2222 16.6105 53.1619 16.5499 53.1467 16.4744L51.3165 18.3798ZM40.5561 27.6492C40.5713 27.6795 40.7225 27.8004 40.7225 27.8156C40.798 27.7704 41.7055 26.7723 41.8719 26.621C41.9022 26.5755 41.9325 26.5755 41.9629 26.5152L42.099 26.0312L40.5561 27.6492ZM37.9797 20.784L39.3864 19.3021C39.3561 19.2567 39.2352 19.1812 39.2049 19.1509C39.1291 19.1963 38.2973 20.1035 38.1612 20.2396C38.0403 20.3757 37.9948 20.3757 37.9948 20.6025C37.9948 20.6934 37.9948 20.7234 37.9797 20.784ZM54.3476 32.9421C54.4383 32.9118 55.24 32.2161 55.3458 32.0952L56.3291 31.0667C56.3594 31.0216 56.3594 31.0064 56.4197 30.9609L56.5861 30.7494C56.6316 30.6887 56.6922 30.6133 56.7525 30.5375L57.1459 30.0083C57.1759 29.9628 57.2063 29.9328 57.2214 29.8873L54.3476 32.9421ZM55.4085 21.0865V21.4039L61.0048 15.4763L60.8384 15.3099L55.4085 21.0865ZM52.2259 18.3798C52.4226 18.3798 52.5284 18.4249 52.6038 18.3343L52.6796 18.2588C52.8006 18.1227 53.5117 17.3816 53.5568 17.3213L53.451 17.0943L52.2259 18.3798ZM43.2353 27.1654C43.175 27.1806 42.2826 27.8762 42.1765 27.9517C42.1011 28.0123 42.0556 28.0726 41.9801 28.1332C41.8892 28.2239 41.6776 28.4357 41.617 28.5264C41.6925 28.5718 41.7531 28.617 41.8137 28.6625L43.2353 27.1654ZM43.7388 18.3798C44.1622 18.3798 43.9807 18.4552 44.4799 17.9563C44.5557 17.8805 44.7218 17.7296 44.7521 17.6386C44.7824 17.5783 44.8882 17.2304 44.8882 17.1852L43.7388 18.3798ZM49.801 29.0859C49.8616 29.0859 50.3908 28.7834 50.4666 28.7079L50.8446 28.2996C50.8901 28.2542 50.9504 28.2239 50.9655 28.1484C50.9052 28.1332 50.8597 28.0575 50.784 28.0274L49.801 29.0859ZM38.1312 19.6198C38.2067 19.5895 38.842 18.9241 38.8572 18.8635C38.8269 18.8184 38.7211 18.7426 38.6756 18.7274C38.585 18.788 38.4034 18.9996 38.3128 19.0905C38.2067 19.1963 38.2219 19.1509 38.1919 19.3173C38.1767 19.3927 38.1464 19.5743 38.1312 19.6198ZM39.4952 16.051L41.2045 14.2362C41.159 14.2514 40.8413 14.5236 40.7807 14.569L40.3121 15.0225L40.297 15.0377L40.2667 15.0831C40.1218 15.2307 39.9805 15.382 39.8432 15.5369C39.8129 15.6124 39.5104 15.9752 39.4952 16.051ZM53.2867 18.3949C53.6044 18.3949 53.5741 18.4401 53.695 18.304C53.7708 18.2285 53.8918 18.1076 53.9372 18.0469C53.9069 17.9563 53.8766 17.9108 53.8614 17.8202C53.8011 17.8354 53.7557 17.9108 53.7102 17.9563C53.6196 18.0318 53.3171 18.3191 53.2867 18.3949ZM41.1157 28.1181C41.1911 28.1635 41.2214 28.2087 41.2972 28.2542C41.3879 28.1935 41.4936 28.0726 41.5391 27.9668C41.5694 27.8762 41.6449 27.6495 41.66 27.5434L41.1157 28.1181ZM50.2999 21.8273C50.2544 21.8425 50.1786 21.9031 50.1335 21.9483C50.0729 21.9937 50.0274 22.024 49.9671 22.0844L49.6494 22.3265C49.6646 22.3717 49.6797 22.4323 49.6949 22.4626L50.2999 21.8273ZM47.9823 16.913L48.0578 17.1549C48.1487 17.1094 49.4191 15.7333 49.51 15.6275L50.2359 14.8564L50.7806 14.2817C50.8561 14.2059 50.9467 14.1456 50.9467 14.055C50.9016 14.0398 50.8258 13.9792 50.7655 13.9337L47.9823 16.913ZM39.3437 26.0312C39.3588 26.0766 39.4495 26.1976 39.4646 26.2279C39.5556 26.1824 42.7015 22.8406 43.125 22.3717C43.1553 22.3266 43.2308 22.2962 43.2308 22.2356C43.1401 22.2056 43.125 22.145 43.0495 22.1147L39.3437 26.0312ZM38.5859 24.7308C38.6162 24.8366 38.6614 24.8821 38.6765 24.9727C38.7523 24.9424 39.4783 24.1561 39.5237 24.0958C39.675 23.9446 42.0041 21.4948 42.0495 21.419C42.0229 21.394 41.9923 21.3736 41.9589 21.3587L41.8528 21.2829L38.5859 24.7308ZM47.6792 16.1264C47.6792 16.2174 47.7398 16.2777 47.7398 16.3835C47.8153 16.3535 48.3145 15.7939 48.3748 15.7181C48.5946 15.4988 48.8065 15.2719 49.0102 15.0377L49.9783 14.0247C50.0689 13.9337 50.2505 13.7676 50.296 13.6767C50.0386 13.4954 50.0992 13.5406 49.7816 13.8734L47.6792 16.1264ZM47.5277 15.3705C47.5277 15.4308 47.5883 15.5972 47.6031 15.6427L49.7813 13.3593C49.7058 13.3139 49.6149 13.2684 49.5394 13.2384C49.4333 13.3893 47.5277 15.325 47.5277 15.3705ZM47.2564 14.6294C47.2715 14.7051 47.2867 14.8261 47.3322 14.8864C47.3925 14.8412 48.1187 14.055 48.2093 13.9792L48.9656 13.1929C48.9959 13.1475 49.0565 13.1175 49.0714 13.0568C49.0262 13.0568 48.875 12.9962 48.8295 12.9814L47.2564 14.6294ZM47.073 13.8734C47.073 13.964 47.1336 14.0247 47.1336 14.1305C47.2091 14.1001 47.2394 14.0247 47.2997 13.9792L48.0711 13.1626C48.1318 13.1023 48.3585 12.8904 48.3736 12.815C48.0108 12.7846 48.283 12.5731 47.6628 13.2384C47.6174 13.2836 47.073 13.8583 47.073 13.8734ZM46.7699 13.1323L46.8454 13.3745C46.9363 13.3139 47.1178 13.1023 47.2085 13.0114C47.2691 12.9511 47.3143 12.8904 47.3749 12.8301C47.4204 12.7846 47.5261 12.694 47.5413 12.6334C47.2388 12.6334 47.3749 12.4973 47.1027 12.7846C47.0118 12.8601 46.8305 13.0417 46.7699 13.1323ZM46.6335 12.6031L46.7241 12.5276H46.6183C46.6335 12.5731 46.6335 12.5731 46.6335 12.6031Z" fill="white"/>
<path d="M49.9524 30.1444H49.9676L49.9524 30.1293V30.1444ZM33.4772 15.4008L33.4924 15.416L33.5075 15.4008H33.4772ZM54.3475 32.9421L54.3627 32.957L54.3779 32.9421H54.3475ZM49.6493 29.086L49.6645 29.1011L49.6797 29.086H49.6493ZM50.7102 34.979L50.7254 34.9942V34.979H50.7102ZM38.4343 15.9134H38.4494L38.4343 15.8831V15.9134ZM48.2853 35.5852L48.3005 35.6156V35.5852H48.2853ZM38.4343 18.308L38.4494 18.3383V18.308H38.4343ZM41.1623 13.0035L41.1774 13.0187V13.0035H41.1623ZM57.2271 29.8565H57.2422L57.2271 29.8262V29.8565ZM53.7413 19.2325H53.7716L53.7565 19.2173L53.7413 19.2325ZM189.807 35.2973L202.144 20.8541L207.479 27.1739L201.371 34.782L202.023 35.3124L208.585 27.1588L202.144 19.5356L189.156 34.7517L189.807 35.2973Z" fill="white"/>
<path d="M202.174 23.0515L201.856 22.7787L190.944 35.4639H194.733L202.099 26.5221L202.872 27.3405L196.006 35.4639H199.583L206.357 27.2496L202.174 22.3998L201.856 22.7787L202.174 23.0515L201.856 23.3395L205.251 27.2647L199.189 34.6152H197.84L204.008 27.3102L202.068 25.2491L194.324 34.6152H192.808L202.508 23.3395L202.174 23.0515L201.856 23.3395L202.174 23.0515ZM212.965 14.5644L212.647 14.2916L205.918 22.1422L216.693 35.4639H220.649L209.752 21.93L212.859 18.323L226.544 35.4639H230L212.98 13.8976L212.647 14.2916L212.965 14.5644L212.632 14.8221L228.242 34.6152H226.954L212.889 16.9893L208.646 21.9148L218.876 34.6152H217.103L207.024 22.1573L213.299 14.8372L212.965 14.5644L212.632 14.8221L212.965 14.5644Z" fill="white"/>
<path d="M212.965 20.5661L212.647 20.2933L211.056 22.1423L221.862 35.464H225.62L212.98 19.8993L212.647 20.2933L212.965 20.5661L212.647 20.8389L223.832 34.6153H222.271L212.162 22.1574L213.299 20.8389L212.965 20.5661L212.647 20.8389L212.965 20.5661ZM190.459 2.22795L205.145 21.3542L212.268 13.246L203.16 1.71267L202.493 2.24311L211.162 13.2157L205.19 20.0054L191.126 1.71267L190.459 2.22795ZM217.921 1.69751L210.828 9.72993L217.391 17.823L229.894 2.22795L229.242 1.69751L217.391 16.4741L211.95 9.76024L218.558 2.25827L217.921 1.69751Z" fill="white"/>
<path d="M222.468 1.95506V1.5307H220.285L213.011 9.95716L217.284 14.8827L228.454 1.51555H224.953L217.254 10.8817L216.466 9.95716L223.362 1.5307H222.468V1.95506L222.134 1.69741L215.36 9.97232L217.269 12.2153L225.347 2.36426H226.635L217.269 13.5642L214.132 9.95716L220.679 2.37941H222.468V1.95506L222.134 1.69741L222.468 1.95506ZM195.567 1.95506V1.5307H192.126L205.221 18.5352L210.025 13.0186L200.917 1.5307H197.4L206.373 13.1095L205.357 14.2159L195.779 1.5307H195.567V1.95506L195.218 2.2127L205.312 15.5495L207.479 13.1398L199.128 2.37941H200.507L208.919 13.0034L205.266 17.1863L193.854 2.37941H195.567V1.95506L195.218 2.2127L195.567 1.95506ZM12.0486 35.0395C14.9736 35.0395 17.3834 34.1605 19.2778 32.4025C21.2026 30.6444 22.2786 28.2953 22.5059 25.3552H20.7327C20.5206 27.78 19.6264 29.7199 18.0351 31.1749C16.474 32.6298 14.4735 33.3573 12.0486 33.3573C9.21455 33.3573 6.78967 32.1448 4.77398 29.7199C2.7583 27.2648 1.75804 24.3246 1.75804 20.8994C1.75804 17.4743 2.7583 14.5341 4.77398 12.0789C6.78967 9.65405 9.19939 8.44161 12.0486 8.44161C14.231 8.44161 16.1406 9.06299 17.7623 10.3057C19.4142 11.5485 20.3993 13.1095 20.7327 14.9888H22.5059C22.0664 12.473 20.8994 10.4725 19.005 8.98721C17.1106 7.47166 14.7918 6.71389 12.0486 6.71389C8.71442 6.71389 5.88034 8.09304 3.54639 10.8513C1.18213 13.64 0 16.9893 0 20.8994C0 24.8096 1.18213 28.1438 3.54639 30.9021C5.86518 33.6604 8.69926 35.0395 12.0486 35.0395ZM74.262 34.0696V16.565C74.6712 14.322 75.6108 12.4578 77.0809 10.9574C78.5813 9.5025 80.2636 8.77504 82.1428 8.77504C83.719 8.77504 85.083 9.39641 86.2045 10.6392C87.326 11.8819 87.8868 13.3823 87.8868 15.1252V34.0696H90.3874V16.0648C90.7663 13.9431 91.7211 12.2002 93.267 10.8362C94.8129 9.47219 96.5557 8.77504 98.5259 8.77504C100.239 8.77504 101.678 9.39641 102.845 10.6392C104.058 11.8819 104.664 13.3823 104.664 15.1252V34.0696H107.165V15.1252C107.165 12.8367 106.331 10.8817 104.664 9.27517C102.951 7.65353 100.905 6.85029 98.5411 6.85029C96.6163 6.85029 94.8583 7.35042 93.2215 8.35068C91.6302 9.30548 90.4481 10.6089 89.66 12.276C89.2356 10.6998 88.3111 9.39641 86.841 8.35068C85.4164 7.35042 83.7796 6.85029 81.9004 6.85029C80.309 6.85029 78.8389 7.33526 77.4598 8.29006C76.0806 9.19939 75.0198 10.4573 74.2771 12.0335V7.54744H71.7765V34.0696H74.262ZM115.333 18.2927V17.6107C115.546 15.11 116.546 13.0034 118.365 11.2757C120.138 9.59343 122.214 8.75988 124.609 8.75988C127.003 8.75988 129.095 9.57828 130.913 11.2151C132.686 12.8973 133.672 14.9433 133.884 17.3682V18.2927H115.333ZM124.593 34.6303C127.564 34.6303 130.155 33.8271 132.383 32.2358C134.611 30.6444 135.93 28.6288 136.339 26.219H133.869C133.202 28.068 132.02 29.5532 130.292 30.7051C128.61 31.8114 126.715 32.357 124.609 32.357C121.805 32.357 119.562 31.2961 117.88 29.1592C116.197 27.0223 115.349 24.1882 115.349 20.6115H136.339V19.4445C136.339 15.5495 135.263 12.4427 133.126 10.1087C130.989 7.77477 128.14 6.6078 124.593 6.6078C121.047 6.6078 118.213 7.88086 116.061 10.4118C113.924 12.9883 112.848 16.3983 112.848 20.6115C112.848 24.8247 113.924 28.2347 116.061 30.8111C118.213 33.3573 121.047 34.6303 124.593 34.6303ZM147.857 35.085C148.388 35.085 149.13 34.9183 150.1 34.5849V32.7814C149.57 33.0693 148.888 33.2209 148.054 33.2209C147.266 33.2209 146.599 32.842 146.084 32.0994C145.508 31.3567 145.235 30.4626 145.235 29.4168V9.48734H149.054V7.54744H145.235V0H142.598V7.54744H138.582V9.48734H142.598V29.4017C142.598 30.9779 143.098 32.3115 144.114 33.4027C145.159 34.5242 146.402 35.085 147.857 35.085ZM169.878 35.2062V18.7474H185.594V16.6407H169.878V3.63732H187.671V1.42462H167.696V35.2062H169.878Z" fill="white"/>
</svg>
