<svg width="82" height="81" viewBox="0 0 82 81" fill="none" xmlns="http://www.w3.org/2000/svg">
<g filter="url(#filter0_d)">
<path d="M13.1925 7.95361V40.4704M13.1925 73.527V66.7807M13.1925 66.7807H7H75H13.1925ZM13.1925 66.7807V50.185M13.1925 50.185L25.5101 56.7289L37.02 42.5618L43.0106 17.196L48.1261 42.5618L56.3378 48.1612M13.1925 50.185V40.4704M13.1925 40.4704L27.664 30.1487L32.3757 36.5576L50.4146 19.7595L55.6647 23.8073" stroke="#E3B04B"/>
<mask id="mask0" mask-type="alpha" maskUnits="userSpaceOnUse" x="56" y="36" width="19" height="19">
<path fill-rule="evenodd" clip-rule="evenodd" d="M65.2899 54.5608C70.3084 54.5608 74.3767 50.4925 74.3767 45.474C74.3767 40.4555 70.3084 36.3872 65.2899 36.3872C60.2714 36.3872 56.2031 40.4555 56.2031 45.474C56.2031 50.4925 60.2714 54.5608 65.2899 54.5608ZM65.3473 44.4242V44.4241H62.5428C62.6865 44.1295 62.8516 43.8485 63.0618 43.6032C64.2495 42.2156 66.3608 42.2156 67.5485 43.6032C67.7793 43.8692 68.1769 43.8988 68.4398 43.6711C68.7052 43.444 68.7361 43.0452 68.509 42.7798C66.8324 40.8243 63.7778 40.8237 62.1013 42.7804C61.6902 43.26 61.3739 43.8183 61.16 44.4242H60.2063C59.8569 44.4242 59.5742 44.7069 59.5742 45.0563C59.5742 45.4056 59.8569 45.6883 60.2063 45.6883H60.8918C60.8198 46.3447 60.8198 46.3804 60.8918 47.0368H60.2063C59.8569 47.0368 59.5742 47.3195 59.5742 47.6688C59.5742 48.0182 59.8569 48.3009 60.2063 48.3009H61.16C61.3739 48.9069 61.6902 49.4654 62.1013 49.9453C62.9396 50.923 64.1473 51.4613 65.3473 51.4613C66.5473 51.4613 67.6707 50.923 68.5089 49.9453C68.736 49.6799 68.7052 49.2811 68.4398 49.054C68.1768 48.8268 67.7793 48.8564 67.5484 49.1218C66.3608 50.5095 64.2494 50.5088 63.0618 49.1225C62.8515 48.877 62.6863 48.5957 62.5427 48.3009H65.3473C65.6966 48.3009 65.9794 48.0182 65.9794 47.6688C65.9794 47.3195 65.6966 47.0368 65.3473 47.0368H62.155C62.0852 46.5372 62.0852 46.1879 62.155 45.6883H65.3473C65.6966 45.6883 65.9794 45.4056 65.9794 45.0563C65.9794 44.7069 65.6966 44.4242 65.3473 44.4242Z" fill="#C4C4C4"/>
</mask>
<g mask="url(#mask0)">
<path d="M81.8907 53.5449L74.2188 58.4527" stroke="#F4D8A0" stroke-width="0.15" stroke-miterlimit="10"/>
<path d="M74.1648 58.4518L70.7234 51.0518" stroke="#F4D8A0" stroke-width="0.15" stroke-miterlimit="10"/>
<path d="M70.7343 51.0371L70.7414 51.0493" stroke="#F4D8A0" stroke-width="0.15" stroke-miterlimit="10"/>
<path d="M70.6443 51.0952C70.6131 51.0412 70.6316 50.9721 70.6856 50.9409C70.7396 50.9097 70.8087 50.9282 70.8399 50.9822C70.8711 51.0362 70.8526 51.1053 70.7986 51.1365C70.7446 51.1677 70.6755 51.1492 70.6443 51.0952Z" fill="#F4D8A0"/>
<path d="M58.259 58.0574L56.3354 51.855" stroke="#F4D8A0" stroke-width="0.15" stroke-miterlimit="10"/>
<path d="M56.3169 51.8506L56.3239 51.8627" stroke="#F4D8A0" stroke-width="0.15" stroke-miterlimit="10"/>
<path d="M56.2266 51.9048C56.1954 51.8508 56.2139 51.7817 56.2679 51.7505C56.3219 51.7193 56.391 51.7378 56.4222 51.7918C56.4534 51.8458 56.4349 51.9149 56.3809 51.9461C56.3269 51.9773 56.2578 51.9588 56.2266 51.9048Z" fill="#F4D8A0"/>
<path d="M70.0575 38.2363L70.0505 38.2241" stroke="#F4D8A0" stroke-width="0.15" stroke-miterlimit="10"/>
<path d="M70.1638 38.1785C70.195 38.2325 70.1765 38.3016 70.1225 38.3328C70.0685 38.364 69.9995 38.3455 69.9683 38.2915C69.9371 38.2375 69.9556 38.1684 70.0096 38.1372C70.0636 38.106 70.1327 38.1245 70.1638 38.1785Z" fill="#F4D8A0"/>
<path d="M70.7343 51.0405L70.7414 51.0283" stroke="#F4D8A0" stroke-width="0.15" stroke-miterlimit="10"/>
<path d="M70.8399 51.0952C70.8087 51.1492 70.7396 51.1677 70.6856 51.1365C70.6316 51.1053 70.6131 51.0362 70.6443 50.9822C70.6755 50.9282 70.7446 50.9097 70.7986 50.9409C70.8526 50.9721 70.8711 51.0412 70.8399 51.0952Z" fill="#F4D8A0"/>
<path d="M65.0349 38.6675L65.0279 38.6796" stroke="#F4D8A0" stroke-width="0.15" stroke-miterlimit="10"/>
<path d="M64.9336 38.6146C64.9648 38.5606 65.0339 38.5421 65.0879 38.5733C65.1419 38.6044 65.1604 38.6735 65.1292 38.7275C65.098 38.7815 65.029 38.8 64.975 38.7688C64.921 38.7376 64.9025 38.6686 64.9336 38.6146Z" fill="#F4D8A0"/>
<path d="M60.875 46.1185L65.0269 38.686" stroke="#F4D8A0" stroke-width="0.15" stroke-miterlimit="10"/>
<path d="M60.9732 46.171C60.9427 46.2254 60.8739 46.2449 60.8195 46.2144C60.7651 46.1839 60.7457 46.1151 60.7761 46.0607C60.8066 46.0063 60.8754 45.9869 60.9298 46.0173C60.9842 46.0478 61.0036 46.1166 60.9732 46.171Z" fill="#F4D8A0"/>
<path d="M78.5883 48.0879L78.5977 48.1041L70.7227 51.0212" stroke="#F4D8A0" stroke-width="0.15" stroke-miterlimit="10"/>
<path d="M78.6142 48.0919L70.0703 38.2319" stroke="#F4D8A0" stroke-width="0.15" stroke-miterlimit="10"/>
<path d="M60.8916 46.1177L60.8823 46.1339L65.8185 55.5569" stroke="#F4D8A0" stroke-width="0.15" stroke-miterlimit="10"/>
<path d="M60.792 46.0628C60.8232 46.0088 60.8922 45.9903 60.9462 46.0215C61.0002 46.0527 61.0187 46.1217 60.9875 46.1757C60.9564 46.2297 60.8873 46.2483 60.8333 46.2171C60.7793 46.1859 60.7608 46.1168 60.792 46.0628Z" fill="#F4D8A0"/>
<path d="M60.8338 46.1175L54.2922 38.2319" stroke="#F4D8A0" stroke-width="0.15" stroke-miterlimit="10"/>
<path d="M60.9216 46.0461C60.9615 46.094 60.9549 46.1653 60.907 46.2051C60.859 46.245 60.7878 46.2384 60.748 46.1905C60.7081 46.1425 60.7146 46.0713 60.7626 46.0315C60.8105 45.9916 60.8817 45.9981 60.9216 46.0461Z" fill="#F4D8A0"/>
<path d="M56.3242 51.8336L60.8406 46.1329L60.8313 46.1167" stroke="#F4D8A0" stroke-width="0.15" stroke-miterlimit="10"/>
<path d="M56.4123 51.9038C56.3735 51.9527 56.3025 51.9608 56.2536 51.9221C56.2048 51.8833 56.1966 51.8122 56.2354 51.7634C56.2742 51.7146 56.3452 51.7064 56.3941 51.7452C56.4429 51.784 56.4511 51.855 56.4123 51.9038Z" fill="#F4D8A0"/>
<path d="M56.343 51.8384L56.3359 51.8505" stroke="#F4D8A0" stroke-width="0.15" stroke-miterlimit="10"/>
<path d="M56.2417 51.7796C56.2729 51.7256 56.342 51.7071 56.396 51.7383C56.45 51.7695 56.4685 51.8386 56.4373 51.8926C56.4061 51.9465 56.337 51.965 56.283 51.9339C56.229 51.9027 56.2105 51.8336 56.2417 51.7796Z" fill="#F4D8A0"/>
<path d="M70.0438 38.2182L70.0508 38.2061" stroke="#F4D8A0" stroke-width="0.15" stroke-miterlimit="10"/>
<path d="M70.1373 38.2739C70.1061 38.3279 70.037 38.3464 69.983 38.3152C69.929 38.284 69.9105 38.215 69.9417 38.161C69.9729 38.107 70.042 38.0885 70.096 38.1196C70.15 38.1508 70.1685 38.2199 70.1373 38.2739Z" fill="#F4D8A0"/>
<path d="M60.9046 35.6982L60.8953 35.7144L65.0242 38.6639" stroke="#F4D8A0" stroke-width="0.15" stroke-miterlimit="10"/>
<path d="M74.8358 36.1147L74.8451 36.1309L70.0703 38.2065" stroke="#F4D8A0" stroke-width="0.15" stroke-miterlimit="10"/>
<path d="M65.0349 38.6679L65.0279 38.6558" stroke="#F4D8A0" stroke-width="0.15" stroke-miterlimit="10"/>
<path d="M65.1292 38.6146C65.1604 38.6686 65.1419 38.7376 65.0879 38.7688C65.0339 38.8 64.9648 38.7815 64.9336 38.7275C64.9025 38.6735 64.921 38.6044 64.975 38.5733C65.029 38.5421 65.098 38.5606 65.1292 38.6146Z" fill="#F4D8A0"/>
<path d="M60.8708 35.6963L60.8801 35.7125L54.2969 38.2089" stroke="#F4D8A0" stroke-width="0.15" stroke-miterlimit="10"/>
<path d="M69.781 48.1025L70.7267 51.0197" stroke="#F4D8A0" stroke-width="0.15" stroke-miterlimit="10"/>
<path d="M69.6811 48.1391C69.6618 48.0797 69.6943 48.016 69.7536 47.9968C69.8129 47.9775 69.8766 48.01 69.8959 48.0693C69.9151 48.1286 69.8827 48.1923 69.8234 48.2116C69.7641 48.2308 69.7004 48.1984 69.6811 48.1391Z" fill="#F4D8A0"/>
<path d="M69.7807 48.0879L69.7902 48.1042" stroke="#F4D8A0" stroke-width="0.15" stroke-miterlimit="10"/>
<path d="M69.6905 48.1422C69.6592 48.0883 69.6776 48.0192 69.7316 47.9879C69.7855 47.9566 69.8546 47.975 69.8859 48.029C69.9172 48.0829 69.8988 48.152 69.8448 48.1833C69.7909 48.2146 69.7218 48.1962 69.6905 48.1422Z" fill="#F4D8A0"/>
<path d="M65.0304 38.6845L65.0234 38.6724" stroke="#F4D8A0" stroke-width="0.15" stroke-miterlimit="10"/>
<path d="M65.1289 38.6266C65.1601 38.6806 65.1417 38.7497 65.0878 38.781C65.0338 38.8122 64.9647 38.7938 64.9334 38.7399C64.9022 38.6859 64.9206 38.6168 64.9745 38.5855C65.0285 38.5543 65.0976 38.5727 65.1289 38.6266Z" fill="#F4D8A0"/>
<path d="M69.7705 48.0929L65.0234 38.686" stroke="#F4D8A0" stroke-width="0.15" stroke-miterlimit="10"/>
<path d="M69.866 48.0444C69.8942 48.1 69.8719 48.168 69.8162 48.1961C69.7606 48.2243 69.6927 48.202 69.6645 48.1463C69.6364 48.0907 69.6587 48.0227 69.7143 47.9946C69.77 47.9665 69.8379 47.9888 69.866 48.0444Z" fill="#F4D8A0"/>
<path d="M70.7432 51.0298L70.7503 51.0419" stroke="#F4D8A0" stroke-width="0.15" stroke-miterlimit="10"/>
<path d="M70.6444 51.089C70.6131 51.035 70.6315 50.9659 70.6855 50.9347C70.7394 50.9034 70.8085 50.9218 70.8398 50.9758C70.871 51.0297 70.8527 51.0988 70.7987 51.1301C70.7447 51.1613 70.6756 51.1429 70.6444 51.089Z" fill="#F4D8A0"/>
<path d="M56.3359 51.8384L56.343 51.8505" stroke="#F4D8A0" stroke-width="0.15" stroke-miterlimit="10"/>
<path d="M56.2418 51.8927C56.2105 51.8387 56.2289 51.7696 56.2829 51.7384C56.3368 51.7071 56.4059 51.7255 56.4372 51.7795C56.4685 51.8334 56.4501 51.9025 56.3961 51.9338C56.3422 51.965 56.2731 51.9466 56.2418 51.8927Z" fill="#F4D8A0"/>
<path d="M56.3282 51.8383L52.6375 49.3096" stroke="#F4D8A0" stroke-width="0.15" stroke-miterlimit="10"/>
<path d="M56.3923 51.7468C56.4438 51.7819 56.457 51.8522 56.4218 51.9037C56.3866 51.9552 56.3163 51.9684 56.2648 51.9332C56.2134 51.898 56.2002 51.8277 56.2353 51.7763C56.2705 51.7248 56.3408 51.7116 56.3923 51.7468Z" fill="#F4D8A0"/>
<path d="M70.047 38.2029L65.9688 32.3403" stroke="#F4D8A0" stroke-width="0.15" stroke-miterlimit="10"/>
<path d="M70.1321 38.1382C70.1678 38.1893 70.1552 38.2597 70.1041 38.2954C70.0529 38.3311 69.9825 38.3185 69.9469 38.2674C69.9112 38.2162 69.9238 38.1458 69.9749 38.1101C70.0261 38.0745 70.0965 38.087 70.1321 38.1382Z" fill="#F4D8A0"/>
<path d="M70.0612 38.2206L70.0542 38.2085" stroke="#F4D8A0" stroke-width="0.15" stroke-miterlimit="10"/>
<path d="M70.1515 38.1667C70.1828 38.2206 70.1644 38.2897 70.1104 38.321C70.0565 38.3523 69.9874 38.3338 69.9561 38.2799C69.9249 38.2259 69.9433 38.1568 69.9972 38.1256C70.0512 38.0943 70.1203 38.1127 70.1515 38.1667Z" fill="#F4D8A0"/>
<path d="M70.7414 51.0396L70.7343 51.0517" stroke="#F4D8A0" stroke-width="0.15" stroke-miterlimit="10"/>
<path d="M70.6444 50.9816C70.6756 50.9277 70.7447 50.9093 70.7987 50.9405C70.8527 50.9718 70.871 51.0409 70.8398 51.0948C70.8085 51.1488 70.7394 51.1672 70.6855 51.1359C70.6315 51.1047 70.6131 51.0356 70.6444 50.9816Z" fill="#F4D8A0"/>
<path d="M70.7355 51.0479L66.8281 58.8363" stroke="#F4D8A0" stroke-width="0.15" stroke-miterlimit="10"/>
<path d="M70.641 50.9948C70.669 50.9391 70.7369 50.9167 70.7926 50.9447C70.8483 50.9727 70.8707 51.0406 70.8427 51.0963C70.8147 51.152 70.7468 51.1745 70.6911 51.1464C70.6354 51.1184 70.613 51.0505 70.641 50.9948Z" fill="#F4D8A0"/>
<path d="M56.343 51.8403L56.3359 51.8525" stroke="#F4D8A0" stroke-width="0.15" stroke-miterlimit="10"/>
<path d="M56.2418 51.7814C56.2731 51.7275 56.3422 51.7091 56.3961 51.7403C56.4501 51.7716 56.4685 51.8407 56.4372 51.8946C56.4059 51.9486 56.3368 51.967 56.2829 51.9357C56.2289 51.9045 56.2105 51.8354 56.2418 51.7814Z" fill="#F4D8A0"/>
<path d="M56.3413 51.855L51.8203 58.3488" stroke="#F4D8A0" stroke-width="0.15" stroke-miterlimit="10"/>
<path d="M56.2469 51.789C56.2826 51.7379 56.353 51.7254 56.4041 51.761C56.4552 51.7967 56.4678 51.8671 56.4321 51.9183C56.3964 51.9694 56.326 51.9819 56.2749 51.9462C56.2237 51.9106 56.2112 51.8402 56.2469 51.789Z" fill="#F4D8A0"/>
<path d="M70.0612 38.2222L70.0542 38.2343" stroke="#F4D8A0" stroke-width="0.15" stroke-miterlimit="10"/>
<path d="M69.9561 38.1667C69.9874 38.1127 70.0565 38.0943 70.1104 38.1256C70.1644 38.1568 70.1828 38.2259 70.1515 38.2799C70.1203 38.3338 70.0512 38.3523 69.9972 38.321C69.9433 38.2897 69.9249 38.2206 69.9561 38.1667Z" fill="#F4D8A0"/>
<path d="M69.7899 48.105L65.8086 55.5536" stroke="#F4D8A0" stroke-width="0.15" stroke-miterlimit="10"/>
<path d="M69.6892 48.0499C69.7186 47.9949 69.7871 47.9742 69.842 48.0036C69.897 48.0331 69.9177 48.1015 69.8883 48.1565C69.8588 48.2115 69.7904 48.2322 69.7354 48.2027C69.6804 48.1733 69.6597 48.1048 69.6892 48.0499Z" fill="#F4D8A0"/>
<path d="M69.8008 48.0895L70.0589 38.2295" stroke="#F4D8A0" stroke-width="0.15" stroke-miterlimit="10"/>
<path d="M69.9133 48.0939C69.9117 48.1562 69.8598 48.2055 69.7975 48.2038C69.7351 48.2022 69.6859 48.1503 69.6875 48.088C69.6892 48.0257 69.741 47.9764 69.8034 47.9781C69.8657 47.9797 69.9149 48.0316 69.9133 48.0939Z" fill="#F4D8A0"/>
<path d="M69.8065 48.0879L69.7971 48.1042" stroke="#F4D8A0" stroke-width="0.15" stroke-miterlimit="10"/>
<path d="M69.7147 48.029C69.746 47.975 69.8151 47.9566 69.869 47.9879C69.923 48.0192 69.9414 48.0883 69.9101 48.1422C69.8788 48.1962 69.8097 48.2146 69.7558 48.1833C69.7018 48.152 69.6834 48.0829 69.7147 48.029Z" fill="#F4D8A0"/>
<path d="M65.0323 38.6654L65.978 32.3496" stroke="#F4D8A0" stroke-width="0.15" stroke-miterlimit="10"/>
<path d="M65.1428 38.6824C65.1336 38.7441 65.0761 38.7866 65.0144 38.7773C64.9527 38.7681 64.9102 38.7106 64.9195 38.6489C64.9287 38.5872 64.9862 38.5447 65.0479 38.554C65.1096 38.5633 65.1521 38.6208 65.1428 38.6824Z" fill="#F4D8A0"/>
<path d="M65.0195 38.6713L65.0266 38.6592" stroke="#F4D8A0" stroke-width="0.15" stroke-miterlimit="10"/>
<path d="M65.1169 38.7311C65.0856 38.785 65.0165 38.8034 64.9626 38.7722C64.9086 38.7409 64.8902 38.6718 64.9215 38.6178C64.9527 38.5639 65.0218 38.5455 65.0758 38.5768C65.1297 38.608 65.1481 38.6771 65.1169 38.7311Z" fill="#F4D8A0"/>
<path d="M69.7739 48.0907L60.875 46.1162" stroke="#F4D8A0" stroke-width="0.15" stroke-miterlimit="10"/>
<path d="M69.7975 47.9788C69.8584 47.9922 69.8968 48.0525 69.8833 48.1134C69.8699 48.1743 69.8096 48.2127 69.7487 48.1993C69.6878 48.1858 69.6494 48.1255 69.6628 48.0646C69.6763 48.0037 69.7366 47.9653 69.7975 47.9788Z" fill="#F4D8A0"/>
<path d="M69.8042 48.0879H69.7854" stroke="#F4D8A0" stroke-width="0.15" stroke-miterlimit="10"/>
<path d="M69.8124 48.1985C69.8747 48.1985 69.9253 48.1479 69.9253 48.0856C69.9253 48.0232 69.8747 47.9727 69.8124 47.9727C69.75 47.9727 69.6995 48.0232 69.6995 48.0856C69.6995 48.1479 69.75 48.1985 69.8124 48.1985Z" fill="#F4D8A0"/>
<path d="M78.6114 48.0874H69.8094" stroke="#F4D8A0" stroke-width="0.15" stroke-miterlimit="10"/>
<path d="M60.8586 46.1182H60.8798" stroke="#F4D8A0" stroke-width="0.15" stroke-miterlimit="10"/>
<path d="M60.8551 46.2332C60.7928 46.2332 60.7422 46.1826 60.7422 46.1202C60.7422 46.0579 60.7928 46.0073 60.8551 46.0073C60.9175 46.0073 60.968 46.0579 60.968 46.1202C60.968 46.1826 60.9175 46.2332 60.8551 46.2332Z" fill="#F4D8A0"/>
<path d="M60.8315 46.1118H60.8527" stroke="#F4D8A0" stroke-width="0.15" stroke-miterlimit="10"/>
<path d="M60.8312 46.2283C60.7688 46.2283 60.7182 46.1777 60.7182 46.1154C60.7182 46.053 60.7688 46.0024 60.8312 46.0024C60.8935 46.0024 60.9441 46.053 60.9441 46.1154C60.9441 46.1777 60.8935 46.2283 60.8312 46.2283Z" fill="#F4D8A0"/>
<path d="M60.8291 46.1162L52.6406 49.2882" stroke="#F4D8A0" stroke-width="0.15" stroke-miterlimit="10"/>
<path d="M60.7879 46.0086C60.846 45.9861 60.9114 46.0151 60.9339 46.0732C60.9564 46.1314 60.9275 46.1968 60.8693 46.2193C60.8111 46.2417 60.7457 46.2128 60.7233 46.1546C60.7008 46.0965 60.7297 46.0311 60.7879 46.0086Z" fill="#F4D8A0"/>
<path d="M77.8737 53.3052L74.1922 58.4516" stroke="#F4D8A0" stroke-width="0.15" stroke-miterlimit="10"/>
<path d="M62.1566 53.9834L58.2812 58.0617" stroke="#F4D8A0" stroke-width="0.15" stroke-miterlimit="10"/>
<path d="M62.0741 53.9076C62.1171 53.8624 62.1886 53.8607 62.2338 53.9037C62.2789 53.9467 62.2807 54.0182 62.2377 54.0634C62.1947 54.1085 62.1232 54.1102 62.078 54.0672C62.0329 54.0242 62.0311 53.9528 62.0741 53.9076Z" fill="#F4D8A0"/>
<path d="M65.793 55.5709L62.1437 53.9849" stroke="#F4D8A0" stroke-width="0.15" stroke-miterlimit="10"/>
<path d="M70.7343 51.0371H70.7484" stroke="#F4D8A0" stroke-width="0.15" stroke-miterlimit="10"/>
<path d="M70.7421 51.1516C70.8044 51.1516 70.855 51.1011 70.855 51.0387C70.855 50.9763 70.8044 50.9258 70.7421 50.9258C70.6797 50.9258 70.6292 50.9763 70.6292 51.0387C70.6292 51.1011 70.6797 51.1516 70.7421 51.1516Z" fill="#F4D8A0"/>
<path d="M77.8714 53.2999L70.7344 51.0342" stroke="#F4D8A0" stroke-width="0.15" stroke-miterlimit="10"/>
<path d="M70.7334 51.0425L65.8203 55.5739" stroke="#F4D8A0" stroke-width="0.15" stroke-miterlimit="10"/>
<path d="M70.6656 50.9566C70.7115 50.9144 70.783 50.9173 70.8252 50.9632C70.8674 51.0091 70.8644 51.0805 70.8186 51.1228C70.7727 51.165 70.7012 51.162 70.659 51.1161C70.6168 51.0703 70.6197 50.9988 70.6656 50.9566Z" fill="#F4D8A0"/>
<path d="M56.3359 51.8403L62.1489 53.9766" stroke="#F4D8A0" stroke-width="0.15" stroke-miterlimit="10"/>
<path d="M56.3006 51.9441C56.2421 51.9226 56.212 51.8577 56.2335 51.7992C56.255 51.7406 56.3198 51.7106 56.3784 51.732C56.4369 51.7535 56.467 51.8184 56.4455 51.8769C56.4241 51.9355 56.3592 51.9655 56.3006 51.9441Z" fill="#F4D8A0"/>
<path d="M56.3383 51.8403H56.3242" stroke="#F4D8A0" stroke-width="0.15" stroke-miterlimit="10"/>
<path d="M56.3395 51.7251C56.4018 51.7251 56.4524 51.7757 56.4524 51.838C56.4524 51.9004 56.4018 51.9509 56.3395 51.9509C56.2771 51.9509 56.2266 51.9004 56.2266 51.838C56.2266 51.7757 56.2771 51.7251 56.3395 51.7251Z" fill="#F4D8A0"/>
<path d="M48.7938 51.6553L56.3227 51.849" stroke="#F4D8A0" stroke-width="0.15" stroke-miterlimit="10"/>
<path d="M60.8586 46.1182L62.1504 53.9835" stroke="#F4D8A0" stroke-width="0.15" stroke-miterlimit="10"/>
<path d="M60.7437 46.1386C60.7336 46.0771 60.7753 46.019 60.8368 46.0088C60.8983 45.9987 60.9564 46.0404 60.9665 46.1019C60.9767 46.1634 60.935 46.2216 60.8735 46.2317C60.8119 46.2418 60.7538 46.2001 60.7437 46.1386Z" fill="#F4D8A0"/>
<path d="M60.8914 42.1704L60.8591 46.1193" stroke="#F4D8A0" stroke-width="0.15" stroke-miterlimit="10"/>
<path d="M60.7771 42.1672C60.7776 42.1048 60.8286 42.0547 60.8909 42.0552C60.9533 42.0557 61.0034 42.1067 61.0029 42.169C61.0024 42.2314 60.9514 42.2815 60.8891 42.281C60.8267 42.2805 60.7766 42.2295 60.7771 42.1672Z" fill="#F4D8A0"/>
<path d="M65.0302 38.6675H65.0161" stroke="#F4D8A0" stroke-width="0.15" stroke-miterlimit="10"/>
<path d="M65.0314 38.7839C65.0938 38.7839 65.1443 38.7334 65.1443 38.671C65.1443 38.6087 65.0938 38.5581 65.0314 38.5581C64.969 38.5581 64.9185 38.6087 64.9185 38.671C64.9185 38.7334 64.969 38.7839 65.0314 38.7839Z" fill="#F4D8A0"/>
<path d="M70.0604 38.2217H70.0464" stroke="#F4D8A0" stroke-width="0.15" stroke-miterlimit="10"/>
<path d="M70.0538 38.3362C70.1162 38.3362 70.1667 38.2856 70.1667 38.2233C70.1667 38.1609 70.1162 38.1104 70.0538 38.1104C69.9914 38.1104 69.9409 38.1609 69.9409 38.2233C69.9409 38.2856 69.9914 38.3362 70.0538 38.3362Z" fill="#F4D8A0"/>
<path d="M60.8826 42.1686L65.0162 38.6729" stroke="#F4D8A0" stroke-width="0.15" stroke-miterlimit="10"/>
<path d="M60.9628 42.2539C60.9152 42.2941 60.8439 42.2881 60.8037 42.2404C60.7635 42.1928 60.7695 42.1215 60.8172 42.0813C60.8649 42.0411 60.9361 42.0471 60.9763 42.0948C61.0165 42.1424 61.0105 42.2137 60.9628 42.2539Z" fill="#F4D8A0"/>
<path d="M76.8734 41.6507L70.0594 38.2197" stroke="#F4D8A0" stroke-width="0.15" stroke-miterlimit="10"/>
<path d="M65.0354 38.6714L70.0454 38.2192" stroke="#F4D8A0" stroke-width="0.15" stroke-miterlimit="10"/>
<path d="M65.0416 38.7815C64.9795 38.7871 64.9246 38.7413 64.919 38.6792C64.9133 38.6171 64.9592 38.5622 65.0213 38.5566C65.0834 38.551 65.1383 38.5968 65.1439 38.6589C65.1495 38.721 65.1037 38.7759 65.0416 38.7815Z" fill="#F4D8A0"/>
<path d="M60.8958 42.1685L54.3078 38.2197" stroke="#F4D8A0" stroke-width="0.15" stroke-miterlimit="10"/>
<path d="M60.9592 42.0648C61.0127 42.0969 61.0301 42.1662 60.9981 42.2197C60.9661 42.2732 60.8968 42.2907 60.8432 42.2587C60.7897 42.2267 60.7723 42.1573 60.8043 42.1038C60.8363 42.0503 60.9056 42.0328 60.9592 42.0648Z" fill="#F4D8A0"/>
<path d="M60.8826 42.1693V35.6958" stroke="#F4D8A0" stroke-width="0.15" stroke-miterlimit="10"/>
<path d="M61.0029 42.1676C61.0029 42.23 60.9524 42.2805 60.89 42.2805C60.8277 42.2805 60.7771 42.23 60.7771 42.1676C60.7771 42.1053 60.8277 42.0547 60.89 42.0547C60.9524 42.0547 61.0029 42.1053 61.0029 42.1676Z" fill="#F4D8A0"/>
</g>
<circle cx="65.2899" cy="45.4696" r="9.08678" stroke="#E3B04B"/>
<path d="M65.9557 43.9178V44.0373C66.3241 44.2254 66.5698 44.6145 66.5698 45.0499C66.5698 45.6616 66.0848 46.182 65.4557 46.182H62.8081C62.8024 46.2995 62.8024 46.4128 62.8081 46.5304H65.4557C66.0848 46.5304 66.5698 47.0507 66.5698 47.6625C66.5698 48.2742 66.0848 48.7945 65.4557 48.7945H63.6184C63.6189 48.7951 63.6194 48.7957 63.6199 48.7963L63.6199 48.7963C64.5738 49.9425 66.2559 49.9429 67.2096 48.7958L67.2121 48.7927L67.2121 48.7928C67.6138 48.3174 68.322 48.2558 68.7922 48.674C69.253 49.0817 69.3033 49.7874 68.9115 50.2585L68.9113 50.2589C68.0117 51.339 66.7845 51.9549 65.4557 51.9549C64.1379 51.9549 62.8252 51.3478 61.9184 50.2589L61.9182 50.2587C61.5537 49.8207 61.2607 49.3258 61.0423 48.7945H60.4617C59.8326 48.7945 59.3477 48.2742 59.3477 47.6625C59.3477 47.0507 59.8326 46.5304 60.4617 46.5304H60.5799C60.5768 46.4708 60.5751 46.4136 60.5751 46.3562C60.5751 46.2987 60.5768 46.2416 60.5799 46.182H60.4617C59.8326 46.182 59.3477 45.6616 59.3477 45.0499C59.3477 44.4381 59.8326 43.9178 60.4617 43.9178H61.0424C61.2608 43.3866 61.5537 42.892 61.9183 42.4542L65.9557 43.9178ZM65.9557 43.9178H65.4557H63.619M65.9557 43.9178L67.5941 43.5968M67.5941 43.5968C66.4404 42.2092 64.3893 42.2092 63.2356 43.5968C63.1512 43.6982 63.0743 43.8057 63.0032 43.9178H63.619M67.5941 43.5968C67.8183 43.8628 68.2045 43.8925 68.4599 43.6647L67.5941 43.5968ZM63.619 43.9178C63.6193 43.9174 63.6196 43.9171 63.6199 43.9167L63.6201 43.9165C64.5739 42.7693 66.2558 42.7693 67.2096 43.9165L67.2096 43.9165L67.2118 43.9191C67.6131 44.3952 68.3212 44.4572 68.7915 44.0389M63.619 43.9178L68.7915 44.0389M68.7915 44.0389C69.253 43.6313 69.3035 42.9252 68.9116 42.4537L68.9113 42.4534C67.0828 40.258 63.7469 40.2572 61.9183 42.4541L68.7915 44.0389Z" stroke="#E3B04B"/>
<mask id="mask1" mask-type="alpha" maskUnits="userSpaceOnUse" x="55" y="14" width="19" height="19">
<mask id="path-117-inside-1" mask-type="luminance" fill="white">
<path fill-rule="evenodd" clip-rule="evenodd" d="M64.815 14.7505C63.6795 14.7505 62.5441 14.9568 61.5118 15.3695C60.0151 15.937 58.6732 16.9173 57.6925 18.2071C56.4022 19.858 55.6797 21.8699 55.6797 23.9335C55.7313 27.0804 57.3829 29.9694 60.0667 31.5687C64.4021 34.1481 69.9762 32.7552 72.5567 28.4733C75.1372 24.1398 73.7437 18.5681 69.46 15.9887C68.273 15.2663 66.931 14.8537 65.5375 14.7505H64.815ZM66.1996 29.0122C66.5134 28.9249 66.8201 28.8095 67.1126 28.6629C68.3512 28.0422 69.0616 27.0066 69.0616 25.8219C69.0616 24.6373 68.5051 23.7135 67.4527 23.1504C66.7318 22.7649 65.9002 22.6102 65.0958 22.4606L65.0955 22.4606C64.493 22.3486 63.8698 22.2327 63.5174 22.0442C63.3377 21.948 63.3377 21.9231 63.3377 21.761C63.3377 21.6652 63.4935 21.4901 63.7913 21.3408C64.5287 20.9715 65.5686 21.0016 66.1096 21.4083C66.7064 21.8569 67.5528 21.7356 68.0003 21.1376C68.4479 20.5396 68.327 19.6911 67.7302 19.2426C67.2861 18.9088 66.7619 18.6701 66.1996 18.5282V18.1967C66.1996 17.4492 65.595 16.8431 64.8491 16.8431C64.1033 16.8431 63.4986 17.4492 63.4986 18.1967V18.5688C63.184 18.6562 62.8767 18.7725 62.5834 18.9195C61.3463 19.5395 60.6367 20.5752 60.6367 21.7611C60.6367 22.9457 61.1931 23.8695 62.2457 24.4325C62.9664 24.8181 63.7981 24.9727 64.6024 25.1223L64.6028 25.1224C65.2054 25.2344 65.8284 25.3503 66.1808 25.5388C66.3605 25.6349 66.3605 25.6599 66.3605 25.8219C66.3605 25.9145 66.2007 26.0932 65.9046 26.2416C65.1679 26.6109 64.1289 26.5808 63.5887 26.1747C62.992 25.7261 62.1455 25.8475 61.6979 26.4454C61.2504 27.0435 61.3714 27.8919 61.9681 28.3404C62.4122 28.6742 62.9365 28.9127 63.4986 29.0545V29.3863C63.4986 30.1338 64.1033 30.7398 64.8491 30.7398C65.595 30.7398 66.1996 30.1338 66.1996 29.3863V29.0122Z"/>
</mask>
<path fill-rule="evenodd" clip-rule="evenodd" d="M64.815 14.7505C63.6795 14.7505 62.5441 14.9568 61.5118 15.3695C60.0151 15.937 58.6732 16.9173 57.6925 18.2071C56.4022 19.858 55.6797 21.8699 55.6797 23.9335C55.7313 27.0804 57.3829 29.9694 60.0667 31.5687C64.4021 34.1481 69.9762 32.7552 72.5567 28.4733C75.1372 24.1398 73.7437 18.5681 69.46 15.9887C68.273 15.2663 66.931 14.8537 65.5375 14.7505H64.815ZM66.1996 29.0122C66.5134 28.9249 66.8201 28.8095 67.1126 28.6629C68.3512 28.0422 69.0616 27.0066 69.0616 25.8219C69.0616 24.6373 68.5051 23.7135 67.4527 23.1504C66.7318 22.7649 65.9002 22.6102 65.0958 22.4606L65.0955 22.4606C64.493 22.3486 63.8698 22.2327 63.5174 22.0442C63.3377 21.948 63.3377 21.9231 63.3377 21.761C63.3377 21.6652 63.4935 21.4901 63.7913 21.3408C64.5287 20.9715 65.5686 21.0016 66.1096 21.4083C66.7064 21.8569 67.5528 21.7356 68.0003 21.1376C68.4479 20.5396 68.327 19.6911 67.7302 19.2426C67.2861 18.9088 66.7619 18.6701 66.1996 18.5282V18.1967C66.1996 17.4492 65.595 16.8431 64.8491 16.8431C64.1033 16.8431 63.4986 17.4492 63.4986 18.1967V18.5688C63.184 18.6562 62.8767 18.7725 62.5834 18.9195C61.3463 19.5395 60.6367 20.5752 60.6367 21.7611C60.6367 22.9457 61.1931 23.8695 62.2457 24.4325C62.9664 24.8181 63.7981 24.9727 64.6024 25.1223L64.6028 25.1224C65.2054 25.2344 65.8284 25.3503 66.1808 25.5388C66.3605 25.6349 66.3605 25.6599 66.3605 25.8219C66.3605 25.9145 66.2007 26.0932 65.9046 26.2416C65.1679 26.6109 64.1289 26.5808 63.5887 26.1747C62.992 25.7261 62.1455 25.8475 61.6979 26.4454C61.2504 27.0435 61.3714 27.8919 61.9681 28.3404C62.4122 28.6742 62.9365 28.9127 63.4986 29.0545V29.3863C63.4986 30.1338 64.1033 30.7398 64.8491 30.7398C65.595 30.7398 66.1996 30.1338 66.1996 29.3863V29.0122Z" fill="#C4C4C4"/>
<path d="M61.5118 15.3695L61.8663 16.3046L61.8748 16.3014L61.8831 16.298L61.5118 15.3695ZM57.6925 18.2071L58.4805 18.8229L58.4885 18.8123L57.6925 18.2071ZM55.6797 23.9335H54.6797V23.9417L54.6798 23.9499L55.6797 23.9335ZM60.0667 31.5687L59.5547 32.4277L59.5553 32.4281L60.0667 31.5687ZM72.5567 28.4733L73.4132 28.9895L73.4159 28.9849L72.5567 28.4733ZM69.46 15.9887L68.9402 16.8429L68.9441 16.8453L69.46 15.9887ZM65.5375 14.7505L65.6114 13.7532L65.5745 13.7505H65.5375V14.7505ZM67.1126 28.6629L67.5605 29.557L67.5606 29.5569L67.1126 28.6629ZM66.1996 29.0122L65.9315 28.0489L65.1996 28.2526V29.0122H66.1996ZM69.0616 25.8219H68.0616V25.8219L69.0616 25.8219ZM67.4527 23.1504L67.9244 22.2687L67.9243 22.2686L67.4527 23.1504ZM65.0958 22.4606L64.911 23.4434L64.913 23.4438L65.0958 22.4606ZM65.0955 22.4606L65.2803 21.4778L65.2782 21.4774L65.0955 22.4606ZM63.5174 22.0442L63.0455 22.9258L63.0458 22.926L63.5174 22.0442ZM63.7913 21.3408L63.3435 20.4467L63.3433 20.4468L63.7913 21.3408ZM66.1096 21.4083L65.5087 22.2076L65.5088 22.2077L66.1096 21.4083ZM67.7302 19.2426L68.3311 18.4432L68.331 18.4432L67.7302 19.2426ZM66.1996 18.5282H65.1996V19.3071L65.9549 19.4977L66.1996 18.5282ZM63.4986 18.5688L63.7664 19.5322L64.4986 19.3287V18.5688H63.4986ZM62.5834 18.9195L63.0314 19.8136L63.0316 19.8135L62.5834 18.9195ZM62.2457 24.4325L61.774 25.3143L61.774 25.3143L62.2457 24.4325ZM64.6024 25.1223L64.4196 26.1055L64.4209 26.1057L64.6024 25.1223ZM64.6028 25.1224L64.7855 24.1392L64.7844 24.139L64.6028 25.1224ZM66.1808 25.5388L65.7091 26.4205L65.7092 26.4206L66.1808 25.5388ZM65.9046 26.2416L66.3527 27.1356L66.3527 27.1356L65.9046 26.2416ZM63.5887 26.1747L62.9877 26.974L62.9878 26.974L63.5887 26.1747ZM61.6979 26.4454L60.8974 25.8462L60.8973 25.8463L61.6979 26.4454ZM61.9681 28.3404L61.3672 29.1398L61.3673 29.1398L61.9681 28.3404ZM63.4986 29.0545H64.4986V28.2755L63.7433 28.0849L63.4986 29.0545ZM61.8831 16.298C62.7894 15.9357 63.7979 15.7505 64.815 15.7505V13.7505C63.5611 13.7505 62.2987 13.9779 61.1405 14.441L61.8831 16.298ZM58.4885 18.8123C59.3519 17.6767 60.5386 16.808 61.8663 16.3046L61.1573 14.4345C59.4915 15.0661 57.9944 16.1578 56.8965 17.6018L58.4885 18.8123ZM56.6797 23.9335C56.6797 22.1044 57.3205 20.307 58.4804 18.8229L56.9046 17.5913C55.484 19.409 54.6797 21.6355 54.6797 23.9335H56.6797ZM60.5786 30.7096C58.1976 29.2908 56.7255 26.7236 56.6796 23.9171L54.6798 23.9499C54.737 27.4372 56.5681 30.648 59.5547 32.4277L60.5786 30.7096ZM71.7002 27.9571C69.4059 31.7641 64.4444 33.0097 60.578 30.7093L59.5553 32.4281C64.3597 35.2865 70.5465 33.7462 73.4132 28.9895L71.7002 27.9571ZM68.9441 16.8453C72.753 19.1388 73.9985 24.0976 71.6975 27.9617L73.4159 28.9849C76.276 24.182 74.7345 17.9974 69.9758 15.132L68.9441 16.8453ZM65.4637 15.7478C66.7082 15.8399 67.8958 16.2074 68.9402 16.8429L69.9798 15.1344C68.6501 14.3253 67.1539 13.8674 65.6114 13.7532L65.4637 15.7478ZM64.815 15.7505H65.5375V13.7505H64.815V15.7505ZM66.6647 27.7688C66.4343 27.8843 66.1884 27.9773 65.9315 28.0489L66.4678 29.9756C66.8385 29.8724 67.2059 29.7347 67.5605 29.557L66.6647 27.7688ZM68.0616 25.8219C68.0616 26.5556 67.6349 27.2826 66.6645 27.7689L67.5606 29.5569C69.0674 28.8018 70.0617 27.4575 70.0616 25.8218L68.0616 25.8219ZM66.9809 24.0322C67.7114 24.423 68.0616 25.0097 68.0616 25.8219H70.0616C70.0616 24.2648 69.2989 23.0041 67.9244 22.2687L66.9809 24.0322ZM64.913 23.4438C65.747 23.5989 66.4204 23.7324 66.981 24.0322L67.9243 22.2686C67.0433 21.7974 66.0533 21.6216 65.2787 21.4775L64.913 23.4438ZM64.9107 23.4433L64.911 23.4434L65.2806 21.4778L65.2803 21.4778L64.9107 23.4433ZM63.0458 22.926C63.3387 23.0827 63.6849 23.1823 63.9776 23.2531C64.2837 23.3271 64.6176 23.3889 64.9127 23.4437L65.2782 21.4774C64.9708 21.4203 64.692 21.3682 64.4477 21.3091C64.1901 21.2468 64.0486 21.1942 63.9891 21.1624L63.0458 22.926ZM62.3377 21.761C62.3377 21.7828 62.3365 21.8745 62.3461 21.965C62.3577 22.0756 62.3898 22.2485 62.4964 22.4312C62.6846 22.7538 63.0016 22.9023 63.0455 22.9258L63.9894 21.1626C63.9504 21.1417 63.9682 21.149 64.002 21.1737C64.0435 21.2038 64.142 21.2829 64.224 21.4235C64.3081 21.5677 64.329 21.6979 64.335 21.7553C64.339 21.7925 64.3377 21.8203 64.3377 21.761H62.3377ZM63.3433 20.4468C63.1224 20.5575 62.9187 20.6948 62.754 20.8557C62.6723 20.9355 62.5831 21.0378 62.5083 21.163C62.442 21.274 62.3377 21.4846 62.3377 21.761H64.3377C64.3377 21.8821 64.3137 21.979 64.2919 22.0432C64.2697 22.1085 64.244 22.1574 64.2252 22.1888C64.1889 22.2496 64.1572 22.2808 64.1517 22.2862C64.1393 22.2983 64.1625 22.2733 64.2394 22.2348L63.3433 20.4468ZM66.7105 20.609C66.2216 20.2414 65.6015 20.0999 65.0532 20.0839C64.4915 20.0676 63.8795 20.1782 63.3435 20.4467L64.2392 22.2349C64.4405 22.1341 64.7172 22.075 64.995 22.0831C65.2863 22.0916 65.4567 22.1685 65.5087 22.2076L66.7105 20.609ZM67.1997 20.5384C67.0832 20.6941 66.8646 20.7248 66.7104 20.6089L65.5088 22.2077C66.5483 22.989 68.0224 22.777 68.8009 21.7368L67.1997 20.5384ZM67.1294 20.0419C67.2849 20.1588 67.3172 20.3815 67.1997 20.5384L68.8009 21.7368C69.5786 20.6977 69.3691 19.2235 68.3311 18.4432L67.1294 20.0419ZM65.9549 19.4977C66.404 19.6111 66.8037 19.7972 67.1294 20.042L68.331 18.4432C67.7685 18.0204 67.1198 17.7291 66.4444 17.5586L65.9549 19.4977ZM65.1996 18.1967V18.5282H67.1996V18.1967H65.1996ZM64.8491 17.8431C65.0406 17.8431 65.1996 17.9993 65.1996 18.1967H67.1996C67.1996 16.899 66.1494 15.8431 64.8491 15.8431V17.8431ZM64.4986 18.1967C64.4986 17.9993 64.6577 17.8431 64.8491 17.8431V15.8431C63.5489 15.8431 62.4986 16.899 62.4986 18.1967H64.4986ZM64.4986 18.5688V18.1967H62.4986V18.5688H64.4986ZM63.0316 19.8135C63.2636 19.6972 63.5102 19.6035 63.7664 19.5322L63.2308 17.6053C62.8579 17.7089 62.4898 17.8479 62.1353 18.0256L63.0316 19.8135ZM61.6367 21.7611C61.6367 21.0252 62.0635 20.2986 63.0314 19.8136L62.1354 18.0255C60.629 18.7804 59.6367 20.1252 59.6367 21.7611H61.6367ZM62.7174 23.5508C61.9869 23.16 61.6367 22.5732 61.6367 21.7611H59.6367C59.6367 23.3182 60.3994 24.5789 61.774 25.3143L62.7174 23.5508ZM64.7853 24.1392C63.9512 23.9841 63.2779 23.8506 62.7174 23.5508L61.774 25.3143C62.655 25.7855 63.645 25.9614 64.4196 26.1055L64.7853 24.1392ZM64.7844 24.139L64.784 24.139L64.4209 26.1057L64.4213 26.1058L64.7844 24.139ZM66.6525 24.657C66.3596 24.5003 66.0134 24.4007 65.7207 24.3299C65.4147 24.2559 65.0807 24.1941 64.7855 24.1392L64.4201 26.1056C64.7275 26.1627 65.0064 26.2148 65.2506 26.2739C65.5081 26.3362 65.6497 26.3887 65.7091 26.4205L66.6525 24.657ZM67.3605 25.8219C67.3605 25.8001 67.3618 25.7085 67.3522 25.6179C67.3406 25.5073 67.3084 25.3345 67.2019 25.1517C67.0136 24.829 66.6966 24.6806 66.6524 24.6569L65.7092 26.4206C65.7482 26.4414 65.7303 26.4341 65.6963 26.4094C65.6548 26.3791 65.5563 26.3 65.4743 26.1595C65.3902 26.0153 65.3693 25.885 65.3632 25.8277C65.3593 25.7904 65.3605 25.7626 65.3605 25.8219H67.3605ZM66.3527 27.1356C66.5748 27.0243 66.7774 26.8866 66.9406 26.7279C67.0213 26.6495 67.1097 26.5492 67.1843 26.4269C67.2479 26.3229 67.3605 26.1081 67.3605 25.8219H65.3605C65.3605 25.6931 65.3875 25.5918 65.4099 25.5281C65.433 25.4626 65.4593 25.4143 65.4776 25.3844C65.513 25.3264 65.5429 25.2974 65.5466 25.2937C65.5559 25.2847 65.5306 25.3105 65.4565 25.3477L66.3527 27.1356ZM62.9878 26.974C63.4764 27.3413 64.0962 27.4826 64.644 27.4985C65.2053 27.5147 65.8169 27.4042 66.3527 27.1356L65.4565 25.3476C65.2556 25.4484 64.9793 25.5074 64.7019 25.4993C64.411 25.4909 64.2411 25.4141 64.1895 25.3753L62.9878 26.974ZM62.4985 27.0446C62.6152 26.8888 62.8339 26.8583 62.9877 26.974L64.1896 25.3754C63.1501 24.5939 61.6758 24.8062 60.8974 25.8462L62.4985 27.0446ZM62.5689 27.541C62.4135 27.4242 62.3811 27.2016 62.4986 27.0445L60.8973 25.8463C60.1197 26.8854 60.3293 28.3596 61.3672 29.1398L62.5689 27.541ZM63.7433 28.0849C63.2941 27.9716 62.8944 27.7857 62.5688 27.541L61.3673 29.1398C61.93 29.5627 62.5789 29.8538 63.254 30.0242L63.7433 28.0849ZM64.4986 29.3863V29.0545H62.4986V29.3863H64.4986ZM64.8491 29.7398C64.6577 29.7398 64.4986 29.5837 64.4986 29.3863H62.4986C62.4986 30.6839 63.5489 31.7398 64.8491 31.7398V29.7398ZM65.1996 29.3863C65.1996 29.5837 65.0406 29.7398 64.8491 29.7398V31.7398C66.1494 31.7398 67.1996 30.6839 67.1996 29.3863H65.1996ZM65.1996 29.0122V29.3863H67.1996V29.0122H65.1996Z" fill="#E3B04B" mask="url(#path-117-inside-1)"/>
</mask>
<g mask="url(#mask1)">
<path d="M69.7558 29.5864L69.7505 29.5956" stroke="#F4D8A0" stroke-width="0.15" stroke-miterlimit="10"/>
<path d="M69.6729 29.5416C69.6969 29.4999 69.7502 29.4857 69.7918 29.5097C69.8334 29.5338 69.8477 29.587 69.8237 29.6287C69.7996 29.6703 69.7464 29.6846 69.7047 29.6605C69.6631 29.6365 69.6488 29.5832 69.6729 29.5416Z" fill="#F4D8A0"/>
<path d="M76.2202 31.8036L73.5669 26.0981" stroke="#F4D8A0" stroke-width="0.15" stroke-miterlimit="10"/>
<path d="M68.0411 36.7381L63.9615 31.5193L63.9686 31.5068" stroke="#F4D8A0" stroke-width="0.15" stroke-miterlimit="10"/>
<path d="M69.7673 29.5962L63.9768 31.5084" stroke="#F4D8A0" stroke-width="0.15" stroke-miterlimit="10"/>
<path d="M69.7359 29.5132C69.7815 29.4981 69.8308 29.523 69.8458 29.5686C69.8608 29.6143 69.836 29.6635 69.7904 29.6786C69.7447 29.6936 69.6955 29.6688 69.6804 29.6231C69.6654 29.5775 69.6902 29.5282 69.7359 29.5132Z" fill="#F4D8A0"/>
<path d="M73.5438 26.0947L73.549 26.1039" stroke="#F4D8A0" stroke-width="0.15" stroke-miterlimit="10"/>
<path d="M73.4653 26.137C73.4413 26.0953 73.4555 26.0421 73.4972 26.018C73.5388 25.994 73.5921 26.0082 73.6161 26.0499C73.6401 26.0915 73.6259 26.1448 73.5843 26.1688C73.5426 26.1929 73.4894 26.1786 73.4653 26.137Z" fill="#F4D8A0"/>
<path d="M63.9281 31.5067L62.445 26.7246" stroke="#F4D8A0" stroke-width="0.15" stroke-miterlimit="10"/>
<path d="M64.0254 31.4841C64.0397 31.53 64.014 31.5788 63.9681 31.5931C63.9222 31.6073 63.8734 31.5817 63.8591 31.5358C63.8449 31.4899 63.8705 31.4411 63.9164 31.4268C63.9623 31.4125 64.0111 31.4382 64.0254 31.4841Z" fill="#F4D8A0"/>
<path d="M62.4458 26.7192L62.4511 26.7284" stroke="#F4D8A0" stroke-width="0.15" stroke-miterlimit="10"/>
<path d="M62.3682 26.762C62.3441 26.7203 62.3584 26.6671 62.4 26.643C62.4417 26.619 62.4949 26.6332 62.519 26.6749C62.543 26.7165 62.5287 26.7698 62.4871 26.7938C62.4455 26.8179 62.3922 26.8036 62.3682 26.762Z" fill="#F4D8A0"/>
<path d="M56.6443 26.5732L55.5596 32.5032" stroke="#F4D8A0" stroke-width="0.15" stroke-miterlimit="10"/>
<path d="M56.5611 26.5558C56.5697 26.5085 56.6151 26.4771 56.6624 26.4858C56.7097 26.4945 56.741 26.5399 56.7323 26.5871C56.7237 26.6344 56.6783 26.6657 56.631 26.6571C56.5837 26.6484 56.5524 26.603 56.5611 26.5558Z" fill="#F4D8A0"/>
<path d="M62.4576 40.132L63.9478 31.5193L63.9406 31.5068" stroke="#F4D8A0" stroke-width="0.15" stroke-miterlimit="10"/>
<path d="M56.6344 26.5684L56.6292 26.5775" stroke="#F4D8A0" stroke-width="0.15" stroke-miterlimit="10"/>
<path d="M56.551 26.524C56.575 26.4824 56.6283 26.4681 56.6699 26.4921C56.7115 26.5162 56.7258 26.5694 56.7018 26.6111C56.6777 26.6527 56.6245 26.667 56.5828 26.6429C56.5412 26.6189 56.5269 26.5656 56.551 26.524Z" fill="#F4D8A0"/>
<path d="M55.5538 32.5039L55.5466 32.5164L57.7838 37.7101" stroke="#F4D8A0" stroke-width="0.15" stroke-miterlimit="10"/>
<path d="M73.0089 16.2201L73.0036 16.2109" stroke="#F4D8A0" stroke-width="0.15" stroke-miterlimit="10"/>
<path d="M73.0849 16.1759C73.1089 16.2175 73.0946 16.2707 73.053 16.2948C73.0114 16.3188 72.9581 16.3046 72.9341 16.2629C72.91 16.2213 72.9243 16.168 72.9659 16.144C73.0076 16.12 73.0608 16.1342 73.0849 16.1759Z" fill="#F4D8A0"/>
<path d="M73.5438 26.0951L73.549 26.0859" stroke="#F4D8A0" stroke-width="0.15" stroke-miterlimit="10"/>
<path d="M73.6161 26.137C73.5921 26.1786 73.5388 26.1929 73.4972 26.1688C73.4555 26.1448 73.4413 26.0915 73.4653 26.0499C73.4894 26.0082 73.5426 25.994 73.5843 26.018C73.6259 26.0421 73.6401 26.0953 73.6161 26.137Z" fill="#F4D8A0"/>
<path d="M69.1691 16.5542L69.1638 16.5634" stroke="#F4D8A0" stroke-width="0.15" stroke-miterlimit="10"/>
<path d="M69.0973 16.5138C69.1214 16.4721 69.1746 16.4579 69.2163 16.4819C69.2579 16.5059 69.2722 16.5592 69.2481 16.6008C69.2241 16.6425 69.1708 16.6567 69.1292 16.6327C69.0876 16.6086 69.0733 16.5554 69.0973 16.5138Z" fill="#F4D8A0"/>
<path d="M65.9617 22.3031L69.1628 16.5728" stroke="#F4D8A0" stroke-width="0.15" stroke-miterlimit="10"/>
<path d="M66.0349 22.3464C66.0114 22.3883 65.9584 22.4033 65.9164 22.3798C65.8745 22.3563 65.8595 22.3033 65.883 22.2613C65.9065 22.2194 65.9595 22.2044 66.0015 22.2279C66.0434 22.2514 66.0584 22.3045 66.0349 22.3464Z" fill="#F4D8A0"/>
<path d="M79.6313 23.8257L79.6385 23.8382L73.5669 26.0873" stroke="#F4D8A0" stroke-width="0.15" stroke-miterlimit="10"/>
<path d="M69.7505 29.5781L69.7558 29.5873" stroke="#F4D8A0" stroke-width="0.15" stroke-miterlimit="10"/>
<path d="M69.6729 29.6194C69.6488 29.5777 69.6631 29.5245 69.7047 29.5004C69.7464 29.4764 69.7996 29.4907 69.8237 29.5323C69.8477 29.5739 69.8334 29.6272 69.7918 29.6512C69.7502 29.6753 69.6969 29.661 69.6729 29.6194Z" fill="#F4D8A0"/>
<path d="M79.6229 23.828L73.0357 16.2261" stroke="#F4D8A0" stroke-width="0.15" stroke-miterlimit="10"/>
<path d="M65.9569 22.3003L65.9497 22.3128L69.7555 29.5778" stroke="#F4D8A0" stroke-width="0.15" stroke-miterlimit="10"/>
<path d="M65.8833 22.2598C65.9073 22.2182 65.9606 22.2039 66.0022 22.228C66.0438 22.252 66.0581 22.3053 66.0341 22.3469C66.01 22.3885 65.9568 22.4028 65.9152 22.3788C65.8735 22.3547 65.8593 22.3015 65.8833 22.2598Z" fill="#F4D8A0"/>
<path d="M60.8925 16.2186L60.8872 16.2095" stroke="#F4D8A0" stroke-width="0.15" stroke-miterlimit="10"/>
<path d="M60.9638 16.1749C60.9878 16.2165 60.9735 16.2698 60.9319 16.2938C60.8903 16.3179 60.837 16.3036 60.813 16.262C60.7889 16.2203 60.8032 16.1671 60.8448 16.143C60.8865 16.119 60.9397 16.1333 60.9638 16.1749Z" fill="#F4D8A0"/>
<path d="M65.9391 22.3063L60.8956 16.2266" stroke="#F4D8A0" stroke-width="0.15" stroke-miterlimit="10"/>
<path d="M66.0027 22.2521C66.0334 22.2891 66.0284 22.344 65.9914 22.3747C65.9544 22.4054 65.8995 22.4004 65.8688 22.3634C65.8381 22.3265 65.8431 22.2716 65.8801 22.2408C65.9171 22.2101 65.972 22.2151 66.0027 22.2521Z" fill="#F4D8A0"/>
<path d="M52.7605 21.9321L52.7534 21.9446L56.6588 26.5644" stroke="#F4D8A0" stroke-width="0.15" stroke-miterlimit="10"/>
<path d="M52.7534 21.929L58.3446 15.7744" stroke="#F4D8A0" stroke-width="0.15" stroke-miterlimit="10"/>
<path d="M58.3368 15.7656L58.3315 15.7748" stroke="#F4D8A0" stroke-width="0.15" stroke-miterlimit="10"/>
<path d="M58.2653 15.7213C58.2893 15.6796 58.3426 15.6654 58.3842 15.6894C58.4259 15.7135 58.4401 15.7667 58.4161 15.8083C58.3921 15.85 58.3388 15.8642 58.2972 15.8402C58.2555 15.8162 58.2413 15.7629 58.2653 15.7213Z" fill="#F4D8A0"/>
<path d="M62.4576 26.7046L65.9397 22.3094L65.9325 22.2969" stroke="#F4D8A0" stroke-width="0.15" stroke-miterlimit="10"/>
<path d="M62.5261 26.7594C62.4962 26.797 62.4414 26.8033 62.4037 26.7734C62.3661 26.7435 62.3598 26.6887 62.3897 26.6511C62.4196 26.6134 62.4744 26.6071 62.512 26.637C62.5497 26.6669 62.556 26.7217 62.5261 26.7594Z" fill="#F4D8A0"/>
<path d="M62.4628 26.7061L62.4576 26.7152" stroke="#F4D8A0" stroke-width="0.15" stroke-miterlimit="10"/>
<path d="M62.3825 26.6607C62.4065 26.6191 62.4598 26.6048 62.5014 26.6289C62.5431 26.6529 62.5573 26.7062 62.5333 26.7478C62.5092 26.7894 62.456 26.8037 62.4144 26.7797C62.3727 26.7556 62.3585 26.7024 62.3825 26.6607Z" fill="#F4D8A0"/>
<path d="M56.6292 26.5601L56.6344 26.5692" stroke="#F4D8A0" stroke-width="0.15" stroke-miterlimit="10"/>
<path d="M56.551 26.6067C56.5269 26.5651 56.5412 26.5118 56.5828 26.4878C56.6245 26.4637 56.6777 26.478 56.7018 26.5196C56.7258 26.5612 56.7115 26.6145 56.6699 26.6385C56.6283 26.6626 56.575 26.6483 56.551 26.6067Z" fill="#F4D8A0"/>
<path d="M73.0201 16.2098L73.0253 16.2007" stroke="#F4D8A0" stroke-width="0.15" stroke-miterlimit="10"/>
<path d="M73.0849 16.2512C73.0608 16.2928 73.0076 16.3071 72.9659 16.2831C72.9243 16.259 72.91 16.2058 72.9341 16.1641C72.9581 16.1225 73.0114 16.1082 73.053 16.1323C73.0946 16.1563 73.1089 16.2096 73.0849 16.2512Z" fill="#F4D8A0"/>
<path d="M65.9835 14.2642L65.9763 14.2766L69.1596 16.5507" stroke="#F4D8A0" stroke-width="0.15" stroke-miterlimit="10"/>
<path d="M76.7098 14.5938L76.717 14.6062L73.0357 16.2065" stroke="#F4D8A0" stroke-width="0.15" stroke-miterlimit="10"/>
<path d="M69.1691 16.5555L69.1638 16.5464" stroke="#F4D8A0" stroke-width="0.15" stroke-miterlimit="10"/>
<path d="M69.2481 16.5138C69.2722 16.5554 69.2579 16.6086 69.2163 16.6327C69.1746 16.6567 69.1214 16.6425 69.0973 16.6008C69.0733 16.5592 69.0876 16.5059 69.1292 16.4819C69.1708 16.4579 69.2241 16.4721 69.2481 16.5138Z" fill="#F4D8A0"/>
<path d="M60.8872 16.2089L60.8925 16.1997" stroke="#F4D8A0" stroke-width="0.15" stroke-miterlimit="10"/>
<path d="M60.9638 16.2502C60.9397 16.2919 60.8865 16.3061 60.8448 16.2821C60.8032 16.2581 60.7889 16.2048 60.813 16.1632C60.837 16.1215 60.8903 16.1073 60.9319 16.1313C60.9735 16.1553 60.9878 16.2086 60.9638 16.2502Z" fill="#F4D8A0"/>
<path d="M58.3368 15.766L58.3315 15.7568" stroke="#F4D8A0" stroke-width="0.15" stroke-miterlimit="10"/>
<path d="M58.4161 15.7213C58.4401 15.7629 58.4259 15.8162 58.3842 15.8402C58.3426 15.8642 58.2893 15.85 58.2653 15.8083C58.2413 15.7667 58.2555 15.7135 58.2972 15.6894C58.3388 15.6654 58.3921 15.6796 58.4161 15.7213Z" fill="#F4D8A0"/>
<path d="M65.9635 14.2651L65.9707 14.2776L60.8951 16.2023" stroke="#F4D8A0" stroke-width="0.15" stroke-miterlimit="10"/>
<path d="M51.0239 11.8418L51.0167 11.8543L58.3331 15.7504" stroke="#F4D8A0" stroke-width="0.15" stroke-miterlimit="10"/>
<path d="M70.5573 32.1197L70.5502 32.1074" stroke="#F4D8A0" stroke-width="0.15" stroke-miterlimit="10"/>
<path d="M70.6348 32.0761C70.6589 32.1177 70.6447 32.171 70.6031 32.1951C70.5615 32.2192 70.5082 32.205 70.4841 32.1634C70.46 32.1218 70.4742 32.0686 70.5158 32.0445C70.5574 32.0204 70.6107 32.0345 70.6348 32.0761Z" fill="#F4D8A0"/>
<path d="M69.7505 29.5864L69.7558 29.5956" stroke="#F4D8A0" stroke-width="0.15" stroke-miterlimit="10"/>
<path d="M69.6729 29.6288C69.6488 29.5872 69.663 29.5339 69.7046 29.5098C69.7462 29.4857 69.7995 29.4999 69.8236 29.5415C69.8477 29.5831 69.8335 29.6363 69.7919 29.6604C69.7503 29.6845 69.697 29.6704 69.6729 29.6288Z" fill="#F4D8A0"/>
<path d="M70.5303 32.1068L69.7586 29.5957" stroke="#F4D8A0" stroke-width="0.15" stroke-miterlimit="10"/>
<path d="M70.6039 32.0834C70.618 32.1294 70.5922 32.1781 70.5463 32.1923C70.5004 32.2064 70.4516 32.1806 70.4375 32.1347C70.4233 32.0887 70.4491 32.04 70.495 32.0259C70.541 32.0117 70.5897 32.0375 70.6039 32.0834Z" fill="#F4D8A0"/>
<path d="M74.3024 38.5592L70.5357 32.1177" stroke="#F4D8A0" stroke-width="0.15" stroke-miterlimit="10"/>
<path d="M58.95 31.7397L58.9571 31.752" stroke="#F4D8A0" stroke-width="0.15" stroke-miterlimit="10"/>
<path d="M58.8797 31.7806C58.8556 31.739 58.8698 31.6858 58.9114 31.6616C58.953 31.6375 59.0063 31.6517 59.0304 31.6933C59.0545 31.7349 59.0403 31.7882 58.9987 31.8123C58.9571 31.8364 58.9038 31.8222 58.8797 31.7806Z" fill="#F4D8A0"/>
<path d="M56.6372 26.5659L56.6425 26.5751" stroke="#F4D8A0" stroke-width="0.15" stroke-miterlimit="10"/>
<path d="M56.563 26.6087C56.5389 26.5672 56.5531 26.5139 56.5947 26.4898C56.6363 26.4657 56.6896 26.4799 56.7137 26.5215C56.7378 26.563 56.7236 26.6163 56.682 26.6404C56.6404 26.6645 56.5871 26.6503 56.563 26.6087Z" fill="#F4D8A0"/>
<path d="M62.4504 40.1356L58.9576 31.7476" stroke="#F4D8A0" stroke-width="0.15" stroke-miterlimit="10"/>
<path d="M58.9407 31.7311L56.6252 26.5747" stroke="#F4D8A0" stroke-width="0.15" stroke-miterlimit="10"/>
<path d="M59.023 31.6934C59.0427 31.7373 59.0232 31.7888 58.9793 31.8086C58.9355 31.8283 58.8839 31.8087 58.8642 31.7649C58.8445 31.7211 58.864 31.6695 58.9079 31.6498C58.9517 31.63 59.0032 31.6496 59.023 31.6934Z" fill="#F4D8A0"/>
<path d="M72.8331 23.8315L73.5622 26.0806" stroke="#F4D8A0" stroke-width="0.15" stroke-miterlimit="10"/>
<path d="M72.7587 23.8571C72.7439 23.8114 72.7689 23.7623 72.8146 23.7474C72.8603 23.7326 72.9094 23.7576 72.9243 23.8033C72.9392 23.8491 72.9141 23.8982 72.8684 23.913C72.8227 23.9279 72.7736 23.9029 72.7587 23.8571Z" fill="#F4D8A0"/>
<path d="M72.8052 23.8267L72.8123 23.8389" stroke="#F4D8A0" stroke-width="0.15" stroke-miterlimit="10"/>
<path d="M72.7276 23.869C72.7035 23.8274 72.7177 23.7741 72.7593 23.75C72.8009 23.7259 72.8542 23.7401 72.8783 23.7817C72.9024 23.8233 72.8882 23.8766 72.8466 23.9007C72.805 23.9248 72.7517 23.9106 72.7276 23.869Z" fill="#F4D8A0"/>
<path d="M69.1574 16.5673L69.1521 16.5581" stroke="#F4D8A0" stroke-width="0.15" stroke-miterlimit="10"/>
<path d="M69.2332 16.5258C69.2573 16.5674 69.2431 16.6207 69.2015 16.6448C69.1599 16.6689 69.1067 16.6547 69.0826 16.6131C69.0585 16.5715 69.0727 16.5183 69.1143 16.4942C69.1559 16.4701 69.2091 16.4843 69.2332 16.5258Z" fill="#F4D8A0"/>
<path d="M72.8164 23.8204L69.1565 16.5679" stroke="#F4D8A0" stroke-width="0.15" stroke-miterlimit="10"/>
<path d="M72.8806 23.7812C72.9023 23.8241 72.8852 23.8765 72.8422 23.8982C72.7993 23.9199 72.747 23.9027 72.7253 23.8598C72.7036 23.8169 72.7208 23.7645 72.7637 23.7428C72.8066 23.7211 72.8589 23.7383 72.8806 23.7812Z" fill="#F4D8A0"/>
<path d="M73.5438 26.0825L73.5491 26.0917" stroke="#F4D8A0" stroke-width="0.15" stroke-miterlimit="10"/>
<path d="M73.4654 26.1253C73.4413 26.0838 73.4555 26.0305 73.4971 26.0064C73.5387 25.9823 73.5919 25.9965 73.616 26.0381C73.6401 26.0796 73.626 26.1329 73.5844 26.157C73.5428 26.1811 73.4895 26.1669 73.4654 26.1253Z" fill="#F4D8A0"/>
<path d="M58.3267 15.7679L58.3214 15.7588" stroke="#F4D8A0" stroke-width="0.15" stroke-miterlimit="10"/>
<path d="M58.4017 15.7241C58.4258 15.7657 58.4116 15.819 58.37 15.8431C58.3284 15.8672 58.2752 15.853 58.2511 15.8114C58.227 15.7698 58.2411 15.7165 58.2827 15.6924C58.3243 15.6683 58.3776 15.6825 58.4017 15.7241Z" fill="#F4D8A0"/>
<path d="M62.4576 26.7061L62.4629 26.7152" stroke="#F4D8A0" stroke-width="0.15" stroke-miterlimit="10"/>
<path d="M62.3826 26.7479C62.3585 26.7063 62.3726 26.653 62.4142 26.6289C62.4558 26.6048 62.5091 26.619 62.5332 26.6606C62.5573 26.7022 62.5431 26.7555 62.5015 26.7796C62.4599 26.8037 62.4067 26.7895 62.3826 26.7479Z" fill="#F4D8A0"/>
<path d="M59.5975 24.744L58.3279 15.7695" stroke="#F4D8A0" stroke-width="0.15" stroke-miterlimit="10"/>
<path d="M59.6855 24.7316C59.6923 24.7792 59.6591 24.8233 59.6115 24.83C59.5639 24.8368 59.5199 24.8036 59.5131 24.756C59.5064 24.7084 59.5395 24.6644 59.5871 24.6576C59.6347 24.6509 59.6788 24.684 59.6855 24.7316Z" fill="#F4D8A0"/>
<path d="M62.4515 26.7031L59.606 24.7534" stroke="#F4D8A0" stroke-width="0.15" stroke-miterlimit="10"/>
<path d="M62.5078 26.6324C62.5475 26.6595 62.5577 26.7137 62.5305 26.7534C62.5034 26.7931 62.4492 26.8033 62.4095 26.7761C62.3699 26.749 62.3597 26.6948 62.3868 26.6551C62.4139 26.6154 62.4681 26.6053 62.5078 26.6324Z" fill="#F4D8A0"/>
<path d="M59.6013 24.75L59.6084 24.7623" stroke="#F4D8A0" stroke-width="0.15" stroke-miterlimit="10"/>
<path d="M59.5349 24.7967C59.5108 24.7551 59.525 24.7019 59.5666 24.6778C59.6082 24.6537 59.6615 24.6678 59.6856 24.7094C59.7097 24.751 59.6955 24.8043 59.6539 24.8284C59.6123 24.8525 59.559 24.8383 59.5349 24.7967Z" fill="#F4D8A0"/>
<path d="M73.0268 16.2026L69.8825 11.6826" stroke="#F4D8A0" stroke-width="0.15" stroke-miterlimit="10"/>
<path d="M73.0952 16.1574C73.1227 16.1968 73.113 16.2511 73.0736 16.2786C73.0341 16.3061 72.9799 16.2964 72.9524 16.257C72.9249 16.2175 72.9345 16.1633 72.974 16.1358C73.0134 16.1083 73.0677 16.118 73.0952 16.1574Z" fill="#F4D8A0"/>
<path d="M73.0334 16.2089L73.0281 16.1997" stroke="#F4D8A0" stroke-width="0.15" stroke-miterlimit="10"/>
<path d="M73.1085 16.1631C73.1326 16.2047 73.1184 16.2579 73.0768 16.282C73.0352 16.3061 72.9819 16.2919 72.9578 16.2503C72.9337 16.2087 72.9479 16.1555 72.9895 16.1314C73.0311 16.1073 73.0844 16.1215 73.1085 16.1631Z" fill="#F4D8A0"/>
<path d="M60.8925 16.2089L60.8872 16.1997" stroke="#F4D8A0" stroke-width="0.15" stroke-miterlimit="10"/>
<path d="M60.9637 16.1631C60.9878 16.2047 60.9736 16.2579 60.932 16.282C60.8904 16.3061 60.8371 16.2919 60.813 16.2503C60.7889 16.2087 60.8031 16.1555 60.8447 16.1314C60.8863 16.1073 60.9396 16.1215 60.9637 16.1631Z" fill="#F4D8A0"/>
<path d="M60.8818 16.2003L58.9576 11.855" stroke="#F4D8A0" stroke-width="0.15" stroke-miterlimit="10"/>
<path d="M60.968 16.1626C60.9875 16.2065 60.9676 16.258 60.9237 16.2775C60.8798 16.297 60.8283 16.2772 60.8088 16.2332C60.7893 16.1893 60.8091 16.1378 60.8531 16.1183C60.897 16.0988 60.9485 16.1187 60.968 16.1626Z" fill="#F4D8A0"/>
<path d="M70.5502 32.1197L70.5573 32.1074" stroke="#F4D8A0" stroke-width="0.15" stroke-miterlimit="10"/>
<path d="M70.6348 32.1634C70.6107 32.205 70.5574 32.2192 70.5158 32.1951C70.4742 32.171 70.46 32.1177 70.4841 32.0761C70.5082 32.0345 70.5615 32.0204 70.6031 32.0445C70.6447 32.0686 70.6589 32.1218 70.6348 32.1634Z" fill="#F4D8A0"/>
<path d="M73.5647 26.0938L73.5594 26.1029" stroke="#F4D8A0" stroke-width="0.15" stroke-miterlimit="10"/>
<path d="M73.4891 26.0493C73.5132 26.0077 73.5665 25.9935 73.6081 26.0176C73.6497 26.0417 73.6639 26.095 73.6398 26.1366C73.6156 26.1782 73.5624 26.1924 73.5208 26.1683C73.4792 26.1442 73.465 26.0909 73.4891 26.0493Z" fill="#F4D8A0"/>
<path d="M70.5409 32.1152L68.044 36.7351" stroke="#F4D8A0" stroke-width="0.15" stroke-miterlimit="10"/>
<path d="M70.4647 32.0725C70.4876 32.0302 70.5404 32.0145 70.5827 32.0374C70.625 32.0603 70.6407 32.1131 70.6178 32.1554C70.5949 32.1977 70.542 32.2134 70.4998 32.1905C70.4575 32.1676 70.4418 32.1147 70.4647 32.0725Z" fill="#F4D8A0"/>
<path d="M73.56 26.0986L70.5474 32.1035" stroke="#F4D8A0" stroke-width="0.15" stroke-miterlimit="10"/>
<path d="M73.4864 26.0582C73.508 26.0153 73.5603 25.998 73.6033 26.0196C73.6462 26.0411 73.6635 26.0935 73.6419 26.1364C73.6203 26.1794 73.568 26.1967 73.525 26.1751C73.4821 26.1535 73.4648 26.1012 73.4864 26.0582Z" fill="#F4D8A0"/>
<path d="M57.774 37.7091L58.9512 31.7417" stroke="#F4D8A0" stroke-width="0.15" stroke-miterlimit="10"/>
<path d="M62.4511 26.7197L62.4458 26.7289" stroke="#F4D8A0" stroke-width="0.15" stroke-miterlimit="10"/>
<path d="M62.3683 26.6792C62.3924 26.6376 62.4456 26.6234 62.4872 26.6475C62.5288 26.6716 62.543 26.7249 62.5189 26.7665C62.4948 26.8081 62.4415 26.8222 62.3999 26.7981C62.3583 26.774 62.3441 26.7208 62.3683 26.6792Z" fill="#F4D8A0"/>
<path d="M58.9732 31.752L58.9803 31.7397" stroke="#F4D8A0" stroke-width="0.15" stroke-miterlimit="10"/>
<path d="M59.0457 31.8002C59.0216 31.8417 58.9683 31.8559 58.9268 31.8318C58.8852 31.8077 58.871 31.7545 58.8951 31.7129C58.9192 31.6713 58.9725 31.6571 59.0141 31.6812C59.0556 31.7053 59.0698 31.7586 59.0457 31.8002Z" fill="#F4D8A0"/>
<path d="M62.4513 26.729L58.9656 31.7357" stroke="#F4D8A0" stroke-width="0.15" stroke-miterlimit="10"/>
<path d="M62.3724 26.6779C62.4 26.6384 62.4542 26.6288 62.4937 26.6563C62.5331 26.6838 62.5428 26.7381 62.5152 26.7775C62.4877 26.8169 62.4335 26.8266 62.394 26.7991C62.3546 26.7716 62.3449 26.7173 62.3724 26.6779Z" fill="#F4D8A0"/>
<path d="M73.0334 16.2075L73.0281 16.2167" stroke="#F4D8A0" stroke-width="0.15" stroke-miterlimit="10"/>
<path d="M72.9578 16.1631C72.9819 16.1215 73.0352 16.1073 73.0768 16.1314C73.1184 16.1555 73.1326 16.2087 73.1085 16.2503C73.0844 16.2919 73.0311 16.3061 72.9895 16.282C72.9479 16.2579 72.9337 16.2047 72.9578 16.1631Z" fill="#F4D8A0"/>
<path d="M72.8287 23.8364L69.7591 29.5792" stroke="#F4D8A0" stroke-width="0.15" stroke-miterlimit="10"/>
<path d="M72.7533 23.794C72.776 23.7516 72.8288 23.7357 72.8712 23.7584C72.9135 23.7811 72.9295 23.8339 72.9068 23.8762C72.8841 23.9186 72.8313 23.9346 72.7889 23.9119C72.7466 23.8892 72.7306 23.8364 72.7533 23.794Z" fill="#F4D8A0"/>
<path d="M72.8323 23.829L73.0313 16.2271" stroke="#F4D8A0" stroke-width="0.15" stroke-miterlimit="10"/>
<path d="M72.9165 23.833C72.9153 23.8811 72.8753 23.919 72.8272 23.9177C72.7792 23.9165 72.7412 23.8765 72.7425 23.8284C72.7437 23.7804 72.7837 23.7424 72.8318 23.7437C72.8798 23.7449 72.9178 23.7849 72.9165 23.833Z" fill="#F4D8A0"/>
<path d="M69.7505 29.5868L69.7558 29.5776" stroke="#F4D8A0" stroke-width="0.15" stroke-miterlimit="10"/>
<path d="M69.8236 29.6288C69.7995 29.6704 69.7462 29.6845 69.7046 29.6604C69.663 29.6363 69.6488 29.5831 69.6729 29.5415C69.697 29.4999 69.7503 29.4857 69.7919 29.5098C69.8335 29.5339 69.8477 29.5872 69.8236 29.6288Z" fill="#F4D8A0"/>
<path d="M72.8277 23.8262L72.8206 23.8384" stroke="#F4D8A0" stroke-width="0.15" stroke-miterlimit="10"/>
<path d="M72.7542 23.7817C72.7783 23.7401 72.8316 23.7259 72.8732 23.75C72.9148 23.7741 72.9289 23.8274 72.9048 23.869C72.8807 23.9106 72.8274 23.9248 72.7858 23.9007C72.7443 23.8766 72.7301 23.8233 72.7542 23.7817Z" fill="#F4D8A0"/>
<path d="M60.8925 16.2075L60.8872 16.2167" stroke="#F4D8A0" stroke-width="0.15" stroke-miterlimit="10"/>
<path d="M60.813 16.1631C60.8371 16.1215 60.8904 16.1073 60.932 16.1314C60.9736 16.1555 60.9878 16.2087 60.9637 16.2503C60.9396 16.2919 60.8863 16.3061 60.8447 16.282C60.8031 16.2579 60.7889 16.2047 60.813 16.1631Z" fill="#F4D8A0"/>
<path d="M56.6292 26.5543L59.5992 24.7544" stroke="#F4D8A0" stroke-width="0.15" stroke-miterlimit="10"/>
<path d="M56.6714 26.6289C56.6303 26.6537 56.5768 26.6405 56.5519 26.5994C56.527 26.5583 56.5402 26.5047 56.5813 26.4799C56.6225 26.455 56.676 26.4682 56.7009 26.5093C56.7258 26.5504 56.7126 26.604 56.6714 26.6289Z" fill="#F4D8A0"/>
<path d="M59.6056 24.7456L59.5984 24.7579" stroke="#F4D8A0" stroke-width="0.15" stroke-miterlimit="10"/>
<path d="M59.5201 24.7006C59.5442 24.6591 59.5975 24.6449 59.6391 24.669C59.6806 24.6931 59.6948 24.7463 59.6707 24.7879C59.6466 24.8295 59.5933 24.8437 59.5518 24.8196C59.5102 24.7955 59.496 24.7422 59.5201 24.7006Z" fill="#F4D8A0"/>
<path d="M59.5984 24.7533L60.8681 16.228" stroke="#F4D8A0" stroke-width="0.15" stroke-miterlimit="10"/>
<path d="M59.6815 24.7664C59.6744 24.814 59.6301 24.8468 59.5825 24.8397C59.535 24.8326 59.5022 24.7883 59.5093 24.7407C59.5164 24.6932 59.5607 24.6604 59.6083 24.6675C59.6558 24.6746 59.6886 24.7189 59.6815 24.7664Z" fill="#F4D8A0"/>
<path d="M56.6345 26.5601L56.6292 26.5692" stroke="#F4D8A0" stroke-width="0.15" stroke-miterlimit="10"/>
<path d="M56.5511 26.5195C56.5752 26.4779 56.6284 26.4637 56.67 26.4878C56.7116 26.5119 56.7258 26.5652 56.7017 26.6068C56.6776 26.6484 56.6243 26.6626 56.5827 26.6385C56.5411 26.6144 56.5269 26.5611 56.5511 26.5195Z" fill="#F4D8A0"/>
<path d="M69.1521 16.554L69.8812 11.6846" stroke="#F4D8A0" stroke-width="0.15" stroke-miterlimit="10"/>
<path d="M69.244 16.5643C69.2369 16.6119 69.1925 16.6447 69.145 16.6375C69.0974 16.6304 69.0647 16.586 69.0718 16.5385C69.0789 16.491 69.1233 16.4582 69.1708 16.4653C69.2184 16.4725 69.2511 16.5168 69.244 16.5643Z" fill="#F4D8A0"/>
<path d="M69.1521 16.5594L69.1574 16.5503" stroke="#F4D8A0" stroke-width="0.15" stroke-miterlimit="10"/>
<path d="M69.2332 16.6014C69.2091 16.643 69.1559 16.6572 69.1143 16.6331C69.0727 16.609 69.0585 16.5557 69.0826 16.5141C69.1067 16.4725 69.1599 16.4583 69.2015 16.4824C69.2431 16.5065 69.2573 16.5598 69.2332 16.6014Z" fill="#F4D8A0"/>
<path d="M58.3286 15.757L58.9582 11.8608" stroke="#F4D8A0" stroke-width="0.15" stroke-miterlimit="10"/>
<path d="M58.4118 15.769C58.4041 15.8164 58.3594 15.8487 58.312 15.841C58.2645 15.8333 58.2322 15.7886 58.2399 15.7411C58.2476 15.6937 58.2923 15.6614 58.3398 15.6691C58.3872 15.6768 58.4195 15.7215 58.4118 15.769Z" fill="#F4D8A0"/>
<path d="M58.3286 15.7557L58.3339 15.7466" stroke="#F4D8A0" stroke-width="0.15" stroke-miterlimit="10"/>
<path d="M58.4017 15.7982C58.3776 15.8398 58.3243 15.854 58.2827 15.8299C58.2411 15.8058 58.227 15.7525 58.2511 15.7109C58.2752 15.6693 58.3284 15.6551 58.37 15.6792C58.4116 15.7033 58.4258 15.7566 58.4017 15.7982Z" fill="#F4D8A0"/>
<path d="M63.9414 31.5122H63.9574" stroke="#F4D8A0" stroke-width="0.15" stroke-miterlimit="10"/>
<path d="M63.9311 31.6023C63.883 31.6023 63.844 31.5634 63.844 31.5153C63.844 31.4672 63.883 31.4282 63.9311 31.4282C63.9791 31.4282 64.0181 31.4672 64.0181 31.5153C64.0181 31.5634 63.9791 31.6023 63.9311 31.6023Z" fill="#F4D8A0"/>
<path d="M70.5426 32.1021H70.5284" stroke="#F4D8A0" stroke-width="0.15" stroke-miterlimit="10"/>
<path d="M70.5451 32.1922C70.5932 32.1922 70.6322 32.1532 70.6322 32.1051C70.6322 32.057 70.5932 32.0181 70.5451 32.0181C70.497 32.0181 70.4581 32.057 70.4581 32.1051C70.4581 32.1532 70.497 32.1922 70.5451 32.1922Z" fill="#F4D8A0"/>
<path d="M70.5474 32.1035L76.2132 31.8047" stroke="#F4D8A0" stroke-width="0.15" stroke-miterlimit="10"/>
<path d="M70.5492 32.1911C70.5012 32.1936 70.4602 32.1567 70.4577 32.1087C70.4551 32.0607 70.492 32.0197 70.54 32.0172C70.588 32.0147 70.629 32.0516 70.6316 32.0996C70.6341 32.1476 70.5972 32.1886 70.5492 32.1911Z" fill="#F4D8A0"/>
<path d="M63.9576 31.5107L70.5197 32.1083" stroke="#F4D8A0" stroke-width="0.15" stroke-miterlimit="10"/>
<path d="M63.9508 31.5966C63.9029 31.5923 63.8676 31.5499 63.872 31.502C63.8763 31.4541 63.9187 31.4189 63.9666 31.4232C64.0144 31.4276 64.0497 31.4699 64.0454 31.5178C64.041 31.5657 63.9987 31.601 63.9508 31.5966Z" fill="#F4D8A0"/>
<path d="M63.9419 31.5034H63.9579" stroke="#F4D8A0" stroke-width="0.15" stroke-miterlimit="10"/>
<path d="M63.943 31.5896C63.895 31.5896 63.856 31.5507 63.856 31.5026C63.856 31.4545 63.895 31.4155 63.943 31.4155C63.9911 31.4155 64.0301 31.4545 64.0301 31.5026C64.0301 31.5507 63.9911 31.5896 63.943 31.5896Z" fill="#F4D8A0"/>
<path d="M63.9343 31.5112L58.9656 31.7353" stroke="#F4D8A0" stroke-width="0.15" stroke-miterlimit="10"/>
<path d="M63.9274 31.4229C63.9754 31.4208 64.0161 31.458 64.0183 31.506C64.0205 31.554 63.9833 31.5947 63.9353 31.5969C63.8872 31.5991 63.8465 31.5619 63.8444 31.5138C63.8422 31.4658 63.8794 31.4251 63.9274 31.4229Z" fill="#F4D8A0"/>
<path d="M55.5549 32.5018L58.955 31.73" stroke="#F4D8A0" stroke-width="0.15" stroke-miterlimit="10"/>
<path d="M58.9678 31.7378H58.9536" stroke="#F4D8A0" stroke-width="0.15" stroke-miterlimit="10"/>
<path d="M58.9704 31.6519C59.0185 31.6519 59.0575 31.6908 59.0575 31.7389C59.0575 31.787 59.0185 31.826 58.9704 31.826C58.9223 31.826 58.8833 31.787 58.8833 31.7389C58.8833 31.6908 58.9223 31.6519 58.9704 31.6519Z" fill="#F4D8A0"/>
<path d="M72.83 23.8186L65.969 22.2964" stroke="#F4D8A0" stroke-width="0.15" stroke-miterlimit="10"/>
<path d="M72.8483 23.7321C72.8953 23.7424 72.9249 23.7889 72.9145 23.8359C72.9041 23.8828 72.8576 23.9125 72.8107 23.9021C72.7638 23.8917 72.7341 23.8452 72.7445 23.7982C72.7549 23.7513 72.8014 23.7217 72.8483 23.7321Z" fill="#F4D8A0"/>
<path d="M72.8275 23.8267H72.8133" stroke="#F4D8A0" stroke-width="0.15" stroke-miterlimit="10"/>
<path d="M72.8295 23.9124C72.8776 23.9124 72.9166 23.8734 72.9166 23.8253C72.9166 23.7773 72.8776 23.7383 72.8295 23.7383C72.7814 23.7383 72.7424 23.7773 72.7424 23.8253C72.7424 23.8734 72.7814 23.9124 72.8295 23.9124Z" fill="#F4D8A0"/>
<path d="M79.6258 23.8267H72.8396" stroke="#F4D8A0" stroke-width="0.15" stroke-miterlimit="10"/>
<path d="M65.9497 22.3003H65.9657" stroke="#F4D8A0" stroke-width="0.15" stroke-miterlimit="10"/>
<path d="M65.9587 22.3904C65.9106 22.3904 65.8716 22.3514 65.8716 22.3034C65.8716 22.2553 65.9106 22.2163 65.9587 22.2163C66.0067 22.2163 66.0457 22.2553 66.0457 22.3034C66.0457 22.3514 66.0067 22.3904 65.9587 22.3904Z" fill="#F4D8A0"/>
<path d="M65.926 22.2998H65.942" stroke="#F4D8A0" stroke-width="0.15" stroke-miterlimit="10"/>
<path d="M65.9232 22.386C65.8752 22.386 65.8362 22.347 65.8362 22.299C65.8362 22.2509 65.8752 22.2119 65.9232 22.2119C65.9713 22.2119 66.0103 22.2509 66.0103 22.299C66.0103 22.347 65.9713 22.386 65.9232 22.386Z" fill="#F4D8A0"/>
<path d="M65.9348 22.3018L59.6216 24.7473" stroke="#F4D8A0" stroke-width="0.15" stroke-miterlimit="10"/>
<path d="M65.9039 22.2241C65.9487 22.2068 65.9991 22.2291 66.0165 22.274C66.0338 22.3188 66.0115 22.3692 65.9666 22.3865C65.9218 22.4039 65.8714 22.3816 65.8541 22.3367C65.8367 22.2919 65.859 22.2415 65.9039 22.2241Z" fill="#F4D8A0"/>
<path d="M59.5998 24.7428L52.7388 21.9229" stroke="#F4D8A0" stroke-width="0.15" stroke-miterlimit="10"/>
<path d="M59.6323 24.6623C59.6768 24.6805 59.6981 24.7314 59.6799 24.7759C59.6616 24.8204 59.6108 24.8416 59.5663 24.8234C59.5218 24.8052 59.5005 24.7543 59.5188 24.7098C59.537 24.6653 59.5879 24.6441 59.6323 24.6623Z" fill="#F4D8A0"/>
<path d="M59.6038 24.7456H59.5896" stroke="#F4D8A0" stroke-width="0.15" stroke-miterlimit="10"/>
<path d="M59.5954 24.6572C59.6435 24.6572 59.6825 24.6962 59.6825 24.7443C59.6825 24.7924 59.6435 24.8313 59.5954 24.8313C59.5473 24.8313 59.5083 24.7924 59.5083 24.7443C59.5083 24.6962 59.5473 24.6572 59.5954 24.6572Z" fill="#F4D8A0"/>
<path d="M65.4691 38.5745L63.9503 31.5122" stroke="#F4D8A0" stroke-width="0.15" stroke-miterlimit="10"/>
<path d="M66.9376 28.3628L63.9497 31.5071" stroke="#F4D8A0" stroke-width="0.15" stroke-miterlimit="10"/>
<path d="M66.8766 28.3019C66.9098 28.2671 66.9649 28.2658 66.9997 28.2989C67.0345 28.3321 67.0359 28.3872 67.0027 28.422C66.9695 28.4568 66.9144 28.4582 66.8796 28.425C66.8448 28.3918 66.8435 28.3367 66.8766 28.3019Z" fill="#F4D8A0"/>
<path d="M69.7477 29.589L66.9341 28.3662" stroke="#F4D8A0" stroke-width="0.15" stroke-miterlimit="10"/>
<path d="M69.7743 29.5092C69.8184 29.5283 69.8387 29.5796 69.8195 29.6237C69.8004 29.6678 69.7491 29.688 69.705 29.6689C69.6609 29.6498 69.6407 29.5985 69.6598 29.5544C69.6789 29.5103 69.7302 29.49 69.7743 29.5092Z" fill="#F4D8A0"/>
<path d="M73.5438 26.0947H73.5543" stroke="#F4D8A0" stroke-width="0.15" stroke-miterlimit="10"/>
<path d="M73.5407 26.1805C73.5888 26.1805 73.6278 26.1415 73.6278 26.0934C73.6278 26.0453 73.5888 26.0063 73.5407 26.0063C73.4926 26.0063 73.4536 26.0453 73.4536 26.0934C73.4536 26.1415 73.4926 26.1805 73.5407 26.1805Z" fill="#F4D8A0"/>
<path d="M69.7505 29.5864H69.7611" stroke="#F4D8A0" stroke-width="0.15" stroke-miterlimit="10"/>
<path d="M69.7483 29.6722C69.7963 29.6722 69.8353 29.6332 69.8353 29.5851C69.8353 29.537 69.7963 29.498 69.7483 29.498C69.7002 29.498 69.6612 29.537 69.6612 29.5851C69.6612 29.6332 69.7002 29.6722 69.7483 29.6722Z" fill="#F4D8A0"/>
<path d="M79.0578 27.843L73.5552 26.0962" stroke="#F4D8A0" stroke-width="0.15" stroke-miterlimit="10"/>
<path d="M73.5471 26.0947L69.7591 29.5884" stroke="#F4D8A0" stroke-width="0.15" stroke-miterlimit="10"/>
<path d="M73.4982 26.0337C73.5335 26.0012 73.5886 26.0035 73.6212 26.0388C73.6537 26.0742 73.6514 26.1293 73.6161 26.1619C73.5807 26.1944 73.5256 26.1921 73.4931 26.1568C73.4605 26.1214 73.4628 26.0663 73.4982 26.0337Z" fill="#F4D8A0"/>
<path d="M62.4458 26.7197L66.9276 28.3668" stroke="#F4D8A0" stroke-width="0.15" stroke-miterlimit="10"/>
<path d="M62.4136 26.8046C62.3685 26.788 62.3453 26.738 62.3618 26.6929C62.3784 26.6477 62.4284 26.6245 62.4736 26.6411C62.5187 26.6576 62.5419 26.7077 62.5253 26.7528C62.5088 26.7979 62.4588 26.8211 62.4136 26.8046Z" fill="#F4D8A0"/>
<path d="M56.628 26.5684H56.6174" stroke="#F4D8A0" stroke-width="0.15" stroke-miterlimit="10"/>
<path d="M56.6264 26.4805C56.6744 26.4805 56.7134 26.5195 56.7134 26.5675C56.7134 26.6156 56.6744 26.6546 56.6264 26.6546C56.5783 26.6546 56.5393 26.6156 56.5393 26.5675C56.5393 26.5195 56.5783 26.4805 56.6264 26.4805Z" fill="#F4D8A0"/>
<path d="M53.2 26.9677L56.636 26.5693" stroke="#F4D8A0" stroke-width="0.15" stroke-miterlimit="10"/>
<path d="M62.4491 26.7197H62.4385" stroke="#F4D8A0" stroke-width="0.15" stroke-miterlimit="10"/>
<path d="M62.4436 26.6357C62.4916 26.6357 62.5306 26.6747 62.5306 26.7228C62.5306 26.7709 62.4916 26.8099 62.4436 26.8099C62.3955 26.8099 62.3565 26.7709 62.3565 26.7228C62.3565 26.6747 62.3955 26.6357 62.4436 26.6357Z" fill="#F4D8A0"/>
<path d="M56.6292 26.5684L62.4339 26.7178" stroke="#F4D8A0" stroke-width="0.15" stroke-miterlimit="10"/>
<path d="M56.6241 26.6546C56.5761 26.6533 56.5381 26.6133 56.5393 26.5653C56.5406 26.5172 56.5805 26.4793 56.6286 26.4805C56.6767 26.4817 56.7146 26.5217 56.7134 26.5698C56.7122 26.6178 56.6722 26.6558 56.6241 26.6546Z" fill="#F4D8A0"/>
<path d="M65.9497 22.3003L66.9457 28.3643" stroke="#F4D8A0" stroke-width="0.15" stroke-miterlimit="10"/>
<path d="M65.8728 22.3175C65.865 22.2701 65.8971 22.2253 65.9445 22.2175C65.992 22.2097 66.0368 22.2418 66.0446 22.2892C66.0524 22.3367 66.0203 22.3815 65.9728 22.3893C65.9254 22.3971 65.8806 22.365 65.8728 22.3175Z" fill="#F4D8A0"/>
<path d="M65.9707 19.2505L65.9458 22.295" stroke="#F4D8A0" stroke-width="0.15" stroke-miterlimit="10"/>
<path d="M65.8833 19.2489C65.8837 19.2009 65.923 19.1622 65.9711 19.1626C66.0192 19.163 66.0578 19.2023 66.0574 19.2504C66.0571 19.2984 66.0178 19.3371 65.9697 19.3367C65.9216 19.3363 65.8829 19.297 65.8833 19.2489Z" fill="#F4D8A0"/>
<path d="M69.1666 16.5542H69.156" stroke="#F4D8A0" stroke-width="0.15" stroke-miterlimit="10"/>
<path d="M69.1727 16.6443C69.2208 16.6443 69.2598 16.6054 69.2598 16.5573C69.2598 16.5092 69.2208 16.4702 69.1727 16.4702C69.1246 16.4702 69.0857 16.5092 69.0857 16.5573C69.0857 16.6054 69.1246 16.6443 69.1727 16.6443Z" fill="#F4D8A0"/>
<path d="M73.0387 16.2075H73.0281" stroke="#F4D8A0" stroke-width="0.15" stroke-miterlimit="10"/>
<path d="M73.0332 16.2937C73.0812 16.2937 73.1202 16.2548 73.1202 16.2067C73.1202 16.1586 73.0812 16.1196 73.0332 16.1196C72.9851 16.1196 72.9461 16.1586 72.9461 16.2067C72.9461 16.2548 72.9851 16.2937 73.0332 16.2937Z" fill="#F4D8A0"/>
<path d="M65.9693 19.2562L69.1563 16.561" stroke="#F4D8A0" stroke-width="0.15" stroke-miterlimit="10"/>
<path d="M66.0265 19.324C65.9898 19.355 65.9349 19.3504 65.9039 19.3136C65.8728 19.2769 65.8775 19.2219 65.9142 19.1909C65.951 19.1599 66.0059 19.1646 66.0369 19.2013C66.0679 19.2381 66.0633 19.293 66.0265 19.324Z" fill="#F4D8A0"/>
<path d="M78.2971 18.8537L73.0435 16.2085" stroke="#F4D8A0" stroke-width="0.15" stroke-miterlimit="10"/>
<path d="M69.1609 16.559L73.0236 16.2104" stroke="#F4D8A0" stroke-width="0.15" stroke-miterlimit="10"/>
<path d="M69.1657 16.6455C69.1178 16.6498 69.0755 16.6144 69.0712 16.5666C69.0669 16.5187 69.1022 16.4764 69.1501 16.472C69.198 16.4677 69.2403 16.503 69.2446 16.5509C69.2489 16.5988 69.2136 16.6411 69.1657 16.6455Z" fill="#F4D8A0"/>
<path d="M65.9749 19.253L60.8956 16.2085" stroke="#F4D8A0" stroke-width="0.15" stroke-miterlimit="10"/>
<path d="M66.0203 19.1813C66.0616 19.206 66.075 19.2594 66.0503 19.3007C66.0257 19.342 65.9722 19.3554 65.9309 19.3307C65.8897 19.3061 65.8762 19.2526 65.9009 19.2113C65.9256 19.1701 65.979 19.1566 66.0203 19.1813Z" fill="#F4D8A0"/>
<path d="M54.2742 16.2045L58.3327 15.7563" stroke="#F4D8A0" stroke-width="0.15" stroke-miterlimit="10"/>
<path d="M60.8905 16.2085H60.8799" stroke="#F4D8A0" stroke-width="0.15" stroke-miterlimit="10"/>
<path d="M60.8884 16.1196C60.9364 16.1196 60.9754 16.1586 60.9754 16.2067C60.9754 16.2548 60.9364 16.2937 60.8884 16.2937C60.8403 16.2937 60.8013 16.2548 60.8013 16.2067C60.8013 16.1586 60.8403 16.1196 60.8884 16.1196Z" fill="#F4D8A0"/>
<path d="M58.3421 15.7656H58.3315" stroke="#F4D8A0" stroke-width="0.15" stroke-miterlimit="10"/>
<path d="M58.3407 15.6777C58.3888 15.6777 58.4278 15.7167 58.4278 15.7648C58.4278 15.8129 58.3888 15.8519 58.3407 15.8519C58.2926 15.8519 58.2536 15.8129 58.2536 15.7648C58.2536 15.7167 58.2926 15.6777 58.3407 15.6777Z" fill="#F4D8A0"/>
<path d="M58.3404 15.7656L60.8834 16.2138" stroke="#F4D8A0" stroke-width="0.15" stroke-miterlimit="10"/>
<path d="M58.3256 15.8505C58.2783 15.8422 58.2466 15.797 58.255 15.7497C58.2633 15.7024 58.3085 15.6707 58.3558 15.6791C58.4032 15.6874 58.4348 15.7326 58.4264 15.7799C58.4181 15.8273 58.3729 15.8589 58.3256 15.8505Z" fill="#F4D8A0"/>
<path d="M65.9693 19.2596V14.2686" stroke="#F4D8A0" stroke-width="0.15" stroke-miterlimit="10"/>
<path d="M66.0575 19.2624C66.0575 19.3104 66.0185 19.3494 65.9704 19.3494C65.9223 19.3494 65.8833 19.3104 65.8833 19.2624C65.8833 19.2143 65.9223 19.1753 65.9704 19.1753C66.0185 19.1753 66.0575 19.2143 66.0575 19.2624Z" fill="#F4D8A0"/>
</g>
<path d="M67.105 28.6645C66.8125 28.811 66.5058 28.9265 66.1921 29.0138V29.3878C66.1921 30.1354 65.5874 30.7414 64.8416 30.7414C64.0957 30.7414 63.4911 30.1354 63.4911 29.3878V29.0561C62.9289 28.9143 62.4046 28.6758 61.9605 28.342C61.3638 27.8935 61.2428 27.0451 61.6904 26.447C62.1379 25.8491 62.9844 25.7277 63.5811 26.1763C64.1213 26.5823 65.1603 26.6125 65.897 26.2432C66.1932 26.0948 66.353 25.9161 66.353 25.8234C66.353 25.6615 66.353 25.6365 66.1733 25.5404C65.8209 25.3519 65.1978 25.236 64.5952 25.124C63.7908 24.9744 62.959 24.8197 62.2381 24.4341C61.1856 23.871 60.6292 22.9473 60.6292 21.7627C60.6292 20.5768 61.3387 19.541 62.5759 18.9211C62.8691 18.7741 63.1765 18.6578 63.4911 18.5704V18.1983C63.4911 17.4508 64.0957 16.8447 64.8416 16.8447C65.5874 16.8447 66.1921 17.4508 66.1921 18.1983V18.5297C66.7543 18.6717 67.2785 18.9104 67.7227 19.2442C68.3194 19.6927 68.4403 20.5412 67.9928 21.1392C67.5452 21.7372 66.6989 21.8585 66.102 21.4099C65.561 21.0032 64.5211 20.973 63.7838 21.3424C63.4859 21.4916 63.3302 21.6668 63.3302 21.7626C63.3302 21.9247 63.3302 21.9496 63.5099 22.0458C63.8623 22.2343 64.4854 22.3502 65.0879 22.4621C65.8924 22.6118 66.7242 22.7664 67.4451 23.152C68.4976 23.7151 69.054 24.6389 69.054 25.8234C69.0541 27.0082 68.3436 28.0438 67.105 28.6645Z" stroke="#E3B04B"/>
<path d="M61.5035 15.3705C62.5357 14.9577 63.6712 14.7515 64.8067 14.7515H65.5292C66.9227 14.8547 68.2646 15.2673 69.4517 15.9896C73.7354 18.5691 75.1289 24.1407 72.5484 28.4743C69.9678 32.7562 64.3937 34.1491 60.0583 31.5696C57.3746 29.9704 55.7229 27.0814 55.6714 23.9345C55.6714 21.8709 56.3939 19.859 57.6842 18.208C58.6648 16.9182 60.0068 15.938 61.5035 15.3705Z" stroke="#E3B04B"/>
</g>
<defs>
<filter id="filter0_d" x="0" y="0.953613" width="82" height="79.5734" filterUnits="userSpaceOnUse" color-interpolation-filters="sRGB">
<feFlood flood-opacity="0" result="BackgroundImageFix"/>
<feColorMatrix in="SourceAlpha" type="matrix" values="0 0 0 0 0 0 0 0 0 0 0 0 0 0 0 0 0 0 127 0"/>
<feOffset/>
<feGaussianBlur stdDeviation="3.5"/>
<feColorMatrix type="matrix" values="0 0 0 0 0.970833 0 0 0 0 0.813392 0 0 0 0 0.501597 0 0 0 0.74 0"/>
<feBlend mode="normal" in2="BackgroundImageFix" result="effect1_dropShadow"/>
<feBlend mode="normal" in="SourceGraphic" in2="effect1_dropShadow" result="shape"/>
</filter>
</defs>
</svg>
