<svg width="70" height="69" viewBox="0 0 70 69" fill="none" xmlns="http://www.w3.org/2000/svg">
<g filter="url(#filter0_d)">
<path d="M56.2158 2.99077L56.2162 2.99122L66.8523 13.6515C67.2567 14.0568 67.4837 14.6065 67.4837 15.1797C67.4837 15.753 67.2567 16.3026 66.8523 16.708L57.3163 26.2656C56.9719 26.61 56.5061 26.8037 56.0203 26.8037C55.0098 26.8037 54.1879 25.9815 54.1879 24.966C54.1879 24.4777 54.3818 24.0096 54.7248 23.6658L60.6399 17.7372L61.4911 16.8841H60.286H48.1895C44.8761 16.8841 42.1911 19.5768 42.1911 22.895V45.9708C40.9063 46.6697 39.7575 47.5846 38.7924 48.6685V22.895C38.7924 17.6911 43.0002 13.4754 48.1895 13.4754H60.286H61.4911L60.6399 12.6222L53.6255 5.59189C53.2819 5.24663 53.0882 4.77925 53.0882 4.29133C53.0882 3.27575 53.9101 2.45361 54.9206 2.45361C55.4073 2.45361 55.8734 2.64681 56.2158 2.99077Z" stroke="#E3B04B"/>
<path d="M9.3438 12.6222L8.49258 13.4754H9.69776H21.7942C26.9835 13.4754 31.1913 17.6911 31.1913 22.895V48.6685C30.2263 47.5846 29.0775 46.6697 27.7926 45.9708V22.895C27.7926 19.5768 25.1077 16.8841 21.7942 16.8841H9.69776H8.49258L9.3438 17.7372L15.2585 23.6654C15.6021 24.0107 15.7958 24.478 15.7958 24.966C15.7958 25.9815 14.9739 26.8037 13.9634 26.8037C13.4771 26.8037 13.0117 26.6107 12.6678 26.2661L3.13143 16.708C2.72699 16.3026 2.5 15.753 2.5 15.1797C2.5 14.6065 2.72699 14.0568 3.13143 13.6515L13.7675 2.99122C14.1114 2.64657 14.5768 2.45361 15.0631 2.45361C16.0736 2.45361 16.8955 3.27575 16.8955 4.29133C16.8955 4.77904 16.702 5.24623 16.3587 5.59144C16.3585 5.59159 16.3584 5.59174 16.3582 5.59189L9.3438 12.6222Z" stroke="#E3B04B"/>
<mask id="mask0" mask-type="alpha" maskUnits="userSpaceOnUse" x="11" y="47" width="21" height="21">
<path d="M21.7922 47.2632C16.3261 47.2632 11.8951 51.7043 11.8951 57.1828C11.8951 62.6611 16.3261 67.1024 21.7922 67.1024C27.2583 67.1024 31.6893 62.6611 31.6893 57.1828C31.6893 51.7043 27.2583 47.2632 21.7922 47.2632ZM23.8655 61.6454C23.5975 61.7797 23.3166 61.8854 23.0291 61.9654V62.3081C23.0291 62.9928 22.4752 63.548 21.792 63.548C21.1088 63.548 20.5549 62.9928 20.5549 62.3081V62.0042C20.0399 61.8742 19.5596 61.6558 19.1528 61.35C18.6062 60.9392 18.4954 60.162 18.9054 59.6141C19.3153 59.0663 20.0908 58.9552 20.6373 59.3661C21.1322 59.7381 22.084 59.7657 22.7589 59.4274C23.0301 59.2914 23.1765 59.1278 23.1765 59.0429C23.1765 58.8945 23.1765 58.8716 23.0119 58.7835C22.6891 58.6109 22.1184 58.5047 21.5664 58.4021C20.8294 58.2651 20.0674 58.1234 19.4071 57.7702C18.4429 57.2544 17.9332 56.4081 17.9332 55.323C17.9332 54.2367 18.5832 53.2878 19.7165 52.7199C19.9851 52.5853 20.2667 52.4787 20.5549 52.3986V52.0578C20.5549 51.373 21.1088 50.8179 21.792 50.8179C22.4752 50.8179 23.0291 51.373 23.0291 52.0578V52.3614C23.5442 52.4915 24.0244 52.7101 24.4312 53.0159C24.9779 53.4268 25.0886 54.204 24.6787 54.7518C24.2687 55.2996 23.4934 55.4107 22.9467 54.9998C22.4511 54.6272 21.4985 54.5996 20.823 54.938C20.5502 55.0747 20.4075 55.2351 20.4075 55.3229C20.4075 55.4714 20.4075 55.4942 20.5721 55.5823C20.8949 55.755 21.4657 55.8611 22.0177 55.9637C22.7546 56.1008 23.5166 56.2425 24.177 56.5957C25.1411 57.1115 25.6508 57.9577 25.6508 59.0429C25.6509 60.1281 25.0001 61.0768 23.8655 61.6454Z" fill="black"/>
</mask>
<g mask="url(#mask0)">
<path d="M26.8831 66.1298L28.6554 58.9897" stroke="#F4D8A0" stroke-width="0.146127" stroke-miterlimit="10"/>
<path d="M26.9702 66.152C26.9585 66.1991 26.9108 66.2277 26.8638 66.216C26.8167 66.2043 26.788 66.1567 26.7997 66.1096C26.8114 66.0625 26.8591 66.0339 26.9062 66.0456C26.9532 66.0573 26.9819 66.105 26.9702 66.152Z" fill="#F4D8A0"/>
<path d="M26.8786 66.1309L26.8713 66.1434L29.4045 70.3507" stroke="#F4D8A0" stroke-width="0.146127" stroke-miterlimit="10"/>
<path d="M26.805 66.0869C26.8292 66.0449 26.883 66.0305 26.925 66.0547C26.967 66.079 26.9814 66.1327 26.9571 66.1747C26.9329 66.2167 26.8791 66.2311 26.8371 66.2069C26.7951 66.1826 26.7807 66.1289 26.805 66.0869Z" fill="#F4D8A0"/>
<path d="M28.6491 58.9814L28.6436 58.991" stroke="#F4D8A0" stroke-width="0.146127" stroke-miterlimit="10"/>
<path d="M28.5662 58.938C28.5904 58.896 28.6441 58.8816 28.6861 58.9058C28.7281 58.9301 28.7425 58.9838 28.7183 59.0258C28.694 59.0678 28.6403 59.0822 28.5983 59.0579C28.5563 59.0337 28.5419 58.98 28.5662 58.938Z" fill="#F4D8A0"/>
<path d="M20.1971 58.4631L20.1917 58.4536" stroke="#F4D8A0" stroke-width="0.146127" stroke-miterlimit="10"/>
<path d="M20.2657 58.4175C20.2899 58.4595 20.2756 58.5132 20.2336 58.5374C20.1916 58.5617 20.1378 58.5473 20.1136 58.5053C20.0893 58.4633 20.1037 58.4096 20.1457 58.3853C20.1877 58.3611 20.2415 58.3755 20.2657 58.4175Z" fill="#F4D8A0"/>
<path d="M16.2909 58.8071L16.2854 58.8166" stroke="#F4D8A0" stroke-width="0.146127" stroke-miterlimit="10"/>
<path d="M16.2112 58.7636C16.2355 58.7216 16.2892 58.7073 16.3312 58.7315C16.3732 58.7558 16.3876 58.8095 16.3634 58.8515C16.3391 58.8935 16.2854 58.9079 16.2434 58.8836C16.2014 58.8594 16.187 58.8056 16.2112 58.7636Z" fill="#F4D8A0"/>
<path d="M13.0588 64.5946L16.288 58.814" stroke="#F4D8A0" stroke-width="0.146127" stroke-miterlimit="10"/>
<path d="M13.1374 64.6395C13.1137 64.6818 13.0601 64.697 13.0178 64.6733C12.9755 64.6496 12.9604 64.596 12.9841 64.5537C13.0078 64.5114 13.0613 64.4963 13.1036 64.52C13.146 64.5437 13.1611 64.5972 13.1374 64.6395Z" fill="#F4D8A0"/>
<path d="M26.8374 66.1304L26.8447 66.143L20.7197 68.4118" stroke="#F4D8A0" stroke-width="0.146127" stroke-miterlimit="10"/>
<path d="M26.7588 66.1742C26.7346 66.1322 26.749 66.0785 26.791 66.0543C26.833 66.03 26.8867 66.0444 26.911 66.0864C26.9352 66.1284 26.9208 66.1821 26.8788 66.2064C26.8368 66.2306 26.7831 66.2162 26.7588 66.1742Z" fill="#F4D8A0"/>
<path d="M26.8415 66.1306L20.1964 58.4619" stroke="#F4D8A0" stroke-width="0.146127" stroke-miterlimit="10"/>
<path d="M26.9135 66.0732C26.9453 66.1098 26.9414 66.1653 26.9047 66.1971C26.8681 66.2289 26.8127 66.225 26.7809 66.1884C26.7491 66.1518 26.753 66.0963 26.7896 66.0645C26.8262 66.0327 26.8817 66.0366 26.9135 66.0732Z" fill="#F4D8A0"/>
<path d="M13.0583 64.5962L13.051 64.6088L16.8903 71.9377" stroke="#F4D8A0" stroke-width="0.146127" stroke-miterlimit="10"/>
<path d="M12.9847 64.5522C13.0089 64.5102 13.0627 64.4958 13.1047 64.5201C13.1467 64.5443 13.161 64.5981 13.1368 64.6401C13.1125 64.6821 13.0588 64.6964 13.0168 64.6722C12.9748 64.6479 12.9604 64.5942 12.9847 64.5522Z" fill="#F4D8A0"/>
<path d="M13.0217 64.5946L7.93384 58.4614" stroke="#F4D8A0" stroke-width="0.146127" stroke-miterlimit="10"/>
<path d="M13.0821 64.5351C13.1131 64.5724 13.108 64.6278 13.0707 64.6588C13.0334 64.6898 12.9781 64.6847 12.947 64.6474C12.916 64.6101 12.9211 64.5547 12.9584 64.5237C12.9957 64.4927 13.0511 64.4978 13.0821 64.5351Z" fill="#F4D8A0"/>
<path d="M9.52332 69.0397L13.036 64.6058L13.0288 64.5933" stroke="#F4D8A0" stroke-width="0.146127" stroke-miterlimit="10"/>
<path d="M28.8923 50.6143L28.8868 50.6238" stroke="#F4D8A0" stroke-width="0.146127" stroke-miterlimit="10"/>
<path d="M28.8089 50.5693C28.8332 50.5273 28.8869 50.5129 28.9289 50.5372C28.9709 50.5614 28.9853 50.6151 28.961 50.6571C28.9368 50.6991 28.883 50.7135 28.841 50.6893C28.799 50.665 28.7846 50.6113 28.8089 50.5693Z" fill="#F4D8A0"/>
<path d="M31.2476 50.428L31.2421 50.4185" stroke="#F4D8A0" stroke-width="0.146127" stroke-miterlimit="10"/>
<path d="M31.3165 50.3833C31.3407 50.4253 31.3263 50.479 31.2843 50.5032C31.2423 50.5275 31.1886 50.5131 31.1644 50.4711C31.1401 50.4291 31.1545 50.3754 31.1965 50.3511C31.2385 50.3269 31.2922 50.3413 31.3165 50.3833Z" fill="#F4D8A0"/>
<path d="M28.9039 50.6328L23.9417 56.8163" stroke="#F4D8A0" stroke-width="0.146127" stroke-miterlimit="10"/>
<path d="M28.8321 50.5777C28.8625 50.5399 28.9178 50.5339 28.9556 50.5643C28.9934 50.5947 28.9994 50.65 28.969 50.6878C28.9386 50.7256 28.8833 50.7316 28.8455 50.7012C28.8077 50.6708 28.8017 50.6155 28.8321 50.5777Z" fill="#F4D8A0"/>
<path d="M37.5225 53.8731L31.2542 50.4336" stroke="#F4D8A0" stroke-width="0.146127" stroke-miterlimit="10"/>
<path d="M28.6491 58.9822L28.6436 58.9727" stroke="#F4D8A0" stroke-width="0.146127" stroke-miterlimit="10"/>
<path d="M28.7183 58.938C28.7425 58.98 28.7281 59.0337 28.6861 59.0579C28.6441 59.0822 28.5904 59.0678 28.5662 59.0258C28.5419 58.9838 28.5563 58.9301 28.5983 58.9058C28.6403 58.8816 28.694 58.896 28.7183 58.938Z" fill="#F4D8A0"/>
<path d="M23.9498 56.812L23.9425 56.8246L28.6608 58.9676" stroke="#F4D8A0" stroke-width="0.146127" stroke-miterlimit="10"/>
<path d="M23.8761 56.769C23.9003 56.727 23.9541 56.7126 23.9961 56.7369C24.0381 56.7611 24.0525 56.8148 24.0282 56.8568C24.004 56.8988 23.9502 56.9132 23.9082 56.889C23.8662 56.8647 23.8518 56.811 23.8761 56.769Z" fill="#F4D8A0"/>
<path d="M14.7 48.8672L13.0784 56.4856" stroke="#F4D8A0" stroke-width="0.146127" stroke-miterlimit="10"/>
<path d="M14.6159 48.8488C14.626 48.8014 14.6727 48.7711 14.7201 48.7812C14.7676 48.7914 14.7978 48.838 14.7877 48.8855C14.7776 48.9329 14.7309 48.9631 14.6835 48.953C14.636 48.9429 14.6058 48.8962 14.6159 48.8488Z" fill="#F4D8A0"/>
<path d="M19.0761 49.3191L19.0706 49.3096" stroke="#F4D8A0" stroke-width="0.146127" stroke-miterlimit="10"/>
<path d="M19.1563 49.2754C19.1806 49.3174 19.1662 49.3711 19.1242 49.3953C19.0822 49.4196 19.0285 49.4052 19.0042 49.3632C18.98 49.3212 18.9944 49.2675 19.0364 49.2432C19.0784 49.219 19.1321 49.2334 19.1563 49.2754Z" fill="#F4D8A0"/>
<path d="M20.1917 58.4509L20.1971 58.4414" stroke="#F4D8A0" stroke-width="0.146127" stroke-miterlimit="10"/>
<path d="M20.2657 58.4931C20.2414 58.5351 20.1877 58.5495 20.1457 58.5252C20.1037 58.501 20.0893 58.4472 20.1136 58.4052C20.1378 58.3632 20.1916 58.3489 20.2336 58.3731C20.2756 58.3974 20.2899 58.4511 20.2657 58.4931Z" fill="#F4D8A0"/>
<path d="M13.0824 56.4902L13.0751 56.5028L16.2864 58.7969" stroke="#F4D8A0" stroke-width="0.146127" stroke-miterlimit="10"/>
<path d="M13.0003 56.4458C13.0246 56.4038 13.0783 56.3894 13.1203 56.4136C13.1623 56.4379 13.1767 56.4916 13.1524 56.5336C13.1282 56.5756 13.0744 56.59 13.0324 56.5657C12.9904 56.5415 12.9761 56.4878 13.0003 56.4458Z" fill="#F4D8A0"/>
<path d="M14.7011 48.8633L14.6956 48.8728" stroke="#F4D8A0" stroke-width="0.146127" stroke-miterlimit="10"/>
<path d="M14.6292 48.8232C14.6535 48.7812 14.7072 48.7668 14.7492 48.7911C14.7912 48.8153 14.8056 48.869 14.7813 48.911C14.7571 48.953 14.7034 48.9674 14.6614 48.9432C14.6194 48.9189 14.605 48.8652 14.6292 48.8232Z" fill="#F4D8A0"/>
<path d="M23.9021 56.8174L23.9093 56.83L20.1957 58.4443" stroke="#F4D8A0" stroke-width="0.146127" stroke-miterlimit="10"/>
<path d="M23.824 56.8612C23.7997 56.8192 23.8141 56.7655 23.8561 56.7413C23.8981 56.717 23.9518 56.7314 23.9761 56.7734C24.0003 56.8154 23.9859 56.8691 23.9439 56.8934C23.9019 56.9176 23.8482 56.9032 23.824 56.8612Z" fill="#F4D8A0"/>
<path d="M16.2909 58.8079L16.2854 58.7983" stroke="#F4D8A0" stroke-width="0.146127" stroke-miterlimit="10"/>
<path d="M16.3634 58.7636C16.3876 58.8056 16.3732 58.8594 16.3312 58.8836C16.2892 58.9079 16.2355 58.8935 16.2112 58.8515C16.187 58.8095 16.2014 58.7558 16.2434 58.7315C16.2854 58.7073 16.3391 58.7216 16.3634 58.7636Z" fill="#F4D8A0"/>
<path d="M23.8994 56.8119L19.0627 49.3193" stroke="#F4D8A0" stroke-width="0.146127" stroke-miterlimit="10"/>
<path d="M23.9743 56.7608C24.0007 56.8015 23.989 56.8559 23.9483 56.8823C23.9076 56.9086 23.8532 56.897 23.8268 56.8562C23.8005 56.8155 23.8121 56.7611 23.8529 56.7348C23.8936 56.7085 23.948 56.7201 23.9743 56.7608Z" fill="#F4D8A0"/>
<path d="M13.0468 56.4875L7.93384 48.8691" stroke="#F4D8A0" stroke-width="0.146127" stroke-miterlimit="10"/>
<path d="M13.1226 56.4407C13.1496 56.4809 13.1389 56.5355 13.0987 56.5626C13.0585 56.5896 13.0039 56.5789 12.9768 56.5387C12.9497 56.4985 12.9604 56.4439 13.0007 56.4168C13.0409 56.3897 13.0955 56.4004 13.1226 56.4407Z" fill="#F4D8A0"/>
<path d="M13.0468 56.4858L13.054 56.4984L7.93384 58.4401" stroke="#F4D8A0" stroke-width="0.146127" stroke-miterlimit="10"/>
<path d="M12.9612 56.5336C12.937 56.4916 12.9514 56.4379 12.9934 56.4136C13.0354 56.3894 13.0891 56.4038 13.1134 56.4458C13.1376 56.4878 13.1232 56.5415 13.0812 56.5657C13.0392 56.59 12.9855 56.5756 12.9612 56.5336Z" fill="#F4D8A0"/>
<path d="M28.9001 50.6133L28.9056 50.6228" stroke="#F4D8A0" stroke-width="0.146127" stroke-miterlimit="10"/>
<path d="M28.8251 50.6567C28.8009 50.6147 28.8153 50.5609 28.8573 50.5367C28.8993 50.5124 28.953 50.5268 28.9772 50.5688C29.0015 50.6108 28.9871 50.6645 28.9451 50.6888C28.9031 50.713 28.8494 50.6987 28.8251 50.6567Z" fill="#F4D8A0"/>
<path d="M31.2421 50.4131L38.0201 43.8646L38.0128 43.8521" stroke="#F4D8A0" stroke-width="0.146127" stroke-miterlimit="10"/>
<path d="M31.3014 50.4762C31.2664 50.5099 31.2108 50.5089 31.1772 50.474C31.1435 50.4391 31.1445 50.3834 31.1795 50.3498C31.2144 50.3161 31.27 50.3171 31.3036 50.3521C31.3373 50.387 31.3363 50.4426 31.3014 50.4762Z" fill="#F4D8A0"/>
<path d="M31.2421 50.4211L31.2476 50.4116" stroke="#F4D8A0" stroke-width="0.146127" stroke-miterlimit="10"/>
<path d="M31.3165 50.4652C31.2922 50.5072 31.2385 50.5216 31.1965 50.4974C31.1545 50.4731 31.1401 50.4194 31.1644 50.3774C31.1886 50.3354 31.2423 50.321 31.2843 50.3453C31.3263 50.3695 31.3407 50.4232 31.3165 50.4652Z" fill="#F4D8A0"/>
<path d="M25.9497 46.1899L25.9424 46.2025L28.9025 50.6112" stroke="#F4D8A0" stroke-width="0.146127" stroke-miterlimit="10"/>
<path d="M11.9292 46.4937L11.9219 46.5062L14.7062 48.8506" stroke="#F4D8A0" stroke-width="0.146127" stroke-miterlimit="10"/>
<path d="M19.0753 49.3017L25.9286 46.202L25.9213 46.1895" stroke="#F4D8A0" stroke-width="0.146127" stroke-miterlimit="10"/>
<path d="M19.1203 49.3783C19.0761 49.3983 19.0241 49.3786 19.0041 49.3344C18.9842 49.2902 19.0039 49.2382 19.0481 49.2182C19.0923 49.1983 19.1443 49.218 19.1642 49.2622C19.1842 49.3064 19.1645 49.3584 19.1203 49.3783Z" fill="#F4D8A0"/>
<path d="M19.0706 49.3132L19.0761 49.3037" stroke="#F4D8A0" stroke-width="0.146127" stroke-miterlimit="10"/>
<path d="M19.1563 49.3554C19.1321 49.3974 19.0784 49.4118 19.0364 49.3875C18.9944 49.3633 18.98 49.3096 19.0042 49.2676C19.0285 49.2256 19.0822 49.2112 19.1242 49.2354C19.1662 49.2597 19.1806 49.3134 19.1563 49.3554Z" fill="#F4D8A0"/>
<path d="M14.7073 48.8457L14.7128 48.8552" stroke="#F4D8A0" stroke-width="0.146127" stroke-miterlimit="10"/>
<path d="M14.6292 48.8896C14.605 48.8476 14.6194 48.7938 14.6614 48.7696C14.7034 48.7453 14.7571 48.7597 14.7813 48.8017C14.8056 48.8437 14.7912 48.8975 14.7492 48.9217C14.7072 48.946 14.6535 48.9316 14.6292 48.8896Z" fill="#F4D8A0"/>
<path d="M7.94977 48.8506L11.9146 46.5062L11.9073 46.4937" stroke="#F4D8A0" stroke-width="0.146127" stroke-miterlimit="10"/>
<path d="M31.6956 63.6113L31.7029 63.6241" stroke="#F4D8A0" stroke-width="0.146127" stroke-miterlimit="10"/>
<path d="M31.6176 63.6553C31.5932 63.6134 31.6075 63.5596 31.6495 63.5353C31.6915 63.511 31.7452 63.5253 31.7695 63.5672C31.7939 63.6092 31.7795 63.6629 31.7376 63.6873C31.6956 63.7116 31.6419 63.6973 31.6176 63.6553Z" fill="#F4D8A0"/>
<path d="M31.6838 63.6124L28.6448 58.9897" stroke="#F4D8A0" stroke-width="0.146127" stroke-miterlimit="10"/>
<path d="M31.7546 63.562C31.7813 63.6025 31.7701 63.6569 31.7296 63.6836C31.6891 63.7103 31.6346 63.6991 31.6079 63.6586C31.5813 63.6181 31.5925 63.5636 31.633 63.537C31.6735 63.5103 31.7279 63.5215 31.7546 63.562Z" fill="#F4D8A0"/>
<path d="M28.6419 58.9895L28.6364 58.98" stroke="#F4D8A0" stroke-width="0.146127" stroke-miterlimit="10"/>
<path d="M28.7182 58.9437C28.7425 58.9857 28.7282 59.0394 28.6862 59.0637C28.6443 59.088 28.5905 59.0737 28.5662 59.0318C28.5419 58.9898 28.5562 58.9361 28.5982 58.9117C28.6402 58.8874 28.6939 58.9017 28.7182 58.9437Z" fill="#F4D8A0"/>
<path d="M31.8712 69.1927L31.6882 63.626" stroke="#F4D8A0" stroke-width="0.146127" stroke-miterlimit="10"/>
<path d="M19.9893 66.1465L20.7248 68.4154" stroke="#F4D8A0" stroke-width="0.146127" stroke-miterlimit="10"/>
<path d="M19.9075 66.1746C19.8925 66.1284 19.9178 66.0789 19.9639 66.0639C20.01 66.0489 20.0596 66.0742 20.0746 66.1203C20.0896 66.1664 20.0643 66.216 20.0182 66.2309C19.9721 66.2459 19.9225 66.2207 19.9075 66.1746Z" fill="#F4D8A0"/>
<path d="M19.9893 66.1304L19.9966 66.1431" stroke="#F4D8A0" stroke-width="0.146127" stroke-miterlimit="10"/>
<path d="M19.9151 66.1739C19.8907 66.1319 19.905 66.0782 19.947 66.0538C19.989 66.0295 20.0427 66.0438 20.067 66.0858C20.0913 66.1277 20.077 66.1815 20.0351 66.2058C19.9931 66.2301 19.9394 66.2158 19.9151 66.1739Z" fill="#F4D8A0"/>
<path d="M16.2821 58.8093L16.2766 58.7998" stroke="#F4D8A0" stroke-width="0.146127" stroke-miterlimit="10"/>
<path d="M16.3633 58.7635C16.3876 58.8055 16.3733 58.8592 16.3313 58.8836C16.2894 58.9079 16.2356 58.8936 16.2113 58.8516C16.187 58.8096 16.2013 58.7559 16.2433 58.7316C16.2852 58.7073 16.339 58.7216 16.3633 58.7635Z" fill="#F4D8A0"/>
<path d="M19.9736 66.1342L16.2815 58.8179" stroke="#F4D8A0" stroke-width="0.146127" stroke-miterlimit="10"/>
<path d="M20.0539 66.0956C20.0758 66.1388 20.0585 66.1917 20.0152 66.2136C19.9719 66.2355 19.9191 66.2181 19.8972 66.1748C19.8753 66.1316 19.8926 66.0787 19.9359 66.0568C19.9792 66.0349 20.032 66.0523 20.0539 66.0956Z" fill="#F4D8A0"/>
<path d="M29.0823 54.043L29.0897 54.0557" stroke="#F4D8A0" stroke-width="0.146127" stroke-miterlimit="10"/>
<path d="M29.0082 54.087C28.9839 54.045 28.9982 53.9912 29.0401 53.9669C29.0821 53.9426 29.1358 53.9569 29.1602 53.9989C29.1845 54.0408 29.1702 54.0946 29.1282 54.1189C29.0863 54.1432 29.0325 54.1289 29.0082 54.087Z" fill="#F4D8A0"/>
<path d="M32.9786 58.7753L29.0784 54.0645" stroke="#F4D8A0" stroke-width="0.146127" stroke-miterlimit="10"/>
<path d="M28.9001 50.6206L28.9057 50.6301" stroke="#F4D8A0" stroke-width="0.146127" stroke-miterlimit="10"/>
<path d="M28.8252 50.6612C28.8009 50.6192 28.8152 50.5655 28.8572 50.5411C28.8991 50.5168 28.9529 50.5311 28.9772 50.5731C29.0015 50.6151 28.9872 50.6688 28.9452 50.6931C28.9033 50.7174 28.8495 50.7031 28.8252 50.6612Z" fill="#F4D8A0"/>
<path d="M29.0782 54.0456L28.9026 50.6313" stroke="#F4D8A0" stroke-width="0.146127" stroke-miterlimit="10"/>
<path d="M29.1641 54.0486C29.1666 54.0971 29.1293 54.1384 29.0809 54.1409C29.0324 54.1434 28.9911 54.1061 28.9886 54.0577C28.9861 54.0092 29.0234 53.9679 29.0718 53.9655C29.1203 53.963 29.1616 54.0002 29.1641 54.0486Z" fill="#F4D8A0"/>
<path d="M20.1877 58.4406L17.0159 53.8809" stroke="#F4D8A0" stroke-width="0.146127" stroke-miterlimit="10"/>
<path d="M20.2539 58.3916C20.2816 58.4314 20.2718 58.4861 20.2321 58.5139C20.1923 58.5416 20.1375 58.5318 20.1098 58.4921C20.082 58.4523 20.0918 58.3975 20.1316 58.3698C20.1714 58.3421 20.2261 58.3518 20.2539 58.3916Z" fill="#F4D8A0"/>
<path d="M17.0231 53.8809L17.0305 53.8936" stroke="#F4D8A0" stroke-width="0.146127" stroke-miterlimit="10"/>
<path d="M16.9575 53.9258C16.9332 53.8839 16.9475 53.8301 16.9895 53.8058C17.0314 53.7815 17.0852 53.7958 17.1095 53.8377C17.1338 53.8797 17.1195 53.9334 17.0776 53.9578C17.0356 53.9821 16.9818 53.9678 16.9575 53.9258Z" fill="#F4D8A0"/>
<path d="M17.0106 53.8704L14.7 48.8701" stroke="#F4D8A0" stroke-width="0.146127" stroke-miterlimit="10"/>
<path d="M17.098 53.8288C17.1184 53.8728 17.0992 53.925 17.0552 53.9454C17.0112 53.9657 16.959 53.9466 16.9386 53.9026C16.9183 53.8586 16.9374 53.8064 16.9814 53.786C17.0254 53.7656 17.0776 53.7848 17.098 53.8288Z" fill="#F4D8A0"/>
<path d="M20.1825 58.4504L20.177 58.4409" stroke="#F4D8A0" stroke-width="0.146127" stroke-miterlimit="10"/>
<path d="M20.2549 58.4046C20.2792 58.4466 20.2649 58.5004 20.2229 58.5247C20.181 58.549 20.1272 58.5347 20.1029 58.4927C20.0786 58.4507 20.0929 58.397 20.1349 58.3727C20.1768 58.3484 20.2306 58.3627 20.2549 58.4046Z" fill="#F4D8A0"/>
<path d="M14.7062 48.8687L14.7117 48.8782" stroke="#F4D8A0" stroke-width="0.146127" stroke-miterlimit="10"/>
<path d="M14.6404 48.9136C14.6161 48.8716 14.6304 48.8179 14.6724 48.7936C14.7144 48.7693 14.7681 48.7836 14.7924 48.8255C14.8167 48.8675 14.8024 48.9213 14.7605 48.9456C14.7185 48.9699 14.6648 48.9556 14.6404 48.9136Z" fill="#F4D8A0"/>
<path d="M29.8867 43.3887L31.2501 50.4155" stroke="#F4D8A0" stroke-width="0.146127" stroke-miterlimit="10"/>
<path d="M31.2567 50.4187L31.2512 50.4092" stroke="#F4D8A0" stroke-width="0.146127" stroke-miterlimit="10"/>
<path d="M31.3359 50.3793C31.3603 50.4212 31.3459 50.475 31.304 50.4993C31.262 50.5236 31.2083 50.5093 31.184 50.4673C31.1597 50.4253 31.174 50.3716 31.2159 50.3473C31.2579 50.323 31.3116 50.3373 31.3359 50.3793Z" fill="#F4D8A0"/>
<path d="M19.0692 49.3152L19.0637 49.3057" stroke="#F4D8A0" stroke-width="0.146127" stroke-miterlimit="10"/>
<path d="M19.1493 49.2713C19.1736 49.3133 19.1593 49.3671 19.1173 49.3914C19.0754 49.4157 19.0216 49.4014 18.9973 49.3594C18.973 49.3174 18.9873 49.2637 19.0293 49.2394C19.0712 49.2151 19.125 49.2294 19.1493 49.2713Z" fill="#F4D8A0"/>
<path d="M17.9218 43.5845L19.0844 49.3022" stroke="#F4D8A0" stroke-width="0.146127" stroke-miterlimit="10"/>
<path d="M31.6921 63.6121L32.973 58.7881" stroke="#F4D8A0" stroke-width="0.146127" stroke-miterlimit="10"/>
<path d="M31.7672 63.6344C31.7547 63.6812 31.7066 63.7091 31.6597 63.6966C31.6129 63.6842 31.585 63.6361 31.5975 63.5892C31.6099 63.5423 31.658 63.5144 31.7049 63.5269C31.7518 63.5394 31.7797 63.5875 31.7672 63.6344Z" fill="#F4D8A0"/>
<path d="M31.6873 63.6113L31.6799 63.6241" stroke="#F4D8A0" stroke-width="0.146127" stroke-miterlimit="10"/>
<path d="M31.6058 63.5672C31.6302 63.5253 31.6839 63.511 31.7259 63.5353C31.7678 63.5596 31.7821 63.6134 31.7578 63.6553C31.7335 63.6973 31.6798 63.7116 31.6378 63.6873C31.5958 63.6629 31.5815 63.6092 31.6058 63.5672Z" fill="#F4D8A0"/>
<path d="M31.6962 63.626L29.4034 70.3507" stroke="#F4D8A0" stroke-width="0.146127" stroke-miterlimit="10"/>
<path d="M31.6106 63.5975C31.6263 63.5516 31.6763 63.5271 31.7221 63.5428C31.768 63.5585 31.7925 63.6084 31.7768 63.6543C31.7612 63.7002 31.7112 63.7247 31.6653 63.709C31.6195 63.6934 31.595 63.6434 31.6106 63.5975Z" fill="#F4D8A0"/>
<path d="M20.1825 58.4487L20.177 58.4583" stroke="#F4D8A0" stroke-width="0.146127" stroke-miterlimit="10"/>
<path d="M20.1029 58.4046C20.1272 58.3627 20.181 58.3484 20.2229 58.3727C20.2649 58.397 20.2792 58.4507 20.2549 58.4927C20.2306 58.5347 20.1768 58.549 20.1349 58.5247C20.0929 58.5004 20.0786 58.4466 20.1029 58.4046Z" fill="#F4D8A0"/>
<path d="M19.9835 66.1455L16.887 71.9387" stroke="#F4D8A0" stroke-width="0.146127" stroke-miterlimit="10"/>
<path d="M19.9089 66.105C19.9318 66.0622 19.9851 66.0461 20.0278 66.069C20.0706 66.0919 20.0867 66.1452 20.0638 66.1879C20.0409 66.2307 19.9876 66.2467 19.9449 66.2238C19.9021 66.2009 19.886 66.1477 19.9089 66.105Z" fill="#F4D8A0"/>
<path d="M19.9921 66.1306L20.1929 58.4619" stroke="#F4D8A0" stroke-width="0.146127" stroke-miterlimit="10"/>
<path d="M20.0788 66.1326C20.0775 66.1811 20.0371 66.2194 19.9887 66.2181C19.9402 66.2168 19.9019 66.1765 19.9032 66.128C19.9044 66.0795 19.9448 66.0412 19.9933 66.0425C20.0417 66.0438 20.08 66.0841 20.0788 66.1326Z" fill="#F4D8A0"/>
<path d="M19.9926 66.1299L19.9852 66.1426" stroke="#F4D8A0" stroke-width="0.146127" stroke-miterlimit="10"/>
<path d="M19.915 66.0858C19.9393 66.0438 19.9931 66.0295 20.035 66.0538C20.077 66.0782 20.0913 66.1319 20.067 66.1739C20.0426 66.2158 19.9889 66.2301 19.9469 66.2058C19.905 66.1815 19.8907 66.1277 19.915 66.0858Z" fill="#F4D8A0"/>
<path d="M28.6402 58.9763L28.6457 58.9668" stroke="#F4D8A0" stroke-width="0.146127" stroke-miterlimit="10"/>
<path d="M28.707 59.02C28.6827 59.062 28.629 59.0763 28.587 59.052C28.5451 59.0277 28.5307 58.974 28.5551 58.932C28.5794 58.89 28.6331 58.8757 28.6751 58.9C28.717 58.9243 28.7314 58.9781 28.707 59.02Z" fill="#F4D8A0"/>
<path d="M28.6436 58.9742L29.0777 54.062" stroke="#F4D8A0" stroke-width="0.146127" stroke-miterlimit="10"/>
<path d="M28.7297 58.9808C28.7254 59.0291 28.6828 59.0648 28.6345 59.0606C28.5862 59.0563 28.5505 59.0136 28.5547 58.9653C28.559 58.917 28.6017 58.8813 28.65 58.8856C28.6983 58.8899 28.734 58.9325 28.7297 58.9808Z" fill="#F4D8A0"/>
<path d="M31.25 50.4331L29.0901 54.0488" stroke="#F4D8A0" stroke-width="0.146127" stroke-miterlimit="10"/>
<path d="M31.1734 50.3879C31.1983 50.3463 31.2523 50.3328 31.2939 50.3577C31.3355 50.3826 31.349 50.4366 31.3241 50.4782C31.2992 50.5198 31.2453 50.5333 31.2037 50.5084C31.1621 50.4835 31.1485 50.4295 31.1734 50.3879Z" fill="#F4D8A0"/>
<path d="M29.0823 54.0616L29.0897 54.0488" stroke="#F4D8A0" stroke-width="0.146127" stroke-miterlimit="10"/>
<path d="M29.1602 54.1045C29.1358 54.1465 29.0821 54.1608 29.0401 54.1365C28.9982 54.1122 28.9839 54.0584 29.0082 54.0165C29.0325 53.9745 29.0863 53.9602 29.1282 53.9845C29.1702 54.0088 29.1845 54.0626 29.1602 54.1045Z" fill="#F4D8A0"/>
<path d="M31.2567 50.418L31.2512 50.4275" stroke="#F4D8A0" stroke-width="0.146127" stroke-miterlimit="10"/>
<path d="M31.184 50.3793C31.2083 50.3373 31.262 50.323 31.304 50.3473C31.3459 50.3716 31.3603 50.4253 31.3359 50.4673C31.3116 50.5093 31.2579 50.5236 31.2159 50.4993C31.174 50.475 31.1597 50.4212 31.184 50.3793Z" fill="#F4D8A0"/>
<path d="M19.0692 49.3145L19.0637 49.324" stroke="#F4D8A0" stroke-width="0.146127" stroke-miterlimit="10"/>
<path d="M18.9973 49.2713C19.0216 49.2294 19.0754 49.2151 19.1173 49.2394C19.1593 49.2637 19.1736 49.3174 19.1493 49.3594C19.125 49.4014 19.0712 49.4157 19.0293 49.3914C18.9873 49.3671 18.973 49.3133 18.9973 49.2713Z" fill="#F4D8A0"/>
<path d="M16.2854 58.795L17.0209 53.8828" stroke="#F4D8A0" stroke-width="0.146127" stroke-miterlimit="10"/>
<path d="M16.3742 58.8074C16.367 58.8554 16.3222 58.8884 16.2743 58.8812C16.2263 58.874 16.1933 58.8293 16.2004 58.7813C16.2076 58.7334 16.2524 58.7003 16.3003 58.7075C16.3483 58.7147 16.3813 58.7595 16.3742 58.8074Z" fill="#F4D8A0"/>
<path d="M17.0237 53.8794L17.0311 53.8667" stroke="#F4D8A0" stroke-width="0.146127" stroke-miterlimit="10"/>
<path d="M17.0977 53.9185C17.0733 53.9605 17.0196 53.9748 16.9776 53.9504C16.9357 53.9261 16.9214 53.8724 16.9457 53.8304C16.97 53.7885 17.0238 53.7742 17.0657 53.7985C17.1077 53.8228 17.122 53.8765 17.0977 53.9185Z" fill="#F4D8A0"/>
<path d="M19.0737 49.3252L17.0393 53.8723" stroke="#F4D8A0" stroke-width="0.146127" stroke-miterlimit="10"/>
<path d="M18.9962 49.2892C19.0161 49.245 19.0681 49.2252 19.1123 49.245C19.1566 49.2649 19.1764 49.3168 19.1565 49.3611C19.1367 49.4053 19.0847 49.4251 19.0404 49.4053C18.9962 49.3854 18.9764 49.3335 18.9962 49.2892Z" fill="#F4D8A0"/>
<path d="M16.2854 58.8079L16.2909 58.7983" stroke="#F4D8A0" stroke-width="0.146127" stroke-miterlimit="10"/>
<path d="M16.3633 58.8516C16.339 58.8936 16.2852 58.9079 16.2433 58.8836C16.2013 58.8592 16.187 58.8055 16.2113 58.7635C16.2356 58.7216 16.2894 58.7073 16.3313 58.7316C16.3733 58.7559 16.3876 58.8096 16.3633 58.8516Z" fill="#F4D8A0"/>
<path d="M28.8984 50.612L29.8851 43.3838" stroke="#F4D8A0" stroke-width="0.146127" stroke-miterlimit="10"/>
<path d="M28.9873 50.6251C28.9807 50.6732 28.9364 50.7068 28.8884 50.7002C28.8403 50.6937 28.8067 50.6494 28.8133 50.6013C28.8198 50.5533 28.8641 50.5196 28.9122 50.5262C28.9602 50.5328 28.9939 50.5771 28.9873 50.6251Z" fill="#F4D8A0"/>
<path d="M28.8969 50.6133L28.8914 50.6228" stroke="#F4D8A0" stroke-width="0.146127" stroke-miterlimit="10"/>
<path d="M28.8252 50.5687C28.8495 50.5267 28.9033 50.5124 28.9452 50.5367C28.9872 50.5611 29.0015 50.6148 28.9772 50.6568C28.9529 50.6987 28.8991 50.713 28.8572 50.6887C28.8152 50.6644 28.8009 50.6107 28.8252 50.5687Z" fill="#F4D8A0"/>
<path d="M14.7128 48.8457L14.7073 48.8552" stroke="#F4D8A0" stroke-width="0.146127" stroke-miterlimit="10"/>
<path d="M14.6293 48.8016C14.6536 48.7597 14.7073 48.7453 14.7493 48.7697C14.7913 48.794 14.8056 48.8477 14.7813 48.8897C14.7569 48.9316 14.7032 48.946 14.6612 48.9216C14.6193 48.8973 14.605 48.8436 14.6293 48.8016Z" fill="#F4D8A0"/>
<path d="M14.7034 48.8466L17.9004 43.582" stroke="#F4D8A0" stroke-width="0.146127" stroke-miterlimit="10"/>
<path d="M14.7803 48.8913C14.7551 48.9327 14.701 48.9459 14.6596 48.9207C14.6182 48.8955 14.605 48.8414 14.6302 48.8C14.6555 48.7586 14.7095 48.7454 14.7509 48.7706C14.7924 48.7958 14.8055 48.8499 14.7803 48.8913Z" fill="#F4D8A0"/>
<path d="M31.6871 63.6104H31.6724" stroke="#F4D8A0" stroke-width="0.146127" stroke-miterlimit="10"/>
<path d="M31.6818 63.6991C31.7303 63.6991 31.7696 63.6598 31.7696 63.6113C31.7696 63.5628 31.7303 63.5234 31.6818 63.5234C31.6333 63.5234 31.594 63.5628 31.594 63.6113C31.594 63.6598 31.6333 63.6991 31.6818 63.6991Z" fill="#F4D8A0"/>
<path d="M31.6788 63.6152L26.8674 66.1326" stroke="#F4D8A0" stroke-width="0.146127" stroke-miterlimit="10"/>
<path d="M31.634 63.5373C31.677 63.5149 31.7301 63.5315 31.7525 63.5745C31.775 63.6175 31.7583 63.6706 31.7153 63.693C31.6723 63.7155 31.6193 63.6988 31.5968 63.6558C31.5744 63.6128 31.5911 63.5598 31.634 63.5373Z" fill="#F4D8A0"/>
<path d="M35.4819 66.8839L31.7003 63.6113" stroke="#F4D8A0" stroke-width="0.146127" stroke-miterlimit="10"/>
<path d="M26.8723 66.1357H26.8888" stroke="#F4D8A0" stroke-width="0.146127" stroke-miterlimit="10"/>
<path d="M26.8742 66.2235C26.9227 66.2235 26.962 66.1842 26.962 66.1357C26.962 66.0872 26.9227 66.0479 26.8742 66.0479C26.8257 66.0479 26.7864 66.0872 26.7864 66.1357C26.7864 66.1842 26.8257 66.2235 26.8742 66.2235Z" fill="#F4D8A0"/>
<path d="M19.9798 66.1294L13.0585 64.5938" stroke="#F4D8A0" stroke-width="0.146127" stroke-miterlimit="10"/>
<path d="M20.0013 66.0426C20.0486 66.0531 20.0785 66.1 20.0681 66.1474C20.0576 66.1947 20.0107 66.2246 19.9633 66.2141C19.916 66.2036 19.8861 66.1567 19.8966 66.1094C19.907 66.062 19.9539 66.0321 20.0013 66.0426Z" fill="#F4D8A0"/>
<path d="M19.9881 66.1299H19.9734" stroke="#F4D8A0" stroke-width="0.146127" stroke-miterlimit="10"/>
<path d="M19.991 66.2176C20.0395 66.2176 20.0788 66.1783 20.0788 66.1298C20.0788 66.0813 20.0395 66.042 19.991 66.042C19.9425 66.042 19.9031 66.0813 19.9031 66.1298C19.9031 66.1783 19.9425 66.2176 19.991 66.2176Z" fill="#F4D8A0"/>
<path d="M26.8422 66.1348H19.9963" stroke="#F4D8A0" stroke-width="0.146127" stroke-miterlimit="10"/>
<path d="M26.842 66.2225C26.8905 66.2225 26.9298 66.1832 26.9298 66.1347C26.9298 66.0862 26.8905 66.0469 26.842 66.0469C26.7935 66.0469 26.7542 66.0862 26.7542 66.1347C26.7542 66.1832 26.7935 66.2225 26.842 66.2225Z" fill="#F4D8A0"/>
<path d="M13.0428 64.5947H13.0593" stroke="#F4D8A0" stroke-width="0.146127" stroke-miterlimit="10"/>
<path d="M13.0412 64.682C12.9927 64.682 12.9534 64.6427 12.9534 64.5942C12.9534 64.5457 12.9927 64.5063 13.0412 64.5063C13.0897 64.5063 13.129 64.5457 13.129 64.5942C13.129 64.6427 13.0897 64.682 13.0412 64.682Z" fill="#F4D8A0"/>
<path d="M26.8518 66.1348H26.8683" stroke="#F4D8A0" stroke-width="0.146127" stroke-miterlimit="10"/>
<path d="M26.8498 66.2225C26.8983 66.2225 26.9376 66.1832 26.9376 66.1347C26.9376 66.0862 26.8983 66.0469 26.8498 66.0469C26.8013 66.0469 26.762 66.0862 26.762 66.1347C26.762 66.1832 26.8013 66.2225 26.8498 66.2225Z" fill="#F4D8A0"/>
<path d="M13.0399 64.5947H13.0564" stroke="#F4D8A0" stroke-width="0.146127" stroke-miterlimit="10"/>
<path d="M13.0412 64.682C12.9927 64.682 12.9534 64.6427 12.9534 64.5942C12.9534 64.5457 12.9927 64.5063 13.0412 64.5063C13.0897 64.5063 13.129 64.5457 13.129 64.5942C13.129 64.6427 13.0897 64.682 13.0412 64.682Z" fill="#F4D8A0"/>
<path d="M13.0337 64.5913L6.66504 67.0584" stroke="#F4D8A0" stroke-width="0.146127" stroke-miterlimit="10"/>
<path d="M13.0064 64.5084C13.0516 64.4909 13.1025 64.5134 13.12 64.5586C13.1374 64.6039 13.1149 64.6547 13.0697 64.6722C13.0245 64.6897 12.9736 64.6672 12.9561 64.622C12.9386 64.5767 12.9611 64.5259 13.0064 64.5084Z" fill="#F4D8A0"/>
<path d="M37.5184 53.8706L29.0901 54.0464" stroke="#F4D8A0" stroke-width="0.146127" stroke-miterlimit="10"/>
<path d="M29.0809 54.0464H29.0663" stroke="#F4D8A0" stroke-width="0.146127" stroke-miterlimit="10"/>
<path d="M29.0842 54.1346C29.1327 54.1346 29.172 54.0953 29.172 54.0468C29.172 53.9983 29.1327 53.959 29.0842 53.959C29.0357 53.959 28.9963 53.9983 28.9963 54.0468C28.9963 54.0953 29.0357 54.1346 29.0842 54.1346Z" fill="#F4D8A0"/>
<path d="M23.9152 56.813H23.9317" stroke="#F4D8A0" stroke-width="0.146127" stroke-miterlimit="10"/>
<path d="M23.917 56.9007C23.9656 56.9007 24.0049 56.8614 24.0049 56.8129C24.0049 56.7644 23.9656 56.7251 23.917 56.7251C23.8685 56.7251 23.8292 56.7644 23.8292 56.8129C23.8292 56.8614 23.8685 56.9007 23.917 56.9007Z" fill="#F4D8A0"/>
<path d="M23.9425 56.8156L29.0804 54.0464" stroke="#F4D8A0" stroke-width="0.146127" stroke-miterlimit="10"/>
<path d="M23.993 56.8942C23.9502 56.9172 23.897 56.9012 23.874 56.8584C23.851 56.8157 23.8671 56.7625 23.9098 56.7395C23.9525 56.7165 24.0057 56.7325 24.0287 56.7752C24.0517 56.818 24.0357 56.8712 23.993 56.8942Z" fill="#F4D8A0"/>
<path d="M23.9152 56.812H23.8987" stroke="#F4D8A0" stroke-width="0.146127" stroke-miterlimit="10"/>
<path d="M23.917 56.9007C23.9656 56.9007 24.0049 56.8614 24.0049 56.8129C24.0049 56.7644 23.9656 56.7251 23.917 56.7251C23.8685 56.7251 23.8292 56.7644 23.8292 56.8129C23.8292 56.8614 23.8685 56.9007 23.917 56.9007Z" fill="#F4D8A0"/>
<path d="M17.0266 53.8706H17.012" stroke="#F4D8A0" stroke-width="0.146127" stroke-miterlimit="10"/>
<path d="M17.0217 53.9584C17.0702 53.9584 17.1095 53.919 17.1095 53.8705C17.1095 53.822 17.0702 53.7827 17.0217 53.7827C16.9732 53.7827 16.9338 53.822 16.9338 53.8705C16.9338 53.919 16.9732 53.9584 17.0217 53.9584Z" fill="#F4D8A0"/>
<path d="M23.8986 56.8165L17.0276 53.8711" stroke="#F4D8A0" stroke-width="0.146127" stroke-miterlimit="10"/>
<path d="M23.9351 56.7361C23.9797 56.7552 24.0004 56.8068 23.9813 56.8514C23.9623 56.896 23.9106 56.9167 23.8661 56.8976C23.8215 56.8785 23.8008 56.8269 23.8198 56.7823C23.8389 56.7377 23.8905 56.717 23.9351 56.7361Z" fill="#F4D8A0"/>
<path d="M13.0706 56.4858H13.0871" stroke="#F4D8A0" stroke-width="0.146127" stroke-miterlimit="10"/>
<path d="M13.0764 56.5775C13.0279 56.5775 12.9885 56.5382 12.9885 56.4897C12.9885 56.4412 13.0279 56.4019 13.0764 56.4019C13.1248 56.4019 13.1642 56.4412 13.1642 56.4897C13.1642 56.5382 13.1248 56.5775 13.0764 56.5775Z" fill="#F4D8A0"/>
<path d="M13.0751 56.4833L17.0074 53.8652" stroke="#F4D8A0" stroke-width="0.146127" stroke-miterlimit="10"/>
<path d="M13.125 56.555C13.0846 56.5819 13.03 56.5709 13.0032 56.5305C12.9764 56.4901 12.9874 56.4356 13.0278 56.4087C13.0682 56.3819 13.1227 56.3929 13.1495 56.4333C13.1763 56.4737 13.1653 56.5282 13.125 56.555Z" fill="#F4D8A0"/>
<path d="M13.0588 56.4868L6.01196 54.0449" stroke="#F4D8A0" stroke-width="0.146127" stroke-miterlimit="10"/>
<path d="M13.0855 56.4028C13.1314 56.4186 13.1557 56.4687 13.1398 56.5145C13.124 56.5603 13.074 56.5846 13.0281 56.5688C12.9823 56.553 12.958 56.5029 12.9738 56.4571C12.9897 56.4113 13.0397 56.3869 13.0855 56.4028Z" fill="#F4D8A0"/>
<path d="M13.0753 56.4858H13.0588" stroke="#F4D8A0" stroke-width="0.146127" stroke-miterlimit="10"/>
<path d="M13.0763 56.4019C13.1248 56.4019 13.1642 56.4412 13.1642 56.4897C13.1642 56.5382 13.1248 56.5775 13.0763 56.5775C13.0279 56.5775 12.9885 56.5382 12.9885 56.4897C12.9885 56.4412 13.0279 56.4019 13.0763 56.4019Z" fill="#F4D8A0"/>
<path d="M25.5084 61.1177L26.8647 66.1273" stroke="#F4D8A0" stroke-width="0.146127" stroke-miterlimit="10"/>
<path d="M25.4254 61.1406C25.4127 61.0938 25.4403 61.0456 25.4871 61.0329C25.534 61.0202 25.5822 61.0478 25.5949 61.0946C25.6076 61.1414 25.58 61.1897 25.5331 61.2024C25.4863 61.2151 25.4381 61.1874 25.4254 61.1406Z" fill="#F4D8A0"/>
<path d="M26.2655 70.1815L26.8432 66.1284" stroke="#F4D8A0" stroke-width="0.146127" stroke-miterlimit="10"/>
<path d="M13.0428 64.5947L14.0475 70.7121" stroke="#F4D8A0" stroke-width="0.146127" stroke-miterlimit="10"/>
<path d="M12.9545 64.6085C12.9467 64.5606 12.9791 64.5154 13.0269 64.5075C13.0748 64.4997 13.12 64.5321 13.1279 64.5799C13.1357 64.6278 13.1033 64.673 13.0555 64.6808C13.0076 64.6887 12.9624 64.6563 12.9545 64.6085Z" fill="#F4D8A0"/>
<path d="M13.0681 61.5283L13.043 64.5996" stroke="#F4D8A0" stroke-width="0.146127" stroke-miterlimit="10"/>
<path d="M12.9885 61.5319C12.9889 61.4834 13.0286 61.4444 13.0771 61.4448C13.1256 61.4452 13.1646 61.4849 13.1642 61.5334C13.1638 61.5819 13.1241 61.6209 13.0756 61.6205C13.0271 61.6201 12.9881 61.5804 12.9885 61.5319Z" fill="#F4D8A0"/>
<path d="M25.5084 61.1213L28.6481 58.9814" stroke="#F4D8A0" stroke-width="0.146127" stroke-miterlimit="10"/>
<path d="M25.5595 61.1907C25.5194 61.218 25.4648 61.2076 25.4375 61.1675C25.4102 61.1274 25.4206 61.0727 25.4607 61.0455C25.5009 61.0182 25.5555 61.0286 25.5828 61.0687C25.61 61.1088 25.5996 61.1635 25.5595 61.1907Z" fill="#F4D8A0"/>
<path d="M28.6474 58.9819H28.6364" stroke="#F4D8A0" stroke-width="0.146127" stroke-miterlimit="10"/>
<path d="M28.6422 59.0697C28.6907 59.0697 28.73 59.0304 28.73 58.9819C28.73 58.9334 28.6907 58.894 28.6422 58.894C28.5937 58.894 28.5544 58.9334 28.5544 58.9819C28.5544 59.0304 28.5937 59.0697 28.6422 59.0697Z" fill="#F4D8A0"/>
<path d="M28.6436 58.9788L32.9672 58.7778" stroke="#F4D8A0" stroke-width="0.146127" stroke-miterlimit="10"/>
<path d="M28.6463 59.0676C28.5978 59.0699 28.5567 59.0324 28.5545 58.984C28.5522 58.9355 28.5897 58.8944 28.6381 58.8922C28.6866 58.8899 28.7277 58.9274 28.7299 58.9758C28.7322 59.0243 28.6947 59.0654 28.6463 59.0676Z" fill="#F4D8A0"/>
<path d="M16.2876 58.8071H16.2766" stroke="#F4D8A0" stroke-width="0.146127" stroke-miterlimit="10"/>
<path d="M16.2873 58.8954C16.3358 58.8954 16.3751 58.8561 16.3751 58.8076C16.3751 58.759 16.3358 58.7197 16.2873 58.7197C16.2388 58.7197 16.1995 58.759 16.1995 58.8076C16.1995 58.8561 16.2388 58.8954 16.2873 58.8954Z" fill="#F4D8A0"/>
<path d="M20.1805 58.4492H20.1695" stroke="#F4D8A0" stroke-width="0.146127" stroke-miterlimit="10"/>
<path d="M20.1789 58.5365C20.2274 58.5365 20.2667 58.4972 20.2667 58.4487C20.2667 58.4002 20.2274 58.3608 20.1789 58.3608C20.1304 58.3608 20.0911 58.4002 20.0911 58.4487C20.0911 58.4972 20.1304 58.5365 20.1789 58.5365Z" fill="#F4D8A0"/>
<path d="M13.0588 61.525L16.2739 58.8062" stroke="#F4D8A0" stroke-width="0.146127" stroke-miterlimit="10"/>
<path d="M13.1174 61.5954C13.0803 61.6266 13.0249 61.622 12.9936 61.5849C12.9623 61.5478 12.967 61.4924 13.0041 61.4611C13.0412 61.4299 13.0966 61.4346 13.1278 61.4716C13.1591 61.5087 13.1544 61.5641 13.1174 61.5954Z" fill="#F4D8A0"/>
<path d="M25.4961 61.1265L20.1964 58.458" stroke="#F4D8A0" stroke-width="0.146127" stroke-miterlimit="10"/>
<path d="M25.5352 61.0484C25.5786 61.0702 25.596 61.123 25.5743 61.1663C25.5525 61.2097 25.4997 61.2272 25.4564 61.2054C25.413 61.1836 25.3956 61.1308 25.4173 61.0875C25.4391 61.0441 25.4919 61.0267 25.5352 61.0484Z" fill="#F4D8A0"/>
<path d="M16.2942 58.8092L20.1908 58.4575" stroke="#F4D8A0" stroke-width="0.146127" stroke-miterlimit="10"/>
<path d="M16.2952 58.895C16.2469 58.8994 16.2042 58.8638 16.1998 58.8154C16.1955 58.7671 16.2311 58.7244 16.2794 58.7201C16.3277 58.7157 16.3704 58.7514 16.3748 58.7997C16.3791 58.848 16.3435 58.8907 16.2952 58.895Z" fill="#F4D8A0"/>
<path d="M25.5045 61.1217L23.9221 56.8169" stroke="#F4D8A0" stroke-width="0.146127" stroke-miterlimit="10"/>
<path d="M25.5845 61.0912C25.6013 61.1367 25.578 61.1872 25.5325 61.2039C25.4869 61.2207 25.4364 61.1974 25.4197 61.1519C25.4029 61.1064 25.4262 61.0559 25.4717 61.0391C25.5172 61.0224 25.5677 61.0457 25.5845 61.0912Z" fill="#F4D8A0"/>
<path d="M23.9144 56.814L25.9489 50.6211" stroke="#F4D8A0" stroke-width="0.146127" stroke-miterlimit="10"/>
<path d="M23.9998 56.8443C23.9846 56.8904 23.9349 56.9154 23.8889 56.9003C23.8428 56.8851 23.8178 56.8354 23.8329 56.7894C23.8481 56.7433 23.8977 56.7183 23.9438 56.7334C23.9899 56.7486 24.0149 56.7983 23.9998 56.8443Z" fill="#F4D8A0"/>
<path d="M13.0577 61.5229L7.93384 58.4517" stroke="#F4D8A0" stroke-width="0.146127" stroke-miterlimit="10"/>
<path d="M13.0948 61.45C13.1364 61.4749 13.15 61.5288 13.1251 61.5704C13.1002 61.612 13.0462 61.6256 13.0046 61.6007C12.963 61.5758 12.9494 61.5219 12.9743 61.4803C12.9992 61.4386 13.0531 61.4251 13.0948 61.45Z" fill="#F4D8A0"/>
<path d="M13.0588 61.527V56.4922" stroke="#F4D8A0" stroke-width="0.146127" stroke-miterlimit="10"/>
<path d="M13.1485 61.5273C13.1485 61.5758 13.1092 61.6151 13.0607 61.6151C13.0122 61.6151 12.9729 61.5758 12.9729 61.5273C12.9729 61.4788 13.0122 61.4395 13.0607 61.4395C13.1092 61.4395 13.1485 61.4788 13.1485 61.5273Z" fill="#F4D8A0"/>
<path d="M13.0682 56.4877L12.5659 50.1187" stroke="#F4D8A0" stroke-width="0.146127" stroke-miterlimit="10"/>
<path d="M13.1553 56.4793C13.1591 56.5277 13.123 56.57 13.0747 56.5738C13.0263 56.5776 12.984 56.5415 12.9802 56.4932C12.9764 56.4448 13.0125 56.4025 13.0608 56.3987C13.1092 56.3949 13.1515 56.431 13.1553 56.4793Z" fill="#F4D8A0"/>
<path d="M31.2511 50.4211L37.5555 49.7681" stroke="#F4D8A0" stroke-width="0.146127" stroke-miterlimit="10"/>
<path d="M31.269 50.5092C31.2208 50.5142 31.1776 50.4791 31.1726 50.4309C31.1676 50.3826 31.2027 50.3395 31.2509 50.3345C31.2991 50.3295 31.3423 50.3645 31.3473 50.4128C31.3523 50.461 31.3172 50.5042 31.269 50.5092Z" fill="#F4D8A0"/>
<path d="M28.896 50.6196H25.9573" stroke="#F4D8A0" stroke-width="0.146127" stroke-miterlimit="10"/>
<path d="M28.8967 50.7069C28.9452 50.7069 28.9845 50.6676 28.9845 50.6191C28.9845 50.5706 28.9452 50.5312 28.8967 50.5312C28.8482 50.5312 28.8088 50.5706 28.8088 50.6191C28.8088 50.6676 28.8482 50.7069 28.8967 50.7069Z" fill="#F4D8A0"/>
<path d="M31.2535 50.418H31.2425" stroke="#F4D8A0" stroke-width="0.146127" stroke-miterlimit="10"/>
<path d="M31.2599 50.5111C31.3084 50.5111 31.3478 50.4718 31.3478 50.4233C31.3478 50.3748 31.3084 50.3354 31.2599 50.3354C31.2114 50.3354 31.1721 50.3748 31.1721 50.4233C31.1721 50.4718 31.2114 50.5111 31.2599 50.5111Z" fill="#F4D8A0"/>
<path d="M28.8902 50.6133H28.8792" stroke="#F4D8A0" stroke-width="0.146127" stroke-miterlimit="10"/>
<path d="M28.8849 50.701C28.9334 50.701 28.9728 50.6617 28.9728 50.6132C28.9728 50.5647 28.9334 50.5254 28.8849 50.5254C28.8364 50.5254 28.7971 50.5647 28.7971 50.6132C28.7971 50.6617 28.8364 50.701 28.8849 50.701Z" fill="#F4D8A0"/>
<path d="M28.8955 50.6228L31.2348 50.4219" stroke="#F4D8A0" stroke-width="0.146127" stroke-miterlimit="10"/>
<path d="M28.8925 50.7066C28.8441 50.7107 28.8016 50.6749 28.7974 50.6266C28.7933 50.5783 28.8291 50.5357 28.8774 50.5316C28.9258 50.5274 28.9683 50.5632 28.9725 50.6116C28.9766 50.6599 28.9408 50.7024 28.8925 50.7066Z" fill="#F4D8A0"/>
<path d="M19.0747 49.3145H19.0637" stroke="#F4D8A0" stroke-width="0.146127" stroke-miterlimit="10"/>
<path d="M19.0733 49.4032C19.1218 49.4032 19.1611 49.3639 19.1611 49.3154C19.1611 49.2669 19.1218 49.2275 19.0733 49.2275C19.0248 49.2275 18.9855 49.2669 18.9855 49.3154C18.9855 49.3639 19.0248 49.4032 19.0733 49.4032Z" fill="#F4D8A0"/>
<path d="M19.0714 49.3154L25.9535 50.6245" stroke="#F4D8A0" stroke-width="0.146127" stroke-miterlimit="10"/>
<path d="M19.0569 49.4017C19.0093 49.3926 18.978 49.3467 18.987 49.299C18.9961 49.2514 19.042 49.2201 19.0897 49.2291C19.1373 49.2381 19.1686 49.2841 19.1596 49.3318C19.1506 49.3794 19.1046 49.4107 19.0569 49.4017Z" fill="#F4D8A0"/>
<path d="M14.7008 48.8633L12.5659 50.122" stroke="#F4D8A0" stroke-width="0.146127" stroke-miterlimit="10"/>
<path d="M14.6521 48.7875C14.6939 48.7629 14.7478 48.7769 14.7724 48.8187C14.7969 48.8605 14.783 48.9143 14.7412 48.9389C14.6994 48.9635 14.6456 48.9496 14.621 48.9078C14.5964 48.866 14.6103 48.8121 14.6521 48.7875Z" fill="#F4D8A0"/>
<path d="M14.7066 48.8633H14.6956" stroke="#F4D8A0" stroke-width="0.146127" stroke-miterlimit="10"/>
<path d="M14.7053 48.9549C14.7538 48.9549 14.7931 48.9156 14.7931 48.8671C14.7931 48.8186 14.7538 48.7793 14.7053 48.7793C14.6568 48.7793 14.6174 48.8186 14.6174 48.8671C14.6174 48.9156 14.6568 48.9549 14.7053 48.9549Z" fill="#F4D8A0"/>
<path d="M14.7073 48.8633L19.056 49.3154" stroke="#F4D8A0" stroke-width="0.146127" stroke-miterlimit="10"/>
<path d="M14.6962 48.9545C14.6479 48.9495 14.6129 48.9063 14.6179 48.858C14.6229 48.8098 14.6661 48.7748 14.7143 48.7798C14.7626 48.7848 14.7976 48.828 14.7926 48.8762C14.7876 48.9244 14.7444 48.9595 14.6962 48.9545Z" fill="#F4D8A0"/>
<path d="M25.9299 46.2031L25.9551 50.6338" stroke="#F4D8A0" stroke-width="0.146127" stroke-miterlimit="10"/>
<path d="M7.94977 48.8633L12.5713 50.122" stroke="#F4D8A0" stroke-width="0.146127" stroke-miterlimit="10"/>
<path d="M11.8984 46.4951L12.5515 50.1202" stroke="#F4D8A0" stroke-width="0.146127" stroke-miterlimit="10"/>
</g>
<path d="M21.7922 47.2622C16.3261 47.2622 11.8951 51.7033 11.8951 57.1818C11.8951 62.6601 16.3261 67.1013 21.7922 67.1013C27.2583 67.1013 31.6893 62.6601 31.6893 57.1818C31.6893 51.7033 27.2583 47.2622 21.7922 47.2622V47.2622ZM23.8655 61.6444C23.5975 61.7787 23.3166 61.8844 23.0291 61.9644V62.3071C23.0291 62.9918 22.4752 63.547 21.792 63.547C21.1088 63.547 20.5549 62.9918 20.5549 62.3071V62.0032C20.0399 61.8732 19.5596 61.6548 19.1528 61.349C18.6062 60.9382 18.4954 60.161 18.9054 59.6131C19.3153 59.0653 20.0908 58.9542 20.6373 59.3651C21.1322 59.7371 22.084 59.7647 22.7589 59.4264C23.0301 59.2904 23.1765 59.1268 23.1765 59.0419C23.1765 58.8935 23.1765 58.8706 23.0119 58.7825C22.6891 58.6099 22.1184 58.5037 21.5664 58.4011C20.8294 58.2641 20.0674 58.1224 19.4071 57.7692C18.4429 57.2534 17.9332 56.4071 17.9332 55.322C17.9332 54.2357 18.5832 53.2869 19.7165 52.719C19.9851 52.5843 20.2667 52.4778 20.5549 52.3977V52.0568C20.5549 51.3721 21.1088 50.8169 21.792 50.8169C22.4752 50.8169 23.0291 51.3721 23.0291 52.0568V52.3605C23.5442 52.4905 24.0244 52.7091 24.4312 53.0149C24.9779 53.4258 25.0886 54.203 24.6787 54.7508C24.2687 55.2986 23.4934 55.4097 22.9467 54.9988C22.4511 54.6262 21.4985 54.5986 20.823 54.937C20.5502 55.0737 20.4075 55.2342 20.4075 55.3219C20.4075 55.4704 20.4075 55.4932 20.5721 55.5813C20.8949 55.754 21.4657 55.8602 22.0177 55.9627C22.7546 56.0998 23.5166 56.2415 24.177 56.5947C25.1411 57.1105 25.6508 57.9567 25.6508 59.0419C25.6509 60.1271 25.0001 61.0758 23.8655 61.6444V61.6444Z" stroke="#E3B04B"/>
<mask id="mask1" mask-type="alpha" maskUnits="userSpaceOnUse" x="38" y="46" width="21" height="20">
<path fill-rule="evenodd" clip-rule="evenodd" d="M48.1784 65.8372C53.6444 65.8372 58.0755 61.4061 58.0755 55.9401C58.0755 50.4741 53.6444 46.043 48.1784 46.043C42.7123 46.043 38.2812 50.4741 38.2812 55.9401C38.2812 61.4061 42.7123 65.8372 48.1784 65.8372ZM50.0159 61.6344C51.5863 61.6344 52.8638 60.354 52.8638 58.78C52.8638 58.0463 52.5785 57.3832 52.1231 56.8771C52.5785 56.3709 52.8638 55.7078 52.8638 54.9741C52.8638 53.4001 51.5863 52.1197 50.0159 52.1197H49.0666V51.1682C49.0666 50.6423 48.642 50.2168 48.1173 50.2168C47.5926 50.2168 47.168 50.6423 47.168 51.1682V52.1197H44.32C43.7953 52.1197 43.3707 52.5453 43.3707 53.0712C43.3707 53.5971 43.7953 54.0227 44.32 54.0227H45.2693V59.7315H44.32C43.7953 59.7315 43.3707 60.1571 43.3707 60.683C43.3707 61.2089 43.7953 61.6344 44.32 61.6344H47.168V62.5859C47.168 63.1118 47.5926 63.5374 48.1173 63.5374C48.642 63.5374 49.0666 63.1118 49.0666 62.5859V61.6344H50.0159ZM47.168 54.0227V55.8971H50.1108C50.4397 55.8971 50.9336 55.5482 50.9336 54.9741C50.9336 54.4001 50.4784 54.0227 50.1108 54.0227H47.168ZM47.168 57.8571V59.7315H50.1108C50.4397 59.7315 50.9336 59.3826 50.9336 58.8086C50.9336 58.2345 50.4784 57.8571 50.1108 57.8571H47.168Z" fill="#C4C4C4"/>
</mask>
<g mask="url(#mask1)">
<path d="M61.032 62.6953L53.9453 67.2287" stroke="#F4D8A0" stroke-width="0.146127" stroke-miterlimit="10"/>
<path d="M46.1749 64.5684L46.1684 64.5797" stroke="#F4D8A0" stroke-width="0.146127" stroke-miterlimit="10"/>
<path d="M46.0765 64.5146C46.1053 64.4647 46.1691 64.4476 46.219 64.4764C46.2689 64.5052 46.286 64.569 46.2571 64.6189C46.2283 64.6688 46.1645 64.6859 46.1147 64.657C46.0648 64.6282 46.0477 64.5644 46.0765 64.5146Z" fill="#F4D8A0"/>
<path d="M53.9022 67.2302L50.7233 60.3945" stroke="#F4D8A0" stroke-width="0.146127" stroke-miterlimit="10"/>
<path d="M46.1798 64.5703L39.2422 66.8614" stroke="#F4D8A0" stroke-width="0.146127" stroke-miterlimit="10"/>
<path d="M46.1498 64.4696C46.2045 64.4516 46.2635 64.4813 46.2815 64.536C46.2995 64.5908 46.2698 64.6497 46.2151 64.6678C46.1604 64.6858 46.1014 64.656 46.0834 64.6013C46.0654 64.5466 46.0951 64.4876 46.1498 64.4696Z" fill="#F4D8A0"/>
<path d="M50.7344 60.375L50.7409 60.3863" stroke="#F4D8A0" stroke-width="0.146127" stroke-miterlimit="10"/>
<path d="M50.6429 60.426C50.6141 60.3761 50.6312 60.3123 50.6811 60.2835C50.7309 60.2547 50.7947 60.2718 50.8236 60.3217C50.8524 60.3716 50.8353 60.4354 50.7854 60.4642C50.7355 60.493 50.6717 60.4759 50.6429 60.426Z" fill="#F4D8A0"/>
<path d="M39.2026 66.8681L37.4258 61.1387" stroke="#F4D8A0" stroke-width="0.146127" stroke-miterlimit="10"/>
<path d="M58.0399 57.6563L60.1448 49.1763" stroke="#F4D8A0" stroke-width="0.146127" stroke-miterlimit="10"/>
<path d="M58.1399 57.6783C58.126 57.7342 58.0694 57.7683 58.0135 57.7544C57.9576 57.7405 57.9236 57.6839 57.9375 57.628C57.9514 57.5721 58.008 57.538 58.0639 57.5519C58.1198 57.5658 58.1538 57.6224 58.1399 57.6783Z" fill="#F4D8A0"/>
<path d="M58.0319 57.6558L58.0233 57.6707L61.0318 62.6676" stroke="#F4D8A0" stroke-width="0.146127" stroke-miterlimit="10"/>
<path d="M57.9398 57.6025C57.9686 57.5526 58.0324 57.5355 58.0823 57.5643C58.1321 57.5931 58.1492 57.6569 58.1204 57.7068C58.0916 57.7567 58.0278 57.7737 57.9779 57.7449C57.9281 57.7161 57.911 57.6523 57.9398 57.6025Z" fill="#F4D8A0"/>
<path d="M50.0932 48.5513L50.0867 48.54" stroke="#F4D8A0" stroke-width="0.146127" stroke-miterlimit="10"/>
<path d="M50.1829 48.4999C50.2117 48.5498 50.1946 48.6136 50.1448 48.6424C50.0949 48.6712 50.0311 48.6541 50.0023 48.6042C49.9735 48.5544 49.9906 48.4905 50.0404 48.4617C50.0903 48.4329 50.1541 48.45 50.1829 48.4999Z" fill="#F4D8A0"/>
<path d="M50.7344 60.3746L50.7409 60.3633" stroke="#F4D8A0" stroke-width="0.146127" stroke-miterlimit="10"/>
<path d="M50.8236 60.426C50.7947 60.4759 50.7309 60.493 50.6811 60.4642C50.6312 60.4354 50.6141 60.3716 50.6429 60.3217C50.6717 60.2718 50.7355 60.2547 50.7854 60.2835C50.8353 60.3123 50.8524 60.3761 50.8236 60.426Z" fill="#F4D8A0"/>
<path d="M45.4554 48.9575L45.4489 48.9688" stroke="#F4D8A0" stroke-width="0.146127" stroke-miterlimit="10"/>
<path d="M45.3656 48.9091C45.3944 48.8592 45.4582 48.8421 45.508 48.8709C45.5579 48.8997 45.575 48.9635 45.5462 49.0134C45.5174 49.0633 45.4536 49.0804 45.4037 49.0516C45.3538 49.0228 45.3368 48.959 45.3656 48.9091Z" fill="#F4D8A0"/>
<path d="M41.6326 55.8358L45.4678 48.9702" stroke="#F4D8A0" stroke-width="0.146127" stroke-miterlimit="10"/>
<path d="M41.7227 55.8843C41.6945 55.9345 41.631 55.9525 41.5807 55.9243C41.5305 55.8962 41.5125 55.8326 41.5407 55.7824C41.5688 55.7321 41.6324 55.7142 41.6826 55.7423C41.7329 55.7705 41.7508 55.834 41.7227 55.8843Z" fill="#F4D8A0"/>
<path d="M57.9889 57.6602L57.9976 57.6751L50.7233 60.3698" stroke="#F4D8A0" stroke-width="0.146127" stroke-miterlimit="10"/>
<path d="M57.8976 57.7112C57.8688 57.6613 57.8859 57.5975 57.9358 57.5687C57.9857 57.5399 58.0495 57.557 58.0783 57.6069C58.1071 57.6567 58.09 57.7205 58.0401 57.7493C57.9902 57.7781 57.9264 57.761 57.8976 57.7112Z" fill="#F4D8A0"/>
<path d="M46.1684 64.5508L46.1749 64.5621" stroke="#F4D8A0" stroke-width="0.146127" stroke-miterlimit="10"/>
<path d="M46.0765 64.6013C46.0477 64.5514 46.0648 64.4876 46.1147 64.4588C46.1645 64.43 46.2283 64.4471 46.2571 64.497C46.286 64.5469 46.2689 64.6107 46.219 64.6395C46.1691 64.6683 46.1053 64.6512 46.0765 64.6013Z" fill="#F4D8A0"/>
<path d="M57.9821 57.6611L50.0898 48.5532" stroke="#F4D8A0" stroke-width="0.146127" stroke-miterlimit="10"/>
<path d="M58.0659 57.595C58.1037 57.6385 58.0991 57.7044 58.0556 57.7421C58.0121 57.7799 57.9462 57.7753 57.9084 57.7318C57.8707 57.6883 57.8753 57.6224 57.9188 57.5846C57.9623 57.5469 58.0282 57.5515 58.0659 57.595Z" fill="#F4D8A0"/>
<path d="M41.6296 55.8306L41.621 55.8455L46.1807 64.5498" stroke="#F4D8A0" stroke-width="0.146127" stroke-miterlimit="10"/>
<path d="M41.5412 55.7812C41.57 55.7313 41.6338 55.7142 41.6837 55.743C41.7336 55.7718 41.7507 55.8356 41.7219 55.8855C41.6931 55.9354 41.6293 55.9525 41.5794 55.9237C41.5295 55.8949 41.5124 55.831 41.5412 55.7812Z" fill="#F4D8A0"/>
<path d="M41.5817 55.8354L35.5391 48.5513" stroke="#F4D8A0" stroke-width="0.146127" stroke-miterlimit="10"/>
<path d="M41.6653 55.7656C41.7022 55.8099 41.6961 55.8757 41.6518 55.9125C41.6075 55.9494 41.5418 55.9433 41.5049 55.899C41.4681 55.8547 41.4742 55.789 41.5185 55.7521C41.5627 55.7153 41.6285 55.7214 41.6653 55.7656Z" fill="#F4D8A0"/>
<path d="M37.4295 61.1144L41.6014 55.8484L41.5928 55.8335" stroke="#F4D8A0" stroke-width="0.146127" stroke-miterlimit="10"/>
<path d="M60.4365 39.251L54.543 46.5949" stroke="#F4D8A0" stroke-width="0.146127" stroke-miterlimit="10"/>
<path d="M54.5515 46.5977L54.5428 46.6126L60.1466 49.1578" stroke="#F4D8A0" stroke-width="0.146127" stroke-miterlimit="10"/>
<path d="M54.4631 46.5444C54.4919 46.4945 54.5557 46.4774 54.6056 46.5062C54.6555 46.535 54.6725 46.5988 54.6437 46.6487C54.6149 46.6985 54.5511 46.7156 54.5013 46.6868C54.4514 46.658 54.4343 46.5942 54.4631 46.5444Z" fill="#F4D8A0"/>
<path d="M43.5784 37.1567L41.6523 46.2049" stroke="#F4D8A0" stroke-width="0.146127" stroke-miterlimit="10"/>
<path d="M50.0938 48.543L50.1003 48.5317" stroke="#F4D8A0" stroke-width="0.146127" stroke-miterlimit="10"/>
<path d="M50.1829 48.5925C50.1541 48.6424 50.0903 48.6595 50.0404 48.6307C49.9906 48.6019 49.9735 48.5381 50.0023 48.4882C50.0311 48.4383 50.0949 48.4212 50.1448 48.45C50.1946 48.4788 50.2117 48.5426 50.1829 48.5925Z" fill="#F4D8A0"/>
<path d="M41.6549 46.2026L41.6462 46.2176L45.4602 48.9422" stroke="#F4D8A0" stroke-width="0.146127" stroke-miterlimit="10"/>
<path d="M41.5618 46.1532C41.5906 46.1034 41.6544 46.0863 41.7043 46.1151C41.7541 46.1439 41.7712 46.2077 41.7424 46.2576C41.7136 46.3074 41.6498 46.3245 41.6 46.2957C41.5501 46.2669 41.533 46.2031 41.5618 46.1532Z" fill="#F4D8A0"/>
<path d="M54.4957 46.5981L54.5043 46.6131L50.0938 48.5304" stroke="#F4D8A0" stroke-width="0.146127" stroke-miterlimit="10"/>
<path d="M54.3976 46.6487C54.3688 46.5988 54.3859 46.535 54.4358 46.5062C54.4857 46.4774 54.5495 46.4945 54.5783 46.5444C54.6071 46.5942 54.59 46.658 54.5401 46.6868C54.4902 46.7156 54.4264 46.6985 54.3976 46.6487Z" fill="#F4D8A0"/>
<path d="M45.4554 48.96L45.4489 48.9487" stroke="#F4D8A0" stroke-width="0.146127" stroke-miterlimit="10"/>
<path d="M45.5462 48.9091C45.575 48.959 45.5579 49.0228 45.508 49.0516C45.4582 49.0804 45.3944 49.0633 45.3656 49.0134C45.3368 48.9635 45.3538 48.8997 45.4037 48.8709C45.4536 48.8421 45.5174 48.8592 45.5462 48.9091Z" fill="#F4D8A0"/>
<path d="M54.5021 46.594L48.7578 37.6953" stroke="#F4D8A0" stroke-width="0.146127" stroke-miterlimit="10"/>
<path d="M54.5823 46.5369C54.6136 46.5853 54.5998 46.6499 54.5514 46.6811C54.5031 46.7124 54.4385 46.6986 54.4072 46.6502C54.3759 46.6019 54.3897 46.5373 54.4381 46.506C54.4865 46.4747 54.551 46.4886 54.5823 46.5369Z" fill="#F4D8A0"/>
<path d="M41.6116 46.2043L35.5391 37.1562" stroke="#F4D8A0" stroke-width="0.146127" stroke-miterlimit="10"/>
<path d="M41.6987 46.1462C41.7308 46.194 41.7181 46.2588 41.6703 46.291C41.6226 46.3231 41.5577 46.3104 41.5256 46.2626C41.4934 46.2148 41.5061 46.15 41.5539 46.1179C41.6017 46.0857 41.6665 46.0984 41.6987 46.1462Z" fill="#F4D8A0"/>
<path d="M41.6116 46.2002L41.6202 46.2151L35.5391 48.5211" stroke="#F4D8A0" stroke-width="0.146127" stroke-miterlimit="10"/>
<path d="M41.5218 46.2512C41.493 46.2013 41.5101 46.1375 41.56 46.1087C41.6099 46.0799 41.6737 46.097 41.7025 46.1469C41.7313 46.1968 41.7142 46.2606 41.6643 46.2894C41.6144 46.3182 41.5506 46.3011 41.5218 46.2512Z" fill="#F4D8A0"/>
<path d="M46.1684 64.5684L46.1749 64.5797" stroke="#F4D8A0" stroke-width="0.146127" stroke-miterlimit="10"/>
<path d="M46.0766 64.619C46.0477 64.5692 46.0647 64.5053 46.1145 64.4765C46.1644 64.4476 46.2282 64.4646 46.2571 64.5144C46.2859 64.5643 46.269 64.6281 46.2191 64.657C46.1693 64.6858 46.1055 64.6689 46.0766 64.619Z" fill="#F4D8A0"/>
<path d="M47.0925 67.5847L46.168 64.5762" stroke="#F4D8A0" stroke-width="0.146127" stroke-miterlimit="10"/>
<path d="M49.8516 57.6733L50.7251 60.368" stroke="#F4D8A0" stroke-width="0.146127" stroke-miterlimit="10"/>
<path d="M49.7512 57.7044C49.7334 57.6497 49.7634 57.5908 49.8182 57.573C49.873 57.5552 49.9318 57.5852 49.9496 57.64C49.9674 57.6948 49.9374 57.7536 49.8827 57.7714C49.8279 57.7892 49.769 57.7592 49.7512 57.7044Z" fill="#F4D8A0"/>
<path d="M49.8367 57.665L49.8454 57.6802" stroke="#F4D8A0" stroke-width="0.146127" stroke-miterlimit="10"/>
<path d="M49.7371 57.7152C49.7082 57.6654 49.7252 57.6016 49.775 57.5727C49.8249 57.5438 49.8887 57.5608 49.9176 57.6106C49.9465 57.6604 49.9295 57.7243 49.8796 57.7532C49.8298 57.782 49.766 57.7651 49.7371 57.7152Z" fill="#F4D8A0"/>
<path d="M45.4672 48.9644L45.4607 48.9531" stroke="#F4D8A0" stroke-width="0.146127" stroke-miterlimit="10"/>
<path d="M45.5615 48.9134C45.5904 48.9632 45.5734 49.027 45.5236 49.0559C45.4737 49.0848 45.4099 49.0678 45.381 49.0179C45.3521 48.9681 45.3691 48.9043 45.419 48.8754C45.4688 48.8465 45.5326 48.8635 45.5615 48.9134Z" fill="#F4D8A0"/>
<path d="M49.8537 57.6615L45.4688 48.9722" stroke="#F4D8A0" stroke-width="0.146127" stroke-miterlimit="10"/>
<path d="M49.9469 57.6139C49.9729 57.6653 49.9523 57.728 49.9009 57.754C49.8495 57.78 49.7867 57.7594 49.7607 57.708C49.7347 57.6566 49.7553 57.5939 49.8067 57.5679C49.8581 57.5419 49.9209 57.5625 49.9469 57.6139Z" fill="#F4D8A0"/>
<path d="M50.7234 60.3682L50.7299 60.3795" stroke="#F4D8A0" stroke-width="0.146127" stroke-miterlimit="10"/>
<path d="M50.6321 60.4193C50.6032 60.3695 50.6202 60.3056 50.6701 60.2768C50.7199 60.2479 50.7837 60.2649 50.8126 60.3147C50.8415 60.3646 50.8245 60.4284 50.7747 60.4573C50.7248 60.4861 50.661 60.4691 50.6321 60.4193Z" fill="#F4D8A0"/>
<path d="M50.103 48.5282L46.3359 43.1128" stroke="#F4D8A0" stroke-width="0.146127" stroke-miterlimit="10"/>
<path d="M50.1822 48.4695C50.2151 48.5167 50.2035 48.5817 50.1563 48.6147C50.109 48.6476 50.044 48.636 50.0111 48.5888C49.9781 48.5415 49.9897 48.4765 50.037 48.4436C50.0842 48.4106 50.1492 48.4222 50.1822 48.4695Z" fill="#F4D8A0"/>
<path d="M50.1168 48.5367L50.1102 48.5254" stroke="#F4D8A0" stroke-width="0.146127" stroke-miterlimit="10"/>
<path d="M50.2071 48.4856C50.236 48.5355 50.219 48.5993 50.1692 48.6282C50.1193 48.657 50.0555 48.64 50.0266 48.5902C49.9978 48.5404 50.0148 48.4765 50.0646 48.4477C50.1144 48.4188 50.1783 48.4358 50.2071 48.4856Z" fill="#F4D8A0"/>
<path d="M50.7292 60.3809L50.7227 60.3922" stroke="#F4D8A0" stroke-width="0.146127" stroke-miterlimit="10"/>
<path d="M50.643 60.3274C50.6719 60.2776 50.7357 60.2606 50.7855 60.2895C50.8354 60.3183 50.8524 60.3822 50.8235 60.432C50.7946 60.4818 50.7308 60.4988 50.6809 60.47C50.6311 60.4411 50.6141 60.3772 50.643 60.3274Z" fill="#F4D8A0"/>
<path d="M50.7227 60.3931L47.1133 67.5875" stroke="#F4D8A0" stroke-width="0.146127" stroke-miterlimit="10"/>
<path d="M50.6354 60.3504C50.6613 60.299 50.724 60.2782 50.7755 60.3041C50.8269 60.33 50.8477 60.3927 50.8218 60.4442C50.7959 60.4956 50.7332 60.5164 50.6817 60.4905C50.6303 60.4646 50.6095 60.4019 50.6354 60.3504Z" fill="#F4D8A0"/>
<path d="M50.1168 48.5391L50.1102 48.5504" stroke="#F4D8A0" stroke-width="0.146127" stroke-miterlimit="10"/>
<path d="M50.0266 48.4856C50.0555 48.4358 50.1193 48.4188 50.1692 48.4477C50.219 48.4765 50.236 48.5404 50.2071 48.5902C50.1783 48.64 50.1144 48.657 50.0646 48.6282C50.0148 48.5993 49.9978 48.5355 50.0266 48.4856Z" fill="#F4D8A0"/>
<path d="M49.8456 57.6689L46.168 64.5494" stroke="#F4D8A0" stroke-width="0.146127" stroke-miterlimit="10"/>
<path d="M49.7546 57.6229C49.7818 57.5722 49.845 57.5531 49.8958 57.5803C49.9465 57.6075 49.9657 57.6707 49.9385 57.7214C49.9113 57.7722 49.848 57.7913 49.7973 57.7641C49.7465 57.7369 49.7274 57.6737 49.7546 57.6229Z" fill="#F4D8A0"/>
<path d="M49.8516 57.6592L50.09 48.5513" stroke="#F4D8A0" stroke-width="0.146127" stroke-miterlimit="10"/>
<path d="M49.9547 57.6651C49.9532 57.7227 49.9052 57.7682 49.8477 57.7667C49.7901 57.7652 49.7446 57.7173 49.7461 57.6597C49.7476 57.6021 49.7956 57.5566 49.8531 57.5581C49.9107 57.5597 49.9562 57.6076 49.9547 57.6651Z" fill="#F4D8A0"/>
<path d="M46.1684 64.5665L46.1749 64.5552" stroke="#F4D8A0" stroke-width="0.146127" stroke-miterlimit="10"/>
<path d="M46.2571 64.619C46.2282 64.6689 46.1644 64.6858 46.1145 64.657C46.0647 64.6281 46.0477 64.5643 46.0766 64.5144C46.1055 64.4646 46.1693 64.4476 46.2191 64.4765C46.269 64.5054 46.2859 64.5692 46.2571 64.619Z" fill="#F4D8A0"/>
<path d="M49.8528 57.6611L49.8441 57.6763" stroke="#F4D8A0" stroke-width="0.146127" stroke-miterlimit="10"/>
<path d="M49.7602 57.6082C49.7891 57.5583 49.8529 57.5413 49.9027 57.5702C49.9526 57.5991 49.9695 57.6629 49.9407 57.7128C49.9118 57.7626 49.8479 57.7796 49.7981 57.7507C49.7483 57.7218 49.7313 57.658 49.7602 57.6082Z" fill="#F4D8A0"/>
<path d="M45.4724 48.9419L46.346 43.1079" stroke="#F4D8A0" stroke-width="0.146127" stroke-miterlimit="10"/>
<path d="M45.5744 48.9523C45.5659 49.0093 45.5127 49.0485 45.4558 49.04C45.3988 49.0314 45.3596 48.9783 45.3681 48.9214C45.3767 48.8644 45.4298 48.8251 45.4867 48.8337C45.5437 48.8422 45.583 48.8954 45.5744 48.9523Z" fill="#F4D8A0"/>
<path d="M45.4724 48.9527L45.479 48.9414" stroke="#F4D8A0" stroke-width="0.146127" stroke-miterlimit="10"/>
<path d="M45.5615 49.0062C45.5326 49.0561 45.4688 49.0731 45.419 49.0442C45.3691 49.0153 45.3521 48.9515 45.381 48.9016C45.4099 48.8518 45.4737 48.8348 45.5236 48.8637C45.5734 48.8926 45.5904 48.9564 45.5615 49.0062Z" fill="#F4D8A0"/>
<path d="M63.7383 54.6685L58.0239 57.6583" stroke="#F4D8A0" stroke-width="0.146127" stroke-miterlimit="10"/>
<path d="M58.0155 57.6553H58.0351" stroke="#F4D8A0" stroke-width="0.146127" stroke-miterlimit="10"/>
<path d="M58.0143 57.7584C58.0719 57.7584 58.1186 57.7117 58.1186 57.6541C58.1186 57.5965 58.0719 57.5498 58.0143 57.5498C57.9567 57.5498 57.91 57.5965 57.91 57.6541C57.91 57.7117 57.9567 57.7584 58.0143 57.7584Z" fill="#F4D8A0"/>
<path d="M49.8491 57.6573L41.6289 55.8335" stroke="#F4D8A0" stroke-width="0.146127" stroke-miterlimit="10"/>
<path d="M49.873 57.5567C49.9292 57.5691 49.9647 57.6248 49.9523 57.6811C49.9398 57.7373 49.8841 57.7728 49.8279 57.7604C49.7716 57.7479 49.7361 57.6922 49.7486 57.636C49.761 57.5797 49.8167 57.5442 49.873 57.5567Z" fill="#F4D8A0"/>
<path d="M49.8527 57.6611H49.8353" stroke="#F4D8A0" stroke-width="0.146127" stroke-miterlimit="10"/>
<path d="M49.8504 57.7648C49.908 57.7648 49.9547 57.7181 49.9547 57.6605C49.9547 57.6029 49.908 57.5562 49.8504 57.5562C49.7928 57.5562 49.7461 57.6029 49.7461 57.6605C49.7461 57.7181 49.7928 57.7648 49.8504 57.7648Z" fill="#F4D8A0"/>
<path d="M57.982 57.6602H49.8514" stroke="#F4D8A0" stroke-width="0.146127" stroke-miterlimit="10"/>
<path d="M57.983 57.7633C58.0406 57.7633 58.0873 57.7166 58.0873 57.659C58.0873 57.6014 58.0406 57.5547 57.983 57.5547C57.9254 57.5547 57.8787 57.6014 57.8787 57.659C57.8787 57.7166 57.9254 57.7633 57.983 57.7633Z" fill="#F4D8A0"/>
<path d="M41.6172 55.8296H41.6368" stroke="#F4D8A0" stroke-width="0.146127" stroke-miterlimit="10"/>
<path d="M41.616 55.9327C41.5584 55.9327 41.5117 55.886 41.5117 55.8284C41.5117 55.7708 41.5584 55.7241 41.616 55.7241C41.6736 55.7241 41.7203 55.7708 41.7203 55.8284C41.7203 55.886 41.6736 55.9327 41.616 55.9327Z" fill="#F4D8A0"/>
<path d="M58 57.6499H58.0196" stroke="#F4D8A0" stroke-width="0.146127" stroke-miterlimit="10"/>
<path d="M57.9988 57.753C58.0564 57.753 58.1031 57.7063 58.1031 57.6487C58.1031 57.5911 58.0564 57.5444 57.9988 57.5444C57.9412 57.5444 57.8945 57.5911 57.8945 57.6487C57.8945 57.7063 57.9412 57.753 57.9988 57.753Z" fill="#F4D8A0"/>
<path d="M41.5976 55.8301H41.6172" stroke="#F4D8A0" stroke-width="0.146127" stroke-miterlimit="10"/>
<path d="M41.5964 55.9332C41.5388 55.9332 41.4921 55.8865 41.4921 55.8289C41.4921 55.7713 41.5388 55.7246 41.5964 55.7246C41.654 55.7246 41.7007 55.7713 41.7007 55.8289C41.7007 55.8865 41.654 55.9332 41.5964 55.9332Z" fill="#F4D8A0"/>
<path d="M41.5792 55.8345L34.0154 58.7646" stroke="#F4D8A0" stroke-width="0.146127" stroke-miterlimit="10"/>
<path d="M41.543 55.736C41.5968 55.7153 41.6572 55.742 41.6779 55.7957C41.6987 55.8495 41.672 55.9099 41.6183 55.9306C41.5645 55.9514 41.5041 55.9247 41.4834 55.8709C41.4626 55.8172 41.4893 55.7568 41.543 55.736Z" fill="#F4D8A0"/>
<path d="M54.5205 46.5967H54.5401" stroke="#F4D8A0" stroke-width="0.146127" stroke-miterlimit="10"/>
<path d="M54.5184 46.7008C54.576 46.7008 54.6227 46.6541 54.6227 46.5965C54.6227 46.5389 54.576 46.4922 54.5184 46.4922C54.4608 46.4922 54.4141 46.5389 54.4141 46.5965C54.4141 46.6541 54.4608 46.7008 54.5184 46.7008Z" fill="#F4D8A0"/>
<path d="M54.5428 46.6004L60.645 43.3115" stroke="#F4D8A0" stroke-width="0.146127" stroke-miterlimit="10"/>
<path d="M54.6028 46.6908C54.5521 46.7181 54.4888 46.6991 54.4616 46.6484C54.4343 46.5976 54.4533 46.5344 54.504 46.5071C54.5547 46.4798 54.618 46.4988 54.6453 46.5496C54.6726 46.6003 54.6535 46.6635 54.6028 46.6908Z" fill="#F4D8A0"/>
<path d="M54.5226 46.5967H54.503" stroke="#F4D8A0" stroke-width="0.146127" stroke-miterlimit="10"/>
<path d="M54.5184 46.7008C54.576 46.7008 54.6227 46.6541 54.6227 46.5965C54.6227 46.5389 54.576 46.4922 54.5184 46.4922C54.4608 46.4922 54.4141 46.5389 54.4141 46.5965C54.4141 46.6541 54.4608 46.7008 54.5184 46.7008Z" fill="#F4D8A0"/>
<path d="M54.4963 46.5934L46.3359 43.0952" stroke="#F4D8A0" stroke-width="0.146127" stroke-miterlimit="10"/>
<path d="M54.5358 46.4943C54.5887 46.5169 54.6133 46.5782 54.5907 46.6312C54.568 46.6841 54.5067 46.7087 54.4538 46.6861C54.4008 46.6634 54.3762 46.6021 54.3989 46.5492C54.4215 46.4962 54.4828 46.4716 54.5358 46.4943Z" fill="#F4D8A0"/>
<path d="M41.6533 46.2085H41.6729" stroke="#F4D8A0" stroke-width="0.146127" stroke-miterlimit="10"/>
<path d="M41.6522 46.3155C41.5946 46.3155 41.5479 46.2688 41.5479 46.2112C41.5479 46.1536 41.5946 46.1069 41.6522 46.1069C41.7098 46.1069 41.7565 46.1536 41.7565 46.2112C41.7565 46.2688 41.7098 46.3155 41.6522 46.3155Z" fill="#F4D8A0"/>
<path d="M41.6533 46.2051L46.3235 43.0957" stroke="#F4D8A0" stroke-width="0.146127" stroke-miterlimit="10"/>
<path d="M41.7098 46.2913C41.6618 46.3232 41.5971 46.3101 41.5652 46.2621C41.5333 46.2142 41.5464 46.1494 41.5944 46.1175C41.6424 46.0857 41.7071 46.0987 41.739 46.1467C41.7709 46.1947 41.7578 46.2594 41.7098 46.2913Z" fill="#F4D8A0"/>
<path d="M41.6232 46.2112L33.2539 43.311" stroke="#F4D8A0" stroke-width="0.146127" stroke-miterlimit="10"/>
<path d="M41.6579 46.1142C41.7124 46.133 41.7413 46.1924 41.7224 46.2468C41.7036 46.3013 41.6442 46.3301 41.5898 46.3113C41.5353 46.2925 41.5065 46.2331 41.5253 46.1786C41.5441 46.1242 41.6035 46.0953 41.6579 46.1142Z" fill="#F4D8A0"/>
<path d="M41.6454 46.208H41.6258" stroke="#F4D8A0" stroke-width="0.146127" stroke-miterlimit="10"/>
<path d="M41.6522 46.1069C41.7098 46.1069 41.7565 46.1536 41.7565 46.2112C41.7565 46.2688 41.7098 46.3155 41.6522 46.3155C41.5946 46.3155 41.5479 46.2688 41.5479 46.2112C41.5479 46.1536 41.5946 46.1069 41.6522 46.1069Z" fill="#F4D8A0"/>
<path d="M57.3155 62.4746L53.9147 67.2285" stroke="#F4D8A0" stroke-width="0.146127" stroke-miterlimit="10"/>
<path d="M57.2233 62.4127C57.2569 62.3659 57.3221 62.3551 57.3689 62.3887C57.4157 62.4222 57.4264 62.4874 57.3929 62.5342C57.3593 62.581 57.2941 62.5918 57.2473 62.5582C57.2005 62.5247 57.1898 62.4595 57.2233 62.4127Z" fill="#F4D8A0"/>
<path d="M42.799 63.104L39.2193 66.8712" stroke="#F4D8A0" stroke-width="0.146127" stroke-miterlimit="10"/>
<path d="M42.7212 63.0314C42.7609 62.9897 42.8269 62.9881 42.8686 63.0278C42.9103 63.0675 42.9119 63.1336 42.8722 63.1753C42.8325 63.217 42.7665 63.2186 42.7247 63.1789C42.683 63.1391 42.6814 63.0731 42.7212 63.0314Z" fill="#F4D8A0"/>
<path d="M57.3242 62.4692L61.0233 62.6781" stroke="#F4D8A0" stroke-width="0.146127" stroke-miterlimit="10"/>
<path d="M57.3172 62.5722C57.2597 62.569 57.2157 62.5197 57.2189 62.4622C57.2222 62.4047 57.2714 62.3607 57.3289 62.3639C57.3864 62.3672 57.4304 62.4165 57.4272 62.474C57.424 62.5315 57.3747 62.5755 57.3172 62.5722Z" fill="#F4D8A0"/>
<path d="M46.1756 64.5631L42.8047 63.0981" stroke="#F4D8A0" stroke-width="0.146127" stroke-miterlimit="10"/>
<path d="M46.2161 64.4691C46.269 64.492 46.2933 64.5534 46.2703 64.6063C46.2474 64.6591 46.186 64.6834 46.1331 64.6605C46.0803 64.6376 46.056 64.5761 46.0789 64.5233C46.1019 64.4704 46.1633 64.4462 46.2161 64.4691Z" fill="#F4D8A0"/>
<path d="M50.7344 60.375H50.7475" stroke="#F4D8A0" stroke-width="0.146127" stroke-miterlimit="10"/>
<path d="M50.7332 60.4781C50.7908 60.4781 50.8375 60.4314 50.8375 60.3738C50.8375 60.3162 50.7908 60.2695 50.7332 60.2695C50.6756 60.2695 50.6289 60.3162 50.6289 60.3738C50.6289 60.4314 50.6756 60.4781 50.7332 60.4781Z" fill="#F4D8A0"/>
<path d="M46.1684 64.5684H46.1815" stroke="#F4D8A0" stroke-width="0.146127" stroke-miterlimit="10"/>
<path d="M46.1668 64.671C46.2244 64.671 46.2711 64.6243 46.2711 64.5667C46.2711 64.5091 46.2244 64.4624 46.1668 64.4624C46.1092 64.4624 46.0625 64.5091 46.0625 64.5667C46.0625 64.6243 46.1092 64.671 46.1668 64.671Z" fill="#F4D8A0"/>
<path d="M57.3231 62.4698L50.7305 60.377" stroke="#F4D8A0" stroke-width="0.146127" stroke-miterlimit="10"/>
<path d="M57.3546 62.3745C57.4095 62.3919 57.4399 62.4505 57.4225 62.5055C57.4051 62.5604 57.3465 62.5908 57.2916 62.5734C57.2367 62.556 57.2063 62.4974 57.2236 62.4425C57.241 62.3876 57.2997 62.3571 57.3546 62.3745Z" fill="#F4D8A0"/>
<path d="M50.719 60.375L46.1807 64.5608" stroke="#F4D8A0" stroke-width="0.146127" stroke-miterlimit="10"/>
<path d="M50.644 60.2971C50.6864 60.2581 50.7524 60.2608 50.7914 60.3032C50.8304 60.3456 50.8277 60.4116 50.7853 60.4506C50.7429 60.4896 50.6769 60.4868 50.6379 60.4445C50.5989 60.4021 50.6016 60.3361 50.644 60.2971Z" fill="#F4D8A0"/>
<path d="M56.4059 51.7031L58.0168 57.653" stroke="#F4D8A0" stroke-width="0.146127" stroke-miterlimit="10"/>
<path d="M56.3041 51.7293C56.289 51.6737 56.3218 51.6164 56.3774 51.6013C56.433 51.5862 56.4903 51.6191 56.5054 51.6747C56.5205 51.7303 56.4877 51.7876 56.4321 51.8027C56.3765 51.8177 56.3192 51.7849 56.3041 51.7293Z" fill="#F4D8A0"/>
<path d="M57.3242 62.4739L58.0103 57.6602" stroke="#F4D8A0" stroke-width="0.146127" stroke-miterlimit="10"/>
<path d="M57.3231 62.5787C57.3807 62.5787 57.4274 62.532 57.4274 62.4744C57.4274 62.4168 57.3807 62.3701 57.3231 62.3701C57.2654 62.3701 57.2188 62.4168 57.2188 62.4744C57.2188 62.532 57.2654 62.5787 57.3231 62.5787Z" fill="#F4D8A0"/>
<path d="M37.4381 61.1279L42.8077 63.1012" stroke="#F4D8A0" stroke-width="0.146127" stroke-miterlimit="10"/>
<path d="M41.6172 55.8296L42.8104 63.0949" stroke="#F4D8A0" stroke-width="0.146127" stroke-miterlimit="10"/>
<path d="M41.5131 55.8454C41.5038 55.7886 41.5423 55.7349 41.5991 55.7255C41.6559 55.7162 41.7096 55.7547 41.719 55.8115C41.7283 55.8683 41.6898 55.922 41.633 55.9314C41.5761 55.9407 41.5225 55.9022 41.5131 55.8454Z" fill="#F4D8A0"/>
<path d="M41.6479 52.1934L41.6182 55.841" stroke="#F4D8A0" stroke-width="0.146127" stroke-miterlimit="10"/>
<path d="M41.5479 52.1913C41.5483 52.1337 41.5954 52.0874 41.653 52.0879C41.7106 52.0884 41.7569 52.1355 41.7565 52.1931C41.756 52.2506 41.7089 52.297 41.6513 52.2965C41.5937 52.296 41.5474 52.2489 41.5479 52.1913Z" fill="#F4D8A0"/>
<path d="M56.4059 51.7054L60.1348 49.1641" stroke="#F4D8A0" stroke-width="0.146127" stroke-miterlimit="10"/>
<path d="M56.4634 51.7902C56.4158 51.8226 56.3509 51.8102 56.3185 51.7626C56.2861 51.7149 56.2984 51.6501 56.3461 51.6177C56.3937 51.5853 56.4586 51.5976 56.491 51.6453C56.5234 51.6929 56.511 51.7578 56.4634 51.7902Z" fill="#F4D8A0"/>
<path d="M45.4619 48.9575H45.4489" stroke="#F4D8A0" stroke-width="0.146127" stroke-miterlimit="10"/>
<path d="M45.4559 49.0655C45.5135 49.0655 45.5602 49.0188 45.5602 48.9612C45.5602 48.9036 45.5135 48.8569 45.4559 48.8569C45.3983 48.8569 45.3516 48.9036 45.3516 48.9612C45.3516 49.0188 45.3983 49.0655 45.4559 49.0655Z" fill="#F4D8A0"/>
<path d="M50.1116 48.5391H50.0985" stroke="#F4D8A0" stroke-width="0.146127" stroke-miterlimit="10"/>
<path d="M50.1169 48.6422C50.1745 48.6422 50.2212 48.5955 50.2212 48.5379C50.2212 48.4803 50.1745 48.4336 50.1169 48.4336C50.0593 48.4336 50.0126 48.4803 50.0126 48.5379C50.0126 48.5955 50.0593 48.6422 50.1169 48.6422Z" fill="#F4D8A0"/>
<path d="M41.6533 52.1841L45.4717 48.9551" stroke="#F4D8A0" stroke-width="0.146127" stroke-miterlimit="10"/>
<path d="M41.7194 52.2621C41.6754 52.2993 41.6096 52.2937 41.5724 52.2497C41.5353 52.2057 41.5409 52.1399 41.5849 52.1027C41.6289 52.0656 41.6947 52.0711 41.7319 52.1152C41.769 52.1592 41.7634 52.225 41.7194 52.2621Z" fill="#F4D8A0"/>
<path d="M56.3998 51.7089L50.1055 48.5396" stroke="#F4D8A0" stroke-width="0.146127" stroke-miterlimit="10"/>
<path d="M56.4441 51.6161C56.4956 51.642 56.5164 51.7047 56.4905 51.7561C56.4646 51.8076 56.4019 51.8284 56.3505 51.8025C56.299 51.7767 56.2782 51.714 56.3041 51.6625C56.3299 51.611 56.3927 51.5902 56.4441 51.6161Z" fill="#F4D8A0"/>
<path d="M45.4608 48.9513L50.0886 48.5337" stroke="#F4D8A0" stroke-width="0.146127" stroke-miterlimit="10"/>
<path d="M45.4692 49.0578C45.4118 49.063 45.3611 49.0207 45.3559 48.9633C45.3507 48.9059 45.393 48.8552 45.4504 48.85C45.5078 48.8449 45.5585 48.8872 45.5637 48.9445C45.5688 49.0019 45.5265 49.0526 45.4692 49.0578Z" fill="#F4D8A0"/>
<path d="M56.3995 51.7094L54.5202 46.5967" stroke="#F4D8A0" stroke-width="0.146127" stroke-miterlimit="10"/>
<path d="M56.4966 51.6684C56.5166 51.7224 56.4889 51.7824 56.4348 51.8023C56.3808 51.8222 56.3208 51.7945 56.3009 51.7405C56.281 51.6864 56.3087 51.6265 56.3627 51.6066C56.4168 51.5866 56.4767 51.6143 56.4966 51.6684Z" fill="#F4D8A0"/>
<path d="M54.5205 46.5938L56.9368 39.2388" stroke="#F4D8A0" stroke-width="0.146127" stroke-miterlimit="10"/>
<path d="M54.6175 46.6277C54.5995 46.6824 54.5405 46.7121 54.4858 46.6941C54.4311 46.6761 54.4013 46.6171 54.4193 46.5624C54.4373 46.5077 54.4963 46.478 54.551 46.496C54.6057 46.514 54.6355 46.573 54.6175 46.6277Z" fill="#F4D8A0"/>
<path d="M41.6246 52.1813L35.5391 48.5337" stroke="#F4D8A0" stroke-width="0.146127" stroke-miterlimit="10"/>
<path d="M41.6814 52.0929C41.7308 52.1225 41.747 52.1865 41.7174 52.236C41.6878 52.2854 41.6238 52.3015 41.5743 52.272C41.5249 52.2424 41.5088 52.1783 41.5384 52.1289C41.5679 52.0795 41.632 52.0634 41.6814 52.0929Z" fill="#F4D8A0"/>
<path d="M41.6533 52.1922V46.2124" stroke="#F4D8A0" stroke-width="0.146127" stroke-miterlimit="10"/>
<path d="M41.7565 52.1917C41.7565 52.2493 41.7098 52.296 41.6522 52.296C41.5946 52.296 41.5479 52.2493 41.5479 52.1917C41.5479 52.1341 41.5946 52.0874 41.6522 52.0874C41.7098 52.0874 41.7565 52.1341 41.7565 52.1917Z" fill="#F4D8A0"/>
<path d="M41.6324 46.205L41.0358 38.6406" stroke="#F4D8A0" stroke-width="0.146127" stroke-miterlimit="10"/>
<path d="M41.7354 46.1981C41.7399 46.2556 41.6971 46.3058 41.6396 46.3103C41.5822 46.3149 41.532 46.272 41.5274 46.2146C41.5229 46.1572 41.5658 46.1069 41.6232 46.1024C41.6806 46.0978 41.7309 46.1407 41.7354 46.1981Z" fill="#F4D8A0"/>
</g>
<g filter="url(#filter1_d)">
<circle cx="48.1814" cy="55.9459" r="9.89711" stroke="#E3B04B"/>
</g>
<g filter="url(#filter2_d)">
<path fill-rule="evenodd" clip-rule="evenodd" d="M52.8602 59.0701C52.8602 60.6441 51.5827 61.9245 50.0122 61.9245H49.0629V62.876C49.0629 63.4019 48.6383 63.8275 48.1136 63.8275C47.5889 63.8275 47.1643 63.4019 47.1643 62.876V61.9245H44.3164C43.7917 61.9245 43.3671 61.4989 43.3671 60.973C43.3671 60.4471 43.7917 60.0216 44.3164 60.0216H45.2657V54.3127H44.3164C43.7917 54.3127 43.3671 53.8872 43.3671 53.3613C43.3671 52.8353 43.7917 52.4098 44.3164 52.4098H47.1643V51.4583C47.1643 50.9324 47.5889 50.5068 48.1136 50.5068C48.6383 50.5068 49.0629 50.9324 49.0629 51.4583V52.4098H50.0122C51.5827 52.4098 52.8602 53.6902 52.8602 55.2642C52.8602 55.9979 52.5749 56.661 52.1195 57.1671C52.5749 57.6733 52.8602 58.3364 52.8602 59.0701ZM47.1643 56.1871V54.3127H50.1072C50.4748 54.3127 50.9299 54.6901 50.9299 55.2642C50.9299 55.8383 50.4361 56.1871 50.1072 56.1871H47.1643ZM47.1643 60.0216V58.1472H50.1072C50.4748 58.1472 50.9299 58.5246 50.9299 59.0986C50.9299 59.6727 50.4361 60.0216 50.1072 60.0216H47.1643Z" stroke="#E3B04B" stroke-width="0.292254"/>
</g>
</g>
<defs>
<filter id="filter0_d" x="0.97711" y="0.930724" width="68.0295" height="67.6935" filterUnits="userSpaceOnUse" color-interpolation-filters="sRGB">
<feFlood flood-opacity="0" result="BackgroundImageFix"/>
<feColorMatrix in="SourceAlpha" type="matrix" values="0 0 0 0 0 0 0 0 0 0 0 0 0 0 0 0 0 0 127 0"/>
<feOffset/>
<feGaussianBlur stdDeviation="0.511445"/>
<feColorMatrix type="matrix" values="0 0 0 0 0.970833 0 0 0 0 0.813392 0 0 0 0 0.501597 0 0 0 0.74 0"/>
<feBlend mode="normal" in2="BackgroundImageFix" result="effect1_dropShadow"/>
<feBlend mode="normal" in="SourceGraphic" in2="effect1_dropShadow" result="shape"/>
</filter>
<filter id="filter1_d" x="36.7614" y="44.5259" width="22.84" height="22.84" filterUnits="userSpaceOnUse" color-interpolation-filters="sRGB">
<feFlood flood-opacity="0" result="BackgroundImageFix"/>
<feColorMatrix in="SourceAlpha" type="matrix" values="0 0 0 0 0 0 0 0 0 0 0 0 0 0 0 0 0 0 127 0"/>
<feOffset/>
<feGaussianBlur stdDeviation="0.511445"/>
<feColorMatrix type="matrix" values="0 0 0 0 0.970833 0 0 0 0 0.813392 0 0 0 0 0.501597 0 0 0 0.74 0"/>
<feBlend mode="normal" in2="BackgroundImageFix" result="effect1_dropShadow"/>
<feBlend mode="normal" in="SourceGraphic" in2="effect1_dropShadow" result="shape"/>
</filter>
<filter id="filter2_d" x="42.1981" y="49.338" width="11.8311" height="15.6587" filterUnits="userSpaceOnUse" color-interpolation-filters="sRGB">
<feFlood flood-opacity="0" result="BackgroundImageFix"/>
<feColorMatrix in="SourceAlpha" type="matrix" values="0 0 0 0 0 0 0 0 0 0 0 0 0 0 0 0 0 0 127 0"/>
<feOffset/>
<feGaussianBlur stdDeviation="0.511445"/>
<feColorMatrix type="matrix" values="0 0 0 0 0.970833 0 0 0 0 0.813392 0 0 0 0 0.501597 0 0 0 0.74 0"/>
<feBlend mode="normal" in2="BackgroundImageFix" result="effect1_dropShadow"/>
<feBlend mode="normal" in="SourceGraphic" in2="effect1_dropShadow" result="shape"/>
</filter>
</defs>
</svg>
