<svg width="69" height="69" viewBox="0 0 69 69" fill="none" xmlns="http://www.w3.org/2000/svg">
<g filter="url(#filter0_d)">
<path d="M34.5002 12.6337C35.2608 12.6337 35.8831 12.0099 35.8831 11.2475V3.33973C35.8831 2.57737 35.2608 1.95361 34.5002 1.95361C33.7395 1.95361 33.1172 2.57737 33.1172 3.33973V11.2462C33.1172 12.0085 33.7395 12.6337 34.5002 12.6337Z" fill="#E3B04B"/>
<path d="M34.5002 56.4209C33.7395 56.4209 33.1172 57.0447 33.1172 57.807V65.7148C33.1172 66.4772 33.7395 67.101 34.5002 67.101C35.2608 67.101 35.8831 66.4772 35.8831 65.7148V57.8084C35.8831 57.046 35.2608 56.4209 34.5002 56.4209Z" fill="#E3B04B"/>
<path d="M13.4769 11.4967C12.9389 10.9575 12.0594 10.9575 11.5214 11.4967C10.9834 12.0359 10.9834 12.9175 11.5214 13.4567L17.0989 19.0455C17.6369 19.5847 18.5165 19.5847 19.0545 19.0469C19.591 18.5077 19.591 17.6261 19.0531 17.0869L13.4769 11.4967Z" fill="#E3B04B"/>
<path d="M51.9039 50.0125C51.366 49.4733 50.4864 49.4733 49.9484 50.0111C49.4118 50.5517 49.4118 51.4305 49.9498 51.9711L55.5259 57.5613C56.0639 58.1005 56.9435 58.1005 57.4815 57.5613C58.0194 57.0207 58.0194 56.1405 57.4815 55.6013L51.9039 50.0125Z" fill="#E3B04B"/>
<path d="M12.6558 34.5287C12.6558 33.7663 12.0335 33.1426 11.2728 33.1426H3.38298C2.62234 33.1426 2 33.7663 2 34.5287C2 35.2911 2.62234 35.9148 3.38298 35.9148H11.2728C12.0335 35.9148 12.6558 35.2911 12.6558 34.5287Z" fill="#E3B04B"/>
<path d="M65.6201 33.1426H57.7303C56.9696 33.1426 56.3473 33.7663 56.3473 34.5287C56.3473 35.2911 56.9696 35.9148 57.7303 35.9148H65.6201C66.3808 35.9148 67.0031 35.2911 67.0031 34.5287C67.0031 33.7663 66.3808 33.1426 65.6201 33.1426Z" fill="#E3B04B"/>
<path d="M17.0989 50.0114L11.5214 55.6003C10.9834 56.1395 10.9834 57.0196 11.5214 57.5602C12.0594 58.0994 12.9389 58.0994 13.4769 57.5602L19.0531 51.97C19.591 51.4294 19.591 50.5506 19.0545 50.0101C18.5165 49.4736 17.6369 49.4736 17.0989 50.0114Z" fill="#E3B04B"/>
<path d="M51.8979 19.0445L57.4782 13.4557C58.0162 12.9165 58.0162 12.0349 57.4782 11.4957C56.9403 10.9565 56.0607 10.9565 55.5227 11.4957L49.9438 17.0859C49.4044 17.6251 49.4044 18.5067 49.9424 19.0459C50.4804 19.5823 51.3599 19.5823 51.8979 19.0445Z" fill="#E3B04B"/>
<mask id="mask0" mask-type="alpha" maskUnits="userSpaceOnUse" x="25" y="19" width="19" height="31">
<path d="M39.3102 44.966C38.6805 45.2815 38.0203 45.5299 37.3448 45.718V46.5232C37.3448 48.1325 36.0431 49.4371 34.4375 49.4371C32.8319 49.4371 31.5302 48.1325 31.5302 46.5232V45.8091C30.3199 45.5037 29.1913 44.9903 28.2352 44.2717C26.9507 43.3062 26.6902 41.4797 27.6537 40.1922C28.6172 38.905 30.4395 38.6437 31.724 39.6094C32.8869 40.4836 35.1236 40.5484 36.7097 39.7535C37.3472 39.434 37.6912 39.0493 37.6912 38.8498C37.6912 38.5011 37.6912 38.4473 37.3043 38.2404C36.5457 37.8346 35.2045 37.5852 33.9072 37.3441L33.9064 37.3439C32.1749 37.0219 30.3844 36.6889 28.8329 35.8589C26.567 34.6467 25.3691 32.6581 25.3691 30.108C25.3691 27.555 26.8967 25.3252 29.56 23.9907C30.1912 23.6742 30.853 23.4238 31.5302 23.2356V22.4346C31.5302 20.8253 32.8319 19.5207 34.4375 19.5207C36.0431 19.5207 37.3448 20.8253 37.3448 22.4346V23.1481C38.5553 23.4537 39.6837 23.9675 40.6398 24.6861C41.9245 25.6518 42.1848 27.4783 41.2213 28.7656C40.2578 30.053 38.4359 30.3141 37.151 29.3484C35.9863 28.4729 33.7477 28.408 32.1603 29.2031C31.5191 29.5244 31.1838 29.9015 31.1838 30.1078C31.1838 30.4567 31.1838 30.5103 31.5707 30.7174C32.3293 31.1232 33.6707 31.3726 34.9678 31.6137L34.9686 31.6139C36.7002 31.9359 38.4906 32.2689 40.0423 33.0989C42.3081 34.3111 43.5059 36.2997 43.5059 38.8498C43.5061 41.4003 41.9766 43.6296 39.3102 44.966Z" fill="black"/>
</mask>
<g mask="url(#mask0)">
<path d="M30.7122 37.4856L30.6997 37.4639" stroke="#F4D8A0" stroke-width="0.146127" stroke-miterlimit="10"/>
<path d="M30.8896 37.3835C30.9465 37.4822 30.9127 37.6084 30.814 37.6654C30.7153 37.7224 30.5891 37.6886 30.5321 37.5899C30.4751 37.4912 30.5089 37.3649 30.6076 37.308C30.7063 37.251 30.8326 37.2848 30.8896 37.3835Z" fill="#F4D8A0"/>
<path d="M46.3072 55.5097L30.6909 37.4878" stroke="#F4D8A0" stroke-width="0.146127" stroke-miterlimit="10"/>
<path d="M51.1349 19.0864L39.4734 33.6179" stroke="#F4D8A0" stroke-width="0.146127" stroke-miterlimit="10"/>
<path d="M39.4821 33.6191L39.4651 33.6487L50.5534 38.6849" stroke="#F4D8A0" stroke-width="0.146127" stroke-miterlimit="10"/>
<path d="M39.3053 33.5114C39.3623 33.4127 39.4885 33.3789 39.5872 33.4359C39.6859 33.4929 39.7197 33.6191 39.6627 33.7178C39.6058 33.8165 39.4795 33.8503 39.3808 33.7934C39.2821 33.7364 39.2483 33.6101 39.3053 33.5114Z" fill="#F4D8A0"/>
<path d="M30.6804 37.468L30.6929 37.4463" stroke="#F4D8A0" stroke-width="0.146127" stroke-miterlimit="10"/>
<path d="M30.8544 37.5723C30.7974 37.671 30.6712 37.7048 30.5725 37.6479C30.4738 37.5909 30.4399 37.4646 30.4969 37.3659C30.5539 37.2672 30.6802 37.2334 30.7789 37.2904C30.8776 37.3474 30.9114 37.4736 30.8544 37.5723Z" fill="#F4D8A0"/>
<path d="M39.4011 33.6147L39.4182 33.6443L30.6909 37.4381" stroke="#F4D8A0" stroke-width="0.146127" stroke-miterlimit="10"/>
<path d="M39.2221 33.7183C39.1652 33.6196 39.199 33.4934 39.2977 33.4364C39.3964 33.3794 39.5226 33.4132 39.5796 33.5119C39.6366 33.6106 39.6028 33.7369 39.5041 33.7938C39.4054 33.8508 39.2791 33.817 39.2221 33.7183Z" fill="#F4D8A0"/>
<path d="M39.4135 33.6205L28.0471 16.0127" stroke="#F4D8A0" stroke-width="0.146127" stroke-miterlimit="10"/>
<path d="M39.5827 33.5044C39.6446 33.6001 39.6172 33.7279 39.5215 33.7899C39.4258 33.8518 39.298 33.8244 39.2361 33.7287C39.1742 33.633 39.2016 33.5052 39.2973 33.4433C39.393 33.3814 39.5208 33.4088 39.5827 33.5044Z" fill="#F4D8A0"/>
<path d="M30.192 55.5057L21.5154 38.312" stroke="#F4D8A0" stroke-width="0.146127" stroke-miterlimit="10"/>
<path d="M30.6921 37.446L23.238 26.7305" stroke="#F4D8A0" stroke-width="0.146127" stroke-miterlimit="10"/>
<path d="M30.8598 37.331C30.925 37.4245 30.9021 37.5532 30.8086 37.6184C30.7151 37.6836 30.5864 37.6606 30.5212 37.5671C30.456 37.4736 30.479 37.345 30.5725 37.2798C30.666 37.2146 30.7947 37.2375 30.8598 37.331Z" fill="#F4D8A0"/>
<path d="M30.7113 37.466L30.6987 37.4443" stroke="#F4D8A0" stroke-width="0.146127" stroke-miterlimit="10"/>
<path d="M30.9009 37.3637C30.958 37.4623 30.9244 37.5886 30.8258 37.6457C30.7271 37.7029 30.6008 37.6692 30.5437 37.5706C30.4866 37.472 30.5202 37.3457 30.6188 37.2886C30.7174 37.2314 30.8437 37.2651 30.9009 37.3637Z" fill="#F4D8A0"/>
<path d="M30.7113 37.4663L30.6987 37.488" stroke="#F4D8A0" stroke-width="0.146127" stroke-miterlimit="10"/>
<path d="M30.5437 37.3637C30.6008 37.2651 30.7271 37.2314 30.8258 37.2886C30.9244 37.3457 30.958 37.472 30.9009 37.5706C30.8437 37.6692 30.7174 37.7029 30.6188 37.6457C30.5202 37.5886 30.4866 37.4623 30.5437 37.3637Z" fill="#F4D8A0"/>
<path d="M30.2201 55.5151L30.692 37.4932" stroke="#F4D8A0" stroke-width="0.146127" stroke-miterlimit="10"/>
<path d="M28.0389 16.0103L23.2581 26.6963" stroke="#F4D8A0" stroke-width="0.146127" stroke-miterlimit="10"/>
<path d="M39.4454 33.625H39.4842" stroke="#F4D8A0" stroke-width="0.146127" stroke-miterlimit="10"/>
<path d="M39.4488 33.8268C39.5628 33.8268 39.6552 33.7344 39.6552 33.6205C39.6552 33.5065 39.5628 33.4141 39.4488 33.4141C39.3348 33.4141 39.2424 33.5065 39.2424 33.6205C39.2424 33.7344 39.3348 33.8268 39.4488 33.8268Z" fill="#F4D8A0"/>
<path d="M39.4895 33.6185L51.5638 27.1108" stroke="#F4D8A0" stroke-width="0.146127" stroke-miterlimit="10"/>
<path d="M39.5818 33.8008C39.4814 33.8548 39.3562 33.8172 39.3022 33.7168C39.2483 33.6164 39.2859 33.4912 39.3863 33.4372C39.4866 33.3833 39.6118 33.4209 39.6658 33.5213C39.7198 33.6217 39.6821 33.7468 39.5818 33.8008Z" fill="#F4D8A0"/>
<path d="M39.4492 33.625H39.4104" stroke="#F4D8A0" stroke-width="0.146127" stroke-miterlimit="10"/>
<path d="M39.4488 33.8268C39.5628 33.8268 39.6552 33.7344 39.6552 33.6205C39.6552 33.5065 39.5628 33.4141 39.4488 33.4141C39.3348 33.4141 39.2424 33.5065 39.2424 33.6205C39.2424 33.7344 39.3348 33.8268 39.4488 33.8268Z" fill="#F4D8A0"/>
<path d="M39.4094 33.6171L23.2622 26.6953" stroke="#F4D8A0" stroke-width="0.146127" stroke-miterlimit="10"/>
<path d="M39.4951 33.4244C39.5999 33.4692 39.6485 33.5905 39.6037 33.6953C39.5589 33.8001 39.4376 33.8487 39.3328 33.8039C39.228 33.7591 39.1794 33.6378 39.2242 33.533C39.269 33.4282 39.3903 33.3796 39.4951 33.4244Z" fill="#F4D8A0"/>
<path d="M43.1567 43.7314L46.3442 55.5044" stroke="#F4D8A0" stroke-width="0.146127" stroke-miterlimit="10"/>
<path d="M42.9523 43.7898C42.9225 43.6798 42.9875 43.5664 43.0975 43.5365C43.2075 43.5067 43.3209 43.5717 43.3507 43.6817C43.3805 43.7917 43.3156 43.9051 43.2056 43.9349C43.0956 43.9648 42.9822 43.8998 42.9523 43.7898Z" fill="#F4D8A0"/>
<path d="M43.1567 43.7425L50.535 38.7139" stroke="#F4D8A0" stroke-width="0.146127" stroke-miterlimit="10"/>
<path d="M43.2675 43.9161C43.1733 43.9802 43.0449 43.9558 42.9808 43.8615C42.9167 43.7673 42.9412 43.6389 43.0354 43.5748C43.1297 43.5107 43.2581 43.5352 43.3221 43.6294C43.3862 43.7237 43.3618 43.8521 43.2675 43.9161Z" fill="#F4D8A0"/>
<path d="M30.7175 37.4658H30.6917" stroke="#F4D8A0" stroke-width="0.146127" stroke-miterlimit="10"/>
<path d="M30.7223 37.6735C30.8362 37.6735 30.9287 37.5811 30.9287 37.4671C30.9287 37.3531 30.8362 37.2607 30.7223 37.2607C30.6083 37.2607 30.5159 37.3531 30.5159 37.4671C30.5159 37.5811 30.6083 37.6735 30.7223 37.6735Z" fill="#F4D8A0"/>
<path d="M43.1619 43.7412L30.7073 37.4702" stroke="#F4D8A0" stroke-width="0.146127" stroke-miterlimit="10"/>
<path d="M43.2446 43.5625C43.3465 43.6137 43.3876 43.7378 43.3364 43.8396C43.2852 43.9414 43.1612 43.9825 43.0593 43.9314C42.9575 43.8802 42.9164 43.7561 42.9676 43.6543C43.0187 43.5525 43.1428 43.5114 43.2446 43.5625Z" fill="#F4D8A0"/>
<path d="M21.5267 38.2961L30.6839 37.4697" stroke="#F4D8A0" stroke-width="0.146127" stroke-miterlimit="10"/>
<path d="M43.1682 43.7395L39.4495 33.623" stroke="#F4D8A0" stroke-width="0.146127" stroke-miterlimit="10"/>
<path d="M43.3613 43.6654C43.4007 43.7723 43.3459 43.891 43.239 43.9304C43.132 43.9698 43.0134 43.915 42.974 43.8081C42.9346 43.7011 42.9893 43.5825 43.0963 43.5431C43.2032 43.5036 43.3219 43.5584 43.3613 43.6654Z" fill="#F4D8A0"/>
<path d="M39.4454 33.619L44.2266 19.0654" stroke="#F4D8A0" stroke-width="0.146127" stroke-miterlimit="10"/>
<path d="M39.6449 33.686C39.6093 33.7943 39.4926 33.8532 39.3843 33.8175C39.2761 33.7819 39.2172 33.6652 39.2528 33.5569C39.2885 33.4487 39.4052 33.3898 39.5134 33.4254C39.6217 33.4611 39.6806 33.5778 39.6449 33.686Z" fill="#F4D8A0"/>
</g>
<path d="M39.3 44.9614C38.6703 45.2769 38.0101 45.5253 37.3346 45.7134V46.5186C37.3346 48.1279 36.0329 49.4325 34.4273 49.4325C32.8216 49.4325 31.5199 48.1279 31.5199 46.5186V45.8045C30.3097 45.4991 29.1811 44.9857 28.2249 44.2671C26.9405 43.3016 26.68 41.4751 27.6435 40.1876C28.607 38.9004 30.4293 38.6391 31.7138 39.6048C32.8767 40.479 35.1134 40.5439 36.6995 39.7489C37.3369 39.4294 37.681 39.0447 37.681 38.8452C37.681 38.4965 37.681 38.4427 37.2941 38.2358C36.5355 37.83 35.1942 37.5806 33.897 37.3395C32.1652 37.0174 30.3744 36.6844 28.8227 35.8544C26.5567 34.6422 25.3589 32.6535 25.3589 30.1034C25.3589 27.5504 26.8864 25.3207 29.5497 23.9861C30.181 23.6696 30.8427 23.4192 31.5199 23.231V22.43C31.5199 20.8208 32.8216 19.5161 34.4273 19.5161C36.0329 19.5161 37.3346 20.8208 37.3346 22.43V23.1436C38.545 23.4491 39.6735 23.963 40.6296 24.6815C41.9143 25.6472 42.1746 27.4737 41.2111 28.7611C40.2476 30.0484 38.4256 30.3095 37.1408 29.3438C35.9761 28.4683 33.7375 28.4034 32.1501 29.1985C31.5089 29.5198 31.1736 29.8969 31.1736 30.1032C31.1736 30.4521 31.1736 30.5057 31.5604 30.7128C32.3191 31.1186 33.6605 31.3681 34.9576 31.6091C36.6894 31.9312 38.4801 32.2642 40.0321 33.0943C42.2978 34.3065 43.4957 36.2951 43.4957 38.8452C43.4959 41.3957 41.9664 43.6251 39.3 44.9614Z" stroke="#E3B04B"/>
</g>
<defs>
<filter id="filter0_d" x="0.97711" y="0.930724" width="67.0489" height="67.1931" filterUnits="userSpaceOnUse" color-interpolation-filters="sRGB">
<feFlood flood-opacity="0" result="BackgroundImageFix"/>
<feColorMatrix in="SourceAlpha" type="matrix" values="0 0 0 0 0 0 0 0 0 0 0 0 0 0 0 0 0 0 127 0"/>
<feOffset/>
<feGaussianBlur stdDeviation="0.511445"/>
<feColorMatrix type="matrix" values="0 0 0 0 0.970833 0 0 0 0 0.813392 0 0 0 0 0.501597 0 0 0 0.74 0"/>
<feBlend mode="normal" in2="BackgroundImageFix" result="effect1_dropShadow"/>
<feBlend mode="normal" in="SourceGraphic" in2="effect1_dropShadow" result="shape"/>
</filter>
</defs>
</svg>
