<svg width="70" height="63" viewBox="0 0 70 63" fill="none" xmlns="http://www.w3.org/2000/svg">
<g filter="url(#filter0_d)">
<path d="M56.2327 2.53444L56.2332 2.53486L66.8693 12.238C67.2693 12.6029 67.4837 13.0871 67.4837 13.5811C67.4837 14.075 67.2693 14.5593 66.8693 14.9242L57.3333 23.6236C56.9917 23.9345 56.5205 24.1164 56.0203 24.1164C54.9645 24.1164 54.1879 23.345 54.1879 22.4886C54.1879 22.072 54.3693 21.662 54.7078 21.3532L60.6229 15.9569L61.5759 15.0875H60.286H48.1895C44.9213 15.0875 42.1911 17.5153 42.1911 20.6036V41.5677C40.9079 42.2054 39.7587 43.0408 38.7924 44.0323V20.6036C38.7924 15.9349 42.9549 12.0746 48.1895 12.0746H60.286H61.5759L60.6229 11.2053L53.6086 4.80616C53.6085 4.80607 53.6084 4.80598 53.6083 4.80589C53.2692 4.49568 53.0882 4.08644 53.0882 3.6703C53.0882 2.81389 53.8649 2.04248 54.9206 2.04248C55.4217 2.04248 55.8933 2.22398 56.2327 2.53444Z" stroke="#E3B04B"/>
<path d="M9.36077 11.2053L8.40779 12.0746H9.69775H21.7942C27.0288 12.0746 31.1913 15.935 31.1913 20.6036V44.0324C30.225 43.0408 29.0758 42.2054 27.7926 41.5677V20.6036C27.7926 17.5153 25.0624 15.0875 21.7942 15.0875H9.69775H8.40779L9.36077 15.9569L15.2755 21.3528C15.6147 21.663 15.7958 22.0724 15.7958 22.4886C15.7958 23.345 15.0192 24.1164 13.9634 24.1164C13.4627 24.1164 12.9919 23.9352 12.6509 23.6241L3.11445 14.9242C2.71446 14.5593 2.5 14.075 2.5 13.5811C2.5 13.0871 2.71446 12.6029 3.11445 12.238L13.7505 2.53486C14.0916 2.22376 14.5624 2.04248 15.0631 2.04248C16.1189 2.04248 16.8955 2.81389 16.8955 3.6703C16.8955 4.08647 16.7145 4.49576 16.3754 4.80597C16.3753 4.80604 16.3752 4.8061 16.3752 4.80616L9.36077 11.2053Z" stroke="#E3B04B"/>
<mask id="mask0" mask-type="alpha" maskUnits="userSpaceOnUse" x="11" y="42" width="21" height="19">
<path d="M21.7922 42.7837C16.3261 42.7837 11.8951 46.826 11.8951 51.8126C11.8951 56.7991 16.3261 60.8416 21.7922 60.8416C27.2583 60.8416 31.6893 56.7991 31.6893 51.8126C31.6893 46.826 27.2583 42.7837 21.7922 42.7837ZM23.8655 55.8746C23.5975 55.9968 23.3166 56.093 23.0292 56.1659V56.4777C23.0292 57.101 22.4753 57.6064 21.792 57.6064C21.1088 57.6064 20.5549 57.101 20.5549 56.4777V56.2011C20.0399 56.0829 19.5596 55.884 19.1528 55.6057C18.6062 55.2317 18.4954 54.5243 18.9054 54.0256C19.3154 53.5271 20.0908 53.4259 20.6374 53.7999C21.1322 54.1385 22.084 54.1636 22.7589 53.8557C23.0302 53.732 23.1765 53.583 23.1765 53.5057C23.1765 53.3707 23.1765 53.3498 23.0119 53.2697C22.6891 53.1125 22.1184 53.0159 21.5664 52.9225C20.8294 52.7978 20.0675 52.6688 19.4072 52.3473C18.4429 51.8778 17.9332 51.1075 17.9332 50.1199C17.9332 49.131 18.5832 48.2674 19.7165 47.7505C19.9851 47.6279 20.2667 47.531 20.5549 47.458V47.1478C20.5549 46.5245 21.1088 46.0192 21.792 46.0192C22.4753 46.0192 23.0292 46.5245 23.0292 47.1478V47.4242C23.5442 47.5425 24.0244 47.7416 24.4313 48.0199C24.9779 48.3939 25.0887 49.1013 24.6787 49.5999C24.2687 50.0986 23.4934 50.1997 22.9467 49.8257C22.4511 49.4866 21.4985 49.4614 20.823 49.7694C20.5502 49.8938 20.4075 50.0399 20.4075 50.1198C20.4075 50.2549 20.4075 50.2757 20.5721 50.3559C20.8949 50.5131 21.4658 50.6097 22.0177 50.7031C22.7546 50.8278 23.5166 50.9568 24.177 51.2783C25.1411 51.7478 25.6508 52.518 25.6508 53.5057C25.6509 54.4936 25.0001 55.357 23.8655 55.8746Z" fill="black"/>
</mask>
<g mask="url(#mask0)">
<path d="M26.8831 59.9565L28.6554 53.4575" stroke="#F4D8A0" stroke-width="0.146127" stroke-miterlimit="10"/>
<path d="M26.9702 59.9774C26.9585 60.0203 26.9108 60.0465 26.8638 60.0358C26.8167 60.0251 26.788 59.9817 26.7997 59.9387C26.8114 59.8958 26.8591 59.8696 26.9062 59.8803C26.9532 59.891 26.9819 59.9345 26.9702 59.9774Z" fill="#F4D8A0"/>
<path d="M26.8786 59.9575L26.8713 59.969L29.4045 63.7985" stroke="#F4D8A0" stroke-width="0.146127" stroke-miterlimit="10"/>
<path d="M26.805 59.9175C26.8292 59.8792 26.883 59.8661 26.925 59.8882C26.967 59.9103 26.9814 59.9593 26.9571 59.9976C26.9329 60.036 26.8791 60.0491 26.8371 60.027C26.7951 60.0048 26.7807 59.9558 26.805 59.9175Z" fill="#F4D8A0"/>
<path d="M28.6491 53.4497L28.6436 53.4592" stroke="#F4D8A0" stroke-width="0.146127" stroke-miterlimit="10"/>
<path d="M28.5662 53.4102C28.5904 53.3719 28.6441 53.3587 28.6861 53.3809C28.7281 53.403 28.7425 53.452 28.7183 53.4903C28.694 53.5286 28.6403 53.5418 28.5983 53.5196C28.5563 53.4975 28.5419 53.4485 28.5662 53.4102Z" fill="#F4D8A0"/>
<path d="M20.1971 52.9792L20.1917 52.9697" stroke="#F4D8A0" stroke-width="0.146127" stroke-miterlimit="10"/>
<path d="M20.2657 52.9366C20.2899 52.9749 20.2756 53.0239 20.2336 53.046C20.1916 53.0681 20.1378 53.055 20.1136 53.0167C20.0893 52.9784 20.1037 52.9294 20.1457 52.9072C20.1877 52.8851 20.2415 52.8982 20.2657 52.9366Z" fill="#F4D8A0"/>
<path d="M16.2909 53.2915L16.2854 53.301" stroke="#F4D8A0" stroke-width="0.146127" stroke-miterlimit="10"/>
<path d="M16.2112 53.252C16.2355 53.2137 16.2892 53.2005 16.3312 53.2227C16.3732 53.2448 16.3876 53.2938 16.3634 53.3321C16.3391 53.3704 16.2854 53.3836 16.2434 53.3614C16.2014 53.3393 16.187 53.2903 16.2112 53.252Z" fill="#F4D8A0"/>
<path d="M13.0588 58.559L16.288 53.2974" stroke="#F4D8A0" stroke-width="0.146127" stroke-miterlimit="10"/>
<path d="M13.1374 58.6002C13.1137 58.6388 13.0601 58.6526 13.0178 58.631C12.9755 58.6094 12.9604 58.5606 12.9841 58.5219C13.0078 58.4833 13.0613 58.4696 13.1036 58.4912C13.146 58.5128 13.1611 58.5616 13.1374 58.6002Z" fill="#F4D8A0"/>
<path d="M26.8374 59.957L26.8446 59.9685L20.7197 62.0336" stroke="#F4D8A0" stroke-width="0.146127" stroke-miterlimit="10"/>
<path d="M26.7588 59.9971C26.7346 59.9588 26.749 59.9098 26.791 59.8877C26.833 59.8656 26.8867 59.8787 26.911 59.917C26.9352 59.9553 26.9208 60.0043 26.8788 60.0265C26.8368 60.0486 26.7831 60.0355 26.7588 59.9971Z" fill="#F4D8A0"/>
<path d="M26.8415 59.9572L20.1964 52.9771" stroke="#F4D8A0" stroke-width="0.146127" stroke-miterlimit="10"/>
<path d="M26.9135 59.905C26.9453 59.9384 26.9414 59.989 26.9047 60.0181C26.8681 60.0471 26.8127 60.0435 26.7809 60.0101C26.7491 59.9767 26.753 59.9261 26.7896 59.8971C26.8262 59.8681 26.8817 59.8716 26.9135 59.905Z" fill="#F4D8A0"/>
<path d="M13.0583 58.5605L13.051 58.572L16.8903 65.2429" stroke="#F4D8A0" stroke-width="0.146127" stroke-miterlimit="10"/>
<path d="M12.9847 58.5205C13.0089 58.4822 13.0627 58.4691 13.1047 58.4912C13.1467 58.5133 13.161 58.5623 13.1368 58.6007C13.1125 58.639 13.0588 58.6521 13.0168 58.63C12.9748 58.6079 12.9604 58.5589 12.9847 58.5205Z" fill="#F4D8A0"/>
<path d="M13.0217 58.559L7.93384 52.9766" stroke="#F4D8A0" stroke-width="0.146127" stroke-miterlimit="10"/>
<path d="M13.0821 58.505C13.1131 58.539 13.108 58.5895 13.0707 58.6178C13.0334 58.6461 12.9781 58.6414 12.947 58.6074C12.916 58.5734 12.9211 58.5229 12.9584 58.4946C12.9957 58.4663 13.0511 58.4709 13.0821 58.505Z" fill="#F4D8A0"/>
<path d="M9.52332 62.6048L13.036 58.5691L13.0288 58.5576" stroke="#F4D8A0" stroke-width="0.146127" stroke-miterlimit="10"/>
<path d="M28.8923 45.8335L28.8868 45.843" stroke="#F4D8A0" stroke-width="0.146127" stroke-miterlimit="10"/>
<path d="M28.8089 45.793C28.8332 45.7547 28.8869 45.7416 28.9289 45.7637C28.9709 45.7858 28.9853 45.8348 28.961 45.8731C28.9368 45.9114 28.883 45.9246 28.841 45.9024C28.799 45.8803 28.7846 45.8313 28.8089 45.793Z" fill="#F4D8A0"/>
<path d="M31.2476 45.6658L31.2421 45.6562" stroke="#F4D8A0" stroke-width="0.146127" stroke-miterlimit="10"/>
<path d="M31.3165 45.6241C31.3407 45.6624 31.3263 45.7114 31.2843 45.7335C31.2423 45.7556 31.1886 45.7425 31.1644 45.7042C31.1401 45.6659 31.1545 45.6169 31.1965 45.5947C31.2385 45.5726 31.2922 45.5857 31.3165 45.6241Z" fill="#F4D8A0"/>
<path d="M28.9039 45.8511L23.9417 51.4793" stroke="#F4D8A0" stroke-width="0.146127" stroke-miterlimit="10"/>
<path d="M28.8321 45.8009C28.8625 45.7664 28.9178 45.761 28.9556 45.7887C28.9934 45.8164 28.9994 45.8669 28.969 45.9013C28.9386 45.9358 28.8833 45.9413 28.8455 45.9135C28.8077 45.8858 28.8017 45.8354 28.8321 45.8009Z" fill="#F4D8A0"/>
<path d="M37.5225 48.8001L31.2542 45.6694" stroke="#F4D8A0" stroke-width="0.146127" stroke-miterlimit="10"/>
<path d="M28.6491 53.4514L28.6436 53.4419" stroke="#F4D8A0" stroke-width="0.146127" stroke-miterlimit="10"/>
<path d="M28.7183 53.4102C28.7425 53.4485 28.7281 53.4975 28.6861 53.5196C28.6441 53.5418 28.5904 53.5286 28.5662 53.4903C28.5419 53.452 28.5563 53.403 28.5983 53.3809C28.6403 53.3587 28.694 53.3719 28.7183 53.4102Z" fill="#F4D8A0"/>
<path d="M23.9498 51.4761L23.9425 51.4875L28.6608 53.4381" stroke="#F4D8A0" stroke-width="0.146127" stroke-miterlimit="10"/>
<path d="M23.8761 51.4366C23.9003 51.3982 23.9541 51.3851 23.9961 51.4072C24.0381 51.4294 24.0525 51.4784 24.0282 51.5167C24.004 51.555 23.9502 51.5681 23.9082 51.546C23.8662 51.5239 23.8518 51.4749 23.8761 51.4366Z" fill="#F4D8A0"/>
<path d="M14.7 44.2437L13.0784 51.178" stroke="#F4D8A0" stroke-width="0.146127" stroke-miterlimit="10"/>
<path d="M14.6159 44.227C14.6261 44.1837 14.6727 44.1561 14.7202 44.1654C14.7676 44.1746 14.7978 44.2172 14.7877 44.2604C14.7776 44.3037 14.7309 44.3313 14.6835 44.3221C14.6361 44.3128 14.6058 44.2703 14.6159 44.227Z" fill="#F4D8A0"/>
<path d="M19.0761 44.656L19.0706 44.6465" stroke="#F4D8A0" stroke-width="0.146127" stroke-miterlimit="10"/>
<path d="M19.1563 44.6153C19.1806 44.6536 19.1662 44.7026 19.1242 44.7247C19.0822 44.7468 19.0285 44.7337 19.0042 44.6954C18.98 44.6571 18.9944 44.6081 19.0364 44.5859C19.0784 44.5638 19.1321 44.5769 19.1563 44.6153Z" fill="#F4D8A0"/>
<path d="M20.1917 52.968L20.1971 52.9585" stroke="#F4D8A0" stroke-width="0.146127" stroke-miterlimit="10"/>
<path d="M20.2657 53.0059C20.2414 53.0443 20.1877 53.0574 20.1457 53.0353C20.1037 53.0131 20.0893 52.9641 20.1136 52.9258C20.1378 52.8875 20.1916 52.8744 20.2336 52.8965C20.2756 52.9186 20.2899 52.9676 20.2657 53.0059Z" fill="#F4D8A0"/>
<path d="M13.0824 51.1826L13.0751 51.1941L16.2864 53.2821" stroke="#F4D8A0" stroke-width="0.146127" stroke-miterlimit="10"/>
<path d="M13.0003 51.1421C13.0246 51.1038 13.0783 51.0907 13.1203 51.1128C13.1623 51.1349 13.1767 51.1839 13.1524 51.2222C13.1282 51.2606 13.0744 51.2737 13.0324 51.2516C12.9904 51.2294 12.9761 51.1804 13.0003 51.1421Z" fill="#F4D8A0"/>
<path d="M14.7011 44.2402L14.6956 44.2498" stroke="#F4D8A0" stroke-width="0.146127" stroke-miterlimit="10"/>
<path d="M14.6292 44.2036C14.6535 44.1653 14.7072 44.1522 14.7492 44.1743C14.7912 44.1964 14.8056 44.2455 14.7813 44.2838C14.7571 44.3221 14.7034 44.3352 14.6614 44.3131C14.6194 44.291 14.605 44.242 14.6292 44.2036Z" fill="#F4D8A0"/>
<path d="M23.9021 51.48L23.9093 51.4914L20.1957 52.9608" stroke="#F4D8A0" stroke-width="0.146127" stroke-miterlimit="10"/>
<path d="M23.824 51.5201C23.7998 51.4818 23.8141 51.4328 23.8561 51.4106C23.8981 51.3885 23.9519 51.4017 23.9761 51.44C24.0004 51.4783 23.986 51.5273 23.944 51.5494C23.902 51.5715 23.8483 51.5584 23.824 51.5201Z" fill="#F4D8A0"/>
<path d="M16.2909 53.2932L16.2854 53.2837" stroke="#F4D8A0" stroke-width="0.146127" stroke-miterlimit="10"/>
<path d="M16.3634 53.252C16.3876 53.2903 16.3732 53.3393 16.3312 53.3614C16.2892 53.3836 16.2355 53.3704 16.2112 53.3321C16.187 53.2938 16.2014 53.2448 16.2434 53.2227C16.2854 53.2005 16.3391 53.2137 16.3634 53.252Z" fill="#F4D8A0"/>
<path d="M23.8994 51.4751L19.0627 44.6553" stroke="#F4D8A0" stroke-width="0.146127" stroke-miterlimit="10"/>
<path d="M23.9743 51.4287C24.0007 51.4658 23.989 51.5155 23.9483 51.5395C23.9076 51.5635 23.8532 51.5529 23.8268 51.5157C23.8005 51.4786 23.8121 51.429 23.8529 51.4049C23.8936 51.3809 23.948 51.3915 23.9743 51.4287Z" fill="#F4D8A0"/>
<path d="M13.0468 51.18L7.93384 44.2456" stroke="#F4D8A0" stroke-width="0.146127" stroke-miterlimit="10"/>
<path d="M13.1226 51.1375C13.1496 51.1742 13.1389 51.224 13.0987 51.2487C13.0585 51.2734 13.0039 51.2636 12.9768 51.2269C12.9497 51.1902 12.9604 51.1404 13.0007 51.1157C13.0409 51.091 13.0955 51.1007 13.1226 51.1375Z" fill="#F4D8A0"/>
<path d="M13.0468 51.1787L13.054 51.1902L7.93384 52.9574" stroke="#F4D8A0" stroke-width="0.146127" stroke-miterlimit="10"/>
<path d="M12.9612 51.2222C12.937 51.1839 12.9514 51.1349 12.9934 51.1128C13.0354 51.0907 13.0891 51.1038 13.1134 51.1421C13.1376 51.1804 13.1232 51.2294 13.0812 51.2516C13.0392 51.2737 12.9855 51.2606 12.9612 51.2222Z" fill="#F4D8A0"/>
<path d="M28.9001 45.833L28.9056 45.8425" stroke="#F4D8A0" stroke-width="0.146127" stroke-miterlimit="10"/>
<path d="M28.8251 45.8726C28.8009 45.8343 28.8153 45.7853 28.8573 45.7632C28.8993 45.7411 28.953 45.7542 28.9772 45.7925C29.0015 45.8308 28.9871 45.8798 28.9451 45.902C28.9031 45.9241 28.8494 45.911 28.8251 45.8726Z" fill="#F4D8A0"/>
<path d="M31.2421 45.6507L38.0201 39.6902L38.0128 39.6787" stroke="#F4D8A0" stroke-width="0.146127" stroke-miterlimit="10"/>
<path d="M31.3014 45.7086C31.2664 45.7393 31.2108 45.7384 31.1772 45.7065C31.1435 45.6747 31.1445 45.6239 31.1795 45.5932C31.2144 45.5625 31.27 45.5635 31.3036 45.5953C31.3373 45.6272 31.3363 45.6779 31.3014 45.7086Z" fill="#F4D8A0"/>
<path d="M31.2421 45.6594L31.2476 45.6499" stroke="#F4D8A0" stroke-width="0.146127" stroke-miterlimit="10"/>
<path d="M31.3165 45.6988C31.2922 45.7371 31.2385 45.7503 31.1965 45.7281C31.1545 45.706 31.1401 45.657 31.1644 45.6187C31.1886 45.5804 31.2423 45.5672 31.2843 45.5894C31.3263 45.6115 31.3407 45.6605 31.3165 45.6988Z" fill="#F4D8A0"/>
<path d="M25.9497 41.8071L25.9424 41.8186L28.9026 45.8314" stroke="#F4D8A0" stroke-width="0.146127" stroke-miterlimit="10"/>
<path d="M11.9292 42.0835L11.9219 42.095L14.7062 44.2289" stroke="#F4D8A0" stroke-width="0.146127" stroke-miterlimit="10"/>
<path d="M19.0753 44.6394L25.9286 41.8181L25.9214 41.8066" stroke="#F4D8A0" stroke-width="0.146127" stroke-miterlimit="10"/>
<path d="M19.1203 44.7098C19.0761 44.728 19.0241 44.7101 19.0041 44.6697C18.9842 44.6294 19.0039 44.5819 19.0481 44.5637C19.0923 44.5456 19.1443 44.5635 19.1642 44.6038C19.1842 44.6442 19.1645 44.6916 19.1203 44.7098Z" fill="#F4D8A0"/>
<path d="M19.0706 44.6511L19.0761 44.6416" stroke="#F4D8A0" stroke-width="0.146127" stroke-miterlimit="10"/>
<path d="M19.1563 44.6886C19.1321 44.7269 19.0784 44.74 19.0364 44.7179C18.9944 44.6958 18.98 44.6467 19.0042 44.6084C19.0285 44.5701 19.0822 44.557 19.1242 44.5791C19.1662 44.6012 19.1806 44.6502 19.1563 44.6886Z" fill="#F4D8A0"/>
<path d="M14.7073 44.2241L14.7128 44.2336" stroke="#F4D8A0" stroke-width="0.146127" stroke-miterlimit="10"/>
<path d="M14.6292 44.2642C14.605 44.2259 14.6194 44.1769 14.6614 44.1548C14.7034 44.1327 14.7571 44.1458 14.7813 44.1841C14.8056 44.2224 14.7912 44.2714 14.7492 44.2936C14.7072 44.3157 14.6535 44.3026 14.6292 44.2642Z" fill="#F4D8A0"/>
<path d="M7.94975 44.2289L11.9146 42.095L11.9073 42.0835" stroke="#F4D8A0" stroke-width="0.146127" stroke-miterlimit="10"/>
<path d="M31.6956 57.6646L31.7029 57.6762" stroke="#F4D8A0" stroke-width="0.146127" stroke-miterlimit="10"/>
<path d="M31.6176 57.7048C31.5932 57.6665 31.6075 57.6175 31.6495 57.5953C31.6915 57.5731 31.7452 57.5861 31.7695 57.6244C31.7939 57.6627 31.7795 57.7117 31.7376 57.7339C31.6956 57.7561 31.6419 57.7431 31.6176 57.7048Z" fill="#F4D8A0"/>
<path d="M31.6838 57.6651L28.6448 53.4575" stroke="#F4D8A0" stroke-width="0.146127" stroke-miterlimit="10"/>
<path d="M31.7546 57.6195C31.7813 57.6565 31.7701 57.7062 31.7296 57.7305C31.6891 57.7549 31.6346 57.7447 31.6079 57.7077C31.5813 57.6708 31.5925 57.6211 31.633 57.5967C31.6735 57.5724 31.7279 57.5826 31.7546 57.6195Z" fill="#F4D8A0"/>
<path d="M28.6419 53.4578L28.6364 53.4482" stroke="#F4D8A0" stroke-width="0.146127" stroke-miterlimit="10"/>
<path d="M28.7182 53.4155C28.7425 53.4537 28.7282 53.5028 28.6862 53.5249C28.6443 53.5471 28.5905 53.5341 28.5662 53.4958C28.5419 53.4575 28.5562 53.4085 28.5982 53.3863C28.6402 53.3641 28.6939 53.3772 28.7182 53.4155Z" fill="#F4D8A0"/>
<path d="M31.8712 62.7441L31.6882 57.6772" stroke="#F4D8A0" stroke-width="0.146127" stroke-miterlimit="10"/>
<path d="M19.9893 59.9717L20.7248 62.0368" stroke="#F4D8A0" stroke-width="0.146127" stroke-miterlimit="10"/>
<path d="M19.9075 59.9975C19.8925 59.9554 19.9178 59.9102 19.9639 59.8965C20.01 59.8828 20.0596 59.9059 20.0746 59.948C20.0896 59.99 20.0643 60.0352 20.0182 60.0489C19.9721 60.0626 19.9225 60.0396 19.9075 59.9975Z" fill="#F4D8A0"/>
<path d="M19.9893 59.957L19.9966 59.9687" stroke="#F4D8A0" stroke-width="0.146127" stroke-miterlimit="10"/>
<path d="M19.9151 59.9968C19.8907 59.9585 19.905 59.9095 19.947 59.8873C19.989 59.8651 20.0427 59.8781 20.067 59.9164C20.0913 59.9547 20.077 60.0037 20.0351 60.0259C19.9931 60.0481 19.9394 60.0351 19.9151 59.9968Z" fill="#F4D8A0"/>
<path d="M16.2821 53.2942L16.2766 53.2847" stroke="#F4D8A0" stroke-width="0.146127" stroke-miterlimit="10"/>
<path d="M16.3633 53.2519C16.3876 53.2902 16.3733 53.3392 16.3313 53.3614C16.2894 53.3836 16.2356 53.3705 16.2113 53.3322C16.187 53.2939 16.2013 53.2449 16.2433 53.2227C16.2852 53.2005 16.339 53.2136 16.3633 53.2519Z" fill="#F4D8A0"/>
<path d="M19.9736 59.9602L16.2815 53.3008" stroke="#F4D8A0" stroke-width="0.146127" stroke-miterlimit="10"/>
<path d="M20.0539 59.9248C20.0758 59.9643 20.0585 60.0125 20.0152 60.0325C19.9719 60.0525 19.9191 60.0366 19.8972 59.9972C19.8753 59.9577 19.8926 59.9095 19.9359 59.8895C19.9792 59.8695 20.032 59.8854 20.0539 59.9248Z" fill="#F4D8A0"/>
<path d="M29.0823 48.9551L29.0897 48.9667" stroke="#F4D8A0" stroke-width="0.146127" stroke-miterlimit="10"/>
<path d="M29.0082 48.9953C28.9839 48.957 28.9982 48.908 29.0401 48.8858C29.0821 48.8636 29.1358 48.8767 29.1602 48.915C29.1845 48.9532 29.1702 49.0023 29.1282 49.0245C29.0863 49.0466 29.0325 49.0336 29.0082 48.9953Z" fill="#F4D8A0"/>
<path d="M32.9787 53.2624L29.0784 48.9746" stroke="#F4D8A0" stroke-width="0.146127" stroke-miterlimit="10"/>
<path d="M28.9001 45.8398L28.9057 45.8494" stroke="#F4D8A0" stroke-width="0.146127" stroke-miterlimit="10"/>
<path d="M28.8252 45.8766C28.8009 45.8384 28.8152 45.7893 28.8572 45.7672C28.8991 45.745 28.9529 45.758 28.9772 45.7963C29.0015 45.8346 28.9872 45.8836 28.9452 45.9058C28.9033 45.928 28.8495 45.9149 28.8252 45.8766Z" fill="#F4D8A0"/>
<path d="M29.0783 48.9569L28.9026 45.8491" stroke="#F4D8A0" stroke-width="0.146127" stroke-miterlimit="10"/>
<path d="M29.1641 48.9593C29.1666 49.0035 29.1293 49.0412 29.0809 49.0434C29.0324 49.0457 28.9911 49.0117 28.9886 48.9675C28.9861 48.9234 29.0234 48.8857 29.0718 48.8834C29.1203 48.8811 29.1616 48.9151 29.1641 48.9593Z" fill="#F4D8A0"/>
<path d="M20.1878 52.9575L17.0159 48.8071" stroke="#F4D8A0" stroke-width="0.146127" stroke-miterlimit="10"/>
<path d="M20.2539 52.9127C20.2816 52.949 20.2718 52.999 20.2321 53.0243C20.1923 53.0496 20.1375 53.0407 20.1098 53.0044C20.082 52.9681 20.0918 52.9181 20.1316 52.8928C20.1714 52.8675 20.2261 52.8764 20.2539 52.9127Z" fill="#F4D8A0"/>
<path d="M17.0231 48.8076L17.0305 48.8192" stroke="#F4D8A0" stroke-width="0.146127" stroke-miterlimit="10"/>
<path d="M16.9575 48.8483C16.9332 48.8101 16.9475 48.761 16.9895 48.7388C17.0314 48.7167 17.0852 48.7297 17.1095 48.768C17.1338 48.8063 17.1195 48.8553 17.0776 48.8775C17.0356 48.8997 16.9818 48.8866 16.9575 48.8483Z" fill="#F4D8A0"/>
<path d="M17.0106 48.7979L14.7 44.2466" stroke="#F4D8A0" stroke-width="0.146127" stroke-miterlimit="10"/>
<path d="M17.098 48.7598C17.1184 48.8 17.0992 48.8476 17.0552 48.8662C17.0112 48.8848 16.959 48.8673 16.9386 48.8272C16.9183 48.787 16.9374 48.7394 16.9814 48.7208C17.0254 48.7022 17.0776 48.7197 17.098 48.7598Z" fill="#F4D8A0"/>
<path d="M20.1825 52.9675L20.177 52.958" stroke="#F4D8A0" stroke-width="0.146127" stroke-miterlimit="10"/>
<path d="M20.2549 52.9252C20.2792 52.9635 20.2649 53.0125 20.2229 53.0347C20.181 53.0569 20.1272 53.0438 20.1029 53.0055C20.0786 52.9673 20.0929 52.9182 20.1349 52.8961C20.1768 52.8739 20.2306 52.8869 20.2549 52.9252Z" fill="#F4D8A0"/>
<path d="M14.7062 44.2451L14.7117 44.2546" stroke="#F4D8A0" stroke-width="0.146127" stroke-miterlimit="10"/>
<path d="M14.6404 44.2863C14.6161 44.248 14.6304 44.199 14.6724 44.1768C14.7144 44.1546 14.7681 44.1677 14.7924 44.206C14.8167 44.2443 14.8024 44.2933 14.7605 44.3155C14.7185 44.3377 14.6648 44.3246 14.6404 44.2863Z" fill="#F4D8A0"/>
<path d="M29.8867 39.2573L31.2502 45.6532" stroke="#F4D8A0" stroke-width="0.146127" stroke-miterlimit="10"/>
<path d="M31.2567 45.657L31.2512 45.6475" stroke="#F4D8A0" stroke-width="0.146127" stroke-miterlimit="10"/>
<path d="M31.3359 45.62C31.3603 45.6583 31.3459 45.7074 31.304 45.7295C31.262 45.7517 31.2083 45.7387 31.184 45.7004C31.1597 45.6621 31.174 45.6131 31.2159 45.5909C31.2579 45.5687 31.3116 45.5818 31.3359 45.62Z" fill="#F4D8A0"/>
<path d="M19.0692 44.6526L19.0637 44.6431" stroke="#F4D8A0" stroke-width="0.146127" stroke-miterlimit="10"/>
<path d="M19.1493 44.6117C19.1736 44.65 19.1593 44.6991 19.1173 44.7212C19.0754 44.7434 19.0216 44.7304 18.9973 44.6921C18.973 44.6538 18.9873 44.6048 19.0293 44.5826C19.0712 44.5604 19.125 44.5735 19.1493 44.6117Z" fill="#F4D8A0"/>
<path d="M17.9218 39.4351L19.0843 44.6394" stroke="#F4D8A0" stroke-width="0.146127" stroke-miterlimit="10"/>
<path d="M31.6921 57.6648L32.973 53.2739" stroke="#F4D8A0" stroke-width="0.146127" stroke-miterlimit="10"/>
<path d="M31.7672 57.6852C31.7547 57.728 31.7066 57.7534 31.6597 57.742C31.6129 57.7307 31.585 57.6868 31.5975 57.644C31.6099 57.6013 31.658 57.5758 31.7049 57.5872C31.7518 57.5986 31.7797 57.6425 31.7672 57.6852Z" fill="#F4D8A0"/>
<path d="M31.6873 57.6646L31.6799 57.6762" stroke="#F4D8A0" stroke-width="0.146127" stroke-miterlimit="10"/>
<path d="M31.6058 57.6244C31.6302 57.5861 31.6839 57.5731 31.7259 57.5953C31.7678 57.6175 31.7821 57.6665 31.7578 57.7048C31.7335 57.7431 31.6798 57.7561 31.6378 57.7339C31.5958 57.7117 31.5815 57.6627 31.6058 57.6244Z" fill="#F4D8A0"/>
<path d="M31.6962 57.6772L29.4034 63.7982" stroke="#F4D8A0" stroke-width="0.146127" stroke-miterlimit="10"/>
<path d="M31.6106 57.6514C31.6263 57.6095 31.6762 57.5872 31.7221 57.6015C31.768 57.6158 31.7925 57.6614 31.7768 57.7032C31.7612 57.7451 31.7112 57.7674 31.6653 57.7531C31.6194 57.7388 31.5949 57.6933 31.6106 57.6514Z" fill="#F4D8A0"/>
<path d="M20.1825 52.9653L20.177 52.9749" stroke="#F4D8A0" stroke-width="0.146127" stroke-miterlimit="10"/>
<path d="M20.1029 52.9252C20.1272 52.8869 20.181 52.8739 20.2229 52.8961C20.2649 52.9182 20.2792 52.9673 20.2549 53.0056C20.2306 53.0438 20.1768 53.0569 20.1349 53.0347C20.0929 53.0125 20.0786 52.9635 20.1029 52.9252Z" fill="#F4D8A0"/>
<path d="M19.9835 59.9707L16.887 65.2438" stroke="#F4D8A0" stroke-width="0.146127" stroke-miterlimit="10"/>
<path d="M19.9089 59.9339C19.9318 59.8949 19.985 59.8802 20.0278 59.9011C20.0705 59.922 20.0866 59.9706 20.0637 60.0096C20.0408 60.0486 19.9876 60.0633 19.9448 60.0424C19.9021 60.0215 19.886 59.9729 19.9089 59.9339Z" fill="#F4D8A0"/>
<path d="M19.9921 59.9572L20.1929 52.9771" stroke="#F4D8A0" stroke-width="0.146127" stroke-miterlimit="10"/>
<path d="M20.0788 59.9592C20.0775 60.0034 20.0371 60.0383 19.9887 60.0372C19.9402 60.036 19.9019 59.9992 19.9032 59.955C19.9044 59.9107 19.9448 59.8758 19.9933 59.877C20.0417 59.8781 20.08 59.9149 20.0788 59.9592Z" fill="#F4D8A0"/>
<path d="M19.9926 59.9565L19.9852 59.9682" stroke="#F4D8A0" stroke-width="0.146127" stroke-miterlimit="10"/>
<path d="M19.915 59.9164C19.9393 59.8781 19.9931 59.8651 20.035 59.8873C20.077 59.9095 20.0913 59.9585 20.067 59.9968C20.0426 60.0351 19.9889 60.0481 19.9469 60.0259C19.905 60.0037 19.8907 59.9547 19.915 59.9164Z" fill="#F4D8A0"/>
<path d="M28.6402 53.446L28.6457 53.4365" stroke="#F4D8A0" stroke-width="0.146127" stroke-miterlimit="10"/>
<path d="M28.707 53.485C28.6827 53.5233 28.629 53.5364 28.587 53.5142C28.5451 53.492 28.5307 53.443 28.5551 53.4047C28.5794 53.3664 28.6331 53.3534 28.6751 53.3756C28.717 53.3977 28.7314 53.4468 28.707 53.485Z" fill="#F4D8A0"/>
<path d="M28.6436 53.4428L29.0777 48.9717" stroke="#F4D8A0" stroke-width="0.146127" stroke-miterlimit="10"/>
<path d="M28.7297 53.449C28.7254 53.4931 28.6828 53.5257 28.6345 53.5217C28.5862 53.5178 28.5505 53.4789 28.5547 53.4349C28.559 53.3908 28.6017 53.3582 28.65 53.3621C28.6983 53.366 28.734 53.4049 28.7297 53.449Z" fill="#F4D8A0"/>
<path d="M31.25 45.6694L29.0901 48.9605" stroke="#F4D8A0" stroke-width="0.146127" stroke-miterlimit="10"/>
<path d="M31.1734 45.6283C31.1984 45.5904 31.2523 45.578 31.2939 45.6007C31.3355 45.6235 31.3491 45.6727 31.3242 45.7106C31.2992 45.7486 31.2453 45.761 31.2037 45.7382C31.1621 45.7155 31.1485 45.6663 31.1734 45.6283Z" fill="#F4D8A0"/>
<path d="M29.0823 48.9716L29.0897 48.96" stroke="#F4D8A0" stroke-width="0.146127" stroke-miterlimit="10"/>
<path d="M29.1602 49.0109C29.1358 49.0492 29.0821 49.0623 29.0401 49.0401C28.9982 49.0179 28.9839 48.9689 29.0082 48.9306C29.0325 48.8923 29.0863 48.8793 29.1282 48.9014C29.1702 48.9236 29.1845 48.9727 29.1602 49.0109Z" fill="#F4D8A0"/>
<path d="M31.2567 45.6558L31.2512 45.6653" stroke="#F4D8A0" stroke-width="0.146127" stroke-miterlimit="10"/>
<path d="M31.184 45.62C31.2083 45.5818 31.262 45.5687 31.304 45.5909C31.3459 45.6131 31.3603 45.6621 31.3359 45.7004C31.3116 45.7387 31.2579 45.7517 31.2159 45.7295C31.174 45.7074 31.1597 45.6583 31.184 45.62Z" fill="#F4D8A0"/>
<path d="M19.0692 44.6509L19.0637 44.6604" stroke="#F4D8A0" stroke-width="0.146127" stroke-miterlimit="10"/>
<path d="M18.9973 44.6117C19.0216 44.5735 19.0754 44.5604 19.1173 44.5826C19.1593 44.6048 19.1736 44.6538 19.1493 44.6921C19.125 44.7304 19.0712 44.7434 19.0293 44.7212C18.9873 44.6991 18.973 44.65 18.9973 44.6117Z" fill="#F4D8A0"/>
<path d="M16.2854 53.2802L17.0209 48.8091" stroke="#F4D8A0" stroke-width="0.146127" stroke-miterlimit="10"/>
<path d="M16.3742 53.2917C16.367 53.3355 16.3222 53.3656 16.2743 53.3591C16.2263 53.3525 16.1933 53.3117 16.2004 53.2679C16.2076 53.2242 16.2524 53.194 16.3003 53.2006C16.3483 53.2072 16.3813 53.248 16.3742 53.2917Z" fill="#F4D8A0"/>
<path d="M17.0237 48.8061L17.0311 48.7944" stroke="#F4D8A0" stroke-width="0.146127" stroke-miterlimit="10"/>
<path d="M17.0977 48.842C17.0733 48.8803 17.0196 48.8933 16.9776 48.8711C16.9357 48.8489 16.9214 48.7999 16.9457 48.7616C16.97 48.7234 17.0238 48.7103 17.0657 48.7325C17.1077 48.7547 17.122 48.8037 17.0977 48.842Z" fill="#F4D8A0"/>
<path d="M19.0736 44.6606L17.0393 48.7995" stroke="#F4D8A0" stroke-width="0.146127" stroke-miterlimit="10"/>
<path d="M18.9962 44.6279C19.0161 44.5876 19.0681 44.5695 19.1123 44.5876C19.1566 44.6057 19.1764 44.6531 19.1565 44.6935C19.1367 44.7339 19.0847 44.7519 19.0404 44.7338C18.9962 44.7157 18.9764 44.6683 18.9962 44.6279Z" fill="#F4D8A0"/>
<path d="M16.2854 53.2932L16.2909 53.2837" stroke="#F4D8A0" stroke-width="0.146127" stroke-miterlimit="10"/>
<path d="M16.3633 53.3322C16.339 53.3705 16.2852 53.3836 16.2433 53.3614C16.2013 53.3392 16.187 53.2902 16.2113 53.2519C16.2356 53.2136 16.2894 53.2005 16.3313 53.2227C16.3733 53.2449 16.3876 53.2939 16.3633 53.3322Z" fill="#F4D8A0"/>
<path d="M28.8984 45.8316L29.8851 39.2524" stroke="#F4D8A0" stroke-width="0.146127" stroke-miterlimit="10"/>
<path d="M28.9873 45.8434C28.9807 45.8873 28.9364 45.9179 28.8884 45.912C28.8403 45.906 28.8067 45.8655 28.8133 45.8217C28.8198 45.7779 28.8641 45.7472 28.9122 45.7532C28.9602 45.7592 28.9939 45.7996 28.9873 45.8434Z" fill="#F4D8A0"/>
<path d="M28.8969 45.833L28.8914 45.8425" stroke="#F4D8A0" stroke-width="0.146127" stroke-miterlimit="10"/>
<path d="M28.8252 45.7924C28.8495 45.7541 28.9033 45.7411 28.9452 45.7632C28.9872 45.7854 29.0015 45.8345 28.9772 45.8727C28.9529 45.911 28.8991 45.9241 28.8572 45.9019C28.8152 45.8797 28.8009 45.8307 28.8252 45.7924Z" fill="#F4D8A0"/>
<path d="M14.7128 44.2241L14.7073 44.2336" stroke="#F4D8A0" stroke-width="0.146127" stroke-miterlimit="10"/>
<path d="M14.6293 44.184C14.6536 44.1457 14.7073 44.1327 14.7493 44.1548C14.7913 44.177 14.8056 44.2261 14.7813 44.2643C14.7569 44.3026 14.7032 44.3157 14.6612 44.2935C14.6193 44.2713 14.605 44.2223 14.6293 44.184Z" fill="#F4D8A0"/>
<path d="M14.7034 44.225L17.9004 39.4331" stroke="#F4D8A0" stroke-width="0.146127" stroke-miterlimit="10"/>
<path d="M14.7803 44.2658C14.7551 44.3036 14.701 44.3156 14.6596 44.2926C14.6182 44.2696 14.605 44.2203 14.6302 44.1825C14.6555 44.1447 14.7095 44.1327 14.7509 44.1557C14.7924 44.1787 14.8055 44.228 14.7803 44.2658Z" fill="#F4D8A0"/>
<path d="M31.6871 57.6636H31.6724" stroke="#F4D8A0" stroke-width="0.146127" stroke-miterlimit="10"/>
<path d="M31.6818 57.7447C31.7303 57.7447 31.7696 57.7088 31.7696 57.6646C31.7696 57.6203 31.7303 57.5845 31.6818 57.5845C31.6333 57.5845 31.594 57.6203 31.594 57.6646C31.594 57.7088 31.6333 57.7447 31.6818 57.7447Z" fill="#F4D8A0"/>
<path d="M31.6788 57.668L26.8674 59.9594" stroke="#F4D8A0" stroke-width="0.146127" stroke-miterlimit="10"/>
<path d="M31.634 57.597C31.677 57.5765 31.7301 57.5917 31.7525 57.6309C31.775 57.6702 31.7583 57.7186 31.7153 57.7391C31.6723 57.7595 31.6193 57.7443 31.5968 57.7051C31.5744 57.6659 31.5911 57.6175 31.634 57.597Z" fill="#F4D8A0"/>
<path d="M35.4819 60.6429L31.7003 57.6641" stroke="#F4D8A0" stroke-width="0.146127" stroke-miterlimit="10"/>
<path d="M26.8723 59.9619H26.8888" stroke="#F4D8A0" stroke-width="0.146127" stroke-miterlimit="10"/>
<path d="M26.8742 60.0421C26.9227 60.0421 26.962 60.0062 26.962 59.962C26.962 59.9177 26.9227 59.8818 26.8742 59.8818C26.8257 59.8818 26.7864 59.9177 26.7864 59.962C26.7864 60.0062 26.8257 60.0421 26.8742 60.0421Z" fill="#F4D8A0"/>
<path d="M19.9798 59.9563L13.0585 58.5586" stroke="#F4D8A0" stroke-width="0.146127" stroke-miterlimit="10"/>
<path d="M20.0013 59.8774C20.0486 59.887 20.0785 59.9297 20.0681 59.9729C20.0576 60.0161 20.0107 60.0434 19.9633 60.0339C19.916 60.0243 19.8861 59.9815 19.8966 59.9383C19.907 59.8951 19.9539 59.8678 20.0013 59.8774Z" fill="#F4D8A0"/>
<path d="M19.9881 59.9565H19.9734" stroke="#F4D8A0" stroke-width="0.146127" stroke-miterlimit="10"/>
<path d="M19.991 60.0367C20.0395 60.0367 20.0788 60.0008 20.0788 59.9566C20.0788 59.9123 20.0395 59.8765 19.991 59.8765C19.9425 59.8765 19.9031 59.9123 19.9031 59.9566C19.9031 60.0008 19.9425 60.0367 19.991 60.0367Z" fill="#F4D8A0"/>
<path d="M26.8422 59.9609H19.9963" stroke="#F4D8A0" stroke-width="0.146127" stroke-miterlimit="10"/>
<path d="M26.842 60.0411C26.8905 60.0411 26.9298 60.0052 26.9298 59.961C26.9298 59.9167 26.8905 59.8809 26.842 59.8809C26.7935 59.8809 26.7542 59.9167 26.7542 59.961C26.7542 60.0052 26.7935 60.0411 26.842 60.0411Z" fill="#F4D8A0"/>
<path d="M13.0428 58.5591H13.0593" stroke="#F4D8A0" stroke-width="0.146127" stroke-miterlimit="10"/>
<path d="M13.0412 58.6388C12.9927 58.6388 12.9534 58.6029 12.9534 58.5586C12.9534 58.5144 12.9927 58.4785 13.0412 58.4785C13.0897 58.4785 13.129 58.5144 13.129 58.5586C13.129 58.6029 13.0897 58.6388 13.0412 58.6388Z" fill="#F4D8A0"/>
<path d="M26.8518 59.9609H26.8683" stroke="#F4D8A0" stroke-width="0.146127" stroke-miterlimit="10"/>
<path d="M26.8498 60.0411C26.8983 60.0411 26.9376 60.0052 26.9376 59.961C26.9376 59.9167 26.8983 59.8809 26.8498 59.8809C26.8013 59.8809 26.762 59.9167 26.762 59.961C26.762 60.0052 26.8013 60.0411 26.8498 60.0411Z" fill="#F4D8A0"/>
<path d="M13.0399 58.5591H13.0564" stroke="#F4D8A0" stroke-width="0.146127" stroke-miterlimit="10"/>
<path d="M13.0412 58.6388C12.9927 58.6388 12.9534 58.6029 12.9534 58.5586C12.9534 58.5144 12.9927 58.4785 13.0412 58.4785C13.0897 58.4785 13.129 58.5144 13.129 58.5586C13.129 58.6029 13.0897 58.6388 13.0412 58.6388Z" fill="#F4D8A0"/>
<path d="M13.0337 58.5562L6.66504 60.8017" stroke="#F4D8A0" stroke-width="0.146127" stroke-miterlimit="10"/>
<path d="M13.0064 58.4805C13.0516 58.4646 13.1025 58.4851 13.12 58.5264C13.1374 58.5676 13.1149 58.614 13.0697 58.63C13.0245 58.6459 12.9736 58.6254 12.9561 58.5841C12.9386 58.5429 12.9611 58.4965 13.0064 58.4805Z" fill="#F4D8A0"/>
<path d="M37.5184 48.7979L29.0901 48.9582" stroke="#F4D8A0" stroke-width="0.146127" stroke-miterlimit="10"/>
<path d="M29.0809 48.958H29.0663" stroke="#F4D8A0" stroke-width="0.146127" stroke-miterlimit="10"/>
<path d="M29.0842 49.0387C29.1327 49.0387 29.172 49.0028 29.172 48.9585C29.172 48.9143 29.1327 48.8784 29.0842 48.8784C29.0357 48.8784 28.9963 48.9143 28.9963 48.9585C28.9963 49.0028 29.0357 49.0387 29.0842 49.0387Z" fill="#F4D8A0"/>
<path d="M23.9152 51.4766H23.9317" stroke="#F4D8A0" stroke-width="0.146127" stroke-miterlimit="10"/>
<path d="M23.917 51.5567C23.9656 51.5567 24.0049 51.5209 24.0049 51.4766C24.0049 51.4324 23.9656 51.3965 23.917 51.3965C23.8685 51.3965 23.8292 51.4324 23.8292 51.4766C23.8292 51.5209 23.8685 51.5567 23.917 51.5567Z" fill="#F4D8A0"/>
<path d="M23.9425 51.4785L29.0804 48.958" stroke="#F4D8A0" stroke-width="0.146127" stroke-miterlimit="10"/>
<path d="M23.993 51.5501C23.9502 51.5711 23.897 51.5565 23.874 51.5175C23.851 51.4785 23.8671 51.4299 23.9098 51.409C23.9525 51.388 24.0057 51.4026 24.0287 51.4416C24.0517 51.4806 24.0357 51.5292 23.993 51.5501Z" fill="#F4D8A0"/>
<path d="M23.9152 51.4761H23.8987" stroke="#F4D8A0" stroke-width="0.146127" stroke-miterlimit="10"/>
<path d="M23.917 51.5567C23.9656 51.5567 24.0049 51.5209 24.0049 51.4766C24.0049 51.4324 23.9656 51.3965 23.917 51.3965C23.8685 51.3965 23.8292 51.4324 23.8292 51.4766C23.8292 51.5209 23.8685 51.5567 23.917 51.5567Z" fill="#F4D8A0"/>
<path d="M17.0266 48.7979H17.012" stroke="#F4D8A0" stroke-width="0.146127" stroke-miterlimit="10"/>
<path d="M17.0217 48.878C17.0702 48.878 17.1095 48.8421 17.1095 48.7979C17.1095 48.7536 17.0702 48.7178 17.0217 48.7178C16.9732 48.7178 16.9338 48.7536 16.9338 48.7979C16.9338 48.8421 16.9732 48.878 17.0217 48.878Z" fill="#F4D8A0"/>
<path d="M23.8986 51.4793L17.0276 48.7983" stroke="#F4D8A0" stroke-width="0.146127" stroke-miterlimit="10"/>
<path d="M23.9351 51.4064C23.9797 51.4238 24.0004 51.4709 23.9813 51.5115C23.9623 51.5522 23.9106 51.5711 23.8661 51.5537C23.8215 51.5363 23.8008 51.4892 23.8198 51.4485C23.8389 51.4079 23.8905 51.389 23.9351 51.4064Z" fill="#F4D8A0"/>
<path d="M13.0706 51.1787H13.0871" stroke="#F4D8A0" stroke-width="0.146127" stroke-miterlimit="10"/>
<path d="M13.0764 51.2623C13.0279 51.2623 12.9885 51.2264 12.9885 51.1822C12.9885 51.1379 13.0279 51.1021 13.0764 51.1021C13.1248 51.1021 13.1642 51.1379 13.1642 51.1822C13.1642 51.2264 13.1248 51.2623 13.0764 51.2623Z" fill="#F4D8A0"/>
<path d="M13.0751 51.176L17.0074 48.793" stroke="#F4D8A0" stroke-width="0.146127" stroke-miterlimit="10"/>
<path d="M13.125 51.2416C13.0846 51.2661 13.03 51.256 13.0032 51.2192C12.9764 51.1823 12.9874 51.1326 13.0278 51.1081C13.0682 51.0836 13.1227 51.0937 13.1495 51.1305C13.1763 51.1674 13.1653 51.2171 13.125 51.2416Z" fill="#F4D8A0"/>
<path d="M13.0588 51.1792L6.01196 48.9565" stroke="#F4D8A0" stroke-width="0.146127" stroke-miterlimit="10"/>
<path d="M13.0855 51.1026C13.1314 51.117 13.1557 51.1627 13.1398 51.2045C13.124 51.2463 13.074 51.2685 13.0281 51.254C12.9823 51.2396 12.958 51.1939 12.9738 51.1521C12.9897 51.1103 13.0397 51.0881 13.0855 51.1026Z" fill="#F4D8A0"/>
<path d="M13.0753 51.1787H13.0588" stroke="#F4D8A0" stroke-width="0.146127" stroke-miterlimit="10"/>
<path d="M13.0763 51.1021C13.1248 51.1021 13.1642 51.1379 13.1642 51.1822C13.1642 51.2264 13.1248 51.2623 13.0763 51.2623C13.0279 51.2623 12.9885 51.2264 12.9885 51.1822C12.9885 51.1379 13.0279 51.1021 13.0763 51.1021Z" fill="#F4D8A0"/>
<path d="M25.5084 55.394L26.8648 59.9539" stroke="#F4D8A0" stroke-width="0.146127" stroke-miterlimit="10"/>
<path d="M25.4254 55.4151C25.4127 55.3724 25.4403 55.3284 25.4871 55.3168C25.534 55.3052 25.5822 55.3304 25.5949 55.3731C25.6076 55.4158 25.58 55.4598 25.5331 55.4714C25.4863 55.483 25.4381 55.4578 25.4254 55.4151Z" fill="#F4D8A0"/>
<path d="M26.2655 63.6447L26.8432 59.9556" stroke="#F4D8A0" stroke-width="0.146127" stroke-miterlimit="10"/>
<path d="M13.0428 58.5591L14.0475 64.1272" stroke="#F4D8A0" stroke-width="0.146127" stroke-miterlimit="10"/>
<path d="M12.9545 58.5717C12.9467 58.528 12.9791 58.4868 13.0269 58.4796C13.0748 58.4724 13.12 58.502 13.1279 58.5456C13.1357 58.5893 13.1033 58.6305 13.0555 58.6377C13.0076 58.6449 12.9624 58.6153 12.9545 58.5717Z" fill="#F4D8A0"/>
<path d="M13.0681 55.7681L13.043 58.5636" stroke="#F4D8A0" stroke-width="0.146127" stroke-miterlimit="10"/>
<path d="M12.9885 55.7714C12.9889 55.7271 13.0286 55.6915 13.0771 55.6919C13.1256 55.6923 13.1646 55.7284 13.1642 55.7727C13.1638 55.8169 13.1241 55.8525 13.0756 55.8521C13.0271 55.8518 12.9881 55.8156 12.9885 55.7714Z" fill="#F4D8A0"/>
<path d="M25.5084 55.3974L28.6481 53.4497" stroke="#F4D8A0" stroke-width="0.146127" stroke-miterlimit="10"/>
<path d="M25.5595 55.4613C25.5194 55.4862 25.4648 55.4767 25.4375 55.4401C25.4102 55.4035 25.4206 55.3537 25.4607 55.3288C25.5009 55.3039 25.5555 55.3134 25.5828 55.35C25.61 55.3866 25.5996 55.4364 25.5595 55.4613Z" fill="#F4D8A0"/>
<path d="M28.6474 53.4502H28.6364" stroke="#F4D8A0" stroke-width="0.146127" stroke-miterlimit="10"/>
<path d="M28.6422 53.5304C28.6907 53.5304 28.73 53.4945 28.73 53.4502C28.73 53.406 28.6907 53.3701 28.6422 53.3701C28.5937 53.3701 28.5544 53.406 28.5544 53.4502C28.5544 53.4945 28.5937 53.5304 28.6422 53.5304Z" fill="#F4D8A0"/>
<path d="M28.6436 53.448L32.9672 53.2646" stroke="#F4D8A0" stroke-width="0.146127" stroke-miterlimit="10"/>
<path d="M28.6463 53.5293C28.5978 53.5314 28.5567 53.4972 28.5545 53.453C28.5522 53.4088 28.5897 53.3713 28.6381 53.3692C28.6866 53.3672 28.7277 53.4013 28.7299 53.4455C28.7322 53.4897 28.6947 53.5272 28.6463 53.5293Z" fill="#F4D8A0"/>
<path d="M16.2876 53.2915H16.2766" stroke="#F4D8A0" stroke-width="0.146127" stroke-miterlimit="10"/>
<path d="M16.2873 53.3722C16.3358 53.3722 16.3751 53.3363 16.3751 53.292C16.3751 53.2478 16.3358 53.2119 16.2873 53.2119C16.2388 53.2119 16.1995 53.2478 16.1995 53.292C16.1995 53.3363 16.2388 53.3722 16.2873 53.3722Z" fill="#F4D8A0"/>
<path d="M20.1805 52.9658H20.1695" stroke="#F4D8A0" stroke-width="0.146127" stroke-miterlimit="10"/>
<path d="M20.1789 53.0455C20.2274 53.0455 20.2667 53.0096 20.2667 52.9654C20.2667 52.9211 20.2274 52.8853 20.1789 52.8853C20.1304 52.8853 20.0911 52.9211 20.0911 52.9654C20.0911 53.0096 20.1304 53.0455 20.1789 53.0455Z" fill="#F4D8A0"/>
<path d="M13.0588 55.7647L16.2738 53.29" stroke="#F4D8A0" stroke-width="0.146127" stroke-miterlimit="10"/>
<path d="M13.1174 55.8289C13.0803 55.8574 13.0249 55.8531 12.9936 55.8193C12.9623 55.7855 12.967 55.7349 13.0041 55.7064C13.0412 55.6779 13.0966 55.6821 13.1278 55.716C13.1591 55.7498 13.1544 55.8003 13.1174 55.8289Z" fill="#F4D8A0"/>
<path d="M25.4961 55.402L20.1964 52.9731" stroke="#F4D8A0" stroke-width="0.146127" stroke-miterlimit="10"/>
<path d="M25.5353 55.3308C25.5786 55.3507 25.5961 55.3988 25.5743 55.4384C25.5526 55.4779 25.4998 55.4939 25.4564 55.474C25.4131 55.4541 25.3956 55.406 25.4174 55.3664C25.4392 55.3269 25.492 55.3109 25.5353 55.3308Z" fill="#F4D8A0"/>
<path d="M16.2942 53.2939L20.1907 52.9731" stroke="#F4D8A0" stroke-width="0.146127" stroke-miterlimit="10"/>
<path d="M16.2952 53.3723C16.2469 53.3763 16.2042 53.3438 16.1998 53.2997C16.1955 53.2557 16.2311 53.2167 16.2794 53.2127C16.3277 53.2088 16.3704 53.2413 16.3748 53.2853C16.3791 53.3294 16.3435 53.3683 16.2952 53.3723Z" fill="#F4D8A0"/>
<path d="M25.5044 55.3983L23.9221 51.48" stroke="#F4D8A0" stroke-width="0.146127" stroke-miterlimit="10"/>
<path d="M25.5845 55.3703C25.6013 55.4118 25.578 55.4579 25.5325 55.4732C25.4869 55.4885 25.4364 55.4672 25.4197 55.4257C25.4029 55.3842 25.4262 55.3381 25.4717 55.3228C25.5172 55.3075 25.5677 55.3288 25.5845 55.3703Z" fill="#F4D8A0"/>
<path d="M23.9144 51.4767L25.9489 45.8398" stroke="#F4D8A0" stroke-width="0.146127" stroke-miterlimit="10"/>
<path d="M23.9998 51.5046C23.9846 51.5466 23.9349 51.5695 23.8889 51.5557C23.8428 51.5418 23.8178 51.4965 23.8329 51.4545C23.8481 51.4125 23.8977 51.3896 23.9438 51.4035C23.9899 51.4173 24.0149 51.4626 23.9998 51.5046Z" fill="#F4D8A0"/>
<path d="M13.0577 55.7633L7.93384 52.9678" stroke="#F4D8A0" stroke-width="0.146127" stroke-miterlimit="10"/>
<path d="M13.0948 55.6969C13.1364 55.7196 13.15 55.7688 13.1251 55.8068C13.1002 55.8448 13.0462 55.8571 13.0046 55.8344C12.963 55.8117 12.9494 55.7625 12.9743 55.7246C12.9992 55.6866 13.0531 55.6742 13.0948 55.6969Z" fill="#F4D8A0"/>
<path d="M13.0588 55.7669V51.1841" stroke="#F4D8A0" stroke-width="0.146127" stroke-miterlimit="10"/>
<path d="M13.1485 55.7671C13.1485 55.8114 13.1092 55.8473 13.0607 55.8473C13.0122 55.8473 12.9729 55.8114 12.9729 55.7671C12.9729 55.7229 13.0122 55.687 13.0607 55.687C13.1092 55.687 13.1485 55.7229 13.1485 55.7671Z" fill="#F4D8A0"/>
<path d="M13.0682 51.18L12.5659 45.3828" stroke="#F4D8A0" stroke-width="0.146127" stroke-miterlimit="10"/>
<path d="M13.1553 51.1724C13.1591 51.2165 13.123 51.2551 13.0747 51.2586C13.0263 51.2621 12.984 51.2292 12.9802 51.1851C12.9764 51.141 13.0125 51.1024 13.0608 51.0989C13.1092 51.0954 13.1515 51.1283 13.1553 51.1724Z" fill="#F4D8A0"/>
<path d="M31.2511 45.6592L37.5555 45.0635" stroke="#F4D8A0" stroke-width="0.146127" stroke-miterlimit="10"/>
<path d="M31.269 45.7394C31.2208 45.744 31.1776 45.712 31.1726 45.668C31.1676 45.624 31.2027 45.5846 31.2509 45.58C31.2991 45.5755 31.3423 45.6075 31.3473 45.6515C31.3523 45.6955 31.3172 45.7349 31.269 45.7394Z" fill="#F4D8A0"/>
<path d="M28.896 45.8384H25.9573" stroke="#F4D8A0" stroke-width="0.146127" stroke-miterlimit="10"/>
<path d="M28.8967 45.9185C28.9452 45.9185 28.9845 45.8827 28.9845 45.8384C28.9845 45.7942 28.9452 45.7583 28.8967 45.7583C28.8482 45.7583 28.8088 45.7942 28.8088 45.8384C28.8088 45.8827 28.8482 45.9185 28.8967 45.9185Z" fill="#F4D8A0"/>
<path d="M31.2535 45.6558H31.2425" stroke="#F4D8A0" stroke-width="0.146127" stroke-miterlimit="10"/>
<path d="M31.2599 45.7403C31.3084 45.7403 31.3478 45.7044 31.3478 45.6602C31.3478 45.6159 31.3084 45.5801 31.2599 45.5801C31.2114 45.5801 31.1721 45.6159 31.1721 45.6602C31.1721 45.7044 31.2114 45.7403 31.2599 45.7403Z" fill="#F4D8A0"/>
<path d="M28.8902 45.833H28.8792" stroke="#F4D8A0" stroke-width="0.146127" stroke-miterlimit="10"/>
<path d="M28.8849 45.9132C28.9334 45.9132 28.9728 45.8773 28.9728 45.8331C28.9728 45.7888 28.9334 45.7529 28.8849 45.7529C28.8364 45.7529 28.7971 45.7888 28.7971 45.8331C28.7971 45.8773 28.8364 45.9132 28.8849 45.9132Z" fill="#F4D8A0"/>
<path d="M28.8955 45.842L31.2349 45.6587" stroke="#F4D8A0" stroke-width="0.146127" stroke-miterlimit="10"/>
<path d="M28.8925 45.9183C28.8441 45.922 28.8016 45.8894 28.7974 45.8453C28.7933 45.8012 28.8291 45.7624 28.8774 45.7586C28.9258 45.7548 28.9683 45.7875 28.9725 45.8316C28.9766 45.8756 28.9408 45.9145 28.8925 45.9183Z" fill="#F4D8A0"/>
<path d="M19.0747 44.6509H19.0637" stroke="#F4D8A0" stroke-width="0.146127" stroke-miterlimit="10"/>
<path d="M19.0733 44.732C19.1218 44.732 19.1611 44.6961 19.1611 44.6519C19.1611 44.6076 19.1218 44.5718 19.0733 44.5718C19.0248 44.5718 18.9855 44.6076 18.9855 44.6519C18.9855 44.6961 19.0248 44.732 19.0733 44.732Z" fill="#F4D8A0"/>
<path d="M19.0714 44.6519L25.9535 45.8434" stroke="#F4D8A0" stroke-width="0.146127" stroke-miterlimit="10"/>
<path d="M19.0569 44.7306C19.0093 44.7224 18.978 44.6804 18.987 44.637C18.9961 44.5935 19.042 44.5649 19.0897 44.5732C19.1373 44.5814 19.1686 44.6234 19.1596 44.6669C19.1506 44.7103 19.1046 44.7389 19.0569 44.7306Z" fill="#F4D8A0"/>
<path d="M14.7008 44.2402L12.5659 45.3859" stroke="#F4D8A0" stroke-width="0.146127" stroke-miterlimit="10"/>
<path d="M14.6521 44.1712C14.6939 44.1488 14.7478 44.1615 14.7724 44.1997C14.7969 44.2378 14.783 44.2869 14.7412 44.3093C14.6994 44.3318 14.6456 44.319 14.621 44.2809C14.5964 44.2428 14.6103 44.1937 14.6521 44.1712Z" fill="#F4D8A0"/>
<path d="M14.7066 44.2402H14.6956" stroke="#F4D8A0" stroke-width="0.146127" stroke-miterlimit="10"/>
<path d="M14.7053 44.3238C14.7538 44.3238 14.7931 44.2879 14.7931 44.2437C14.7931 44.1994 14.7538 44.1636 14.7053 44.1636C14.6568 44.1636 14.6174 44.1994 14.6174 44.2437C14.6174 44.2879 14.6568 44.3238 14.7053 44.3238Z" fill="#F4D8A0"/>
<path d="M14.7073 44.2402L19.056 44.6527" stroke="#F4D8A0" stroke-width="0.146127" stroke-miterlimit="10"/>
<path d="M14.6962 44.3234C14.6479 44.3188 14.6129 44.2794 14.6179 44.2354C14.6229 44.1914 14.6661 44.1594 14.7143 44.164C14.7626 44.1686 14.7976 44.208 14.7926 44.252C14.7876 44.296 14.7444 44.328 14.6962 44.3234Z" fill="#F4D8A0"/>
<path d="M25.9299 41.8188L25.955 45.8517" stroke="#F4D8A0" stroke-width="0.146127" stroke-miterlimit="10"/>
<path d="M7.94977 44.2402L12.5713 45.3859" stroke="#F4D8A0" stroke-width="0.146127" stroke-miterlimit="10"/>
<path d="M11.8984 42.085L12.5515 45.3846" stroke="#F4D8A0" stroke-width="0.146127" stroke-miterlimit="10"/>
</g>
<path d="M21.7922 42.7827C16.3261 42.7827 11.8951 46.825 11.8951 51.8117C11.8951 56.7981 16.3261 60.8406 21.7922 60.8406C27.2583 60.8406 31.6893 56.7981 31.6893 51.8117C31.6893 46.825 27.2583 42.7827 21.7922 42.7827V42.7827ZM23.8655 55.8736C23.5975 55.9958 23.3166 56.0921 23.0292 56.1649V56.4768C23.0292 57.1001 22.4753 57.6054 21.792 57.6054C21.1088 57.6054 20.5549 57.1001 20.5549 56.4768V56.2002C20.0399 56.0819 19.5596 55.883 19.1528 55.6047C18.6062 55.2308 18.4954 54.5233 18.9054 54.0247C19.3154 53.5261 20.0908 53.4249 20.6374 53.7989C21.1322 54.1375 22.084 54.1626 22.7589 53.8548C23.0302 53.731 23.1765 53.582 23.1765 53.5047C23.1765 53.3697 23.1765 53.3488 23.0119 53.2687C22.6891 53.1115 22.1184 53.0149 21.5664 52.9215C20.8294 52.7968 20.0675 52.6678 19.4072 52.3463C18.4429 51.8768 17.9332 51.1066 17.9332 50.1189C17.9332 49.1301 18.5832 48.2664 19.7165 47.7495C19.9851 47.627 20.2667 47.53 20.5549 47.4571V47.1469C20.5549 46.5236 21.1088 46.0182 21.792 46.0182C22.4753 46.0182 23.0292 46.5236 23.0292 47.1469V47.4232C23.5442 47.5416 24.0244 47.7406 24.4313 48.0189C24.9779 48.3929 25.0887 49.1003 24.6787 49.599C24.2687 50.0976 23.4934 50.1987 22.9467 49.8247C22.4511 49.4856 21.4985 49.4604 20.823 49.7684C20.5502 49.8929 20.4075 50.0389 20.4075 50.1188C20.4075 50.2539 20.4075 50.2747 20.5721 50.3549C20.8949 50.5121 21.4658 50.6087 22.0177 50.7021C22.7546 50.8268 23.5166 50.9558 24.177 51.2773C25.1411 51.7468 25.6508 52.517 25.6508 53.5047C25.6509 54.4926 25.0001 55.356 23.8655 55.8736V55.8736Z" stroke="#E3B04B"/>
<mask id="mask1" mask-type="alpha" maskUnits="userSpaceOnUse" x="38" y="42" width="21" height="19">
<path fill-rule="evenodd" clip-rule="evenodd" d="M48.1784 60.6922C53.6444 60.6922 58.0755 56.6498 58.0755 51.6632C58.0755 46.6767 53.6444 42.6343 48.1784 42.6343C42.7123 42.6343 38.2812 46.6767 38.2812 51.6632C38.2812 56.6498 42.7123 60.6922 48.1784 60.6922ZM50.0159 55.8645C51.5863 55.8645 52.8639 54.6991 52.8639 53.2664C52.8639 52.5986 52.5786 51.995 52.1232 51.5343C52.5786 51.0736 52.8639 50.4701 52.8639 49.8023C52.8639 48.3696 51.5863 47.2041 50.0159 47.2041H49.0666V46.3381C49.0666 45.8594 48.642 45.472 48.1173 45.472C47.5926 45.472 47.168 45.8594 47.168 46.3381V47.2041H44.32C43.7953 47.2041 43.3707 47.5915 43.3707 48.0702C43.3707 48.5489 43.7953 48.9362 44.32 48.9362H45.2694V54.1325H44.32C43.7953 54.1325 43.3707 54.5198 43.3707 54.9985C43.3707 55.4772 43.7953 55.8645 44.32 55.8645H47.168V56.7306C47.168 57.2093 47.5926 57.5966 48.1173 57.5966C48.642 57.5966 49.0666 57.2093 49.0666 56.7306V55.8645H50.0159ZM47.168 48.9362V50.6423H50.1109C50.4397 50.6423 50.9336 50.3248 50.9336 49.8023C50.9336 49.2797 50.4785 48.9362 50.1109 48.9362H47.168ZM47.168 52.4264V54.1325H50.1109C50.4397 54.1325 50.9336 53.8149 50.9336 53.2924C50.9336 52.7699 50.4785 52.4264 50.1109 52.4264H47.168Z" fill="#C4C4C4"/>
</mask>
<g mask="url(#mask1)">
<path d="M61.0321 56.8311L53.9453 60.9575" stroke="#F4D8A0" stroke-width="0.146127" stroke-miterlimit="10"/>
<path d="M46.1749 58.5356L46.1684 58.5469" stroke="#F4D8A0" stroke-width="0.146127" stroke-miterlimit="10"/>
<path d="M46.0765 58.4865C46.1053 58.441 46.1691 58.4255 46.219 58.4517C46.2689 58.478 46.286 58.5362 46.2571 58.5817C46.2283 58.6272 46.1645 58.6428 46.1147 58.6165C46.0648 58.5903 46.0477 58.532 46.0765 58.4865Z" fill="#F4D8A0"/>
<path d="M53.9022 60.9582L50.7233 54.7363" stroke="#F4D8A0" stroke-width="0.146127" stroke-miterlimit="10"/>
<path d="M44.1144 66.3337L39.2266 60.6425L39.2352 60.6289" stroke="#F4D8A0" stroke-width="0.146127" stroke-miterlimit="10"/>
<path d="M46.1798 58.5376L39.2422 60.6229" stroke="#F4D8A0" stroke-width="0.146127" stroke-miterlimit="10"/>
<path d="M46.1498 58.4457C46.2045 58.4293 46.2635 58.4564 46.2815 58.5063C46.2995 58.5562 46.2698 58.61 46.2151 58.6265C46.1604 58.6429 46.1014 58.6158 46.0834 58.5659C46.0654 58.516 46.0951 58.4622 46.1498 58.4457Z" fill="#F4D8A0"/>
<path d="M50.7344 54.7188L50.7409 54.7301" stroke="#F4D8A0" stroke-width="0.146127" stroke-miterlimit="10"/>
<path d="M50.6429 54.7653C50.6141 54.7198 50.6312 54.6616 50.6811 54.6353C50.7309 54.609 50.7947 54.6246 50.8236 54.6701C50.8524 54.7156 50.8353 54.7739 50.7854 54.8001C50.7355 54.8264 50.6717 54.8108 50.6429 54.7653Z" fill="#F4D8A0"/>
<path d="M39.2026 60.6285L37.4258 55.4136" stroke="#F4D8A0" stroke-width="0.146127" stroke-miterlimit="10"/>
<path d="M39.2938 60.605C39.3109 60.6552 39.2801 60.7085 39.2251 60.7241C39.1701 60.7397 39.1117 60.7117 39.0946 60.6615C39.0775 60.6113 39.1082 60.558 39.1632 60.5424C39.2182 60.5268 39.2767 60.5548 39.2938 60.605Z" fill="#F4D8A0"/>
<path d="M37.4295 70.0349L39.215 60.6425L39.2064 60.6289" stroke="#F4D8A0" stroke-width="0.146127" stroke-miterlimit="10"/>
<path d="M58.0399 52.2441L60.1448 44.5254" stroke="#F4D8A0" stroke-width="0.146127" stroke-miterlimit="10"/>
<path d="M58.1399 52.2646C58.126 52.3156 58.0694 52.3467 58.0135 52.334C57.9576 52.3213 57.9236 52.2697 57.9375 52.2187C57.9514 52.1677 58.008 52.1366 58.0639 52.1493C58.1198 52.162 58.1538 52.2136 58.1399 52.2646Z" fill="#F4D8A0"/>
<path d="M58.0319 52.2437L58.0233 52.2573L61.0318 56.8055" stroke="#F4D8A0" stroke-width="0.146127" stroke-miterlimit="10"/>
<path d="M57.9398 52.195C57.9686 52.1495 58.0324 52.1339 58.0823 52.1602C58.1321 52.1865 58.1492 52.2447 58.1204 52.2902C58.0916 52.3357 58.0278 52.3513 57.9779 52.325C57.9281 52.2988 57.911 52.2406 57.9398 52.195Z" fill="#F4D8A0"/>
<path d="M50.0932 43.9576L50.0867 43.9463" stroke="#F4D8A0" stroke-width="0.146127" stroke-miterlimit="10"/>
<path d="M50.1829 43.9099C50.2117 43.9554 50.1946 44.0136 50.1448 44.0399C50.0949 44.0662 50.0311 44.0506 50.0023 44.0051C49.9735 43.9596 49.9906 43.9013 50.0404 43.8751C50.0903 43.8488 50.1541 43.8644 50.1829 43.9099Z" fill="#F4D8A0"/>
<path d="M50.7344 54.7193L50.7409 54.708" stroke="#F4D8A0" stroke-width="0.146127" stroke-miterlimit="10"/>
<path d="M50.8236 54.7653C50.7947 54.8108 50.7309 54.8264 50.6811 54.8001C50.6312 54.7739 50.6141 54.7156 50.6429 54.6701C50.6717 54.6246 50.7355 54.609 50.7854 54.6353C50.8353 54.6616 50.8524 54.7198 50.8236 54.7653Z" fill="#F4D8A0"/>
<path d="M45.4554 44.3262L45.4489 44.3375" stroke="#F4D8A0" stroke-width="0.146127" stroke-miterlimit="10"/>
<path d="M45.3656 44.282C45.3944 44.2365 45.4582 44.2209 45.508 44.2471C45.5579 44.2734 45.575 44.3316 45.5462 44.3771C45.5174 44.4226 45.4536 44.4382 45.4037 44.412C45.3538 44.3857 45.3368 44.3275 45.3656 44.282Z" fill="#F4D8A0"/>
<path d="M41.6326 50.587L45.4678 44.3379" stroke="#F4D8A0" stroke-width="0.146127" stroke-miterlimit="10"/>
<path d="M41.7227 50.6319C41.6945 50.6777 41.631 50.6941 41.5807 50.6684C41.5305 50.6428 41.5125 50.5848 41.5407 50.5389C41.5688 50.4931 41.6324 50.4767 41.6826 50.5024C41.7329 50.528 41.7508 50.586 41.7227 50.6319Z" fill="#F4D8A0"/>
<path d="M57.989 52.2476L57.9976 52.2612L50.7233 54.7139" stroke="#F4D8A0" stroke-width="0.146127" stroke-miterlimit="10"/>
<path d="M57.8976 52.2941C57.8688 52.2486 57.8859 52.1904 57.9358 52.1641C57.9857 52.1379 58.0495 52.1534 58.0783 52.199C58.1071 52.2445 58.09 52.3027 58.0401 52.3289C57.9902 52.3552 57.9264 52.3396 57.8976 52.2941Z" fill="#F4D8A0"/>
<path d="M46.1684 58.5195L46.1749 58.5308" stroke="#F4D8A0" stroke-width="0.146127" stroke-miterlimit="10"/>
<path d="M46.0765 58.5656C46.0477 58.5201 46.0648 58.4619 46.1147 58.4356C46.1645 58.4093 46.2283 58.4249 46.2571 58.4704C46.286 58.5159 46.2689 58.5741 46.219 58.6004C46.1691 58.6267 46.1053 58.6111 46.0765 58.5656Z" fill="#F4D8A0"/>
<path d="M57.982 52.2487L50.0898 43.9585" stroke="#F4D8A0" stroke-width="0.146127" stroke-miterlimit="10"/>
<path d="M58.0659 52.1885C58.1037 52.2282 58.0991 52.2883 58.0556 52.3228C58.0121 52.3572 57.9462 52.353 57.9084 52.3133C57.8707 52.2736 57.8753 52.2135 57.9188 52.1791C57.9623 52.1446 58.0282 52.1488 58.0659 52.1885Z" fill="#F4D8A0"/>
<path d="M41.6296 50.5825L41.621 50.5961L46.1807 58.5189" stroke="#F4D8A0" stroke-width="0.146127" stroke-miterlimit="10"/>
<path d="M41.5412 50.5373C41.57 50.4918 41.6338 50.4762 41.6837 50.5025C41.7336 50.5288 41.7507 50.587 41.7219 50.6325C41.6931 50.678 41.6293 50.6936 41.5794 50.6673C41.5295 50.641 41.5124 50.5828 41.5412 50.5373Z" fill="#F4D8A0"/>
<path d="M41.5817 50.5866L35.5391 43.9565" stroke="#F4D8A0" stroke-width="0.146127" stroke-miterlimit="10"/>
<path d="M41.6653 50.5231C41.7022 50.5635 41.6961 50.6235 41.6518 50.6571C41.6075 50.6907 41.5418 50.6852 41.5049 50.6448C41.4681 50.6044 41.4742 50.5444 41.5185 50.5108C41.5627 50.4772 41.6285 50.4827 41.6653 50.5231Z" fill="#F4D8A0"/>
<path d="M37.4295 55.3917L41.6015 50.5986L41.5928 50.585" stroke="#F4D8A0" stroke-width="0.146127" stroke-miterlimit="10"/>
<path d="M54.5515 42.1782L54.5428 42.1918L60.1467 44.5085" stroke="#F4D8A0" stroke-width="0.146127" stroke-miterlimit="10"/>
<path d="M50.0938 43.9503L50.1003 43.939" stroke="#F4D8A0" stroke-width="0.146127" stroke-miterlimit="10"/>
<path d="M50.1829 43.9943C50.1541 44.0398 50.0903 44.0554 50.0404 44.0291C49.9906 44.0029 49.9735 43.9447 50.0023 43.8991C50.0311 43.8536 50.0949 43.8381 50.1448 43.8643C50.1946 43.8906 50.2117 43.9488 50.1829 43.9943Z" fill="#F4D8A0"/>
<path d="M41.6549 41.8188L41.6462 41.8325L45.4602 44.3124" stroke="#F4D8A0" stroke-width="0.146127" stroke-miterlimit="10"/>
<path d="M54.4957 42.1787L54.5043 42.1923L50.0938 43.9375" stroke="#F4D8A0" stroke-width="0.146127" stroke-miterlimit="10"/>
<path d="M45.4554 44.3297L45.4489 44.3184" stroke="#F4D8A0" stroke-width="0.146127" stroke-miterlimit="10"/>
<path d="M45.5462 44.282C45.575 44.3275 45.5579 44.3857 45.508 44.412C45.4582 44.4382 45.3944 44.4226 45.3656 44.3771C45.3368 44.3316 45.3538 44.2734 45.4037 44.2471C45.4536 44.2209 45.5174 44.2365 45.5462 44.282Z" fill="#F4D8A0"/>
<path d="M41.6116 41.8164L41.6202 41.83L35.5391 43.929" stroke="#F4D8A0" stroke-width="0.146127" stroke-miterlimit="10"/>
<path d="M46.1684 58.5356L46.1749 58.5469" stroke="#F4D8A0" stroke-width="0.146127" stroke-miterlimit="10"/>
<path d="M46.0766 58.5818C46.0477 58.5364 46.0647 58.4781 46.1145 58.4518C46.1644 58.4255 46.2282 58.441 46.2571 58.4864C46.2859 58.5319 46.269 58.5901 46.2191 58.6165C46.1693 58.6428 46.1055 58.6273 46.0766 58.5818Z" fill="#F4D8A0"/>
<path d="M47.0925 61.281L46.168 58.5425" stroke="#F4D8A0" stroke-width="0.146127" stroke-miterlimit="10"/>
<path d="M49.8516 52.2598L50.7251 54.7125" stroke="#F4D8A0" stroke-width="0.146127" stroke-miterlimit="10"/>
<path d="M49.7512 52.2882C49.7334 52.2382 49.7634 52.1845 49.8182 52.1683C49.873 52.152 49.9318 52.1794 49.9496 52.2294C49.9674 52.2793 49.9374 52.333 49.8827 52.3493C49.8279 52.3655 49.769 52.3381 49.7512 52.2882Z" fill="#F4D8A0"/>
<path d="M49.8367 52.2515L49.8454 52.2653" stroke="#F4D8A0" stroke-width="0.146127" stroke-miterlimit="10"/>
<path d="M49.7371 52.2977C49.7082 52.2522 49.7252 52.194 49.775 52.1676C49.8249 52.1413 49.8887 52.1568 49.9176 52.2022C49.9465 52.2477 49.9295 52.3059 49.8796 52.3323C49.8298 52.3586 49.766 52.3431 49.7371 52.2977Z" fill="#F4D8A0"/>
<path d="M45.4672 44.3336L45.4607 44.3223" stroke="#F4D8A0" stroke-width="0.146127" stroke-miterlimit="10"/>
<path d="M45.5615 44.2857C45.5904 44.3312 45.5734 44.3894 45.5236 44.4158C45.4737 44.4421 45.4099 44.4266 45.381 44.3812C45.3521 44.3357 45.3691 44.2775 45.419 44.2511C45.4688 44.2248 45.5326 44.2403 45.5615 44.2857Z" fill="#F4D8A0"/>
<path d="M49.8537 52.249L45.4688 44.3398" stroke="#F4D8A0" stroke-width="0.146127" stroke-miterlimit="10"/>
<path d="M49.9469 52.2055C49.9729 52.2524 49.9523 52.3097 49.9009 52.3334C49.8495 52.3571 49.7867 52.3383 49.7607 52.2914C49.7347 52.2446 49.7553 52.1873 49.8067 52.1636C49.8581 52.1399 49.9209 52.1587 49.9469 52.2055Z" fill="#F4D8A0"/>
<path d="M50.7234 54.7124L50.7299 54.7237" stroke="#F4D8A0" stroke-width="0.146127" stroke-miterlimit="10"/>
<path d="M50.6321 54.7591C50.6032 54.7136 50.6202 54.6554 50.6701 54.629C50.7199 54.6027 50.7837 54.6182 50.8126 54.6637C50.8415 54.7091 50.8245 54.7674 50.7747 54.7937C50.7248 54.8201 50.661 54.8046 50.6321 54.7591Z" fill="#F4D8A0"/>
<path d="M50.103 43.9356L46.3359 39.0063" stroke="#F4D8A0" stroke-width="0.146127" stroke-miterlimit="10"/>
<path d="M50.1822 43.882C50.2151 43.9252 50.2035 43.9845 50.1563 44.0145C50.109 44.0446 50.044 44.034 50.0111 43.9909C49.9781 43.9478 49.9897 43.8885 50.037 43.8584C50.0842 43.8284 50.1492 43.8389 50.1822 43.882Z" fill="#F4D8A0"/>
<path d="M50.1168 43.9444L50.1102 43.9331" stroke="#F4D8A0" stroke-width="0.146127" stroke-miterlimit="10"/>
<path d="M50.2071 43.8971C50.236 43.9425 50.219 44.0008 50.1692 44.0271C50.1193 44.0535 50.0555 44.0379 50.0266 43.9925C49.9978 43.947 50.0148 43.8888 50.0646 43.8624C50.1144 43.8361 50.1783 43.8516 50.2071 43.8971Z" fill="#F4D8A0"/>
<path d="M50.7292 54.7241L50.7227 54.7354" stroke="#F4D8A0" stroke-width="0.146127" stroke-miterlimit="10"/>
<path d="M50.643 54.6754C50.6719 54.6299 50.7357 54.6144 50.7855 54.6408C50.8354 54.6671 50.8524 54.7253 50.8235 54.7708C50.7946 54.8163 50.7308 54.8318 50.6809 54.8054C50.6311 54.7791 50.6141 54.7209 50.643 54.6754Z" fill="#F4D8A0"/>
<path d="M50.7226 54.7349L47.1133 61.2833" stroke="#F4D8A0" stroke-width="0.146127" stroke-miterlimit="10"/>
<path d="M50.6354 54.696C50.6613 54.649 50.724 54.6301 50.7755 54.6537C50.8269 54.6773 50.8477 54.7345 50.8218 54.7815C50.7959 54.8284 50.7332 54.8473 50.6818 54.8237C50.6303 54.8001 50.6095 54.7429 50.6354 54.696Z" fill="#F4D8A0"/>
<path d="M50.1168 43.9458L50.1102 43.9571" stroke="#F4D8A0" stroke-width="0.146127" stroke-miterlimit="10"/>
<path d="M50.0266 43.8971C50.0555 43.8516 50.1193 43.8361 50.1692 43.8624C50.219 43.8888 50.236 43.947 50.2071 43.9925C50.1783 44.0379 50.1144 44.0535 50.0646 44.0271C50.0148 44.0008 49.9978 43.9425 50.0266 43.8971Z" fill="#F4D8A0"/>
<path d="M49.8456 52.2559L46.168 58.5186" stroke="#F4D8A0" stroke-width="0.146127" stroke-miterlimit="10"/>
<path d="M49.7546 52.2138C49.7818 52.1675 49.845 52.1501 49.8958 52.1749C49.9465 52.1997 49.9657 52.2574 49.9385 52.3037C49.9113 52.35 49.848 52.3674 49.7973 52.3426C49.7465 52.3178 49.7274 52.2601 49.7546 52.2138Z" fill="#F4D8A0"/>
<path d="M49.8516 52.2467L50.09 43.9565" stroke="#F4D8A0" stroke-width="0.146127" stroke-miterlimit="10"/>
<path d="M49.9547 52.2524C49.9532 52.305 49.9052 52.3464 49.8477 52.3451C49.7901 52.3437 49.7446 52.3 49.7461 52.2474C49.7476 52.1949 49.7956 52.1534 49.8531 52.1548C49.9107 52.1562 49.9562 52.1999 49.9547 52.2524Z" fill="#F4D8A0"/>
<path d="M46.1684 58.5347L46.1749 58.5234" stroke="#F4D8A0" stroke-width="0.146127" stroke-miterlimit="10"/>
<path d="M46.2571 58.5818C46.2282 58.6273 46.1644 58.6428 46.1145 58.6165C46.0647 58.5901 46.0477 58.5319 46.0766 58.4864C46.1055 58.441 46.1693 58.4255 46.2191 58.4518C46.269 58.4781 46.2859 58.5364 46.2571 58.5818Z" fill="#F4D8A0"/>
<path d="M49.8528 52.2485L49.8441 52.2623" stroke="#F4D8A0" stroke-width="0.146127" stroke-miterlimit="10"/>
<path d="M49.7602 52.2003C49.7891 52.1548 49.8529 52.1393 49.9027 52.1657C49.9526 52.192 49.9695 52.2503 49.9407 52.2957C49.9118 52.3412 49.8479 52.3567 49.7981 52.3303C49.7483 52.304 49.7313 52.2457 49.7602 52.2003Z" fill="#F4D8A0"/>
<path d="M45.4724 44.3122L46.346 39.002" stroke="#F4D8A0" stroke-width="0.146127" stroke-miterlimit="10"/>
<path d="M45.5744 44.3222C45.5659 44.3741 45.5127 44.41 45.4558 44.4022C45.3988 44.3944 45.3596 44.3459 45.3681 44.2939C45.3767 44.242 45.4298 44.2062 45.4867 44.214C45.5437 44.2218 45.583 44.2702 45.5744 44.3222Z" fill="#F4D8A0"/>
<path d="M45.4724 44.3228L45.479 44.3115" stroke="#F4D8A0" stroke-width="0.146127" stroke-miterlimit="10"/>
<path d="M45.5615 44.3709C45.5326 44.4164 45.4688 44.4319 45.419 44.4055C45.3691 44.3792 45.3521 44.321 45.381 44.2755C45.4099 44.23 45.4737 44.2145 45.5236 44.2409C45.5734 44.2672 45.5904 44.3254 45.5615 44.3709Z" fill="#F4D8A0"/>
<path d="M39.2314 60.6348H39.251" stroke="#F4D8A0" stroke-width="0.146127" stroke-miterlimit="10"/>
<path d="M39.2302 60.7289C39.1726 60.7289 39.1259 60.6863 39.1259 60.6337C39.1259 60.5812 39.1726 60.5386 39.2302 60.5386C39.2878 60.5386 39.3345 60.5812 39.3345 60.6337C39.3345 60.6863 39.2878 60.7289 39.2302 60.7289Z" fill="#F4D8A0"/>
<path d="M39.2545 60.6289L47.1167 61.282" stroke="#F4D8A0" stroke-width="0.146127" stroke-miterlimit="10"/>
<path d="M39.2441 60.7222C39.1867 60.7174 39.1444 60.6711 39.1497 60.6188C39.1549 60.5664 39.2056 60.5279 39.263 60.5326C39.3204 60.5374 39.3626 60.5837 39.3574 60.636C39.3522 60.6883 39.3014 60.7269 39.2441 60.7222Z" fill="#F4D8A0"/>
<path d="M39.1953 60.6289H39.2149" stroke="#F4D8A0" stroke-width="0.146127" stroke-miterlimit="10"/>
<path d="M39.1942 60.723C39.1366 60.723 39.0898 60.6804 39.0898 60.6279C39.0898 60.5753 39.1366 60.5327 39.1942 60.5327C39.2517 60.5327 39.2985 60.5753 39.2985 60.6279C39.2985 60.6804 39.2517 60.723 39.1942 60.723Z" fill="#F4D8A0"/>
<path d="M39.2069 60.6187L33.2539 60.8636" stroke="#F4D8A0" stroke-width="0.146127" stroke-miterlimit="10"/>
<path d="M39.1973 60.5221C39.2548 60.5197 39.3036 60.5604 39.3062 60.6128C39.3088 60.6653 39.2642 60.7098 39.2067 60.7122C39.1491 60.7146 39.1004 60.6739 39.0978 60.6214C39.0952 60.5689 39.1397 60.5244 39.1973 60.5221Z" fill="#F4D8A0"/>
<path d="M63.7383 49.5244L58.0239 52.2458" stroke="#F4D8A0" stroke-width="0.146127" stroke-miterlimit="10"/>
<path d="M58.0155 52.2432H58.0351" stroke="#F4D8A0" stroke-width="0.146127" stroke-miterlimit="10"/>
<path d="M58.0143 52.3373C58.0719 52.3373 58.1186 52.2947 58.1186 52.2421C58.1186 52.1896 58.0719 52.147 58.0143 52.147C57.9567 52.147 57.91 52.1896 57.91 52.2421C57.91 52.2947 57.9567 52.3373 58.0143 52.3373Z" fill="#F4D8A0"/>
<path d="M49.849 52.245L41.6289 50.585" stroke="#F4D8A0" stroke-width="0.146127" stroke-miterlimit="10"/>
<path d="M49.873 52.1536C49.9292 52.165 49.9647 52.2158 49.9523 52.2671C49.9398 52.3184 49.8841 52.3508 49.8279 52.3395C49.7716 52.3281 49.7361 52.2773 49.7486 52.226C49.761 52.1747 49.8167 52.1423 49.873 52.1536Z" fill="#F4D8A0"/>
<path d="M49.8527 52.2485H49.8353" stroke="#F4D8A0" stroke-width="0.146127" stroke-miterlimit="10"/>
<path d="M49.8504 52.3431C49.908 52.3431 49.9547 52.3005 49.9547 52.248C49.9547 52.1954 49.908 52.1528 49.8504 52.1528C49.7928 52.1528 49.7461 52.1954 49.7461 52.248C49.7461 52.3005 49.7928 52.3431 49.8504 52.3431Z" fill="#F4D8A0"/>
<path d="M57.982 52.248H49.8514" stroke="#F4D8A0" stroke-width="0.146127" stroke-miterlimit="10"/>
<path d="M57.983 52.3422C58.0406 52.3422 58.0873 52.2996 58.0873 52.247C58.0873 52.1945 58.0406 52.1519 57.983 52.1519C57.9254 52.1519 57.8787 52.1945 57.8787 52.247C57.8787 52.2996 57.9254 52.3422 57.983 52.3422Z" fill="#F4D8A0"/>
<path d="M41.6172 50.5811H41.6368" stroke="#F4D8A0" stroke-width="0.146127" stroke-miterlimit="10"/>
<path d="M41.616 50.6752C41.5584 50.6752 41.5117 50.6326 41.5117 50.58C41.5117 50.5275 41.5584 50.4849 41.616 50.4849C41.6736 50.4849 41.7203 50.5275 41.7203 50.58C41.7203 50.6326 41.6736 50.6752 41.616 50.6752Z" fill="#F4D8A0"/>
<path d="M58 52.2383H58.0196" stroke="#F4D8A0" stroke-width="0.146127" stroke-miterlimit="10"/>
<path d="M57.9988 52.3324C58.0564 52.3324 58.1031 52.2898 58.1031 52.2372C58.1031 52.1847 58.0564 52.1421 57.9988 52.1421C57.9412 52.1421 57.8945 52.1847 57.8945 52.2372C57.8945 52.2898 57.9412 52.3324 57.9988 52.3324Z" fill="#F4D8A0"/>
<path d="M41.5976 50.582H41.6172" stroke="#F4D8A0" stroke-width="0.146127" stroke-miterlimit="10"/>
<path d="M41.5964 50.6762C41.5388 50.6762 41.4921 50.6335 41.4921 50.581C41.4921 50.5285 41.5388 50.4858 41.5964 50.4858C41.654 50.4858 41.7007 50.5285 41.7007 50.581C41.7007 50.6335 41.654 50.6762 41.5964 50.6762Z" fill="#F4D8A0"/>
<path d="M41.5792 50.5859L34.0154 53.2529" stroke="#F4D8A0" stroke-width="0.146127" stroke-miterlimit="10"/>
<path d="M41.543 50.4962C41.5968 50.4772 41.6572 50.5016 41.6779 50.5506C41.6987 50.5996 41.672 50.6547 41.6183 50.6737C41.5645 50.6926 41.5041 50.6682 41.4834 50.6192C41.4626 50.5702 41.4893 50.5151 41.543 50.4962Z" fill="#F4D8A0"/>
<path d="M57.3155 56.6299L53.9147 60.9569" stroke="#F4D8A0" stroke-width="0.146127" stroke-miterlimit="10"/>
<path d="M57.2233 56.5734C57.2569 56.5307 57.3221 56.5209 57.3689 56.5515C57.4157 56.5821 57.4264 56.6416 57.3929 56.6843C57.3593 56.727 57.2941 56.7368 57.2473 56.7062C57.2005 56.6756 57.1898 56.6161 57.2233 56.5734Z" fill="#F4D8A0"/>
<path d="M41.0391 68.33L39.2194 60.6284" stroke="#F4D8A0" stroke-width="0.146127" stroke-miterlimit="10"/>
<path d="M42.799 57.2026L39.2193 60.6316" stroke="#F4D8A0" stroke-width="0.146127" stroke-miterlimit="10"/>
<path d="M42.7211 57.1365C42.7608 57.0984 42.8269 57.0969 42.8686 57.1332C42.9103 57.1694 42.9119 57.2297 42.8722 57.2677C42.8325 57.3058 42.7664 57.3072 42.7247 57.271C42.683 57.2348 42.6814 57.1745 42.7211 57.1365Z" fill="#F4D8A0"/>
<path d="M57.3242 56.625L61.0233 56.8155" stroke="#F4D8A0" stroke-width="0.146127" stroke-miterlimit="10"/>
<path d="M57.3172 56.719C57.2597 56.716 57.2157 56.6711 57.2189 56.6186C57.2222 56.5661 57.2714 56.526 57.3289 56.529C57.3864 56.5319 57.4304 56.5769 57.4272 56.6293C57.424 56.6818 57.3747 56.7219 57.3172 56.719Z" fill="#F4D8A0"/>
<path d="M46.1756 58.5308L42.8047 57.1973" stroke="#F4D8A0" stroke-width="0.146127" stroke-miterlimit="10"/>
<path d="M46.2161 58.4454C46.269 58.4663 46.2933 58.5223 46.2703 58.5705C46.2474 58.6187 46.186 58.6409 46.1331 58.62C46.0803 58.5991 46.056 58.543 46.0789 58.4948C46.1019 58.4466 46.1633 58.4245 46.2161 58.4454Z" fill="#F4D8A0"/>
<path d="M50.7344 54.7188H50.7475" stroke="#F4D8A0" stroke-width="0.146127" stroke-miterlimit="10"/>
<path d="M50.7332 54.8129C50.7908 54.8129 50.8375 54.7703 50.8375 54.7177C50.8375 54.6652 50.7908 54.6226 50.7332 54.6226C50.6756 54.6226 50.6289 54.6652 50.6289 54.7177C50.6289 54.7703 50.6756 54.8129 50.7332 54.8129Z" fill="#F4D8A0"/>
<path d="M46.1684 58.5356H46.1815" stroke="#F4D8A0" stroke-width="0.146127" stroke-miterlimit="10"/>
<path d="M46.1668 58.6293C46.2244 58.6293 46.2711 58.5867 46.2711 58.5341C46.2711 58.4816 46.2244 58.439 46.1668 58.439C46.1092 58.439 46.0625 58.4816 46.0625 58.5341C46.0625 58.5867 46.1092 58.6293 46.1668 58.6293Z" fill="#F4D8A0"/>
<path d="M57.3231 56.6252L50.7305 54.7202" stroke="#F4D8A0" stroke-width="0.146127" stroke-miterlimit="10"/>
<path d="M57.3546 56.5386C57.4095 56.5545 57.4399 56.608 57.4225 56.6581C57.4051 56.7082 57.3465 56.7359 57.2916 56.7201C57.2367 56.7042 57.2063 56.6507 57.2236 56.6006C57.241 56.5505 57.2997 56.5228 57.3546 56.5386Z" fill="#F4D8A0"/>
<path d="M50.719 54.7183L46.1807 58.5282" stroke="#F4D8A0" stroke-width="0.146127" stroke-miterlimit="10"/>
<path d="M50.644 54.6477C50.6864 54.6121 50.7524 54.6146 50.7914 54.6533C50.8304 54.6919 50.8277 54.7522 50.7853 54.7877C50.7429 54.8233 50.6769 54.8208 50.6379 54.7821C50.5989 54.7435 50.6016 54.6833 50.644 54.6477Z" fill="#F4D8A0"/>
<path d="M56.4059 46.8257L58.0168 52.2413" stroke="#F4D8A0" stroke-width="0.146127" stroke-miterlimit="10"/>
<path d="M56.3041 46.8496C56.289 46.7989 56.3218 46.7466 56.3774 46.7328C56.433 46.7191 56.4903 46.749 56.5054 46.7998C56.5205 46.8505 56.4877 46.9027 56.4321 46.9165C56.3765 46.9303 56.3192 46.9003 56.3041 46.8496Z" fill="#F4D8A0"/>
<path d="M57.3242 56.6286L58.0103 52.2471" stroke="#F4D8A0" stroke-width="0.146127" stroke-miterlimit="10"/>
<path d="M57.3231 56.724C57.3807 56.724 57.4274 56.6814 57.4274 56.6288C57.4274 56.5763 57.3807 56.5337 57.3231 56.5337C57.2654 56.5337 57.2188 56.5763 57.2188 56.6288C57.2188 56.6814 57.2654 56.724 57.3231 56.724Z" fill="#F4D8A0"/>
<path d="M37.4381 55.4038L42.8077 57.1999" stroke="#F4D8A0" stroke-width="0.146127" stroke-miterlimit="10"/>
<path d="M41.6172 50.5811L42.8104 57.1941" stroke="#F4D8A0" stroke-width="0.146127" stroke-miterlimit="10"/>
<path d="M41.5131 50.5955C41.5038 50.5436 41.5423 50.4947 41.5991 50.4861C41.6559 50.4776 41.7096 50.5127 41.719 50.5646C41.7283 50.6164 41.6898 50.6654 41.633 50.6739C41.5761 50.6825 41.5225 50.6473 41.5131 50.5955Z" fill="#F4D8A0"/>
<path d="M41.648 47.272L41.6182 50.5921" stroke="#F4D8A0" stroke-width="0.146127" stroke-miterlimit="10"/>
<path d="M41.5479 47.2702C41.5483 47.2176 41.5954 47.1754 41.653 47.1758C41.7106 47.1762 41.7569 47.2192 41.7565 47.2717C41.756 47.3243 41.7089 47.3665 41.6513 47.3661C41.5937 47.3657 41.5474 47.3227 41.5479 47.2702Z" fill="#F4D8A0"/>
<path d="M56.4059 46.8279L60.1347 44.5146" stroke="#F4D8A0" stroke-width="0.146127" stroke-miterlimit="10"/>
<path d="M56.4634 46.9053C56.4158 46.9348 56.3509 46.9236 56.3185 46.8801C56.2861 46.8367 56.2984 46.7775 56.3461 46.7479C56.3937 46.7184 56.4586 46.7296 56.491 46.7731C56.5234 46.8166 56.511 46.8757 56.4634 46.9053Z" fill="#F4D8A0"/>
<path d="M45.4619 44.3262H45.4489" stroke="#F4D8A0" stroke-width="0.146127" stroke-miterlimit="10"/>
<path d="M45.4559 44.4247C45.5135 44.4247 45.5602 44.3821 45.5602 44.3295C45.5602 44.277 45.5135 44.2344 45.4559 44.2344C45.3983 44.2344 45.3516 44.277 45.3516 44.3295C45.3516 44.3821 45.3983 44.4247 45.4559 44.4247Z" fill="#F4D8A0"/>
<path d="M50.1116 43.9458H50.0985" stroke="#F4D8A0" stroke-width="0.146127" stroke-miterlimit="10"/>
<path d="M50.1169 44.0399C50.1745 44.0399 50.2212 43.9973 50.2212 43.9448C50.2212 43.8922 50.1745 43.8496 50.1169 43.8496C50.0593 43.8496 50.0126 43.8922 50.0126 43.9448C50.0126 43.9973 50.0593 44.0399 50.1169 44.0399Z" fill="#F4D8A0"/>
<path d="M41.6533 47.2634L45.4717 44.3242" stroke="#F4D8A0" stroke-width="0.146127" stroke-miterlimit="10"/>
<path d="M41.7194 47.3349C41.6754 47.3688 41.6096 47.3637 41.5724 47.3235C41.5353 47.2833 41.5409 47.2233 41.5849 47.1894C41.6289 47.1555 41.6947 47.1606 41.7319 47.2008C41.769 47.2409 41.7634 47.301 41.7194 47.3349Z" fill="#F4D8A0"/>
<path d="M56.3998 46.8305L50.1055 43.9458" stroke="#F4D8A0" stroke-width="0.146127" stroke-miterlimit="10"/>
<path d="M56.4441 46.746C56.4956 46.7696 56.5164 46.8268 56.4905 46.8737C56.4646 46.9207 56.4019 46.9396 56.3505 46.916C56.299 46.8925 56.2782 46.8353 56.3041 46.7883C56.3299 46.7413 56.3927 46.7224 56.4441 46.746Z" fill="#F4D8A0"/>
<path d="M45.4608 44.3214L50.0886 43.9404" stroke="#F4D8A0" stroke-width="0.146127" stroke-miterlimit="10"/>
<path d="M45.4692 44.4184C45.4118 44.4232 45.3611 44.3846 45.3559 44.3322C45.3507 44.2799 45.393 44.2336 45.4504 44.2289C45.5078 44.2242 45.5585 44.2628 45.5637 44.3151C45.5688 44.3675 45.5265 44.4137 45.4692 44.4184Z" fill="#F4D8A0"/>
<path d="M56.3996 46.8309L54.5202 42.1772" stroke="#F4D8A0" stroke-width="0.146127" stroke-miterlimit="10"/>
<path d="M56.4966 46.7937C56.5166 46.843 56.4889 46.8978 56.4348 46.9159C56.3808 46.9341 56.3208 46.9088 56.3009 46.8595C56.281 46.8102 56.3087 46.7555 56.3627 46.7373C56.4168 46.7192 56.4767 46.7444 56.4966 46.7937Z" fill="#F4D8A0"/>
<path d="M41.6246 47.2606L35.5391 43.9404" stroke="#F4D8A0" stroke-width="0.146127" stroke-miterlimit="10"/>
<path d="M41.6814 47.18C41.7308 47.207 41.747 47.2654 41.7174 47.3105C41.6878 47.3556 41.6238 47.3703 41.5743 47.3433C41.5249 47.3164 41.5088 47.2579 41.5384 47.2128C41.5679 47.1677 41.632 47.153 41.6814 47.18Z" fill="#F4D8A0"/>
<path d="M41.6533 47.2705V41.8276" stroke="#F4D8A0" stroke-width="0.146127" stroke-miterlimit="10"/>
<path d="M41.7565 47.27C41.7565 47.3225 41.7098 47.3651 41.6522 47.3651C41.5946 47.3651 41.5479 47.3225 41.5479 47.27C41.5479 47.2174 41.5946 47.1748 41.6522 47.1748C41.7098 47.1748 41.7565 47.2174 41.7565 47.27Z" fill="#F4D8A0"/>
</g>
<g filter="url(#filter1_d)">
<ellipse cx="48.1814" cy="51.6691" rx="9.89711" ry="9.02894" stroke="#E3B04B"/>
</g>
<g filter="url(#filter2_d)">
<path fill-rule="evenodd" clip-rule="evenodd" d="M52.8602 53.5307C52.8602 54.9634 51.5827 56.1288 50.0123 56.1288H49.063V56.9949C49.063 57.4736 48.6384 57.8609 48.1136 57.8609C47.5889 57.8609 47.1643 57.4736 47.1643 56.9949V56.1288H44.3164C43.7917 56.1288 43.3671 55.7415 43.3671 55.2628C43.3671 54.7841 43.7917 54.3967 44.3164 54.3967H45.2657V49.2005H44.3164C43.7917 49.2005 43.3671 48.8131 43.3671 48.3345C43.3671 47.8558 43.7917 47.4684 44.3164 47.4684H47.1643V46.6024C47.1643 46.1237 47.5889 45.7363 48.1136 45.7363C48.6384 45.7363 49.063 46.1237 49.063 46.6024V47.4684H50.0123C51.5827 47.4684 52.8602 48.6339 52.8602 50.0665C52.8602 50.7344 52.5749 51.3379 52.1195 51.7986C52.5749 52.2593 52.8602 52.8629 52.8602 53.5307ZM47.1643 50.9066V49.2005H50.1072C50.4748 49.2005 50.9299 49.544 50.9299 50.0665C50.9299 50.589 50.4361 50.9066 50.1072 50.9066H47.1643ZM47.1643 54.3967V52.6906H50.1072C50.4748 52.6906 50.9299 53.0342 50.9299 53.5567C50.9299 54.0792 50.4361 54.3967 50.1072 54.3967H47.1643Z" stroke="#E3B04B" stroke-width="0.292254"/>
</g>
</g>
<defs>
<filter id="filter0_d" x="0.97711" y="0.519591" width="68.0295" height="61.8439" filterUnits="userSpaceOnUse" color-interpolation-filters="sRGB">
<feFlood flood-opacity="0" result="BackgroundImageFix"/>
<feColorMatrix in="SourceAlpha" type="matrix" values="0 0 0 0 0 0 0 0 0 0 0 0 0 0 0 0 0 0 127 0"/>
<feOffset/>
<feGaussianBlur stdDeviation="0.511445"/>
<feColorMatrix type="matrix" values="0 0 0 0 0.970833 0 0 0 0 0.813392 0 0 0 0 0.501597 0 0 0 0.74 0"/>
<feBlend mode="normal" in2="BackgroundImageFix" result="effect1_dropShadow"/>
<feBlend mode="normal" in="SourceGraphic" in2="effect1_dropShadow" result="shape"/>
</filter>
<filter id="filter1_d" x="36.7614" y="41.1172" width="22.84" height="21.1037" filterUnits="userSpaceOnUse" color-interpolation-filters="sRGB">
<feFlood flood-opacity="0" result="BackgroundImageFix"/>
<feColorMatrix in="SourceAlpha" type="matrix" values="0 0 0 0 0 0 0 0 0 0 0 0 0 0 0 0 0 0 127 0"/>
<feOffset/>
<feGaussianBlur stdDeviation="0.511445"/>
<feColorMatrix type="matrix" values="0 0 0 0 0.970833 0 0 0 0 0.813392 0 0 0 0 0.501597 0 0 0 0.74 0"/>
<feBlend mode="normal" in2="BackgroundImageFix" result="effect1_dropShadow"/>
<feBlend mode="normal" in="SourceGraphic" in2="effect1_dropShadow" result="shape"/>
</filter>
<filter id="filter2_d" x="42.198" y="44.5674" width="11.8312" height="14.4626" filterUnits="userSpaceOnUse" color-interpolation-filters="sRGB">
<feFlood flood-opacity="0" result="BackgroundImageFix"/>
<feColorMatrix in="SourceAlpha" type="matrix" values="0 0 0 0 0 0 0 0 0 0 0 0 0 0 0 0 0 0 127 0"/>
<feOffset/>
<feGaussianBlur stdDeviation="0.511445"/>
<feColorMatrix type="matrix" values="0 0 0 0 0.970833 0 0 0 0 0.813392 0 0 0 0 0.501597 0 0 0 0.74 0"/>
<feBlend mode="normal" in2="BackgroundImageFix" result="effect1_dropShadow"/>
<feBlend mode="normal" in="SourceGraphic" in2="effect1_dropShadow" result="shape"/>
</filter>
</defs>
</svg>
