<svg width="46" height="46" viewBox="0 0 46 46" fill="none" xmlns="http://www.w3.org/2000/svg">
<path fill-rule="evenodd" clip-rule="evenodd" d="M46 23C46 35.7025 35.7025 46 23 46C10.2975 46 0 35.7025 0 23C0 10.2975 10.2975 0 23 0C35.7025 0 46 10.2975 46 23ZM11 24.8927V27.8224C11 29.3056 12.2024 30.5079 13.6856 30.5079H15.1504C15.5549 30.5079 15.8829 30.18 15.8829 29.7755V22.2071H13.6856C12.2024 22.2071 11 23.4095 11 24.8927ZM26.4298 18.7891C27.3721 18.7891 28.1388 19.5558 28.1388 20.4981V24.4044C28.1388 25.3467 27.3721 26.1134 26.4298 26.1134H26.1857V27.8224C26.1857 28.1066 26.0213 28.3651 25.7639 28.4857C25.6648 28.5321 25.5587 28.5548 25.4533 28.5548C25.2851 28.5548 25.1186 28.4969 24.9843 28.385L22.2583 26.1134H20.5704C19.628 26.1134 18.8614 25.3467 18.8614 24.4044V20.4981C18.8614 19.5558 19.628 18.7891 20.5704 18.7891H26.4298ZM22.5235 23.1837H24.4767C24.8812 23.1837 25.2091 22.8557 25.2091 22.4512C25.2091 22.0467 24.8812 21.7188 24.4767 21.7188H22.5235C22.119 21.7188 21.7911 22.0467 21.7911 22.4512C21.7911 22.8557 22.119 23.1837 22.5235 23.1837ZM20.8145 33.5353C20.8145 34.3443 21.4703 35.0002 22.2794 35.0002H24.7208C25.5299 35.0002 26.1857 34.3443 26.1857 33.5353C26.1857 32.7263 25.5299 32.0705 24.7208 32.0705H22.2794C21.4703 32.0705 20.8145 32.7263 20.8145 33.5353ZM31.6056 32.1193V31.9728H33.0705V32.1193C33.0705 33.3309 32.0848 34.3166 30.8732 34.3166H27.5439C27.6129 34.0676 27.6505 33.8059 27.6505 33.5353C27.6505 33.2999 27.6218 33.0712 27.5692 32.8517H30.8732C31.2771 32.8517 31.6056 32.5231 31.6056 32.1193ZM33.3146 22.2071H31.1173V29.7755C31.1173 30.18 31.4452 30.5079 31.8497 30.5079H33.3146C34.7978 30.5079 36.0001 29.3056 36.0001 27.8224V24.8927C36.0001 23.4094 34.7978 22.2071 33.3146 22.2071ZM23.5002 10C26.3174 10 28.966 11.0971 30.958 13.0891C32.9501 15.0812 34.0472 17.7297 34.0472 20.547V20.7423H31.1175V20.547C31.1175 16.3468 27.7004 12.9297 23.5002 12.9297C19.3 12.9297 15.883 16.3468 15.883 20.547V20.7423H12.9533V20.547C12.9533 17.7297 14.0503 15.0812 16.0424 13.0891C18.0344 11.0971 20.683 10 23.5002 10Z" fill="#E3B04B"/>
</svg>
