<svg width="46" height="46" viewBox="0 0 46 46" fill="none" xmlns="http://www.w3.org/2000/svg">
<path fill-rule="evenodd" clip-rule="evenodd" d="M23 46C35.7025 46 46 35.7025 46 23C46 10.2975 35.7025 0 23 0C10.2975 0 0 10.2975 0 23C0 35.7025 10.2975 46 23 46ZM33.0938 17.0337C33.2101 17.0163 33.3175 16.9662 33.4063 16.89L38.0001 14.025V26.0625L34.3176 27.5226L25.2838 19.6938C25.1688 19.5938 25.0226 19.5413 24.8751 19.5413C24.8001 19.5413 24.7276 19.5538 24.6551 19.5813C23.7888 19.9063 22.4951 20.9575 20.8938 22.2963C20.6001 22.5426 20.3251 22.7713 20.0863 22.9663C19.8238 23.1788 19.5051 23.2913 19.1651 23.2913H18.6651C18.1076 23.2913 17.6063 22.9813 17.3575 22.4826C17.0751 21.9188 17.185 21.2401 17.6313 20.7938L20.8888 17.5363C21.1017 17.4069 21.3169 17.2658 21.5378 17.1209L21.5601 17.1063L21.5609 17.1058C22.5443 16.4596 23.5617 15.7912 24.8751 15.7912C25.648 15.7912 26.4124 16.0425 27.2978 16.3335L27.3176 16.34C28.7701 16.82 30.5813 17.4162 33.0938 17.0337ZM13.6538 27.0413C13.245 27.0413 12.8638 27.245 12.6375 27.585L11.955 28.6088C11.8213 28.8088 11.75 29.045 11.75 29.2863V29.5701C11.75 30.2451 12.2963 30.7913 12.9713 30.7913C13.38 30.7913 13.7613 30.5876 13.9875 30.2476L14.67 29.2238C14.8038 29.0238 14.8751 28.7876 14.8751 28.5463V28.2625C14.875 27.5875 14.3288 27.0413 13.6538 27.0413ZM16.1113 28.2913H16.1538C16.8288 28.2913 17.375 28.8375 17.375 29.5126V29.7589C17.375 30.0238 17.2888 30.2801 17.13 30.4914L15.8663 32.1776C15.635 32.4851 15.2738 32.6664 14.8888 32.6664H14.8463C14.1713 32.6664 13.625 32.1201 13.625 31.4451V31.1988C13.625 30.9338 13.7113 30.6776 13.87 30.4663L15.1338 28.78C15.365 28.4725 15.7263 28.2913 16.1113 28.2913ZM18.6538 29.5413H18.6113C18.2263 29.5413 17.865 29.7225 17.6338 30.03L16.37 31.7163C16.2113 31.9275 16.125 32.1838 16.125 32.4488V32.695C16.125 33.37 16.6713 33.9163 17.3463 33.9163H17.3888C17.7738 33.9163 18.135 33.7351 18.3663 33.4276L19.6301 31.7413C19.7888 31.5301 19.875 31.2738 19.875 31.0088V30.7625C19.875 30.0875 19.3288 29.5413 18.6538 29.5413ZM21.1113 30.7913H21.1538C21.8288 30.7913 22.375 31.3375 22.375 32.0126H22.3738V32.2588C22.3738 32.5226 22.2888 32.7801 22.1301 32.9913L20.8663 34.6776C20.635 34.9851 20.2738 35.1663 19.8888 35.1663H19.8463C19.1713 35.1663 18.625 34.62 18.625 33.945V33.6988C18.625 33.4338 18.7113 33.1775 18.87 32.9663L20.1338 31.28C20.365 30.9725 20.7263 30.7913 21.1113 30.7913ZM24.3575 34.5213L23.2262 33.5576C23.2091 33.5844 23.1962 33.6135 23.1833 33.6425C23.1678 33.6773 23.1524 33.7119 23.13 33.7426L22.3262 34.8138L23.1675 35.5938C23.4349 35.8601 23.83 35.8451 24.0662 35.6088C24.3775 35.2976 24.5012 34.7013 24.3575 34.5213ZM24.7713 20.9051L33.8739 28.8751C34.1139 29.0838 34.2501 29.3825 34.2503 29.7037C34.2503 30.3025 33.7615 30.7912 33.1628 30.7912H32.9952C32.7415 30.7912 32.494 30.7025 32.299 30.5387L32.1965 30.4537C32.1865 30.445 32.1752 30.435 32.164 30.4262L25.2752 24.6862C25.0114 24.4674 24.6177 24.4999 24.3952 24.7662C24.1727 25.0324 24.2089 25.4262 24.4739 25.6474L31.3852 31.4062C31.6177 31.6112 31.7489 31.9037 31.7489 32.2162C31.7489 32.8087 31.2677 33.2912 30.6739 33.2912H30.4902C30.2389 33.2912 29.9965 33.2038 29.8027 33.0437L22.7752 27.1874C22.5089 26.965 22.1152 27.0025 21.8939 27.2662C21.6727 27.5312 21.7089 27.925 21.9739 28.1462L27.6627 32.8862C27.8764 33.065 28.0002 33.3263 28.0002 33.605C28.0002 34.1213 27.5802 34.5413 27.0639 34.5413C26.6001 34.5413 26.1451 34.3813 25.7976 34.1038L25.2001 33.5963C25.1992 33.5954 25.1983 33.5946 25.1975 33.594C25.196 33.5927 25.1947 33.5916 25.1939 33.59L23.6251 32.2562V32.0125C23.6251 30.65 22.5164 29.5412 21.1539 29.5412H21.1101C21.0398 29.5412 20.9718 29.5521 20.9038 29.5631C20.8714 29.5683 20.839 29.5735 20.8063 29.5775C20.3826 28.815 19.5713 28.2912 18.6101 28.2912C18.5371 28.2912 18.4659 28.3027 18.394 28.3142C18.365 28.3189 18.3358 28.3235 18.3063 28.3275C17.8826 27.565 17.0713 27.0413 16.11 27.0413C16.0362 27.0413 15.9642 27.0529 15.8923 27.0646C15.8645 27.0692 15.8367 27.0737 15.8088 27.0775C15.3875 26.315 14.585 25.7913 13.6538 25.7913C12.8238 25.7913 12.0551 26.2038 11.5976 26.8913L11.25 27.4125L8 26.0613V14L10.6038 15.1287C11.5726 15.9349 12.8463 16.2887 14.1051 16.0849C16.5938 15.6937 18.8213 15.7212 20.7813 16.1212L20.7556 16.138C20.5806 16.2523 20.408 16.3651 20.2376 16.4687L16.7475 19.91C15.9188 20.7388 15.7151 21.9963 16.2401 23.0413C16.7025 23.9663 17.6313 24.5413 18.6663 24.5413H19.1663C19.7975 24.5413 20.3888 24.3325 20.8775 23.9338C21.12 23.7363 21.3988 23.5038 21.6963 23.2538C22.675 22.4351 23.97 21.3525 24.7713 20.9051Z" fill="#E3B04B"/>
</svg>
