<svg width="46" height="46" viewBox="0 0 46 46" fill="none" xmlns="http://www.w3.org/2000/svg">
<path fill-rule="evenodd" clip-rule="evenodd" d="M23 46C35.7025 46 46 35.7025 46 23C46 10.2975 35.7025 0 23 0C10.2975 0 0 10.2975 0 23C0 35.7025 10.2975 46 23 46ZM28.7949 26.0716C30.1621 26.5234 31.6049 26.7533 33.0742 26.7533C34.1361 26.7533 35 27.6172 35.0001 28.679V33.0742C35.0001 34.1361 34.1361 35 33.0742 35C20.9024 35 11 25.0977 11 12.9258C11 11.8639 11.8639 11 12.9258 11H17.3333C18.3952 11 19.2591 11.8639 19.2591 12.9259C19.2591 14.3959 19.4896 15.8379 19.9433 17.2123C20.1641 17.9154 19.9798 18.6648 19.4661 19.1778L17.4889 21.8061C19.1367 24.9121 21.0644 26.8393 24.194 28.5098L26.8926 26.4727C27.3014 26.0527 28.125 25.8431 28.7949 26.0716Z" fill="#E3B04B"/>
</svg>
