<svg width="46" height="46" viewBox="0 0 46 46" fill="none" xmlns="http://www.w3.org/2000/svg">
<path fill-rule="evenodd" clip-rule="evenodd" d="M23 46C35.7025 46 46 35.7025 46 23C46 10.2975 35.7025 0 23 0C10.2975 0 0 10.2975 0 23C0 35.7025 10.2975 46 23 46ZM23.2014 9.00206C26.3393 9.06563 29.1611 10.7293 30.7498 13.4524C32.3737 16.2358 32.4181 19.5792 30.8687 22.3961L24.3775 34.197L24.3687 34.2126C24.0831 34.7056 23.5715 35 23.0001 35C22.4286 35 21.917 34.7057 21.6314 34.2126L21.6226 34.197L15.1314 22.3961C13.5819 19.5792 13.6263 16.2358 15.2502 13.4524C16.8389 10.7293 19.6607 9.06563 22.7986 9.00206C22.9326 8.99931 23.0674 8.99931 23.2014 9.00206ZM19.3189 17.125C19.3189 19.1411 20.9702 20.7813 23 20.7813C25.0298 20.7813 26.6811 19.1411 26.6811 17.125C26.6811 15.109 25.0298 13.4688 23 13.4688C20.9702 13.4688 19.3189 15.109 19.3189 17.125Z" fill="#E3B04B"/>
</svg>
