<svg width="87" height="86" viewBox="0 0 87 86" fill="none" xmlns="http://www.w3.org/2000/svg">
<g filter="url(#filter0_d)">
<mask id="mask0" mask-type="alpha" maskUnits="userSpaceOnUse" x="11" y="11" width="65" height="64">
<mask id="path-1-inside-1" mask-type="luminance" fill="white">
<path fill-rule="evenodd" clip-rule="evenodd" d="M43.7359 11.6112C39.7778 11.6112 35.8198 12.3283 32.2216 13.7632C27.0042 15.736 22.3265 19.1437 18.908 23.6276C14.4104 29.3669 11.8917 36.3612 11.8917 43.535C12.0715 54.4749 17.8288 64.5182 27.184 70.0779C42.2964 79.045 61.7268 74.2027 70.7221 59.3172C79.7175 44.2521 74.8599 24.8827 59.9276 15.9156C55.7898 13.4045 51.112 11.9699 46.2545 11.6112H43.7359ZM48.5661 61.1951C49.6598 60.8915 50.7288 60.4902 51.7485 59.9808C56.066 57.8228 58.5426 54.2228 58.5422 50.1041C58.5422 45.9862 56.6027 42.7748 52.9339 40.8173C50.4213 39.477 47.5222 38.9393 44.7184 38.4192L44.7171 38.419C42.6169 38.0297 40.4448 37.6269 39.2164 36.9716C38.59 36.6372 38.59 36.5506 38.59 35.9872C38.59 35.654 39.1329 35.0451 40.1711 34.5262C42.7415 33.2423 46.3664 33.347 48.2523 34.7609C50.3327 36.3203 53.2828 35.8987 54.843 33.8198C56.4031 31.7409 55.9816 28.7914 53.9014 27.232C52.3532 26.0716 50.5261 25.2419 48.5661 24.7484V23.5962C48.5661 20.9975 46.4583 18.8906 43.8585 18.8906C41.2586 18.8906 39.1508 20.9975 39.1508 23.5962V24.8896C38.0542 25.1936 36.9828 25.5979 35.9606 26.1089C31.6481 28.2641 29.1747 31.8648 29.1747 35.9875C29.1747 40.1055 31.1142 43.3168 34.7834 45.2744C37.2956 46.6146 40.1947 47.1523 42.9985 47.6724L42.9998 47.6726C45.1003 48.0619 47.2721 48.4647 48.5005 49.12C49.1269 49.4541 49.1269 49.541 49.1269 50.1041C49.1269 50.4263 48.5699 51.0474 47.5376 51.5635C44.9695 52.8472 41.3477 52.7424 39.4647 51.3307C37.3848 49.7713 34.4341 50.1932 32.8739 52.2718C31.3138 54.3511 31.7356 57.3005 33.8155 58.8596C35.3637 60.02 37.1912 60.8491 39.1508 61.3423V62.4954C39.1508 65.0942 41.2586 67.201 43.8585 67.201C46.4583 67.201 48.5661 65.0942 48.5661 62.4954V61.1951Z"/>
</mask>
<path fill-rule="evenodd" clip-rule="evenodd" d="M43.7359 11.6112C39.7778 11.6112 35.8198 12.3283 32.2216 13.7632C27.0042 15.736 22.3265 19.1437 18.908 23.6276C14.4104 29.3669 11.8917 36.3612 11.8917 43.535C12.0715 54.4749 17.8288 64.5182 27.184 70.0779C42.2964 79.045 61.7268 74.2027 70.7221 59.3172C79.7175 44.2521 74.8599 24.8827 59.9276 15.9156C55.7898 13.4045 51.112 11.9699 46.2545 11.6112H43.7359ZM48.5661 61.1951C49.6598 60.8915 50.7288 60.4902 51.7485 59.9808C56.066 57.8228 58.5426 54.2228 58.5422 50.1041C58.5422 45.9862 56.6027 42.7748 52.9339 40.8173C50.4213 39.477 47.5222 38.9393 44.7184 38.4192L44.7171 38.419C42.6169 38.0297 40.4448 37.6269 39.2164 36.9716C38.59 36.6372 38.59 36.5506 38.59 35.9872C38.59 35.654 39.1329 35.0451 40.1711 34.5262C42.7415 33.2423 46.3664 33.347 48.2523 34.7609C50.3327 36.3203 53.2828 35.8987 54.843 33.8198C56.4031 31.7409 55.9816 28.7914 53.9014 27.232C52.3532 26.0716 50.5261 25.2419 48.5661 24.7484V23.5962C48.5661 20.9975 46.4583 18.8906 43.8585 18.8906C41.2586 18.8906 39.1508 20.9975 39.1508 23.5962V24.8896C38.0542 25.1936 36.9828 25.5979 35.9606 26.1089C31.6481 28.2641 29.1747 31.8648 29.1747 35.9875C29.1747 40.1055 31.1142 43.3168 34.7834 45.2744C37.2956 46.6146 40.1947 47.1523 42.9985 47.6724L42.9998 47.6726C45.1003 48.0619 47.2721 48.4647 48.5005 49.12C49.1269 49.4541 49.1269 49.541 49.1269 50.1041C49.1269 50.4263 48.5699 51.0474 47.5376 51.5635C44.9695 52.8472 41.3477 52.7424 39.4647 51.3307C37.3848 49.7713 34.4341 50.1932 32.8739 52.2718C31.3138 54.3511 31.7356 57.3005 33.8155 58.8596C35.3637 60.02 37.1912 60.8491 39.1508 61.3423V62.4954C39.1508 65.0942 41.2586 67.201 43.8585 67.201C46.4583 67.201 48.5661 65.0942 48.5661 62.4954V61.1951Z" fill="#C4C4C4"/>
<path d="M32.2216 13.7632L32.6005 14.7653L32.6095 14.7619L32.6184 14.7583L32.2216 13.7632ZM18.908 23.6276L19.7513 24.2885L19.7557 24.2828L19.76 24.2772L18.908 23.6276ZM11.8917 43.535H10.8204V43.5438L10.8205 43.5526L11.8917 43.535ZM27.184 70.0779L26.6366 70.9988L26.6373 70.9992L27.184 70.0779ZM70.7221 59.3172L71.6391 59.8713L71.642 59.8664L70.7221 59.3172ZM59.9276 15.9156L59.3717 16.8315L59.376 16.834L59.9276 15.9156ZM46.2545 11.6112L46.3334 10.5428L46.294 10.5399H46.2545V11.6112ZM51.7485 59.9808L52.2273 60.9392L52.2274 60.9391L51.7485 59.9808ZM48.5661 61.1951L48.2795 60.1628L47.4948 60.3807V61.1951H48.5661ZM58.5422 50.1041H57.4709V50.1042L58.5422 50.1041ZM52.9339 40.8173L53.4382 39.872L53.4381 39.872L52.9339 40.8173ZM44.7184 38.4192L44.9138 37.3658L44.9135 37.3658L44.7184 38.4192ZM44.7171 38.419L44.5219 39.4724L44.5221 39.4724L44.7171 38.419ZM39.2164 36.9716L38.7119 37.9167L38.7121 37.9168L39.2164 36.9716ZM40.1711 34.5262L39.6924 33.5678L39.6922 33.5679L40.1711 34.5262ZM48.2523 34.7609L47.6096 35.6181L47.6097 35.6181L48.2523 34.7609ZM54.843 33.8198L55.6999 34.4628V34.4628L54.843 33.8198ZM53.9014 27.232L54.5441 26.3748L54.544 26.3747L53.9014 27.232ZM48.5661 24.7484H47.4948V25.5835L48.3045 25.7873L48.5661 24.7484ZM39.1508 24.8896L39.437 25.922L40.2221 25.7043V24.8896H39.1508ZM35.9606 26.1089L36.4395 27.0673L36.4397 27.0672L35.9606 26.1089ZM34.7834 45.2744L34.2791 46.2196L34.2791 46.2196L34.7834 45.2744ZM42.9985 47.6724L42.8032 48.7258L42.8035 48.7258L42.9985 47.6724ZM42.9998 47.6726L43.195 46.6192L43.1949 46.6192L42.9998 47.6726ZM48.5005 49.12L47.9962 50.0653L47.9964 50.0653L48.5005 49.12ZM47.5376 51.5635L48.0166 52.5218L48.0167 52.5217L47.5376 51.5635ZM39.4647 51.3307L38.822 52.1879L38.822 52.1879L39.4647 51.3307ZM32.8739 52.2718L32.0171 51.6287L32.017 51.6288L32.8739 52.2718ZM33.8155 58.8596L33.1729 59.7168L33.1729 59.7169L33.8155 58.8596ZM39.1508 61.3423H40.2221V60.5071L39.4123 60.3033L39.1508 61.3423ZM32.6184 14.7583C36.0819 13.3772 39.9043 12.6825 43.7359 12.6825V10.5399C39.6513 10.5399 35.5576 11.2795 31.8247 12.7681L32.6184 14.7583ZM19.76 24.2772C23.0525 19.9585 27.5639 16.6698 32.6005 14.7653L31.8427 12.7611C26.4446 14.8023 21.6004 18.329 18.056 22.9781L19.76 24.2772ZM12.9631 43.535C12.9631 36.6131 15.3936 29.8491 19.7513 24.2885L18.0648 22.9668C13.4271 28.8847 10.8204 36.1092 10.8204 43.535H12.9631ZM27.7313 69.1569C18.7004 63.7899 13.1367 54.0913 12.9629 43.5174L10.8205 43.5526C11.0063 54.8585 16.9572 65.2464 26.6366 70.9988L27.7313 69.1569ZM69.8052 58.7631C61.1173 73.14 42.3423 77.8264 27.7306 69.1565L26.6373 70.9992C42.2506 80.2635 62.3364 75.2654 71.6391 59.8713L69.8052 58.7631ZM59.376 16.834C73.7995 25.4955 78.4964 44.2074 69.8023 58.7679L71.642 59.8664C80.9385 44.2968 75.9204 24.2698 60.4791 14.9971L59.376 16.834ZM46.1756 12.6796C50.8739 13.0266 55.3867 14.4131 59.3717 16.8314L60.4834 14.9997C56.1928 12.3959 51.3501 10.9133 46.3334 10.5428L46.1756 12.6796ZM43.7359 12.6825H46.2545V10.5399H43.7359V12.6825ZM51.2696 59.0224C50.3165 59.4986 49.3125 59.876 48.2795 60.1628L48.8527 62.2274C50.0072 61.9069 51.1411 61.4818 52.2273 60.9392L51.2696 59.0224ZM57.4709 50.1042C57.4712 53.7381 55.3004 57.0078 51.2695 59.0225L52.2274 60.9391C56.8317 58.6378 59.6139 54.7074 59.6136 50.1041L57.4709 50.1042ZM52.4295 41.7625C55.7537 43.5361 57.4709 46.3867 57.4709 50.1041H59.6136C59.6136 45.5856 57.4517 42.0134 53.4382 39.872L52.4295 41.7625ZM44.523 39.4726C47.3586 39.9985 50.0884 40.5137 52.4296 41.7625L53.4381 39.872C50.7541 38.4403 47.6857 37.88 44.9138 37.3658L44.523 39.4726ZM44.5221 39.4724L44.5233 39.4726L44.9135 37.3658L44.9122 37.3656L44.5221 39.4724ZM38.7121 37.9168C39.4512 38.3111 40.4108 38.6007 41.3887 38.8365C42.3808 39.0758 43.4783 39.2789 44.5219 39.4724L44.9124 37.3656C43.8557 37.1697 42.8171 36.9769 41.891 36.7535C40.9506 36.5268 40.21 36.2873 39.7207 36.0263L38.7121 37.9168ZM37.5186 35.9872C37.5186 36.1078 37.5173 36.2831 37.5344 36.4443C37.5537 36.6271 37.6018 36.8639 37.7435 37.1061C37.9998 37.5442 38.4482 37.7759 38.7119 37.9167L39.7209 36.0265C39.6499 35.9886 39.5965 35.9588 39.5552 35.9343C39.5135 35.9097 39.4922 35.8952 39.4836 35.8889C39.4753 35.8829 39.4875 35.8908 39.5092 35.913C39.5327 35.937 39.5637 35.9741 39.593 36.0243C39.6227 36.075 39.6416 36.1236 39.653 36.1632C39.6635 36.1998 39.6655 36.222 39.6652 36.219C39.6647 36.2147 39.6632 36.1971 39.6623 36.1545C39.6619 36.1341 39.6616 36.1106 39.6615 36.0822C39.6613 36.0536 39.6613 36.0229 39.6613 35.9872H37.5186ZM39.6922 33.5679C39.096 33.8659 38.604 34.2078 38.2435 34.5591C38.064 34.734 37.8988 34.929 37.772 35.1407C37.6543 35.3371 37.5186 35.6326 37.5186 35.9872H39.6613C39.6613 36.1751 39.5935 36.2696 39.6101 36.2419C39.6175 36.2295 39.6529 36.1774 39.7389 36.0936C39.9095 35.9274 40.208 35.7055 40.6501 35.4846L39.6922 33.5679ZM48.8949 33.9037C47.718 33.0214 46.0998 32.6074 44.4994 32.561C42.8846 32.5142 41.1566 32.8364 39.6924 33.5678L40.6499 35.4847C41.756 34.9321 43.1256 34.6647 44.4373 34.7028C45.7634 34.7412 46.9006 35.0865 47.6096 35.6181L48.8949 33.9037ZM53.9861 33.1767C52.781 34.7826 50.5021 35.1084 48.8948 33.9036L47.6097 35.6181C50.1634 37.5323 53.7847 37.0148 55.6999 34.4628L53.9861 33.1767ZM53.2588 28.0892C54.8655 29.2937 55.1908 31.5714 53.9861 33.1767L55.6999 34.4628C57.6153 31.9103 57.0976 28.2891 54.5441 26.3748L53.2588 28.0892ZM48.3045 25.7873C50.1436 26.2504 51.8376 27.024 53.2589 28.0893L54.544 26.3747C52.8689 25.1193 50.9085 24.2334 48.8277 23.7095L48.3045 25.7873ZM47.4948 23.5962V24.7484H49.6374V23.5962H47.4948ZM43.8585 19.962C45.8671 19.962 47.4948 21.5896 47.4948 23.5962H49.6374C49.6374 20.4053 47.0496 17.8193 43.8585 17.8193V19.962ZM40.2221 23.5962C40.2221 21.5896 41.8498 19.962 43.8585 19.962V17.8193C40.6673 17.8193 38.0795 20.4053 38.0795 23.5962H40.2221ZM40.2221 24.8896V23.5962H38.0795V24.8896H40.2221ZM36.4397 27.0672C37.3963 26.5889 38.4028 26.2087 39.437 25.922L38.8646 23.8572C37.7057 24.1784 36.5692 24.6069 35.4815 25.1507L36.4397 27.0672ZM30.246 35.9875C30.246 32.3484 32.4148 29.0786 36.4395 27.0673L35.4817 25.1506C30.8813 27.4496 28.1033 31.3811 28.1033 35.9875H30.246ZM35.2877 44.3291C31.9632 42.5555 30.246 39.7049 30.246 35.9875H28.1033C28.1033 40.506 30.2653 44.0782 34.2791 46.2196L35.2877 44.3291ZM43.1939 46.619C40.3583 46.0931 37.6285 45.5779 35.2876 44.3291L34.2791 46.2196C36.9628 47.6513 40.0312 48.2116 42.8032 48.7258L43.1939 46.619ZM43.1949 46.6192L43.1936 46.619L42.8035 48.7258L42.8047 48.726L43.1949 46.6192ZM49.0048 48.1748C48.2657 47.7805 47.3062 47.4909 46.3284 47.2551C45.3363 47.0159 44.2388 46.8127 43.195 46.6192L42.8045 48.726C43.8613 48.9219 44.9 49.1147 45.8261 49.3381C46.7663 49.5648 47.507 49.8043 47.9962 50.0653L49.0048 48.1748ZM50.1983 50.1041C50.1983 49.9835 50.1996 49.8083 50.1826 49.6471C50.1632 49.4643 50.1151 49.2276 49.9734 48.9853C49.7171 48.5471 49.2686 48.3155 49.0047 48.1747L47.9964 50.0653C48.0673 50.1032 48.1207 50.1329 48.162 50.1573C48.2036 50.182 48.2248 50.1964 48.2334 50.2027C48.2417 50.2087 48.2294 50.2007 48.2077 50.1785C48.1842 50.1545 48.1533 50.1174 48.1239 50.0671C48.1096 50.0427 48.0973 50.018 48.087 49.9935C48.0768 49.9692 48.0693 49.9471 48.064 49.9283C48.0535 49.8917 48.0514 49.8694 48.0518 49.8725C48.0522 49.8767 48.0537 49.8944 48.0546 49.9369C48.0551 49.9572 48.0553 49.9808 48.0555 50.0091C48.0556 50.0377 48.0556 50.0684 48.0556 50.1041H50.1983ZM48.0167 52.5217C48.612 52.2242 49.1042 51.8801 49.465 51.5304C49.6445 51.3564 49.8099 51.1633 49.9374 50.9551C50.0529 50.7665 50.1983 50.4672 50.1983 50.1041H48.0556C48.0556 49.9021 48.1314 49.8014 48.1102 49.8359C48.101 49.851 48.0626 49.9057 47.9737 49.9918C47.7979 50.1622 47.4956 50.3868 47.0586 50.6052L48.0167 52.5217ZM38.822 52.1879C39.9976 53.0692 41.6144 53.4826 43.2133 53.5287C44.8267 53.5753 46.5535 53.2531 48.0166 52.5218L47.0587 50.6052C45.9537 51.1575 44.5854 51.4248 43.2751 51.387C41.9504 51.3487 40.8148 51.0039 40.1073 50.4735L38.822 52.1879ZM33.7308 52.9149C34.936 51.3092 37.2155 50.9834 38.822 52.1879L40.1073 50.4736C37.5541 48.5592 33.9321 49.0772 32.0171 51.6287L33.7308 52.9149ZM34.4581 58.0024C32.8517 56.7982 32.5261 54.5205 33.7309 52.9148L32.017 51.6288C30.1016 54.1816 30.6196 57.8028 33.1729 59.7168L34.4581 58.0024ZM39.4123 60.3033C37.5733 59.8405 35.8791 59.0675 34.458 58.0023L33.1729 59.7169C34.8482 60.9725 36.809 61.8577 38.8894 62.3812L39.4123 60.3033ZM40.2221 62.4954V61.3423H38.0795V62.4954H40.2221ZM43.8585 66.1297C41.8498 66.1297 40.2221 64.502 40.2221 62.4954H38.0795C38.0795 65.6863 40.6673 68.2723 43.8585 68.2723V66.1297ZM47.4948 62.4954C47.4948 64.502 45.8671 66.1297 43.8585 66.1297V68.2723C47.0496 68.2723 49.6374 65.6863 49.6374 62.4954H47.4948ZM47.4948 61.1951V62.4954H49.6374V61.1951H47.4948Z" fill="#E3B04B" mask="url(#path-1-inside-1)"/>
</mask>
<g mask="url(#mask0)">
<path d="M60.9648 63.1919L60.9464 63.2238" stroke="#F4D8A0" stroke-width="1.07134" stroke-miterlimit="10"/>
<path d="M60.7018 63.0401C60.7857 62.8949 60.9713 62.8452 61.1164 62.929C61.2615 63.0128 61.3113 63.1985 61.2275 63.3436C61.1436 63.4887 60.958 63.5384 60.8129 63.4546C60.6678 63.3708 60.618 63.1852 60.7018 63.0401Z" fill="#F4D8A0"/>
<path d="M83.4337 70.9122L74.1848 51.0781" stroke="#F4D8A0" stroke-width="1.07134" stroke-miterlimit="10"/>
<path d="M54.9572 88.0562L40.7361 69.9137L40.7611 69.8704" stroke="#F4D8A0" stroke-width="1.07134" stroke-miterlimit="10"/>
<path d="M60.9468 63.2235L40.7621 69.8712" stroke="#F4D8A0" stroke-width="1.07134" stroke-miterlimit="10"/>
<path d="M60.8499 62.9355C61.009 62.883 61.1806 62.9696 61.2331 63.1287C61.2855 63.2879 61.199 63.4595 61.0398 63.5119C60.8807 63.5644 60.7091 63.4779 60.6566 63.3187C60.6042 63.1595 60.6907 62.9879 60.8499 62.9355Z" fill="#F4D8A0"/>
<path d="M74.1667 51.0435L74.1852 51.0754" stroke="#F4D8A0" stroke-width="1.07134" stroke-miterlimit="10"/>
<path d="M73.905 51.1959C73.8212 51.0508 73.8709 50.8651 74.016 50.7813C74.1611 50.6975 74.3468 50.7472 74.4306 50.8923C74.5144 51.0375 74.4647 51.2231 74.3195 51.3069C74.1744 51.3907 73.9888 51.341 73.905 51.1959Z" fill="#F4D8A0"/>
<path d="M40.6462 69.8706L35.4766 53.2463" stroke="#F4D8A0" stroke-width="1.07134" stroke-miterlimit="10"/>
<path d="M40.9347 69.7782C40.9844 69.9382 40.895 70.1083 40.7349 70.158C40.5749 70.2078 40.4048 70.1184 40.3551 69.9583C40.3053 69.7983 40.3948 69.6282 40.5548 69.5785C40.7148 69.5287 40.8849 69.6181 40.9347 69.7782Z" fill="#F4D8A0"/>
<path d="M35.4592 53.2146L35.4776 53.2465" stroke="#F4D8A0" stroke-width="1.07134" stroke-miterlimit="10"/>
<path d="M35.1967 53.3669C35.1129 53.2218 35.1626 53.0361 35.3078 52.9523C35.4529 52.8685 35.6385 52.9183 35.7223 53.0634C35.8061 53.2085 35.7564 53.3941 35.6113 53.4779C35.4662 53.5617 35.2805 53.512 35.1967 53.3669Z" fill="#F4D8A0"/>
<path d="M15.2057 52.7264L11.4247 73.3414" stroke="#F4D8A0" stroke-width="1.07134" stroke-miterlimit="10"/>
<path d="M14.9094 52.6719C14.9396 52.5071 15.0978 52.3979 15.2626 52.4281C15.4274 52.4583 15.5366 52.6165 15.5064 52.7813C15.4762 52.9462 15.318 53.0553 15.1532 53.0251C14.9883 52.9949 14.8792 52.8367 14.9094 52.6719Z" fill="#F4D8A0"/>
<path d="M35.4761 99.8555L40.6708 69.9145L40.6457 69.8711" stroke="#F4D8A0" stroke-width="1.07134" stroke-miterlimit="10"/>
<path d="M15.2268 52.6947L15.2084 52.7266" stroke="#F4D8A0" stroke-width="1.07134" stroke-miterlimit="10"/>
<path d="M14.9627 52.5429C15.0465 52.3977 15.2322 52.348 15.3773 52.4318C15.5224 52.5156 15.5721 52.7013 15.4883 52.8464C15.4045 52.9915 15.2189 53.0412 15.0737 52.9574C14.9286 52.8736 14.8789 52.688 14.9627 52.5429Z" fill="#F4D8A0"/>
<path d="M11.424 73.3394L11.3989 73.3827L19.1974 91.4384" stroke="#F4D8A0" stroke-width="1.07134" stroke-miterlimit="10"/>
<path d="M11.3115 73.3407L11.3365 73.3841L-15.5561 91.4398" stroke="#F4D8A0" stroke-width="1.07134" stroke-miterlimit="10"/>
<path d="M72.3606 16.7237L72.3422 16.6918" stroke="#F4D8A0" stroke-width="1.07134" stroke-miterlimit="10"/>
<path d="M72.625 16.5719C72.7088 16.7171 72.6591 16.9027 72.514 16.9865C72.3689 17.0703 72.1832 17.0206 72.0994 16.8754C72.0156 16.7303 72.0654 16.5447 72.2105 16.4609C72.3556 16.3771 72.5413 16.4268 72.625 16.5719Z" fill="#F4D8A0"/>
<path d="M74.1667 51.044L74.1852 51.0121" stroke="#F4D8A0" stroke-width="1.07134" stroke-miterlimit="10"/>
<path d="M74.4306 51.1959C74.3468 51.341 74.1611 51.3907 74.016 51.3069C73.8709 51.2231 73.8212 51.0375 73.905 50.8923C73.9888 50.7472 74.1744 50.6975 74.3195 50.7813C74.4647 50.8651 74.5144 51.0508 74.4306 51.1959Z" fill="#F4D8A0"/>
<path d="M58.8777 17.9045L58.8593 17.9364" stroke="#F4D8A0" stroke-width="1.07134" stroke-miterlimit="10"/>
<path d="M58.6158 17.7531C58.6996 17.608 58.8852 17.5582 59.0303 17.642C59.1755 17.7258 59.2252 17.9115 59.1414 18.0566C59.0576 18.2017 58.872 18.2514 58.7268 18.1676C58.5817 18.0839 58.532 17.8982 58.6158 17.7531Z" fill="#F4D8A0"/>
<path d="M47.7043 37.8595L58.8627 17.9386" stroke="#F4D8A0" stroke-width="1.07134" stroke-miterlimit="10"/>
<path d="M47.9693 38.0091C47.8875 38.1554 47.7025 38.2076 47.5563 38.1257C47.41 38.0438 47.3579 37.8589 47.4397 37.7126C47.5216 37.5664 47.7066 37.5142 47.8528 37.5961C47.999 37.678 48.0512 37.8629 47.9693 38.0091Z" fill="#F4D8A0"/>
<path d="M95.3274 43.1515L95.3524 43.1949L74.188 51.0137" stroke="#F4D8A0" stroke-width="1.07134" stroke-miterlimit="10"/>
<path d="M60.9478 63.1603L60.9662 63.1922" stroke="#F4D8A0" stroke-width="1.07134" stroke-miterlimit="10"/>
<path d="M60.6818 63.3122C60.598 63.1671 60.6477 62.9815 60.7929 62.8976C60.938 62.8138 61.1236 62.8636 61.2074 63.0087C61.2912 63.1538 61.2415 63.3394 61.0964 63.4233C60.9513 63.5071 60.7656 63.4573 60.6818 63.3122Z" fill="#F4D8A0"/>
<path d="M95.324 43.1508L72.3619 16.7233" stroke="#F4D8A0" stroke-width="1.07134" stroke-miterlimit="10"/>
<path d="M47.7065 37.8573L47.6814 37.9007L60.9478 63.157" stroke="#F4D8A0" stroke-width="1.07134" stroke-miterlimit="10"/>
<path d="M47.4413 37.7065C47.5251 37.5613 47.7108 37.5116 47.8559 37.5954C48.001 37.6792 48.0508 37.8648 47.967 38.01C47.8832 38.1551 47.6975 38.2048 47.5524 38.121C47.4073 38.0372 47.3575 37.8516 47.4413 37.7065Z" fill="#F4D8A0"/>
<path d="M30.0063 16.7237L29.9879 16.6918" stroke="#F4D8A0" stroke-width="1.07134" stroke-miterlimit="10"/>
<path d="M30.2712 16.5719C30.355 16.7171 30.3052 16.9027 30.1601 16.9865C30.015 17.0703 29.8293 17.0206 29.7455 16.8754C29.6617 16.7303 29.7115 16.5447 29.8566 16.4609C30.0017 16.3771 30.1874 16.4268 30.2712 16.5719Z" fill="#F4D8A0"/>
<path d="M47.589 37.8588L30.0081 16.7233" stroke="#F4D8A0" stroke-width="1.07134" stroke-miterlimit="10"/>
<path d="M47.8234 37.6646C47.9306 37.7935 47.913 37.9849 47.7841 38.092C47.6553 38.1991 47.4639 38.1815 47.3567 38.0527C47.2496 37.9238 47.2672 37.7324 47.3961 37.6253C47.5249 37.5182 47.7163 37.5358 47.8234 37.6646Z" fill="#F4D8A0"/>
<path d="M1.61508 36.5565L1.59003 36.5999L15.2036 52.6602" stroke="#F4D8A0" stroke-width="1.07134" stroke-miterlimit="10"/>
<path d="M1.61597 36.5577L21.1063 15.162" stroke="#F4D8A0" stroke-width="1.07134" stroke-miterlimit="10"/>
<path d="M21.1274 15.1298L21.109 15.1617" stroke="#F4D8A0" stroke-width="1.07134" stroke-miterlimit="10"/>
<path d="M20.8632 14.9787C20.947 14.8335 21.1326 14.7838 21.2778 14.8676C21.4229 14.9514 21.4726 15.137 21.3888 15.2822C21.305 15.4273 21.1194 15.477 20.9743 15.3932C20.8292 15.3094 20.7794 15.1238 20.8632 14.9787Z" fill="#F4D8A0"/>
<path d="M35.4761 53.1807L47.6141 37.9012L47.5891 37.8578" stroke="#F4D8A0" stroke-width="1.07134" stroke-miterlimit="10"/>
<path d="M35.7139 53.3693C35.6097 53.5005 35.4187 53.5224 35.2875 53.4182C35.1563 53.314 35.1343 53.1231 35.2385 52.9918C35.3427 52.8606 35.5337 52.8387 35.6649 52.9429C35.7962 53.0471 35.8181 53.238 35.7139 53.3693Z" fill="#F4D8A0"/>
<path d="M35.4744 53.1829L35.456 53.2148" stroke="#F4D8A0" stroke-width="1.07134" stroke-miterlimit="10"/>
<path d="M35.2139 53.0319C35.2977 52.8868 35.4834 52.837 35.6285 52.9208C35.7736 53.0046 35.8233 53.1903 35.7395 53.3354C35.6557 53.4805 35.4701 53.5302 35.325 53.4464C35.1798 53.3626 35.1301 53.177 35.2139 53.0319Z" fill="#F4D8A0"/>
<path d="M15.205 52.6631L15.2234 52.695" stroke="#F4D8A0" stroke-width="1.07134" stroke-miterlimit="10"/>
<path d="M14.9427 52.8149C14.8589 52.6698 14.9086 52.4841 15.0537 52.4003C15.1988 52.3165 15.3845 52.3662 15.4683 52.5114C15.5521 52.6565 15.5024 52.8421 15.3573 52.9259C15.2121 53.0097 15.0265 52.96 14.9427 52.8149Z" fill="#F4D8A0"/>
<path d="M72.3454 16.6919L72.3638 16.66" stroke="#F4D8A0" stroke-width="1.07134" stroke-miterlimit="10"/>
<path d="M72.6078 16.8439C72.524 16.9891 72.3384 17.0388 72.1933 16.955C72.0481 16.8712 71.9984 16.6856 72.0822 16.5404C72.166 16.3953 72.3516 16.3456 72.4968 16.4294C72.6419 16.5132 72.6916 16.6988 72.6078 16.8439Z" fill="#F4D8A0"/>
<path d="M47.7922 9.92517L47.7672 9.96855L58.8637 17.8741" stroke="#F4D8A0" stroke-width="1.07134" stroke-miterlimit="10"/>
<path d="M85.1701 11.0543L85.1952 11.0977L72.3628 16.6609" stroke="#F4D8A0" stroke-width="1.07134" stroke-miterlimit="10"/>
<path d="M58.8777 17.9049L58.8593 17.873" stroke="#F4D8A0" stroke-width="1.07134" stroke-miterlimit="10"/>
<path d="M59.1414 17.7531C59.2252 17.8982 59.1755 18.0838 59.0303 18.1676C58.8852 18.2514 58.6996 18.2017 58.6158 18.0566C58.532 17.9115 58.5817 17.7258 58.7268 17.642C58.872 17.5582 59.0576 17.608 59.1414 17.7531Z" fill="#F4D8A0"/>
<path d="M29.9911 16.6919L30.0096 16.66" stroke="#F4D8A0" stroke-width="1.07134" stroke-miterlimit="10"/>
<path d="M30.254 16.8439C30.1702 16.9891 29.9845 17.0388 29.8394 16.955C29.6943 16.8712 29.6445 16.6856 29.7283 16.5404C29.8121 16.3953 29.9978 16.3456 30.1429 16.4294C30.288 16.5132 30.3377 16.6988 30.254 16.8439Z" fill="#F4D8A0"/>
<path d="M21.1274 15.1303L21.109 15.0984" stroke="#F4D8A0" stroke-width="1.07134" stroke-miterlimit="10"/>
<path d="M21.3888 14.9787C21.4726 15.1238 21.4229 15.3094 21.2778 15.3932C21.1326 15.477 20.947 15.4273 20.8632 15.2822C20.7794 15.137 20.8292 14.9514 20.9743 14.8676C21.1194 14.7838 21.305 14.8335 21.3888 14.9787Z" fill="#F4D8A0"/>
<path d="M47.6762 9.92517L47.7013 9.96855L30.0085 16.6596" stroke="#F4D8A0" stroke-width="1.07134" stroke-miterlimit="10"/>
<path d="M-4.37131 1.5094L-4.39636 1.55278L21.1077 15.0974" stroke="#F4D8A0" stroke-width="1.07134" stroke-miterlimit="10"/>
<path d="M63.6584 71.9949L63.6336 71.9521" stroke="#F4D8A0" stroke-width="1.07134" stroke-miterlimit="10"/>
<path d="M63.9228 71.8436C64.0068 71.9886 63.9574 72.1743 63.8124 72.2583C63.6674 72.3424 63.4817 72.2929 63.3976 72.148C63.3136 72.003 63.363 71.8173 63.508 71.7332C63.653 71.6492 63.8387 71.6986 63.9228 71.8436Z" fill="#F4D8A0"/>
<path d="M60.9244 63.1919L60.9429 63.2238" stroke="#F4D8A0" stroke-width="1.07134" stroke-miterlimit="10"/>
<path d="M60.662 63.344C60.578 63.199 60.6275 63.0133 60.7725 62.9292C60.9174 62.8452 61.1032 62.8947 61.1872 63.0397C61.2712 63.1847 61.2218 63.3704 61.0768 63.4544C60.9318 63.5384 60.7461 63.489 60.662 63.344Z" fill="#F4D8A0"/>
<path d="M63.6344 71.9526L60.9443 63.2229" stroke="#F4D8A0" stroke-width="1.07134" stroke-miterlimit="10"/>
<path d="M63.9237 71.8627C63.973 72.0228 63.8831 72.1927 63.723 72.242C63.5628 72.2913 63.3929 72.2015 63.3436 72.0413C63.2943 71.8812 63.3841 71.7113 63.5443 71.662C63.7045 71.6126 63.8743 71.7025 63.9237 71.8627Z" fill="#F4D8A0"/>
<path d="M76.7902 94.3888L63.66 71.9954" stroke="#F4D8A0" stroke-width="1.07134" stroke-miterlimit="10"/>
<path d="M23.2758 70.6515L23.3006 70.6942" stroke="#F4D8A0" stroke-width="1.07134" stroke-miterlimit="10"/>
<path d="M23.0125 70.8036C22.9285 70.6586 22.9779 70.4729 23.1229 70.3888C23.2679 70.3048 23.4536 70.3543 23.5376 70.4993C23.6217 70.6443 23.5722 70.83 23.4272 70.914C23.2822 70.998 23.0965 70.9486 23.0125 70.8036Z" fill="#F4D8A0"/>
<path d="M15.1845 52.6947L15.203 52.7266" stroke="#F4D8A0" stroke-width="1.07134" stroke-miterlimit="10"/>
<path d="M14.9229 52.8468C14.8389 52.7018 14.8883 52.5161 15.0333 52.432C15.1783 52.348 15.364 52.3975 15.448 52.5425C15.5321 52.6875 15.4826 52.8732 15.3376 52.9572C15.1926 53.0412 15.0069 52.9918 14.9229 52.8468Z" fill="#F4D8A0"/>
<path d="M35.4761 99.8542L23.3007 70.6941" stroke="#F4D8A0" stroke-width="1.07134" stroke-miterlimit="10"/>
<path d="M23.2764 70.6514L15.2053 52.7258" stroke="#F4D8A0" stroke-width="1.07134" stroke-miterlimit="10"/>
<path d="M23.5521 70.5232C23.6209 70.676 23.5527 70.8557 23.3999 70.9245C23.2471 70.9933 23.0674 70.9251 22.9986 70.7723C22.9298 70.6195 22.998 70.4398 23.1508 70.371C23.3036 70.3023 23.4833 70.3704 23.5521 70.5232Z" fill="#F4D8A0"/>
<path d="M71.6445 43.1926L74.1861 51.0114" stroke="#F4D8A0" stroke-width="1.07134" stroke-miterlimit="10"/>
<path d="M71.3554 43.2865C71.3036 43.1271 71.3908 42.9559 71.5502 42.9041C71.7096 42.8523 71.8808 42.9396 71.9326 43.0989C71.9844 43.2583 71.8972 43.4295 71.7378 43.4813C71.5784 43.5331 71.4072 43.4459 71.3554 43.2865Z" fill="#F4D8A0"/>
<path d="M71.6201 43.1515L71.6449 43.1942" stroke="#F4D8A0" stroke-width="1.07134" stroke-miterlimit="10"/>
<path d="M71.3585 43.3048C71.2744 43.1598 71.3238 42.9741 71.4688 42.8901C71.6138 42.806 71.7996 42.8555 71.8836 43.0005C71.9676 43.1454 71.9182 43.3312 71.7732 43.4152C71.6282 43.4992 71.4425 43.4498 71.3585 43.3048Z" fill="#F4D8A0"/>
<path d="M58.8619 17.9386L58.8434 17.9067" stroke="#F4D8A0" stroke-width="1.07134" stroke-miterlimit="10"/>
<path d="M59.124 17.7871C59.208 17.9321 59.1585 18.1178 59.0135 18.2018C58.8685 18.2859 58.6828 18.2364 58.5988 18.0914C58.5148 17.9464 58.5642 17.7607 58.7092 17.6767C58.8542 17.5927 59.04 17.6421 59.124 17.7871Z" fill="#F4D8A0"/>
<path d="M71.619 43.1518L58.8612 17.939" stroke="#F4D8A0" stroke-width="1.07134" stroke-miterlimit="10"/>
<path d="M71.8889 43.0154C71.9646 43.165 71.9046 43.3476 71.7551 43.4232C71.6055 43.4989 71.4229 43.4389 71.3473 43.2894C71.2717 43.1398 71.3316 42.9572 71.4811 42.8816C71.6307 42.806 71.8133 42.8659 71.8889 43.0154Z" fill="#F4D8A0"/>
<path d="M74.1855 51.012L74.204 51.0439" stroke="#F4D8A0" stroke-width="1.07134" stroke-miterlimit="10"/>
<path d="M73.9224 51.1649C73.8384 51.0199 73.8878 50.8342 74.0328 50.7502C74.1778 50.6661 74.3635 50.7156 74.4476 50.8606C74.5316 51.0056 74.4821 51.1913 74.3371 51.2753C74.1921 51.3593 74.0064 51.3099 73.9224 51.1649Z" fill="#F4D8A0"/>
<path d="M21.1107 15.1619L21.0922 15.13" stroke="#F4D8A0" stroke-width="1.07134" stroke-miterlimit="10"/>
<path d="M21.3714 15.0098C21.4554 15.1548 21.406 15.3405 21.2609 15.4245C21.1159 15.5085 20.9302 15.4591 20.8462 15.314C20.7622 15.169 20.8117 14.9833 20.9567 14.8993C21.1017 14.8153 21.2874 14.8648 21.3714 15.0098Z" fill="#F4D8A0"/>
<path d="M35.476 53.1829L35.4945 53.2148" stroke="#F4D8A0" stroke-width="1.07134" stroke-miterlimit="10"/>
<path d="M35.2142 53.3358C35.1301 53.1908 35.1796 53.0051 35.3246 52.9211C35.4696 52.837 35.6553 52.8865 35.7393 53.0315C35.8233 53.1765 35.7739 53.3622 35.6289 53.4462C35.4839 53.5302 35.2982 53.4808 35.2142 53.3358Z" fill="#F4D8A0"/>
<path d="M25.5317 46.3604L21.1058 15.1616" stroke="#F4D8A0" stroke-width="1.07134" stroke-miterlimit="10"/>
<path d="M25.8309 46.3169C25.8544 46.4829 25.739 46.6365 25.573 46.66C25.4071 46.6835 25.2535 46.5681 25.23 46.4021C25.2064 46.2362 25.3219 46.0826 25.4878 46.0591C25.6538 46.0355 25.8074 46.151 25.8309 46.3169Z" fill="#F4D8A0"/>
<path d="M35.4773 53.1823L25.5583 46.4045" stroke="#F4D8A0" stroke-width="1.07134" stroke-miterlimit="10"/>
<path d="M35.6479 52.9297C35.7862 53.0242 35.8217 53.2131 35.7271 53.3515C35.6325 53.4898 35.4437 53.5253 35.3053 53.4307C35.167 53.3362 35.1315 53.1473 35.2261 53.0089C35.3206 52.8706 35.5095 52.8351 35.6479 52.9297Z" fill="#F4D8A0"/>
<path d="M25.5336 46.3588L25.5583 46.4015" stroke="#F4D8A0" stroke-width="1.07134" stroke-miterlimit="10"/>
<path d="M25.2703 46.5112C25.1863 46.3662 25.2357 46.1805 25.3807 46.0965C25.5257 46.0125 25.7114 46.0619 25.7955 46.2069C25.8795 46.3519 25.83 46.5376 25.685 46.6216C25.54 46.7057 25.3543 46.6562 25.2703 46.5112Z" fill="#F4D8A0"/>
<path d="M72.3627 16.6594L61.4022 0.946045" stroke="#F4D8A0" stroke-width="1.07134" stroke-miterlimit="10"/>
<path d="M72.6111 16.4834C72.707 16.6209 72.6732 16.8101 72.5358 16.9059C72.3983 17.0018 72.2091 16.968 72.1133 16.8306C72.0174 16.6931 72.0512 16.5039 72.1886 16.4081C72.3261 16.3122 72.5153 16.346 72.6111 16.4834Z" fill="#F4D8A0"/>
<path d="M72.384 16.6919L72.3655 16.66" stroke="#F4D8A0" stroke-width="1.07134" stroke-miterlimit="10"/>
<path d="M72.6448 16.5401C72.7288 16.6851 72.6794 16.8708 72.5344 16.9548C72.3894 17.0388 72.2037 16.9893 72.1197 16.8443C72.0357 16.6993 72.0851 16.5136 72.2301 16.4296C72.3751 16.3456 72.5608 16.3951 72.6448 16.5401Z" fill="#F4D8A0"/>
<path d="M30.027 16.6919L30.0085 16.66" stroke="#F4D8A0" stroke-width="1.07134" stroke-miterlimit="10"/>
<path d="M30.291 16.5401C30.375 16.6851 30.3255 16.8708 30.1805 16.9548C30.0355 17.0388 29.8498 16.9893 29.7658 16.8443C29.6818 16.6993 29.7312 16.5136 29.8762 16.4296C30.0212 16.3456 30.2069 16.3951 30.291 16.5401Z" fill="#F4D8A0"/>
<path d="M30.0082 16.6584L23.3007 1.55237" stroke="#F4D8A0" stroke-width="1.07134" stroke-miterlimit="10"/>
<path d="M30.2828 16.5322C30.3508 16.6854 30.2817 16.8647 30.1286 16.9327C29.9754 17.0007 29.796 16.9316 29.7281 16.7785C29.6601 16.6253 29.7292 16.446 29.8823 16.378C30.0355 16.31 30.2148 16.3791 30.2828 16.5322Z" fill="#F4D8A0"/>
<path d="M63.6594 71.9949L63.6841 71.9521" stroke="#F4D8A0" stroke-width="1.07134" stroke-miterlimit="10"/>
<path d="M63.9228 72.148C63.8387 72.2929 63.653 72.3424 63.508 72.2583C63.363 72.1743 63.3136 71.9886 63.3976 71.8436C63.4817 71.6986 63.6674 71.6492 63.8124 71.7332C63.9574 71.8173 64.0068 72.003 63.9228 72.148Z" fill="#F4D8A0"/>
<path d="M74.2054 51.0435L74.1869 51.0754" stroke="#F4D8A0" stroke-width="1.07134" stroke-miterlimit="10"/>
<path d="M73.9424 50.892C74.0265 50.747 74.2122 50.6975 74.3572 50.7815C74.5022 50.8656 74.5516 51.0513 74.4676 51.1963C74.3836 51.3413 74.1979 51.3907 74.0529 51.3067C73.9079 51.2227 73.8584 51.037 73.9424 50.892Z" fill="#F4D8A0"/>
<path d="M63.6592 71.9951L54.9553 88.0555" stroke="#F4D8A0" stroke-width="1.07134" stroke-miterlimit="10"/>
<path d="M63.3907 71.8508C63.4705 71.7034 63.6547 71.6486 63.8021 71.7285C63.9494 71.8083 64.0042 71.9925 63.9244 72.1398C63.8445 72.2872 63.6603 72.342 63.513 72.2621C63.3656 72.1823 63.3109 71.9981 63.3907 71.8508Z" fill="#F4D8A0"/>
<path d="M74.1874 51.0791L63.686 71.9543" stroke="#F4D8A0" stroke-width="1.07134" stroke-miterlimit="10"/>
<path d="M73.917 50.943C73.9923 50.7932 74.1748 50.7329 74.3245 50.8082C74.4742 50.8834 74.5346 51.0659 74.4593 51.2156C74.384 51.3653 74.2016 51.4257 74.0518 51.3504C73.9021 51.2751 73.8418 51.0927 73.917 50.943Z" fill="#F4D8A0"/>
<path d="M19.1965 91.4399L23.3004 70.6948" stroke="#F4D8A0" stroke-width="1.07134" stroke-miterlimit="10"/>
<path d="M35.4979 53.2146L35.4794 53.2465" stroke="#F4D8A0" stroke-width="1.07134" stroke-miterlimit="10"/>
<path d="M35.2342 53.063C35.3182 52.918 35.5039 52.8685 35.6489 52.9526C35.7939 53.0366 35.8434 53.2223 35.7593 53.3673C35.6753 53.5123 35.4896 53.5617 35.3446 53.4777C35.1996 53.3937 35.1502 53.208 35.2342 53.063Z" fill="#F4D8A0"/>
<path d="M23.3 70.6914L23.3247 70.6487" stroke="#F4D8A0" stroke-width="1.07134" stroke-miterlimit="10"/>
<path d="M23.5634 70.8465C23.4794 70.9915 23.2937 71.041 23.1487 70.957C23.0037 70.8729 22.9542 70.6872 23.0383 70.5422C23.1223 70.3972 23.308 70.3478 23.453 70.4318C23.598 70.5158 23.6474 70.7015 23.5634 70.8465Z" fill="#F4D8A0"/>
<path d="M35.4771 53.2462L23.3267 70.6512" stroke="#F4D8A0" stroke-width="1.07134" stroke-miterlimit="10"/>
<path d="M35.2281 53.0727C35.324 52.9353 35.5132 52.9016 35.6507 52.9975C35.7881 53.0934 35.8218 53.2826 35.7259 53.42C35.63 53.5575 35.4408 53.5911 35.3034 53.4952C35.1659 53.3993 35.1322 53.2101 35.2281 53.0727Z" fill="#F4D8A0"/>
<path d="M72.384 16.6915L72.3655 16.7234" stroke="#F4D8A0" stroke-width="1.07134" stroke-miterlimit="10"/>
<path d="M72.1197 16.5401C72.2037 16.3951 72.3894 16.3456 72.5344 16.4296C72.6794 16.5136 72.7288 16.6993 72.6448 16.8443C72.5608 16.9893 72.3751 17.0388 72.2301 16.9548C72.0851 16.8708 72.0357 16.6851 72.1197 16.5401Z" fill="#F4D8A0"/>
<path d="M71.6436 43.1926L60.9436 63.1569" stroke="#F4D8A0" stroke-width="1.07134" stroke-miterlimit="10"/>
<path d="M71.3757 43.0495C71.4548 42.9018 71.6388 42.8462 71.7865 42.9253C71.9342 43.0044 71.9898 43.1884 71.9107 43.3361C71.8316 43.4838 71.6476 43.5394 71.4999 43.4603C71.3522 43.3812 71.2965 43.1972 71.3757 43.0495Z" fill="#F4D8A0"/>
<path d="M71.6686 43.151L72.3624 16.7236" stroke="#F4D8A0" stroke-width="1.07134" stroke-miterlimit="10"/>
<path d="M71.9721 43.1581C71.9677 43.3256 71.8283 43.4579 71.6608 43.4535C71.4932 43.4491 71.3609 43.3097 71.3653 43.1422C71.3697 42.9747 71.5091 42.8424 71.6767 42.8468C71.8442 42.8512 71.9765 42.9906 71.9721 43.1581Z" fill="#F4D8A0"/>
<path d="M60.9244 63.1923L60.9429 63.1604" stroke="#F4D8A0" stroke-width="1.07134" stroke-miterlimit="10"/>
<path d="M61.1872 63.344C61.1032 63.489 60.9174 63.5384 60.7725 63.4544C60.6275 63.3704 60.578 63.1847 60.662 63.0397C60.7461 62.8947 60.9318 62.8452 61.0768 62.9292C61.2218 63.0133 61.2712 63.199 61.1872 63.344Z" fill="#F4D8A0"/>
<path d="M71.6676 43.1515L71.6429 43.1942" stroke="#F4D8A0" stroke-width="1.07134" stroke-miterlimit="10"/>
<path d="M71.4072 43.0005C71.4912 42.8555 71.6769 42.806 71.8219 42.8901C71.9669 42.9741 72.0163 43.1598 71.9323 43.3048C71.8483 43.4498 71.6625 43.4992 71.5176 43.4152C71.3726 43.3312 71.3231 43.1454 71.4072 43.0005Z" fill="#F4D8A0"/>
<path d="M30.027 16.6915L30.0085 16.7234" stroke="#F4D8A0" stroke-width="1.07134" stroke-miterlimit="10"/>
<path d="M29.7658 16.5401C29.8498 16.3951 30.0355 16.3456 30.1805 16.4296C30.3255 16.5136 30.375 16.6993 30.291 16.8443C30.2069 16.9893 30.0212 17.0388 29.8762 16.9548C29.7312 16.8708 29.6818 16.6851 29.7658 16.5401Z" fill="#F4D8A0"/>
<path d="M15.205 52.661L25.5579 46.4038" stroke="#F4D8A0" stroke-width="1.07134" stroke-miterlimit="10"/>
<path d="M15.3622 52.9221C15.2188 53.0088 15.0322 52.9628 14.9455 52.8194C14.8588 52.676 14.9047 52.4894 15.0482 52.4027C15.1916 52.316 15.3782 52.362 15.4649 52.5054C15.5516 52.6488 15.5056 52.8354 15.3622 52.9221Z" fill="#F4D8A0"/>
<path d="M25.5856 46.3588L25.5609 46.4015" stroke="#F4D8A0" stroke-width="1.07134" stroke-miterlimit="10"/>
<path d="M25.3217 46.2069C25.4057 46.0619 25.5914 46.0125 25.7364 46.0965C25.8814 46.1805 25.9309 46.3662 25.8469 46.5112C25.7628 46.6562 25.5771 46.7057 25.4321 46.6216C25.2871 46.5376 25.2377 46.3519 25.3217 46.2069Z" fill="#F4D8A0"/>
<path d="M25.5839 46.3609L30.0096 16.7236" stroke="#F4D8A0" stroke-width="1.07134" stroke-miterlimit="10"/>
<path d="M25.8842 46.407C25.8594 46.5728 25.705 46.6871 25.5392 46.6624C25.3735 46.6376 25.2591 46.4832 25.2839 46.3174C25.3086 46.1517 25.4631 46.0373 25.6288 46.0621C25.7946 46.0868 25.9089 46.2413 25.8842 46.407Z" fill="#F4D8A0"/>
<path d="M15.2035 52.6631L15.185 52.695" stroke="#F4D8A0" stroke-width="1.07134" stroke-miterlimit="10"/>
<path d="M14.9429 52.511C15.0269 52.366 15.2126 52.3165 15.3576 52.4006C15.5026 52.4846 15.5521 52.6703 15.4681 52.8153C15.384 52.9603 15.1983 53.0097 15.0533 52.9257C14.9083 52.8417 14.8589 52.656 14.9429 52.511Z" fill="#F4D8A0"/>
<path d="M58.8606 17.873L61.4021 0.945068" stroke="#F4D8A0" stroke-width="1.07134" stroke-miterlimit="10"/>
<path d="M59.1609 17.9176C59.136 18.0834 58.9815 18.1976 58.8157 18.1727C58.65 18.1478 58.5358 17.9933 58.5607 17.8276C58.5855 17.6618 58.7401 17.5476 58.9058 17.5725C59.0715 17.5974 59.1857 17.7519 59.1609 17.9176Z" fill="#F4D8A0"/>
<path d="M58.842 17.9049L58.8605 17.873" stroke="#F4D8A0" stroke-width="1.07134" stroke-miterlimit="10"/>
<path d="M59.1039 18.057C59.0199 18.202 58.8342 18.2514 58.6892 18.1674C58.5442 18.0834 58.4948 17.8977 58.5788 17.7527C58.6628 17.6077 58.8485 17.5582 58.9935 17.6422C59.1385 17.7263 59.188 17.912 59.1039 18.057Z" fill="#F4D8A0"/>
<path d="M21.1095 15.0972L23.3038 1.55273" stroke="#F4D8A0" stroke-width="1.07134" stroke-miterlimit="10"/>
<path d="M21.4092 15.145C21.3825 15.3104 21.2266 15.4229 21.0612 15.3961C20.8957 15.3693 20.7833 15.2134 20.8101 15.048C20.8369 14.8825 20.9928 14.7701 21.1582 14.7969C21.3236 14.8237 21.436 14.9796 21.4092 15.145Z" fill="#F4D8A0"/>
<path d="M21.0889 15.1303L21.1073 15.0984" stroke="#F4D8A0" stroke-width="1.07134" stroke-miterlimit="10"/>
<path d="M21.3514 15.2826C21.2674 15.4276 21.0817 15.477 20.9367 15.393C20.7917 15.309 20.7422 15.1233 20.8262 14.9783C20.9102 14.8333 21.0959 14.7838 21.2409 14.8678C21.3859 14.9518 21.4354 15.1376 21.3514 15.2826Z" fill="#F4D8A0"/>
<path d="M40.7036 69.8708H40.7594" stroke="#F4D8A0" stroke-width="1.07134" stroke-miterlimit="10"/>
<path d="M40.7047 70.1741C40.5371 70.1741 40.4012 70.0382 40.4012 69.8706C40.4012 69.703 40.5371 69.5671 40.7047 69.5671C40.8723 69.5671 41.0082 69.703 41.0082 69.8706C41.0082 70.0382 40.8723 70.1741 40.7047 70.1741Z" fill="#F4D8A0"/>
<path d="M63.6864 71.9521H63.6368" stroke="#F4D8A0" stroke-width="1.07134" stroke-miterlimit="10"/>
<path d="M63.6859 72.2562C63.8535 72.2562 63.9894 72.1204 63.9894 71.9528C63.9894 71.7852 63.8535 71.6493 63.6859 71.6493C63.5183 71.6493 63.3824 71.7852 63.3824 71.9528C63.3824 72.1204 63.5183 72.2562 63.6859 72.2562Z" fill="#F4D8A0"/>
<path d="M63.6855 71.9525L83.4357 70.911" stroke="#F4D8A0" stroke-width="1.07134" stroke-miterlimit="10"/>
<path d="M63.7017 72.2558C63.5343 72.2646 63.3915 72.1361 63.3826 71.9687C63.3738 71.8014 63.5024 71.6585 63.6697 71.6497C63.8371 71.6409 63.9799 71.7694 63.9887 71.9368C63.9976 72.1041 63.869 72.247 63.7017 72.2558Z" fill="#F4D8A0"/>
<path d="M40.7615 69.8708L63.6362 71.9539" stroke="#F4D8A0" stroke-width="1.07134" stroke-miterlimit="10"/>
<path d="M40.7345 70.1729C40.5676 70.1577 40.4446 70.01 40.4598 69.8431C40.475 69.6762 40.6226 69.5532 40.7895 69.5684C40.9564 69.5836 41.0794 69.7313 41.0642 69.8982C41.049 70.065 40.9014 70.1881 40.7345 70.1729Z" fill="#F4D8A0"/>
<path d="M40.644 69.8708H40.6997" stroke="#F4D8A0" stroke-width="1.07134" stroke-miterlimit="10"/>
<path d="M40.6447 70.1741C40.4771 70.1741 40.3412 70.0382 40.3412 69.8706C40.3412 69.703 40.4771 69.5671 40.6447 69.5671C40.8122 69.5671 40.9481 69.703 40.9481 69.8706C40.9481 70.0382 40.8122 70.1741 40.6447 70.1741Z" fill="#F4D8A0"/>
<path d="M40.6467 69.8708L23.3267 70.652" stroke="#F4D8A0" stroke-width="1.07134" stroke-miterlimit="10"/>
<path d="M40.6341 69.5678C40.8015 69.5603 40.9434 69.6899 40.9509 69.8573C40.9585 70.0247 40.8289 70.1666 40.6614 70.1742C40.494 70.1817 40.3522 70.0521 40.3446 69.8847C40.3371 69.7172 40.4667 69.5754 40.6341 69.5678Z" fill="#F4D8A0"/>
<path d="M11.426 73.3415L23.2782 70.6521" stroke="#F4D8A0" stroke-width="1.07134" stroke-miterlimit="10"/>
<path d="M23.327 70.6515H23.2775" stroke="#F4D8A0" stroke-width="1.07134" stroke-miterlimit="10"/>
<path d="M23.3265 70.3479C23.4941 70.3479 23.63 70.4838 23.63 70.6514C23.63 70.819 23.4941 70.9549 23.3265 70.9549C23.159 70.9549 23.0231 70.819 23.0231 70.6514C23.0231 70.4838 23.159 70.3479 23.3265 70.3479Z" fill="#F4D8A0"/>
<path d="M71.6201 43.15L47.704 37.8579" stroke="#F4D8A0" stroke-width="1.07134" stroke-miterlimit="10"/>
<path d="M71.6876 42.8534C71.8512 42.8897 71.9545 43.0517 71.9183 43.2153C71.8821 43.3789 71.72 43.4823 71.5564 43.446C71.3928 43.4098 71.2895 43.2478 71.3257 43.0841C71.3619 42.9205 71.524 42.8172 71.6876 42.8534Z" fill="#F4D8A0"/>
<path d="M71.6667 43.1515H71.6171" stroke="#F4D8A0" stroke-width="1.07134" stroke-miterlimit="10"/>
<path d="M71.6697 43.4561C71.8373 43.4561 71.9732 43.3202 71.9732 43.1526C71.9732 42.985 71.8373 42.8491 71.6697 42.8491C71.5021 42.8491 71.3662 42.985 71.3662 43.1526C71.3662 43.3202 71.5021 43.4561 71.6697 43.4561Z" fill="#F4D8A0"/>
<path d="M95.325 43.1515H71.6692" stroke="#F4D8A0" stroke-width="1.07134" stroke-miterlimit="10"/>
<path d="M47.6465 37.8573H47.7022" stroke="#F4D8A0" stroke-width="1.07134" stroke-miterlimit="10"/>
<path d="M47.6469 38.1616C47.4793 38.1616 47.3434 38.0257 47.3434 37.8582C47.3434 37.6906 47.4793 37.5547 47.6469 37.5547C47.8144 37.5547 47.9503 37.6906 47.9503 37.8582C47.9503 38.0257 47.8144 38.1616 47.6469 38.1616Z" fill="#F4D8A0"/>
<path d="M47.5886 37.8573H47.6444" stroke="#F4D8A0" stroke-width="1.07134" stroke-miterlimit="10"/>
<path d="M47.5896 38.1616C47.422 38.1616 47.2861 38.0257 47.2861 37.8582C47.2861 37.6906 47.422 37.5547 47.5896 37.5547C47.7572 37.5547 47.8931 37.6906 47.8931 37.8582C47.8931 38.0257 47.7572 38.1616 47.5896 38.1616Z" fill="#F4D8A0"/>
<path d="M47.5912 37.8573L25.5845 46.3591" stroke="#F4D8A0" stroke-width="1.07134" stroke-miterlimit="10"/>
<path d="M47.4835 37.5744C47.6398 37.514 47.8156 37.5918 47.876 37.7481C47.9364 37.9044 47.8586 38.0802 47.7023 38.1406C47.546 38.201 47.3703 38.1232 47.3099 37.9669C47.2494 37.8106 47.3272 37.6349 47.4835 37.5744Z" fill="#F4D8A0"/>
<path d="M25.532 46.3597L1.61578 36.5565" stroke="#F4D8A0" stroke-width="1.07134" stroke-miterlimit="10"/>
<path d="M25.6487 46.0816C25.8037 46.1452 25.8779 46.3225 25.8143 46.4775C25.7507 46.6326 25.5734 46.7068 25.4184 46.6432C25.2633 46.5796 25.1892 46.4023 25.2527 46.2472C25.3163 46.0922 25.4936 46.018 25.6487 46.0816Z" fill="#F4D8A0"/>
<path d="M25.5846 46.3588H25.5351" stroke="#F4D8A0" stroke-width="1.07134" stroke-miterlimit="10"/>
<path d="M25.5842 46.0555C25.7518 46.0555 25.8877 46.1914 25.8877 46.359C25.8877 46.5266 25.7518 46.6625 25.5842 46.6625C25.4167 46.6625 25.2808 46.5266 25.2808 46.359C25.2808 46.1914 25.4167 46.0555 25.5842 46.0555Z" fill="#F4D8A0"/>
<path d="M45.9989 94.4215L40.7046 69.8704" stroke="#F4D8A0" stroke-width="1.07134" stroke-miterlimit="10"/>
<path d="M51.1193 58.9412L40.7042 69.8721" stroke="#F4D8A0" stroke-width="1.07134" stroke-miterlimit="10"/>
<path d="M50.9007 58.732C51.0162 58.6106 51.2084 58.606 51.3297 58.7215C51.4511 58.8371 51.4558 59.0292 51.3402 59.1506C51.2246 59.2719 51.0325 59.2766 50.9111 59.161C50.7898 59.0455 50.7851 58.8533 50.9007 58.732Z" fill="#F4D8A0"/>
<path d="M60.9253 63.1921L51.1178 58.9412" stroke="#F4D8A0" stroke-width="1.07134" stroke-miterlimit="10"/>
<path d="M61.046 62.914C61.1997 62.9807 61.2703 63.1594 61.2037 63.3132C61.137 63.4669 60.9583 63.5376 60.8045 63.4709C60.6508 63.4042 60.5802 63.2255 60.6468 63.0717C60.7135 62.918 60.8922 62.8474 61.046 62.914Z" fill="#F4D8A0"/>
<path d="M74.1667 51.0435H74.2037" stroke="#F4D8A0" stroke-width="1.07134" stroke-miterlimit="10"/>
<path d="M74.1677 51.3476C74.3353 51.3476 74.4712 51.2117 74.4712 51.0441C74.4712 50.8765 74.3353 50.7406 74.1677 50.7406C74.0001 50.7406 73.8643 50.8765 73.8643 51.0441C73.8643 51.2117 74.0001 51.3476 74.1677 51.3476Z" fill="#F4D8A0"/>
<path d="M60.9244 63.1919H60.9613" stroke="#F4D8A0" stroke-width="1.07134" stroke-miterlimit="10"/>
<path d="M60.9246 63.4953C61.0922 63.4953 61.228 63.3594 61.228 63.1918C61.228 63.0242 61.0922 62.8883 60.9246 62.8883C60.757 62.8883 60.6211 63.0242 60.6211 63.1918C60.6211 63.3594 60.757 63.4953 60.9246 63.4953Z" fill="#F4D8A0"/>
<path d="M93.3859 57.1166L74.2048 51.0438" stroke="#F4D8A0" stroke-width="1.07134" stroke-miterlimit="10"/>
<path d="M74.1683 51.0436L60.9641 63.1891" stroke="#F4D8A0" stroke-width="1.07134" stroke-miterlimit="10"/>
<path d="M73.962 50.8204C74.0853 50.7069 74.2773 50.7149 74.3908 50.8382C74.5043 50.9615 74.4963 51.1535 74.373 51.267C74.2497 51.3805 74.0576 51.3725 73.9442 51.2492C73.8307 51.1259 73.8387 50.9339 73.962 50.8204Z" fill="#F4D8A0"/>
<path d="M35.4966 53.2146L51.1191 58.9403" stroke="#F4D8A0" stroke-width="1.07134" stroke-miterlimit="10"/>
<path d="M35.3923 53.5001C35.235 53.4424 35.1542 53.268 35.2119 53.1107C35.2696 52.9534 35.4439 52.8726 35.6013 52.9303C35.7586 52.9879 35.8394 53.1623 35.7817 53.3196C35.724 53.477 35.5497 53.5578 35.3923 53.5001Z" fill="#F4D8A0"/>
<path d="M15.2253 52.6947H15.1884" stroke="#F4D8A0" stroke-width="1.07134" stroke-miterlimit="10"/>
<path d="M15.2255 52.3911C15.393 52.3911 15.5289 52.527 15.5289 52.6946C15.5289 52.8622 15.393 52.9981 15.2255 52.9981C15.0579 52.9981 14.922 52.8622 14.922 52.6946C14.922 52.527 15.0579 52.3911 15.2255 52.3911Z" fill="#F4D8A0"/>
<path d="M3.20984 54.0839L15.1871 52.6952" stroke="#F4D8A0" stroke-width="1.07134" stroke-miterlimit="10"/>
<path d="M35.4963 53.2146H35.4594" stroke="#F4D8A0" stroke-width="1.07134" stroke-miterlimit="10"/>
<path d="M35.4967 52.9116C35.6643 52.9116 35.8002 53.0475 35.8002 53.2151C35.8002 53.3827 35.6643 53.5186 35.4967 53.5186C35.3291 53.5186 35.1932 53.3827 35.1932 53.2151C35.1932 53.0475 35.3291 52.9116 35.4967 52.9116Z" fill="#F4D8A0"/>
<path d="M15.2255 52.6947L35.4599 53.2155" stroke="#F4D8A0" stroke-width="1.07134" stroke-miterlimit="10"/>
<path d="M15.2177 52.998C15.0501 52.9937 14.9178 52.8543 14.9221 52.6868C14.9264 52.5193 15.0658 52.3869 15.2333 52.3912C15.4008 52.3955 15.5332 52.5349 15.5288 52.7024C15.5245 52.8699 15.3852 53.0023 15.2177 52.998Z" fill="#F4D8A0"/>
<path d="M47.6465 37.8573L51.1182 58.9384" stroke="#F4D8A0" stroke-width="1.07134" stroke-miterlimit="10"/>
<path d="M47.3475 37.9075C47.3202 37.7421 47.4323 37.586 47.5976 37.5588C47.763 37.5315 47.9191 37.6436 47.9463 37.8089C47.9736 37.9743 47.8616 38.1304 47.6962 38.1577C47.5308 38.1849 47.3747 38.0729 47.3475 37.9075Z" fill="#F4D8A0"/>
<path d="M47.7304 27.2744L47.6436 37.8584" stroke="#F4D8A0" stroke-width="1.07134" stroke-miterlimit="10"/>
<path d="M47.4293 27.2727C47.4307 27.1051 47.5677 26.9703 47.7353 26.9717C47.9029 26.9731 48.0376 27.1101 48.0363 27.2776C48.0349 27.4452 47.8979 27.58 47.7303 27.5786C47.5627 27.5772 47.428 27.4402 47.4293 27.2727Z" fill="#F4D8A0"/>
<path d="M58.879 17.9045H58.8421" stroke="#F4D8A0" stroke-width="1.07134" stroke-miterlimit="10"/>
<path d="M58.8785 18.2083C59.0462 18.2083 59.182 18.0724 59.182 17.9048C59.182 17.7372 59.0462 17.6013 58.8785 17.6013C58.7109 17.6013 58.5751 17.7372 58.5751 17.9048C58.5751 18.0724 58.7109 18.2083 58.8785 18.2083Z" fill="#F4D8A0"/>
<path d="M72.3824 16.6915H72.3455" stroke="#F4D8A0" stroke-width="1.07134" stroke-miterlimit="10"/>
<path d="M72.3822 16.9956C72.5498 16.9956 72.6857 16.8598 72.6857 16.6921C72.6857 16.5245 72.5498 16.3887 72.3822 16.3887C72.2146 16.3887 72.0787 16.5245 72.0787 16.6921C72.0787 16.8598 72.2146 16.9956 72.3822 16.9956Z" fill="#F4D8A0"/>
<path d="M47.7323 27.2744L58.8417 17.905" stroke="#F4D8A0" stroke-width="1.07134" stroke-miterlimit="10"/>
<path d="M47.9281 27.5076C47.8 27.6156 47.6085 27.5994 47.5005 27.4713C47.3924 27.3433 47.4086 27.1518 47.5367 27.0437C47.6648 26.9356 47.8563 26.9519 47.9644 27.0799C48.0724 27.208 48.0562 27.3995 47.9281 27.5076Z" fill="#F4D8A0"/>
<path d="M90.6951 25.8877L72.3821 16.6918" stroke="#F4D8A0" stroke-width="1.07134" stroke-miterlimit="10"/>
<path d="M58.8793 17.907L72.3438 16.6919" stroke="#F4D8A0" stroke-width="1.07134" stroke-miterlimit="10"/>
<path d="M58.9067 18.2105C58.7398 18.2255 58.5922 18.1024 58.5772 17.9355C58.5621 17.7686 58.6852 17.621 58.8522 17.606C59.019 17.5909 59.1666 17.714 59.1817 17.881C59.1967 18.0479 59.0736 18.1954 58.9067 18.2105Z" fill="#F4D8A0"/>
<path d="M47.7336 27.2758L30.0282 16.6918" stroke="#F4D8A0" stroke-width="1.07134" stroke-miterlimit="10"/>
<path d="M47.8894 27.0149C48.0333 27.1009 48.0802 27.2873 47.9941 27.4311C47.9081 27.5749 47.7217 27.6218 47.5779 27.5358C47.4341 27.4498 47.3872 27.2634 47.4732 27.1196C47.5592 26.9757 47.7456 26.9288 47.8894 27.0149Z" fill="#F4D8A0"/>
<path d="M6.94037 16.6926L21.0875 15.1304" stroke="#F4D8A0" stroke-width="1.07134" stroke-miterlimit="10"/>
<path d="M30.0253 16.6915H29.9884" stroke="#F4D8A0" stroke-width="1.07134" stroke-miterlimit="10"/>
<path d="M30.0283 16.3887C30.1959 16.3887 30.3318 16.5246 30.3318 16.6921C30.3318 16.8597 30.1959 16.9956 30.0283 16.9956C29.8607 16.9956 29.7249 16.8597 29.7249 16.6921C29.7249 16.5246 29.8607 16.3887 30.0283 16.3887Z" fill="#F4D8A0"/>
<path d="M21.1259 15.1298H21.089" stroke="#F4D8A0" stroke-width="1.07134" stroke-miterlimit="10"/>
<path d="M21.126 14.8269C21.2936 14.8269 21.4295 14.9628 21.4295 15.1304C21.4295 15.298 21.2936 15.4339 21.126 15.4339C20.9584 15.4339 20.8225 15.298 20.8225 15.1304C20.8225 14.9628 20.9584 14.8269 21.126 14.8269Z" fill="#F4D8A0"/>
<path d="M21.1262 15.1298L29.9908 16.692" stroke="#F4D8A0" stroke-width="1.07134" stroke-miterlimit="10"/>
<path d="M21.0734 15.4293C20.9083 15.4002 20.7981 15.2428 20.8272 15.0778C20.8562 14.9127 21.0137 14.8025 21.1787 14.8316C21.3437 14.8606 21.454 15.0181 21.4249 15.1831C21.3958 15.3481 21.2384 15.4584 21.0734 15.4293Z" fill="#F4D8A0"/>
<path d="M47.7323 27.2742V9.92358" stroke="#F4D8A0" stroke-width="1.07134" stroke-miterlimit="10"/>
<path d="M48.0359 27.2744C48.0359 27.442 47.9 27.5779 47.7324 27.5779C47.5648 27.5779 47.429 27.442 47.429 27.2744C47.429 27.1068 47.5648 26.9709 47.7324 26.9709C47.9 26.9709 48.0359 27.1068 48.0359 27.2744Z" fill="#F4D8A0"/>
</g>
<path d="M51.7455 59.9808C50.7259 60.4902 49.6569 60.8915 48.5632 61.1951V62.4954C48.5632 65.0942 46.4554 67.201 43.8555 67.201C41.2556 67.201 39.1479 65.0942 39.1479 62.4954V61.3423C37.1882 60.8491 35.3607 60.02 33.8125 58.8596C31.7327 57.3005 31.3109 54.3511 32.871 52.2718C34.4311 50.1932 37.3819 49.7713 39.4617 51.3307C41.3448 52.7424 44.9665 52.8472 47.5347 51.5635C48.5669 51.0474 49.124 50.4263 49.124 50.1041C49.124 49.541 49.124 49.4541 48.4976 49.12C47.2692 48.4647 45.0974 48.0619 42.9969 47.6726C40.1927 47.1525 37.2931 46.6148 34.7804 45.2744C31.1113 43.3168 29.1718 40.1055 29.1718 35.9875C29.1718 31.8648 31.6452 28.2641 35.9577 26.1089C36.9799 25.5979 38.0513 25.1936 39.1479 24.8896V23.5962C39.1479 20.9975 41.2556 18.8906 43.8555 18.8906C46.4554 18.8906 48.5632 20.9975 48.5632 23.5962V24.7484C50.5231 25.2419 52.3503 26.0716 53.8985 27.232C55.9787 28.7914 56.4001 31.7409 54.84 33.8198C53.2799 35.8987 50.3298 36.3203 48.2493 34.7609C46.3634 33.347 42.7386 33.2423 40.1682 34.5262C39.13 35.0451 38.587 35.654 38.587 35.9872C38.587 36.5506 38.587 36.6372 39.2135 36.9716C40.4419 37.6269 42.614 38.0297 44.7142 38.419C47.5184 38.9391 50.418 39.4768 52.9309 40.8173C56.5998 42.7748 58.5393 45.9862 58.5393 50.1041C58.5396 54.2228 56.0631 57.8228 51.7455 59.9808Z" stroke="#E3B04B" stroke-width="2.14268"/>
<path d="M32.2216 13.7632C35.8198 12.3283 39.7778 11.6112 43.7359 11.6112H46.2545C51.112 11.9699 55.7898 13.4045 59.9276 15.9156C74.8599 24.8827 79.7175 44.2521 70.7221 59.3172C61.7268 74.2027 42.2964 79.045 27.184 70.0779C17.8288 64.5182 12.0715 54.4749 11.8917 43.535C11.8917 36.3612 14.4104 29.3669 18.908 23.6276C22.3265 19.1437 27.0042 15.736 32.2216 13.7632Z" stroke="#E3B04B" stroke-width="2.14268"/>
</g>
<defs>
<filter id="filter0_d" x="0.56456" y="0.284103" width="86.0043" height="85.6263" filterUnits="userSpaceOnUse" color-interpolation-filters="sRGB">
<feFlood flood-opacity="0" result="BackgroundImageFix"/>
<feColorMatrix in="SourceAlpha" type="matrix" values="0 0 0 0 0 0 0 0 0 0 0 0 0 0 0 0 0 0 127 0"/>
<feOffset/>
<feGaussianBlur stdDeviation="5.12791"/>
<feColorMatrix type="matrix" values="0 0 0 0 0.970833 0 0 0 0 0.813392 0 0 0 0 0.501597 0 0 0 0.74 0"/>
<feBlend mode="normal" in2="BackgroundImageFix" result="effect1_dropShadow"/>
<feBlend mode="normal" in="SourceGraphic" in2="effect1_dropShadow" result="shape"/>
</filter>
</defs>
</svg>
