<svg width="109" height="107" viewBox="0 0 109 107" fill="none" xmlns="http://www.w3.org/2000/svg">
<mask id="mask0" mask-type="alpha" maskUnits="userSpaceOnUse" x="8" y="8" width="92" height="91">
<path fill-rule="evenodd" clip-rule="evenodd" d="M12.4652 25.2577C12.2911 26.1986 12.1892 27.1674 12.1892 28.1574C12.1892 29.1491 12.2911 30.1146 12.4668 31.0588L8.62853 33.2717C9.55813 36.7992 11.4042 39.9579 13.9285 42.4527L17.7766 40.2349C19.2449 41.4889 20.9465 42.474 22.8073 43.1297V47.5621C24.5006 48.0227 26.2777 48.2915 28.1155 48.2915C29.9533 48.2915 31.7271 48.0243 33.4237 47.5621V43.1297C35.2845 42.474 36.9844 41.4905 38.4544 40.2349L42.3025 42.4527C44.8236 39.9595 46.6712 36.7992 47.6025 33.2717L43.7626 31.0588C43.9367 30.1179 44.0401 29.1508 44.0401 28.1591C44.0401 27.1674 43.9367 26.2019 43.7626 25.2593L47.6025 23.0464C46.6712 19.5189 44.8236 16.3602 42.3025 13.8654L38.4527 16.0832C36.9828 14.8292 35.2829 13.8441 33.4221 13.1884V8.75605C31.7255 8.29544 29.9517 8.02661 28.1139 8.02661C26.276 8.02661 24.5006 8.29216 22.8057 8.75605V13.1868C20.9448 13.8424 19.2433 14.8259 17.775 16.0816L13.9269 13.8637C11.4025 16.3586 9.55649 19.5173 8.62689 23.0448L12.4652 25.2577ZM35.5473 28.1591C35.5473 32.2554 32.2182 35.5764 28.1122 35.5764C24.0112 35.5764 20.682 32.2537 20.682 28.1574C20.682 24.0611 24.0112 20.7401 28.1122 20.7401C32.2182 20.7401 35.5473 24.0627 35.5473 28.1591ZM40.0905 62.2884C39.7686 64.4505 39.7045 66.665 39.9164 68.8878L34.7971 70.8466C35.1436 73.289 35.7595 75.7134 36.6677 78.0738C37.5776 80.4326 38.7454 82.6471 40.1381 84.6896L45.2394 82.7357C46.573 84.5289 48.1054 86.132 49.7937 87.5237L47.588 92.4642C51.5626 95.4623 56.1974 97.5605 61.1542 98.5325L63.373 93.5608C65.5393 93.8821 67.7582 93.9461 69.9853 93.7362L71.9512 98.8489C74.4132 98.503 76.8341 97.8785 79.1909 96.9753C81.5576 96.0688 83.7748 94.9066 85.8262 93.5281L83.8619 88.4171C85.6603 87.0861 87.2665 85.5583 88.6609 83.8732L93.6686 86.0993C95.1549 84.1273 96.4344 81.98 97.4674 79.6687C98.4989 77.3575 99.2429 74.9708 99.7159 72.5481L94.7082 70.3221C95.0301 68.16 95.0942 65.9454 94.8823 63.7227L100 61.7622C99.6535 59.3215 99.0359 56.8988 98.1342 54.5383C97.2244 52.1779 96.0566 49.9634 94.6639 47.9209L89.5593 49.8748C88.2257 48.0832 86.695 46.4784 85.005 45.0868L87.2091 40.1463C83.2328 37.1482 78.6013 35.05 73.6445 34.078L71.4257 39.0513C69.2594 38.73 67.0405 38.6661 64.8134 38.8775L62.8475 33.7649C60.3855 34.1108 57.9646 34.7353 55.6078 35.6385C53.2411 36.545 51.0239 37.7088 48.9725 39.0857L50.9368 44.1934C49.1401 45.5244 47.5338 47.0522 46.1394 48.7356L41.1285 46.5096C39.6438 48.4815 38.3627 50.6305 37.3313 52.9401C36.2998 55.2514 35.5558 57.6397 35.0828 60.0608L40.0905 62.2884ZM72.7281 80.1556C65.0598 83.0914 56.4618 79.272 53.5203 71.6203C50.5804 63.9719 54.4105 55.3891 62.0755 52.4549C69.7389 49.5224 78.3369 53.3417 81.2784 60.9918C84.2183 68.6419 80.3866 77.2214 72.7281 80.1556Z" fill="black"/>
</mask>
<g mask="url(#mask0)">
<path d="M0.335449 97.0661L10.0654 109.18" stroke="#F4D8A0" stroke-miterlimit="10"/>
<path d="M30.4806 96.2421L30.4971 96.2136" stroke="#F4D8A0" stroke-miterlimit="10"/>
<path d="M30.2542 96.11C30.1817 96.2352 30.2247 96.3955 30.3502 96.4678C30.4758 96.5401 30.6364 96.4972 30.7089 96.372C30.7814 96.2467 30.7384 96.0865 30.6128 96.0141C30.4873 95.9418 30.3267 95.9847 30.2542 96.11Z" fill="#F4D8A0"/>
<path d="M10.1626 109.18L30.4814 96.2412" stroke="#F4D8A0" stroke-miterlimit="10"/>
<path d="M76.785 94.3679L88.3174 110.23" stroke="#F4D8A0" stroke-miterlimit="10"/>
<path d="M76.9978 94.2133C76.9126 94.0963 76.7484 94.0702 76.631 94.1551C76.5137 94.2401 76.4876 94.4038 76.5727 94.5208C76.6579 94.6379 76.8221 94.6639 76.9395 94.579C77.0568 94.4941 77.0829 94.3303 76.9978 94.2133Z" fill="#F4D8A0"/>
<path d="M76.7842 94.3683L76.7677 94.3398" stroke="#F4D8A0" stroke-miterlimit="10"/>
<path d="M76.5568 94.498C76.6294 94.6232 76.79 94.6661 76.9156 94.5938C77.0411 94.5215 77.0842 94.3613 77.0116 94.2361C76.9391 94.1109 76.7785 94.0681 76.6529 94.1403C76.5273 94.2127 76.4843 94.3728 76.5568 94.498Z" fill="#F4D8A0"/>
<path d="M17.8748 86.6201L17.8965 86.6576L0.334595 97.0105" stroke="#F4D8A0" stroke-miterlimit="10"/>
<path d="M18.1025 86.4885C18.03 86.3632 17.8693 86.3202 17.7438 86.3926C17.6182 86.4649 17.5751 86.6252 17.6476 86.7505C17.7202 86.8759 17.8808 86.9188 18.0064 86.8464C18.1319 86.7741 18.175 86.6138 18.1025 86.4885Z" fill="#F4D8A0"/>
<path d="M4.23987 72.8567L17.875 86.6199" stroke="#F4D8A0" stroke-miterlimit="10"/>
<path d="M34.2041 68.1351L34.1877 68.1066" stroke="#F4D8A0" stroke-miterlimit="10"/>
<path d="M33.9768 68.265C34.0493 68.3903 34.2099 68.4332 34.3355 68.3609C34.4611 68.2885 34.5041 68.1283 34.4316 68.003C34.3591 67.8778 34.1984 67.8349 34.0728 67.9072C33.9473 67.9796 33.9042 68.1398 33.9768 68.265Z" fill="#F4D8A0"/>
<path d="M17.9729 86.6191L26.8018 64.6865" stroke="#F4D8A0" stroke-miterlimit="10"/>
<path d="M17.7291 86.522C17.675 86.6562 17.7403 86.8087 17.8748 86.8626C18.0094 86.9166 18.1623 86.8515 18.2164 86.7173C18.2704 86.5831 18.2051 86.4305 18.0706 86.3766C17.9361 86.3227 17.7831 86.3878 17.7291 86.522Z" fill="#F4D8A0"/>
<path d="M34.2043 68.1348L52.0449 79.499" stroke="#F4D8A0" stroke-miterlimit="10"/>
<path d="M34.3455 67.9132C34.2232 67.8354 34.0609 67.8712 33.9829 67.9931C33.9048 68.115 33.9407 68.277 34.0629 68.3548C34.1851 68.4327 34.3475 68.3969 34.4255 68.275C34.5035 68.153 34.4677 67.9911 34.3455 67.9132Z" fill="#F4D8A0"/>
<path d="M30.498 96.2143L30.4816 96.1858" stroke="#F4D8A0" stroke-miterlimit="10"/>
<path d="M30.2707 96.3439C30.3432 96.4691 30.5039 96.512 30.6294 96.4397C30.755 96.3674 30.798 96.2073 30.7255 96.0821C30.653 95.9569 30.4924 95.914 30.3668 95.9863C30.2412 96.0586 30.1982 96.2188 30.2707 96.3439Z" fill="#F4D8A0"/>
<path d="M52.0447 79.4996L52.0664 79.537L40.1369 99.784" stroke="#F4D8A0" stroke-miterlimit="10"/>
<path d="M52.2724 79.3678C52.1999 79.2425 52.0393 79.1996 51.9137 79.2719C51.7881 79.3443 51.7451 79.5045 51.8176 79.6298C51.8901 79.755 52.0507 79.7979 52.1763 79.7256C52.3019 79.6533 52.3449 79.4931 52.2724 79.3678Z" fill="#F4D8A0"/>
<path d="M17.9729 86.6202L17.9512 86.6577L30.4814 96.1861" stroke="#F4D8A0" stroke-miterlimit="10"/>
<path d="M18.2001 86.7504C18.2726 86.6252 18.2296 86.4649 18.104 86.3926C17.9784 86.3203 17.8178 86.3632 17.7453 86.4885C17.6728 86.6137 17.7158 86.774 17.8414 86.8463C17.967 86.9186 18.1276 86.8757 18.2001 86.7504Z" fill="#F4D8A0"/>
<path d="M26.8184 64.6594L26.8019 64.6879" stroke="#F4D8A0" stroke-miterlimit="10"/>
<path d="M27.0458 64.7897C27.1183 64.6644 27.0753 64.5042 26.9497 64.4319C26.8242 64.3595 26.6635 64.4025 26.591 64.5277C26.5185 64.6529 26.5615 64.8132 26.6871 64.8855C26.8127 64.9578 26.9733 64.9149 27.0458 64.7897Z" fill="#F4D8A0"/>
<path d="M71.5871 72.8292L71.6035 72.8577" stroke="#F4D8A0" stroke-miterlimit="10"/>
<path d="M71.8144 72.6974C71.7419 72.5721 71.5812 72.5292 71.4557 72.6015C71.3301 72.6739 71.2871 72.8341 71.3596 72.9594C71.4321 73.0846 71.5928 73.1275 71.7183 73.0552C71.8439 72.9829 71.8869 72.8226 71.8144 72.6974Z" fill="#F4D8A0"/>
<path d="M52.1428 79.4988L60.1455 62.3628" stroke="#F4D8A0" stroke-miterlimit="10"/>
<path d="M51.9056 79.3881C51.8444 79.5192 51.9013 79.6751 52.0327 79.7362C52.1641 79.7973 52.3204 79.7405 52.3816 79.6094C52.4429 79.4783 52.386 79.3225 52.2545 79.2614C52.1231 79.2003 51.9669 79.257 51.9056 79.3881Z" fill="#F4D8A0"/>
<path d="M76.7849 94.311L89.0898 78.6368L89.0682 78.5994" stroke="#F4D8A0" stroke-miterlimit="10"/>
<path d="M76.5776 94.1497C76.4882 94.2635 76.5082 94.4281 76.6224 94.5173C76.7365 94.6064 76.9016 94.5865 76.991 94.4726C77.0804 94.3588 77.0604 94.1942 76.9462 94.1051C76.8321 94.0159 76.667 94.0359 76.5776 94.1497Z" fill="#F4D8A0"/>
<path d="M57.8926 99.7833L52.1211 79.5364L52.1428 79.4989" stroke="#F4D8A0" stroke-miterlimit="10"/>
<path d="M71.6033 72.8566L89.0684 78.6" stroke="#F4D8A0" stroke-miterlimit="10"/>
<path d="M71.6848 72.6072C71.5471 72.5619 71.3986 72.6367 71.3532 72.7741C71.3079 72.9115 71.3827 73.0597 71.5204 73.1049C71.6581 73.1502 71.8066 73.0755 71.852 72.9381C71.8974 72.8007 71.8225 72.6525 71.6848 72.6072Z" fill="#F4D8A0"/>
<path d="M60.1621 62.3358L60.1457 62.3643" stroke="#F4D8A0" stroke-miterlimit="10"/>
<path d="M60.3896 62.4662C60.4621 62.3409 60.4191 62.1807 60.2935 62.1084C60.1679 62.0361 60.0073 62.079 59.9348 62.2042C59.8622 62.3295 59.9053 62.4897 60.0308 62.562C60.1564 62.6344 60.3171 62.5914 60.3896 62.4662Z" fill="#F4D8A0"/>
<path d="M76.7842 94.3123L76.7677 94.3407" stroke="#F4D8A0" stroke-miterlimit="10"/>
<path d="M77.0116 94.4423C77.0842 94.3171 77.0411 94.157 76.9156 94.0847C76.79 94.0124 76.6294 94.0553 76.5568 94.1805C76.4843 94.3057 76.5273 94.4658 76.6529 94.5381C76.7785 94.6104 76.9391 94.5675 77.0116 94.4423Z" fill="#F4D8A0"/>
<path d="M89.1665 78.5994L93.6396 64.2368" stroke="#F4D8A0" stroke-miterlimit="10"/>
<path d="M88.9153 78.5216C88.8723 78.6597 88.9497 78.8065 89.0881 78.8495C89.2266 78.8924 89.3738 78.8152 89.4168 78.6771C89.4598 78.539 89.3825 78.3922 89.244 78.3493C89.1056 78.3063 88.9584 78.3835 88.9153 78.5216Z" fill="#F4D8A0"/>
<path d="M93.6553 64.2096L93.6388 64.2381" stroke="#F4D8A0" stroke-miterlimit="10"/>
<path d="M93.8827 64.3398C93.9553 64.2146 93.9122 64.0544 93.7867 63.9821C93.6611 63.9098 93.5005 63.9527 93.4279 64.0779C93.3554 64.2031 93.3984 64.3633 93.524 64.4356C93.6496 64.5079 93.8102 64.465 93.8827 64.3398Z" fill="#F4D8A0"/>
<path d="M93.6387 104.505L89.1439 78.6368L89.1655 78.5994" stroke="#F4D8A0" stroke-miterlimit="10"/>
<path d="M2.06152 43.1763L15.9219 57.7639" stroke="#F4D8A0" stroke-miterlimit="10"/>
<path d="M15.9227 57.7637L15.9443 57.8011L4.24011 72.801" stroke="#F4D8A0" stroke-miterlimit="10"/>
<path d="M16.1503 57.632C16.0778 57.5067 15.9172 57.4638 15.7916 57.5361C15.666 57.6084 15.623 57.7687 15.6955 57.8939C15.768 58.0192 15.9286 58.0621 16.0542 57.9898C16.1798 57.9174 16.2228 57.7572 16.1503 57.632Z" fill="#F4D8A0"/>
<path d="M41.7568 55.5147L36.4576 34.2566" stroke="#F4D8A0" stroke-miterlimit="10"/>
<path d="M41.502 55.5779C41.537 55.7182 41.6795 55.8037 41.8203 55.7688C41.961 55.7339 42.0467 55.5918 42.0117 55.4514C41.9767 55.3111 41.8342 55.2256 41.6935 55.2605C41.5527 55.2954 41.467 55.4375 41.502 55.5779Z" fill="#F4D8A0"/>
<path d="M16.021 57.7632L23.498 33.6567" stroke="#F4D8A0" stroke-miterlimit="10"/>
<path d="M15.7707 57.6855C15.7278 57.8236 15.8053 57.9704 15.9439 58.0131C16.0824 58.0559 16.2295 57.9785 16.2724 57.8404C16.3152 57.7022 16.2377 57.5555 16.0992 57.5128C15.9606 57.47 15.8135 57.5473 15.7707 57.6855Z" fill="#F4D8A0"/>
<path d="M23.4972 33.6576L23.5137 33.6291" stroke="#F4D8A0" stroke-miterlimit="10"/>
<path d="M23.2697 33.5255C23.1972 33.6508 23.2402 33.811 23.3658 33.8833C23.4914 33.9557 23.652 33.9127 23.7245 33.7875C23.7971 33.6622 23.754 33.502 23.6284 33.4297C23.5029 33.3573 23.3422 33.4003 23.2697 33.5255Z" fill="#F4D8A0"/>
<path d="M41.7576 55.5153L41.7793 55.5527L34.2054 68.0792" stroke="#F4D8A0" stroke-miterlimit="10"/>
<path d="M41.9843 55.3837C41.9118 55.2584 41.7512 55.2155 41.6256 55.2878C41.5 55.3601 41.457 55.5204 41.5295 55.6456C41.602 55.7709 41.7626 55.8138 41.8882 55.7415C42.0138 55.6692 42.0568 55.5089 41.9843 55.3837Z" fill="#F4D8A0"/>
<path d="M36.4416 34.2289L36.458 34.2574" stroke="#F4D8A0" stroke-miterlimit="10"/>
<path d="M36.6689 34.0972C36.5964 33.972 36.4358 33.9291 36.3102 34.0014C36.1846 34.0737 36.1416 34.2339 36.2141 34.3591C36.2866 34.4843 36.4472 34.5272 36.5728 34.4549C36.6984 34.3826 36.7414 34.2224 36.6689 34.0972Z" fill="#F4D8A0"/>
<path d="M34.1877 68.1073L34.2041 68.0788" stroke="#F4D8A0" stroke-miterlimit="10"/>
<path d="M33.9602 67.9751C33.8877 68.1003 33.9307 68.2605 34.0563 68.3328C34.1818 68.4051 34.3425 68.3622 34.415 68.237C34.4875 68.1118 34.4445 67.9517 34.3189 67.8794C34.1933 67.8071 34.0327 67.85 33.9602 67.9751Z" fill="#F4D8A0"/>
<path d="M26.8019 64.631L26.8184 64.6594" stroke="#F4D8A0" stroke-miterlimit="10"/>
<path d="M27.0292 64.4994C26.9567 64.3741 26.7961 64.3312 26.6705 64.4035C26.5449 64.4759 26.5019 64.6361 26.5744 64.7614C26.6469 64.8866 26.8076 64.9295 26.9331 64.8572C27.0587 64.7849 27.1017 64.6246 27.0292 64.4994Z" fill="#F4D8A0"/>
<path d="M26.8018 64.6301L15.9987 57.8004L16.0203 57.7629" stroke="#F4D8A0" stroke-miterlimit="10"/>
<path d="M26.6613 64.8514C26.7838 64.9288 26.9461 64.8925 27.0237 64.7703C27.1013 64.6481 27.0649 64.4863 26.9423 64.4089C26.8199 64.3314 26.6576 64.3678 26.58 64.49C26.5024 64.6121 26.5388 64.774 26.6613 64.8514Z" fill="#F4D8A0"/>
<path d="M61.7228 32.6831L61.7393 32.6546" stroke="#F4D8A0" stroke-miterlimit="10"/>
<path d="M61.4953 32.5512C61.4228 32.6765 61.4658 32.8368 61.5914 32.9092C61.717 32.9815 61.8776 32.9386 61.9501 32.8133C62.0226 32.688 61.9796 32.5277 61.854 32.4553C61.7284 32.383 61.5678 32.4259 61.4953 32.5512Z" fill="#F4D8A0"/>
<path d="M60.1621 62.3363L60.1457 62.3078" stroke="#F4D8A0" stroke-miterlimit="10"/>
<path d="M59.9348 62.4662C60.0073 62.5914 60.1679 62.6344 60.2935 62.562C60.4191 62.4897 60.4621 62.3295 60.3896 62.2042C60.3171 62.079 60.1564 62.0361 60.0308 62.1084C59.9053 62.1807 59.8622 62.3409 59.9348 62.4662Z" fill="#F4D8A0"/>
<path d="M73.3888 33.7043L73.4053 33.7327" stroke="#F4D8A0" stroke-miterlimit="10"/>
<path d="M73.6162 33.5726C73.5436 33.4474 73.383 33.4045 73.2575 33.4768C73.1319 33.5491 73.0889 33.7093 73.1614 33.8346C73.2339 33.9598 73.3945 34.0028 73.5201 33.9304C73.6456 33.8581 73.6886 33.6979 73.6162 33.5726Z" fill="#F4D8A0"/>
<path d="M83.0605 50.9426L73.4056 33.7314" stroke="#F4D8A0" stroke-miterlimit="10"/>
<path d="M82.8315 51.0703C82.9023 51.1965 83.0624 51.2416 83.1889 51.1709C83.3154 51.1002 83.3606 50.9405 83.2897 50.8142C83.2189 50.688 83.0589 50.6429 82.9323 50.7136C82.8058 50.7843 82.7606 50.944 82.8315 51.0703Z" fill="#F4D8A0"/>
<path d="M41.8543 55.5152L41.8326 55.5527L60.1455 62.3079" stroke="#F4D8A0" stroke-miterlimit="10"/>
<path d="M42.082 55.6456C42.1545 55.5204 42.1114 55.3601 41.9859 55.2878C41.8603 55.2155 41.6996 55.2584 41.6271 55.3837C41.5546 55.5089 41.5977 55.6692 41.7232 55.7415C41.8488 55.8138 42.0095 55.7709 42.082 55.6456Z" fill="#F4D8A0"/>
<path d="M71.6035 72.8013L71.5871 72.8298" stroke="#F4D8A0" stroke-miterlimit="10"/>
<path d="M71.831 72.9315C71.9035 72.8063 71.8605 72.646 71.7349 72.5737C71.6093 72.5014 71.4487 72.5443 71.3762 72.6695C71.3037 72.7948 71.3467 72.955 71.4722 73.0274C71.5978 73.0997 71.7585 73.0568 71.831 72.9315Z" fill="#F4D8A0"/>
<path d="M41.8544 55.5146L61.7227 32.6821" stroke="#F4D8A0" stroke-miterlimit="10"/>
<path d="M41.6564 55.3428C41.5613 55.452 41.573 55.6174 41.6824 55.7122C41.7919 55.807 41.9578 55.7954 42.0529 55.6862C42.1479 55.5771 42.1363 55.4116 42.0268 55.3168C41.9173 55.222 41.7514 55.2337 41.6564 55.3428Z" fill="#F4D8A0"/>
<path d="M83.0604 50.9427L83.082 50.9802L71.6031 72.8006" stroke="#F4D8A0" stroke-miterlimit="10"/>
<path d="M83.288 50.8112C83.2155 50.6859 83.0549 50.643 82.9293 50.7153C82.8037 50.7877 82.7607 50.948 82.8332 51.0733C82.9057 51.1986 83.0663 51.2416 83.1919 51.1692C83.3175 51.0968 83.3605 50.9365 83.288 50.8112Z" fill="#F4D8A0"/>
<path d="M98.3703 32.6831L98.3867 32.6546" stroke="#F4D8A0" stroke-miterlimit="10"/>
<path d="M98.1428 32.5512C98.0703 32.6765 98.1134 32.8368 98.2389 32.9092C98.3645 32.9815 98.5251 32.9386 98.5976 32.8133C98.6701 32.688 98.6271 32.5277 98.5015 32.4553C98.3759 32.383 98.2153 32.4259 98.1428 32.5512Z" fill="#F4D8A0"/>
<path d="M83.158 50.9426L98.3701 32.6821" stroke="#F4D8A0" stroke-miterlimit="10"/>
<path d="M82.9564 50.7749C82.8637 50.8864 82.8789 51.052 82.9904 51.1447C83.1019 51.2374 83.2675 51.2221 83.3602 51.1106C83.4529 50.9991 83.4377 50.8336 83.3262 50.7408C83.2147 50.6481 83.0491 50.6634 82.9564 50.7749Z" fill="#F4D8A0"/>
<path d="M93.6387 64.1807L83.136 50.9801L83.1577 50.9426" stroke="#F4D8A0" stroke-miterlimit="10"/>
<path d="M93.4332 64.3436C93.5233 64.4569 93.6885 64.4758 93.8021 64.3858C93.9156 64.2959 93.9346 64.1312 93.8444 64.018C93.7543 63.9047 93.5891 63.8858 93.4755 63.9757C93.362 64.0656 93.343 64.2304 93.4332 64.3436Z" fill="#F4D8A0"/>
<path d="M93.6398 64.1817L93.6562 64.2102" stroke="#F4D8A0" stroke-miterlimit="10"/>
<path d="M93.8671 64.0499C93.7946 63.9247 93.634 63.8818 93.5084 63.9541C93.3828 64.0264 93.3398 64.1865 93.4123 64.3117C93.4848 64.4369 93.6455 64.4798 93.771 64.4075C93.8966 64.3352 93.9396 64.175 93.8671 64.0499Z" fill="#F4D8A0"/>
<path d="M9.83867 19.0135L9.86035 19.051L2.06122 43.1197" stroke="#F4D8A0" stroke-miterlimit="10"/>
<path d="M10.0663 18.882C9.99383 18.7567 9.8332 18.7138 9.70762 18.7861C9.58204 18.8585 9.53901 19.0188 9.61151 19.1441C9.68402 19.2694 9.84466 19.3124 9.97024 19.24C10.0958 19.1676 10.1388 19.0073 10.0663 18.882Z" fill="#F4D8A0"/>
<path d="M0.184936 13.7951L9.83984 19.0136" stroke="#F4D8A0" stroke-miterlimit="10"/>
<path d="M23.5137 33.6297L23.4972 33.6013" stroke="#F4D8A0" stroke-miterlimit="10"/>
<path d="M23.2864 33.7596C23.3589 33.8849 23.5195 33.9278 23.6451 33.8555C23.7706 33.7832 23.8136 33.6229 23.7412 33.4977C23.6687 33.3724 23.508 33.3295 23.3825 33.4018C23.2569 33.4742 23.2139 33.6344 23.2864 33.7596Z" fill="#F4D8A0"/>
<path d="M9.93806 19.0137L9.91638 19.0512L23.498 33.6014" stroke="#F4D8A0" stroke-miterlimit="10"/>
<path d="M10.166 19.1439C10.2385 19.0187 10.1954 18.8584 10.0699 18.7861C9.9443 18.7138 9.78368 18.7567 9.71118 18.882C9.63868 19.0072 9.68171 19.1674 9.80727 19.2398C9.93284 19.3121 10.0935 19.2692 10.166 19.1439Z" fill="#F4D8A0"/>
<path d="M35.6896 9.34506L35.7061 9.37353" stroke="#F4D8A0" stroke-miterlimit="10"/>
<path d="M35.9169 9.21351C35.8444 9.08825 35.6838 9.04533 35.5583 9.11765C35.4327 9.18998 35.3897 9.3502 35.4622 9.47546C35.5347 9.60071 35.6953 9.64364 35.8208 9.57131C35.9464 9.49899 35.9894 9.33877 35.9169 9.21351Z" fill="#F4D8A0"/>
<path d="M28.6799 8.7737L28.6963 8.74524" stroke="#F4D8A0" stroke-miterlimit="10"/>
<path d="M28.4523 8.64173C28.3798 8.76699 28.4229 8.92721 28.5484 8.99954C28.674 9.07186 28.8346 9.02894 28.9072 8.90368C28.9797 8.77842 28.9366 8.6182 28.8111 8.54588C28.6855 8.47355 28.5248 8.51647 28.4523 8.64173Z" fill="#F4D8A0"/>
<path d="M35.7063 9.37317L50.543 27.7833" stroke="#F4D8A0" stroke-miterlimit="10"/>
<path d="M35.9108 9.20833C35.8199 9.09566 35.6546 9.07778 35.5416 9.1684C35.4286 9.25902 35.4107 9.42388 35.5016 9.53655C35.5924 9.64922 35.7578 9.66709 35.8707 9.57647C35.9837 9.48585 36.0017 9.321 35.9108 9.20833Z" fill="#F4D8A0"/>
<path d="M9.93793 19.0134L28.6797 8.77295" stroke="#F4D8A0" stroke-miterlimit="10"/>
<path d="M9.81146 18.7832C9.68426 18.8527 9.63759 19.012 9.70723 19.1389C9.77686 19.2658 9.93647 19.3124 10.0637 19.2429C10.1908 19.1734 10.2375 19.0142 10.1679 18.8872C10.0983 18.7603 9.93865 18.7137 9.81146 18.7832Z" fill="#F4D8A0"/>
<path d="M36.4416 34.2294L36.458 34.2009" stroke="#F4D8A0" stroke-miterlimit="10"/>
<path d="M36.2141 34.0972C36.1416 34.2224 36.1846 34.3826 36.3102 34.4549C36.4358 34.5272 36.5964 34.4843 36.6689 34.3591C36.7414 34.2339 36.6984 34.0737 36.5728 34.0014C36.4472 33.9291 36.2866 33.972 36.2141 34.0972Z" fill="#F4D8A0"/>
<path d="M50.5428 27.7828L50.5645 27.8203L36.457 34.2008" stroke="#F4D8A0" stroke-miterlimit="10"/>
<path d="M50.7695 27.6513C50.697 27.526 50.5364 27.4831 50.4108 27.5554C50.2852 27.6278 50.2422 27.7881 50.3147 27.9134C50.3872 28.0387 50.5478 28.0816 50.6734 28.0093C50.7989 27.9369 50.842 27.7766 50.7695 27.6513Z" fill="#F4D8A0"/>
<path d="M78.1368 4.1264L82.9854 26.8083" stroke="#F4D8A0" stroke-miterlimit="10"/>
<path d="M61.7383 32.6553L61.7218 32.6268" stroke="#F4D8A0" stroke-miterlimit="10"/>
<path d="M61.511 32.7852C61.5835 32.9105 61.7441 32.9535 61.8697 32.8811C61.9952 32.8088 62.0383 32.6485 61.9658 32.5231C61.8933 32.3978 61.7326 32.3549 61.6071 32.4272C61.4815 32.4996 61.4385 32.6599 61.511 32.7852Z" fill="#F4D8A0"/>
<path d="M82.9861 26.8087L83.0078 26.8461L73.4063 33.6758" stroke="#F4D8A0" stroke-miterlimit="10"/>
<path d="M83.2128 26.677C83.1403 26.5516 82.9797 26.5087 82.8541 26.581C82.7285 26.6534 82.6855 26.8137 82.758 26.939C82.8305 27.0643 82.9911 27.1073 83.1167 27.0349C83.2423 26.9626 83.2853 26.8023 83.2128 26.677Z" fill="#F4D8A0"/>
<path d="M50.6409 27.7832L50.6192 27.8207L61.7227 32.627" stroke="#F4D8A0" stroke-miterlimit="10"/>
<path d="M50.8681 27.9134C50.9406 27.7882 50.8976 27.628 50.772 27.5556C50.6464 27.4833 50.4858 27.5262 50.4133 27.6515C50.3408 27.7768 50.3839 27.937 50.5094 28.0093C50.635 28.0816 50.7956 28.0387 50.8681 27.9134Z" fill="#F4D8A0"/>
<path d="M73.3888 33.7048L73.4053 33.6763" stroke="#F4D8A0" stroke-miterlimit="10"/>
<path d="M73.1614 33.5727C73.0889 33.698 73.1319 33.8583 73.2575 33.9307C73.383 34.003 73.5436 33.9601 73.6162 33.8348C73.6886 33.7095 73.6456 33.5492 73.5201 33.4768C73.3945 33.4044 73.2339 33.4474 73.1614 33.5727Z" fill="#F4D8A0"/>
<path d="M50.6403 27.7822L65.1016 5.47485" stroke="#F4D8A0" stroke-miterlimit="10"/>
<path d="M50.4203 27.6399C50.3415 27.7614 50.3763 27.9236 50.4981 28.0021C50.6198 28.0807 50.7824 28.046 50.8612 27.9245C50.9399 27.8031 50.9051 27.6409 50.7834 27.5623C50.6616 27.4837 50.499 27.5185 50.4203 27.6399Z" fill="#F4D8A0"/>
<path d="M98.3867 32.6553L98.3703 32.6268" stroke="#F4D8A0" stroke-miterlimit="10"/>
<path d="M98.1594 32.7852C98.2319 32.9105 98.3925 32.9535 98.5181 32.8811C98.6437 32.8088 98.6867 32.6485 98.6142 32.5231C98.5417 32.3978 98.381 32.3549 98.2555 32.4272C98.1299 32.4996 98.0869 32.6599 98.1594 32.7852Z" fill="#F4D8A0"/>
<path d="M83.0828 26.8081L98.3701 4.12622" stroke="#F4D8A0" stroke-miterlimit="10"/>
<path d="M82.8652 26.6617C82.7843 26.7818 82.8162 26.9447 82.9365 27.0254C83.0569 27.1062 83.22 27.0743 83.301 26.9543C83.3819 26.8342 83.35 26.6713 83.2297 26.5905C83.1093 26.5098 82.9462 26.5416 82.8652 26.6617Z" fill="#F4D8A0"/>
<path d="M83.0828 26.8087L83.0612 26.8461L98.3701 32.6268" stroke="#F4D8A0" stroke-miterlimit="10"/>
<path d="M83.3105 26.9389C83.383 26.8136 83.34 26.6534 83.2144 26.5811C83.0888 26.5087 82.9282 26.5517 82.8557 26.6769C82.7832 26.8022 82.8262 26.9624 82.9518 27.0347C83.0774 27.107 83.238 27.0641 83.3105 26.9389Z" fill="#F4D8A0"/>
<path d="M8.33769 -10.8172L8.35938 -10.7797L0.184753 13.7385" stroke="#F4D8A0" stroke-miterlimit="10"/>
<path d="M35.7061 9.3172L35.6896 9.34566" stroke="#F4D8A0" stroke-miterlimit="10"/>
<path d="M35.9335 9.44738C36.006 9.32212 35.963 9.1619 35.8374 9.08958C35.7119 9.01725 35.5513 9.06017 35.4788 9.18543C35.4063 9.31069 35.4493 9.47091 35.5749 9.54324C35.7004 9.61556 35.861 9.57264 35.9335 9.44738Z" fill="#F4D8A0"/>
<path d="M28.6797 8.7168L8.41425 -10.7799L8.43593 -10.8174" stroke="#F4D8A0" stroke-miterlimit="10"/>
<path d="M28.4976 8.90646C28.602 9.0071 28.7682 9.00405 28.8689 8.89965C28.9695 8.79525 28.9664 8.62899 28.862 8.52836C28.7577 8.42772 28.5914 8.43078 28.4908 8.53517C28.3901 8.63957 28.3932 8.80583 28.4976 8.90646Z" fill="#F4D8A0"/>
<path d="M28.6953 8.74572L28.6789 8.71725" stroke="#F4D8A0" stroke-miterlimit="10"/>
<path d="M28.468 8.87578C28.5405 9.0011 28.7011 9.04404 28.8267 8.97169C28.9523 8.89933 28.9953 8.73903 28.9228 8.61372C28.8503 8.4884 28.6896 8.44546 28.5641 8.51782C28.4385 8.59017 28.3955 8.75047 28.468 8.87578Z" fill="#F4D8A0"/>
<path d="M44.534 -3.84641L44.5557 -3.80893L35.7051 9.31693" stroke="#F4D8A0" stroke-miterlimit="10"/>
<path d="M76.8018 94.34L76.7853 94.3685" stroke="#F4D8A0" stroke-miterlimit="10"/>
<path d="M77.0281 94.4705C77.1008 94.3454 77.058 94.1852 76.9325 94.1127C76.807 94.0402 76.6463 94.0829 76.5736 94.208C76.5009 94.3331 76.5437 94.4933 76.6692 94.5658C76.7947 94.6382 76.9553 94.5956 77.0281 94.4705Z" fill="#F4D8A0"/>
<path d="M65.2205 120.647L76.7852 94.3674" stroke="#F4D8A0" stroke-miterlimit="10"/>
<path d="M99.7657 109.18L107.726 97.2905" stroke="#F4D8A0" stroke-miterlimit="10"/>
<path d="M29.0008 79.3126L30.4814 96.1862" stroke="#F4D8A0" stroke-miterlimit="10"/>
<path d="M29.2627 79.2889C29.25 79.1448 29.1226 79.0383 28.9782 79.0509C28.8337 79.0635 28.7268 79.1905 28.7395 79.3345C28.7521 79.4786 28.8795 79.5851 29.024 79.5725C29.1684 79.5599 29.2753 79.4329 29.2627 79.2889Z" fill="#F4D8A0"/>
<path d="M29.0225 79.2749L29.0004 79.313" stroke="#F4D8A0" stroke-miterlimit="10"/>
<path d="M29.2497 79.4053C29.3224 79.2802 29.2797 79.12 29.1542 79.0475C29.0288 78.975 28.8681 79.0177 28.7954 79.1428C28.7227 79.2678 28.7654 79.4281 28.8909 79.5006C29.0163 79.5731 29.177 79.5304 29.2497 79.4053Z" fill="#F4D8A0"/>
<path d="M34.2042 68.1351L34.2207 68.1066" stroke="#F4D8A0" stroke-miterlimit="10"/>
<path d="M33.977 68.0027C33.9043 68.1279 33.947 68.2881 34.0725 68.3607C34.198 68.4332 34.3587 68.3905 34.4314 68.2654C34.5041 68.1402 34.4613 67.9799 34.3358 67.9074C34.2104 67.8349 34.0497 67.8776 33.977 68.0027Z" fill="#F4D8A0"/>
<path d="M34.2041 68.1346L29.0228 79.2745" stroke="#F4D8A0" stroke-miterlimit="10"/>
<path d="M34.4423 68.2443C34.5034 68.1131 34.4462 67.9574 34.3147 67.8965C34.1832 67.8356 34.027 67.8926 33.966 68.0238C33.9049 68.1549 33.9621 68.3107 34.0936 68.3716C34.2251 68.4325 34.3813 68.3755 34.4423 68.2443Z" fill="#F4D8A0"/>
<path d="M30.465 96.2143L30.4814 96.1858" stroke="#F4D8A0" stroke-miterlimit="10"/>
<path d="M30.2387 96.0818C30.166 96.2068 30.2088 96.3671 30.3342 96.4395C30.4597 96.512 30.6204 96.4694 30.6931 96.3443C30.7658 96.2192 30.723 96.059 30.5975 95.9865C30.4721 95.914 30.3114 95.9567 30.2387 96.0818Z" fill="#F4D8A0"/>
<path d="M69.2543 80.4372L69.2764 80.399" stroke="#F4D8A0" stroke-miterlimit="10"/>
<path d="M69.0268 80.3044C68.9541 80.4295 68.9969 80.5897 69.1223 80.6622C69.2478 80.7347 69.4085 80.692 69.4812 80.567C69.5539 80.4419 69.5111 80.2817 69.3857 80.2092C69.2602 80.1367 69.0995 80.1793 69.0268 80.3044Z" fill="#F4D8A0"/>
<path d="M71.6191 72.8292L71.6026 72.8577" stroke="#F4D8A0" stroke-miterlimit="10"/>
<path d="M71.8464 72.9597C71.9191 72.8345 71.8763 72.6743 71.7509 72.6017C71.6254 72.5292 71.4647 72.5719 71.392 72.697C71.3193 72.8222 71.3621 72.9825 71.4875 73.055C71.613 73.1275 71.7737 73.0848 71.8464 72.9597Z" fill="#F4D8A0"/>
<path d="M69.2759 80.3982L71.6035 72.856" stroke="#F4D8A0" stroke-miterlimit="10"/>
<path d="M69.0245 80.3209C68.9818 80.4591 69.0596 80.6057 69.1982 80.6482C69.3367 80.6908 69.4837 80.6133 69.5264 80.475C69.5691 80.3368 69.4913 80.1902 69.3527 80.1477C69.2142 80.1051 69.0672 80.1826 69.0245 80.3209Z" fill="#F4D8A0"/>
<path d="M57.8928 99.7832L69.2539 80.4358" stroke="#F4D8A0" stroke-miterlimit="10"/>
<path d="M93.6398 104.505L104.175 79.3115" stroke="#F4D8A0" stroke-miterlimit="10"/>
<path d="M27.3701 48.0201L27.348 48.0582" stroke="#F4D8A0" stroke-miterlimit="10"/>
<path d="M27.5974 48.1506C27.6701 48.0255 27.6273 47.8652 27.5019 47.7927C27.3764 47.7201 27.2157 47.7628 27.143 47.8879C27.0703 48.0131 27.113 48.1734 27.2385 48.2459C27.364 48.3184 27.5247 48.2758 27.5974 48.1506Z" fill="#F4D8A0"/>
<path d="M27.3706 48.0195L36.457 34.2566" stroke="#F4D8A0" stroke-miterlimit="10"/>
<path d="M27.1509 47.8752C27.0712 47.9959 27.1047 48.1584 27.2257 48.238C27.3468 48.3176 27.5097 48.2842 27.5895 48.1634C27.6693 48.0426 27.6358 47.8801 27.5147 47.8006C27.3936 47.721 27.2307 47.7544 27.1509 47.8752Z" fill="#F4D8A0"/>
<path d="M26.8018 64.631L26.7853 64.6594" stroke="#F4D8A0" stroke-miterlimit="10"/>
<path d="M27.029 64.7617C27.1017 64.6365 27.0589 64.4763 26.9335 64.4037C26.808 64.3312 26.6473 64.3739 26.5746 64.4991C26.5019 64.6242 26.5447 64.7845 26.6702 64.857C26.7956 64.9295 26.9563 64.8868 27.029 64.7617Z" fill="#F4D8A0"/>
<path d="M36.4571 34.2573L36.4736 34.2289" stroke="#F4D8A0" stroke-miterlimit="10"/>
<path d="M36.2299 34.125C36.1572 34.2501 36.2 34.4103 36.3255 34.4828C36.451 34.5552 36.6116 34.5126 36.6843 34.3875C36.757 34.2624 36.7142 34.1022 36.5887 34.0297C36.4633 33.9572 36.3026 33.9999 36.2299 34.125Z" fill="#F4D8A0"/>
<path d="M26.8016 64.6306L27.3486 48.0571" stroke="#F4D8A0" stroke-miterlimit="10"/>
<path d="M26.5395 64.6217C26.5347 64.7663 26.6483 64.8874 26.7932 64.8922C26.9381 64.8969 27.0595 64.7836 27.0643 64.639C27.0691 64.4944 26.9554 64.3733 26.8105 64.3686C26.6656 64.3638 26.5442 64.4772 26.5395 64.6217Z" fill="#F4D8A0"/>
<path d="M62.3447 55.5526L60.1456 62.3079" stroke="#F4D8A0" stroke-miterlimit="10"/>
<path d="M62.5945 55.6329C62.6393 55.4954 62.5638 55.3476 62.4259 55.3029C62.288 55.2582 62.1399 55.3335 62.0951 55.4711C62.0503 55.6086 62.1258 55.7564 62.2637 55.8011C62.4015 55.8458 62.5497 55.7705 62.5945 55.6329Z" fill="#F4D8A0"/>
<path d="M62.3662 55.5153L62.3441 55.5534" stroke="#F4D8A0" stroke-miterlimit="10"/>
<path d="M62.5935 55.646C62.6662 55.5209 62.6234 55.3606 62.498 55.288C62.3725 55.2155 62.2118 55.2582 62.1391 55.3833C62.0664 55.5084 62.1092 55.6687 62.2346 55.7413C62.3601 55.8138 62.5208 55.7711 62.5935 55.646Z" fill="#F4D8A0"/>
<path d="M73.4044 33.7327L73.4209 33.7043" stroke="#F4D8A0" stroke-miterlimit="10"/>
<path d="M73.1782 33.6004C73.1055 33.7255 73.1483 33.8858 73.2737 33.9583C73.3992 34.0308 73.5599 33.9881 73.6326 33.863C73.7052 33.7378 73.6625 33.5776 73.537 33.5051C73.4115 33.4325 73.2509 33.4752 73.1782 33.6004Z" fill="#F4D8A0"/>
<path d="M62.3663 55.5146L73.4053 33.7314" stroke="#F4D8A0" stroke-miterlimit="10"/>
<path d="M62.132 55.3964C62.0665 55.5255 62.1184 55.6831 62.2478 55.7484C62.3772 55.8136 62.5352 55.7619 62.6006 55.6329C62.666 55.5038 62.6142 55.3462 62.4848 55.2809C62.3554 55.2157 62.1974 55.2674 62.132 55.3964Z" fill="#F4D8A0"/>
<path d="M60.1455 62.3077L60.129 62.3362" stroke="#F4D8A0" stroke-miterlimit="10"/>
<path d="M60.3728 62.4383C60.4455 62.3132 60.4027 62.153 60.2772 62.0805C60.1518 62.008 59.9911 62.0507 59.9184 62.1757C59.8457 62.3008 59.8884 62.461 60.0139 62.5335C60.1394 62.606 60.3001 62.5634 60.3728 62.4383Z" fill="#F4D8A0"/>
<path d="M93.6396 64.1817L93.6232 64.2102" stroke="#F4D8A0" stroke-miterlimit="10"/>
<path d="M93.8669 64.312C93.9396 64.187 93.8968 64.0267 93.7714 63.9543C93.6459 63.8818 93.4852 63.9244 93.4125 64.0495C93.3398 64.1746 93.3826 64.3348 93.5081 64.4073C93.6335 64.4798 93.7942 64.4371 93.8669 64.312Z" fill="#F4D8A0"/>
<path d="M93.6392 64.1809L102.222 58.3254" stroke="#F4D8A0" stroke-miterlimit="10"/>
<path d="M93.4906 63.9646C93.3709 64.0462 93.3402 64.2092 93.422 64.3285C93.5038 64.4479 93.6673 64.4785 93.787 64.3969C93.9067 64.3153 93.9374 64.1524 93.8555 64.033C93.7737 63.9137 93.6103 63.883 93.4906 63.9646Z" fill="#F4D8A0"/>
<path d="M35.1807 19.5384L35.1586 19.5765" stroke="#F4D8A0" stroke-miterlimit="10"/>
<path d="M35.4079 19.669C35.4806 19.5439 35.4379 19.3837 35.3124 19.3112C35.187 19.2387 35.0263 19.2814 34.9536 19.4064C34.8809 19.5315 34.9236 19.6917 35.0491 19.7642C35.1745 19.8367 35.3352 19.7941 35.4079 19.669Z" fill="#F4D8A0"/>
<path d="M23.4806 33.6297L23.4971 33.6013" stroke="#F4D8A0" stroke-miterlimit="10"/>
<path d="M23.2543 33.4974C23.1816 33.6225 23.2244 33.7828 23.3499 33.8553C23.4753 33.9278 23.636 33.8851 23.7087 33.76C23.7814 33.6348 23.7386 33.4745 23.6131 33.402C23.4877 33.3295 23.327 33.3722 23.2543 33.4974Z" fill="#F4D8A0"/>
<path d="M23.4977 33.6008L35.1592 19.5754" stroke="#F4D8A0" stroke-miterlimit="10"/>
<path d="M23.2951 33.4335C23.2025 33.5449 23.2179 33.71 23.3295 33.8024C23.4411 33.8948 23.6067 33.8794 23.6993 33.7681C23.7919 33.6568 23.7765 33.4916 23.6649 33.3992C23.5533 33.3069 23.3877 33.3222 23.2951 33.4335Z" fill="#F4D8A0"/>
<path d="M35.7227 9.34506L35.7062 9.37353" stroke="#F4D8A0" stroke-miterlimit="10"/>
<path d="M35.9499 9.47579C36.0226 9.35064 35.9798 9.19035 35.8544 9.11784C35.7289 9.04534 35.5682 9.08803 35.4956 9.21318C35.4229 9.33833 35.4657 9.49861 35.5911 9.57112C35.7166 9.64363 35.8773 9.60094 35.9499 9.47579Z" fill="#F4D8A0"/>
<path d="M35.1818 19.5378L35.707 9.37256" stroke="#F4D8A0" stroke-miterlimit="10"/>
<path d="M34.9195 19.5242C34.912 19.6686 35.0234 19.7918 35.1682 19.7992C35.313 19.8067 35.4365 19.6956 35.444 19.5512C35.4515 19.4068 35.3401 19.2837 35.1953 19.2762C35.0504 19.2688 34.927 19.3798 34.9195 19.5242Z" fill="#F4D8A0"/>
<path d="M61.7234 32.6262L71.207 19.0508" stroke="#F4D8A0" stroke-miterlimit="10"/>
<path d="M61.5074 32.4766C61.4245 32.5953 61.4537 32.7586 61.5726 32.8413C61.6915 32.9241 61.8552 32.8949 61.9382 32.7763C62.0211 32.6576 61.9919 32.4943 61.8729 32.4116C61.754 32.3289 61.5903 32.358 61.5074 32.4766Z" fill="#F4D8A0"/>
<path d="M71.2275 19.0135L71.2054 19.0516" stroke="#F4D8A0" stroke-miterlimit="10"/>
<path d="M71.4548 19.1445C71.5275 19.0193 71.4847 18.8589 71.3593 18.7863C71.2339 18.7138 71.0732 18.7565 71.0005 18.8817C70.9278 19.0069 70.9705 19.1672 71.096 19.2398C71.2214 19.3123 71.3821 19.2697 71.4548 19.1445Z" fill="#F4D8A0"/>
<path d="M71.2281 19.0134L78.1367 4.12622" stroke="#F4D8A0" stroke-miterlimit="10"/>
<path d="M70.9903 18.9029C70.9293 19.0341 70.9866 19.1898 71.1182 19.2506C71.2498 19.3114 71.4059 19.2542 71.4668 19.123C71.5278 18.9918 71.4705 18.8361 71.3389 18.7753C71.2073 18.7145 71.0512 18.7716 70.9903 18.9029Z" fill="#F4D8A0"/>
<path d="M61.7052 32.6553L61.7217 32.6268" stroke="#F4D8A0" stroke-miterlimit="10"/>
<path d="M61.479 32.5228C61.4063 32.648 61.4491 32.8084 61.5745 32.8809C61.7 32.9535 61.8606 32.9108 61.9333 32.7855C62.006 32.6603 61.9632 32.5 61.8378 32.4274C61.7123 32.3549 61.5516 32.3976 61.479 32.5228Z" fill="#F4D8A0"/>
<path d="M98.3526 32.6553L98.3691 32.6268" stroke="#F4D8A0" stroke-miterlimit="10"/>
<path d="M98.1264 32.5228C98.0537 32.648 98.0965 32.8084 98.2219 32.8809C98.3474 32.9535 98.5081 32.9108 98.5808 32.7855C98.6535 32.6603 98.6107 32.5 98.4852 32.4274C98.3597 32.3549 98.1991 32.3976 98.1264 32.5228Z" fill="#F4D8A0"/>
<path d="M98.3709 32.6265L104.175 19.5754" stroke="#F4D8A0" stroke-miterlimit="10"/>
<path d="M98.1312 32.5202C98.0723 32.6524 98.1321 32.8072 98.2646 32.8659C98.3972 32.9245 98.5523 32.8649 98.6112 32.7327C98.67 32.6005 98.6102 32.4458 98.4777 32.3871C98.3451 32.3284 98.19 32.388 98.1312 32.5202Z" fill="#F4D8A0"/>
<path d="M32.7549 -12.2036L28.6783 8.71729" stroke="#F4D8A0" stroke-miterlimit="10"/>
<path d="M28.6632 8.74572L28.6797 8.71725" stroke="#F4D8A0" stroke-miterlimit="10"/>
<path d="M28.436 8.61338C28.3633 8.73859 28.4061 8.89895 28.5315 8.97149C28.657 9.04404 28.8177 9.00133 28.8904 8.87612C28.9631 8.75091 28.9203 8.59055 28.7948 8.51801C28.6693 8.44547 28.5087 8.48817 28.436 8.61338Z" fill="#F4D8A0"/>
<path d="M30.465 96.2139L30.4814 96.2423" stroke="#F4D8A0" stroke-miterlimit="10"/>
<path d="M30.6931 96.0818C30.6204 95.9567 30.4597 95.914 30.3342 95.9865C30.2088 96.059 30.166 96.2192 30.2387 96.3443C30.3114 96.4694 30.4721 96.512 30.5975 96.4395C30.723 96.3671 30.7658 96.2068 30.6931 96.0818Z" fill="#F4D8A0"/>
<path d="M23.4968 110.154L30.4814 96.2412" stroke="#F4D8A0" stroke-miterlimit="10"/>
<path d="M26.7853 64.6594L26.8018 64.6879" stroke="#F4D8A0" stroke-miterlimit="10"/>
<path d="M27.0124 64.5274C26.9397 64.4022 26.7791 64.3595 26.6536 64.4321C26.5282 64.5046 26.4854 64.6649 26.5581 64.79C26.6308 64.9152 26.7914 64.9578 26.9169 64.8853C27.0423 64.8128 27.0851 64.6525 27.0124 64.5274Z" fill="#F4D8A0"/>
<path d="M28.9795 79.2744L26.8021 64.6865" stroke="#F4D8A0" stroke-miterlimit="10"/>
<path d="M28.7198 79.3129C28.7412 79.4559 28.8748 79.5545 29.0183 79.5332C29.1617 79.5119 29.2607 79.3787 29.2393 79.2357C29.2179 79.0927 29.0843 78.994 28.9409 79.0153C28.7974 79.0366 28.6985 79.1699 28.7198 79.3129Z" fill="#F4D8A0"/>
<path d="M29.001 79.3128L28.9789 79.2747" stroke="#F4D8A0" stroke-miterlimit="10"/>
<path d="M28.7738 79.4429C28.8466 79.568 29.0073 79.6107 29.1327 79.5381C29.2582 79.4656 29.3009 79.3053 29.2282 79.1802C29.1555 79.055 28.9948 79.0124 28.8694 79.0849C28.7439 79.1574 28.7011 79.3177 28.7738 79.4429Z" fill="#F4D8A0"/>
<path d="M40.1367 99.7832L29.0009 79.3115" stroke="#F4D8A0" stroke-miterlimit="10"/>
<path d="M69.2549 80.4372L69.2328 80.399" stroke="#F4D8A0" stroke-miterlimit="10"/>
<path d="M69.0268 80.567C69.0995 80.692 69.2602 80.7347 69.3857 80.6622C69.5111 80.5897 69.5539 80.4295 69.4812 80.3044C69.4085 80.1793 69.2478 80.1367 69.1223 80.2092C68.9969 80.2817 68.9541 80.4419 69.0268 80.567Z" fill="#F4D8A0"/>
<path d="M60.129 62.3358L60.1455 62.3643" stroke="#F4D8A0" stroke-miterlimit="10"/>
<path d="M60.3572 62.2039C60.2844 62.0787 60.1237 62.0361 59.9983 62.1086C59.8728 62.1811 59.83 62.3414 59.9027 62.4665C59.9754 62.5917 60.1361 62.6344 60.2616 62.5618C60.3871 62.4893 60.4299 62.329 60.3572 62.2039Z" fill="#F4D8A0"/>
<path d="M76.8018 94.3406L76.7853 94.3121" stroke="#F4D8A0" stroke-miterlimit="10"/>
<path d="M76.5736 94.4705C76.6463 94.5956 76.807 94.6382 76.9325 94.5658C77.058 94.4933 77.1008 94.3331 77.0281 94.208C76.9553 94.0829 76.7947 94.0402 76.6692 94.1127C76.5437 94.1852 76.5009 94.3454 76.5736 94.4705Z" fill="#F4D8A0"/>
<path d="M69.2531 80.4364L76.7842 94.3116" stroke="#F4D8A0" stroke-miterlimit="10"/>
<path d="M69.4839 80.311C69.4148 80.1839 69.2554 80.1366 69.128 80.2055C69.0005 80.2744 68.9531 80.4334 69.0222 80.5605C69.0912 80.6877 69.2506 80.735 69.3781 80.6661C69.5056 80.5972 69.5529 80.4382 69.4839 80.311Z" fill="#F4D8A0"/>
<path d="M60.145 62.3636L69.2314 80.399" stroke="#F4D8A0" stroke-miterlimit="10"/>
<path d="M60.3792 62.2451C60.314 62.1159 60.1562 62.0638 60.0266 62.1288C59.8971 62.1937 59.8449 62.3511 59.91 62.4803C59.9751 62.6094 60.133 62.6615 60.2626 62.5966C60.3921 62.5316 60.4443 62.3742 60.3792 62.2451Z" fill="#F4D8A0"/>
<path d="M93.6222 64.2096L93.6387 64.2381" stroke="#F4D8A0" stroke-miterlimit="10"/>
<path d="M93.8503 64.0776C93.7776 63.9525 93.6169 63.9099 93.4915 63.9823C93.366 64.0548 93.3233 64.215 93.396 64.3401C93.4686 64.4652 93.6293 64.5079 93.7548 64.4354C93.8802 64.3629 93.923 64.2027 93.8503 64.0776Z" fill="#F4D8A0"/>
<path d="M93.6391 64.2376L104.152 79.275" stroke="#F4D8A0" stroke-miterlimit="10"/>
<path d="M93.8541 64.0869C93.7711 63.9683 93.6074 63.9392 93.4885 64.022C93.3696 64.1048 93.3404 64.2681 93.4234 64.3867C93.5064 64.5053 93.6701 64.5344 93.789 64.4516C93.9079 64.3689 93.9371 64.2055 93.8541 64.0869Z" fill="#F4D8A0"/>
<path d="M23.4806 33.6294L23.4971 33.6579" stroke="#F4D8A0" stroke-miterlimit="10"/>
<path d="M23.7087 33.4974C23.636 33.3722 23.4753 33.3295 23.3499 33.402C23.2244 33.4745 23.1816 33.6348 23.2543 33.76C23.327 33.8851 23.4877 33.9278 23.6131 33.8553C23.7386 33.7828 23.7814 33.6225 23.7087 33.4974Z" fill="#F4D8A0"/>
<path d="M27.3271 48.0193L23.4976 33.6565" stroke="#F4D8A0" stroke-miterlimit="10"/>
<path d="M27.0734 48.0865C27.1107 48.2264 27.2546 48.3096 27.3947 48.2724C27.5348 48.2352 27.6182 48.0916 27.581 47.9518C27.5437 47.812 27.3998 47.7287 27.2596 47.766C27.1195 47.8032 27.0361 47.9467 27.0734 48.0865Z" fill="#F4D8A0"/>
<path d="M27.3265 48.0201L27.3486 48.0582" stroke="#F4D8A0" stroke-miterlimit="10"/>
<path d="M27.5544 47.8879C27.4817 47.7628 27.321 47.7201 27.1956 47.7927C27.0701 47.8652 27.0274 48.0255 27.1001 48.1506C27.1728 48.2758 27.3335 48.3184 27.4589 48.2459C27.5843 48.1734 27.6271 48.0131 27.5544 47.8879Z" fill="#F4D8A0"/>
<path d="M34.2197 68.1073L34.2032 68.0788" stroke="#F4D8A0" stroke-miterlimit="10"/>
<path d="M33.9926 68.2373C34.0653 68.3624 34.226 68.4051 34.3515 68.3326C34.4769 68.2601 34.5197 68.0999 34.447 67.9748C34.3743 67.8497 34.2136 67.8071 34.0882 67.8796C33.9627 67.952 33.9199 68.1123 33.9926 68.2373Z" fill="#F4D8A0"/>
<path d="M27.3489 48.0576L34.2041 68.0791" stroke="#F4D8A0" stroke-miterlimit="10"/>
<path d="M27.5972 47.9723C27.5503 47.8354 27.401 47.7624 27.2637 47.8091C27.1265 47.8559 27.0533 48.0048 27.1002 48.1416C27.1471 48.2785 27.2964 48.3515 27.4336 48.3048C27.5708 48.258 27.644 48.1091 27.5972 47.9723Z" fill="#F4D8A0"/>
<path d="M61.7052 32.6548L61.7217 32.6832" stroke="#F4D8A0" stroke-miterlimit="10"/>
<path d="M61.9333 32.5228C61.8606 32.3976 61.7 32.3549 61.5745 32.4274C61.4491 32.5 61.4063 32.6603 61.479 32.7855C61.5516 32.9108 61.7123 32.9535 61.8378 32.8809C61.9632 32.8084 62.006 32.648 61.9333 32.5228Z" fill="#F4D8A0"/>
<path d="M62.3442 55.5524L71.6025 72.8012" stroke="#F4D8A0" stroke-miterlimit="10"/>
<path d="M62.5753 55.4281C62.5068 55.3006 62.3476 55.2526 62.2198 55.3209C62.092 55.3892 62.0439 55.5481 62.1123 55.6756C62.1808 55.8032 62.34 55.8512 62.4678 55.7829C62.5956 55.7145 62.6438 55.5557 62.5753 55.4281Z" fill="#F4D8A0"/>
<path d="M62.3232 55.5146L61.7229 32.6821" stroke="#F4D8A0" stroke-miterlimit="10"/>
<path d="M62.0608 55.5214C62.0646 55.6659 62.1853 55.7801 62.3302 55.7763C62.4752 55.7725 62.5896 55.6522 62.5858 55.5077C62.582 55.3631 62.4614 55.249 62.3164 55.2528C62.1715 55.2566 62.057 55.3769 62.0608 55.5214Z" fill="#F4D8A0"/>
<path d="M71.6191 72.8297L71.6026 72.8012" stroke="#F4D8A0" stroke-miterlimit="10"/>
<path d="M71.392 72.9597C71.4647 73.0848 71.6254 73.1275 71.7509 73.055C71.8763 72.9825 71.9191 72.8222 71.8464 72.697C71.7737 72.5719 71.613 72.5292 71.4875 72.6017C71.3621 72.6743 71.3193 72.8345 71.392 72.9597Z" fill="#F4D8A0"/>
<path d="M62.3226 55.5153L62.3447 55.5534" stroke="#F4D8A0" stroke-miterlimit="10"/>
<path d="M62.5495 55.3833C62.4768 55.2582 62.3161 55.2155 62.1907 55.288C62.0652 55.3606 62.0225 55.5209 62.0952 55.646C62.1679 55.7711 62.3286 55.8138 62.454 55.7413C62.5795 55.6687 62.6222 55.5084 62.5495 55.3833Z" fill="#F4D8A0"/>
<path d="M98.3526 32.6548L98.3691 32.6832" stroke="#F4D8A0" stroke-miterlimit="10"/>
<path d="M98.5808 32.5228C98.5081 32.3976 98.3474 32.3549 98.2219 32.4274C98.0965 32.5 98.0537 32.6603 98.1264 32.7855C98.1991 32.9108 98.3597 32.9535 98.4852 32.8809C98.6107 32.8084 98.6535 32.648 98.5808 32.5228Z" fill="#F4D8A0"/>
<path d="M102.2 58.2878L98.3707 32.6821" stroke="#F4D8A0" stroke-miterlimit="10"/>
<path d="M36.4736 34.2294L36.4571 34.2009" stroke="#F4D8A0" stroke-miterlimit="10"/>
<path d="M36.2465 34.3594C36.3192 34.4845 36.4799 34.5272 36.6054 34.4547C36.7308 34.3822 36.7736 34.222 36.7009 34.0969C36.6282 33.9718 36.4676 33.9291 36.3421 34.0016C36.2166 34.0741 36.1738 34.2343 36.2465 34.3594Z" fill="#F4D8A0"/>
<path d="M36.457 34.2004L35.1591 19.5754" stroke="#F4D8A0" stroke-miterlimit="10"/>
<path d="M36.1956 34.2237C36.2083 34.3677 36.3359 34.4741 36.4803 34.4614C36.6247 34.4486 36.7315 34.3215 36.7187 34.1775C36.7059 34.0334 36.5784 33.927 36.434 33.9398C36.2895 33.9525 36.1828 34.0796 36.1956 34.2237Z" fill="#F4D8A0"/>
<path d="M28.6797 8.77347L35.1377 19.5384" stroke="#F4D8A0" stroke-miterlimit="10"/>
<path d="M28.9051 8.63815C28.8306 8.51405 28.6693 8.47367 28.5449 8.54797C28.4205 8.62228 28.38 8.78316 28.4545 8.90726C28.529 9.03136 28.6903 9.07174 28.8147 8.99744C28.9391 8.92313 28.9795 8.76225 28.9051 8.63815Z" fill="#F4D8A0"/>
<path d="M35.1592 19.5767L35.1371 19.5386" stroke="#F4D8A0" stroke-miterlimit="10"/>
<path d="M34.9321 19.7066C35.0048 19.8317 35.1655 19.8743 35.2909 19.8018C35.4164 19.7293 35.4591 19.5691 35.3864 19.444C35.3137 19.319 35.1531 19.2763 35.0276 19.3488C34.9022 19.4213 34.8594 19.5815 34.9321 19.7066Z" fill="#F4D8A0"/>
<path d="M28.6632 8.74536L28.6797 8.77383" stroke="#F4D8A0" stroke-miterlimit="10"/>
<path d="M28.8904 8.61339C28.8177 8.48817 28.657 8.44546 28.5315 8.51801C28.4061 8.59055 28.3633 8.75091 28.436 8.87612C28.5087 9.00133 28.6693 9.04404 28.7948 8.97149C28.9203 8.89895 28.9631 8.73859 28.8904 8.61339Z" fill="#F4D8A0"/>
<path d="M73.4053 33.6755L71.2061 19.051" stroke="#F4D8A0" stroke-miterlimit="10"/>
<path d="M73.1457 33.7152C73.1672 33.8586 73.3009 33.9574 73.4443 33.9359C73.5877 33.9144 73.6865 33.7806 73.665 33.6372C73.6435 33.4938 73.5098 33.395 73.3664 33.4165C73.223 33.438 73.1242 33.5718 73.1457 33.7152Z" fill="#F4D8A0"/>
<path d="M71.2061 19.0519L71.184 19.0137" stroke="#F4D8A0" stroke-miterlimit="10"/>
<path d="M70.979 19.1821C71.0517 19.3073 71.2124 19.3499 71.3378 19.2774C71.4633 19.2049 71.506 19.0446 71.4333 18.9194C71.3606 18.7943 71.1999 18.7516 71.0745 18.8242C70.949 18.8967 70.9063 19.057 70.979 19.1821Z" fill="#F4D8A0"/>
<path d="M65.1021 5.47543L71.1846 19.0138" stroke="#F4D8A0" stroke-miterlimit="10"/>
<path d="M73.4219 33.7048L73.4054 33.6763" stroke="#F4D8A0" stroke-miterlimit="10"/>
<path d="M73.1947 33.8351C73.2674 33.9603 73.4281 34.003 73.5536 33.9305C73.6791 33.8579 73.7218 33.6976 73.6492 33.5724C73.5765 33.4472 73.4158 33.4044 73.2903 33.477C73.1648 33.5495 73.122 33.7099 73.1947 33.8351Z" fill="#F4D8A0"/>
<path d="M98.3703 4.1264L104.152 19.538" stroke="#F4D8A0" stroke-miterlimit="10"/>
<path d="M35.7061 9.31665L32.7559 -12.2041" stroke="#F4D8A0" stroke-miterlimit="10"/>
<path d="M35.446 9.35191C35.4656 9.49522 35.5981 9.59553 35.7417 9.57592C35.8854 9.55631 35.9859 9.4242 35.9663 9.2809C35.9466 9.13759 35.8142 9.03728 35.6706 9.05689C35.5269 9.0765 35.4263 9.2086 35.446 9.35191Z" fill="#F4D8A0"/>
<path d="M35.7052 9.3172L35.7217 9.34566" stroke="#F4D8A0" stroke-miterlimit="10"/>
<path d="M35.9333 9.1851C35.8606 9.05995 35.7 9.01726 35.5745 9.08977C35.4491 9.16228 35.4063 9.32256 35.479 9.44771C35.5516 9.57287 35.7123 9.61555 35.8378 9.54304C35.9632 9.47053 36.006 9.31025 35.9333 9.1851Z" fill="#F4D8A0"/>
<path d="M111.18 7.81738L98.3917 -11.6042" stroke="#F4D8A0" stroke-miterlimit="10"/>
<path d="M17.9238 86.6201H17.8745" stroke="#F4D8A0" stroke-miterlimit="10"/>
<path d="M17.9239 86.8813C17.7789 86.8813 17.6613 86.7641 17.6613 86.6194C17.6613 86.4747 17.7789 86.3574 17.9239 86.3574C18.069 86.3574 18.1865 86.4747 18.1865 86.6194C18.1865 86.7641 18.069 86.8813 17.9239 86.8813Z" fill="#F4D8A0"/>
<path d="M17.875 86.6187L-11.4551 85.4949" stroke="#F4D8A0" stroke-miterlimit="10"/>
<path d="M17.865 86.8807C18.0099 86.8862 18.1319 86.7735 18.1375 86.6289C18.1431 86.4844 18.0301 86.3627 17.8852 86.3571C17.7403 86.3516 17.6182 86.4643 17.6127 86.6088C17.6071 86.7534 17.7201 86.8751 17.865 86.8807Z" fill="#F4D8A0"/>
<path d="M17.9233 86.6201H17.9727" stroke="#F4D8A0" stroke-miterlimit="10"/>
<path d="M17.9239 86.8813C17.7789 86.8813 17.6613 86.7641 17.6613 86.6194C17.6613 86.4747 17.7789 86.3574 17.9239 86.3574C18.069 86.3574 18.1865 86.4747 18.1865 86.6194C18.1865 86.7641 18.069 86.8813 17.9239 86.8813Z" fill="#F4D8A0"/>
<path d="M17.9733 86.6194L28.9795 79.2744" stroke="#F4D8A0" stroke-miterlimit="10"/>
<path d="M17.8268 86.4016C17.7063 86.482 17.6739 86.6447 17.7545 86.765C17.8351 86.8852 17.9982 86.9175 18.1187 86.8371C18.2392 86.7567 18.2716 86.594 18.191 86.4738C18.1104 86.3535 17.9473 86.3212 17.8268 86.4016Z" fill="#F4D8A0"/>
<path d="M52.0449 79.4995L29.023 79.2742" stroke="#F4D8A0" stroke-miterlimit="10"/>
<path d="M52.0424 79.761C52.1875 79.7624 52.3062 79.6462 52.3076 79.5016C52.309 79.3569 52.1926 79.2385 52.0476 79.2371C51.9026 79.2357 51.7838 79.3518 51.7824 79.4965C51.781 79.6411 51.8974 79.7596 52.0424 79.761Z" fill="#F4D8A0"/>
<path d="M52.0444 79.4995H52.0938" stroke="#F4D8A0" stroke-miterlimit="10"/>
<path d="M52.045 79.761C51.9 79.761 51.7824 79.6437 51.7824 79.499C51.7824 79.3543 51.9 79.2371 52.045 79.2371C52.19 79.2371 52.3076 79.3543 52.3076 79.499C52.3076 79.6437 52.19 79.761 52.045 79.761Z" fill="#F4D8A0"/>
<path d="M29.0225 79.2747H28.9786" stroke="#F4D8A0" stroke-miterlimit="10"/>
<path d="M29.0226 79.5359C28.8776 79.5359 28.76 79.4187 28.76 79.274C28.76 79.1294 28.8776 79.0122 29.0226 79.0122C29.1676 79.0122 29.2852 79.1294 29.2852 79.274C29.2852 79.4187 29.1676 79.5359 29.0226 79.5359Z" fill="#F4D8A0"/>
<path d="M89.1172 78.5998H89.0679" stroke="#F4D8A0" stroke-miterlimit="10"/>
<path d="M89.1173 78.8611C89.2623 78.8611 89.3799 78.7438 89.3799 78.5991C89.3799 78.4545 89.2623 78.3372 89.1173 78.3372C88.9723 78.3372 88.8547 78.4545 88.8547 78.5991C88.8547 78.7438 88.9723 78.8611 89.1173 78.8611Z" fill="#F4D8A0"/>
<path d="M69.2316 80.3989H69.2754" stroke="#F4D8A0" stroke-miterlimit="10"/>
<path d="M69.2315 80.6599C69.0865 80.6599 68.9689 80.5427 68.9689 80.3981C68.9689 80.2535 69.0865 80.1362 69.2315 80.1362C69.3766 80.1362 69.4941 80.2535 69.4941 80.3981C69.4941 80.5427 69.3766 80.6599 69.2315 80.6599Z" fill="#F4D8A0"/>
<path d="M52.0933 79.4995H52.1426" stroke="#F4D8A0" stroke-miterlimit="10"/>
<path d="M52.0939 79.761C51.9489 79.761 51.8313 79.6437 51.8313 79.499C51.8313 79.3543 51.9489 79.2371 52.0939 79.2371C52.2389 79.2371 52.3564 79.3543 52.3564 79.499C52.3564 79.6437 52.2389 79.761 52.0939 79.761Z" fill="#F4D8A0"/>
<path d="M69.2324 80.3978L52.1432 79.4989" stroke="#F4D8A0" stroke-miterlimit="10"/>
<path d="M69.2187 80.6593C69.3635 80.6669 69.4871 80.556 69.4947 80.4116C69.5024 80.2672 69.3911 80.144 69.2463 80.1364C69.1015 80.1287 68.9779 80.2397 68.9703 80.384C68.9626 80.5284 69.0739 80.6517 69.2187 80.6593Z" fill="#F4D8A0"/>
<path d="M89.0684 78.5998L69.2756 80.3976" stroke="#F4D8A0" stroke-miterlimit="10"/>
<path d="M89.0923 78.8602C89.2367 78.8471 89.3431 78.7196 89.33 78.5755C89.3168 78.4314 89.189 78.3251 89.0446 78.3383C88.9002 78.3514 88.7938 78.4789 88.8069 78.623C88.8201 78.7671 88.9479 78.8734 89.0923 78.8602Z" fill="#F4D8A0"/>
<path d="M89.166 78.5998H89.1167" stroke="#F4D8A0" stroke-miterlimit="10"/>
<path d="M89.1661 78.8611C89.3111 78.8611 89.4287 78.7438 89.4287 78.5991C89.4287 78.4545 89.3111 78.3372 89.1661 78.3372C89.0211 78.3372 88.9036 78.4545 88.9036 78.5991C88.9036 78.7438 89.0211 78.8611 89.1661 78.8611Z" fill="#F4D8A0"/>
<path d="M89.166 78.5999L104.152 79.2742" stroke="#F4D8A0" stroke-miterlimit="10"/>
<path d="M89.1779 78.3377C89.0331 78.3312 88.9103 78.4431 88.9038 78.5876C88.8972 78.7321 89.0094 78.8545 89.1543 78.8611C89.2991 78.8676 89.4219 78.7557 89.4284 78.6112C89.435 78.4667 89.3228 78.3442 89.1779 78.3377Z" fill="#F4D8A0"/>
<path d="M15.9229 57.7629L-8.67609 50.3428" stroke="#F4D8A0" stroke-miterlimit="10"/>
<path d="M15.8469 58.0136C15.9857 58.0555 16.1323 57.9771 16.1743 57.8386C16.2162 57.7001 16.1377 57.5539 15.9989 57.512C15.8601 57.4701 15.7135 57.5485 15.6716 57.687C15.6296 57.8255 15.7082 57.9718 15.8469 58.0136Z" fill="#F4D8A0"/>
<path d="M15.9717 57.7637H15.9224" stroke="#F4D8A0" stroke-miterlimit="10"/>
<path d="M15.9718 58.0249C15.8268 58.0249 15.7092 57.9076 15.7092 57.7629C15.7092 57.6183 15.8268 57.501 15.9718 57.501C16.1168 57.501 16.2344 57.6183 16.2344 57.7629C16.2344 57.9076 16.1168 58.0249 15.9718 58.0249Z" fill="#F4D8A0"/>
<path d="M27.3273 48.0197H27.3711" stroke="#F4D8A0" stroke-miterlimit="10"/>
<path d="M27.3273 48.2812C27.1823 48.2812 27.0647 48.164 27.0647 48.0193C27.0647 47.8746 27.1823 47.7573 27.3273 47.7573C27.4723 47.7573 27.5898 47.8746 27.5898 48.0193C27.5898 48.164 27.4723 48.2812 27.3273 48.2812Z" fill="#F4D8A0"/>
<path d="M27.3702 48.0201L41.7559 55.5152" stroke="#F4D8A0" stroke-miterlimit="10"/>
<path d="M27.4917 47.7871C27.3632 47.7202 27.2045 47.7699 27.1374 47.8981C27.0703 48.0263 27.1201 48.1845 27.2487 48.2515C27.3772 48.3184 27.5359 48.2687 27.603 48.1405C27.6701 48.0123 27.6202 47.854 27.4917 47.7871Z" fill="#F4D8A0"/>
<path d="M16.0215 57.7629L27.3281 48.0193" stroke="#F4D8A0" stroke-miterlimit="10"/>
<path d="M15.85 57.5647C15.7402 57.6592 15.728 57.8247 15.8228 57.9341C15.9176 58.0436 16.0834 58.0558 16.1932 57.9612C16.303 57.8667 16.3151 57.7012 16.2203 57.5917C16.1256 57.4822 15.9597 57.4701 15.85 57.5647Z" fill="#F4D8A0"/>
<path d="M16.0205 57.7637H15.9712" stroke="#F4D8A0" stroke-miterlimit="10"/>
<path d="M16.0206 58.0249C15.8756 58.0249 15.7581 57.9076 15.7581 57.7629C15.7581 57.6183 15.8756 57.501 16.0206 57.501C16.1656 57.501 16.2832 57.6183 16.2832 57.7629C16.2832 57.9076 16.1656 58.0249 16.0206 58.0249Z" fill="#F4D8A0"/>
<path d="M41.8057 55.5152H41.7563" stroke="#F4D8A0" stroke-miterlimit="10"/>
<path d="M41.8048 55.7764C41.6598 55.7764 41.5422 55.6591 41.5422 55.5145C41.5422 55.3699 41.6598 55.2527 41.8048 55.2527C41.9498 55.2527 42.0674 55.3699 42.0674 55.5145C42.0674 55.6591 41.9498 55.7764 41.8048 55.7764Z" fill="#F4D8A0"/>
<path d="M62.3666 55.5144L83.0605 50.9426" stroke="#F4D8A0" stroke-miterlimit="10"/>
<path d="M62.3095 55.2589C62.1679 55.2902 62.0786 55.4301 62.1099 55.5713C62.1412 55.7125 62.2815 55.8016 62.423 55.7704C62.5646 55.7391 62.654 55.5993 62.6226 55.458C62.5913 55.3168 62.4511 55.2277 62.3095 55.2589Z" fill="#F4D8A0"/>
<path d="M62.3224 55.5152H62.3662" stroke="#F4D8A0" stroke-miterlimit="10"/>
<path d="M62.3224 55.7764C62.1774 55.7764 62.0598 55.6591 62.0598 55.5145C62.0598 55.3699 62.1774 55.2527 62.3224 55.2527C62.4674 55.2527 62.585 55.3699 62.585 55.5145C62.585 55.6591 62.4674 55.7764 62.3224 55.7764Z" fill="#F4D8A0"/>
<path d="M41.8547 55.5154H62.3232" stroke="#F4D8A0" stroke-miterlimit="10"/>
<path d="M41.8546 55.7764C41.7096 55.7764 41.592 55.6591 41.592 55.5145C41.592 55.3699 41.7096 55.2527 41.8546 55.2527C41.9996 55.2527 42.1172 55.3699 42.1172 55.5145C42.1172 55.6591 41.9996 55.7764 41.8546 55.7764Z" fill="#F4D8A0"/>
<path d="M83.1094 50.9428H83.06" stroke="#F4D8A0" stroke-miterlimit="10"/>
<path d="M83.1095 51.2043C83.2545 51.2043 83.3721 51.087 83.3721 50.9424C83.3721 50.7977 83.2545 50.6804 83.1095 50.6804C82.9645 50.6804 82.8469 50.7977 82.8469 50.9424C82.8469 51.087 82.9645 51.2043 83.1095 51.2043Z" fill="#F4D8A0"/>
<path d="M41.8545 55.5152H41.8052" stroke="#F4D8A0" stroke-miterlimit="10"/>
<path d="M41.8546 55.7764C41.7096 55.7764 41.592 55.6591 41.592 55.5145C41.592 55.3699 41.7096 55.2527 41.8546 55.2527C41.9996 55.2527 42.1172 55.3699 42.1172 55.5145C42.1172 55.6591 41.9996 55.7764 41.8546 55.7764Z" fill="#F4D8A0"/>
<path d="M83.1582 50.9428H83.1089" stroke="#F4D8A0" stroke-miterlimit="10"/>
<path d="M83.1583 51.2043C83.3033 51.2043 83.4209 51.087 83.4209 50.9424C83.4209 50.7977 83.3033 50.6804 83.1583 50.6804C83.0133 50.6804 82.8958 50.7977 82.8958 50.9424C82.8958 51.087 83.0133 51.2043 83.1583 51.2043Z" fill="#F4D8A0"/>
<path d="M83.1584 50.9428L102.2 58.288" stroke="#F4D8A0" stroke-miterlimit="10"/>
<path d="M83.2529 50.6979C83.1176 50.6457 82.9656 50.7128 82.9133 50.8477C82.861 50.9826 82.9283 51.1343 83.0636 51.1864C83.1988 51.2386 83.3509 51.1715 83.4032 51.0366C83.4555 50.9017 83.3882 50.75 83.2529 50.6979Z" fill="#F4D8A0"/>
<path d="M9.88867 19.0135H9.83935" stroke="#F4D8A0" stroke-miterlimit="10"/>
<path d="M9.88879 19.2749C9.74378 19.2749 9.62622 19.1576 9.62622 19.0129C9.62622 18.8683 9.74378 18.751 9.88879 18.751C10.0338 18.751 10.1514 18.8683 10.1514 19.0129C10.1514 19.1576 10.0338 19.2749 9.88879 19.2749Z" fill="#F4D8A0"/>
<path d="M9.83887 19.0135L-3.11987 27.7826" stroke="#F4D8A0" stroke-miterlimit="10"/>
<path d="M9.98632 19.2297C10.1063 19.1486 10.1377 18.9857 10.0563 18.8659C9.97493 18.7462 9.81161 18.715 9.6916 18.7961C9.57158 18.8773 9.54024 19.0402 9.62162 19.1599C9.703 19.2797 9.8663 19.3109 9.98632 19.2297Z" fill="#F4D8A0"/>
<path d="M9.93799 19.0135L35.1377 19.5377" stroke="#F4D8A0" stroke-miterlimit="10"/>
<path d="M9.94408 18.7509C9.79911 18.7479 9.67911 18.8628 9.67608 19.0074C9.67306 19.152 9.78816 19.2717 9.93313 19.2748C10.0781 19.2778 10.1981 19.1629 10.2011 19.0183C10.2041 18.8737 10.089 18.754 9.94408 18.7509Z" fill="#F4D8A0"/>
<path d="M35.1378 19.5384H35.1816" stroke="#F4D8A0" stroke-miterlimit="10"/>
<path d="M35.1378 19.7996C34.9928 19.7996 34.8752 19.6823 34.8752 19.5377C34.8752 19.3931 34.9928 19.2759 35.1378 19.2759C35.2828 19.2759 35.4004 19.3931 35.4004 19.5377C35.4004 19.6823 35.2828 19.7996 35.1378 19.7996Z" fill="#F4D8A0"/>
<path d="M50.5918 27.7827H50.5425" stroke="#F4D8A0" stroke-miterlimit="10"/>
<path d="M50.5919 28.0444C50.4469 28.0444 50.3293 27.9271 50.3293 27.7823C50.3293 27.6376 50.4469 27.5203 50.5919 27.5203C50.7369 27.5203 50.8545 27.6376 50.8545 27.7823C50.8545 27.9271 50.7369 28.0444 50.5919 28.0444Z" fill="#F4D8A0"/>
<path d="M50.543 27.7822L35.1811 19.5376" stroke="#F4D8A0" stroke-miterlimit="10"/>
<path d="M50.4187 28.0129C50.5464 28.0814 50.7056 28.0337 50.7743 27.9062C50.843 27.7788 50.7951 27.6198 50.6674 27.5513C50.5397 27.4828 50.3804 27.5306 50.3118 27.658C50.2431 27.7854 50.291 27.9444 50.4187 28.0129Z" fill="#F4D8A0"/>
<path d="M9.88915 19.0135H9.93848" stroke="#F4D8A0" stroke-miterlimit="10"/>
<path d="M9.88879 19.2749C9.74378 19.2749 9.62622 19.1576 9.62622 19.0129C9.62622 18.8683 9.74378 18.751 9.88879 18.751C10.0338 18.751 10.1514 18.8683 10.1514 19.0129C10.1514 19.1576 10.0338 19.2749 9.88879 19.2749Z" fill="#F4D8A0"/>
<path d="M50.5913 27.7827H50.6406" stroke="#F4D8A0" stroke-miterlimit="10"/>
<path d="M50.5919 28.0444C50.4469 28.0444 50.3293 27.9271 50.3293 27.7823C50.3293 27.6376 50.4469 27.5203 50.5919 27.5203C50.7369 27.5203 50.8545 27.6376 50.8545 27.7823C50.8545 27.9271 50.7369 28.0444 50.5919 28.0444Z" fill="#F4D8A0"/>
<path d="M71.1837 19.0135H71.2275" stroke="#F4D8A0" stroke-miterlimit="10"/>
<path d="M71.1847 19.2749C71.0397 19.2749 70.9221 19.1576 70.9221 19.0129C70.9221 18.8683 71.0397 18.751 71.1847 18.751C71.3297 18.751 71.4473 18.8683 71.4473 19.0129C71.4473 19.1576 71.3297 19.2749 71.1847 19.2749Z" fill="#F4D8A0"/>
<path d="M50.6409 27.7825L71.1846 19.0134" stroke="#F4D8A0" stroke-miterlimit="10"/>
<path d="M50.5384 27.5414C50.405 27.5983 50.3432 27.7524 50.4002 27.8854C50.4572 28.0184 50.6116 28.0802 50.7449 28.0233C50.8782 27.9664 50.9401 27.8123 50.8831 27.6793C50.8261 27.5463 50.6717 27.4845 50.5384 27.5414Z" fill="#F4D8A0"/>
<path d="M83.0342 26.8087H82.9849" stroke="#F4D8A0" stroke-miterlimit="10"/>
<path d="M83.0343 27.0701C83.1793 27.0701 83.2969 26.9527 83.2969 26.808C83.2969 26.6633 83.1793 26.5459 83.0343 26.5459C82.8893 26.5459 82.7717 26.6633 82.7717 26.808C82.7717 26.9527 82.8893 27.0701 83.0343 27.0701Z" fill="#F4D8A0"/>
<path d="M82.9854 26.8081L71.2281 19.0134" stroke="#F4D8A0" stroke-miterlimit="10"/>
<path d="M82.8401 27.0263C82.9609 27.1064 83.1239 27.0735 83.2042 26.953C83.2844 26.8325 83.2515 26.6698 83.1307 26.5897C83.01 26.5096 82.847 26.5424 82.7667 26.663C82.6865 26.7835 82.7194 26.9462 82.8401 27.0263Z" fill="#F4D8A0"/>
<path d="M83.0829 26.8079L104.152 19.5376" stroke="#F4D8A0" stroke-miterlimit="10"/>
<path d="M82.9973 26.5601C82.8602 26.6074 82.7875 26.7566 82.8349 26.8934C82.8823 27.0301 83.0318 27.1027 83.1689 27.0554C83.3059 27.0081 83.3786 26.8589 83.3312 26.7221C83.2838 26.5854 83.1343 26.5128 82.9973 26.5601Z" fill="#F4D8A0"/>
<path d="M83.0347 26.8087H83.084" stroke="#F4D8A0" stroke-miterlimit="10"/>
<path d="M83.0343 26.5459C82.8893 26.5459 82.7717 26.6633 82.7717 26.808C82.7717 26.9527 82.8893 27.0701 83.0343 27.0701C83.1793 27.0701 83.2969 26.9527 83.2969 26.808C83.2969 26.6633 83.1793 26.5459 83.0343 26.5459Z" fill="#F4D8A0"/>
<path d="M10.1138 109.18L11.2402 98.5366" stroke="#F4D8A0" stroke-miterlimit="10"/>
<path d="M45.8614 110.904L48.1895 95.5386" stroke="#F4D8A0" stroke-miterlimit="10"/>
<path d="M11.2402 98.5358L0.351014 97.0378" stroke="#F4D8A0" stroke-miterlimit="10"/>
<path d="M11.2044 98.7954C11.3481 98.8151 11.4806 98.715 11.5004 98.5717C11.5202 98.4284 11.4198 98.2962 11.2762 98.2764C11.1325 98.2566 11 98.3568 10.9802 98.5001C10.9603 98.6434 11.0608 98.7756 11.2044 98.7954Z" fill="#F4D8A0"/>
<path d="M30.4651 96.2137H30.498" stroke="#F4D8A0" stroke-miterlimit="10"/>
<path d="M30.4659 96.4749C30.3209 96.4749 30.2033 96.3576 30.2033 96.213C30.2033 96.0684 30.3209 95.9512 30.4659 95.9512C30.6109 95.9512 30.7285 96.0684 30.7285 96.213C30.7285 96.3576 30.6109 96.4749 30.4659 96.4749Z" fill="#F4D8A0"/>
<path d="M11.2407 98.5366L30.4658 96.2134" stroke="#F4D8A0" stroke-miterlimit="10"/>
<path d="M11.2097 98.2754C11.0658 98.2928 10.9632 98.4234 10.9806 98.567C10.9981 98.7107 11.1289 98.8131 11.2729 98.7957C11.4168 98.7783 11.5194 98.6477 11.502 98.504C11.4845 98.3604 11.3537 98.258 11.2097 98.2754Z" fill="#F4D8A0"/>
<path d="M40.1539 99.8105L48.1895 95.5386" stroke="#F4D8A0" stroke-miterlimit="10"/>
<path d="M40.1201 99.8105L30.4973 96.2131" stroke="#F4D8A0" stroke-miterlimit="10"/>
<path d="M11.2401 98.5366L17.9238 86.6191" stroke="#F4D8A0" stroke-miterlimit="10"/>
<path d="M11.0112 98.4085C10.9403 98.5348 10.9855 98.6945 11.112 98.7652C11.2386 98.8358 11.3986 98.7908 11.4694 98.6645C11.5403 98.5382 11.4951 98.3785 11.3686 98.3078C11.242 98.2372 11.082 98.2822 11.0112 98.4085Z" fill="#F4D8A0"/>
<path d="M17.9238 86.6191L16.0464 71.5542" stroke="#F4D8A0" stroke-miterlimit="10"/>
<path d="M17.6633 86.6517C17.6812 86.7953 17.8124 86.8972 17.9563 86.8793C18.1002 86.8615 18.2024 86.7306 18.1845 86.5871C18.1666 86.4435 18.0354 86.3416 17.8915 86.3595C17.7476 86.3773 17.6455 86.5082 17.6633 86.6517Z" fill="#F4D8A0"/>
<path d="M84.5361 99.8105L76.801 94.3391" stroke="#F4D8A0" stroke-miterlimit="10"/>
<path d="M57.876 99.8105L48.1883 95.5386" stroke="#F4D8A0" stroke-miterlimit="10"/>
<path d="M76.8018 94.3398H76.7688" stroke="#F4D8A0" stroke-miterlimit="10"/>
<path d="M76.8009 94.6011C76.6558 94.6011 76.5383 94.4838 76.5383 94.3392C76.5383 94.1946 76.6558 94.0774 76.8009 94.0774C76.9459 94.0774 77.0635 94.1946 77.0635 94.3392C77.0635 94.4838 76.9459 94.6011 76.8009 94.6011Z" fill="#F4D8A0"/>
<path d="M57.9087 99.8105L76.7686 94.3391" stroke="#F4D8A0" stroke-miterlimit="10"/>
<path d="M43.5326 67.5825L52.0938 79.4995" stroke="#F4D8A0" stroke-miterlimit="10"/>
<path d="M43.7457 67.4292C43.6612 67.3116 43.4972 67.2846 43.3794 67.3689C43.2615 67.4533 43.2345 67.617 43.319 67.7346C43.4035 67.8522 43.5675 67.8792 43.6853 67.7949C43.8032 67.7106 43.8302 67.5468 43.7457 67.4292Z" fill="#F4D8A0"/>
<path d="M52.0938 79.4996L48.1886 95.5394" stroke="#F4D8A0" stroke-miterlimit="10"/>
<path d="M52.349 79.5606C52.3832 79.4201 52.2967 79.2784 52.1558 79.2443C52.0149 79.2101 51.8729 79.2964 51.8387 79.4369C51.8044 79.5775 51.8909 79.7191 52.0318 79.7533C52.1727 79.7874 52.3147 79.7012 52.349 79.5606Z" fill="#F4D8A0"/>
<path d="M107.709 97.2628L93.6554 104.533" stroke="#F4D8A0" stroke-miterlimit="10"/>
<path d="M84.5362 99.8105L89.1172 78.5994" stroke="#F4D8A0" stroke-miterlimit="10"/>
<path d="M80.1054 69.1564L89.1172 78.6003" stroke="#F4D8A0" stroke-miterlimit="10"/>
<path d="M80.2948 68.975C80.1948 68.8703 80.0285 68.8662 79.9235 68.966C79.8185 69.0657 79.8145 69.2315 79.9145 69.3362C80.0145 69.4409 80.1807 69.4449 80.2857 69.3452C80.3907 69.2455 80.3948 69.0797 80.2948 68.975Z" fill="#F4D8A0"/>
<path d="M16.0469 71.5549L4.25647 72.8288" stroke="#F4D8A0" stroke-miterlimit="10"/>
<path d="M16.0752 71.8146C16.2194 71.799 16.3236 71.6698 16.308 71.526C16.2924 71.3822 16.1629 71.2782 16.0187 71.2938C15.8745 71.3094 15.7703 71.4386 15.7859 71.5824C15.8015 71.7262 15.9311 71.8302 16.0752 71.8146Z" fill="#F4D8A0"/>
<path d="M34.2207 68.107H34.1878" stroke="#F4D8A0" stroke-miterlimit="10"/>
<path d="M34.2198 68.3679C34.0748 68.3679 33.9573 68.2507 33.9573 68.1061C33.9573 67.9615 34.0748 67.8442 34.2198 67.8442C34.3649 67.8442 34.4824 67.9615 34.4824 68.1061C34.4824 68.2507 34.3649 68.3679 34.2198 68.3679Z" fill="#F4D8A0"/>
<path d="M16.0471 71.5544L26.7861 64.6584" stroke="#F4D8A0" stroke-miterlimit="10"/>
<path d="M15.9049 71.3339C15.783 71.4122 15.7477 71.5743 15.8261 71.6959C15.9046 71.8176 16.0671 71.8527 16.189 71.7745C16.311 71.6962 16.3462 71.5341 16.2678 71.4125C16.1893 71.2908 16.0268 71.2557 15.9049 71.3339Z" fill="#F4D8A0"/>
<path d="M43.5332 67.5823L34.221 68.1068" stroke="#F4D8A0" stroke-miterlimit="10"/>
<path d="M43.5481 67.8436C43.6929 67.8354 43.8036 67.7116 43.7955 67.5671C43.7873 67.4226 43.6633 67.3121 43.5185 67.3202C43.3738 67.3284 43.263 67.4522 43.2712 67.5967C43.2793 67.7412 43.4034 67.8517 43.5481 67.8436Z" fill="#F4D8A0"/>
<path d="M26.7845 64.6594H26.8174" stroke="#F4D8A0" stroke-miterlimit="10"/>
<path d="M26.7853 64.9207C26.6403 64.9207 26.5227 64.8034 26.5227 64.6587C26.5227 64.514 26.6403 64.3967 26.7853 64.3967C26.9303 64.3967 27.0479 64.514 27.0479 64.6587C27.0479 64.8034 26.9303 64.9207 26.7853 64.9207Z" fill="#F4D8A0"/>
<path d="M34.1875 68.1064L26.8176 64.6584" stroke="#F4D8A0" stroke-miterlimit="10"/>
<path d="M34.0761 68.3433C34.2074 68.4047 34.3638 68.3483 34.4253 68.2174C34.4869 68.0864 34.4303 67.9304 34.299 67.8691C34.1677 67.8077 34.0113 67.8641 33.9497 67.995C33.8882 68.126 33.9448 68.282 34.0761 68.3433Z" fill="#F4D8A0"/>
<path d="M16.0459 71.5542L15.9708 57.7629" stroke="#F4D8A0" stroke-miterlimit="10"/>
<path d="M15.7834 71.5554C15.7842 71.7 15.9024 71.8167 16.0474 71.8159C16.1924 71.8151 16.3094 71.6972 16.3086 71.5525C16.3078 71.4079 16.1896 71.2912 16.0446 71.292C15.8996 71.2928 15.7826 71.4107 15.7834 71.5554Z" fill="#F4D8A0"/>
<path d="M15.9707 57.7632L9.96283 34.2283" stroke="#F4D8A0" stroke-miterlimit="10"/>
<path d="M15.7163 57.8277C15.7521 57.968 15.8951 58.0527 16.0356 58.017C16.1761 57.9812 16.261 57.8386 16.2252 57.6984C16.1894 57.5582 16.0464 57.4734 15.9059 57.5091C15.7654 57.5449 15.6805 57.6875 15.7163 57.8277Z" fill="#F4D8A0"/>
<path d="M71.6194 72.8284L80.1055 69.1555" stroke="#F4D8A0" stroke-miterlimit="10"/>
<path d="M71.5147 72.5878C71.3817 72.6454 71.3206 72.7997 71.3783 72.9325C71.436 73.0652 71.5906 73.1262 71.7237 73.0686C71.8567 73.0111 71.9178 72.8568 71.8601 72.724C71.8024 72.5913 71.6478 72.5303 71.5147 72.5878Z" fill="#F4D8A0"/>
<path d="M60.1621 62.3358H60.1292" stroke="#F4D8A0" stroke-miterlimit="10"/>
<path d="M60.1622 62.5972C60.0172 62.5972 59.8996 62.4799 59.8996 62.3352C59.8996 62.1905 60.0172 62.0732 60.1622 62.0732C60.3072 62.0732 60.4248 62.1905 60.4248 62.3352C60.4248 62.4799 60.3072 62.5972 60.1622 62.5972Z" fill="#F4D8A0"/>
<path d="M71.6191 72.829H71.5862" stroke="#F4D8A0" stroke-miterlimit="10"/>
<path d="M71.6192 73.0903C71.4742 73.0903 71.3566 72.973 71.3566 72.8284C71.3566 72.6837 71.4742 72.5664 71.6192 72.5664C71.7643 72.5664 71.8818 72.6837 71.8818 72.8284C71.8818 72.973 71.7643 73.0903 71.6192 73.0903Z" fill="#F4D8A0"/>
<path d="M43.5332 67.582L60.1299 62.335" stroke="#F4D8A0" stroke-miterlimit="10"/>
<path d="M43.4539 67.3321C43.3157 67.3758 43.2391 67.5231 43.2829 67.661C43.3267 67.799 43.4743 67.8754 43.6125 67.8317C43.7508 67.788 43.8274 67.6407 43.7836 67.5028C43.7398 67.3649 43.5922 67.2884 43.4539 67.3321Z" fill="#F4D8A0"/>
<path d="M60.1618 62.3359L71.5869 72.8291" stroke="#F4D8A0" stroke-miterlimit="10"/>
<path d="M60.3391 62.1424C60.2324 62.0445 60.0662 62.0514 59.968 62.1578C59.8698 62.2643 59.8767 62.43 59.9835 62.528C60.0901 62.6259 60.2563 62.619 60.3545 62.5126C60.4527 62.4062 60.4458 62.2404 60.3391 62.1424Z" fill="#F4D8A0"/>
<path d="M45.8604 40.5998L41.8051 55.5148" stroke="#F4D8A0" stroke-miterlimit="10"/>
<path d="M46.1138 40.6679C46.1518 40.5282 46.0691 40.3843 45.9292 40.3464C45.7892 40.3085 45.6449 40.391 45.6069 40.5306C45.569 40.6703 45.6517 40.8142 45.7916 40.8521C45.9316 40.89 46.0758 40.8075 46.1138 40.6679Z" fill="#F4D8A0"/>
<path d="M43.5322 67.582L41.805 55.5146" stroke="#F4D8A0" stroke-miterlimit="10"/>
<path d="M43.5323 67.844C43.3873 67.844 43.2697 67.7267 43.2697 67.582C43.2697 67.4374 43.3873 67.3201 43.5323 67.3201C43.6773 67.3201 43.7949 67.4374 43.7949 67.582C43.7949 67.7267 43.6773 67.844 43.5323 67.844Z" fill="#F4D8A0"/>
<path d="M93.623 64.2096L80.1054 69.1564" stroke="#F4D8A0" stroke-miterlimit="10"/>
<path d="M93.7135 64.4546C93.8496 64.4049 93.9195 64.2545 93.8696 64.1187C93.8197 63.983 93.6688 63.9133 93.5327 63.9631C93.3966 64.0129 93.3267 64.1633 93.3766 64.299C93.4265 64.4347 93.5774 64.5044 93.7135 64.4546Z" fill="#F4D8A0"/>
<path d="M93.6223 64.2096H93.6553" stroke="#F4D8A0" stroke-miterlimit="10"/>
<path d="M93.6232 63.947C93.4782 63.947 93.3606 64.0643 93.3606 64.2089C93.3606 64.3534 93.4782 64.4707 93.6232 64.4707C93.7682 64.4707 93.8857 64.3534 93.8857 64.2089C93.8857 64.0643 93.7682 63.947 93.6232 63.947Z" fill="#F4D8A0"/>
<path d="M111.163 63.7596L93.655 64.2091" stroke="#F4D8A0" stroke-miterlimit="10"/>
<path d="M83.1094 50.9427L80.1054 69.1558" stroke="#F4D8A0" stroke-miterlimit="10"/>
<path d="M83.3685 50.9848C83.3921 50.842 83.2952 50.7072 83.1521 50.6837C83.009 50.6602 82.8739 50.7569 82.8503 50.8997C82.8268 51.0425 82.9237 51.1773 83.0668 51.2008C83.2099 51.2243 83.345 51.1276 83.3685 50.9848Z" fill="#F4D8A0"/>
<path d="M83.0343 41.799L83.1094 50.9431" stroke="#F4D8A0" stroke-miterlimit="10"/>
<path d="M83.2969 41.7962C83.2957 41.6515 83.1771 41.5352 83.0321 41.5364C82.8872 41.5376 82.7706 41.6558 82.7717 41.8005C82.7729 41.9451 82.8915 42.0615 83.0365 42.0603C83.1814 42.0591 83.2981 41.9408 83.2969 41.7962Z" fill="#F4D8A0"/>
<path d="M9.96387 34.2288L2.07855 43.1482" stroke="#F4D8A0" stroke-miterlimit="10"/>
<path d="M10.1609 34.4016C10.2568 34.2931 10.2464 34.1275 10.1377 34.0318C10.029 33.9361 9.86303 33.9465 9.7671 34.0549C9.67116 34.1634 9.68153 34.329 9.79026 34.4247C9.89898 34.5204 10.0649 34.5101 10.1609 34.4016Z" fill="#F4D8A0"/>
<path d="M23.4817 33.6295H23.5146" stroke="#F4D8A0" stroke-miterlimit="10"/>
<path d="M23.4815 33.8909C23.3365 33.8909 23.2189 33.7736 23.2189 33.6289C23.2189 33.4842 23.3365 33.3669 23.4815 33.3669C23.6266 33.3669 23.7441 33.4842 23.7441 33.6289C23.7441 33.7736 23.6266 33.8909 23.4815 33.8909Z" fill="#F4D8A0"/>
<path d="M45.8594 40.5994L36.4721 34.2283" stroke="#F4D8A0" stroke-miterlimit="10"/>
<path d="M45.7118 40.816C45.8317 40.8973 45.9951 40.8663 46.0766 40.7467C46.1581 40.627 46.127 40.4641 46.0071 40.3828C45.8872 40.3014 45.7239 40.3325 45.6423 40.4521C45.5608 40.5717 45.5919 40.7346 45.7118 40.816Z" fill="#F4D8A0"/>
<path d="M36.4397 34.2289H36.4727" stroke="#F4D8A0" stroke-miterlimit="10"/>
<path d="M36.4406 34.49C36.2955 34.49 36.178 34.3728 36.178 34.2281C36.178 34.0835 36.2955 33.9663 36.4406 33.9663C36.5856 33.9663 36.7031 34.0835 36.7031 34.2281C36.7031 34.3728 36.5856 34.49 36.4406 34.49Z" fill="#F4D8A0"/>
<path d="M9.96381 34.228L23.4814 33.6287" stroke="#F4D8A0" stroke-miterlimit="10"/>
<path d="M9.95233 33.967C9.80748 33.9735 9.69524 34.0958 9.70168 34.2402C9.70811 34.3847 9.8308 34.4966 9.97565 34.4902C10.1205 34.4838 10.2327 34.3614 10.2263 34.217C10.2199 34.0725 10.0972 33.9606 9.95233 33.967Z" fill="#F4D8A0"/>
<path d="M36.4414 34.2281L23.5143 33.6287" stroke="#F4D8A0" stroke-miterlimit="10"/>
<path d="M36.4293 34.4902C36.5742 34.4969 36.6971 34.3853 36.7038 34.2408C36.7106 34.0964 36.5985 33.9738 36.4537 33.9671C36.3088 33.9604 36.1859 34.0721 36.1792 34.2165C36.1725 34.3609 36.2845 34.4835 36.4293 34.4902Z" fill="#F4D8A0"/>
<path d="M9.88867 19.0132L9.8136 6.79614" stroke="#F4D8A0" stroke-miterlimit="10"/>
<path d="M9.62616 19.0145C9.62705 19.1592 9.74537 19.2758 9.89038 19.2749C10.0354 19.274 10.1523 19.156 10.1514 19.0113C10.1505 18.8667 10.0322 18.7501 9.88715 18.751C9.74214 18.7519 9.62527 18.8699 9.62616 19.0145Z" fill="#F4D8A0"/>
<path d="M9.96387 34.2283L9.88879 19.0134" stroke="#F4D8A0" stroke-miterlimit="10"/>
<path d="M9.70142 34.2297C9.70213 34.3743 9.82029 34.4909 9.96528 34.4902C10.1103 34.4895 10.2273 34.3717 10.2266 34.2271C10.2258 34.0825 10.1077 33.9658 9.9627 33.9666C9.81771 33.9673 9.7007 34.0851 9.70142 34.2297Z" fill="#F4D8A0"/>
<path d="M73.3889 33.7044H73.4219" stroke="#F4D8A0" stroke-miterlimit="10"/>
<path d="M73.3888 33.9656C73.2438 33.9656 73.1262 33.8483 73.1262 33.7036C73.1262 33.5589 73.2438 33.4417 73.3888 33.4417C73.5338 33.4417 73.6514 33.5589 73.6514 33.7036C73.6514 33.8483 73.5338 33.9656 73.3888 33.9656Z" fill="#F4D8A0"/>
<path d="M61.7054 32.6547H61.7383" stroke="#F4D8A0" stroke-miterlimit="10"/>
<path d="M61.7062 32.916C61.5612 32.916 61.4436 32.7987 61.4436 32.6541C61.4436 32.5094 61.5612 32.3921 61.7062 32.3921C61.8512 32.3921 61.9688 32.5094 61.9688 32.6541C61.9688 32.7987 61.8512 32.916 61.7062 32.916Z" fill="#F4D8A0"/>
<path d="M83.0342 41.7986L73.4216 33.7036" stroke="#F4D8A0" stroke-miterlimit="10"/>
<path d="M82.8649 41.9986C82.9758 42.0918 83.1415 42.0778 83.235 41.9673C83.3285 41.8567 83.3145 41.6914 83.2036 41.5981C83.0928 41.5048 82.9271 41.5188 82.8336 41.6294C82.74 41.74 82.7541 41.9053 82.8649 41.9986Z" fill="#F4D8A0"/>
<path d="M45.8604 40.5994L61.7061 32.6543" stroke="#F4D8A0" stroke-miterlimit="10"/>
<path d="M45.7425 40.3651C45.613 40.43 45.5607 40.5875 45.6258 40.7167C45.6909 40.8459 45.8487 40.8981 45.9783 40.8332C46.1079 40.7682 46.1601 40.6108 46.0951 40.4815C46.03 40.3523 45.8721 40.3002 45.7425 40.3651Z" fill="#F4D8A0"/>
<path d="M73.3896 33.7029L61.7392 32.6543" stroke="#F4D8A0" stroke-miterlimit="10"/>
<path d="M73.3661 33.964C73.5106 33.977 73.6382 33.8707 73.6513 33.7267C73.6643 33.5826 73.5578 33.4552 73.4133 33.4422C73.2689 33.4292 73.1413 33.5355 73.1282 33.6796C73.1152 33.8236 73.2217 33.951 73.3661 33.964Z" fill="#F4D8A0"/>
<path d="M45.8606 40.5994L50.5918 27.7825" stroke="#F4D8A0" stroke-miterlimit="10"/>
<path d="M45.614 40.5087C45.5639 40.6444 45.6336 40.7951 45.7696 40.8451C45.9057 40.8951 46.0567 40.8256 46.1068 40.6898C46.1569 40.5541 46.0872 40.4034 45.9512 40.3534C45.8151 40.3034 45.6642 40.3729 45.614 40.5087Z" fill="#F4D8A0"/>
<path d="M50.5918 27.7825L44.5089 9.34448" stroke="#F4D8A0" stroke-miterlimit="10"/>
<path d="M50.3425 27.8643C50.3878 28.0017 50.5363 28.0765 50.674 28.0312C50.8117 27.986 50.8866 27.8378 50.8413 27.7004C50.7959 27.563 50.6475 27.4882 50.5097 27.5335C50.372 27.5787 50.2971 27.7269 50.3425 27.8643Z" fill="#F4D8A0"/>
<path d="M83.0345 41.7983L98.3545 32.6543" stroke="#F4D8A0" stroke-miterlimit="10"/>
<path d="M82.8995 41.5733C82.7751 41.6475 82.7345 41.8084 82.8089 41.9325C82.8833 42.0567 83.0446 42.0971 83.169 42.0229C83.2935 41.9487 83.334 41.7878 83.2596 41.6637C83.1852 41.5395 83.0239 41.4991 82.8995 41.5733Z" fill="#F4D8A0"/>
<path d="M98.3528 32.6547H98.3857" stroke="#F4D8A0" stroke-miterlimit="10"/>
<path d="M98.3536 32.3921C98.2086 32.3921 98.091 32.5094 98.091 32.6541C98.091 32.7987 98.2086 32.916 98.3536 32.916C98.4986 32.916 98.6162 32.7987 98.6162 32.6541C98.6162 32.5094 98.4986 32.3921 98.3536 32.3921Z" fill="#F4D8A0"/>
<path d="M106.058 31.3056L98.3874 32.654" stroke="#F4D8A0" stroke-miterlimit="10"/>
<path d="M83.0342 41.7986V26.8081" stroke="#F4D8A0" stroke-miterlimit="10"/>
<path d="M82.7717 41.7983C82.7717 41.943 82.8893 42.0603 83.0343 42.0603C83.1793 42.0603 83.2969 41.943 83.2969 41.7983C83.2969 41.6537 83.1793 41.5364 83.0343 41.5364C82.8893 41.5364 82.7717 41.6537 82.7717 41.7983Z" fill="#F4D8A0"/>
<path d="M83.0342 26.8081L84.5361 7.84546" stroke="#F4D8A0" stroke-miterlimit="10"/>
<path d="M82.7725 26.7872C82.7611 26.9314 82.869 27.0576 83.0136 27.069C83.1581 27.0804 83.2846 26.9727 83.296 26.8285C83.3075 26.6843 83.1995 26.5581 83.055 26.5467C82.9104 26.5353 82.7839 26.643 82.7725 26.7872Z" fill="#F4D8A0"/>
<path d="M0.200928 13.7666L9.81348 6.79614" stroke="#F4D8A0" stroke-miterlimit="10"/>
<path d="M28.6631 8.7439L9.81341 6.79639" stroke="#F4D8A0" stroke-miterlimit="10"/>
<path d="M28.6361 9.00469C28.7803 9.01959 28.9094 8.91501 28.9244 8.77113C28.9393 8.62725 28.8345 8.4985 28.6902 8.48359C28.546 8.46869 28.4169 8.57327 28.402 8.71715C28.387 8.86103 28.4919 8.98979 28.6361 9.00469Z" fill="#F4D8A0"/>
<path d="M35.7223 9.34543H44.5088" stroke="#F4D8A0" stroke-miterlimit="10"/>
<path d="M35.7228 9.60645C35.5778 9.60645 35.4602 9.48922 35.4602 9.3446C35.4602 9.19999 35.5778 9.08276 35.7228 9.08276C35.8678 9.08276 35.9854 9.19999 35.9854 9.3446C35.9854 9.48922 35.8678 9.60645 35.7228 9.60645Z" fill="#F4D8A0"/>
<path d="M28.6624 8.74518H28.6953" stroke="#F4D8A0" stroke-miterlimit="10"/>
<path d="M28.6632 9.00659C28.5182 9.00659 28.4006 8.88931 28.4006 8.74463C28.4006 8.59995 28.5182 8.48267 28.6632 8.48267C28.8082 8.48267 28.9258 8.59995 28.9258 8.74463C28.9258 8.88931 28.8082 9.00659 28.6632 9.00659Z" fill="#F4D8A0"/>
<path d="M35.6897 9.34497H35.7227" stroke="#F4D8A0" stroke-miterlimit="10"/>
<path d="M35.6896 9.60645C35.5446 9.60645 35.427 9.48916 35.427 9.34448C35.427 9.1998 35.5446 9.08252 35.6896 9.08252C35.8346 9.08252 35.9521 9.1998 35.9521 9.34448C35.9521 9.48916 35.8346 9.60645 35.6896 9.60645Z" fill="#F4D8A0"/>
<path d="M35.6904 9.34424L28.696 8.74463" stroke="#F4D8A0" stroke-miterlimit="10"/>
<path d="M35.6681 9.6055C35.8125 9.61787 35.9397 9.51109 35.9521 9.36704C35.9646 9.22299 35.8575 9.09614 35.713 9.08377C35.5685 9.0714 35.4413 9.17818 35.4289 9.32223C35.4165 9.46628 35.5236 9.59313 35.6681 9.6055Z" fill="#F4D8A0"/>
<path d="M65.085 5.4476L44.5081 9.34506" stroke="#F4D8A0" stroke-miterlimit="10"/>
<path d="M78.1528 4.09827L84.5361 7.84583" stroke="#F4D8A0" stroke-miterlimit="10"/>
<path d="M44.584 -3.84641L44.5089 9.345" stroke="#F4D8A0" stroke-miterlimit="10"/>
<path d="M98.3535 4.09827L84.5355 7.84583" stroke="#F4D8A0" stroke-miterlimit="10"/>
<path d="M111.164 7.84543L98.3871 4.09787" stroke="#F4D8A0" stroke-miterlimit="10"/>
</g>
<g filter="url(#filter0_d)">
<path d="M39.9164 68.8878C39.7045 66.665 39.7686 64.4505 40.0905 62.2884L35.0828 60.0608C35.5558 57.6397 36.2998 55.2514 37.3313 52.9401C38.3627 50.6305 39.6438 48.4815 41.1285 46.5096L46.1394 48.7356C47.5338 47.0522 49.1401 45.5244 50.9368 44.1934L48.9725 39.0857C51.0239 37.7088 53.2411 36.545 55.6078 35.6385C57.9646 34.7353 60.3855 34.1108 62.8475 33.7649L64.8134 38.8775C67.0405 38.6661 69.2594 38.73 71.4257 39.0513L73.6445 34.078C78.6013 35.05 83.2328 37.1482 87.2091 40.1463L85.005 45.0868C86.695 46.4784 88.2257 48.0832 89.5593 49.8748L94.6639 47.9209C96.0566 49.9634 97.2244 52.1779 98.1342 54.5383C99.0359 56.8988 99.6535 59.3215 100 61.7622L94.8823 63.7227C95.0942 65.9454 95.0301 68.16 94.7082 70.3221L99.7159 72.5481C99.2429 74.9708 98.4989 77.3575 97.4674 79.6687C96.4344 81.98 95.1549 84.1273 93.6686 86.0993L88.6609 83.8732C87.2665 85.5583 85.6603 87.0861 83.8619 88.4171L85.8262 93.5281C83.7748 94.9066 81.5576 96.0688 79.1909 96.9753C76.8341 97.8785 74.4132 98.503 71.9512 98.8489L69.9853 93.7362C67.7582 93.9461 65.5393 93.8821 63.373 93.5608L61.1542 98.5325C56.1974 97.5605 51.5626 95.4623 47.588 92.4642L49.7937 87.5237C48.1054 86.132 46.573 84.5289 45.2394 82.7357L40.1381 84.6896C38.7454 82.6471 37.5776 80.4326 36.6677 78.0738C35.7595 75.7134 35.1436 73.289 34.7971 70.8466L39.9164 68.8878ZM53.5203 71.6203C56.4618 79.272 65.0598 83.0914 72.7281 80.1556C80.3866 77.2214 84.2183 68.6419 81.2784 60.9918C78.3369 53.3417 69.7389 49.5224 62.0755 52.4549C54.4105 55.3891 50.5804 63.9719 53.5203 71.6203Z" stroke="#E3B04B" stroke-width="2"/>
</g>
<g filter="url(#filter1_d)">
<path d="M12.1893 28.1574C12.1893 27.1674 12.2911 26.1986 12.4652 25.2577L8.62695 23.0448C9.55655 19.5173 11.4026 16.3586 13.9269 13.8637L17.7751 16.0816C19.2434 14.8259 20.9449 13.8424 22.8057 13.1868V8.75605C24.5007 8.29216 26.2761 8.02661 28.1139 8.02661C29.9518 8.02661 31.7255 8.29544 33.4221 8.75605V13.1884C35.283 13.8441 36.9828 14.8292 38.4528 16.0832L42.3025 13.8654C44.8236 16.3602 46.6713 19.5189 47.6025 23.0464L43.7626 25.2593C43.9367 26.2019 44.0402 27.1674 44.0402 28.1591C44.0402 29.1508 43.9367 30.1179 43.7626 31.0588L47.6025 33.2717C46.6713 36.7992 44.8236 39.9595 42.3025 42.4527L38.4544 40.2349C36.9845 41.4905 35.2846 42.474 33.4238 43.1297V47.5621C31.7272 48.0243 29.9534 48.2915 28.1156 48.2915C26.2777 48.2915 24.5007 48.0227 22.8074 47.5621V43.1297C20.9465 42.474 19.245 41.4889 17.7767 40.2349L13.9286 42.4527C11.4042 39.9579 9.55819 36.7992 8.62859 33.2717L12.4669 31.0588C12.2911 30.1146 12.1893 29.1491 12.1893 28.1574ZM28.1123 35.5764C32.2183 35.5764 35.5474 32.2554 35.5474 28.1591C35.5474 24.0627 32.2183 20.7401 28.1123 20.7401C24.0112 20.7401 20.6821 24.0611 20.6821 28.1574C20.6821 32.2537 24.0112 35.5764 28.1123 35.5764Z" stroke="#E3B04B" stroke-width="2"/>
</g>
<defs>
<filter id="filter0_d" x="26.6953" y="25.664" width="81.4072" height="81.2857" filterUnits="userSpaceOnUse" color-interpolation-filters="sRGB">
<feFlood flood-opacity="0" result="BackgroundImageFix"/>
<feColorMatrix in="SourceAlpha" type="matrix" values="0 0 0 0 0 0 0 0 0 0 0 0 0 0 0 0 0 0 127 0"/>
<feOffset/>
<feGaussianBlur stdDeviation="3.5"/>
<feColorMatrix type="matrix" values="0 0 0 0 0.970833 0 0 0 0 0.813392 0 0 0 0 0.501597 0 0 0 0.74 0"/>
<feBlend mode="normal" in2="BackgroundImageFix" result="effect1_dropShadow"/>
<feBlend mode="normal" in="SourceGraphic" in2="effect1_dropShadow" result="shape"/>
</filter>
<filter id="filter1_d" x="0.464844" y="0.0266113" width="55.2995" height="56.2649" filterUnits="userSpaceOnUse" color-interpolation-filters="sRGB">
<feFlood flood-opacity="0" result="BackgroundImageFix"/>
<feColorMatrix in="SourceAlpha" type="matrix" values="0 0 0 0 0 0 0 0 0 0 0 0 0 0 0 0 0 0 127 0"/>
<feOffset/>
<feGaussianBlur stdDeviation="3.5"/>
<feColorMatrix type="matrix" values="0 0 0 0 0.970833 0 0 0 0 0.813392 0 0 0 0 0.501597 0 0 0 0.74 0"/>
<feBlend mode="normal" in2="BackgroundImageFix" result="effect1_dropShadow"/>
<feBlend mode="normal" in="SourceGraphic" in2="effect1_dropShadow" result="shape"/>
</filter>
</defs>
</svg>
