<svg width="115" height="112" viewBox="0 0 115 112" fill="none" xmlns="http://www.w3.org/2000/svg">
<mask id="mask0" mask-type="alpha" maskUnits="userSpaceOnUse" x="8" y="8" width="82" height="95">
<path d="M58.9781 49.5137C56.1257 44.7412 53.0108 40.1307 49.6464 35.703C49.3076 35.2508 48.9969 34.8423 48.7219 34.4851C45.0096 39.2898 41.5839 44.3079 38.4623 49.5137C36.3009 52.8847 34.6771 56.5707 33.6507 60.4395C33.5248 61.0224 33.4577 61.6169 33.4502 62.2139C33.4502 70.6311 40.2866 77.4541 48.7202 77.4541C57.1539 77.4541 63.9902 70.6311 63.9902 62.2139C63.9902 60.351 63.1195 56.6377 58.9814 49.5236L58.9781 49.5137ZM48.7202 74.0674C47.7832 74.0674 47.0235 73.3092 47.0235 72.374C47.0235 71.4389 47.7832 70.6807 48.7202 70.6807C53.4035 70.6749 57.1978 66.888 57.2036 62.2139C57.2036 62.2023 57.0776 59.7367 53.1127 52.926C52.7655 52.401 52.7382 51.7271 53.0422 51.1764C53.3455 50.6249 53.9303 50.2876 54.56 50.2992C55.1904 50.3107 55.7621 50.6704 56.0446 51.2327C60.2697 58.4766 60.5969 61.4705 60.5969 62.2139C60.5894 68.7574 55.2766 74.0599 48.7202 74.0674Z" fill="black"/>
<path d="M84.3501 92.6943H13.09C10.2791 92.6943 8 94.969 8 97.7744C8 100.58 10.2791 102.854 13.09 102.854H84.3501C87.161 102.854 89.4401 100.58 89.4401 97.7744C89.4401 94.969 87.161 92.6943 84.3501 92.6943Z" fill="black"/>
<path d="M13.09 18.1865H84.3501C87.161 18.1865 89.4401 15.912 89.4401 13.1066C89.4401 10.3012 87.161 8.02661 84.3501 8.02661H13.09C10.2791 8.02661 8 10.3012 8 13.1066C8 15.912 10.2791 18.1865 13.09 18.1865Z" fill="black"/>
<path d="M62.8348 74.3634C62.626 74.6057 62.4123 74.8397 62.1919 75.0695C62.0105 75.2613 61.8257 75.4474 61.6335 75.6301C61.4049 75.8509 61.1671 76.0642 60.926 76.2717C60.728 76.4412 60.5275 76.6107 60.3221 76.7802C60.0711 76.9803 59.8134 77.168 59.5516 77.3541C59.3379 77.5087 59.1258 77.6608 58.9054 77.8047C58.6337 77.9742 58.3562 78.1437 58.0762 78.3124C57.85 78.4447 57.6263 78.5786 57.3968 78.7002C57.1052 78.8531 56.807 78.9904 56.5062 79.1285C56.2726 79.2376 56.0398 79.3492 55.8004 79.4468C55.4864 79.5774 55.1642 79.6857 54.8419 79.7974C54.6041 79.8809 54.3688 79.9669 54.1244 80.0446C53.7848 80.1479 53.4319 80.2298 53.0823 80.3141C52.8486 80.3704 52.6191 80.4365 52.3822 80.4836C51.9879 80.5614 51.5861 80.6143 51.1843 80.6664C50.9821 80.6937 50.7833 80.7342 50.5787 80.7548C49.9673 80.8135 49.3501 80.8474 48.7238 80.8474C48.0975 80.8474 47.4803 80.8135 46.8697 80.7548C46.6642 80.7342 46.4654 80.6937 46.2633 80.6664C45.8615 80.6143 45.4597 80.5614 45.0662 80.4836C44.8284 80.4365 44.5989 80.3704 44.3653 80.3141C44.0157 80.2298 43.6644 80.1446 43.3231 80.0446C43.0787 79.9718 42.8434 79.8759 42.6057 79.7974C42.2834 79.6857 41.9611 79.5774 41.6471 79.4468C41.4077 79.3492 41.1758 79.2376 40.9413 79.1285C40.6406 78.9904 40.3423 78.8531 40.0507 78.7002C39.8179 78.5786 39.5942 78.4447 39.3722 78.3124C39.0922 78.1437 38.8138 77.9858 38.5421 77.8047C38.3217 77.6608 38.1097 77.5087 37.8959 77.3541C37.6341 77.168 37.3765 76.9803 37.1255 76.7802C36.92 76.6107 36.7195 76.4412 36.5215 76.2717C36.2804 76.0642 36.0427 75.8509 35.814 75.6301C35.6218 75.4474 35.4371 75.2613 35.2556 75.0695C35.0353 74.8397 34.8215 74.6057 34.6128 74.3634C34.4396 74.1658 34.2698 73.964 34.1033 73.7573C33.9053 73.5068 33.7147 73.2497 33.5283 72.99C33.3759 72.7767 33.2251 72.5617 33.081 72.3401C32.9111 72.0706 32.7413 71.7953 32.5715 71.5158C32.4406 71.2884 32.3088 71.0635 32.1862 70.8295C32.0338 70.5418 31.8963 70.2458 31.7604 69.9473C31.6502 69.71 31.54 69.4768 31.4398 69.2345C31.3147 68.9245 31.2037 68.6095 31.101 68.2928C31.0156 68.0489 30.9311 67.8091 30.8508 67.5619C30.7514 67.2229 30.671 66.8839 30.5898 66.5457C30.5318 66.3018 30.4664 66.0595 30.42 65.8123C30.3487 65.4518 30.3015 65.0838 30.2501 64.7151C30.2187 64.4794 30.1756 64.2496 30.1524 64.0106C30.1524 63.9734 30.14 63.9378 30.1366 63.9006H14.7871V89.3076H82.6538V63.9072H67.3076C67.3076 63.9445 67.296 63.98 67.2918 64.0172C67.2686 64.2562 67.2264 64.486 67.1941 64.7217C67.1444 65.0913 67.0972 65.4584 67.0243 65.8189C66.9745 66.0661 66.9091 66.3084 66.8544 66.5523C66.7732 66.8913 66.6929 67.2295 66.5935 67.5685C66.5189 67.8157 66.4236 68.0563 66.3441 68.3002C66.2356 68.6161 66.1246 68.9311 66.0044 69.2412C65.9042 69.4834 65.794 69.7174 65.6838 69.9539C65.548 70.2524 65.4104 70.5484 65.258 70.8361C65.1354 71.0701 65.0037 71.295 64.8728 71.5224C64.7029 71.8019 64.5455 72.078 64.3641 72.3468C64.2191 72.5692 64.0683 72.7841 63.9159 72.9975C63.7295 73.2579 63.539 73.5051 63.341 73.7639C63.1769 73.9665 63.0079 74.1658 62.8348 74.3634Z" fill="black"/>
<path d="M13.09 60.5203H30.1909C30.2058 60.4235 30.2414 60.3086 30.2588 60.2102C30.3408 59.7273 30.4543 59.223 30.5977 58.6963C30.6441 58.5276 30.6846 58.3581 30.7352 58.1787C30.934 57.5007 31.166 56.7896 31.4551 56.0363C31.4866 55.9553 31.528 55.8668 31.562 55.7808C31.8279 55.1028 32.1386 54.3818 32.4799 53.6402C32.5859 53.4078 32.6953 53.173 32.8088 52.9374C33.1476 52.223 33.5221 51.4813 33.9322 50.7123C33.996 50.5908 34.044 50.4841 34.1103 50.3601H13.09C10.2791 50.3601 8 52.6347 8 55.4402C8 58.2456 10.2791 60.5203 13.09 60.5203Z" fill="black"/>
<path d="M84.3498 50.3601H63.3369C63.3974 50.4717 63.4396 50.5701 63.5059 50.6801C63.9218 51.4639 64.3004 52.218 64.6484 52.9456C64.7585 53.178 64.8671 53.4078 64.9706 53.6335C65.3095 54.3802 65.6251 55.0995 65.8952 55.7858C65.9275 55.8668 65.9664 55.9553 65.9987 56.0363C66.287 56.7896 66.5198 57.4974 66.7178 58.1787C66.7692 58.3473 66.8098 58.5168 66.8554 58.6863C66.9945 59.213 67.1047 59.7191 67.195 60.2102C67.2116 60.3086 67.2472 60.4235 67.263 60.5203H84.3498C87.1607 60.5203 89.4398 58.2456 89.4398 55.4402C89.4398 52.6347 87.1607 50.3601 84.3498 50.3601Z" fill="black"/>
<path d="M82.6538 21.5732H14.7871V46.974H36.0278C36.1089 46.8351 36.1976 46.6995 36.2788 46.5605C36.4229 46.3199 36.5687 46.0818 36.7145 45.8412L37.2423 44.9945C37.3881 44.7638 37.5322 44.5339 37.6789 44.3049C37.8603 44.0172 38.0434 43.7327 38.2265 43.4483C38.369 43.2267 38.5115 43.0084 38.654 42.7876C38.8387 42.5049 39.0243 42.227 39.209 41.95C39.3515 41.7326 39.4948 41.5184 39.6382 41.3059L40.1824 40.4998L40.6066 39.8804L41.1468 39.0999C41.2843 38.9048 41.4177 38.7105 41.5535 38.5186C41.7234 38.2681 41.9015 38.0258 42.073 37.7844L42.4748 37.218L42.9536 36.5565L43.3488 36.0108C43.4979 35.8057 43.6387 35.6131 43.7829 35.418L44.1681 34.8954L44.5534 34.3869L44.9195 33.8957L45.2219 33.4964L45.6038 32.9887L45.8159 32.7125L46.1788 32.2379L46.3602 32.0047L46.6609 31.6186L46.7438 31.5103C47.1116 31.0406 47.3494 30.743 47.3974 30.6851C47.7296 30.3031 48.2126 30.0831 48.7205 30.0831C49.2283 30.0831 49.7113 30.3031 50.0435 30.6851C50.0915 30.743 50.3293 31.0406 50.6971 31.5103L50.78 31.6186L51.0617 31.9791L51.2638 32.2412L51.6557 32.7497L51.8255 32.9779L52.243 33.5303C52.3308 33.6469 52.412 33.7568 52.5073 33.8809C52.6365 34.0504 52.7724 34.2331 52.9058 34.4142L53.2604 34.888L53.6779 35.456C53.8105 35.6354 53.9397 35.8115 54.0747 35.9992C54.2106 36.1869 54.3688 36.4019 54.518 36.6086C54.6671 36.8153 54.7996 36.9964 54.9438 37.1982L55.4019 37.8431L55.8617 38.4938C56.0158 38.7138 56.174 38.937 56.3298 39.171C56.4864 39.4042 56.6454 39.625 56.8053 39.8565C56.9644 40.0888 57.1276 40.3261 57.2883 40.5626L57.7738 41.2778L58.2708 42.0245L58.7447 42.7422C58.9154 43.0026 59.0852 43.2656 59.2534 43.5293C59.4091 43.7699 59.5641 44.0114 59.7181 44.2545C59.888 44.5273 60.0578 44.7977 60.2276 45.0722L60.67 45.7866C60.8399 46.0727 61.0097 46.358 61.1911 46.6457C61.2607 46.7606 61.332 46.8739 61.3999 46.9839H82.6538V21.5732Z" fill="black"/>
</mask>
<g mask="url(#mask0)">
<path d="M93.3563 137.218L83.8359 100.291L83.8737 100.226" stroke="#F4D8A0" stroke-miterlimit="10"/>
<path d="M100.806 79.1448L83.874 100.225" stroke="#F4D8A0" stroke-miterlimit="10"/>
<path d="M48.347 77.7107L48.3184 77.6611" stroke="#F4D8A0" stroke-miterlimit="10"/>
<path d="M48.7414 77.4823C48.8676 77.7002 48.7927 77.979 48.5742 78.1049C48.3557 78.2307 48.0762 78.1561 47.95 77.9381C47.8238 77.7202 47.8987 77.4414 48.1172 77.3155C48.3357 77.1897 48.6152 77.2644 48.7414 77.4823Z" fill="#F4D8A0"/>
<path d="M62.458 137.217L83.7396 100.291L83.7019 100.226" stroke="#F4D8A0" stroke-miterlimit="10"/>
<path d="M31.5447 83.9716L21.6699 103.226" stroke="#F4D8A0" stroke-miterlimit="10"/>
<path d="M31.1382 83.7626C31.2531 83.5386 31.5285 83.4499 31.7531 83.5646C31.9777 83.6793 32.0666 83.954 31.9516 84.178C31.8367 84.4021 31.5613 84.4908 31.3367 84.3761C31.1121 84.2614 31.0232 83.9867 31.1382 83.7626Z" fill="#F4D8A0"/>
<path d="M31.5735 83.9219L31.5449 83.9714" stroke="#F4D8A0" stroke-miterlimit="10"/>
<path d="M31.1765 83.694C31.3027 83.476 31.5823 83.4014 31.8008 83.5272C32.0193 83.6531 32.0941 83.9319 31.9679 84.1498C31.8418 84.3677 31.5622 84.4424 31.3437 84.3165C31.1252 84.1907 31.0504 83.9119 31.1765 83.694Z" fill="#F4D8A0"/>
<path d="M83.7032 100.225L48.3457 77.7104" stroke="#F4D8A0" stroke-miterlimit="10"/>
<path d="M83.9488 99.8409C84.1615 99.9762 84.224 100.258 84.0883 100.47C83.9525 100.682 83.67 100.745 83.4573 100.609C83.2446 100.474 83.1821 100.192 83.3179 99.9799C83.4536 99.7678 83.7361 99.7055 83.9488 99.8409Z" fill="#F4D8A0"/>
<path d="M21.1033 103.453C20.9771 103.235 21.052 102.956 21.2705 102.83C21.489 102.704 21.7685 102.779 21.8947 102.997C22.0209 103.215 21.946 103.494 21.7275 103.62C21.509 103.745 21.2294 103.671 21.1033 103.453Z" fill="#F4D8A0"/>
<path d="M21.4994 103.225L0.647461 83.9709" stroke="#F4D8A0" stroke-miterlimit="10"/>
<path d="M21.8092 102.89C21.9944 103.061 22.0057 103.35 21.8343 103.534C21.6629 103.719 21.3738 103.73 21.1886 103.559C21.0034 103.389 20.9922 103.1 21.1635 102.916C21.3349 102.731 21.624 102.72 21.8092 102.89Z" fill="#F4D8A0"/>
<path d="M70.2838 60.9687L70.2461 61.0339L100.806 79.049" stroke="#F4D8A0" stroke-miterlimit="10"/>
<path d="M69.8875 60.7392C70.0136 60.5212 70.2931 60.4465 70.5116 60.5724C70.7301 60.6982 70.805 60.9771 70.6788 61.1951C70.5527 61.4131 70.2732 61.4878 70.0547 61.362C69.8362 61.2361 69.7613 60.9572 69.8875 60.7392Z" fill="#F4D8A0"/>
<path d="M94.01 37.0181L70.2832 60.9678" stroke="#F4D8A0" stroke-miterlimit="10"/>
<path d="M41.8691 28.8015L41.8977 28.752" stroke="#F4D8A0" stroke-miterlimit="10"/>
<path d="M42.2648 29.0286C42.1386 29.2466 41.8591 29.3213 41.6406 29.1954C41.4221 29.0695 41.3472 28.7907 41.4734 28.5727C41.5996 28.3547 41.8791 28.28 42.0976 28.4059C42.3161 28.5318 42.3909 28.8107 42.2648 29.0286Z" fill="#F4D8A0"/>
<path d="M70.1123 60.9675L54.749 22.8013" stroke="#F4D8A0" stroke-miterlimit="10"/>
<path d="M70.5364 60.7977C70.6305 61.0311 70.5169 61.2966 70.2827 61.3904C70.0486 61.4842 69.7824 61.3709 69.6883 61.1374C69.5942 60.9039 69.7079 60.6385 69.942 60.5447C70.1762 60.4509 70.4423 60.5642 70.5364 60.7977Z" fill="#F4D8A0"/>
<path d="M41.8692 28.8008L10.8242 48.5767" stroke="#F4D8A0" stroke-miterlimit="10"/>
<path d="M41.6242 28.4164C41.8369 28.2809 42.1195 28.3432 42.2552 28.5554C42.391 28.7676 42.3286 29.0495 42.1159 29.1849C41.9032 29.3204 41.6206 29.2581 41.4849 29.0459C41.3491 28.8337 41.4115 28.5518 41.6242 28.4164Z" fill="#F4D8A0"/>
<path d="M48.3184 77.6623L48.347 77.6128" stroke="#F4D8A0" stroke-miterlimit="10"/>
<path d="M48.714 77.8895C48.5878 78.1075 48.3083 78.1821 48.0898 78.0563C47.8713 77.9304 47.7965 77.6516 47.9226 77.4337C48.0488 77.2158 48.3283 77.1411 48.5468 77.267C48.7653 77.3928 48.8401 77.6716 48.714 77.8895Z" fill="#F4D8A0"/>
<path d="M10.8229 48.5767L10.7852 48.6419L31.5441 83.8733" stroke="#F4D8A0" stroke-miterlimit="10"/>
<path d="M10.4275 48.3486C10.5537 48.1306 10.8332 48.0559 11.0517 48.1817C11.2702 48.3076 11.345 48.5865 11.2189 48.8045C11.0927 49.0225 10.8132 49.0972 10.5947 48.9713C10.3762 48.8455 10.3013 48.5666 10.4275 48.3486Z" fill="#F4D8A0"/>
<path d="M70.1133 60.968L70.151 61.0332L48.3467 77.6133" stroke="#F4D8A0" stroke-miterlimit="10"/>
<path d="M69.7166 61.1955C69.5904 60.9775 69.6653 60.6987 69.8838 60.5729C70.1023 60.4471 70.3818 60.5218 70.5079 60.7397C70.6341 60.9576 70.5592 61.2364 70.3407 61.3623C70.1222 61.4881 69.8427 61.4134 69.7166 61.1955Z" fill="#F4D8A0"/>
<path d="M31.5449 83.8748L31.5735 83.9243" stroke="#F4D8A0" stroke-miterlimit="10"/>
<path d="M31.1482 84.1012C31.022 83.8833 31.0969 83.6045 31.3154 83.4786C31.5339 83.3528 31.8134 83.4274 31.9396 83.6454C32.0658 83.8633 31.9909 84.1421 31.7724 84.268C31.5539 84.3938 31.2744 84.3191 31.1482 84.1012Z" fill="#F4D8A0"/>
<path d="M54.7217 22.7527L54.7503 22.8022" stroke="#F4D8A0" stroke-miterlimit="10"/>
<path d="M54.326 22.9808C54.1998 22.7628 54.2746 22.4839 54.4931 22.358C54.7117 22.2321 54.9912 22.3068 55.1174 22.5248C55.2436 22.7428 55.1687 23.0217 54.9502 23.1476C54.7317 23.2735 54.4521 23.1988 54.326 22.9808Z" fill="#F4D8A0"/>
<path d="M10.6534 48.5769L-3.27246 18.7581" stroke="#F4D8A0" stroke-miterlimit="10"/>
<path d="M11.0665 48.3837C11.1731 48.6119 11.0741 48.8831 10.8454 48.9895C10.6167 49.0958 10.3448 48.997 10.2382 48.7689C10.1316 48.5407 10.2306 48.2695 10.4593 48.1631C10.688 48.0568 10.9599 48.1556 11.0665 48.3837Z" fill="#F4D8A0"/>
<path d="M0.647461 83.8737L10.6906 48.6423L10.6529 48.5771" stroke="#F4D8A0" stroke-miterlimit="10"/>
<path d="M97.8007 -14.6309L73.6816 10.7529" stroke="#F4D8A0" stroke-miterlimit="10"/>
<path d="M73.6823 10.7532L73.6445 10.8184L94.0115 36.9204" stroke="#F4D8A0" stroke-miterlimit="10"/>
<path d="M73.2859 10.5255C73.4121 10.3076 73.6916 10.2329 73.9101 10.3587C74.1287 10.4846 74.2036 10.7634 74.0774 10.9813C73.9512 11.1993 73.6717 11.2739 73.4531 11.1481C73.2346 11.0223 73.1597 10.7435 73.2859 10.5255Z" fill="#F4D8A0"/>
<path d="M73.5101 10.7534L60.499 -31.1948" stroke="#F4D8A0" stroke-miterlimit="10"/>
<path d="M73.9462 10.6187C74.0209 10.8592 73.8859 11.1145 73.6449 11.189C73.4039 11.2634 73.1479 11.1288 73.0733 10.8883C72.9987 10.6479 73.1336 10.3925 73.3747 10.3181C73.6157 10.2437 73.8716 10.3783 73.9462 10.6187Z" fill="#F4D8A0"/>
<path d="M28.7262 6.84058L28.6885 6.90579L41.8679 28.7034" stroke="#F4D8A0" stroke-miterlimit="10"/>
<path d="M41.8977 28.7526L41.8691 28.7031" stroke="#F4D8A0" stroke-miterlimit="10"/>
<path d="M42.2921 28.5243C42.4183 28.7423 42.3434 29.0212 42.1249 29.1471C41.9064 29.273 41.6269 29.1983 41.5008 28.9803C41.3746 28.7623 41.4494 28.4835 41.6679 28.3575C41.8864 28.2317 42.1659 28.3063 42.2921 28.5243Z" fill="#F4D8A0"/>
<path d="M54.7503 22.7036L54.7217 22.7531" stroke="#F4D8A0" stroke-miterlimit="10"/>
<path d="M54.3543 22.4757C54.4805 22.2578 54.76 22.1831 54.9784 22.3089C55.1969 22.4348 55.2718 22.7136 55.1456 22.9315C55.0194 23.1495 54.7399 23.2241 54.5214 23.0983C54.303 22.9724 54.2281 22.6936 54.3543 22.4757Z" fill="#F4D8A0"/>
<path d="M54.749 22.7033L73.5477 10.8181L73.51 10.7529" stroke="#F4D8A0" stroke-miterlimit="10"/>
<path d="M54.9935 23.0881C54.7803 23.2228 54.498 23.1596 54.363 22.947C54.2279 22.7344 54.2913 22.4528 54.5045 22.3181C54.7176 22.1834 54.9999 22.2466 55.135 22.4592C55.27 22.6718 55.2066 22.9535 54.9935 23.0881Z" fill="#F4D8A0"/>
<path d="M28.5557 6.84058L28.5934 6.90579L-3.27344 18.6604" stroke="#F4D8A0" stroke-miterlimit="10"/>
<path d="M60.4246 101.921L31.5449 83.9709" stroke="#F4D8A0" stroke-miterlimit="10"/>
<path d="M60.6663 101.534C60.8805 101.667 60.946 101.948 60.8126 102.161C60.6792 102.375 60.3974 102.44 60.1832 102.307C59.969 102.174 59.9035 101.893 60.0369 101.679C60.1703 101.466 60.4521 101.4 60.6663 101.534Z" fill="#F4D8A0"/>
<path d="M60.4623 101.988L60.4238 101.921" stroke="#F4D8A0" stroke-miterlimit="10"/>
<path d="M60.8573 101.757C60.9838 101.975 60.9094 102.254 60.6911 102.38C60.4727 102.506 60.1931 102.432 60.0666 102.214C59.94 101.997 60.0144 101.718 60.2328 101.591C60.4511 101.465 60.7307 101.539 60.8573 101.757Z" fill="#F4D8A0"/>
<path d="M62.4591 137.217L60.4619 101.986" stroke="#F4D8A0" stroke-miterlimit="10"/>
<path d="M31.5166 83.9219L31.5453 83.9714" stroke="#F4D8A0" stroke-miterlimit="10"/>
<path d="M31.1212 84.1504C30.9947 83.9326 31.0692 83.6537 31.2875 83.5275C31.5058 83.4014 31.7854 83.4756 31.9119 83.6934C32.0384 83.9111 31.9639 84.19 31.7456 84.3162C31.5273 84.4424 31.2477 84.3681 31.1212 84.1504Z" fill="#F4D8A0"/>
<path d="M50.9232 48.2524L48.3467 77.6143" stroke="#F4D8A0" stroke-miterlimit="10"/>
<path d="M50.4676 48.2116C50.4896 47.9608 50.7113 47.7752 50.9626 47.7972C51.2139 47.8191 51.3999 48.0403 51.3779 48.2911C51.3559 48.5419 51.1342 48.7275 50.8829 48.7055C50.6315 48.6835 50.4456 48.4624 50.4676 48.2116Z" fill="#F4D8A0"/>
<path d="M50.8848 48.1863L50.9232 48.2526" stroke="#F4D8A0" stroke-miterlimit="10"/>
<path d="M50.4894 48.4138C50.3629 48.196 50.4373 47.917 50.6556 47.7908C50.8739 47.6645 51.1535 47.7388 51.28 47.9566C51.4065 48.1744 51.3321 48.4534 51.1138 48.5796C50.8955 48.7058 50.6159 48.6316 50.4894 48.4138Z" fill="#F4D8A0"/>
<path d="M41.8695 28.8015L41.8408 28.752" stroke="#F4D8A0" stroke-miterlimit="10"/>
<path d="M42.2644 28.5721C42.3909 28.7899 42.3165 29.0689 42.0982 29.1951C41.8799 29.3213 41.6003 29.247 41.4737 29.0292C41.3472 28.8114 41.4217 28.5324 41.64 28.4062C41.8583 28.28 42.1379 28.3543 42.2644 28.5721Z" fill="#F4D8A0"/>
<path d="M41.8691 28.8003L50.8853 48.1848" stroke="#F4D8A0" stroke-miterlimit="10"/>
<path d="M41.4547 28.9926C41.3484 28.7643 41.4479 28.4932 41.6767 28.3872C41.9056 28.2812 42.1774 28.3804 42.2836 28.6087C42.3898 28.837 42.2904 29.1081 42.0615 29.2141C41.8327 29.3201 41.5609 29.2209 41.4547 28.9926Z" fill="#F4D8A0"/>
<path d="M48.3744 77.6623L48.3457 77.6128" stroke="#F4D8A0" stroke-miterlimit="10"/>
<path d="M48.7694 77.4331C48.8959 77.6509 48.8215 77.9298 48.6031 78.056C48.3848 78.1821 48.1052 78.1079 47.9786 77.8901C47.8521 77.6724 47.9266 77.3935 48.1449 77.2673C48.3633 77.1411 48.6429 77.2154 48.7694 77.4331Z" fill="#F4D8A0"/>
<path d="M54.751 22.7036L54.7797 22.7531" stroke="#F4D8A0" stroke-miterlimit="10"/>
<path d="M54.3546 22.9321C54.2281 22.7144 54.3026 22.4355 54.5209 22.3093C54.7392 22.1831 55.0188 22.2574 55.1453 22.4751C55.2718 22.6929 55.1973 22.9718 54.979 23.0979C54.7607 23.2241 54.4811 23.1499 54.3546 22.9321Z" fill="#F4D8A0"/>
<path d="M54.7498 22.7041L53.7979 -6.13623" stroke="#F4D8A0" stroke-miterlimit="10"/>
<path d="M55.2057 22.6888C55.214 22.9404 55.0162 23.1511 54.764 23.1594C54.5118 23.1677 54.3006 22.9704 54.2922 22.7189C54.2839 22.4673 54.4817 22.2566 54.7339 22.2483C54.9861 22.24 55.1974 22.4373 55.2057 22.6888Z" fill="#F4D8A0"/>
<path d="M60.4609 101.988L60.4994 101.921" stroke="#F4D8A0" stroke-miterlimit="10"/>
<path d="M60.8573 102.214C60.7307 102.432 60.4511 102.506 60.2328 102.38C60.0144 102.254 59.94 101.975 60.0666 101.757C60.1931 101.539 60.4727 101.465 60.6911 101.591C60.9094 101.718 60.9838 101.997 60.8573 102.214Z" fill="#F4D8A0"/>
<path d="M60.4624 101.988L31.5449 137.219" stroke="#F4D8A0" stroke-miterlimit="10"/>
<path d="M60.1093 101.697C60.2692 101.503 60.5571 101.474 60.7523 101.633C60.9475 101.793 60.9761 102.08 60.8162 102.275C60.6563 102.47 60.3684 102.498 60.1732 102.339C59.978 102.179 59.9494 101.892 60.1093 101.697Z" fill="#F4D8A0"/>
<path d="M48.3744 77.6614L48.3457 77.7109" stroke="#F4D8A0" stroke-miterlimit="10"/>
<path d="M47.9786 77.4331C48.1052 77.2154 48.3848 77.1411 48.6031 77.2673C48.8215 77.3935 48.8959 77.6724 48.7694 77.8901C48.6429 78.1079 48.3633 78.1821 48.1449 78.0559C47.9266 77.9298 47.8521 77.6509 47.9786 77.4331Z" fill="#F4D8A0"/>
<path d="M60.4999 101.921L48.3457 77.7104" stroke="#F4D8A0" stroke-miterlimit="10"/>
<path d="M60.9085 101.716C61.0216 101.941 60.9303 102.215 60.7047 102.328C60.4791 102.441 60.2045 102.35 60.0915 102.125C59.9784 101.9 60.0697 101.626 60.2953 101.513C60.5209 101.4 60.7955 101.491 60.9085 101.716Z" fill="#F4D8A0"/>
<path d="M54.7787 22.7527L54.75 22.8022" stroke="#F4D8A0" stroke-miterlimit="10"/>
<path d="M54.382 22.5243C54.5085 22.3064 54.7881 22.2322 55.0065 22.3584C55.2248 22.4846 55.2992 22.7636 55.1727 22.9814C55.0462 23.1992 54.7666 23.2735 54.5482 23.1472C54.3299 23.021 54.2554 22.7421 54.382 22.5243Z" fill="#F4D8A0"/>
<path d="M31.5453 83.8748L31.5166 83.9243" stroke="#F4D8A0" stroke-miterlimit="10"/>
<path d="M31.1486 83.6448C31.2751 83.427 31.5547 83.3528 31.773 83.479C31.9913 83.6051 32.0658 83.884 31.9393 84.1018C31.8128 84.3195 31.5331 84.3938 31.3148 84.2676C31.0965 84.1414 31.022 83.8625 31.1486 83.6448Z" fill="#F4D8A0"/>
<path d="M50.96 48.1855L54.7489 22.8013" stroke="#F4D8A0" stroke-miterlimit="10"/>
<path d="M51.4118 48.2529C51.3747 48.5019 51.1421 48.6736 50.8926 48.6366C50.643 48.5995 50.4708 48.3675 50.508 48.1186C50.5451 47.8697 50.7777 47.6979 51.0272 47.735C51.2768 47.7721 51.449 48.004 51.4118 48.2529Z" fill="#F4D8A0"/>
<path d="M50.9229 48.2527L50.9613 48.1864" stroke="#F4D8A0" stroke-miterlimit="10"/>
<path d="M51.3182 48.4792C51.1917 48.697 50.912 48.7713 50.6937 48.645C50.4754 48.5188 50.4009 48.2398 50.5275 48.022C50.654 47.8042 50.9337 47.73 51.152 47.8562C51.3703 47.9824 51.4448 48.2614 51.3182 48.4792Z" fill="#F4D8A0"/>
<path d="M31.5449 83.8735L50.9227 48.251" stroke="#F4D8A0" stroke-miterlimit="10"/>
<path d="M31.9465 84.0907C31.8261 84.3119 31.5486 84.3939 31.3269 84.2738C31.1051 84.1537 31.0229 83.8769 31.1433 83.6557C31.2637 83.4344 31.5412 83.3524 31.7629 83.4725C31.9847 83.5927 32.0668 83.8694 31.9465 84.0907Z" fill="#F4D8A0"/>
<path d="M41.8418 28.7526L41.8705 28.7031" stroke="#F4D8A0" stroke-miterlimit="10"/>
<path d="M42.2361 28.9809C42.1096 29.1987 41.83 29.273 41.6117 29.1468C41.3934 29.0206 41.3189 28.7416 41.4454 28.5238C41.5719 28.3059 41.8515 28.2317 42.0698 28.3579C42.2881 28.4841 42.3626 28.7631 42.2361 28.9809Z" fill="#F4D8A0"/>
<path d="M53.7971 -6.13696L41.8682 28.7029" stroke="#F4D8A0" stroke-miterlimit="10"/>
<path d="M83.875 100.225H108.385" stroke="#F4D8A0" stroke-miterlimit="10"/>
<path d="M83.8739 100.681C84.1262 100.681 84.3308 100.477 84.3308 100.225C84.3308 99.9738 84.1262 99.7698 83.8739 99.7698C83.6216 99.7698 83.417 99.9738 83.417 100.225C83.417 100.477 83.6216 100.681 83.8739 100.681Z" fill="#F4D8A0"/>
<path d="M83.7891 100.225H83.8749" stroke="#F4D8A0" stroke-miterlimit="10"/>
<path d="M83.788 100.681C84.0404 100.681 84.245 100.477 84.245 100.225C84.245 99.9738 84.0404 99.7698 83.788 99.7698C83.5356 99.7698 83.3311 99.9738 83.3311 100.225C83.3311 100.477 83.5356 100.681 83.788 100.681Z" fill="#F4D8A0"/>
<path d="M21.584 103.225H21.6698" stroke="#F4D8A0" stroke-miterlimit="10"/>
<path d="M21.5839 103.681C21.8363 103.681 22.0408 103.477 22.0408 103.225C22.0408 102.973 21.8363 102.769 21.5839 102.769C21.3315 102.769 21.127 102.973 21.127 103.225C21.127 103.477 21.3315 103.681 21.5839 103.681Z" fill="#F4D8A0"/>
<path d="M83.7031 100.225H83.789" stroke="#F4D8A0" stroke-miterlimit="10"/>
<path d="M83.7031 100.681C83.9554 100.681 84.16 100.477 84.16 100.225C84.16 99.9738 83.9554 99.7698 83.7031 99.7698C83.4507 99.7698 83.2461 99.9738 83.2461 100.225C83.2461 100.477 83.4507 100.681 83.7031 100.681Z" fill="#F4D8A0"/>
<path d="M83.7024 100.226L60.499 101.92" stroke="#F4D8A0" stroke-miterlimit="10"/>
<path d="M83.6687 99.7711C83.9204 99.7527 84.1394 99.9413 84.1578 100.192C84.1762 100.443 83.9871 100.662 83.7355 100.68C83.4838 100.698 83.2648 100.51 83.2464 100.259C83.2279 100.008 83.4171 99.7894 83.6687 99.7711Z" fill="#F4D8A0"/>
<path d="M21.6699 103.224L60.4243 101.921" stroke="#F4D8A0" stroke-miterlimit="10"/>
<path d="M21.6852 103.68C21.4331 103.688 21.2217 103.491 21.2132 103.24C21.2047 102.988 21.4023 102.777 21.6544 102.769C21.9066 102.76 22.118 102.957 22.1265 103.209C22.135 103.46 21.9374 103.671 21.6852 103.68Z" fill="#F4D8A0"/>
<path d="M60.5001 101.922H60.4238" stroke="#F4D8A0" stroke-miterlimit="10"/>
<path d="M60.4999 102.376C60.7522 102.376 60.9568 102.172 60.9568 101.92C60.9568 101.669 60.7522 101.465 60.4999 101.465C60.2475 101.465 60.043 101.669 60.043 101.92C60.043 102.172 60.2475 102.376 60.4999 102.376Z" fill="#F4D8A0"/>
<path d="M21.5849 103.225H21.499" stroke="#F4D8A0" stroke-miterlimit="10"/>
<path d="M21.5839 103.681C21.8363 103.681 22.0408 103.477 22.0408 103.225C22.0408 102.973 21.8363 102.769 21.5839 102.769C21.3315 102.769 21.127 102.973 21.127 103.225C21.127 103.477 21.3315 103.681 21.5839 103.681Z" fill="#F4D8A0"/>
<path d="M21.4988 103.225L-12.0283 120.181" stroke="#F4D8A0" stroke-miterlimit="10"/>
<path d="M21.2925 102.819C21.5176 102.705 21.7926 102.795 21.9066 103.019C22.0207 103.243 21.9306 103.518 21.7056 103.631C21.4805 103.745 21.2055 103.655 21.0914 103.431C20.9774 103.206 21.0674 102.932 21.2925 102.819Z" fill="#F4D8A0"/>
<path d="M70.1982 60.9687H70.2841" stroke="#F4D8A0" stroke-miterlimit="10"/>
<path d="M70.1972 61.4229C70.4496 61.4229 70.6542 61.2188 70.6542 60.967C70.6542 60.7153 70.4496 60.5112 70.1972 60.5112C69.9448 60.5112 69.7402 60.7153 69.7402 60.967C69.7402 61.2188 69.9448 61.4229 70.1972 61.4229Z" fill="#F4D8A0"/>
<path d="M70.2832 60.9664L121.322 59.0108" stroke="#F4D8A0" stroke-miterlimit="10"/>
<path d="M70.3006 61.4218C70.0485 61.4314 69.8362 61.2353 69.8265 60.9838C69.8168 60.7323 70.0134 60.5205 70.2656 60.5108C70.5177 60.5012 70.73 60.6973 70.7396 60.9488C70.7493 61.2003 70.5527 61.4121 70.3006 61.4218Z" fill="#F4D8A0"/>
<path d="M70.1981 60.9687H70.1123" stroke="#F4D8A0" stroke-miterlimit="10"/>
<path d="M70.1972 61.4229C70.4496 61.4229 70.6542 61.2188 70.6542 60.967C70.6542 60.7153 70.4496 60.5112 70.1972 60.5112C69.9448 60.5112 69.7402 60.7153 69.7402 60.967C69.7402 61.2188 69.9448 61.4229 70.1972 61.4229Z" fill="#F4D8A0"/>
<path d="M70.1122 60.9675L50.96 48.1853" stroke="#F4D8A0" stroke-miterlimit="10"/>
<path d="M70.3672 60.5882C70.577 60.7281 70.6333 61.0113 70.4931 61.2206C70.3528 61.4299 70.069 61.4861 69.8592 61.3461C69.6495 61.2062 69.5931 60.923 69.7334 60.7137C69.8736 60.5045 70.1575 60.4482 70.3672 60.5882Z" fill="#F4D8A0"/>
<path d="M10.8232 48.5767L50.8844 48.1858" stroke="#F4D8A0" stroke-miterlimit="10"/>
<path d="M10.8276 49.0327C10.5753 49.0351 10.3687 48.8331 10.3662 48.5814C10.3638 48.3297 10.5664 48.1236 10.8187 48.1211C11.0709 48.1187 11.2776 48.3208 11.28 48.5724C11.2825 48.8241 11.0799 49.0302 10.8276 49.0327Z" fill="#F4D8A0"/>
<path d="M10.8231 48.5767H10.7373" stroke="#F4D8A0" stroke-miterlimit="10"/>
<path d="M10.8231 49.0327C11.0755 49.0327 11.28 48.8286 11.28 48.5769C11.28 48.3252 11.0755 48.1211 10.8231 48.1211C10.5708 48.1211 10.3662 48.3252 10.3662 48.5769C10.3662 48.8286 10.5708 49.0327 10.8231 49.0327Z" fill="#F4D8A0"/>
<path d="M50.8848 48.1862H50.961" stroke="#F4D8A0" stroke-miterlimit="10"/>
<path d="M50.8846 48.6411C51.137 48.6411 51.3416 48.437 51.3416 48.1852C51.3416 47.9334 51.137 47.7292 50.8846 47.7292C50.6323 47.7292 50.4277 47.9334 50.4277 48.1852C50.4277 48.437 50.6323 48.6411 50.8846 48.6411Z" fill="#F4D8A0"/>
<path d="M10.7382 48.5767H10.6523" stroke="#F4D8A0" stroke-miterlimit="10"/>
<path d="M10.7382 49.0327C10.9906 49.0327 11.1951 48.8286 11.1951 48.5769C11.1951 48.3252 10.9906 48.1211 10.7382 48.1211C10.4858 48.1211 10.2812 48.3252 10.2812 48.5769C10.2812 48.8286 10.4858 49.0327 10.7382 49.0327Z" fill="#F4D8A0"/>
<path d="M-19.0859 50.1419L10.6514 48.5772" stroke="#F4D8A0" stroke-miterlimit="10"/>
<path d="M73.6816 10.7532L116.487 -2.15869" stroke="#F4D8A0" stroke-miterlimit="10"/>
<path d="M73.8129 11.1896C73.5713 11.2624 73.3163 11.1261 73.2433 10.8852C73.1703 10.6442 73.3069 10.3898 73.5485 10.317C73.79 10.2442 74.045 10.3805 74.118 10.6214C74.191 10.8624 74.0544 11.1168 73.8129 11.1896Z" fill="#F4D8A0"/>
<path d="M73.5957 10.7532H73.6815" stroke="#F4D8A0" stroke-miterlimit="10"/>
<path d="M73.5956 11.2092C73.848 11.2092 74.0526 11.0052 74.0526 10.7534C74.0526 10.5017 73.848 10.2976 73.5956 10.2976C73.3433 10.2976 73.1387 10.5017 73.1387 10.7534C73.1387 11.0052 73.3433 11.2092 73.5956 11.2092Z" fill="#F4D8A0"/>
<path d="M73.509 10.7532L53.834 -6.2019" stroke="#F4D8A0" stroke-miterlimit="10"/>
<path d="M73.8083 10.4082C73.9992 10.5727 74.0204 10.8606 73.8555 11.0511C73.6906 11.2416 73.402 11.2627 73.211 11.0982C73.0201 10.9337 72.9989 10.6458 73.1638 10.4553C73.3287 10.2648 73.6173 10.2437 73.8083 10.4082Z" fill="#F4D8A0"/>
<path d="M73.5098 10.7532H73.5956" stroke="#F4D8A0" stroke-miterlimit="10"/>
<path d="M73.5097 11.2092C73.7621 11.2092 73.9667 11.0052 73.9667 10.7534C73.9667 10.5017 73.7621 10.2976 73.5097 10.2976C73.2573 10.2976 73.0527 10.5017 73.0527 10.7534C73.0527 11.0052 73.2573 11.2092 73.5097 11.2092Z" fill="#F4D8A0"/>
<path d="M83.7893 100.225L81.8291 81.7046" stroke="#F4D8A0" stroke-miterlimit="10"/>
<path d="M84.2424 100.177C84.2689 100.428 84.0869 100.652 83.836 100.678C83.5851 100.705 83.3601 100.523 83.3336 100.273C83.3071 100.023 83.4891 99.7983 83.74 99.7718C83.9909 99.7454 84.2159 99.9269 84.2424 100.177Z" fill="#F4D8A0"/>
<path d="M77.9072 137.266L83.7878 100.226" stroke="#F4D8A0" stroke-miterlimit="10"/>
<path d="M21.5843 103.225L17.5332 76.4875" stroke="#F4D8A0" stroke-miterlimit="10"/>
<path d="M22.0357 103.157C22.0734 103.406 21.9017 103.638 21.6522 103.675C21.4028 103.713 21.1699 103.542 21.1321 103.293C21.0944 103.044 21.2661 102.812 21.5156 102.774C21.7651 102.737 21.998 102.908 22.0357 103.157Z" fill="#F4D8A0"/>
<path d="M81.8281 81.7048L100.777 79.0964" stroke="#F4D8A0" stroke-miterlimit="10"/>
<path d="M81.8905 82.1563C81.6406 82.1907 81.4099 82.0164 81.3754 81.767C81.341 81.5176 81.5157 81.2875 81.7656 81.2531C82.0156 81.2187 82.2462 81.393 82.2807 81.6424C82.3152 81.8918 82.1405 82.1219 81.8905 82.1563Z" fill="#F4D8A0"/>
<path d="M48.3757 77.6614H48.3184" stroke="#F4D8A0" stroke-miterlimit="10"/>
<path d="M48.374 78.1174C48.6263 78.1174 48.8309 77.9134 48.8309 77.6617C48.8309 77.4101 48.6263 77.2061 48.374 77.2061C48.1216 77.2061 47.917 77.4101 47.917 77.6617C47.917 77.9134 48.1216 78.1174 48.374 78.1174Z" fill="#F4D8A0"/>
<path d="M81.8282 81.7051L48.374 77.6616" stroke="#F4D8A0" stroke-miterlimit="10"/>
<path d="M81.883 81.2521C82.1335 81.2824 82.312 81.5096 82.2817 81.7595C82.2513 82.0094 82.0236 82.1876 81.7731 82.1573C81.5226 82.127 81.3441 81.8998 81.3745 81.6499C81.4048 81.4 81.6325 81.2219 81.883 81.2521Z" fill="#F4D8A0"/>
<path d="M31.5729 83.9216H31.5156" stroke="#F4D8A0" stroke-miterlimit="10"/>
<path d="M31.5722 84.3774C31.8245 84.3774 32.0291 84.1734 32.0291 83.9218C32.0291 83.6701 31.8245 83.4661 31.5722 83.4661C31.3198 83.4661 31.1152 83.6701 31.1152 83.9218C31.1152 84.1734 31.3198 84.3774 31.5722 84.3774Z" fill="#F4D8A0"/>
<path d="M31.5161 83.9219L17.5332 76.4875" stroke="#F4D8A0" stroke-miterlimit="10"/>
<path d="M31.7314 83.5196C31.9541 83.638 32.0385 83.914 31.9198 84.1361C31.8012 84.3583 31.5244 84.4424 31.3017 84.3241C31.0791 84.2058 30.9947 83.9297 31.1133 83.7076C31.2319 83.4855 31.5087 83.4013 31.7314 83.5196Z" fill="#F4D8A0"/>
<path d="M31.5732 83.9219L48.3182 77.6611" stroke="#F4D8A0" stroke-miterlimit="10"/>
<path d="M31.7336 84.3484C31.4973 84.4366 31.2339 84.3171 31.1454 84.0815C31.0568 83.8458 31.1767 83.5832 31.413 83.4949C31.6493 83.4066 31.9127 83.5261 32.0012 83.7618C32.0897 83.9974 31.9699 84.2601 31.7336 84.3484Z" fill="#F4D8A0"/>
<path d="M81.8289 81.7048L70.1982 60.9673" stroke="#F4D8A0" stroke-miterlimit="10"/>
<path d="M82.2278 81.4818C82.3511 81.7015 82.2725 81.9793 82.0523 82.1023C81.8321 82.2252 81.5536 82.1468 81.4303 81.9271C81.3071 81.7075 81.3857 81.4296 81.6059 81.3067C81.8261 81.1837 82.1046 81.2621 82.2278 81.4818Z" fill="#F4D8A0"/>
<path d="M70.1992 60.967L73.4663 34.7517" stroke="#F4D8A0" stroke-miterlimit="10"/>
<path d="M70.6527 61.0232C70.6216 61.273 70.3932 61.4504 70.1428 61.4193C69.8924 61.3883 69.7146 61.1605 69.7457 60.9107C69.7769 60.6608 70.0052 60.4835 70.2556 60.5145C70.506 60.5456 70.6839 60.7734 70.6527 61.0232Z" fill="#F4D8A0"/>
<path d="M0.676758 83.9219L17.5345 76.4875" stroke="#F4D8A0" stroke-miterlimit="10"/>
<path d="M25.6359 27.8391L10.7383 48.5769" stroke="#F4D8A0" stroke-miterlimit="10"/>
<path d="M25.2643 27.5736C25.4113 27.369 25.6968 27.3221 25.9019 27.4687C26.1069 27.6154 26.154 27.9002 26.007 28.1047C25.86 28.3093 25.5745 28.3562 25.3694 28.2096C25.1644 28.0629 25.1173 27.7781 25.2643 27.5736Z" fill="#F4D8A0"/>
<path d="M10.7383 48.5767L17.5337 76.4873" stroke="#F4D8A0" stroke-miterlimit="10"/>
<path d="M10.2943 48.6842C10.2347 48.4396 10.3852 48.193 10.6304 48.1336C10.8756 48.0742 11.1227 48.2243 11.1823 48.4689C11.2419 48.7135 11.0914 48.96 10.8462 49.0195C10.601 49.0789 10.3539 48.9288 10.2943 48.6842Z" fill="#F4D8A0"/>
<path d="M73.4648 34.7517L93.9817 36.968" stroke="#F4D8A0" stroke-miterlimit="10"/>
<path d="M73.4156 35.2051C73.1647 35.178 72.9833 34.953 73.0105 34.7027C73.0377 34.4525 73.2631 34.2715 73.514 34.2986C73.7648 34.3257 73.9462 34.5506 73.9191 34.8009C73.8919 35.0512 73.6665 35.2322 73.4156 35.2051Z" fill="#F4D8A0"/>
<path d="M41.8398 28.752H41.8971" stroke="#F4D8A0" stroke-miterlimit="10"/>
<path d="M41.8407 29.208C42.093 29.208 42.2976 29.0039 42.2976 28.7522C42.2976 28.5005 42.093 28.2964 41.8407 28.2964C41.5884 28.2964 41.3838 28.5005 41.3838 28.7522C41.3838 29.0039 41.5884 29.208 41.8407 29.208Z" fill="#F4D8A0"/>
<path d="M73.4646 34.7522L54.7773 22.7529" stroke="#F4D8A0" stroke-miterlimit="10"/>
<path d="M73.7121 34.3689C73.9243 34.5051 73.9857 34.7873 73.8492 34.999C73.7126 35.2107 73.4298 35.2719 73.2176 35.1357C73.0054 34.9995 72.944 34.7174 73.0805 34.5057C73.2171 34.2939 73.4999 34.2327 73.7121 34.3689Z" fill="#F4D8A0"/>
<path d="M25.6357 27.8391L41.8402 28.7517" stroke="#F4D8A0" stroke-miterlimit="10"/>
<path d="M25.6099 28.2942C25.358 28.28 25.1652 28.0647 25.1794 27.8134C25.1937 27.5621 25.4095 27.3699 25.6614 27.384C25.9133 27.3982 26.1061 27.6135 26.0919 27.8648C26.0776 28.1161 25.8618 28.3084 25.6099 28.2942Z" fill="#F4D8A0"/>
<path d="M54.779 22.7527H54.7217" stroke="#F4D8A0" stroke-miterlimit="10"/>
<path d="M54.7773 23.2085C55.0297 23.2085 55.2343 23.0044 55.2343 22.7527C55.2343 22.5009 55.0297 22.2969 54.7773 22.2969C54.5249 22.2969 54.3203 22.5009 54.3203 22.7527C54.3203 23.0044 54.5249 23.2085 54.7773 23.2085Z" fill="#F4D8A0"/>
<path d="M41.8975 28.7527L54.7219 22.7529" stroke="#F4D8A0" stroke-miterlimit="10"/>
<path d="M42.0914 29.1653C41.8629 29.2721 41.5908 29.1739 41.4837 28.946C41.3766 28.7181 41.4751 28.4466 41.7035 28.3398C41.932 28.233 42.2041 28.3312 42.3112 28.5591C42.4183 28.787 42.3199 29.0585 42.0914 29.1653Z" fill="#F4D8A0"/>
<path d="M73.4658 34.7517L73.5966 10.7529" stroke="#F4D8A0" stroke-miterlimit="10"/>
<path d="M73.9226 34.7539C73.9212 35.0056 73.7155 35.2086 73.4632 35.2073C73.2109 35.2059 73.0074 35.0007 73.0088 34.749C73.0102 34.4973 73.2159 34.2943 73.4682 34.2957C73.7205 34.297 73.924 34.5022 73.9226 34.7539Z" fill="#F4D8A0"/>
<path d="M73.5967 10.7534L84.0511 -30.2" stroke="#F4D8A0" stroke-miterlimit="10"/>
<path d="M74.0395 10.8661C73.9772 11.11 73.7284 11.2574 73.4839 11.1953C73.2394 11.1331 73.0916 10.8849 73.1539 10.641C73.2162 10.3971 73.465 10.2497 73.7095 10.3118C73.954 10.374 74.1018 10.6222 74.0395 10.8661Z" fill="#F4D8A0"/>
<path d="M25.6353 27.8394L-3.24512 18.7092" stroke="#F4D8A0" stroke-miterlimit="10"/>
<path d="M25.7727 27.4047C26.0133 27.4807 26.1465 27.7369 26.0704 27.9769C25.9942 28.2168 25.7373 28.3498 25.4968 28.2738C25.2563 28.1978 25.123 27.9416 25.1992 27.7016C25.2754 27.4616 25.5322 27.3287 25.7727 27.4047Z" fill="#F4D8A0"/>
<path d="M25.6357 27.8396L28.6414 6.84106" stroke="#F4D8A0" stroke-miterlimit="10"/>
<path d="M25.6357 28.2952C25.888 28.2952 26.0926 28.0911 26.0926 27.8394C26.0926 27.5876 25.888 27.3835 25.6357 27.3835C25.3833 27.3835 25.1787 27.5876 25.1787 27.8394C25.1787 28.0911 25.3833 28.2952 25.6357 28.2952Z" fill="#F4D8A0"/>
</g>
<g filter="url(#filter0_d)">
<path d="M48.7202 70.6807C53.4035 70.6749 57.1978 66.888 57.2036 62.2139C57.2036 62.2023 57.0776 59.7367 53.1127 52.926M58.9781 49.5137C56.1257 44.7412 53.0108 40.1307 49.6464 35.703C49.3076 35.2508 48.9969 34.8423 48.7219 34.4851C45.0096 39.2898 41.5839 44.3079 38.4623 49.5137C36.3009 52.8847 34.6771 56.5707 33.6507 60.4395C33.5248 61.0224 33.4577 61.6169 33.4502 62.2139C33.4502 70.6311 40.2866 77.4541 48.7202 77.4541C57.1539 77.4541 63.9902 70.6311 63.9902 62.2139C63.9902 60.351 63.1195 56.6377 58.9814 49.5236L58.9781 49.5137Z" stroke="#E3B04B" stroke-width="2"/>
<path d="M84.3501 92.6943H13.09C10.2791 92.6943 8 94.969 8 97.7744C8 100.58 10.2791 102.854 13.09 102.854H84.3501C87.161 102.854 89.4401 100.58 89.4401 97.7744C89.4401 94.969 87.161 92.6943 84.3501 92.6943Z" stroke="#E3B04B" stroke-width="2"/>
<path d="M13.09 18.1865H84.3501C87.161 18.1865 89.4401 15.912 89.4401 13.1066C89.4401 10.3012 87.161 8.02661 84.3501 8.02661H13.09C10.2791 8.02661 8 10.3012 8 13.1066C8 15.912 10.2791 18.1865 13.09 18.1865Z" stroke="#E3B04B" stroke-width="2"/>
<path d="M62.8348 74.3634C62.626 74.6057 62.4123 74.8397 62.1919 75.0695C62.0105 75.2613 61.8257 75.4474 61.6335 75.6301C61.4049 75.8509 61.1671 76.0642 60.926 76.2717C60.728 76.4412 60.5275 76.6107 60.3221 76.7802C60.0711 76.9803 59.8134 77.168 59.5516 77.3541C59.3379 77.5087 59.1258 77.6608 58.9054 77.8047C58.6337 77.9742 58.3562 78.1437 58.0762 78.3124C57.85 78.4447 57.6263 78.5786 57.3968 78.7002C57.1052 78.8531 56.807 78.9904 56.5062 79.1285C56.2726 79.2376 56.0398 79.3492 55.8004 79.4468C55.4864 79.5774 55.1641 79.6857 54.8419 79.7974C54.6041 79.8809 54.3688 79.9669 54.1244 80.0446C53.7848 80.1479 53.4319 80.2298 53.0823 80.3141C52.8486 80.3704 52.6191 80.4365 52.3822 80.4836C51.9879 80.5614 51.5861 80.6143 51.1843 80.6664C50.9821 80.6937 50.7833 80.7342 50.5787 80.7548C49.9673 80.8135 49.3501 80.8474 48.7238 80.8474C48.0975 80.8474 47.4803 80.8135 46.8697 80.7548C46.6642 80.7342 46.4654 80.6937 46.2633 80.6664C45.8615 80.6143 45.4597 80.5614 45.0662 80.4836C44.8284 80.4365 44.5989 80.3704 44.3653 80.3141C44.0157 80.2298 43.6644 80.1446 43.3231 80.0446C43.0787 79.9718 42.8434 79.8759 42.6057 79.7974C42.2834 79.6857 41.9611 79.5774 41.6471 79.4468C41.4077 79.3492 41.1758 79.2376 40.9413 79.1285C40.6406 78.9904 40.3423 78.8531 40.0507 78.7002C39.8179 78.5786 39.5942 78.4447 39.3722 78.3124C39.0922 78.1437 38.8138 77.9858 38.5421 77.8047C38.3217 77.6608 38.1097 77.5087 37.8959 77.3541C37.6341 77.168 37.3765 76.9803 37.1255 76.7802C36.92 76.6107 36.7195 76.4412 36.5215 76.2717C36.2804 76.0642 36.0427 75.8509 35.814 75.6301C35.6218 75.4474 35.4371 75.2613 35.2556 75.0695C35.0353 74.8397 34.8215 74.6057 34.6128 74.3634C34.4396 74.1658 34.2698 73.964 34.1033 73.7573C33.9053 73.5068 33.7147 73.2497 33.5283 72.99C33.3759 72.7767 33.2251 72.5617 33.081 72.3401C32.9111 72.0706 32.7413 71.7953 32.5715 71.5158C32.4406 71.2884 32.3088 71.0635 32.1862 70.8295C32.0338 70.5418 31.8963 70.2458 31.7604 69.9473C31.6502 69.71 31.54 69.4768 31.4398 69.2345C31.3147 68.9245 31.2037 68.6095 31.101 68.2928C31.0156 68.0489 30.9311 67.8091 30.8508 67.5619C30.7514 67.2229 30.671 66.8839 30.5898 66.5457C30.5318 66.3018 30.4664 66.0595 30.42 65.8123C30.3487 65.4518 30.3015 65.0838 30.2501 64.7151C30.2187 64.4794 30.1756 64.2496 30.1524 64.0106C30.1524 63.9734 30.14 63.9378 30.1366 63.9006H14.7871V89.3076H82.6538V63.9072H67.3076C67.3076 63.9445 67.296 63.98 67.2918 64.0172C67.2686 64.2562 67.2264 64.486 67.1941 64.7217C67.1444 65.0913 67.0972 65.4584 67.0243 65.8189C66.9745 66.0661 66.9091 66.3084 66.8544 66.5523C66.7732 66.8913 66.6929 67.2295 66.5935 67.5685C66.5189 67.8157 66.4236 68.0563 66.3441 68.3002C66.2356 68.6161 66.1246 68.9311 66.0044 69.2412C65.9042 69.4834 65.794 69.7174 65.6838 69.9539C65.548 70.2524 65.4104 70.5484 65.258 70.8361C65.1354 71.0701 65.0037 71.295 64.8728 71.5224C64.7029 71.8019 64.5455 72.078 64.3641 72.3468C64.2191 72.5692 64.0683 72.7841 63.9159 72.9975C63.7295 73.2579 63.539 73.5051 63.341 73.7639C63.1769 73.9665 63.0079 74.1658 62.8348 74.3634V74.3634Z" stroke="#E3B04B" stroke-width="2"/>
<path d="M13.09 60.5203H30.1909C30.2058 60.4235 30.2414 60.3086 30.2588 60.2102C30.3408 59.7273 30.4543 59.223 30.5977 58.6963C30.6441 58.5276 30.6846 58.3581 30.7352 58.1787C30.934 57.5007 31.166 56.7896 31.4551 56.0363C31.4866 55.9553 31.528 55.8668 31.562 55.7808C31.8279 55.1028 32.1386 54.3818 32.4799 53.6402C32.5859 53.4078 32.6953 53.173 32.8088 52.9374C33.1476 52.223 33.5221 51.4813 33.9322 50.7123C33.996 50.5908 34.044 50.4841 34.1103 50.3601H13.09C10.2791 50.3601 8 52.6347 8 55.4402C8 58.2456 10.2791 60.5203 13.09 60.5203Z" stroke="#E3B04B" stroke-width="2"/>
<path d="M84.3498 50.3601H63.3369C63.3974 50.4717 63.4396 50.5701 63.5059 50.6801C63.9218 51.4639 64.3004 52.218 64.6484 52.9456C64.7585 53.178 64.8671 53.4078 64.9706 53.6335C65.3095 54.3802 65.6251 55.0995 65.8952 55.7858C65.9275 55.8668 65.9664 55.9553 65.9987 56.0363C66.287 56.7896 66.5198 57.4974 66.7178 58.1787C66.7692 58.3473 66.8098 58.5168 66.8554 58.6863C66.9945 59.213 67.1047 59.7191 67.195 60.2102C67.2116 60.3086 67.2472 60.4235 67.263 60.5203H84.3498C87.1607 60.5203 89.4398 58.2456 89.4398 55.4402C89.4398 52.6347 87.1607 50.3601 84.3498 50.3601Z" stroke="#E3B04B" stroke-width="2"/>
<path d="M82.6538 21.5732H14.7871V46.974H36.0278C36.1089 46.8351 36.1976 46.6995 36.2788 46.5605C36.4229 46.3199 36.5687 46.0818 36.7145 45.8412L37.2423 44.9945C37.3881 44.7638 37.5322 44.5339 37.6789 44.3049C37.8603 44.0172 38.0434 43.7327 38.2265 43.4483C38.369 43.2267 38.5115 43.0084 38.654 42.7876C38.8387 42.5049 39.0243 42.227 39.209 41.95C39.3515 41.7326 39.4948 41.5184 39.6382 41.3059L40.1824 40.4998L40.6066 39.8804L41.1468 39.0999C41.2843 38.9048 41.4177 38.7105 41.5535 38.5186C41.7234 38.2681 41.9015 38.0258 42.073 37.7844L42.4748 37.218L42.9536 36.5565L43.3488 36.0108C43.4979 35.8058 43.6387 35.6131 43.7829 35.418L44.1681 34.8954L44.5534 34.3869L44.9195 33.8957L45.2219 33.4964L45.6038 32.9887L45.8159 32.7125L46.1788 32.2379L46.3602 32.0047L46.6609 31.6186L46.7438 31.5103C47.1116 31.0406 47.3494 30.743 47.3974 30.6851C47.7296 30.3031 48.2126 30.0831 48.7205 30.0831C49.2283 30.0831 49.7113 30.3031 50.0435 30.6851C50.0915 30.743 50.3293 31.0406 50.6971 31.5103L50.78 31.6186L51.0617 31.9791L51.2638 32.2412L51.6557 32.7497L51.8255 32.9779L52.243 33.5303C52.3308 33.6469 52.412 33.7568 52.5073 33.8809C52.6365 34.0504 52.7724 34.2331 52.9058 34.4142L53.2604 34.888L53.6779 35.456C53.8105 35.6354 53.9397 35.8115 54.0747 35.9992C54.2106 36.1869 54.3688 36.4019 54.518 36.6086C54.6671 36.8153 54.7996 36.9964 54.9438 37.1982L55.4019 37.8431L55.8617 38.4938C56.0158 38.7138 56.174 38.937 56.3298 39.171C56.4864 39.4042 56.6454 39.625 56.8053 39.8565C56.9644 40.0888 57.1276 40.3261 57.2883 40.5626L57.7738 41.2778L58.2708 42.0245L58.7447 42.7422C58.9154 43.0026 59.0852 43.2656 59.2534 43.5293C59.4091 43.7699 59.5641 44.0114 59.7181 44.2545C59.888 44.5273 60.0578 44.7977 60.2276 45.0722L60.67 45.7866C60.8399 46.0727 61.0097 46.358 61.1911 46.6457C61.2607 46.7606 61.332 46.8739 61.3999 46.9839H82.6538V21.5732Z" stroke="#E3B04B" stroke-width="2"/>
</g>
<g filter="url(#filter1_d)">
<path d="M89.1095 71.8506C88.8871 71.2956 88.3485 70.9324 87.7504 70.9324H76.042C75.4439 70.9324 74.9053 71.2956 74.6829 71.8506L69.9994 83.5359C69.6155 84.4938 70.3232 85.5391 71.3583 85.5391H92.4341C93.4679 85.5391 94.1774 84.4951 93.793 83.5359L89.1095 71.8506Z" fill="#101010" stroke="#101010" stroke-width="2"/>
<path d="M76.134 89.3785C75.9115 88.8234 75.3729 88.4602 74.7748 88.4602H63.0664C62.4683 88.4602 61.9297 88.8234 61.7073 89.3785L57.0238 101.064C56.6399 102.022 57.3477 103.067 58.3827 103.067H79.4585C80.4923 103.067 81.2018 102.023 80.8174 101.064L76.134 89.3785Z" fill="#101010" stroke="#101010" stroke-width="2"/>
<path d="M102.084 89.3785C101.862 88.8234 101.323 88.4602 100.725 88.4602H89.0166C88.4185 88.4602 87.8799 88.8234 87.6575 89.3785L82.974 101.064C82.5901 102.022 83.2978 103.067 84.3329 103.067H105.409C106.442 103.067 107.152 102.023 106.767 101.064L102.084 89.3785Z" fill="#101010" stroke="#101010" stroke-width="2"/>
</g>
<mask id="mask1" mask-type="alpha" maskUnits="userSpaceOnUse" x="56" y="70" width="51" height="34">
<path d="M89.1095 71.8506C88.8871 71.2956 88.3485 70.9324 87.7504 70.9324H76.042C75.4439 70.9324 74.9053 71.2956 74.6829 71.8506L69.9994 83.5359C69.6155 84.4938 70.3232 85.5391 71.3583 85.5391H92.4341C93.4679 85.5391 94.1774 84.4951 93.793 83.5359L89.1095 71.8506Z" fill="black"/>
<path d="M76.134 89.3785C75.9115 88.8234 75.3729 88.4602 74.7748 88.4602H63.0664C62.4683 88.4602 61.9297 88.8234 61.7073 89.3785L57.0238 101.064C56.6399 102.022 57.3477 103.067 58.3827 103.067H79.4585C80.4923 103.067 81.2018 102.023 80.8174 101.064L76.134 89.3785Z" fill="black"/>
<path d="M102.084 89.3785C101.862 88.8234 101.323 88.4602 100.725 88.4602H89.0166C88.4185 88.4602 87.8799 88.8234 87.6575 89.3785L82.974 101.064C82.5901 102.022 83.2978 103.067 84.3329 103.067H105.409C106.442 103.067 107.152 102.023 106.767 101.064L102.084 89.3785Z" fill="black"/>
</mask>
<g mask="url(#mask1)">
<path d="M114.526 74.4495L94.458 102.051" stroke="#F4D8A0" stroke-miterlimit="10"/>
<path d="M94.4586 102.051L94.4209 102.116L116.487 137.218" stroke="#F4D8A0" stroke-miterlimit="10"/>
<path d="M94.678 102.45C94.8993 102.329 94.9802 102.052 94.8589 101.832C94.7375 101.611 94.4598 101.53 94.2385 101.651C94.0172 101.772 93.9363 102.049 94.0576 102.27C94.179 102.491 94.4568 102.572 94.678 102.45Z" fill="#F4D8A0"/>
<path d="M94.287 102.052L85.1963 92.1877" stroke="#F4D8A0" stroke-miterlimit="10"/>
<path d="M94.6234 101.742C94.7942 101.928 94.7822 102.216 94.5964 102.387C94.4107 102.557 94.1215 102.545 93.9507 102.36C93.7799 102.174 93.7919 101.886 93.9777 101.716C94.1634 101.545 94.4525 101.557 94.6234 101.742Z" fill="#F4D8A0"/>
<path d="M85.5869 137.218L94.3232 102.117L94.2855 102.052" stroke="#F4D8A0" stroke-miterlimit="10"/>
<path d="M34.3447 97.2258L60.6852 79.5369" stroke="#F4D8A0" stroke-miterlimit="10"/>
<path d="M60.7132 79.4875L60.6846 79.5371" stroke="#F4D8A0" stroke-miterlimit="10"/>
<path d="M60.3172 79.2597C60.4434 79.0417 60.7229 78.967 60.9414 79.0929C61.1599 79.2188 61.2348 79.4976 61.1086 79.7157C60.9824 79.9336 60.7029 80.0083 60.4844 79.8824C60.2658 79.7565 60.191 79.4777 60.3172 79.2597Z" fill="#F4D8A0"/>
<path d="M85.1966 92.1894L85.168 92.1398" stroke="#F4D8A0" stroke-miterlimit="10"/>
<path d="M85.5919 91.9596C85.7181 92.1775 85.6432 92.4563 85.4247 92.5822C85.2062 92.708 84.9267 92.6334 84.8006 92.4154C84.6744 92.1975 84.7492 91.9187 84.9677 91.7928C85.1862 91.667 85.4657 91.7416 85.5919 91.9596Z" fill="#F4D8A0"/>
<path d="M114.526 74.352L93.1133 47.0769L93.151 47.0117" stroke="#F4D8A0" stroke-miterlimit="10"/>
<path d="M85.1973 92.0901L93.0188 47.0769L92.9811 47.0117" stroke="#F4D8A0" stroke-miterlimit="10"/>
<path d="M85.6474 92.1675C85.6043 92.4154 85.3677 92.5816 85.1191 92.5386C84.8705 92.4956 84.7039 92.2597 84.747 92.0117C84.7901 91.7638 85.0267 91.5976 85.2753 91.6406C85.5239 91.6836 85.6905 91.9195 85.6474 92.1675Z" fill="#F4D8A0"/>
<path d="M48.9801 52.2288L48.9424 52.294L60.6843 79.4387" stroke="#F4D8A0" stroke-miterlimit="10"/>
<path d="M85.1966 92.0906L85.168 92.1401" stroke="#F4D8A0" stroke-miterlimit="10"/>
<path d="M84.8006 91.8617C84.9267 91.6437 85.2062 91.5691 85.4247 91.6949C85.6432 91.8208 85.7181 92.0997 85.5919 92.3177C85.4657 92.5357 85.1862 92.6104 84.9677 92.4845C84.7492 92.3586 84.6744 92.0797 84.8006 91.8617Z" fill="#F4D8A0"/>
<path d="M60.7132 79.4896L60.6846 79.4401" stroke="#F4D8A0" stroke-miterlimit="10"/>
<path d="M61.1086 79.2597C61.2348 79.4777 61.1599 79.7566 60.9414 79.8824C60.7229 80.0083 60.4434 79.9336 60.3172 79.7157C60.191 79.4977 60.2658 79.2188 60.4844 79.0929C60.7029 78.967 60.9824 79.0417 61.1086 79.2597Z" fill="#F4D8A0"/>
<path d="M74.5361 100.226L74.5746 100.292" stroke="#F4D8A0" stroke-miterlimit="10"/>
<path d="M74.1408 100.454C74.0142 100.236 74.0887 99.9574 74.307 99.8312C74.5254 99.7051 74.805 99.7793 74.9315 99.997C75.058 100.215 74.9836 100.494 74.7652 100.62C74.5469 100.746 74.2673 100.672 74.1408 100.454Z" fill="#F4D8A0"/>
<path d="M60.684 79.5371L60.6553 79.4875" stroke="#F4D8A0" stroke-miterlimit="10"/>
<path d="M61.0798 79.3079C61.2063 79.5258 61.1319 79.8047 60.9136 79.9309C60.6953 80.0571 60.4157 79.9829 60.2892 79.7651C60.1627 79.5473 60.2371 79.2683 60.4554 79.1421C60.6737 79.0158 60.9533 79.0901 61.0798 79.3079Z" fill="#F4D8A0"/>
<path d="M85.5885 137.218L74.5742 100.291" stroke="#F4D8A0" stroke-miterlimit="10"/>
<path d="M74.5359 100.226L60.6846 79.5369" stroke="#F4D8A0" stroke-miterlimit="10"/>
<path d="M74.916 99.9723C75.0562 100.182 74.9997 100.465 74.7899 100.604C74.5801 100.744 74.2963 100.688 74.1561 100.479C74.016 100.269 74.0724 99.9864 74.2822 99.8466C74.492 99.7068 74.7758 99.7631 74.916 99.9723Z" fill="#F4D8A0"/>
<path d="M85.1957 92.0901L66.8633 48.251" stroke="#F4D8A0" stroke-miterlimit="10"/>
<path d="M85.618 91.9142C85.7151 92.1464 85.6051 92.4134 85.3723 92.5104C85.1394 92.6073 84.8718 92.4976 84.7746 92.2653C84.6774 92.033 84.7875 91.766 85.0203 91.6691C85.2532 91.5721 85.5208 91.6819 85.618 91.9142Z" fill="#F4D8A0"/>
<path d="M85.226 92.1399L85.1973 92.0903" stroke="#F4D8A0" stroke-miterlimit="10"/>
<path d="M85.6199 91.9097C85.7464 92.1276 85.6719 92.4065 85.4536 92.5327C85.2353 92.659 84.9557 92.5847 84.8292 92.3669C84.7027 92.1491 84.7772 91.8701 84.9955 91.7439C85.2138 91.6177 85.4934 91.6919 85.6199 91.9097Z" fill="#F4D8A0"/>
<path d="M85.226 92.1393L85.1973 92.1888" stroke="#F4D8A0" stroke-miterlimit="10"/>
<path d="M84.8292 91.9098C84.9557 91.6919 85.2353 91.6177 85.4536 91.7439C85.6719 91.8701 85.7464 92.1491 85.6199 92.3669C85.4934 92.5847 85.2138 92.659 84.9955 92.5327C84.7772 92.4065 84.7027 92.1275 84.8292 91.9098Z" fill="#F4D8A0"/>
<path d="M74.6127 100.226L74.5742 100.292" stroke="#F4D8A0" stroke-miterlimit="10"/>
<path d="M74.2169 99.997C74.3434 99.7793 74.623 99.7051 74.8413 99.8312C75.0596 99.9574 75.1341 100.236 75.0076 100.454C74.8811 100.672 74.6015 100.746 74.3832 100.62C74.1649 100.494 74.0904 100.215 74.2169 99.997Z" fill="#F4D8A0"/>
<path d="M74.6133 100.225L85.1976 92.1874" stroke="#F4D8A0" stroke-miterlimit="10"/>
<path d="M74.8898 100.588C74.689 100.74 74.4023 100.701 74.2495 100.501C74.0968 100.301 74.1357 100.015 74.3365 99.8626C74.5373 99.7102 74.824 99.749 74.9768 99.9493C75.1296 100.15 75.0906 100.435 74.8898 100.588Z" fill="#F4D8A0"/>
<path d="M54.6748 137.218L74.5753 100.291" stroke="#F4D8A0" stroke-miterlimit="10"/>
<path d="M60.6846 79.439L66.8636 48.251" stroke="#F4D8A0" stroke-miterlimit="10"/>
<path d="M61.1328 79.5273C61.0839 79.7742 60.8435 79.9349 60.5959 79.886C60.3484 79.8372 60.1874 79.5974 60.2363 79.3504C60.2852 79.1035 60.5257 78.9428 60.7732 78.9917C61.0207 79.0405 61.1818 79.2803 61.1328 79.5273Z" fill="#F4D8A0"/>
<path d="M60.6553 79.4896L60.684 79.4401" stroke="#F4D8A0" stroke-miterlimit="10"/>
<path d="M61.0516 79.7162C60.9251 79.934 60.6455 80.0083 60.4271 79.8821C60.2088 79.7559 60.1343 79.4769 60.2609 79.2591C60.3874 79.0413 60.667 78.967 60.8854 79.0932C61.1037 79.2195 61.1782 79.4984 61.0516 79.7162Z" fill="#F4D8A0"/>
<path d="M94.373 102.052H94.4589" stroke="#F4D8A0" stroke-miterlimit="10"/>
<path d="M94.372 102.507C94.1197 102.507 93.915 102.303 93.915 102.051C93.915 101.799 94.1197 101.595 94.372 101.595C94.6244 101.595 94.829 101.799 94.829 102.051C94.829 102.303 94.6244 102.507 94.372 102.507Z" fill="#F4D8A0"/>
<path d="M94.458 102.051L134.65 120.18" stroke="#F4D8A0" stroke-miterlimit="10"/>
<path d="M94.2698 102.466C94.0399 102.363 93.9377 102.093 94.0416 101.863C94.1455 101.634 94.4163 101.532 94.6462 101.636C94.8761 101.739 94.9783 102.009 94.8744 102.239C94.7705 102.468 94.4998 102.57 94.2698 102.466Z" fill="#F4D8A0"/>
<path d="M94.2874 102.051L74.6123 100.226" stroke="#F4D8A0" stroke-miterlimit="10"/>
<path d="M94.3294 101.597C94.5806 101.62 94.7654 101.842 94.742 102.093C94.7187 102.343 94.496 102.528 94.2447 102.504C93.9935 102.481 93.8087 102.259 93.8321 102.008C93.8554 101.758 94.0781 101.573 94.3294 101.597Z" fill="#F4D8A0"/>
<path d="M74.5355 100.226L34.3438 97.2258" stroke="#F4D8A0" stroke-miterlimit="10"/>
<path d="M74.5692 99.7706C74.8208 99.7893 75.0096 100.008 74.9908 100.259C74.972 100.51 74.7526 100.698 74.501 100.68C74.2494 100.661 74.0606 100.442 74.0794 100.191C74.0982 99.9401 74.3175 99.7518 74.5692 99.7706Z" fill="#F4D8A0"/>
<path d="M94.2871 102.052H94.3729" stroke="#F4D8A0" stroke-miterlimit="10"/>
<path d="M94.287 102.507C94.0347 102.507 93.8301 102.303 93.8301 102.051C93.8301 101.799 94.0347 101.595 94.287 101.595C94.5393 101.595 94.7439 101.799 94.7439 102.051C94.7439 102.303 94.5393 102.507 94.287 102.507Z" fill="#F4D8A0"/>
<path d="M74.6124 100.226H74.5361" stroke="#F4D8A0" stroke-miterlimit="10"/>
<path d="M74.6122 99.7698C74.8645 99.7698 75.0691 99.9738 75.0691 100.225C75.0691 100.477 74.8645 100.681 74.6122 100.681C74.3599 100.681 74.1553 100.477 74.1553 100.225C74.1553 99.9738 74.3599 99.7698 74.6122 99.7698Z" fill="#F4D8A0"/>
<path d="M101.037 137.266L94.3721 102.051" stroke="#F4D8A0" stroke-miterlimit="10"/>
<path d="M94.373 102.052L101.038 83.9226" stroke="#F4D8A0" stroke-miterlimit="10"/>
<path d="M94.802 102.208C94.7151 102.444 94.4525 102.566 94.2157 102.479C93.9788 102.392 93.8572 102.13 93.9441 101.894C94.031 101.658 94.2936 101.537 94.5304 101.623C94.7673 101.71 94.8889 101.972 94.802 102.208Z" fill="#F4D8A0"/>
<path d="M101.038 83.9219L114.498 74.4009" stroke="#F4D8A0" stroke-miterlimit="10"/>
<path d="M101.301 84.2937C101.095 84.4393 100.81 84.3908 100.664 84.1854C100.518 83.9801 100.567 83.6956 100.773 83.55C100.979 83.4045 101.264 83.453 101.41 83.6583C101.556 83.8637 101.507 84.1482 101.301 84.2937Z" fill="#F4D8A0"/>
<path d="M85.2253 92.1393H85.168" stroke="#F4D8A0" stroke-miterlimit="10"/>
<path d="M85.2245 91.6824C85.4768 91.6824 85.6814 91.8865 85.6814 92.1383C85.6814 92.3901 85.4768 92.5942 85.2245 92.5942C84.9722 92.5942 84.7676 92.3901 84.7676 92.1383C84.7676 91.8865 84.9722 91.6824 85.2245 91.6824Z" fill="#F4D8A0"/>
<path d="M39.2246 83.9216L60.6563 79.4868" stroke="#F4D8A0" stroke-miterlimit="10"/>
<path d="M101.037 83.9219L85.2246 92.1387" stroke="#F4D8A0" stroke-miterlimit="10"/>
<path d="M100.826 83.5176C101.05 83.4014 101.326 83.4882 101.442 83.7114C101.559 83.9346 101.472 84.2099 101.248 84.3261C101.024 84.4423 100.748 84.3556 100.632 84.1323C100.515 83.9091 100.602 83.6339 100.826 83.5176Z" fill="#F4D8A0"/>
<path d="M60.7126 79.4875H60.6553" stroke="#F4D8A0" stroke-miterlimit="10"/>
<path d="M60.7128 79.0317C60.9651 79.0317 61.1697 79.2359 61.1697 79.4875C61.1697 79.7392 60.9651 79.9434 60.7128 79.9434C60.4605 79.9434 60.2559 79.7392 60.2559 79.4875C60.2559 79.2359 60.4605 79.0317 60.7128 79.0317Z" fill="#F4D8A0"/>
<path d="M60.7129 79.4875L85.168 92.1389" stroke="#F4D8A0" stroke-miterlimit="10"/>
<path d="M60.5026 79.8924C60.2786 79.7765 60.1911 79.5014 60.3072 79.2779C60.4233 79.0544 60.6992 78.9671 60.9232 79.083C61.1472 79.1988 61.2347 79.474 61.1186 79.6975C61.0025 79.9209 60.7266 80.0082 60.5026 79.8924Z" fill="#F4D8A0"/>
<path d="M101.037 83.9219L93.0654 47.0117" stroke="#F4D8A0" stroke-miterlimit="10"/>
<path d="M101.371 84.2347C101.544 84.0518 101.536 83.7634 101.352 83.5904C101.169 83.4175 100.88 83.4256 100.706 83.6086C100.533 83.7915 100.541 84.0799 100.725 84.2528C100.908 84.4258 101.197 84.4176 101.371 84.2347Z" fill="#F4D8A0"/>
</g>
<g filter="url(#filter2_d)">
<path d="M89.1095 71.8506C88.8871 71.2956 88.3485 70.9324 87.7504 70.9324H76.042C75.4439 70.9324 74.9053 71.2956 74.6829 71.8506L69.9994 83.5359C69.6155 84.4938 70.3232 85.5391 71.3583 85.5391H92.4341C93.4679 85.5391 94.1774 84.4951 93.793 83.5359L89.1095 71.8506Z" stroke="#E3B04B" stroke-width="2"/>
<path d="M76.134 89.3785C75.9115 88.8234 75.3729 88.4602 74.7748 88.4602H63.0664C62.4683 88.4602 61.9297 88.8234 61.7073 89.3785L57.0238 101.064C56.6399 102.022 57.3477 103.067 58.3827 103.067H79.4585C80.4923 103.067 81.2018 102.023 80.8174 101.064L76.134 89.3785Z" stroke="#E3B04B" stroke-width="2"/>
<path d="M102.084 89.3785C101.862 88.8234 101.323 88.4602 100.725 88.4602H89.0166C88.4185 88.4602 87.8799 88.8234 87.6575 89.3785L82.974 101.064C82.5901 102.022 83.2978 103.067 84.3329 103.067H105.409C106.442 103.067 107.152 102.023 106.767 101.064L102.084 89.3785Z" stroke="#E3B04B" stroke-width="2"/>
</g>
<defs>
<filter id="filter0_d" x="0" y="0.0266113" width="97.4402" height="110.828" filterUnits="userSpaceOnUse" color-interpolation-filters="sRGB">
<feFlood flood-opacity="0" result="BackgroundImageFix"/>
<feColorMatrix in="SourceAlpha" type="matrix" values="0 0 0 0 0 0 0 0 0 0 0 0 0 0 0 0 0 0 127 0"/>
<feOffset/>
<feGaussianBlur stdDeviation="3.5"/>
<feColorMatrix type="matrix" values="0 0 0 0 0.970833 0 0 0 0 0.813392 0 0 0 0 0.501597 0 0 0 0.74 0"/>
<feBlend mode="normal" in2="BackgroundImageFix" result="effect1_dropShadow"/>
<feBlend mode="normal" in="SourceGraphic" in2="effect1_dropShadow" result="shape"/>
</filter>
<filter id="filter1_d" x="48.917" y="62.9324" width="65.9577" height="48.1345" filterUnits="userSpaceOnUse" color-interpolation-filters="sRGB">
<feFlood flood-opacity="0" result="BackgroundImageFix"/>
<feColorMatrix in="SourceAlpha" type="matrix" values="0 0 0 0 0 0 0 0 0 0 0 0 0 0 0 0 0 0 127 0"/>
<feOffset/>
<feGaussianBlur stdDeviation="3.5"/>
<feColorMatrix type="matrix" values="0 0 0 0 0.970833 0 0 0 0 0.813392 0 0 0 0 0.501597 0 0 0 0.74 0"/>
<feBlend mode="normal" in2="BackgroundImageFix" result="effect1_dropShadow"/>
<feBlend mode="normal" in="SourceGraphic" in2="effect1_dropShadow" result="shape"/>
</filter>
<filter id="filter2_d" x="48.917" y="62.9324" width="65.9577" height="48.1345" filterUnits="userSpaceOnUse" color-interpolation-filters="sRGB">
<feFlood flood-opacity="0" result="BackgroundImageFix"/>
<feColorMatrix in="SourceAlpha" type="matrix" values="0 0 0 0 0 0 0 0 0 0 0 0 0 0 0 0 0 0 127 0"/>
<feOffset/>
<feGaussianBlur stdDeviation="3.5"/>
<feColorMatrix type="matrix" values="0 0 0 0 0.970833 0 0 0 0 0.813392 0 0 0 0 0.501597 0 0 0 0.74 0"/>
<feBlend mode="normal" in2="BackgroundImageFix" result="effect1_dropShadow"/>
<feBlend mode="normal" in="SourceGraphic" in2="effect1_dropShadow" result="shape"/>
</filter>
</defs>
</svg>
