<svg width="60" height="62" viewBox="0 0 60 62" fill="none" xmlns="http://www.w3.org/2000/svg">
<circle cx="26.8269" cy="26.8269" r="16.7885" stroke="#F8F8F8"/>
<circle cx="26.827" cy="22.0577" r="3.67308" stroke="#F8F8F8"/>
<path d="M31.6959 34.0769H31.6931H31.6856H31.678H31.6704H31.6628H31.6551H31.6474H31.6396H31.6317H31.6239H31.6159H31.608H31.5999H31.5919H31.5838H31.5756H31.5674H31.5591H31.5509H31.5425H31.5341H31.5257H31.5172H31.5087H31.5001H31.4915H31.4829H31.4742H31.4654H31.4566H31.4478H31.4389H31.43H31.4211H31.412H31.403H31.3939H31.3848H31.3756H31.3664H31.3571H31.3478H31.3385H31.3291H31.3197H31.3102H31.3007H31.2912H31.2816H31.272H31.2623H31.2526H31.2428H31.2331H31.2232H31.2134H31.2035H31.1935H31.1835H31.1735H31.1635H31.1534H31.1432H31.133H31.1228H31.1126H31.1023H31.092H31.0816H31.0712H31.0608H31.0503H31.0398H31.0293H31.0187H31.0081H30.9974H30.9867H30.976H30.9652H30.9545H30.9436H30.9328H30.9219H30.9109H30.9H30.889H30.8779H30.8669H30.8558H30.8446H30.8335H30.8223H30.811H30.7998H30.7885H30.7771H30.7658H30.7544H30.7429H30.7315H30.72H30.7085H30.6969H30.6853H30.6737H30.6621H30.6504H30.6387H30.627H30.6152H30.6034H30.5916H30.5797H30.5678H30.5559H30.544H30.532H30.52H30.508H30.4959H30.4838H30.4717H30.4596H30.4474H30.4352H30.423H30.4107H30.3985H30.3862H30.3738H30.3615H30.3491H30.3367H30.3243H30.3118H30.2993H30.2868H30.2743H30.2617H30.2491H30.2365H30.2239H30.2112H30.1985H30.1858H30.1731H30.1603H30.1476H30.1348H30.1219H30.1091H30.0962H30.0833H30.0704H30.0575H30.0445H30.0315H30.0185H30.0055H29.9924H29.9794H29.9663H29.9532H29.94H29.9269H29.9137H29.9005H29.8873H29.8741H29.8608H29.8476H29.8343H29.821H29.8076H29.7943H29.7809H29.7675H29.7541H29.7407H29.7273H29.7138H29.7003H29.6869H29.6733H29.6598H29.6463H29.6327H29.6191H29.6055H29.5919H29.5783H29.5647H29.551H29.5373H29.5236H29.5099H29.4962H29.4825H29.4687H29.455H29.4412H29.4274H29.4136H29.3998H29.3859H29.3721H29.3582H29.3444H29.3305H29.3166H29.3026H29.2887H29.2748H29.2608H29.2469H29.2329H29.2189H29.2049H29.1909H29.1769H29.1629H29.1488H29.1348H29.1207H29.1066H29.0925H29.0784H29.0643H29.0502H29.0361H29.022H29.0078H28.9937H28.9795H28.9654H28.9512H28.937H28.9228H28.9086H28.8944H28.8802H28.866H28.8517H28.8375H28.8232H28.809H28.7947H28.7805H28.7662H28.7519H28.7376H28.7234H28.7091H28.6948H28.6805H28.6661H28.6518H28.6375H28.6232H28.6089H28.5945H28.5802H28.5659H28.5515H28.5372H28.5228H28.5085H28.4941H28.4797H28.4654H28.451H28.4367H28.4223H28.4079H28.3935H28.3792H28.3648H28.3504H28.336H28.3217H28.3073H28.2929H28.2785H28.2641H28.2497H28.2354H28.221H28.2066H28.1922H28.1778H28.1635H28.1491H28.1347H28.1203H28.106H28.0916H28.0772H28.0629H28.0485H28.0341H28.0198H28.0054H27.9911H27.9767H27.9624H27.948H27.9337H27.9193H27.905H27.8907H27.8764H27.862H27.8477H27.8334H27.8191H27.8048H27.7905H27.7762H27.7619H27.7477H27.7334H27.7191H27.7049H27.6906H27.6764H27.6621H27.6479H27.6337H27.6195H27.6052H27.591H27.5768H27.5627H27.5485H27.5343H27.5202H27.506H27.4919H27.4777H27.4636H27.4495H27.4354H27.4213H27.4072H27.3931H27.3791H27.365H27.351H27.3369H27.3229H27.3089H27.2949H27.2809H27.2669H27.253H27.239H27.2251H27.2111H27.1972H27.1833H27.1694H27.1556H27.1417H27.1278H27.114H27.1002H27.0864H27.0726H27.0588H27.045H27.0313H27.0175H27.0038H26.9901H26.9764H26.9627H26.9491H26.9354H26.9218H26.9082H26.8946H26.881H26.8675H26.8539H26.8404H26.8269H22.5461C22.5389 33.8909 22.529 33.6917 22.5188 33.4844L22.5175 33.4577C22.4965 33.0334 22.4736 32.5655 22.4644 32.0713C22.4461 31.0798 22.4839 30.0064 22.6956 29.0182C22.9077 28.0286 23.2855 27.1655 23.9156 26.5516C24.534 25.9491 25.4446 25.5385 26.8269 25.5385C28.2201 25.5384 29.1801 25.919 29.8575 26.4915C30.542 27.0701 30.9851 27.8848 31.2657 28.8319C31.7452 30.4502 31.7197 32.3225 31.6996 33.7942C31.6983 33.8902 31.697 33.9845 31.6959 34.0769Z" stroke="#F8F8F8"/>
<path d="M55.4423 59.6154L36.3654 40.5385L40.5384 36.9615L59.0192 55.4423L55.4423 59.6154Z" stroke="#F8F8F8"/>
<path d="M17.2885 7.15381H42.9231M6.55774 48.8846H34.577M42.9231 54.8461H6.55774" stroke="#F8F8F8"/>
<path fill-rule="evenodd" clip-rule="evenodd" d="M12.5192 13.0192H13.0192V12.5192V1H47.8846V42.9231V44.7115V44.7645L47.9017 44.7477L48.8846 45.7472V44.7115V42.9231V1V0H47.8846H13.0192H12.5192L12.0192 0.5L0.5 12.0192L0 12.5192V13.0192V61V62H1H47.8846H48.8846V61V53.3558V52.2415L47.8846 51.2245V53.3558V61H1V13.0192H12.5192ZM12.0192 1.91421L1.91421 12.0192H12.0192V1.91421Z" fill="#F8F8F8"/>
</svg>
