<svg width="58" height="62" viewBox="0 0 58 62" fill="none" xmlns="http://www.w3.org/2000/svg">
<path d="M49.6628 8.29065C50.2395 8.29065 54.469 8.29065 56.5116 8.29065C54.6641 20.3406 52.2461 27.0159 41.0116 32.8023" stroke="#F8F8F8"/>
<path d="M7.84884 8.65112C7.27209 8.65112 3.04264 8.65112 1 8.65112C2.84749 20.7011 5.26547 27.3763 16.5 33.1628" stroke="#F8F8F8"/>
<path fill-rule="evenodd" clip-rule="evenodd" d="M34.1628 39.679L34.1662 39.6754C40.6849 32.9626 44.3661 27.4969 46.4418 21.5362C48.4462 15.7805 48.9836 9.48288 49.021 1H8.4912C8.55145 11.1933 9.54702 17.8257 11.7085 23.3354C13.9348 29.01 17.4286 33.5782 22.6279 39.6763V50.0233H21.907H20.907H14.2558V56.2209L13.9767 56.2326V58.6744H13.2558H12.2558H11.3721V61H45.4186V58.6744H44.5349H43.5349H42.8139V56.2326L42.5349 56.2209V50.0233H35.8837H34.8837H34.1628V39.679ZM21.907 40.3721V40.8721V48.0233V49.0233H20.907H14.2558H13.2558V50.0233V56.6744V57.6744H12.2558H11.3721H10.3721V58.6744V61V62H11.3721H45.4186H46.4186V61V58.6744V57.6744H45.4186H44.5349H43.5349V56.6744V50.0233V49.0233H42.5349L35.8837 49.0232L34.8837 49.0233V48.0233L34.8836 40.8721V40.3721C47.7922 27.0791 49.9451 18.3536 50.021 1C50.0225 0.66982 50.0232 0.336517 50.0232 0H49.0232H8.48828H7.48828C7.48828 0.336982 7.48924 0.670289 7.49118 1C7.61344 21.8315 11.6164 28.3072 21.907 40.3721Z" fill="#F8F8F8"/>
</svg>
