<svg width="62" height="62" viewBox="0 0 62 62" fill="none" xmlns="http://www.w3.org/2000/svg">
<path d="M21.8519 11.176C21.8519 17.0918 17.0583 21.8519 11.176 21.8519C5.26009 21.8519 0.5 17.0583 0.5 11.176C0.5 5.26009 5.29361 0.5 11.176 0.5C17.0583 0.5 21.8519 5.26009 21.8519 11.176Z" stroke="#F8F8F8"/>
<path d="M15.8099 8.67092C15.8099 8.67092 13.9735 5.03116 10.3008 6.24444C7.54625 7.45772 10.3008 9.47997 10.3008 11.9064M10.3008 11.9064C10.3008 14.3329 8.46443 16.355 8.46443 16.355H15.8099M10.3008 11.9064H7.08716M10.3008 11.9064H13.5144" stroke="#F8F8F8"/>
<path d="M6.27817 18.5981C6.25084 18.3805 6.22829 18.1931 6.2102 18.0381C11.7244 17.7872 15.76 17.359 19.643 16.0192C23.5724 14.6634 27.3106 12.3869 32.2638 8.48709C37.1962 12.3788 40.6733 14.6577 44.3423 16.0155C47.965 17.3561 51.7397 17.7854 57.2192 18.0365C57.1923 18.1859 57.1598 18.3638 57.1215 18.5682C56.99 19.2695 56.7902 20.2831 56.5175 21.5295C55.9719 24.0229 55.1351 27.4448 53.9706 31.1598C51.6322 38.6197 48.0052 47.1488 42.84 51.7823C40.3998 53.9712 37.7416 55.92 35.6896 57.3234C34.6645 58.0245 33.7926 58.5881 33.1777 58.9761C32.8702 59.1701 32.6271 59.3201 32.4612 59.4214C32.446 59.4307 32.4315 59.4395 32.4177 59.448C32.3723 59.4297 32.3205 59.4087 32.2625 59.3851C32.0139 59.2838 31.6522 59.1338 31.2025 58.9398C30.3028 58.5519 29.0519 57.9887 27.6484 57.2886C24.8322 55.8838 21.4383 53.9453 19.027 51.7823C13.872 47.1579 10.6407 38.6421 8.70147 31.1835C7.73611 27.4705 7.09836 24.0502 6.70201 21.5578C6.50389 20.312 6.36623 19.2989 6.27817 18.5981Z"  stroke="#F8F8F8"/>
<path d="M32.2235 52.5292C32.2071 52.5226 32.1898 52.5156 32.1717 52.5082C31.9898 52.4341 31.7249 52.3242 31.3954 52.1821C30.7361 51.8978 29.8194 51.4851 28.7909 50.9721C26.7247 49.9414 24.2442 48.5235 22.4862 46.9465C18.7307 43.5776 16.3641 37.3561 14.9399 31.8781C14.232 29.1554 13.7642 26.6469 13.4735 24.8187C13.3282 23.905 13.2273 23.1621 13.1627 22.6485C13.1504 22.5504 13.1394 22.4606 13.1297 22.3796C17.1109 22.1943 20.0556 21.8749 22.8935 20.8958C25.7785 19.9003 28.5187 18.2354 32.1225 15.4054C35.7056 18.2274 38.2553 19.8946 40.9506 20.892C43.5985 21.872 46.3527 22.1924 50.2996 22.378C50.2862 22.4515 50.2713 22.5318 50.255 22.6187C50.1586 23.1327 50.0121 23.8761 49.812 24.7904C49.4118 26.6195 48.798 29.1297 47.9439 31.8544C46.2263 37.3338 43.57 43.5685 39.8043 46.9465C38.0174 48.5495 36.0696 49.9775 34.5646 51.0068C33.813 51.5208 33.1739 51.934 32.7232 52.2184C32.5129 52.3511 32.3438 52.4556 32.2235 52.5292Z"  stroke="#F8F8F8"/>
<path d="M23.0837 32.4635C23.6159 32.7296 27.3855 36.6545 29.2039 38.5837L39.9142 27.8734" stroke="#F8F8F8"/>
<path d="M60.9013 51.2896C60.9013 56.9475 56.3168 61.4999 50.691 61.4999C45.0332 61.4999 40.4807 56.9154 40.4807 51.2896C40.4807 45.6318 45.0652 41.0793 50.691 41.0793C56.3168 41.0793 60.9013 45.6318 60.9013 51.2896Z" stroke="#F8F8F8"/>
<path d="M53.3932 48.2435C53.3932 48.2435 49.1752 44.9289 47.9098 48.5196C46.6444 52.1103 54.7992 49.3487 54.0962 53.3536C53.3932 57.3586 47.3474 53.6298 47.3474 53.6298" stroke="#F8F8F8"/>
<path d="M51.0046 45.804V56.7755" stroke="#F8F8F8"/>
</svg>
