<svg width="288" height="151" viewBox="0 0 288 151" fill="none" xmlns="http://www.w3.org/2000/svg">
<g filter="url(#filter0_d)">
<path d="M121.119 109.895C119.204 113.034 117.007 115.9 114.658 118.67C112.3 121.423 109.765 124.031 107.054 126.438C101.639 131.261 95.4916 135.334 88.7651 138.12C82.0466 140.913 74.7487 142.378 67.467 142.241C60.1852 142.153 52.9357 140.599 46.2252 137.814C32.7881 132.267 21.3224 121.97 14.6039 109.025C11.2487 102.561 9.10838 95.4762 8.31986 88.2389C7.58766 81.0015 8.08652 73.6031 10.1061 66.5911C12.0855 59.5711 15.5131 52.9858 19.9948 47.2538C24.4765 41.5139 29.964 36.595 36.0549 32.6342C42.1458 28.6733 48.8321 25.6222 55.8484 23.7142C59.3565 22.7643 62.9531 22.1122 66.5899 21.8304C70.2268 21.5809 73.8958 21.7016 77.5005 22.2249C84.734 23.2473 91.6456 25.912 98.0181 29.3013C104.519 32.61 110.256 37.2793 115.237 42.5282C120.242 47.7771 124.651 53.5171 128.907 59.3376C133.156 65.1662 137.243 71.0994 141.314 77.0326L147.389 85.9606C149.401 88.9473 151.388 91.9421 153.432 94.8966C157.495 100.822 161.888 106.473 166.386 112.1C168.623 114.91 170.884 117.704 173.241 120.384C175.599 123.073 178.085 125.633 180.813 127.896C186.26 132.444 192.769 135.592 199.504 137.854C206.247 140.084 213.392 141.235 220.464 140.776C227.545 140.301 234.505 138.369 240.998 135.487C247.499 132.589 253.558 128.693 258.86 123.951C264.163 119.217 268.685 113.59 272.008 107.31C275.331 101.039 277.391 94.1077 278.018 87.0393C278.646 79.971 277.914 72.7819 275.918 65.9712C271.951 52.3015 262.69 40.3787 250.814 32.6181C244.868 28.7377 238.23 25.8959 231.294 24.4066C224.367 22.9253 217.133 22.8045 210.213 24.318C203.278 25.7752 196.712 28.7941 190.83 32.7549C184.94 36.7319 179.67 41.6507 175.221 47.1894L173.966 46.1831C178.528 40.5075 183.911 35.5082 189.945 31.4266C195.98 27.3692 202.73 24.2536 209.892 22.7562C217.036 21.2025 224.511 21.3232 231.64 22.8528C238.777 24.3905 245.584 27.3128 251.683 31.2897C263.857 39.2597 273.343 51.4723 277.415 65.5204C279.466 72.5163 280.215 79.8986 279.563 87.1682C278.911 94.4377 276.787 101.57 273.367 108.019C269.948 114.467 265.313 120.231 259.882 125.078C254.459 129.924 248.264 133.901 241.625 136.864C234.987 139.81 227.867 141.791 220.577 142.274C213.271 142.741 205.949 141.549 199.053 139.271C195.602 138.128 192.238 136.719 189.004 135.052C185.761 133.394 182.688 131.365 179.879 129.039C177.063 126.712 174.529 124.088 172.147 121.359C169.757 118.637 167.496 115.828 165.252 113.01C160.762 107.391 156.32 101.675 152.249 95.7258C150.197 92.7632 148.21 89.7604 146.198 86.7737L140.132 77.8537C136.068 71.9205 131.989 65.9954 127.757 60.191C123.516 54.4027 119.139 48.6949 114.215 43.5265C109.299 38.35 103.723 33.8015 97.3744 30.5732C91.0663 27.2162 84.3477 24.632 77.3074 23.6337C73.7993 23.1185 70.2348 23.0058 66.7026 23.2473C63.1623 23.513 59.6542 24.157 56.2185 25.0828C49.3471 26.9425 42.7895 29.9373 36.8193 33.8176C30.849 37.6979 25.4742 42.5121 21.0891 48.1153C16.7039 53.7103 13.3648 60.1346 11.4337 66.9775C9.46241 73.8124 8.97964 81.0337 9.6877 88.102C10.4521 95.1703 12.5441 102.094 15.8189 108.405C22.3765 121.053 33.6008 131.148 46.7482 136.582C53.3219 139.311 60.3944 140.825 67.4991 140.913C74.6039 141.05 81.7086 139.625 88.2743 136.896C94.848 134.175 100.875 130.19 106.201 125.456C108.864 123.089 111.367 120.529 113.684 117.816C115.993 115.103 118.174 112.237 120.008 109.226L121.119 109.895Z" fill="#E3B04B" stroke="#E3B04B" stroke-width="1.60923"/>
<path d="M174.556 34.529C174.998 34.5693 175.32 34.9637 175.28 35.4065L174.129 47.6755L185.724 43.5295C186.142 43.3765 186.601 43.5939 186.754 44.0125C186.907 44.4311 186.681 44.89 186.263 45.043L173.478 49.6156C173.22 49.7042 172.931 49.6639 172.713 49.4949C172.496 49.3258 172.383 49.0601 172.408 48.7864L173.671 35.2616C173.687 35.1006 173.743 34.9557 173.84 34.843C174.009 34.6337 174.266 34.5049 174.556 34.529Z" fill="#E3B04B" stroke="#E3B04B" stroke-width="1.60923"/>
<path d="M71.4258 17.2175V22.0478" stroke="#E3B04B" stroke-width="4.02307" stroke-miterlimit="10"/>
<path d="M84.2994 9.16699H58.5518V17.2175H84.2994V9.16699Z" fill="#E3B04B" stroke="#E3B04B" stroke-width="4.02307" stroke-miterlimit="10"/>
<path d="M103.554 116.995C94.4134 126.455 81.5959 132.339 67.4026 132.339C39.6273 132.339 17.1143 109.814 17.1143 82.0239C17.1143 54.2336 39.6273 31.7084 67.4026 31.7084C76.6476 31.7084 85.3133 34.204 92.7559 38.5593C96.779 40.9101 100.44 43.8082 103.65 47.1411" stroke="#E3B04B" stroke-width="4.02307" stroke-miterlimit="10"/>
<path d="M69.0121 89.2693C72.7892 89.2693 75.8513 86.2056 75.8513 82.4264C75.8513 78.6472 72.7892 75.5835 69.0121 75.5835C65.2349 75.5835 62.1729 78.6472 62.1729 82.4264C62.1729 86.2056 65.2349 89.2693 69.0121 89.2693Z" stroke="#E3B04B" stroke-width="4.02307" stroke-miterlimit="10"/>
<path d="M94.357 38.5513L89.5293 45.7967" stroke="#E3B04B" stroke-width="4.02307" stroke-miterlimit="10"/>
<path d="M89.5294 61.8977L73.3325 77.1855" stroke="#E3B04B" stroke-width="4.02307" stroke-miterlimit="10"/>
<path d="M63.7817 77.9987L53.3218 66.728" stroke="#E3B04B" stroke-width="4.02307" stroke-miterlimit="10"/>
<path d="M71.0234 32.5134V39.7589" stroke="#E3B04B" stroke-width="4.02307" stroke-miterlimit="10"/>
<path d="M42.8618 39.3563L46.8849 45.7967" stroke="#E3B04B" stroke-width="4.02307" stroke-miterlimit="10"/>
<path d="M25.1602 57.8724L31.597 61.0926" stroke="#E3B04B" stroke-width="4.02307" stroke-miterlimit="10"/>
<path d="M18.7236 82.8289H25.9652" stroke="#E3B04B" stroke-width="4.02307" stroke-miterlimit="10"/>
<path d="M25.9648 107.785L31.5971 103.76" stroke="#E3B04B" stroke-width="4.02307" stroke-miterlimit="10"/>
<path d="M43.6665 125.496L46.8849 119.861" stroke="#E3B04B" stroke-width="4.02307" stroke-miterlimit="10"/>
<path d="M68.6094 131.937V125.496" stroke="#E3B04B" stroke-width="4.02307" stroke-miterlimit="10"/>
<path d="M94.357 125.496L89.5293 119.861" stroke="#E3B04B" stroke-width="4.02307" stroke-miterlimit="10"/>
<path d="M217.463 31.3058C245.455 31.3058 268.153 54.0162 268.153 82.0238C268.153 110.031 245.455 132.742 217.463 132.742C203.414 132.742 190.693 127.026 181.513 117.784" stroke="#E3B04B" stroke-width="4.02307" stroke-miterlimit="10"/>
<path d="M217.463 47.4067V117.446" stroke="#E3B04B" stroke-width="4.02307" stroke-miterlimit="10"/>
<path d="M201.773 94.5021C202.191 103.213 209.489 109.983 217.865 109.798C226.652 109.597 233.129 101.643 233.153 94.5021C233.169 89.2451 229.677 85.4292 229.13 84.8415C226.724 82.2815 223.739 81.2268 217.865 79.2062C211.042 76.8635 209.409 77.3385 207.405 75.1809C203.97 71.4777 204.911 65.9309 204.991 65.5204C206.021 59.9816 211.123 55.3124 217.061 55.0548C223.594 54.773 229.741 59.9092 230.739 67.1305" stroke="#E3B04B" stroke-width="4.02307" stroke-miterlimit="10"/>
</g>
<defs>
<filter id="filter0_d" x="0.195801" y="0.155518" width="287.4" height="150.023" filterUnits="userSpaceOnUse" color-interpolation-filters="sRGB">
<feFlood flood-opacity="0" result="BackgroundImageFix"/>
<feColorMatrix in="SourceAlpha" type="matrix" values="0 0 0 0 0 0 0 0 0 0 0 0 0 0 0 0 0 0 127 0"/>
<feOffset/>
<feGaussianBlur stdDeviation="3.5"/>
<feColorMatrix type="matrix" values="0 0 0 0 0.970833 0 0 0 0 0.813392 0 0 0 0 0.501597 0 0 0 0.74 0"/>
<feBlend mode="normal" in2="BackgroundImageFix" result="effect1_dropShadow"/>
<feBlend mode="normal" in="SourceGraphic" in2="effect1_dropShadow" result="shape"/>
</filter>
</defs>
</svg>
