<svg width="150" height="151" viewBox="0 0 150 151" fill="none" xmlns="http://www.w3.org/2000/svg">
<g filter="url(#filter0_d)">
<path d="M140.226 57.7693L133.302 48.5339L129.454 75.4927C129.101 77.9636 127.935 80.2944 126.172 82.0585L78.7736 129.483C74.6393 133.621 69.1365 135.899 63.278 135.899C61.5272 135.899 59.8095 135.691 58.1499 135.295C60.6703 139.239 65.084 141.862 70.1008 141.862H126.82C134.639 141.862 140.999 135.498 140.999 127.674V60.0909C140.999 59.2537 140.728 58.4397 140.226 57.7693Z" stroke="#E3B04B" stroke-width="2" stroke-miterlimit="10"/>
<path d="M92.6675 70.2032C92.6675 72.3408 90.9367 74.0725 88.8003 74.0725C86.6656 74.0725 84.9331 72.3408 84.9331 70.2032C84.9331 68.0659 86.6656 66.3339 88.8003 66.3339C90.9367 66.3339 92.6675 68.0659 92.6675 70.2032Z" stroke="#E3B04B" stroke-width="2" stroke-miterlimit="10"/>
<path d="M48.916 70.2032C48.916 72.3408 47.1839 74.0725 45.0488 74.0725C42.9124 74.0725 41.1816 72.3408 41.1816 70.2032C41.1816 68.0659 42.9124 66.3339 45.0488 66.3339C47.1839 66.3339 48.916 68.0659 48.916 70.2032Z" stroke="#E3B04B" stroke-width="2" stroke-miterlimit="10"/>
<path d="M112.501 19.1313L104.298 10.9226C103.438 10.0613 102.221 9.65825 101.017 9.82884L62.7323 15.3009C61.9038 15.4192 61.1372 15.8034 60.545 16.3946L13.1462 63.8191C7.61795 69.3503 7.61795 78.3518 13.1462 83.883L53.2523 124.011C56.0171 126.777 59.6481 128.159 63.2788 128.159C66.9098 128.159 70.5419 126.777 73.3053 124.011L120.704 76.5877C121.296 75.9952 121.68 75.2268 121.799 74.3979L127.268 36.0943C127.44 34.8881 127.034 33.6723 126.173 32.8111L117.97 24.6034L112.501 19.1313ZM45.0494 81.8111C38.6525 81.8111 33.4478 76.6039 33.4478 70.2032C33.4478 63.8029 38.6525 58.5954 45.0494 58.5954C51.4462 58.5954 56.6509 63.8029 56.6509 70.2032C56.6509 76.6039 51.4462 81.8111 45.0494 81.8111ZM61.4796 98.7865C60.9386 100.408 59.4305 101.433 57.8111 101.433C57.4055 101.433 56.9933 101.37 56.588 101.234C54.5616 100.558 53.4657 98.3672 54.1412 96.3401L72.3721 41.619C73.0475 39.5928 75.2376 38.4967 77.264 39.1725C79.289 39.8484 80.3846 42.0396 79.7091 44.0668L61.4796 98.7865ZM88.801 81.8111C82.4041 81.8111 77.1994 76.6039 77.1994 70.2032C77.1994 63.8029 82.4041 58.5954 88.801 58.5954C95.1982 58.5954 100.403 63.8029 100.403 70.2032C100.403 76.6039 95.1982 81.8111 88.801 81.8111Z" stroke="#E3B04B" stroke-width="2" stroke-miterlimit="10"/>
<mask id="mask0" mask-type="alpha" maskUnits="userSpaceOnUse" x="9" y="9" width="132" height="133">
<path d="M140.226 57.7693L133.302 48.5339L129.454 75.4927C129.101 77.9636 127.935 80.2944 126.172 82.0585L78.7736 129.483C74.6393 133.621 69.1365 135.899 63.278 135.899C61.5272 135.899 59.8095 135.691 58.1499 135.295C60.6703 139.239 65.084 141.862 70.1008 141.862H126.82C134.639 141.862 140.999 135.498 140.999 127.674V60.0909C140.999 59.2537 140.728 58.4397 140.226 57.7693Z" fill="#C4C4C4"/>
<path fill-rule="evenodd" clip-rule="evenodd" d="M104.298 10.1315L112.501 18.3358L117.97 23.8049L126.173 32.0082C127.034 32.869 127.44 34.0841 127.268 35.2896L121.799 73.5725C121.68 74.401 121.296 75.1689 120.704 75.7612L73.3053 123.159C70.5419 125.923 66.9098 127.305 63.2788 127.305C59.6481 127.305 56.0171 125.923 53.2523 123.159L13.1462 83.0525C7.61795 77.5243 7.61795 68.5276 13.1462 62.9994L60.5449 15.6006C61.1372 15.0097 61.9038 14.6257 62.7323 14.5075L101.017 9.03841C102.221 8.86792 103.438 9.27079 104.298 10.1315ZM33.4478 69.3801C33.4478 75.7773 38.6525 80.9817 45.0494 80.9817C51.4462 80.9817 56.6509 75.7773 56.6509 69.3801C56.6509 62.9833 51.4462 57.7785 45.0494 57.7785C38.6525 57.7785 33.4478 62.9833 33.4478 69.3801ZM57.8111 100.593C59.4305 100.593 60.9386 99.5687 61.4796 97.9479L79.7091 43.2578C80.3846 41.2317 79.289 39.0417 77.264 38.3662C75.2376 37.6907 73.0475 38.7863 72.372 40.8113L54.1412 95.5028C53.4657 97.5289 54.5616 99.7189 56.588 100.394C56.9933 100.53 57.4055 100.593 57.8111 100.593ZM77.1994 69.3801C77.1994 75.7773 82.4041 80.9817 88.801 80.9817C95.1982 80.9817 100.403 75.7773 100.403 69.3801C100.403 62.9833 95.1982 57.7785 88.801 57.7785C82.4041 57.7785 77.1994 62.9833 77.1994 69.3801ZM48.9166 69.38C48.9166 71.5165 47.1844 73.2472 45.0494 73.2472C42.913 73.2472 41.1822 71.5165 41.1822 69.38C41.1822 67.244 42.913 65.5128 45.0494 65.5128C47.1844 65.5128 48.9166 67.244 48.9166 69.38ZM92.6682 69.38C92.6682 71.5165 90.9374 73.2472 88.801 73.2472C86.6663 73.2472 84.9338 71.5165 84.9338 69.38C84.9338 67.244 86.6663 65.5128 88.801 65.5128C90.9374 65.5128 92.6682 67.244 92.6682 69.38Z" fill="#C4C4C4"/>
</mask>
<g mask="url(#mask0)">
<g filter="url(#filter1_d)">
<path d="M145.691 124.592L109.583 147.651" stroke="#F4D8A0" stroke-miterlimit="10"/>
<path d="M70.0318 134.116L69.999 134.173" stroke="#F4D8A0" stroke-miterlimit="10"/>
<path d="M70.2103 133.807L70.2102 133.807C70.0395 133.708 69.8209 133.767 69.7223 133.937L70.2103 133.807ZM70.2103 133.807C70.381 133.905 70.4395 134.124 70.3409 134.295L70.2103 133.807ZM69.853 134.425L69.853 134.425C70.0238 134.524 70.2423 134.466 70.3409 134.295L69.853 134.425ZM69.853 134.425C69.6822 134.327 69.6237 134.108 69.7223 133.937L69.853 134.425Z" fill="#F4D8A0" stroke="#F4D8A0"/>
<path d="M109.385 147.651L93.188 112.883" stroke="#F4D8A0" stroke-miterlimit="10"/>
<path d="M69.9988 134.173L34.6509 145.826" stroke="#F4D8A0" stroke-miterlimit="10"/>
<path d="M69.8872 133.834C70.0745 133.772 70.2765 133.874 70.3383 134.061L69.8872 133.834ZM70.3383 134.061C70.4 134.248 70.2981 134.45 70.1108 134.512L70.3383 134.061ZM70.1108 134.512C69.9235 134.574 69.7215 134.472 69.6598 134.285L70.1108 134.512ZM69.6598 134.285C69.5981 134.097 69.6999 133.895 69.8872 133.834L69.6598 134.285Z" fill="#F4D8A0" stroke="#F4D8A0"/>
<path d="M93.1553 112.826L93.188 112.883" stroke="#F4D8A0" stroke-miterlimit="10"/>
<path d="M92.977 112.516L92.977 112.516C92.8063 112.615 92.7477 112.833 92.8463 113.004L92.977 112.516ZM92.977 112.516C93.1478 112.418 93.3663 112.476 93.4649 112.647L92.977 112.516ZM93.3342 113.135L93.3343 113.135C93.505 113.036 93.5636 112.818 93.465 112.647L93.3342 113.135ZM93.3342 113.135C93.1635 113.233 92.945 113.175 92.8463 113.004L93.3342 113.135Z" fill="#F4D8A0" stroke="#F4D8A0"/>
<path d="M34.4527 145.827L25.3994 116.685" stroke="#F4D8A0" stroke-miterlimit="10"/>
<path d="M25.3662 116.628L25.399 116.684" stroke="#F4D8A0" stroke-miterlimit="10"/>
<path d="M25.188 116.318L25.1879 116.318C25.0172 116.417 24.9586 116.635 25.0573 116.806L25.188 116.318ZM25.188 116.318C25.3587 116.22 25.5772 116.278 25.6759 116.449L25.188 116.318ZM25.5452 116.937L25.5452 116.937C25.716 116.838 25.7745 116.62 25.6759 116.449L25.5452 116.937ZM25.5452 116.937C25.3744 117.035 25.1559 116.977 25.0573 116.806L25.5452 116.937Z" fill="#F4D8A0" stroke="#F4D8A0"/>
<path d="M130.406 98.9877L141.131 55.8551" stroke="#F4D8A0" stroke-miterlimit="10"/>
<path d="M130.753 99.0734L130.753 99.0734C130.801 98.882 130.684 98.6882 130.493 98.6405L130.753 99.0734ZM130.753 99.0734C130.706 99.2647 130.512 99.3814 130.32 99.3338L130.753 99.0734ZM130.06 98.9009L130.06 98.9009C130.012 99.0923 130.129 99.2861 130.32 99.3338L130.06 98.9009ZM130.06 98.9009C130.108 98.7095 130.302 98.5929 130.493 98.6405L130.06 98.9009Z" fill="#F4D8A0" stroke="#F4D8A0"/>
<path d="M130.407 98.9872L130.363 99.0633L145.692 124.479" fill="#F4D8A0"/>
<path d="M130.407 98.9872L130.363 99.0633L145.692 124.479" stroke="#F4D8A0" stroke-miterlimit="10"/>
<path d="M130.585 98.6777L130.585 98.6777C130.414 98.5791 130.196 98.6377 130.097 98.8085L130.585 98.6777ZM130.585 98.6777C130.756 98.7764 130.815 98.9949 130.716 99.1657C130.617 99.3364 130.399 99.395 130.228 99.2964L130.228 99.2964M130.585 98.6777L130.228 99.2964M130.228 99.2964C130.057 99.1978 129.999 98.9792 130.097 98.8085L130.228 99.2964Z" fill="#F4D8A0" stroke="#F4D8A0"/>
<path d="M141.165 55.7975L141.132 55.8542" stroke="#F4D8A0" stroke-miterlimit="10"/>
<path d="M140.855 55.619L140.855 55.619C140.757 55.7898 140.815 56.0083 140.986 56.1069L140.986 56.1069C141.157 56.2055 141.375 56.147 141.474 55.9762L141.474 55.9762C141.572 55.8054 141.514 55.5869 141.343 55.4883L140.855 55.619ZM140.855 55.619C140.954 55.4482 141.172 55.3897 141.343 55.4883L140.855 55.619ZM140.736 56.5396L140.736 56.5399L140.736 56.5396Z" fill="#F4D8A0" stroke="#F4D8A0"/>
<path d="M89.9966 52.6611L89.9639 52.6043" stroke="#F4D8A0" stroke-miterlimit="10"/>
<path d="M90.3058 52.4824L90.3058 52.4824C90.2072 52.3116 89.9886 52.2531 89.8179 52.3517L89.8179 52.3517C89.6471 52.4503 89.5885 52.6688 89.6871 52.8396L89.6871 52.8396C89.7857 53.0104 90.0043 53.0689 90.1751 52.9703L90.3058 52.4824ZM90.3058 52.4824C90.4044 52.6532 90.3458 52.8717 90.1751 52.9703L90.3058 52.4824Z" fill="#F4D8A0" stroke="#F4D8A0"/>
<path d="M93.1553 112.826L93.188 112.769" stroke="#F4D8A0" stroke-miterlimit="10"/>
<path d="M92.977 113.135L92.977 113.135C93.1478 113.234 93.3663 113.175 93.4649 113.005L92.977 113.135ZM92.977 113.135C92.8063 113.037 92.7477 112.818 92.8463 112.647L92.977 113.135ZM93.3343 112.517L93.3342 112.517C93.1635 112.418 92.945 112.477 92.8463 112.647L93.3343 112.517ZM93.3343 112.517C93.505 112.615 93.5636 112.834 93.465 113.005L93.3343 112.517Z" fill="#F4D8A0" stroke="#F4D8A0"/>
<path d="M66.3838 54.7329L66.3511 54.7897" stroke="#F4D8A0" stroke-miterlimit="10"/>
<path d="M66.0743 54.5546L66.0743 54.5546C65.9757 54.7253 66.0343 54.9439 66.2051 55.0425L66.2051 55.0425C66.3758 55.1411 66.5944 55.0825 66.693 54.9118L66.693 54.9117C66.7916 54.741 66.7331 54.5225 66.5623 54.4238L66.0743 54.5546ZM66.0743 54.5546C66.173 54.3838 66.3915 54.3252 66.5623 54.4238L66.0743 54.5546ZM65.9552 55.4752L65.9551 55.4755L65.9552 55.4752Z" fill="#F4D8A0" stroke="#F4D8A0"/>
<path d="M46.8101 89.7109L66.3508 54.7904" stroke="#F4D8A0" stroke-miterlimit="10"/>
<path d="M46.6361 90.0232L46.6361 90.0232C46.8079 90.1195 47.0256 90.0582 47.122 89.8859L46.6361 90.0232ZM46.6361 90.0232C46.464 89.9268 46.4023 89.7086 46.4988 89.5361M46.6361 90.0232L46.4988 89.5361M46.4988 89.5361C46.5953 89.3638 46.8129 89.3025 46.9848 89.3988L46.3917 90.4594C45.9787 90.228 45.8313 89.7053 46.0625 89.292L46.4988 89.5361ZM46.9848 89.3988C47.1569 89.4952 47.2186 89.7134 47.122 89.8859L46.9848 89.3988Z" fill="#F4D8A0" stroke="#F4D8A0"/>
<path d="M130.208 98.9872L130.252 99.0633L93.1885 112.769" fill="#F4D8A0"/>
<path d="M130.208 98.9872L130.252 99.0633L93.1885 112.769" stroke="#F4D8A0" stroke-miterlimit="10"/>
<path d="M130.03 98.6778L130.03 98.6778C129.859 98.7764 129.8 98.995 129.899 99.1658C129.998 99.3365 130.216 99.3951 130.387 99.2965L130.387 99.2965C130.558 99.1979 130.616 98.9793 130.518 98.8086L130.03 98.6778ZM130.03 98.6778C130.201 98.5792 130.419 98.6378 130.518 98.8086L130.03 98.6778Z" fill="#F4D8A0" stroke="#F4D8A0"/>
<path d="M69.999 134.059L70.0318 134.116" stroke="#F4D8A0" stroke-miterlimit="10"/>
<path d="M69.8203 133.75L69.8203 133.75C69.6495 133.849 69.591 134.067 69.6896 134.238L69.8203 133.75ZM69.8203 133.75C69.991 133.652 70.2096 133.71 70.3082 133.881L69.8203 133.75ZM70.1775 134.369L70.1775 134.369C70.3483 134.27 70.4068 134.052 70.3082 133.881L70.1775 134.369ZM70.1775 134.369C70.0068 134.467 69.7882 134.409 69.6896 134.238L70.1775 134.369Z" fill="#F4D8A0" stroke="#F4D8A0"/>
<path d="M130.208 98.9873L89.9966 52.6614" stroke="#F4D8A0" stroke-miterlimit="10"/>
<path d="M130.478 98.7527L130.478 98.7527C130.607 98.9016 130.591 99.1273 130.442 99.2566C130.294 99.3859 130.068 99.37 129.939 99.2211L129.939 99.2211C129.809 99.0723 129.825 98.8466 129.974 98.7173L129.974 98.7173C130.123 98.5879 130.349 98.6038 130.478 98.7527Z" fill="#F4D8A0" stroke="#F4D8A0"/>
<path d="M46.81 89.7104L46.7661 89.7865L69.9985 134.059" fill="#F4D8A0"/>
<path d="M46.81 89.7104L46.7661 89.7865L69.9985 134.059" stroke="#F4D8A0" stroke-miterlimit="10"/>
<path d="M46.989 89.4011C46.8182 89.3025 46.5997 89.3611 46.5011 89.5318C46.4025 89.7026 46.461 89.9212 46.6318 90.0198L46.989 89.4011ZM46.989 89.4011C47.1598 89.4997 47.2184 89.7183 47.1197 89.8891M46.989 89.4011L47.1197 89.8891M47.1197 89.8891C47.0211 90.0598 46.8026 90.1184 46.6318 90.0198L47.1197 89.8891Z" fill="#F4D8A0" stroke="#F4D8A0"/>
<path d="M15.8238 52.6611L15.791 52.6043" stroke="#F4D8A0" stroke-miterlimit="10"/>
<path d="M15.5143 52.8396L15.5143 52.8396C15.6129 53.0104 15.8314 53.0689 16.0022 52.9703L15.5143 52.8396ZM15.5143 52.8396C15.4157 52.6688 15.4742 52.4503 15.645 52.3517C15.8158 52.2531 16.0343 52.3116 16.1329 52.4824C16.2315 52.6532 16.173 52.8717 16.0022 52.9703L15.5143 52.8396Z" fill="#F4D8A0" stroke="#F4D8A0"/>
<path d="M46.6124 89.7108L15.8242 52.6614" stroke="#F4D8A0" stroke-miterlimit="10"/>
<path d="M46.8872 89.4821L46.8872 89.4821C47.0133 89.6337 46.9925 89.859 46.8409 89.9851C46.6893 90.1112 46.464 90.0904 46.3379 89.9388L46.3379 89.9388C46.2118 89.7872 46.2325 89.5619 46.3842 89.4358C46.5358 89.3097 46.7611 89.3305 46.8872 89.4821Z" fill="#F4D8A0" stroke="#F4D8A0"/>
<path d="M25.3999 116.571L46.6565 89.7869L46.6126 89.7109" fill="#F4D8A0"/>
<path d="M25.3999 116.571L46.6565 89.7869L46.6126 89.7109" stroke="#F4D8A0" stroke-miterlimit="10"/>
<path d="M25.6817 116.352C25.8026 116.508 25.7742 116.732 25.6183 116.853C25.4624 116.974 25.238 116.946 25.1171 116.79C24.9963 116.634 25.0247 116.409 25.1806 116.289C25.3365 116.168 25.5608 116.196 25.6817 116.352Z" fill="#F4D8A0" stroke="#F4D8A0"/>
<path d="M25.399 116.571L25.3662 116.628" stroke="#F4D8A0" stroke-miterlimit="10"/>
<path d="M25.5779 116.261L25.5779 116.261C25.4072 116.163 25.1886 116.221 25.09 116.392L25.5779 116.261ZM25.5779 116.261C25.7487 116.36 25.8072 116.579 25.7086 116.749L25.5779 116.261ZM25.2207 116.88L25.2207 116.88C25.3914 116.979 25.61 116.92 25.7086 116.749L25.2207 116.88ZM25.2207 116.88C25.0499 116.781 24.9914 116.563 25.09 116.392L25.2207 116.88Z" fill="#F4D8A0" stroke="#F4D8A0"/>
<path d="M142.652 5.3656L112.624 42.7191" stroke="#F4D8A0" stroke-miterlimit="10"/>
<path d="M141.165 55.7976L141.132 55.7408" stroke="#F4D8A0" stroke-miterlimit="10"/>
<path d="M141.474 55.619L141.474 55.619C141.375 55.4482 141.157 55.3897 140.986 55.4883L140.986 55.4883C140.815 55.5869 140.757 55.8054 140.855 55.9762L140.855 55.9762C140.954 56.147 141.172 56.2055 141.343 56.1069L141.474 55.619ZM141.474 55.619C141.572 55.7898 141.514 56.0083 141.343 56.1069L141.474 55.619Z" fill="#F4D8A0" stroke="#F4D8A0"/>
<path d="M112.622 42.7192L112.579 42.7953L141.131 55.7408" fill="#F4D8A0"/>
<path d="M112.622 42.7192L112.579 42.7953L141.131 55.7408" stroke="#F4D8A0" stroke-miterlimit="10"/>
<path d="M112.802 42.41L112.802 42.41C112.631 42.3114 112.412 42.37 112.314 42.5407L112.802 42.41ZM112.802 42.41C112.972 42.5086 113.031 42.7272 112.932 42.898L112.802 42.41ZM112.932 42.898C112.834 43.0687 112.615 43.1273 112.444 43.0287L112.932 42.898ZM112.444 43.0287C112.274 42.9301 112.215 42.7115 112.314 42.5408L112.444 43.0287Z" fill="#F4D8A0" stroke="#F4D8A0"/>
<path d="M56.7761 -5.2796L46.9629 40.7422" stroke="#F4D8A0" stroke-miterlimit="10"/>
<path d="M89.9634 52.6041L89.9961 52.5473" stroke="#F4D8A0" stroke-miterlimit="10"/>
<path d="M90.2726 52.7827L90.2726 52.7827C90.3712 52.612 90.3126 52.3934 90.1419 52.2948L90.1418 52.2948C89.9711 52.1962 89.7525 52.2547 89.654 52.4255L89.6539 52.4255C89.5553 52.5963 89.6139 52.8148 89.7846 52.9134L90.2726 52.7827ZM90.2726 52.7827C90.174 52.9535 89.9554 53.0121 89.7847 52.9135L90.2726 52.7827Z" fill="#F4D8A0" stroke="#F4D8A0"/>
<path d="M46.9628 40.7425L46.9189 40.8185L66.3516 54.6765" fill="#F4D8A0"/>
<path d="M46.9628 40.7425L46.9189 40.8185L66.3516 54.6765" stroke="#F4D8A0" stroke-miterlimit="10"/>
<path d="M47.1414 40.4331C46.9706 40.3345 46.752 40.3931 46.6534 40.5638C46.5548 40.7346 46.6134 40.9531 46.7842 41.0518L47.1414 40.4331ZM47.1414 40.4331C47.3121 40.5317 47.3707 40.7503 47.2721 40.921M47.1414 40.4331L47.2721 40.921M47.2721 40.921C47.1735 41.0918 46.9549 41.1504 46.7842 41.0518L47.2721 40.921Z" fill="#F4D8A0" stroke="#F4D8A0"/>
<path d="M112.425 42.7194L112.469 42.7954L89.9966 52.5474" fill="#F4D8A0"/>
<path d="M112.425 42.7194L112.469 42.7954L89.9966 52.5474" stroke="#F4D8A0" stroke-miterlimit="10"/>
<path d="M112.246 42.41L112.246 42.41C112.075 42.5086 112.017 42.7272 112.115 42.898L112.246 42.41ZM112.246 42.41C112.417 42.3114 112.635 42.37 112.734 42.5407L112.246 42.41ZM112.734 42.5408C112.833 42.7115 112.774 42.9301 112.603 43.0287L112.734 42.5408ZM112.603 43.0287C112.433 43.1273 112.214 43.0687 112.115 42.898L112.603 43.0287Z" fill="#F4D8A0" stroke="#F4D8A0"/>
<path d="M66.3838 54.7332L66.3511 54.6764" stroke="#F4D8A0" stroke-miterlimit="10"/>
<path d="M66.693 54.5546L66.693 54.5545C66.5944 54.3838 66.3758 54.3252 66.2051 54.4238L66.2051 54.4238C66.0343 54.5224 65.9757 54.741 66.0743 54.9117L66.0743 54.9118C66.173 55.0825 66.3915 55.1411 66.5623 55.0425L66.693 54.5546ZM66.693 54.5546C66.7916 54.7253 66.7331 54.9439 66.5623 55.0425L66.693 54.5546Z" fill="#F4D8A0" stroke="#F4D8A0"/>
<path d="M112.425 42.7198L83.1567 -2.54175" stroke="#F4D8A0" stroke-miterlimit="10"/>
<path d="M112.725 42.5253L112.725 42.5253C112.618 42.3597 112.397 42.3123 112.231 42.4194L112.231 42.4194C112.066 42.5266 112.018 42.7478 112.125 42.9133L112.125 42.9133C112.232 43.0789 112.454 43.1263 112.619 43.0192L112.725 42.5253ZM112.725 42.5253C112.832 42.6909 112.785 42.9121 112.619 43.0192L112.725 42.5253ZM113.145 42.2538L113.145 42.2538L113.145 42.2538ZM111.96 42.0003L111.96 42L111.96 42.0003Z" fill="#F4D8A0" stroke="#F4D8A0"/>
<path d="M15.7915 52.6041L15.8243 52.5473" stroke="#F4D8A0" stroke-miterlimit="10"/>
<path d="M16.1007 52.7827L16.1007 52.7827C16.1993 52.612 16.1408 52.3934 15.97 52.2948C15.7992 52.1962 15.5807 52.2547 15.4821 52.4255C15.3835 52.5963 15.442 52.8148 15.6128 52.9135L16.1007 52.7827ZM16.1007 52.7827C16.0021 52.9535 15.7836 53.0121 15.6128 52.9135L16.1007 52.7827Z" fill="#F4D8A0" stroke="#F4D8A0"/>
<path d="M46.7644 40.7427L15.8242 -5.27905" stroke="#F4D8A0" stroke-miterlimit="10"/>
<path d="M47.0613 40.5429C47.1714 40.7065 47.1279 40.9285 46.9643 41.0386L46.9643 41.0386C46.8007 41.1487 46.5786 41.1052 46.4686 40.9416C46.3585 40.778 46.402 40.5559 46.5656 40.4459C46.7292 40.3358 46.9513 40.3793 47.0613 40.5429Z" fill="#F4D8A0" stroke="#F4D8A0"/>
<path d="M46.7644 40.7425L46.8083 40.8185L15.8242 52.5475" fill="#F4D8A0"/>
<path d="M46.7644 40.7425L46.8083 40.8185L15.8242 52.5475" stroke="#F4D8A0" stroke-miterlimit="10"/>
<path d="M46.4552 40.9211C46.3566 40.7503 46.4152 40.5317 46.5859 40.4331M46.4552 40.9211L46.5859 40.4331M46.4552 40.9211C46.5538 41.0918 46.7723 41.1504 46.9431 41.0518L46.4552 40.9211ZM46.5859 40.4331C46.7567 40.3345 46.9752 40.3931 47.0738 40.5639C47.1725 40.7346 47.1139 40.9532 46.9431 41.0518L46.5859 40.4331Z" fill="#F4D8A0" stroke="#F4D8A0"/>
<path d="M69.9658 134.116L69.9987 134.173" stroke="#F4D8A0" stroke-miterlimit="10"/>
<path d="M70.2752 133.937L70.2752 133.937C70.1764 133.766 69.9577 133.708 69.7871 133.807L70.2752 133.937ZM70.2752 133.937C70.3741 134.108 70.3159 134.326 70.1453 134.425C69.9746 134.524 69.756 134.466 69.6571 134.295C69.5583 134.125 69.6165 133.906 69.7871 133.807L70.2752 133.937Z" fill="#F4D8A0" stroke="#F4D8A0"/>
<path d="M74.7099 149.476L69.999 134.173" stroke="#F4D8A0" stroke-miterlimit="10"/>
<path d="M159.522 83.78L141.131 55.855" stroke="#F4D8A0" stroke-miterlimit="10"/>
<path d="M141.132 55.8543L141.099 55.7976" stroke="#F4D8A0" stroke-miterlimit="10"/>
<path d="M141.441 55.6753L141.441 55.6753C141.54 55.8459 141.481 56.0646 141.311 56.1634C141.14 56.2623 140.922 56.2041 140.823 56.0334L140.823 56.0334C140.724 55.8628 140.782 55.6442 140.953 55.5453L140.953 55.5453C141.123 55.4465 141.342 55.5047 141.441 55.6753Z" fill="#F4D8A0" stroke="#F4D8A0"/>
<path d="M88.7373 99.0628L93.1882 112.769" stroke="#F4D8A0" stroke-miterlimit="10"/>
<path d="M88.6269 98.7233L88.6269 98.7233C88.4394 98.7842 88.3366 98.9858 88.3976 99.1733C88.4585 99.3609 88.6601 99.4636 88.8476 99.4027L88.8477 99.4027C89.0352 99.3417 89.1379 99.1402 89.077 98.9526L88.6269 98.7233ZM88.6269 98.7233C88.8145 98.6623 89.016 98.765 89.077 98.9526L88.6269 98.7233Z" fill="#F4D8A0" stroke="#F4D8A0"/>
<path d="M88.6929 98.9872L88.7369 99.0632" stroke="#F4D8A0" stroke-miterlimit="10"/>
<path d="M88.5141 98.678L88.5141 98.678C88.3435 98.7769 88.2853 98.9955 88.3842 99.1662L88.5141 98.678ZM88.5141 98.678C88.6847 98.5792 88.9034 98.6373 89.0023 98.8079L88.5141 98.678ZM89.0023 98.808C89.1011 98.9786 89.043 99.1972 88.8724 99.2961L89.0023 98.808ZM88.8723 99.2961C88.7017 99.395 88.4831 99.3368 88.3842 99.1662L88.8723 99.2961Z" fill="#F4D8A0" stroke="#F4D8A0"/>
<path d="M66.3517 54.7899L66.3188 54.7332" stroke="#F4D8A0" stroke-miterlimit="10"/>
<path d="M66.6605 54.6108L66.6605 54.6109C66.7594 54.7815 66.7011 55.0001 66.5305 55.099C66.3599 55.1978 66.1412 55.1396 66.0424 54.969L66.0424 54.969C65.9435 54.7983 66.0017 54.5797 66.1724 54.4809L66.1724 54.4809C66.343 54.382 66.5616 54.4402 66.6605 54.6108Z" fill="#F4D8A0" stroke="#F4D8A0"/>
<path d="M88.6931 98.9875L66.3511 54.7906" stroke="#F4D8A0" stroke-miterlimit="10"/>
<path d="M88.854 99.3057L88.854 99.3057C89.03 99.2167 89.1005 99.0018 89.0115 98.8258L88.854 99.3057ZM88.854 99.3057C88.678 99.3947 88.4631 99.3242 88.3741 99.1482L88.854 99.3057ZM88.5316 98.6683L88.5316 98.6683C88.3556 98.7572 88.2851 98.9722 88.3741 99.1482L88.5316 98.6683ZM88.5316 98.6683C88.7075 98.5792 88.9225 98.6498 89.0115 98.8258L88.5316 98.6683Z" fill="#F4D8A0" stroke="#F4D8A0"/>
<path d="M93.188 112.769L93.2209 112.826" stroke="#F4D8A0" stroke-miterlimit="10"/>
<path d="M93.4974 112.59L93.4974 112.59C93.3985 112.419 93.1799 112.361 93.0093 112.46L93.4974 112.59ZM93.4974 112.59C93.5963 112.76 93.5381 112.979 93.3674 113.078C93.1968 113.177 92.9782 113.118 92.8793 112.948C92.7804 112.777 92.8386 112.559 93.0093 112.46L93.4974 112.59Z" fill="#F4D8A0" stroke="#F4D8A0"/>
<path d="M25.3989 116.571L25.4318 116.628" stroke="#F4D8A0" stroke-miterlimit="10"/>
<path d="M25.2202 116.262L25.2202 116.262C25.0496 116.361 24.9914 116.579 25.0902 116.75C25.1891 116.92 25.4077 116.979 25.5784 116.88L25.5784 116.88C25.749 116.781 25.8072 116.562 25.7084 116.392L25.2202 116.262ZM25.2202 116.262C25.3908 116.163 25.6095 116.221 25.7083 116.392L25.2202 116.262Z" fill="#F4D8A0" stroke="#F4D8A0"/>
<path d="M25.3996 116.571L8.0293 104.69" stroke="#F4D8A0" stroke-miterlimit="10"/>
<path d="M25.6941 116.773L25.6941 116.773C25.8054 116.61 25.7636 116.388 25.6008 116.276L25.6941 116.773ZM25.6941 116.773C25.5828 116.935 25.3604 116.977 25.1977 116.866M25.6941 116.773L25.1977 116.866M25.1977 116.866C25.0349 116.755 24.9931 116.532 25.1044 116.37L25.1977 116.866ZM25.1044 116.37C25.2157 116.207 25.438 116.165 25.6008 116.276L25.1044 116.37Z" fill="#F4D8A0" stroke="#F4D8A0"/>
<path d="M89.9964 52.5479L70.8022 25.0031" stroke="#F4D8A0" stroke-miterlimit="10"/>
<path d="M90.2007 52.8404L90.2007 52.8404C90.3624 52.7276 90.4022 52.5049 90.2894 52.3431L90.2007 52.8404ZM90.2007 52.8404C90.0389 52.9532 89.8162 52.9135 89.7034 52.7517L89.7034 52.7517M90.2007 52.8404L89.7034 52.7517M89.7034 52.7517C89.5906 52.5899 89.6303 52.3672 89.7921 52.2544L89.7034 52.7517ZM89.7921 52.2544C89.9539 52.1416 90.1766 52.1814 90.2894 52.3431L89.7921 52.2544Z" fill="#F4D8A0" stroke="#F4D8A0"/>
<path d="M70.7583 24.9265L70.8023 25.0024" stroke="#F4D8A0" stroke-miterlimit="10"/>
<path d="M70.5791 24.6174L70.5791 24.6174C70.4085 24.7162 70.3503 24.9349 70.4491 25.1055L70.5791 24.6174ZM70.5791 24.6174C70.7497 24.5185 70.9683 24.5766 71.0672 24.7473L70.5791 24.6174ZM71.0672 24.7473C71.1661 24.9179 71.1079 25.1365 70.9373 25.2354L71.0672 24.7473ZM70.9373 25.2354C70.7667 25.3343 70.548 25.2761 70.4491 25.1055L70.9373 25.2354Z" fill="#F4D8A0" stroke="#F4D8A0"/>
<path d="M70.7578 24.927L56.7754 -5.27905" stroke="#F4D8A0" stroke-miterlimit="10"/>
<path d="M70.4337 25.0764L70.4336 25.0764C70.3508 24.8975 70.4287 24.6851 70.6076 24.6022L70.6077 24.6022C70.7866 24.5194 70.999 24.5973 71.0819 24.7762C71.1648 24.9552 71.0868 25.1676 70.9079 25.2505C70.7289 25.3333 70.5165 25.2554 70.4337 25.0764Z" fill="#F4D8A0" stroke="#F4D8A0"/>
<path d="M90.029 52.6041L89.9961 52.5473" stroke="#F4D8A0" stroke-miterlimit="10"/>
<path d="M90.3382 52.4251L90.3382 52.4251C90.4371 52.5957 90.3789 52.8143 90.2082 52.9132C90.0376 53.012 89.819 52.9538 89.7201 52.7832L89.7201 52.7832C89.6213 52.6126 89.6795 52.3939 89.8501 52.2951L89.8501 52.2951C90.0207 52.1962 90.2394 52.2544 90.3382 52.4251Z" fill="#F4D8A0" stroke="#F4D8A0"/>
<path d="M15.8566 52.6041L15.8237 52.5473" stroke="#F4D8A0" stroke-miterlimit="10"/>
<path d="M16.2136 52.5874C16.2227 52.7845 16.0703 52.9516 15.8732 52.9607C15.6762 52.9698 15.5091 52.8175 15.5 52.6204C15.4909 52.4233 15.6432 52.2562 15.8403 52.2471C16.0373 52.238 16.2045 52.3904 16.2136 52.5874Z" fill="#F4D8A0" stroke="#F4D8A0"/>
<path d="M15.8237 52.5477L4.07715 26.0675" stroke="#F4D8A0" stroke-miterlimit="10"/>
<path d="M16.1497 52.4023L16.1497 52.4023C16.2297 52.5825 16.1483 52.7937 15.9681 52.8737C15.7879 52.9537 15.5767 52.8723 15.4967 52.6921L15.4967 52.6921C15.4167 52.5119 15.498 52.3007 15.6783 52.2207L15.6783 52.2207C15.8585 52.1407 16.0697 52.2221 16.1497 52.4023Z" fill="#F4D8A0" stroke="#F4D8A0"/>
<path d="M93.2214 112.826L93.1885 112.883" stroke="#F4D8A0" stroke-miterlimit="10"/>
<path d="M92.912 112.647L92.912 112.647C92.8132 112.817 92.8714 113.036 93.042 113.135C93.2126 113.234 93.4313 113.176 93.5301 113.005C93.629 112.834 93.5708 112.616 93.4002 112.517L92.912 112.647ZM92.912 112.647C93.0109 112.476 93.2295 112.418 93.4002 112.517L92.912 112.647Z" fill="#F4D8A0" stroke="#F4D8A0"/>
<path d="M93.188 112.882L74.7979 149.475" stroke="#F4D8A0" stroke-miterlimit="10"/>
<path d="M93.0279 113.201L93.028 113.201C93.2041 113.29 93.4189 113.219 93.5075 113.043L93.0279 113.201ZM93.0279 113.201C92.8518 113.113 92.7807 112.898 92.8693 112.722L93.0279 113.201ZM93.3489 112.563C93.1727 112.475 92.9579 112.546 92.8693 112.722L93.3489 112.563ZM93.3489 112.563C93.525 112.652 93.5961 112.867 93.5075 113.043L93.3489 112.563Z" fill="#F4D8A0" stroke="#F4D8A0"/>
<path d="M25.4328 116.628L25.3999 116.684" stroke="#F4D8A0" stroke-miterlimit="10"/>
<path d="M25.6115 116.319L25.6115 116.319C25.441 116.22 25.2225 116.278 25.1235 116.449L25.6115 116.319ZM25.6115 116.319C25.7821 116.418 25.8406 116.637 25.7415 116.808C25.6425 116.979 25.424 117.037 25.2535 116.938L25.2535 116.938M25.6115 116.319L25.2535 116.938M25.2535 116.938C25.0829 116.839 25.0245 116.62 25.1235 116.449L25.2535 116.938Z" fill="#F4D8A0" stroke="#F4D8A0"/>
<path d="M25.3991 116.685L4.12109 147.195" stroke="#F4D8A0" stroke-miterlimit="10"/>
<path d="M25.6036 116.392C25.4419 116.279 25.2192 116.318 25.1063 116.48L25.6036 116.392ZM25.6036 116.392C25.7653 116.504 25.805 116.727 25.6921 116.889L25.6036 116.392ZM25.6921 116.889C25.5793 117.051 25.3565 117.09 25.1948 116.977L24.9087 117.388L25.1948 116.977C25.0331 116.865 24.9935 116.642 25.1063 116.48L25.6921 116.889Z" fill="#F4D8A0" stroke="#F4D8A0"/>
<path d="M90.029 52.6043L89.9961 52.6611" stroke="#F4D8A0" stroke-miterlimit="10"/>
<path d="M89.7201 52.4251L89.7201 52.4251C89.819 52.2544 90.0376 52.1962 90.2082 52.2951C90.3789 52.3939 90.4371 52.6125 90.3382 52.7832L90.3382 52.7832C90.2394 52.9538 90.0207 53.012 89.8501 52.9132L89.8501 52.9132C89.6795 52.8143 89.6213 52.5957 89.7201 52.4251ZM89.5998 53.3452L89.5995 53.3458L89.5998 53.3452Z" fill="#F4D8A0" stroke="#F4D8A0"/>
<path d="M88.7372 99.0628L69.999 134.059" stroke="#F4D8A0" stroke-miterlimit="10"/>
<path d="M88.4224 98.8942L88.4224 98.8942C88.3291 99.0685 88.3948 99.2854 88.5686 99.3786L88.4224 98.8942ZM88.4224 98.8942C88.5156 98.7201 88.7321 98.6548 88.9058 98.7479L88.4224 98.8942ZM89.052 99.2323L89.052 99.2323C89.1453 99.058 89.0796 98.8411 88.9058 98.7479L89.052 99.2323ZM89.052 99.2323C88.9588 99.4064 88.7423 99.4717 88.5687 99.3786L89.052 99.2323Z" fill="#F4D8A0" stroke="#F4D8A0"/>
<path d="M88.7808 98.9875L89.9958 52.6616" stroke="#F4D8A0" stroke-miterlimit="10"/>
<path d="M89.1381 98.9964C89.1329 99.1936 88.9688 99.3493 88.7717 99.3441L88.7904 98.63C88.9875 98.6352 89.1432 98.7993 89.1381 98.9964ZM88.7716 99.3441C88.5745 99.339 88.4188 99.1748 88.424 98.9777C88.4291 98.7806 88.5932 98.6249 88.7904 98.63L88.7716 99.3441Z" fill="#F4D8A0" stroke="#F4D8A0"/>
<path d="M69.9658 134.116L69.9987 134.059" stroke="#F4D8A0" stroke-miterlimit="10"/>
<path d="M70.2752 134.295L70.2752 134.295C70.3741 134.125 70.3159 133.906 70.1453 133.807C69.9746 133.708 69.756 133.766 69.6571 133.937C69.5583 134.108 69.6165 134.326 69.7871 134.425L70.2752 134.295ZM70.2752 134.295C70.1764 134.466 69.9577 134.524 69.7871 134.425L70.2752 134.295Z" fill="#F4D8A0" stroke="#F4D8A0"/>
<path d="M88.7809 98.9872L88.7368 99.0632" stroke="#F4D8A0" stroke-miterlimit="10"/>
<path d="M88.9602 98.678L88.9602 98.678C88.7896 98.5792 88.571 98.6373 88.4721 98.8079L88.9602 98.678ZM88.9602 98.678C89.1309 98.7769 89.189 98.9955 89.0902 99.1662L88.9602 98.678ZM89.0902 99.1662C88.9913 99.3368 88.7726 99.395 88.602 99.2961L89.0902 99.1662ZM88.602 99.2961C88.4314 99.1972 88.3732 98.9786 88.4721 98.808L88.602 99.2961Z" fill="#F4D8A0" stroke="#F4D8A0"/>
<path d="M15.8566 52.6043L15.8237 52.6611" stroke="#F4D8A0" stroke-miterlimit="10"/>
<path d="M16.0359 52.2951L16.0359 52.2951C15.8652 52.1962 15.6466 52.2544 15.5477 52.4251C15.4489 52.5957 15.5071 52.8143 15.6777 52.9132L16.0359 52.2951ZM16.0359 52.2951C16.2065 52.3939 16.2647 52.6125 16.1659 52.7832L16.0359 52.2951ZM16.1659 52.7832C16.067 52.9538 15.8484 53.012 15.6778 52.9132L16.1659 52.7832Z" fill="#F4D8A0" stroke="#F4D8A0"/>
<path d="M7.76407 104.435L7.76408 104.435C7.86295 104.264 8.08158 104.206 8.2522 104.305L8.2522 104.305C8.42283 104.403 8.48104 104.622 8.38216 104.793L8.38215 104.793C8.2833 104.963 8.06467 105.022 7.89404 104.923L7.89404 104.923C7.7234 104.824 7.66521 104.605 7.76407 104.435Z" fill="#F4D8A0" stroke="#F4D8A0"/>
<path d="M8.07227 104.614L15.823 52.6616" stroke="#F4D8A0" stroke-miterlimit="10"/>
<path d="M141.098 55.7976L141.131 55.7408" stroke="#F4D8A0" stroke-miterlimit="10"/>
<path d="M141.408 55.9767L141.408 55.9767C141.309 56.1473 141.09 56.2055 140.919 56.1067C140.749 56.0078 140.691 55.7892 140.789 55.6185L140.789 55.6185C140.888 55.4479 141.107 55.3897 141.278 55.4885L141.278 55.4885C141.448 55.5874 141.506 55.806 141.408 55.9767Z" fill="#F4D8A0" stroke="#F4D8A0"/>
<path d="M141.132 55.7412L143.759 26.0675" stroke="#F4D8A0" stroke-miterlimit="10"/>
<path d="M141.101 56.0967L141.101 56.0967C140.904 56.0793 140.759 55.9058 140.776 55.7094C140.794 55.513 140.967 55.3677 141.164 55.3851L141.164 55.3851C141.36 55.4025 141.505 55.576 141.488 55.7724C141.471 55.9688 141.297 56.1141 141.101 56.0967Z" fill="#F4D8A0" stroke="#F4D8A0"/>
<path d="M66.3511 54.6769L70.802 25.0031" stroke="#F4D8A0" stroke-miterlimit="10"/>
<path d="M66.7047 54.7294L66.7047 54.7294C66.7339 54.5344 66.5995 54.3524 66.4045 54.3232L66.7047 54.7294ZM66.7047 54.7294C66.6754 54.9244 66.4935 55.0589 66.2984 55.0296L66.7047 54.7294ZM65.9982 54.6234L65.9982 54.6234C65.9689 54.8184 66.1034 55.0003 66.2984 55.0296L65.9982 54.6234ZM65.9982 54.6234C66.0275 54.4284 66.2094 54.2939 66.4044 54.3232L65.9982 54.6234Z" fill="#F4D8A0" stroke="#F4D8A0"/>
<path d="M70.8022 25.0027L70.8463 24.9267" stroke="#F4D8A0" stroke-miterlimit="10"/>
<path d="M70.623 25.3117L70.623 25.3117C70.7936 25.4106 71.0122 25.3524 71.1112 25.1818L70.623 25.3117ZM70.623 25.3117C70.4524 25.2128 70.3942 24.9942 70.4931 24.8236L70.623 25.3117ZM70.3731 25.743L70.3729 25.7433L70.3731 25.743ZM70.4931 24.8236C70.592 24.653 70.8106 24.5948 70.9812 24.6937L70.4931 24.8236ZM70.9812 24.6937C71.1518 24.7925 71.21 25.0112 71.1112 25.1818L70.9812 24.6937Z" fill="#F4D8A0" stroke="#F4D8A0"/>
<path d="M83.1562 -2.54211L70.8457 24.9265" stroke="#F4D8A0" stroke-miterlimit="10"/>
<path d="M66.3179 54.7332L66.3507 54.6764" stroke="#F4D8A0" stroke-miterlimit="10"/>
<path d="M66.6273 54.9122L66.6273 54.9122C66.5284 55.0828 66.3098 55.1411 66.1392 55.0422C65.9685 54.9434 65.9103 54.7247 66.0092 54.5541L66.0092 54.5541C66.108 54.3835 66.3267 54.3252 66.4973 54.4241L66.4973 54.4241C66.6679 54.523 66.7261 54.7416 66.6273 54.9122Z" fill="#F4D8A0" stroke="#F4D8A0"/>
<path d="M15.8236 -5.27966L4.12109 25.991" stroke="#F4D8A0" stroke-miterlimit="10"/>
<path d="M159.522 83.7795L130.406 98.987" stroke="#F4D8A0" stroke-miterlimit="10"/>
<path d="M130.307 98.9872H130.406" stroke="#F4D8A0" stroke-miterlimit="10"/>
<path d="M130.664 98.9871C130.664 99.1843 130.504 99.3443 130.307 99.3443C130.11 99.3443 129.95 99.1843 129.95 98.9871C129.95 98.7898 130.11 98.6299 130.307 98.6299C130.504 98.6299 130.664 98.7898 130.664 98.9871Z" fill="#F4D8A0" stroke="#F4D8A0"/>
<path d="M88.6933 98.9873L46.8105 89.7109" stroke="#F4D8A0" stroke-miterlimit="10"/>
<path d="M89.0416 99.0641C89.0842 98.8715 88.9625 98.6808 88.77 98.6381C88.5775 98.5955 88.3867 98.7171 88.3441 98.9097L89.0416 99.0641ZM89.0416 99.0641C88.9989 99.2566 88.8082 99.3782 88.6156 99.3356L89.0416 99.0641ZM88.6156 99.3356C88.4231 99.293 88.3015 99.1022 88.3441 98.9097L88.6156 99.3356Z" fill="#F4D8A0" stroke="#F4D8A0"/>
<path d="M88.7805 98.9872H88.6924" stroke="#F4D8A0" stroke-miterlimit="10"/>
<path d="M89.1382 98.9871C89.1382 99.1843 88.9783 99.3443 88.781 99.3443C88.5837 99.3443 88.4238 99.1843 88.4238 98.9871C88.4238 98.7898 88.5837 98.6299 88.781 98.6299C88.9783 98.6299 89.1382 98.7898 89.1382 98.9871Z" fill="#F4D8A0" stroke="#F4D8A0"/>
<path d="M130.208 98.9871H88.7812" stroke="#F4D8A0" stroke-miterlimit="10"/>
<path d="M130.565 98.9869C130.565 99.1842 130.406 99.3441 130.208 99.3441C130.011 99.3441 129.851 99.1842 129.851 98.9869C129.851 98.7897 130.011 98.6298 130.208 98.6298C130.406 98.6298 130.565 98.7897 130.565 98.9869Z" fill="#F4D8A0" stroke="#F4D8A0"/>
<path d="M46.7109 89.7101H46.8101" stroke="#F4D8A0" stroke-miterlimit="10"/>
<path d="M46.7112 90.0675C46.514 90.0675 46.354 89.9075 46.354 89.7103C46.354 89.5131 46.514 89.3531 46.7112 89.3531C46.9084 89.3531 47.0684 89.5131 47.0684 89.7103C47.0684 89.9075 46.9084 90.0675 46.7112 90.0675Z" fill="#F4D8A0" stroke="#F4D8A0"/>
<path d="M130.208 98.9872H130.307" stroke="#F4D8A0" stroke-miterlimit="10"/>
<path d="M130.565 98.9871C130.565 99.1843 130.405 99.3443 130.208 99.3443C130.011 99.3443 129.851 99.1843 129.851 98.9871C129.851 98.7898 130.011 98.6299 130.208 98.6299C130.405 98.6299 130.565 98.7898 130.565 98.9871Z" fill="#F4D8A0" stroke="#F4D8A0"/>
<path d="M46.6123 89.7101H46.7115" stroke="#F4D8A0" stroke-miterlimit="10"/>
<path d="M46.6126 90.0675C46.4154 90.0675 46.2554 89.9075 46.2554 89.7103C46.2554 89.5131 46.4154 89.3531 46.6126 89.3531C46.8098 89.3531 46.9697 89.5131 46.9697 89.7103C46.9697 89.9075 46.8098 90.0675 46.6126 90.0675Z" fill="#F4D8A0" stroke="#F4D8A0"/>
<path d="M46.6117 89.7106L8.07275 104.614" stroke="#F4D8A0" stroke-miterlimit="10"/>
<path d="M46.9454 89.582L46.9454 89.582C46.8742 89.3977 46.6673 89.3063 46.4836 89.3774M46.9454 89.582L46.4836 89.3774M46.9454 89.582C47.0166 89.7665 46.9248 89.9736 46.7409 90.0447M46.9454 89.582L46.7409 90.0447M46.4836 89.3774L46.3032 88.911L46.2791 89.8401C46.2079 89.6556 46.2998 89.4485 46.4836 89.3774ZM46.7409 90.0447C46.5573 90.1158 46.3503 90.0244 46.2792 89.8401L46.7409 90.0447Z" fill="#F4D8A0" stroke="#F4D8A0"/>
<path d="M112.524 42.7192H112.623" stroke="#F4D8A0" stroke-miterlimit="10"/>
<path d="M112.881 42.7192C112.881 42.9165 112.721 43.0764 112.524 43.0764C112.327 43.0764 112.167 42.9165 112.167 42.7192C112.167 42.522 112.327 42.3621 112.524 42.3621C112.721 42.3621 112.881 42.522 112.881 42.7192Z" fill="#F4D8A0" stroke="#F4D8A0"/>
<path d="M112.623 42.7198L143.714 25.9916" stroke="#F4D8A0" stroke-miterlimit="10"/>
<path d="M112.308 42.8887L112.308 42.8887C112.402 43.0624 112.618 43.1275 112.792 43.0341C112.966 42.9407 113.031 42.724 112.938 42.5503L112.308 42.8887ZM112.308 42.8887C112.215 42.715 112.28 42.4983 112.454 42.4049L112.308 42.8887ZM112.454 42.4049C112.627 42.3115 112.844 42.3767 112.938 42.5503L112.454 42.4049Z" fill="#F4D8A0" stroke="#F4D8A0"/>
<path d="M112.524 42.7192H112.425" stroke="#F4D8A0" stroke-miterlimit="10"/>
<path d="M112.881 42.7192C112.881 42.9165 112.721 43.0764 112.524 43.0764C112.327 43.0764 112.167 42.9165 112.167 42.7192C112.167 42.522 112.327 42.3621 112.524 42.3621C112.721 42.3621 112.881 42.522 112.881 42.7192Z" fill="#F4D8A0" stroke="#F4D8A0"/>
<path d="M70.8464 24.9269H70.7583" stroke="#F4D8A0" stroke-miterlimit="10"/>
<path d="M71.2031 24.9266C71.2031 25.1239 71.0432 25.2838 70.846 25.2838C70.6487 25.2838 70.4888 25.1239 70.4888 24.9266C70.4888 24.7294 70.6487 24.5695 70.846 24.5695C71.0432 24.5695 71.2031 24.7294 71.2031 24.9266Z" fill="#F4D8A0" stroke="#F4D8A0"/>
<path d="M112.425 42.7198L70.8462 24.9271" stroke="#F4D8A0" stroke-miterlimit="10"/>
<path d="M112.753 42.8599L112.753 42.8599C112.831 42.6786 112.747 42.4686 112.565 42.391L112.753 42.8599ZM112.753 42.8599C112.676 43.0412 112.466 43.1254 112.284 43.0479L112.284 43.0479M112.753 42.8599L112.284 43.0479M112.284 43.0479C112.103 42.9703 112.019 42.7603 112.096 42.579L112.284 43.0479ZM112.096 42.579C112.174 42.3977 112.384 42.3135 112.565 42.391L112.096 42.579Z" fill="#F4D8A0" stroke="#F4D8A0"/>
<path d="M46.8628 40.7425H46.962" stroke="#F4D8A0" stroke-miterlimit="10"/>
<path d="M46.8631 41.0995C46.6658 41.0995 46.5059 40.9395 46.5059 40.7423C46.5059 40.5451 46.6658 40.3851 46.8631 40.3851C47.0602 40.3851 47.2202 40.5451 47.2202 40.7423C47.2202 40.9395 47.0602 41.0995 46.8631 41.0995Z" fill="#F4D8A0" stroke="#F4D8A0"/>
<path d="M46.9624 40.7428L70.758 24.9271" stroke="#F4D8A0" stroke-miterlimit="10"/>
<path d="M46.6652 40.9399C46.7743 41.1041 46.9961 41.1489 47.1604 41.0398L46.6652 40.9399ZM46.6652 40.9399C46.5561 40.7756 46.6008 40.5539 46.7651 40.4447L46.6652 40.9399ZM46.7651 40.4447C46.9293 40.3356 47.1511 40.3804 47.2602 40.5446C47.3693 40.7089 47.3246 40.9307 47.1604 41.0398L46.7651 40.4447Z" fill="#F4D8A0" stroke="#F4D8A0"/>
<path d="M46.7643 40.7428L4.12158 25.9916" stroke="#F4D8A0" stroke-miterlimit="10"/>
<path d="M46.6474 41.08L46.6474 41.08C46.8338 41.1444 47.0373 41.0455 47.1017 40.8591L46.6474 41.08ZM46.6474 41.08C46.4611 41.0156 46.3621 40.8121 46.4266 40.6257L46.4266 40.6257M46.6474 41.08L46.4266 40.6257M46.4266 40.6257C46.491 40.4393 46.6945 40.3404 46.8809 40.4048L46.4266 40.6257ZM46.8809 40.4048C47.0672 40.4693 47.1662 40.6727 47.1017 40.8591L46.8809 40.4048Z" fill="#F4D8A0" stroke="#F4D8A0"/>
<path d="M46.8633 40.7425H46.7642" stroke="#F4D8A0" stroke-miterlimit="10"/>
<path d="M46.863 40.3851C47.0602 40.3851 47.2202 40.5451 47.2202 40.7423C47.2202 40.9395 47.0602 41.0995 46.863 41.0995C46.6658 41.0995 46.5059 40.9395 46.5059 40.7423C46.5059 40.5451 46.6658 40.3851 46.863 40.3851Z" fill="#F4D8A0" stroke="#F4D8A0"/>
<path d="M126.811 123.471L109.484 147.651" stroke="#F4D8A0" stroke-miterlimit="10"/>
<path d="M126.603 123.761L126.603 123.761C126.763 123.876 126.987 123.839 127.102 123.679L126.603 123.761ZM126.603 123.761C126.443 123.646 126.406 123.423 126.521 123.263C126.636 123.103 126.859 123.066 127.019 123.181M126.603 123.761L127.019 123.181M127.019 123.181C127.18 123.296 127.217 123.519 127.102 123.679L127.019 123.181ZM126.313 124.167L126.312 124.167L126.313 124.167Z" fill="#F4D8A0" stroke="#F4D8A0"/>
<path d="M52.7909 126.665L34.5518 145.826" stroke="#F4D8A0" stroke-miterlimit="10"/>
<path d="M52.5321 126.418L52.5321 126.418C52.3961 126.561 52.4016 126.787 52.5444 126.923L52.5321 126.418ZM52.5321 126.418C52.6681 126.276 52.8943 126.27 53.0371 126.406L53.0371 126.406M52.5321 126.418L53.0371 126.406M53.0371 126.406C53.1799 126.542 53.1854 126.768 53.0494 126.911L53.0494 126.911M53.0371 126.406L53.0494 126.911M53.0494 126.911C52.9134 127.054 52.6872 127.059 52.5444 126.923L53.0494 126.911Z" fill="#F4D8A0" stroke="#F4D8A0"/>
<path d="M126.812 123.471L145.659 124.535" stroke="#F4D8A0" stroke-miterlimit="10"/>
<path d="M126.455 123.451C126.444 123.648 126.595 123.816 126.792 123.827L126.455 123.451ZM126.455 123.451C126.466 123.254 126.635 123.103 126.832 123.114L126.455 123.451ZM126.832 123.114C127.029 123.125 127.18 123.294 127.168 123.491C127.157 123.688 126.989 123.839 126.792 123.827L126.832 123.114Z" fill="#F4D8A0" stroke="#F4D8A0"/>
<path d="M69.9657 134.117L52.7905 126.665" stroke="#F4D8A0" stroke-miterlimit="10"/>
<path d="M69.6381 133.974L69.6381 133.974C69.5595 134.156 69.6429 134.367 69.8238 134.445L69.6381 133.974ZM69.6381 133.974C69.7167 133.793 69.9271 133.71 70.1078 133.789L69.6381 133.974ZM70.1078 133.789C70.2886 133.867 70.372 134.078 70.2934 134.259L70.1078 133.789ZM70.2934 134.259C70.2149 134.441 70.0045 134.523 69.8238 134.445L70.2934 134.259Z" fill="#F4D8A0" stroke="#F4D8A0"/>
<path d="M93.1553 112.826H93.2209" stroke="#F4D8A0" stroke-miterlimit="10"/>
<path d="M93.5127 112.826C93.5127 113.023 93.3528 113.183 93.1555 113.183C92.9583 113.183 92.7983 113.023 92.7983 112.826C92.7983 112.629 92.9583 112.469 93.1555 112.469C93.3528 112.469 93.5127 112.629 93.5127 112.826Z" fill="#F4D8A0" stroke="#F4D8A0"/>
<path d="M69.9658 134.116H70.0315" stroke="#F4D8A0" stroke-miterlimit="10"/>
<path d="M70.3233 134.116C70.3233 134.313 70.1633 134.473 69.9661 134.473C69.7688 134.473 69.6089 134.313 69.6089 134.116C69.6089 133.919 69.7688 133.759 69.9661 133.759C70.1633 133.759 70.3233 133.919 70.3233 134.116Z" fill="#F4D8A0" stroke="#F4D8A0"/>
<path d="M126.811 123.471L93.2207 112.826" stroke="#F4D8A0" stroke-miterlimit="10"/>
<path d="M126.471 123.363L126.471 123.363C126.411 123.551 126.515 123.752 126.703 123.811L126.471 123.363ZM126.471 123.363C126.53 123.175 126.731 123.071 126.919 123.13L126.471 123.363ZM126.919 123.13C127.107 123.19 127.211 123.391 127.152 123.579L126.919 123.13ZM127.152 123.579C127.092 123.767 126.891 123.871 126.703 123.811L127.152 123.579Z" fill="#F4D8A0" stroke="#F4D8A0"/>
<path d="M93.1548 112.826L70.0312 134.116" stroke="#F4D8A0" stroke-miterlimit="10"/>
<path d="M92.9127 112.563L92.9126 112.563C92.7676 112.696 92.7581 112.923 92.8917 113.068L92.9127 112.563ZM92.9127 112.563C93.0578 112.429 93.2838 112.439 93.4173 112.584L93.4174 112.584M92.9127 112.563L93.4174 112.584M93.4174 112.584C93.5509 112.729 93.5415 112.955 93.3964 113.089L93.3964 113.089M93.4174 112.584L93.3964 113.089M93.3964 113.089C93.2513 113.222 93.0252 113.213 92.8917 113.068L93.3964 113.089Z" fill="#F4D8A0" stroke="#F4D8A0"/>
<path d="M122.099 68.724L130.307 98.9868" stroke="#F4D8A0" stroke-miterlimit="10"/>
<path d="M122.193 69.0687L122.193 69.0687C122.383 69.017 122.496 68.8207 122.444 68.6304L122.193 69.0687ZM122.193 69.0687C122.003 69.1203 121.807 69.0078 121.755 68.8175L122.193 69.0687ZM121.755 68.8175C121.703 68.6272 121.816 68.4309 122.006 68.3792L121.755 68.8175ZM122.006 68.3792C122.196 68.3276 122.393 68.4401 122.444 68.6304L122.006 68.3792Z" fill="#F4D8A0" stroke="#F4D8A0"/>
<path d="M126.811 123.471L130.306 98.9872" stroke="#F4D8A0" stroke-miterlimit="10"/>
<path d="M127.165 123.522C127.137 123.718 126.955 123.853 126.76 123.825C126.565 123.798 126.429 123.616 126.457 123.421C126.485 123.225 126.666 123.089 126.861 123.117C127.056 123.145 127.192 123.326 127.165 123.522Z" fill="#F4D8A0" stroke="#F4D8A0"/>
<path d="M25.4326 116.628L52.7913 126.665" stroke="#F4D8A0" stroke-miterlimit="10"/>
<path d="M25.3097 116.964L25.3097 116.964C25.4946 117.032 25.6999 116.937 25.7679 116.751L25.7679 116.751C25.836 116.566 25.7405 116.36 25.5555 116.292L25.5555 116.292C25.3706 116.224 25.1653 116.319 25.0973 116.505L25.3097 116.964ZM25.3097 116.964C25.1247 116.896 25.0292 116.69 25.0973 116.505L25.3097 116.964Z" fill="#F4D8A0" stroke="#F4D8A0"/>
<path d="M25.4323 116.628H25.3667" stroke="#F4D8A0" stroke-miterlimit="10"/>
<path d="M25.4324 116.27C25.6293 116.27 25.7896 116.43 25.7896 116.628C25.7896 116.826 25.6293 116.986 25.4324 116.986C25.2355 116.986 25.0752 116.826 25.0752 116.628C25.0752 116.43 25.2355 116.27 25.4324 116.27Z" fill="#F4D8A0" stroke="#F4D8A0"/>
<path d="M-10.0684 115.715L25.3666 116.627" stroke="#F4D8A0" stroke-miterlimit="10"/>
<path d="M46.7114 89.7104L52.7911 126.665" stroke="#F4D8A0" stroke-miterlimit="10"/>
<path d="M46.3589 89.7685L46.3589 89.7685C46.3909 89.9631 46.5747 90.0949 46.7693 90.0629L46.7693 90.0629C46.9639 90.0309 47.0958 89.847 47.0638 89.6524L47.0638 89.6524C47.0317 89.4579 46.8479 89.326 46.6533 89.358L46.3589 89.7685ZM46.3589 89.7685C46.3268 89.5739 46.4587 89.3901 46.6533 89.358L46.3589 89.7685Z" fill="#F4D8A0" stroke="#F4D8A0"/>
<path d="M46.8629 71.1573L46.7109 89.7105" stroke="#F4D8A0" stroke-miterlimit="10"/>
<path d="M46.5059 71.1546C46.5075 70.9574 46.6688 70.7987 46.866 70.8003C47.0632 70.8019 47.2218 70.9632 47.2202 71.1604C47.2186 71.3576 47.0573 71.5163 46.8601 71.5147C46.6629 71.513 46.5043 71.3517 46.5059 71.1546Z" fill="#F4D8A0" stroke="#F4D8A0"/>
<path d="M122.099 68.7244L141.098 55.798" stroke="#F4D8A0" stroke-miterlimit="10"/>
<path d="M121.804 68.9258L121.804 68.9258C121.915 69.089 122.137 69.1313 122.3 69.0204M121.804 68.9258L122.395 68.5232C122.506 68.6867 122.463 68.9094 122.3 69.0204M121.804 68.9258C121.693 68.7623 121.736 68.5396 121.899 68.4286L121.899 68.4286M121.804 68.9258L121.899 68.4286M122.3 69.0204L122.581 69.4338L122.3 69.0204ZM121.899 68.4286C122.062 68.3177 122.284 68.3599 122.395 68.5232L121.899 68.4286Z" fill="#F4D8A0" stroke="#F4D8A0"/>
<path d="M141.521 55.7979C141.521 55.9951 141.362 56.155 141.164 56.155C140.967 56.155 140.807 55.9951 140.807 55.7979C140.807 55.6006 140.967 55.4407 141.164 55.4407C141.362 55.4407 141.521 55.6006 141.521 55.7979Z" fill="#F4D8A0" stroke="#F4D8A0"/>
<path d="M141.181 56.1545L141.181 56.1545C141.378 56.1453 141.53 55.9781 141.521 55.7811L141.181 56.1545ZM141.181 56.1545C140.984 56.1636 140.817 56.0112 140.808 55.8143L141.181 56.1545ZM141.148 55.4409L141.148 55.4409C140.951 55.45 140.798 55.6172 140.808 55.8142L141.148 55.4409ZM141.148 55.4409C141.345 55.4317 141.512 55.5841 141.521 55.7811L141.148 55.4409Z" fill="#F4D8A0" stroke="#F4D8A0"/>
<path d="M66.3835 54.7328H66.3179" stroke="#F4D8A0" stroke-miterlimit="10"/>
<path d="M66.7407 54.733C66.7407 54.9303 66.5808 55.0902 66.3836 55.0902C66.1863 55.0902 66.0264 54.9303 66.0264 54.733C66.0264 54.5358 66.1863 54.3759 66.3836 54.3759C66.5808 54.3759 66.7407 54.5358 66.7407 54.733Z" fill="#F4D8A0" stroke="#F4D8A0"/>
<path d="M90.0295 52.604H89.9639" stroke="#F4D8A0" stroke-miterlimit="10"/>
<path d="M90.3867 52.6046C90.3867 52.8024 90.2265 52.9623 90.0295 52.9623C89.8326 52.9623 89.6724 52.8024 89.6724 52.6046C89.6724 52.4067 89.8326 52.2468 90.0295 52.2468C90.2265 52.2468 90.3867 52.4067 90.3867 52.6046Z" fill="#F4D8A0" stroke="#F4D8A0"/>
<path d="M46.8628 71.1576L66.3178 54.7336" stroke="#F4D8A0" stroke-miterlimit="10"/>
<path d="M47.0934 71.4303C46.9426 71.5575 46.7172 71.5384 46.59 71.3877L47.0934 71.4303ZM46.59 71.3877C46.4629 71.237 46.482 71.0115 46.6327 70.8843C46.7834 70.7572 47.0088 70.7763 47.136 70.927L46.59 71.3877ZM47.136 70.927C47.2632 71.0777 47.2441 71.3032 47.0934 71.4303L47.136 70.927Z" fill="#F4D8A0" stroke="#F4D8A0"/>
<path d="M122.1 68.7245L90.0293 52.6046" stroke="#F4D8A0" stroke-miterlimit="10"/>
<path d="M122.26 68.405C122.436 68.4935 122.507 68.7083 122.419 68.8845L122.26 68.405ZM122.419 68.8845C122.33 69.0607 122.115 69.1319 121.939 69.0433L122.419 68.8845ZM121.939 69.0433C121.763 68.9548 121.692 68.7401 121.78 68.5638L121.939 69.0433ZM121.78 68.5638C121.869 68.3876 122.084 68.3165 122.26 68.405L121.78 68.5638Z" fill="#F4D8A0" stroke="#F4D8A0"/>
<path d="M66.3833 54.7338L89.9628 52.6046" stroke="#F4D8A0" stroke-miterlimit="10"/>
<path d="M66.6278 54.4735C66.7715 54.6087 66.7785 54.8348 66.6434 54.9785C66.5083 55.1223 66.2823 55.1293 66.1386 54.9941C65.995 54.8589 65.988 54.6328 66.1231 54.4891C66.2582 54.3453 66.4842 54.3384 66.6278 54.4735Z" fill="#F4D8A0" stroke="#F4D8A0"/>
<path d="M122.1 68.7245L112.524 42.7198" stroke="#F4D8A0" stroke-miterlimit="10"/>
<path d="M121.977 68.3888C121.792 68.457 121.697 68.6627 121.765 68.8482L121.977 68.3888ZM121.977 68.3888C122.161 68.3207 122.367 68.4153 122.435 68.6007L121.977 68.3888ZM122.435 68.6007C122.504 68.7863 122.408 68.992 122.223 69.0602L122.435 68.6007ZM122.223 69.0602C122.039 69.1283 121.833 69.0337 121.765 68.8482L122.223 69.0602Z" fill="#F4D8A0" stroke="#F4D8A0"/>
<path d="M112.524 42.7199L124.835 5.30951" stroke="#F4D8A0" stroke-miterlimit="10"/>
<path d="M112.864 42.8313L112.864 42.8313C112.925 42.644 112.823 42.442 112.636 42.3803C112.449 42.3186 112.247 42.4206 112.185 42.6079L112.185 42.6079C112.123 42.7952 112.225 42.9972 112.413 43.0589L112.864 42.8313ZM112.864 42.8313C112.802 43.0186 112.6 43.1205 112.413 43.0589L112.864 42.8313Z" fill="#F4D8A0" stroke="#F4D8A0"/>
<path d="M46.8634 71.1577L15.8569 52.6046" stroke="#F4D8A0" stroke-miterlimit="10"/>
<path d="M46.6798 71.4638L46.6798 71.4638C46.8491 71.565 47.0685 71.5098 47.1697 71.3405L46.6798 71.4638ZM46.6798 71.4638C46.5106 71.3626 46.4554 71.1431 46.5566 70.9739L46.5566 70.9739M46.6798 71.4638L46.5566 70.9739M46.5566 70.9739C46.6578 70.8046 46.8772 70.7495 47.0465 70.8507L46.5566 70.9739ZM47.0465 70.8507C47.2157 70.9519 47.2709 71.1713 47.1697 71.3405L47.0465 70.8507Z" fill="#F4D8A0" stroke="#F4D8A0"/>
<path d="M15.8571 52.604H15.7915" stroke="#F4D8A0" stroke-miterlimit="10"/>
<path d="M15.8572 52.2468C16.0541 52.2468 16.2144 52.4068 16.2144 52.6046C16.2144 52.8023 16.0541 52.9623 15.8572 52.9623C15.6603 52.9623 15.5 52.8024 15.5 52.6046C15.5 52.4068 15.6603 52.2468 15.8572 52.2468Z" fill="#F4D8A0" stroke="#F4D8A0"/>
<path d="M0.26709 49.8667L15.791 52.604" stroke="#F4D8A0" stroke-miterlimit="10"/>
<path d="M46.8628 71.1577V40.7427" stroke="#F4D8A0" stroke-miterlimit="10"/>
<path d="M47.2202 71.1573C47.2202 71.3546 47.0602 71.5145 46.863 71.5145C46.6658 71.5145 46.5059 71.3546 46.5059 71.1573C46.5059 70.9602 46.6658 70.8002 46.863 70.8002C47.0602 70.8002 47.2202 70.9602 47.2202 71.1573Z" fill="#F4D8A0" stroke="#F4D8A0"/>
<path d="M46.8636 40.7427L43.8237 2.26782" stroke="#F4D8A0" stroke-miterlimit="10"/>
<path d="M46.8917 41.0983L46.8917 41.0983C46.6951 41.1138 46.523 40.967 46.5075 40.7704C46.492 40.5738 46.6388 40.4017 46.8354 40.3862C47.032 40.3706 47.2041 40.5175 47.2197 40.7141C47.2352 40.9107 47.0883 41.0828 46.8917 41.0983Z" fill="#F4D8A0" stroke="#F4D8A0"/>
</g>
</g>
</g>
<defs>
<filter id="filter0_d" x="0" y="0.790405" width="149.999" height="150.071" filterUnits="userSpaceOnUse" color-interpolation-filters="sRGB">
<feFlood flood-opacity="0" result="BackgroundImageFix"/>
<feColorMatrix in="SourceAlpha" type="matrix" values="0 0 0 0 0 0 0 0 0 0 0 0 0 0 0 0 0 0 127 0"/>
<feOffset/>
<feGaussianBlur stdDeviation="4"/>
<feColorMatrix type="matrix" values="0 0 0 0 0.970833 0 0 0 0 0.813392 0 0 0 0 0.501597 0 0 0 1 0"/>
<feBlend mode="normal" in2="BackgroundImageFix" result="effect1_dropShadow"/>
<feBlend mode="normal" in="SourceGraphic" in2="effect1_dropShadow" result="shape"/>
</filter>
<filter id="filter1_d" x="-104.962" y="-65.0777" width="369.583" height="321.127" filterUnits="userSpaceOnUse" color-interpolation-filters="sRGB">
<feFlood flood-opacity="0" result="BackgroundImageFix"/>
<feColorMatrix in="SourceAlpha" type="matrix" values="0 0 0 0 0 0 0 0 0 0 0 0 0 0 0 0 0 0 127 0"/>
<feOffset/>
<feGaussianBlur stdDeviation="2"/>
<feColorMatrix type="matrix" values="0 0 0 0 0.9625 0 0 0 0 0.850815 0 0 0 0 0.629635 0 0 0 1 0"/>
<feBlend mode="normal" in2="BackgroundImageFix" result="effect1_dropShadow"/>
<feBlend mode="normal" in="SourceGraphic" in2="effect1_dropShadow" result="shape"/>
</filter>
</defs>
</svg>
