<svg width="161" height="103" viewBox="0 0 161 103" fill="none" xmlns="http://www.w3.org/2000/svg">
<g filter="url(#filter0_d)">
<path d="M41.5 57.9879C45.0899 57.9879 48 55.0762 48 51.4844C48 47.8926 45.0899 44.9808 41.5 44.9808C37.9101 44.9808 35 47.8926 35 51.4844C35 55.0762 37.9101 57.9879 41.5 57.9879Z" fill="#E3B04B"/>
</g>
<g filter="url(#filter1_d)">
<path d="M120.5 57.9879C124.09 57.9879 127 55.0762 127 51.4844C127 47.8926 124.09 44.9808 120.5 44.9808C116.91 44.9808 114 47.8926 114 51.4844C114 55.0762 116.91 57.9879 120.5 57.9879Z" fill="#E3B04B"/>
</g>
<mask id="mask0" mask-type="alpha" maskUnits="userSpaceOnUse" x="8" y="8" width="145" height="85">
<mask id="path-3-inside-1" mask-type="luminance" fill="white">
<path fill-rule="evenodd" clip-rule="evenodd" d="M16 8C11.5817 8 8 11.5817 8 16V85C8 89.4183 11.5817 93 16 93H145C149.418 93 153 89.4183 153 85V16C153 11.5817 149.418 8 145 8H16ZM85.1002 67.4981C86.1211 67.2144 87.1189 66.8395 88.0706 66.3635C92.1007 64.3473 94.4123 60.9836 94.412 57.1354C94.412 53.2879 92.6016 50.2873 89.1771 48.4584C86.8318 47.2061 84.1258 46.7037 81.5087 46.2178L81.5075 46.2176C79.5471 45.8538 77.5196 45.4775 76.3731 44.8652C75.7883 44.5528 75.7883 44.4719 75.7883 43.9454C75.7883 43.6342 76.2951 43.0653 77.2642 42.5805C79.6634 41.3808 83.0469 41.4787 84.8072 42.7997C86.7492 44.2567 89.5028 43.8628 90.9591 41.9204C92.4153 39.978 92.0219 37.2222 90.0802 35.7652C88.6351 34.681 86.9296 33.9057 85.1002 33.4447V32.3681C85.1002 29.94 83.1328 27.9716 80.706 27.9716C78.2793 27.9716 76.3118 29.94 76.3118 32.3681V33.5766C75.2883 33.8606 74.2882 34.2384 73.3341 34.7159C69.3087 36.7295 67 40.0938 67 43.9457C67 47.7933 68.8104 50.7938 72.2352 52.6228C74.5802 53.875 77.2862 54.3775 79.9033 54.8634L79.9045 54.8636C81.8652 55.2273 83.8924 55.6037 85.039 56.216C85.6237 56.5281 85.6237 56.6093 85.6237 57.1354C85.6237 57.4365 85.1037 58.0168 84.1402 58.499C81.743 59.6983 78.3624 59.6004 76.6048 58.2815C74.6634 56.8245 71.9092 57.2187 70.4529 59.1608C68.9967 61.1035 69.3904 63.8592 71.3318 65.316C72.7769 66.4002 74.4827 67.1748 76.3118 67.6356V68.7131C76.3118 71.1411 78.2793 73.1096 80.706 73.1096C83.1328 73.1096 85.1002 71.1411 85.1002 68.7131V67.4981Z"/>
</mask>
<path fill-rule="evenodd" clip-rule="evenodd" d="M16 8C11.5817 8 8 11.5817 8 16V85C8 89.4183 11.5817 93 16 93H145C149.418 93 153 89.4183 153 85V16C153 11.5817 149.418 8 145 8H16ZM85.1002 67.4981C86.1211 67.2144 87.1189 66.8395 88.0706 66.3635C92.1007 64.3473 94.4123 60.9836 94.412 57.1354C94.412 53.2879 92.6016 50.2873 89.1771 48.4584C86.8318 47.2061 84.1258 46.7037 81.5087 46.2178L81.5075 46.2176C79.5471 45.8538 77.5196 45.4775 76.3731 44.8652C75.7883 44.5528 75.7883 44.4719 75.7883 43.9454C75.7883 43.6342 76.2951 43.0653 77.2642 42.5805C79.6634 41.3808 83.0469 41.4787 84.8072 42.7997C86.7492 44.2567 89.5028 43.8628 90.9591 41.9204C92.4153 39.978 92.0219 37.2222 90.0802 35.7652C88.6351 34.681 86.9296 33.9057 85.1002 33.4447V32.3681C85.1002 29.94 83.1328 27.9716 80.706 27.9716C78.2793 27.9716 76.3118 29.94 76.3118 32.3681V33.5766C75.2883 33.8606 74.2882 34.2384 73.3341 34.7159C69.3087 36.7295 67 40.0938 67 43.9457C67 47.7933 68.8104 50.7938 72.2352 52.6228C74.5802 53.875 77.2862 54.3775 79.9033 54.8634L79.9045 54.8636C81.8652 55.2273 83.8924 55.6037 85.039 56.216C85.6237 56.5281 85.6237 56.6093 85.6237 57.1354C85.6237 57.4365 85.1037 58.0168 84.1402 58.499C81.743 59.6983 78.3624 59.6004 76.6048 58.2815C74.6634 56.8245 71.9092 57.2187 70.4529 59.1608C68.9967 61.1035 69.3904 63.8592 71.3318 65.316C72.7769 66.4002 74.4827 67.1748 76.3118 67.6356V68.7131C76.3118 71.1411 78.2793 73.1096 80.706 73.1096C83.1328 73.1096 85.1002 71.1411 85.1002 68.7131V67.4981Z" fill="#C4C4C4"/>
<path d="M88.0706 66.3635L89.8598 69.9411L89.8604 69.9408L88.0706 66.3635ZM85.1002 67.4981L84.0291 63.6442L81.1002 64.4582V67.4981H85.1002ZM94.412 57.1354H90.412V57.1357L94.412 57.1354ZM89.1771 48.4584L91.0615 44.9301L91.0611 44.9299L89.1771 48.4584ZM81.5087 46.2178L80.7747 50.1499L80.7785 50.1506L81.5087 46.2178ZM81.5075 46.2176L82.2415 42.2855L82.2372 42.2847L81.5075 46.2176ZM76.3731 44.8652L74.4879 48.3931L74.4888 48.3936L76.3731 44.8652ZM77.2642 42.5805L75.4753 39.0028L75.4746 39.0031L77.2642 42.5805ZM84.8072 42.7997L82.4063 45.999L82.4066 45.9992L84.8072 42.7997ZM90.9591 41.9204L94.1595 44.3198L94.1595 44.3198L90.9591 41.9204ZM90.0802 35.7652L92.4811 32.5658L92.4808 32.5656L90.0802 35.7652ZM85.1002 33.4447H81.1002V36.5617L84.1227 37.3234L85.1002 33.4447ZM76.3118 33.5766L77.3814 37.431L80.3118 36.6178V33.5766H76.3118ZM73.3341 34.7159L75.1236 38.2933L75.1241 38.293L73.3341 34.7159ZM72.2352 52.6228L70.3509 56.1512L70.351 56.1512L72.2352 52.6228ZM79.9033 54.8634L79.1731 58.7962L79.1844 58.7982L79.9033 54.8634ZM79.9045 54.8636L80.6341 50.9307L80.6234 50.9287L79.9045 54.8636ZM85.039 56.216L83.1547 59.7444L83.1552 59.7446L85.039 56.216ZM84.1402 58.499L85.93 62.0762L85.9303 62.0761L84.1402 58.499ZM76.6048 58.2815L74.2037 61.4807L74.2039 61.4808L76.6048 58.2815ZM70.4529 59.1608L67.2527 56.7612L67.2523 56.7616L70.4529 59.1608ZM71.3318 65.316L68.931 68.5154L68.9313 68.5156L71.3318 65.316ZM76.3118 67.6356H80.3118V64.5182L77.2889 63.7568L76.3118 67.6356ZM12 16C12 13.7909 13.7909 12 16 12V4C9.37258 4 4 9.37258 4 16H12ZM12 85V16H4V85H12ZM16 89C13.7909 89 12 87.2091 12 85H4C4 91.6274 9.37259 97 16 97V89ZM145 89H16V97H145V89ZM149 85C149 87.2091 147.209 89 145 89V97C151.627 97 157 91.6274 157 85H149ZM149 16V85H157V16H149ZM145 12C147.209 12 149 13.7909 149 16H157C157 9.37258 151.627 4 145 4V12ZM16 12H145V4H16V12ZM86.2814 62.786C85.578 63.1378 84.823 63.4236 84.0291 63.6442L86.1712 71.3521C87.4192 71.0052 88.6597 70.5413 89.8598 69.9411L86.2814 62.786ZM90.412 57.1357C90.4122 59.1761 89.2397 61.306 86.2809 62.7863L89.8604 69.9408C94.9617 67.3886 98.4124 62.7911 98.412 57.1351L90.412 57.1357ZM87.2927 51.9867C89.4299 53.1281 90.412 54.7812 90.412 57.1354H98.412C98.412 51.7945 95.7733 47.4466 91.0615 44.9301L87.2927 51.9867ZM80.7785 50.1506C83.5144 50.6586 85.588 51.0765 87.2931 51.9869L91.0611 44.9299C88.0757 43.3358 84.7371 42.7488 82.2388 42.285L80.7785 50.1506ZM80.7735 50.1497L80.7747 50.1499L82.2426 42.2857L82.2415 42.2855L80.7735 50.1497ZM74.4888 48.3936C75.5287 48.9489 76.7312 49.2899 77.6966 49.5229C78.7151 49.7688 79.822 49.9731 80.7778 50.1505L82.2372 42.2847C81.2326 42.0983 80.3456 41.9326 79.5737 41.7463C78.7486 41.5471 78.364 41.3938 78.2573 41.3368L74.4888 48.3936ZM71.7883 43.9454C71.7883 44.0018 71.7834 44.3449 71.8196 44.6875C71.8643 45.1105 71.9889 45.7868 72.4078 46.5036C73.1447 47.7647 74.3799 48.3354 74.4879 48.3931L78.2582 41.3373C78.1356 41.2718 78.232 41.3156 78.3863 41.4278C78.5708 41.5618 78.9781 41.8909 79.315 42.4675C79.6609 43.0593 79.7489 43.5971 79.7754 43.8471C79.7933 44.0167 79.7883 44.1523 79.7883 43.9454H71.7883ZM75.4746 39.0031C74.7022 39.3896 73.9721 39.8772 73.3699 40.4646C73.0714 40.7558 72.7358 41.1381 72.4504 41.6148C72.1992 42.0346 71.7883 42.8558 71.7883 43.9454H79.7883C79.7883 44.8794 79.4408 45.5129 79.3149 45.7232C79.1549 45.9906 79.0065 46.142 78.9559 46.1914C78.8493 46.2954 78.8572 46.2562 79.0538 46.1578L75.4746 39.0031ZM87.2082 39.6004C85.4545 38.2843 83.27 37.801 81.3914 37.7465C79.459 37.6904 77.3437 38.0685 75.4753 39.0028L79.0531 46.1581C79.5839 45.8927 80.36 45.7199 81.1593 45.7431C81.5417 45.7542 81.8624 45.8089 82.1002 45.8785C82.3457 45.9503 82.4284 46.0156 82.4063 45.999L87.2082 39.6004ZM87.7586 39.521C87.6274 39.696 87.3816 39.7305 87.2078 39.6002L82.4066 45.9992C86.1168 48.783 91.3783 48.0295 94.1595 44.3198L87.7586 39.521ZM87.6794 38.9646C87.8544 39.0959 87.8903 39.3453 87.7586 39.521L94.1595 44.3198C96.9403 40.6107 96.1894 35.3486 92.4811 32.5658L87.6794 38.9646ZM84.1227 37.3234C85.5005 37.6706 86.7083 38.236 87.6797 38.9648L92.4808 32.5656C90.562 31.126 88.3588 30.1408 86.0777 29.566L84.1227 37.3234ZM81.1002 32.3681V33.4447H89.1002V32.3681H81.1002ZM80.706 31.9716C80.9216 31.9716 81.1002 32.1471 81.1002 32.3681H89.1002C89.1002 27.733 85.3439 23.9716 80.706 23.9716V31.9716ZM80.3118 32.3681C80.3118 32.1471 80.4904 31.9716 80.706 31.9716V23.9716C76.0681 23.9716 72.3118 27.733 72.3118 32.3681H80.3118ZM80.3118 33.5766V32.3681H72.3118V33.5766H80.3118ZM75.1241 38.293C75.8335 37.938 76.5908 37.6503 77.3814 37.431L75.2423 29.7222C73.9858 30.0709 72.7428 30.5389 71.544 31.1388L75.1241 38.293ZM71 43.9457C71 41.8975 72.1738 39.7689 75.1236 38.2933L71.5445 31.1385C66.4436 33.6902 63 38.2901 63 43.9457H71ZM74.1195 49.0944C71.9821 47.953 71 46.2999 71 43.9457H63C63 49.2867 65.6387 53.6347 70.3509 56.1512L74.1195 49.0944ZM80.6335 50.9306C77.8975 50.4226 75.8241 50.0047 74.1194 49.0944L70.351 56.1512C73.3363 57.7454 76.675 58.3323 79.1731 58.7962L80.6335 50.9306ZM80.6234 50.9287L80.6222 50.9285L79.1844 58.7982L79.1856 58.7985L80.6234 50.9287ZM86.9232 52.6876C85.8833 52.1323 84.681 51.7913 83.7156 51.5582C82.6971 51.3124 81.5901 51.108 80.6341 50.9307L79.1749 58.7965C80.1796 58.9829 81.0666 59.1486 81.8384 59.3349C82.6634 59.534 83.048 59.6874 83.1547 59.7444L86.9232 52.6876ZM89.6237 57.1354C89.6237 57.0791 89.6286 56.736 89.5924 56.3934C89.5477 55.9704 89.4231 55.2942 89.0042 54.5774C88.267 53.3158 87.0316 52.7454 86.9228 52.6873L83.1552 59.7446C83.2774 59.8099 83.1808 59.766 83.0261 59.6536C82.8413 59.5193 82.4339 59.1902 82.097 58.6135C81.7512 58.0218 81.6631 57.4841 81.6367 57.234C81.6188 57.0643 81.6237 56.9287 81.6237 57.1354H89.6237ZM85.9303 62.0761C86.7077 61.687 87.433 61.198 88.0287 60.6201C88.323 60.3345 88.6549 59.9603 88.9393 59.4954C89.1791 59.1035 89.6237 58.2646 89.6237 57.1354H81.6237C81.6237 56.6109 81.7337 56.1952 81.8275 55.9295C81.9238 55.6566 82.0347 55.4518 82.1154 55.32C82.2723 55.0636 82.414 54.921 82.4578 54.8785C82.5527 54.7865 82.5362 54.8287 82.3501 54.9218L85.9303 62.0761ZM74.2039 61.4808C75.9566 62.7961 78.14 63.2787 80.0172 63.3329C81.9482 63.3887 84.0624 63.0106 85.93 62.0762L82.3504 54.9217C81.8208 55.1867 81.0462 55.3593 80.2482 55.3363C79.8664 55.3252 79.5464 55.2707 79.3093 55.2014C79.0644 55.1297 78.9826 55.0648 79.0056 55.0821L74.2039 61.4808ZM73.6532 61.5604C73.7849 61.3849 74.0313 61.3513 74.2037 61.4807L79.0058 55.0823C75.2956 52.2976 70.0335 53.0525 67.2527 56.7612L73.6532 61.5604ZM73.7325 62.1166C73.5579 61.9855 73.5216 61.736 73.6536 61.5599L67.2523 56.7616C64.4718 60.471 65.2229 65.733 68.931 68.5154L73.7325 62.1166ZM77.2889 63.7568C75.9108 63.4096 74.703 62.8447 73.7323 62.1164L68.9313 68.5156C70.8507 69.9557 73.0546 70.9401 75.3348 71.5144L77.2889 63.7568ZM80.3118 68.7131V67.6356H72.3118V68.7131H80.3118ZM80.706 69.1096C80.4904 69.1096 80.3118 68.9341 80.3118 68.7131H72.3118C72.3118 73.3482 76.0681 77.1096 80.706 77.1096V69.1096ZM81.1002 68.7131C81.1002 68.934 80.9216 69.1096 80.706 69.1096V77.1096C85.3439 77.1096 89.1002 73.3482 89.1002 68.7131H81.1002ZM81.1002 67.4981V68.7131H89.1002V67.4981H81.1002Z" fill="black" mask="url(#path-3-inside-1)"/>
</mask>
<g mask="url(#mask0)">
<path d="M147.048 81.6474L147.075 81.6019" stroke="#F4D8A0" stroke-miterlimit="10"/>
<path d="M147.418 81.8609C147.3 82.0651 147.039 82.135 146.835 82.0171C146.631 81.8992 146.561 81.6381 146.679 81.4339C146.797 81.2298 147.058 81.1598 147.262 81.2777C147.466 81.3956 147.536 81.6568 147.418 81.8609Z" fill="#F4D8A0"/>
<path d="M147.048 81.6474L118.043 100.17" stroke="#F4D8A0" stroke-miterlimit="10"/>
<path d="M146.819 81.2876C147.018 81.1607 147.282 81.219 147.408 81.4177C147.535 81.6164 147.477 81.8804 147.278 82.0073C147.08 82.1341 146.816 82.0758 146.689 81.8771C146.562 81.6784 146.62 81.4144 146.819 81.2876Z" fill="#F4D8A0"/>
<path d="M86.2719 89.2979L86.2456 89.3435" stroke="#F4D8A0" stroke-miterlimit="10"/>
<path d="M85.9025 89.0843C86.0204 88.8802 86.2815 88.8102 86.4857 88.9281C86.6898 89.046 86.7598 89.3072 86.6419 89.5113C86.524 89.7155 86.2628 89.7854 86.0587 89.6675C85.8545 89.5496 85.7846 89.2885 85.9025 89.0843Z" fill="#F4D8A0"/>
<path d="M117.884 100.17L104.874 72.2415" stroke="#F4D8A0" stroke-miterlimit="10"/>
<path d="M86.2461 89.3434L57.8516 98.7041" stroke="#F4D8A0" stroke-miterlimit="10"/>
<path d="M86.1128 88.9379C86.3367 88.8642 86.5781 88.9859 86.6518 89.2098C86.7256 89.4337 86.6039 89.6751 86.38 89.7489C86.156 89.8226 85.9147 89.7009 85.8409 89.477C85.7671 89.2531 85.8888 89.0117 86.1128 88.9379Z" fill="#F4D8A0"/>
<path d="M104.847 72.1955L104.873 72.2411" stroke="#F4D8A0" stroke-miterlimit="10"/>
<path d="M104.477 72.409C104.359 72.2049 104.429 71.9437 104.633 71.8258C104.838 71.7079 105.099 71.7779 105.217 71.982C105.334 72.1862 105.265 72.4473 105.06 72.5652C104.856 72.6831 104.595 72.6132 104.477 72.409Z" fill="#F4D8A0"/>
<path d="M57.6923 98.7045L50.4199 75.2954" stroke="#F4D8A0" stroke-miterlimit="10"/>
<path d="M50.3931 75.2497L50.4194 75.2953" stroke="#F4D8A0" stroke-miterlimit="10"/>
<path d="M50.0236 75.4631C49.9057 75.2589 49.9756 74.9978 50.1798 74.8799C50.3839 74.762 50.6451 74.832 50.763 75.0361C50.8809 75.2402 50.8109 75.5014 50.6068 75.6193C50.4026 75.7372 50.1415 75.6672 50.0236 75.4631Z" fill="#F4D8A0"/>
<path d="M21.9029 74.5623L16.584 103.591" stroke="#F4D8A0" stroke-miterlimit="10"/>
<path d="M21.4831 74.4854C21.5257 74.2535 21.7482 74.0999 21.98 74.1424C22.2119 74.185 22.3655 74.4075 22.323 74.6393C22.2805 74.8712 22.058 75.0248 21.8261 74.9823C21.5942 74.9398 21.4406 74.7173 21.4831 74.4854Z" fill="#F4D8A0"/>
<path d="M21.9287 74.5166L21.9023 74.5622" stroke="#F4D8A0" stroke-miterlimit="10"/>
<path d="M21.5592 74.3032C21.6771 74.099 21.9383 74.0291 22.1424 74.147C22.3466 74.2649 22.4165 74.526 22.2986 74.7302C22.1807 74.9343 21.9196 75.0043 21.7154 74.8864C21.5113 74.7685 21.4413 74.5073 21.5592 74.3032Z" fill="#F4D8A0"/>
<path d="M16.4248 103.591L-6.96387 90.321" stroke="#F4D8A0" stroke-miterlimit="10"/>
<path d="M134.771 61.0795L143.386 26.4319" stroke="#F4D8A0" stroke-miterlimit="10"/>
<path d="M135.185 61.1823C135.128 61.4111 134.896 61.5504 134.667 61.4935C134.438 61.4366 134.299 61.2049 134.356 60.9761C134.413 60.7474 134.645 60.608 134.873 60.6649C135.102 60.7219 135.241 60.9535 135.185 61.1823Z" fill="#F4D8A0"/>
<path d="M134.77 61.0792L134.735 61.1402L147.048 81.5563" stroke="#F4D8A0" stroke-miterlimit="10"/>
<path d="M134.401 60.8656C134.518 60.6614 134.78 60.5915 134.984 60.7094C135.188 60.8272 135.258 61.0884 135.14 61.2925C135.022 61.4967 134.761 61.5667 134.557 61.4488C134.353 61.3309 134.283 61.0698 134.401 60.8656Z" fill="#F4D8A0"/>
<path d="M143.412 26.3857L143.385 26.4313" stroke="#F4D8A0" stroke-miterlimit="10"/>
<path d="M143.042 26.1722C143.16 25.9681 143.421 25.8981 143.625 26.016C143.829 26.1339 143.899 26.395 143.782 26.5992C143.664 26.8033 143.403 26.8733 143.198 26.7554C142.994 26.6375 142.924 26.3764 143.042 26.1722Z" fill="#F4D8A0"/>
<path d="M147.075 81.6019L147.049 81.5564" stroke="#F4D8A0" stroke-miterlimit="10"/>
<path d="M147.445 81.3884C147.563 81.5925 147.493 81.8537 147.288 81.9716C147.084 82.0895 146.823 82.0195 146.705 81.8154C146.587 81.6113 146.657 81.3501 146.861 81.2322C147.066 81.1143 147.327 81.1843 147.445 81.3884Z" fill="#F4D8A0"/>
<path d="M102.31 23.866L102.284 23.8204" stroke="#F4D8A0" stroke-miterlimit="10"/>
<path d="M102.679 23.6526C102.797 23.8567 102.727 24.1179 102.523 24.2358C102.319 24.3536 102.058 24.2837 101.94 24.0795C101.822 23.8754 101.892 23.6142 102.096 23.4964C102.3 23.3785 102.562 23.4484 102.679 23.6526Z" fill="#F4D8A0"/>
<path d="M104.847 72.1955L104.873 72.1499" stroke="#F4D8A0" stroke-miterlimit="10"/>
<path d="M105.217 72.409C105.099 72.6132 104.838 72.6831 104.633 72.5652C104.429 72.4473 104.359 72.1862 104.477 71.982C104.595 71.7779 104.856 71.7079 105.06 71.8258C105.265 71.9437 105.334 72.2049 105.217 72.409Z" fill="#F4D8A0"/>
<path d="M83.3418 25.5307L83.3154 25.5763" stroke="#F4D8A0" stroke-miterlimit="10"/>
<path d="M82.9723 25.3171C83.0902 25.113 83.3513 25.043 83.5555 25.1609C83.7596 25.2788 83.8296 25.5399 83.7117 25.7441C83.5938 25.9482 83.3327 26.0182 83.1285 25.9003C82.9244 25.7824 82.8544 25.5213 82.9723 25.3171Z" fill="#F4D8A0"/>
<path d="M67.6191 53.6276L83.3159 25.5763" stroke="#F4D8A0" stroke-miterlimit="10"/>
<path d="M67.9914 53.8358C67.8762 54.0415 67.616 54.115 67.4103 53.9998C67.2046 53.8846 67.1312 53.6244 67.2464 53.4187C67.3615 53.213 67.6217 53.1396 67.8274 53.2548C68.0331 53.37 68.1065 53.6301 67.9914 53.8358Z" fill="#F4D8A0"/>
<path d="M134.611 61.0791L134.646 61.1402L104.873 72.15" stroke="#F4D8A0" stroke-miterlimit="10"/>
<path d="M134.241 61.2925C134.123 61.0884 134.193 60.8272 134.397 60.7094C134.601 60.5915 134.862 60.6614 134.98 60.8656C135.098 61.0698 135.028 61.3309 134.824 61.4488C134.62 61.5667 134.359 61.4967 134.241 61.2925Z" fill="#F4D8A0"/>
<path d="M86.2466 89.2524L86.2729 89.298" stroke="#F4D8A0" stroke-miterlimit="10"/>
<path d="M85.8766 89.4659C85.7587 89.2618 85.8287 89.0006 86.0328 88.8827C86.2369 88.7648 86.4981 88.8348 86.616 89.0389C86.7339 89.243 86.6639 89.5042 86.4598 89.6221C86.2556 89.74 85.9945 89.67 85.8766 89.4659Z" fill="#F4D8A0"/>
<path d="M134.611 61.0793L102.31 23.8665" stroke="#F4D8A0" stroke-miterlimit="10"/>
<path d="M134.933 60.7991C135.088 60.977 135.069 61.2467 134.891 61.4013C134.713 61.5559 134.443 61.5369 134.289 61.3589C134.134 61.1809 134.153 60.9112 134.331 60.7567C134.509 60.6021 134.779 60.6211 134.933 60.7991Z" fill="#F4D8A0"/>
<path d="M67.6192 53.6273L67.584 53.6884L86.2463 89.2523" stroke="#F4D8A0" stroke-miterlimit="10"/>
<path d="M67.2492 53.4139C67.367 53.2098 67.6282 53.1398 67.8323 53.2577C68.0365 53.3756 68.1065 53.6367 67.9886 53.8409C67.8707 54.045 67.6096 54.115 67.4054 53.9971C67.2012 53.8792 67.1313 53.6181 67.2492 53.4139Z" fill="#F4D8A0"/>
<path d="M42.7285 23.866L42.7021 23.8204" stroke="#F4D8A0" stroke-miterlimit="10"/>
<path d="M43.0979 23.6526C43.2158 23.8567 43.1459 24.1179 42.9417 24.2358C42.7376 24.3536 42.4764 24.2837 42.3585 24.0795C42.2407 23.8754 42.3106 23.6142 42.5148 23.4964C42.7189 23.3785 42.9801 23.4484 43.0979 23.6526Z" fill="#F4D8A0"/>
<path d="M67.4597 53.6276L42.728 23.8665" stroke="#F4D8A0" stroke-miterlimit="10"/>
<path d="M67.7879 53.3544C67.9386 53.5357 67.9138 53.8049 67.7326 53.9556C67.5513 54.1063 67.2821 54.0815 67.1313 53.9003C66.9806 53.719 67.0054 53.4498 67.1867 53.2991C67.3679 53.1484 67.6372 53.1731 67.7879 53.3544Z" fill="#F4D8A0"/>
<path d="M2.7872 51.795L2.75195 51.856L21.9026 74.471" stroke="#F4D8A0" stroke-miterlimit="10"/>
<path d="M2.78711 51.7952L30.2049 21.6674" stroke="#F4D8A0" stroke-miterlimit="10"/>
<path d="M30.2309 21.6216L30.2046 21.6672" stroke="#F4D8A0" stroke-miterlimit="10"/>
<path d="M29.8615 21.4082C29.9793 21.204 30.2405 21.1341 30.4446 21.252C30.6488 21.3698 30.7188 21.631 30.6009 21.8351C30.483 22.0393 30.2219 22.1093 30.0177 21.9914C29.8135 21.8735 29.7436 21.6124 29.8615 21.4082Z" fill="#F4D8A0"/>
<path d="M50.4199 75.2041L67.495 53.6886L67.4597 53.6276" stroke="#F4D8A0" stroke-miterlimit="10"/>
<path d="M50.7544 75.4695C50.6078 75.6541 50.3392 75.6849 50.1546 75.5383C49.97 75.3917 49.9391 75.1232 50.0857 74.9385C50.2323 74.7539 50.5009 74.7231 50.6855 74.8697C50.8702 75.0163 50.901 75.2849 50.7544 75.4695Z" fill="#F4D8A0"/>
<path d="M50.4194 75.204L50.3931 75.2496" stroke="#F4D8A0" stroke-miterlimit="10"/>
<path d="M50.0499 74.9904C50.1678 74.7863 50.429 74.7164 50.6331 74.8343C50.8373 74.9521 50.9072 75.2133 50.7893 75.4174C50.6714 75.6216 50.4103 75.6915 50.2062 75.5736C50.002 75.4557 49.9321 75.1946 50.0499 74.9904Z" fill="#F4D8A0"/>
<path d="M21.9033 74.471L21.9296 74.5166" stroke="#F4D8A0" stroke-miterlimit="10"/>
<path d="M21.5333 74.6845C21.4155 74.4804 21.4854 74.2192 21.6895 74.1013C21.8937 73.9835 22.1548 74.0534 22.2727 74.2575C22.3906 74.4617 22.3207 74.7228 22.1165 74.8407C21.9124 74.9586 21.6512 74.8887 21.5333 74.6845Z" fill="#F4D8A0"/>
<path d="M144.607 -14.1254L120.485 15.8803" stroke="#F4D8A0" stroke-miterlimit="10"/>
<path d="M143.412 26.3858L143.385 26.3402" stroke="#F4D8A0" stroke-miterlimit="10"/>
<path d="M143.782 26.1722C143.899 26.3764 143.829 26.6375 143.625 26.7554C143.421 26.8733 143.16 26.8033 143.042 26.5992C142.924 26.395 142.994 26.1339 143.198 26.016C143.403 25.8981 143.664 25.9681 143.782 26.1722Z" fill="#F4D8A0"/>
<path d="M120.485 15.88L120.45 15.9411L143.386 26.3402" stroke="#F4D8A0" stroke-miterlimit="10"/>
<path d="M120.116 15.6666C120.234 15.4625 120.495 15.3925 120.699 15.5104C120.903 15.6283 120.973 15.8894 120.855 16.0936C120.737 16.2977 120.476 16.3677 120.272 16.2498C120.068 16.1319 119.998 15.8708 120.116 15.6666Z" fill="#F4D8A0"/>
<path d="M75.624 -22.6768L67.7412 14.2918" stroke="#F4D8A0" stroke-miterlimit="10"/>
<path d="M102.284 23.8205L102.31 23.7749" stroke="#F4D8A0" stroke-miterlimit="10"/>
<path d="M102.653 24.0339C102.535 24.238 102.274 24.308 102.07 24.1901C101.866 24.0722 101.796 23.8111 101.914 23.6069C102.032 23.4028 102.293 23.3328 102.497 23.4507C102.701 23.5686 102.771 23.8297 102.653 24.0339Z" fill="#F4D8A0"/>
<path d="M67.7408 14.292L67.7056 14.3531L83.3156 25.485" stroke="#F4D8A0" stroke-miterlimit="10"/>
<path d="M67.3712 14.0785C67.4891 13.8743 67.7502 13.8044 67.9544 13.9223C68.1586 14.0401 68.2285 14.3013 68.1106 14.5054C67.9928 14.7096 67.7316 14.7795 67.5275 14.6617C67.3233 14.5438 67.2533 14.2826 67.3712 14.0785Z" fill="#F4D8A0"/>
<path d="M120.326 15.8801L120.361 15.9412L102.31 23.7749" stroke="#F4D8A0" stroke-miterlimit="10"/>
<path d="M119.957 16.0937C119.839 15.8895 119.909 15.6284 120.113 15.5105C120.317 15.3926 120.578 15.4626 120.696 15.6667C120.814 15.8709 120.744 16.132 120.54 16.2499C120.336 16.3678 120.075 16.2978 119.957 16.0937Z" fill="#F4D8A0"/>
<path d="M83.3418 25.5306L83.3154 25.4851" stroke="#F4D8A0" stroke-miterlimit="10"/>
<path d="M83.7117 25.3173C83.8296 25.5214 83.7596 25.7826 83.5555 25.9004C83.3513 26.0183 83.0902 25.9483 82.9723 25.7442C82.8544 25.54 82.9244 25.2789 83.1285 25.161C83.3327 25.0431 83.5938 25.1131 83.7117 25.3173Z" fill="#F4D8A0"/>
<path d="M120.326 15.8802L96.8154 -20.4777" stroke="#F4D8A0" stroke-miterlimit="10"/>
<path d="M120.685 15.6482C120.813 15.8461 120.756 16.1104 120.558 16.2385C120.36 16.3666 120.096 16.3099 119.968 16.112C119.84 15.914 119.897 15.6497 120.094 15.5216C120.292 15.3936 120.557 15.4502 120.685 15.6482Z" fill="#F4D8A0"/>
<path d="M42.7021 23.8205L42.7285 23.7749" stroke="#F4D8A0" stroke-miterlimit="10"/>
<path d="M43.0716 24.0339C42.9537 24.238 42.6926 24.308 42.4884 24.1901C42.2842 24.0722 42.2143 23.8111 42.3322 23.6069C42.45 23.4028 42.7112 23.3328 42.9153 23.4507C43.1195 23.5686 43.1895 23.8297 43.0716 24.0339Z" fill="#F4D8A0"/>
<path d="M30.2309 21.6217L30.2046 21.5761" stroke="#F4D8A0" stroke-miterlimit="10"/>
<path d="M30.6009 21.4082C30.7188 21.6124 30.6488 21.8735 30.4446 21.9914C30.2405 22.1093 29.9793 22.0393 29.8615 21.8351C29.7436 21.631 29.8135 21.3698 30.0177 21.252C30.2219 21.1341 30.483 21.204 30.6009 21.4082Z" fill="#F4D8A0"/>
<path d="M67.5818 14.2924L42.728 -22.6763" stroke="#F4D8A0" stroke-miterlimit="10"/>
<path d="M67.9355 14.0538C68.067 14.2494 68.0151 14.5147 67.8195 14.6463C67.6239 14.7779 67.3586 14.7259 67.227 14.5303C67.0954 14.3347 67.1474 14.0694 67.343 13.9378C67.5386 13.8062 67.8039 13.8582 67.9355 14.0538Z" fill="#F4D8A0"/>
<path d="M67.5818 14.2922L67.6171 14.3533L42.728 23.775" stroke="#F4D8A0" stroke-miterlimit="10"/>
<path d="M67.212 14.5056C67.0942 14.3015 67.1641 14.0403 67.3683 13.9225C67.5724 13.8046 67.8336 13.8745 67.9515 14.0787C68.0693 14.2828 67.9994 14.544 67.7952 14.6619C67.5911 14.7797 67.3299 14.7098 67.212 14.5056Z" fill="#F4D8A0"/>
<path d="M-5.63663 2.44246L-5.67188 2.50354L30.2056 21.5759" stroke="#F4D8A0" stroke-miterlimit="10"/>
<path d="M147.049 81.6474L147.022 81.6019" stroke="#F4D8A0" stroke-miterlimit="10"/>
<path d="M147.418 81.4334C147.536 81.6374 147.467 81.8986 147.263 82.0168C147.059 82.135 146.797 82.0654 146.679 81.8615C146.561 81.6575 146.631 81.3962 146.835 81.2781C147.038 81.1599 147.3 81.2294 147.418 81.4334Z" fill="#F4D8A0"/>
<path d="M147.049 81.6475L155.473 99.8036" stroke="#F4D8A0" stroke-miterlimit="10"/>
<path d="M146.661 81.8272C146.562 81.6134 146.655 81.3595 146.869 81.2602C147.083 81.161 147.337 81.2539 147.436 81.4677C147.535 81.6815 147.442 81.9354 147.228 82.0347C147.015 82.1339 146.761 82.041 146.661 81.8272Z" fill="#F4D8A0"/>
<path d="M86.2192 89.2979L86.2456 89.3435" stroke="#F4D8A0" stroke-miterlimit="10"/>
<path d="M85.8501 89.5119C85.7319 89.3079 85.8014 89.0466 86.0054 88.9284C86.2094 88.8102 86.4706 88.8798 86.5888 89.0838C86.707 89.2877 86.6375 89.549 86.4335 89.6672C86.2295 89.7854 85.9683 89.7158 85.8501 89.5119Z" fill="#F4D8A0"/>
<path d="M90.0302 101.636L86.2461 89.3438" stroke="#F4D8A0" stroke-miterlimit="10"/>
<path d="M21.8765 74.5166L21.9029 74.5622" stroke="#F4D8A0" stroke-miterlimit="10"/>
<path d="M21.5073 74.7307C21.3891 74.5267 21.4587 74.2655 21.6626 74.1473C21.8666 74.0291 22.1279 74.0987 22.246 74.3027C22.3642 74.5066 22.2947 74.7679 22.0907 74.8861C21.8867 75.0043 21.6255 74.9347 21.5073 74.7307Z" fill="#F4D8A0"/>
<path d="M33.2568 99.8038L21.9028 74.5625" stroke="#F4D8A0" stroke-miterlimit="10"/>
<path d="M158.158 48.8634L143.386 26.4318" stroke="#F4D8A0" stroke-miterlimit="10"/>
<path d="M143.386 26.4312L143.359 26.3857" stroke="#F4D8A0" stroke-miterlimit="10"/>
<path d="M143.755 26.2173C143.874 26.4213 143.804 26.6826 143.6 26.8008C143.396 26.9189 143.135 26.8494 143.017 26.6454C142.898 26.4414 142.968 26.1802 143.172 26.062C143.376 25.9438 143.637 26.0134 143.755 26.2173Z" fill="#F4D8A0"/>
<path d="M101.298 61.1402L104.874 72.1501" stroke="#F4D8A0" stroke-miterlimit="10"/>
<path d="M100.892 61.2721C100.819 61.0479 100.942 60.807 101.166 60.7341C101.39 60.6613 101.631 60.784 101.704 61.0082C101.777 61.2324 101.654 61.4733 101.43 61.5462C101.206 61.619 100.965 61.4963 100.892 61.2721Z" fill="#F4D8A0"/>
<path d="M101.263 61.0792L101.299 61.1402" stroke="#F4D8A0" stroke-miterlimit="10"/>
<path d="M100.894 61.2932C100.775 61.0892 100.845 60.8279 101.049 60.7097C101.253 60.5915 101.514 60.661 101.632 60.865C101.75 61.069 101.681 61.3302 101.477 61.4484C101.273 61.5666 101.012 61.4971 100.894 61.2932Z" fill="#F4D8A0"/>
<path d="M83.3155 25.5764L83.2891 25.5309" stroke="#F4D8A0" stroke-miterlimit="10"/>
<path d="M83.685 25.3624C83.8032 25.5663 83.7336 25.8276 83.5297 25.9458C83.3257 26.064 83.0644 25.9944 82.9462 25.7904C82.8281 25.5864 82.8976 25.3252 83.1016 25.207C83.3056 25.0888 83.5668 25.1584 83.685 25.3624Z" fill="#F4D8A0"/>
<path d="M101.263 61.0792L83.3159 25.5764" stroke="#F4D8A0" stroke-miterlimit="10"/>
<path d="M101.644 60.8864C101.75 61.0968 101.666 61.3536 101.456 61.46C101.245 61.5664 100.988 61.4821 100.882 61.2718C100.776 61.0614 100.86 60.8045 101.07 60.6981C101.281 60.5917 101.537 60.676 101.644 60.8864Z" fill="#F4D8A0"/>
<path d="M104.874 72.1501L104.9 72.1956" stroke="#F4D8A0" stroke-miterlimit="10"/>
<path d="M104.504 72.364C104.386 72.16 104.455 71.8988 104.659 71.7806C104.863 71.6624 105.124 71.732 105.243 71.936C105.361 72.1399 105.291 72.4012 105.087 72.5194C104.883 72.6376 104.622 72.568 104.504 72.364Z" fill="#F4D8A0"/>
<path d="M30.2056 21.6672L30.1792 21.6216" stroke="#F4D8A0" stroke-miterlimit="10"/>
<path d="M30.5747 21.4532C30.6929 21.6572 30.6233 21.9184 30.4193 22.0366C30.2153 22.1548 29.9541 22.0852 29.8359 21.8812C29.7177 21.6772 29.7873 21.416 29.9913 21.2978C30.1953 21.1796 30.4565 21.2492 30.5747 21.4532Z" fill="#F4D8A0"/>
<path d="M50.4194 75.204L50.4458 75.2496" stroke="#F4D8A0" stroke-miterlimit="10"/>
<path d="M50.0503 75.418C49.9321 75.214 50.0016 74.9528 50.2056 74.8346C50.4096 74.7164 50.6708 74.7859 50.789 74.9899C50.9072 75.1939 50.8377 75.4551 50.6337 75.5733C50.4297 75.6915 50.1685 75.622 50.0503 75.418Z" fill="#F4D8A0"/>
<path d="M36.4311 65.5992L30.2051 21.6674" stroke="#F4D8A0" stroke-miterlimit="10"/>
<path d="M36.8536 65.539C36.8866 65.7724 36.7242 65.9885 36.4908 66.0216C36.2574 66.0547 36.0413 65.8923 36.0082 65.6589C35.9751 65.4255 36.1375 65.2094 36.3709 65.1763C36.6043 65.1432 36.8205 65.3056 36.8536 65.539Z" fill="#F4D8A0"/>
<path d="M50.4196 75.2042L36.4663 65.6604" stroke="#F4D8A0" stroke-miterlimit="10"/>
<path d="M50.6605 74.8516C50.8552 74.9846 50.9051 75.2504 50.772 75.445C50.639 75.6396 50.3733 75.6895 50.1787 75.5565C49.9841 75.4234 49.9341 75.1577 50.0672 74.9631C50.2002 74.7685 50.4659 74.7186 50.6605 74.8516Z" fill="#F4D8A0"/>
<path d="M36.4312 65.599L36.4665 65.66" stroke="#F4D8A0" stroke-miterlimit="10"/>
<path d="M36.062 65.8131C35.9438 65.6091 36.0134 65.3479 36.2173 65.2297C36.4213 65.1115 36.6825 65.1811 36.8007 65.3851C36.9189 65.589 36.8494 65.8503 36.6454 65.9685C36.4414 66.0867 36.1802 66.0171 36.062 65.8131Z" fill="#F4D8A0"/>
<path d="M164.455 25.3632L145.496 2.50391" stroke="#F4D8A0" stroke-miterlimit="10"/>
<path d="M102.31 23.7749L86.8911 1.64868" stroke="#F4D8A0" stroke-miterlimit="10"/>
<path d="M102.66 23.5308C102.795 23.7242 102.747 23.9903 102.554 24.1251C102.361 24.26 102.094 24.2125 101.96 24.0191C101.825 23.8257 101.872 23.5596 102.066 23.4248C102.259 23.2899 102.525 23.3374 102.66 23.5308Z" fill="#F4D8A0"/>
<path d="M102.336 23.8205L102.31 23.7749" stroke="#F4D8A0" stroke-miterlimit="10"/>
<path d="M102.706 23.6064C102.824 23.8104 102.754 24.0716 102.55 24.1898C102.346 24.308 102.085 24.2384 101.967 24.0344C101.849 23.8304 101.918 23.5692 102.122 23.451C102.326 23.3328 102.587 23.4024 102.706 23.6064Z" fill="#F4D8A0"/>
<path d="M42.7549 23.8205L42.7285 23.7749" stroke="#F4D8A0" stroke-miterlimit="10"/>
<path d="M43.124 23.6064C43.2422 23.8104 43.1726 24.0716 42.9686 24.1898C42.7646 24.308 42.5034 24.2384 42.3852 24.0344C42.267 23.8304 42.3366 23.5692 42.5406 23.451C42.7446 23.3328 43.0058 23.4024 43.124 23.6064Z" fill="#F4D8A0"/>
<path d="M42.7278 23.775L33.292 2.50391" stroke="#F4D8A0" stroke-miterlimit="10"/>
<path d="M43.118 23.6017C43.2136 23.8172 43.1164 24.0695 42.901 24.1651C42.6855 24.2607 42.4332 24.1636 42.3376 23.9481C42.2419 23.7326 42.3391 23.4803 42.5546 23.3847C42.7701 23.2891 43.0224 23.3862 43.118 23.6017Z" fill="#F4D8A0"/>
<path d="M104.9 72.1955L104.874 72.2411" stroke="#F4D8A0" stroke-miterlimit="10"/>
<path d="M104.531 71.9815C104.649 71.7775 104.91 71.708 105.114 71.8261C105.318 71.9443 105.388 72.2056 105.269 72.4096C105.151 72.6135 104.89 72.6831 104.686 72.5649C104.482 72.4467 104.413 72.1854 104.531 71.9815Z" fill="#F4D8A0"/>
<path d="M104.873 72.2411L90.1006 101.636" stroke="#F4D8A0" stroke-miterlimit="10"/>
<path d="M104.492 72.0493C104.598 71.8386 104.854 71.7537 105.065 71.8596C105.276 71.9655 105.361 72.2222 105.255 72.4328C105.149 72.6434 104.892 72.7283 104.681 72.6224C104.471 72.5165 104.386 72.2599 104.492 72.0493Z" fill="#F4D8A0"/>
<path d="M50.4468 75.2497L50.4204 75.2953" stroke="#F4D8A0" stroke-miterlimit="10"/>
<path d="M50.0771 75.0356C50.1953 74.8316 50.4566 74.762 50.6605 74.8802C50.8645 74.9984 50.9341 75.2597 50.8159 75.4636C50.6977 75.6676 50.4364 75.7372 50.2325 75.619C50.0285 75.5008 49.9589 75.2395 50.0771 75.0356Z" fill="#F4D8A0"/>
<path d="M50.42 75.2952L33.3276 99.8036" stroke="#F4D8A0" stroke-miterlimit="10"/>
<path d="M50.07 75.0509C50.2049 74.8576 50.4711 74.8102 50.6644 74.9451C50.8577 75.08 50.9051 75.3462 50.7702 75.5395C50.6353 75.7328 50.3691 75.7802 50.1758 75.6453C49.9825 75.5104 49.9351 75.2442 50.07 75.0509Z" fill="#F4D8A0"/>
<path d="M147.022 81.6019L147.049 81.5564" stroke="#F4D8A0" stroke-miterlimit="10"/>
<path d="M147.392 81.8159C147.273 82.0199 147.012 82.0895 146.808 81.9713C146.604 81.8531 146.535 81.5918 146.653 81.3879C146.771 81.1839 147.032 81.1143 147.236 81.2325C147.44 81.3507 147.51 81.612 147.392 81.8159Z" fill="#F4D8A0"/>
<path d="M158.193 48.9243L147.048 81.5565" stroke="#F4D8A0" stroke-miterlimit="10"/>
<path d="M102.336 23.8204L102.31 23.866" stroke="#F4D8A0" stroke-miterlimit="10"/>
<path d="M101.967 23.6064C102.085 23.4024 102.346 23.3328 102.55 23.451C102.754 23.5692 102.824 23.8304 102.706 24.0344C102.587 24.2384 102.326 24.308 102.122 24.1898C101.918 24.0716 101.849 23.8104 101.967 23.6064Z" fill="#F4D8A0"/>
<path d="M101.298 61.1402L86.2461 89.2524" stroke="#F4D8A0" stroke-miterlimit="10"/>
<path d="M100.922 60.9385C101.033 60.7307 101.292 60.6525 101.5 60.7638C101.707 60.8751 101.786 61.1339 101.674 61.3417C101.563 61.5495 101.304 61.6277 101.096 61.5164C100.889 61.4051 100.81 61.1463 100.922 60.9385Z" fill="#F4D8A0"/>
<path d="M101.333 61.0793L102.309 23.8664" stroke="#F4D8A0" stroke-miterlimit="10"/>
<path d="M101.76 61.0902C101.754 61.3259 101.558 61.512 101.322 61.5058C101.086 61.4996 100.9 61.3035 100.906 61.0678C100.913 60.8322 101.109 60.6461 101.344 60.6522C101.58 60.6584 101.766 60.8546 101.76 61.0902Z" fill="#F4D8A0"/>
<path d="M86.2192 89.2979L86.2456 89.2523" stroke="#F4D8A0" stroke-miterlimit="10"/>
<path d="M86.5888 89.5118C86.4706 89.7158 86.2094 89.7854 86.0054 89.6672C85.8014 89.549 85.7319 89.2878 85.8501 89.0838C85.9683 88.8798 86.2295 88.8102 86.4335 88.9284C86.6375 89.0466 86.707 89.3079 86.5888 89.5118Z" fill="#F4D8A0"/>
<path d="M101.334 61.0792L101.298 61.1402" stroke="#F4D8A0" stroke-miterlimit="10"/>
<path d="M100.964 60.865C101.083 60.661 101.344 60.5915 101.548 60.7097C101.752 60.8279 101.821 61.0892 101.703 61.2932C101.585 61.4971 101.324 61.5666 101.12 61.4484C100.916 61.3302 100.846 61.069 100.964 60.865Z" fill="#F4D8A0"/>
<path d="M42.7549 23.8204L42.7285 23.866" stroke="#F4D8A0" stroke-miterlimit="10"/>
<path d="M42.3852 23.6064C42.5034 23.4024 42.7646 23.3328 42.9686 23.451C43.1726 23.5692 43.2422 23.8304 43.124 24.0344C43.0058 24.2384 42.7446 24.308 42.5406 24.1898C42.3366 24.0716 42.267 23.8104 42.3852 23.6064Z" fill="#F4D8A0"/>
<path d="M21.9033 74.4713L36.4671 65.6604" stroke="#F4D8A0" stroke-miterlimit="10"/>
<path d="M22.1239 74.8363C21.9222 74.9583 21.6597 74.8937 21.5377 74.6919C21.4157 74.4902 21.4804 74.2277 21.6821 74.1057C21.8839 73.9837 22.1464 74.0484 22.2683 74.2501C22.3903 74.4519 22.3257 74.7144 22.1239 74.8363Z" fill="#F4D8A0"/>
<path d="M36.5022 65.599L36.4668 65.66" stroke="#F4D8A0" stroke-miterlimit="10"/>
<path d="M36.1328 65.3851C36.251 65.1811 36.5122 65.1115 36.7162 65.2297C36.9202 65.3479 36.9897 65.6091 36.8715 65.8131C36.7533 66.0171 36.4921 66.0867 36.2881 65.9685C36.0841 65.8503 36.0146 65.589 36.1328 65.3851Z" fill="#F4D8A0"/>
<path d="M36.5024 65.5992L42.7285 23.8664" stroke="#F4D8A0" stroke-miterlimit="10"/>
<path d="M36.9244 65.662C36.8896 65.8951 36.6723 66.056 36.4391 66.0212C36.206 65.9864 36.0451 65.7691 36.0799 65.5359C36.1147 65.3028 36.332 65.1419 36.5652 65.1767C36.7983 65.2115 36.9592 65.4288 36.9244 65.662Z" fill="#F4D8A0"/>
<path d="M21.9029 74.471L21.8765 74.5166" stroke="#F4D8A0" stroke-miterlimit="10"/>
<path d="M21.5337 74.257C21.6519 74.053 21.9131 73.9835 22.1171 74.1017C22.3211 74.2198 22.3906 74.4811 22.2724 74.6851C22.1542 74.889 21.893 74.9586 21.689 74.8404C21.485 74.7222 21.4155 74.461 21.5337 74.257Z" fill="#F4D8A0"/>
<path d="M143.359 26.3858L143.386 26.3402" stroke="#F4D8A0" stroke-miterlimit="10"/>
<path d="M143.729 26.5997C143.611 26.8037 143.35 26.8733 143.146 26.7551C142.942 26.6369 142.872 26.3757 142.99 26.1717C143.108 25.9677 143.37 25.8981 143.574 26.0163C143.778 26.1345 143.847 26.3957 143.729 26.5997Z" fill="#F4D8A0"/>
<path d="M143.386 26.3405L145.496 2.50391" stroke="#F4D8A0" stroke-miterlimit="10"/>
<path d="M143.811 26.3778C143.79 26.6126 143.583 26.7862 143.348 26.7654C143.113 26.7446 142.94 26.5373 142.961 26.3025C142.981 26.0676 143.189 25.8941 143.424 25.9149C143.658 25.9357 143.832 26.143 143.811 26.3778Z" fill="#F4D8A0"/>
<path d="M83.3154 25.4854L86.8908 1.6488" stroke="#F4D8A0" stroke-miterlimit="10"/>
<path d="M83.7378 25.5485C83.7028 25.7817 83.4854 25.9424 83.2523 25.9074C83.0192 25.8724 82.8585 25.655 82.8935 25.4218C82.9284 25.1887 83.1459 25.028 83.379 25.063C83.6121 25.098 83.7728 25.3154 83.7378 25.5485Z" fill="#F4D8A0"/>
<path d="M83.2891 25.5306L83.3155 25.4851" stroke="#F4D8A0" stroke-miterlimit="10"/>
<path d="M83.6587 25.7447C83.5405 25.9487 83.2792 26.0183 83.0753 25.9001C82.8713 25.7819 82.8017 25.5207 82.9199 25.3167C83.0381 25.1127 83.2993 25.0432 83.5033 25.1613C83.7073 25.2795 83.7768 25.5408 83.6587 25.7447Z" fill="#F4D8A0"/>
<path d="M30.2056 21.5763L33.2925 2.50391" stroke="#F4D8A0" stroke-miterlimit="10"/>
<path d="M30.6267 21.6443C30.589 21.877 30.3698 22.0351 30.137 21.9974C29.9043 21.9598 29.7462 21.7405 29.7839 21.5078C29.8216 21.2751 30.0408 21.1169 30.2735 21.1546C30.5062 21.1923 30.6644 21.4116 30.6267 21.6443Z" fill="#F4D8A0"/>
<path d="M30.1792 21.6217L30.2056 21.5761" stroke="#F4D8A0" stroke-miterlimit="10"/>
<path d="M30.5483 21.8357C30.4301 22.0397 30.1689 22.1092 29.9649 21.9911C29.7609 21.8729 29.6913 21.6116 29.8095 21.4077C29.9277 21.2037 30.189 21.1341 30.3929 21.2523C30.5969 21.3705 30.6665 21.6317 30.5483 21.8357Z" fill="#F4D8A0"/>
<path d="M158.158 48.8631L134.771 61.0791" stroke="#F4D8A0" stroke-miterlimit="10"/>
<path d="M134.691 61.0791H134.771" stroke="#F4D8A0" stroke-miterlimit="10"/>
<path d="M134.691 61.506C134.927 61.506 135.118 61.3149 135.118 61.0791C135.118 60.8434 134.927 60.6522 134.691 60.6522C134.455 60.6522 134.264 60.8434 134.264 61.0791C134.264 61.3149 134.455 61.506 134.691 61.506Z" fill="#F4D8A0"/>
<path d="M101.263 61.0792L67.6191 53.6276" stroke="#F4D8A0" stroke-miterlimit="10"/>
<path d="M101.355 60.6623C101.585 60.7132 101.731 60.9412 101.68 61.1714C101.629 61.4015 101.401 61.5469 101.171 61.4959C100.94 61.445 100.795 61.217 100.846 60.9868C100.897 60.7567 101.125 60.6113 101.355 60.6623Z" fill="#F4D8A0"/>
<path d="M101.334 61.0791H101.263" stroke="#F4D8A0" stroke-miterlimit="10"/>
<path d="M101.334 61.506C101.569 61.506 101.761 61.3149 101.761 61.0791C101.761 60.8434 101.569 60.6522 101.334 60.6522C101.098 60.6522 100.907 60.8434 100.907 61.0791C100.907 61.3149 101.098 61.506 101.334 61.506Z" fill="#F4D8A0"/>
<path d="M134.611 61.079H101.333" stroke="#F4D8A0" stroke-miterlimit="10"/>
<path d="M134.611 61.5059C134.847 61.5059 135.038 61.3148 135.038 61.079C135.038 60.8432 134.847 60.6521 134.611 60.6521C134.375 60.6521 134.184 60.8432 134.184 61.079C134.184 61.3148 134.375 61.5059 134.611 61.5059Z" fill="#F4D8A0"/>
<path d="M67.5396 53.6272H67.6192" stroke="#F4D8A0" stroke-miterlimit="10"/>
<path d="M67.5392 54.0543C67.3035 54.0543 67.1123 53.8631 67.1123 53.6273C67.1123 53.3916 67.3035 53.2004 67.5392 53.2004C67.775 53.2004 67.9661 53.3916 67.9661 53.6273C67.9661 53.8631 67.775 54.0543 67.5392 54.0543Z" fill="#F4D8A0"/>
<path d="M134.611 61.0791H134.691" stroke="#F4D8A0" stroke-miterlimit="10"/>
<path d="M134.611 61.506C134.847 61.506 135.038 61.3149 135.038 61.0791C135.038 60.8434 134.847 60.6522 134.611 60.6522C134.375 60.6522 134.184 60.8434 134.184 61.0791C134.184 61.3149 134.375 61.506 134.611 61.506Z" fill="#F4D8A0"/>
<path d="M67.4595 53.6272H67.5391" stroke="#F4D8A0" stroke-miterlimit="10"/>
<path d="M67.4596 54.0543C67.2239 54.0543 67.0327 53.8631 67.0327 53.6273C67.0327 53.3916 67.2239 53.2004 67.4596 53.2004C67.6954 53.2004 67.8865 53.3916 67.8865 53.6273C67.8865 53.8631 67.6954 54.0543 67.4596 54.0543Z" fill="#F4D8A0"/>
<path d="M67.4597 53.6274L36.502 65.5989" stroke="#F4D8A0" stroke-miterlimit="10"/>
<path d="M67.3058 53.2292C67.5257 53.1442 67.7729 53.2536 67.8579 53.4735C67.9429 53.6934 67.8335 53.9406 67.6136 54.0256C67.3937 54.1106 67.1465 54.0012 67.0615 53.7813C66.9765 53.5614 67.0859 53.3142 67.3058 53.2292Z" fill="#F4D8A0"/>
<path d="M36.4309 65.5992L2.78711 51.7952" stroke="#F4D8A0" stroke-miterlimit="10"/>
<path d="M36.5929 65.204C36.811 65.2935 36.9154 65.5429 36.8259 65.761C36.7365 65.9791 36.4871 66.0835 36.2689 65.994C36.0508 65.9046 35.9465 65.6552 36.0359 65.437C36.1254 65.2189 36.3748 65.1146 36.5929 65.204Z" fill="#F4D8A0"/>
<path d="M36.5019 65.599H36.4312" stroke="#F4D8A0" stroke-miterlimit="10"/>
<path d="M36.5021 65.1721C36.7378 65.1721 36.929 65.3633 36.929 65.599C36.929 65.8348 36.7378 66.0259 36.5021 66.0259C36.2664 66.0259 36.0752 65.8348 36.0752 65.599C36.0752 65.3633 36.2664 65.1721 36.5021 65.1721Z" fill="#F4D8A0"/>
<path d="M120.406 15.8799H120.485" stroke="#F4D8A0" stroke-miterlimit="10"/>
<path d="M120.406 16.3069C120.642 16.3069 120.833 16.1158 120.833 15.88C120.833 15.6443 120.642 15.4531 120.406 15.4531C120.17 15.4531 119.979 15.6443 119.979 15.88C119.979 16.1158 120.17 16.3069 120.406 16.3069Z" fill="#F4D8A0"/>
<path d="M120.486 15.8803L145.461 2.44283" stroke="#F4D8A0" stroke-miterlimit="10"/>
<path d="M120.688 16.2562C120.48 16.3679 120.221 16.29 120.11 16.0824C119.998 15.8748 120.076 15.6159 120.283 15.5042C120.491 15.3926 120.75 15.4704 120.862 15.678C120.973 15.8857 120.895 16.1446 120.688 16.2562Z" fill="#F4D8A0"/>
<path d="M120.406 15.8799H120.326" stroke="#F4D8A0" stroke-miterlimit="10"/>
<path d="M120.406 16.3069C120.642 16.3069 120.833 16.1158 120.833 15.88C120.833 15.6443 120.642 15.4531 120.406 15.4531C120.17 15.4531 119.979 15.6443 119.979 15.88C119.979 16.1158 120.17 16.3069 120.406 16.3069Z" fill="#F4D8A0"/>
<path d="M120.326 15.8804L86.9268 1.58765" stroke="#F4D8A0" stroke-miterlimit="10"/>
<path d="M120.494 15.4876C120.711 15.5803 120.812 15.8313 120.719 16.048C120.626 16.2648 120.375 16.3654 120.159 16.2727C119.942 16.18 119.841 15.929 119.934 15.7123C120.027 15.4955 120.278 15.3949 120.494 15.4876Z" fill="#F4D8A0"/>
<path d="M67.6611 14.2921H67.7408" stroke="#F4D8A0" stroke-miterlimit="10"/>
<path d="M67.6613 14.7189C67.4255 14.7189 67.2344 14.5278 67.2344 14.292C67.2344 14.0563 67.4255 13.8651 67.6613 13.8651C67.897 13.8651 68.0882 14.0563 68.0882 14.292C68.0882 14.5278 67.897 14.7189 67.6613 14.7189Z" fill="#F4D8A0"/>
<path d="M67.7412 14.2924L86.8559 1.58777" stroke="#F4D8A0" stroke-miterlimit="10"/>
<path d="M67.9771 14.6478C67.7808 14.7782 67.5157 14.7248 67.3853 14.5284C67.2549 14.332 67.3083 14.067 67.5047 13.9366C67.701 13.8061 67.9661 13.8596 68.0965 14.056C68.227 14.2523 68.1735 14.5173 67.9771 14.6478Z" fill="#F4D8A0"/>
<path d="M67.5819 14.2921L33.3276 2.44287" stroke="#F4D8A0" stroke-miterlimit="10"/>
<path d="M67.7213 13.8885C67.9441 13.9656 68.0623 14.2087 67.9853 14.4315C67.9083 14.6543 67.6651 14.7725 67.4423 14.6955C67.2195 14.6184 67.1013 14.3753 67.1783 14.1525C67.2554 13.9297 67.4985 13.8115 67.7213 13.8885Z" fill="#F4D8A0"/>
<path d="M67.6607 14.2921H67.5811" stroke="#F4D8A0" stroke-miterlimit="10"/>
<path d="M67.6613 13.8651C67.897 13.8651 68.0882 14.0563 68.0882 14.292C68.0882 14.5278 67.897 14.7189 67.6613 14.7189C67.4255 14.7189 67.2344 14.5278 67.2344 14.292C67.2344 14.0563 67.4255 13.8651 67.6613 13.8651Z" fill="#F4D8A0"/>
<path d="M131.883 80.7467L117.964 100.17" stroke="#F4D8A0" stroke-miterlimit="10"/>
<path d="M131.536 80.498C131.673 80.3064 131.94 80.2624 132.131 80.3998C132.323 80.5372 132.367 80.8039 132.229 80.9955C132.092 81.1871 131.825 81.2311 131.634 81.0937C131.442 80.9563 131.398 80.6896 131.536 80.498Z" fill="#F4D8A0"/>
<path d="M72.4232 83.3121L57.772 98.7043" stroke="#F4D8A0" stroke-miterlimit="10"/>
<path d="M72.1143 83.0176C72.2769 82.8469 72.5472 82.8403 72.7179 83.0029C72.8886 83.1655 72.8952 83.4357 72.7326 83.6065C72.57 83.7772 72.2998 83.7838 72.1291 83.6212C71.9583 83.4586 71.9518 83.1883 72.1143 83.0176Z" fill="#F4D8A0"/>
<path d="M16.5041 103.591L5.02734 76.4714" stroke="#F4D8A0" stroke-miterlimit="10"/>
<path d="M147.022 81.6019H147.075" stroke="#F4D8A0" stroke-miterlimit="10"/>
<path d="M147.022 82.0287C147.258 82.0287 147.449 81.8376 147.449 81.6018C147.449 81.3661 147.258 81.1749 147.022 81.1749C146.786 81.1749 146.595 81.3661 146.595 81.6018C146.595 81.8376 146.786 82.0287 147.022 82.0287Z" fill="#F4D8A0"/>
<path d="M131.883 80.7468L147.022 81.6014" stroke="#F4D8A0" stroke-miterlimit="10"/>
<path d="M131.859 81.173C131.624 81.1597 131.443 80.9581 131.457 80.7227C131.47 80.4873 131.672 80.3072 131.907 80.3205C132.142 80.3338 132.323 80.5354 132.309 80.7708C132.296 81.0062 132.094 81.1863 131.859 81.173Z" fill="#F4D8A0"/>
<path d="M147.075 81.6021L159.057 75.9828" stroke="#F4D8A0" stroke-miterlimit="10"/>
<path d="M147.256 81.9885C147.043 82.0885 146.788 81.9966 146.688 81.7831C146.588 81.5697 146.68 81.3154 146.894 81.2154C147.107 81.1153 147.361 81.2073 147.462 81.4207C147.562 81.6342 147.47 81.8884 147.256 81.9885Z" fill="#F4D8A0"/>
<path d="M86.2194 89.2982L72.4229 83.3123" stroke="#F4D8A0" stroke-miterlimit="10"/>
<path d="M86.3893 88.9063C86.6056 89.0001 86.7049 89.2515 86.6112 89.4678C86.5174 89.6841 86.2659 89.7834 86.0496 89.6897C85.8334 89.5959 85.734 89.3444 85.8278 89.1281C85.9216 88.9119 86.173 88.8125 86.3893 88.9063Z" fill="#F4D8A0"/>
<path d="M104.847 72.1955H104.9" stroke="#F4D8A0" stroke-miterlimit="10"/>
<path d="M104.847 72.6224C105.083 72.6224 105.274 72.4312 105.274 72.1955C105.274 71.9597 105.083 71.7686 104.847 71.7686C104.611 71.7686 104.42 71.9597 104.42 72.1955C104.42 72.4312 104.611 72.6224 104.847 72.6224Z" fill="#F4D8A0"/>
<path d="M86.2197 89.2979H86.2725" stroke="#F4D8A0" stroke-miterlimit="10"/>
<path d="M86.2199 89.7249C86.4557 89.7249 86.6468 89.5338 86.6468 89.298C86.6468 89.0622 86.4557 88.8711 86.2199 88.8711C85.9841 88.8711 85.793 89.0622 85.793 89.298C85.793 89.5338 85.9841 89.7249 86.2199 89.7249Z" fill="#F4D8A0"/>
<path d="M131.883 80.7469L104.9 72.1958" stroke="#F4D8A0" stroke-miterlimit="10"/>
<path d="M132.011 80.34C132.236 80.4112 132.361 80.6511 132.29 80.8759C132.218 81.1006 131.978 81.2251 131.754 81.1539C131.529 81.0828 131.404 80.8428 131.476 80.6181C131.547 80.3933 131.787 80.2688 132.011 80.34Z" fill="#F4D8A0"/>
<path d="M104.847 72.1956L86.2725 89.298" stroke="#F4D8A0" stroke-miterlimit="10"/>
<path d="M104.558 71.8815C104.732 71.7219 105.002 71.7331 105.161 71.9066C105.321 72.08 105.31 72.3501 105.136 72.5098C104.963 72.6694 104.693 72.6582 104.533 72.4847C104.374 72.3113 104.385 72.0411 104.558 71.8815Z" fill="#F4D8A0"/>
<path d="M128.098 36.7693L134.691 61.0791" stroke="#F4D8A0" stroke-miterlimit="10"/>
<path d="M127.686 36.8812C127.624 36.6537 127.759 36.4191 127.986 36.3574C128.214 36.2957 128.448 36.4301 128.51 36.6576C128.572 36.8851 128.437 37.1197 128.21 37.1814C127.982 37.2432 127.748 37.1087 127.686 36.8812Z" fill="#F4D8A0"/>
<path d="M131.883 80.7469L134.691 61.0793" stroke="#F4D8A0" stroke-miterlimit="10"/>
<path d="M131.883 81.1736C132.119 81.1736 132.31 80.9825 132.31 80.7467C132.31 80.511 132.119 80.3198 131.883 80.3198C131.647 80.3198 131.456 80.511 131.456 80.7467C131.456 80.9825 131.647 81.1736 131.883 81.1736Z" fill="#F4D8A0"/>
<path d="M50.4458 75.2497L72.4226 83.3122" stroke="#F4D8A0" stroke-miterlimit="10"/>
<path d="M50.2991 75.6505C50.0778 75.5693 49.9641 75.324 50.0452 75.1027C50.1264 74.8813 50.3717 74.7677 50.593 74.8488C50.8144 74.93 50.928 75.1753 50.8469 75.3966C50.7657 75.6179 50.5204 75.7316 50.2991 75.6505Z" fill="#F4D8A0"/>
<path d="M21.9292 74.5166H21.8765" stroke="#F4D8A0" stroke-miterlimit="10"/>
<path d="M21.9293 74.0897C22.1651 74.0897 22.3563 74.2809 22.3563 74.5166C22.3563 74.7524 22.1651 74.9435 21.9293 74.9435C21.6936 74.9435 21.5024 74.7524 21.5024 74.5166C21.5024 74.2809 21.6936 74.0897 21.9293 74.0897Z" fill="#F4D8A0"/>
<path d="M5.02783 76.4714L21.8767 74.5168" stroke="#F4D8A0" stroke-miterlimit="10"/>
<path d="M50.4463 75.2497H50.3936" stroke="#F4D8A0" stroke-miterlimit="10"/>
<path d="M50.4464 74.8228C50.6822 74.8228 50.8734 75.0139 50.8734 75.2497C50.8734 75.4854 50.6822 75.6766 50.4464 75.6766C50.2107 75.6766 50.0195 75.4854 50.0195 75.2497C50.0195 75.0139 50.2107 74.8228 50.4464 74.8228Z" fill="#F4D8A0"/>
<path d="M21.9292 74.5166L50.3936 75.2492" stroke="#F4D8A0" stroke-miterlimit="10"/>
<path d="M21.9184 74.9434C21.6827 74.9374 21.4965 74.7413 21.5026 74.5057C21.5087 74.27 21.7047 74.0838 21.9403 74.0899C22.176 74.0959 22.3622 74.292 22.3561 74.5276C22.3501 74.7633 22.154 74.9495 21.9184 74.9434Z" fill="#F4D8A0"/>
<path d="M67.5396 53.6273L72.4233 83.312" stroke="#F4D8A0" stroke-miterlimit="10"/>
<path d="M67.118 53.6968C67.0797 53.4641 67.2373 53.2445 67.4699 53.2062C67.7026 53.1679 67.9222 53.3255 67.9605 53.5581C67.9988 53.7907 67.8412 54.0104 67.6086 54.0487C67.376 54.0869 67.1563 53.9294 67.118 53.6968Z" fill="#F4D8A0"/>
<path d="M67.6612 38.7239L67.5391 53.6273" stroke="#F4D8A0" stroke-miterlimit="10"/>
<path d="M67.2344 38.7203C67.2363 38.4846 67.4291 38.295 67.6648 38.2969C67.9005 38.2988 68.0901 38.4916 68.0882 38.7273C68.0862 38.963 67.8935 39.1526 67.6578 39.1507C67.4221 39.1487 67.2325 38.956 67.2344 38.7203Z" fill="#F4D8A0"/>
<path d="M10.2778 23.8204L2.70801 51.7949" stroke="#F4D8A0" stroke-miterlimit="10"/>
<path d="M9.86601 23.7089C9.92762 23.4814 10.1621 23.3468 10.3897 23.4084C10.6172 23.47 10.7518 23.7045 10.6902 23.932C10.6286 24.1596 10.3941 24.2942 10.1665 24.2326C9.93897 24.1709 9.8044 23.9365 9.86601 23.7089Z" fill="#F4D8A0"/>
<path d="M128.098 36.7697L143.36 26.3863" stroke="#F4D8A0" stroke-miterlimit="10"/>
<path d="M128.338 37.1225C128.143 37.255 127.877 37.2045 127.745 37.0095C127.612 36.8146 127.663 36.549 127.858 36.4164C128.053 36.2839 128.318 36.3345 128.451 36.5294C128.583 36.7243 128.533 36.9899 128.338 37.1225Z" fill="#F4D8A0"/>
<path d="M143.412 26.3857H143.359" stroke="#F4D8A0" stroke-miterlimit="10"/>
<path d="M143.412 26.8126C143.648 26.8126 143.839 26.6214 143.839 26.3857C143.839 26.1499 143.648 25.9587 143.412 25.9587C143.176 25.9587 142.985 26.1499 142.985 26.3857C142.985 26.6214 143.176 26.8126 143.412 26.8126Z" fill="#F4D8A0"/>
<path d="M143.412 26.3854L164.429 25.4087" stroke="#F4D8A0" stroke-miterlimit="10"/>
<path d="M143.432 26.8119C143.197 26.8228 142.997 26.6407 142.986 26.4053C142.975 26.1698 143.157 25.9699 143.392 25.959C143.628 25.948 143.828 26.1301 143.839 26.3656C143.85 26.6011 143.668 26.801 143.432 26.8119Z" fill="#F4D8A0"/>
<path d="M83.3418 25.5307H83.2891" stroke="#F4D8A0" stroke-miterlimit="10"/>
<path d="M83.3419 25.9576C83.5777 25.9576 83.7689 25.7664 83.7689 25.5307C83.7689 25.2949 83.5777 25.1038 83.3419 25.1038C83.1062 25.1038 82.915 25.2949 82.915 25.5307C82.915 25.7664 83.1062 25.9576 83.3419 25.9576Z" fill="#F4D8A0"/>
<path d="M102.336 23.8204H102.283" stroke="#F4D8A0" stroke-miterlimit="10"/>
<path d="M102.336 24.2474C102.572 24.2474 102.763 24.0562 102.763 23.8205C102.763 23.5847 102.572 23.3936 102.336 23.3936C102.1 23.3936 101.909 23.5847 101.909 23.8205C101.909 24.0562 102.1 24.2474 102.336 24.2474Z" fill="#F4D8A0"/>
<path d="M67.6616 38.7241L83.2896 25.5308" stroke="#F4D8A0" stroke-miterlimit="10"/>
<path d="M67.9366 39.0502C67.7564 39.2022 67.487 39.1794 67.335 38.9992C67.183 38.819 67.2058 38.5496 67.386 38.3976C67.5661 38.2456 67.8355 38.2684 67.9876 38.4486C68.1396 38.6288 68.1168 38.8982 67.9366 39.0502Z" fill="#F4D8A0"/>
<path d="M128.098 36.7695L102.336 23.8208" stroke="#F4D8A0" stroke-miterlimit="10"/>
<path d="M128.289 36.3878C128.5 36.4936 128.585 36.7503 128.479 36.9609C128.373 37.1716 128.116 37.2566 127.906 37.1507C127.695 37.0449 127.61 36.7883 127.716 36.5776C127.822 36.367 128.078 36.282 128.289 36.3878Z" fill="#F4D8A0"/>
<path d="M83.3423 25.5299L102.283 23.8206" stroke="#F4D8A0" stroke-miterlimit="10"/>
<path d="M83.3803 25.955C83.1456 25.9762 82.938 25.803 82.9168 25.5682C82.8956 25.3334 83.0688 25.1258 83.3036 25.1047C83.5384 25.0835 83.746 25.2567 83.7672 25.4915C83.7883 25.7263 83.6151 25.9338 83.3803 25.955Z" fill="#F4D8A0"/>
<path d="M128.098 36.7695L120.406 15.8802" stroke="#F4D8A0" stroke-miterlimit="10"/>
<path d="M128.498 36.6218C128.58 36.843 128.466 37.0885 128.245 37.17C128.024 37.2515 127.778 37.1382 127.697 36.917C127.615 36.6958 127.729 36.4503 127.95 36.3688C128.171 36.2873 128.417 36.4006 128.498 36.6218Z" fill="#F4D8A0"/>
<path d="M120.406 15.8801L130.295 -14.171" stroke="#F4D8A0" stroke-miterlimit="10"/>
<path d="M120.811 16.0135C120.737 16.2375 120.496 16.3592 120.272 16.2855C120.048 16.2118 119.926 15.9704 120 15.7465C120.074 15.5226 120.315 15.4008 120.539 15.4745C120.763 15.5483 120.885 15.7896 120.811 16.0135Z" fill="#F4D8A0"/>
<path d="M67.6615 38.7241L42.7544 23.8208" stroke="#F4D8A0" stroke-miterlimit="10"/>
<path d="M67.8805 38.3573C68.0828 38.4783 68.1487 38.7405 68.0277 38.9428C67.9067 39.1452 67.6445 39.2111 67.4422 39.0901C67.2399 38.9691 67.1739 38.7069 67.2949 38.5046C67.4159 38.3023 67.6781 38.2363 67.8805 38.3573Z" fill="#F4D8A0"/>
<path d="M10.2773 23.8208L30.1786 21.6219" stroke="#F4D8A0" stroke-miterlimit="10"/>
<path d="M10.3244 24.2439C10.0901 24.2698 9.87908 24.1008 9.8532 23.8665C9.82733 23.6322 9.99636 23.4212 10.2307 23.3953C10.465 23.3694 10.676 23.5384 10.7019 23.7728C10.7277 24.0071 10.5587 24.2181 10.3244 24.2439Z" fill="#F4D8A0"/>
<path d="M42.7549 23.8204H42.7021" stroke="#F4D8A0" stroke-miterlimit="10"/>
<path d="M42.7545 23.3936C42.9903 23.3936 43.1815 23.5847 43.1815 23.8205C43.1815 24.0562 42.9903 24.2474 42.7545 24.2474C42.5188 24.2474 42.3276 24.0562 42.3276 23.8205C42.3276 23.5847 42.5188 23.3936 42.7545 23.3936Z" fill="#F4D8A0"/>
<path d="M30.2319 21.6216H30.1792" stroke="#F4D8A0" stroke-miterlimit="10"/>
<path d="M30.2316 21.1947C30.4673 21.1947 30.6585 21.3859 30.6585 21.6216C30.6585 21.8574 30.4673 22.0485 30.2316 22.0485C29.9959 22.0485 29.8047 21.8574 29.8047 21.6216C29.8047 21.3859 29.9959 21.1947 30.2316 21.1947Z" fill="#F4D8A0"/>
<path d="M30.231 21.6216L42.7011 23.8206" stroke="#F4D8A0" stroke-miterlimit="10"/>
<path d="M30.1571 22.0421C29.9249 22.0012 29.7698 21.7798 29.8107 21.5476C29.8517 21.3154 30.0731 21.1603 30.3053 21.2012C30.5374 21.2422 30.6925 21.4636 30.6516 21.6958C30.6107 21.9279 30.3892 22.083 30.1571 22.0421Z" fill="#F4D8A0"/>
<path d="M67.6616 38.7242V14.2924" stroke="#F4D8A0" stroke-miterlimit="10"/>
<path d="M68.0882 38.724C68.0882 38.9598 67.897 39.1509 67.6613 39.1509C67.4255 39.1509 67.2344 38.9598 67.2344 38.724C67.2344 38.4883 67.4255 38.2971 67.6613 38.2971C67.897 38.2971 68.0882 38.4883 68.0882 38.724Z" fill="#F4D8A0"/>
<path d="M67.6616 14.2924L65.2197 -16.614" stroke="#F4D8A0" stroke-miterlimit="10"/>
<path d="M68.0874 14.2584C68.106 14.4934 67.9304 14.699 67.6954 14.7176C67.4604 14.7362 67.2548 14.5607 67.2362 14.3257C67.2176 14.0907 67.3931 13.885 67.6281 13.8665C67.8632 13.8479 68.0688 14.0234 68.0874 14.2584Z" fill="#F4D8A0"/>
<path d="M10.2777 23.8204H-20.1235" stroke="#F4D8A0" stroke-miterlimit="10"/>
<path d="M10.278 23.3935C10.5137 23.3935 10.7049 23.5846 10.7049 23.8204C10.7049 24.0561 10.5137 24.2473 10.278 24.2473C10.0422 24.2473 9.85107 24.0561 9.85107 23.8204C9.85107 23.5846 10.0422 23.3935 10.278 23.3935Z" fill="#F4D8A0"/>
<path d="M10.2774 23.8207L-5.7168 2.44287" stroke="#F4D8A0" stroke-miterlimit="10"/>
<path d="M10.6193 23.5645C10.7605 23.7532 10.7221 24.0208 10.5333 24.1621C10.3446 24.3034 10.077 24.2649 9.93574 24.0762C9.79447 23.8875 9.83295 23.6199 10.0217 23.4786C10.2104 23.3373 10.478 23.3758 10.6193 23.5645Z" fill="#F4D8A0"/>
</g>
<g filter="url(#filter2_d)">
<path d="M88.0706 66.3635C87.1189 66.8395 86.1211 67.2144 85.1002 67.4981V68.7131C85.1002 71.1411 83.1328 73.1096 80.706 73.1096C78.2792 73.1096 76.3118 71.1411 76.3118 68.7131V67.6356C74.4827 67.1748 72.7769 66.4002 71.3318 65.316C69.3904 63.8593 68.9967 61.1035 70.4529 59.1608C71.9092 57.2187 74.6634 56.8245 76.6048 58.2815C78.3624 59.6004 81.743 59.6983 84.1402 58.499C85.1037 58.0168 85.6237 57.4365 85.6237 57.1354C85.6237 56.6093 85.6237 56.5281 85.039 56.216C83.8924 55.6037 81.8652 55.2273 79.9045 54.8636L79.9033 54.8634C77.2862 54.3775 74.5802 53.875 72.2352 52.6228C68.8104 50.7938 67 47.7933 67 43.9457C67 40.0938 69.3087 36.7295 73.3341 34.7159C74.2882 34.2384 75.2883 33.8606 76.3118 33.5766V32.3681C76.3118 29.94 78.2792 27.9716 80.706 27.9716C83.1328 27.9716 85.1002 29.94 85.1002 32.3681V33.4447C86.9296 33.9057 88.6351 34.681 90.0802 35.7652C92.0219 37.2222 92.4153 39.978 90.9591 41.9204C89.5028 43.8628 86.7492 44.2567 84.8072 42.7997C83.0469 41.4787 79.6634 41.3808 77.2642 42.5805C76.2951 43.0653 75.7883 43.6342 75.7883 43.9454C75.7883 44.4719 75.7883 44.5528 76.3731 44.8652C77.5196 45.4775 79.5471 45.8538 81.5075 46.2176L81.5086 46.2178C84.1258 46.7037 86.8318 47.2061 89.1771 48.4584C92.6016 50.2873 94.412 53.2879 94.412 57.1354C94.4123 60.9836 92.1007 64.3473 88.0706 66.3635Z" stroke="#E3B04B" stroke-width="2"/>
</g>
<g filter="url(#filter3_d)">
<path fill-rule="evenodd" clip-rule="evenodd" d="M145 24.97C147.389 24.97 149.534 23.9212 151 22.2592V80.7094C149.534 79.0474 147.389 77.9987 145 77.9987C140.582 77.9987 137 81.5846 137 86.0029C137 87.8927 137.655 89.6302 138.751 91H22.2491C23.3448 89.6302 24 87.8927 24 86.0029C24 81.5846 20.4183 77.9987 16 77.9987C13.6106 77.9987 11.4659 79.0474 10 80.7094V21.2916C11.4659 22.9525 13.6106 24 16 24C20.4183 24 24 20.4183 24 16C24 13.6106 22.9525 11.4659 21.2916 10H141.057C138.634 11.3762 137 13.9811 137 16.9656C137 21.3839 140.582 24.97 145 24.97ZM16 8H145C149.418 8 153 11.5817 153 16V16.9656V85C153 85.1684 152.995 85.3356 152.985 85.5015C152.995 85.6673 153 85.8345 153 86.0029C153 90.4212 149.418 94.0072 145 94.0072C143.589 94.0072 142.264 93.6416 141.113 93H19.8871C18.7363 93.6416 17.4108 94.0072 16 94.0072C11.5817 94.0072 8 90.4212 8 86.0029C8 85.8345 8.0052 85.6673 8.01546 85.5015C8.0052 85.3356 8 85.1684 8 85V16C8 11.5817 11.5817 8 16 8Z" fill="#E3B04B"/>
</g>
<defs>
<filter id="filter0_d" x="27" y="36.9808" width="29" height="29.0071" filterUnits="userSpaceOnUse" color-interpolation-filters="sRGB">
<feFlood flood-opacity="0" result="BackgroundImageFix"/>
<feColorMatrix in="SourceAlpha" type="matrix" values="0 0 0 0 0 0 0 0 0 0 0 0 0 0 0 0 0 0 127 0"/>
<feOffset/>
<feGaussianBlur stdDeviation="4"/>
<feColorMatrix type="matrix" values="0 0 0 0 0.970833 0 0 0 0 0.813392 0 0 0 0 0.501597 0 0 0 1 0"/>
<feBlend mode="normal" in2="BackgroundImageFix" result="effect1_dropShadow"/>
<feBlend mode="normal" in="SourceGraphic" in2="effect1_dropShadow" result="shape"/>
</filter>
<filter id="filter1_d" x="106" y="36.9808" width="29" height="29.0071" filterUnits="userSpaceOnUse" color-interpolation-filters="sRGB">
<feFlood flood-opacity="0" result="BackgroundImageFix"/>
<feColorMatrix in="SourceAlpha" type="matrix" values="0 0 0 0 0 0 0 0 0 0 0 0 0 0 0 0 0 0 127 0"/>
<feOffset/>
<feGaussianBlur stdDeviation="4"/>
<feColorMatrix type="matrix" values="0 0 0 0 0.970833 0 0 0 0 0.813392 0 0 0 0 0.501597 0 0 0 1 0"/>
<feBlend mode="normal" in2="BackgroundImageFix" result="effect1_dropShadow"/>
<feBlend mode="normal" in="SourceGraphic" in2="effect1_dropShadow" result="shape"/>
</filter>
<filter id="filter2_d" x="58" y="18.9716" width="45.412" height="63.1381" filterUnits="userSpaceOnUse" color-interpolation-filters="sRGB">
<feFlood flood-opacity="0" result="BackgroundImageFix"/>
<feColorMatrix in="SourceAlpha" type="matrix" values="0 0 0 0 0 0 0 0 0 0 0 0 0 0 0 0 0 0 127 0"/>
<feOffset/>
<feGaussianBlur stdDeviation="4"/>
<feColorMatrix type="matrix" values="0 0 0 0 0.970833 0 0 0 0 0.813392 0 0 0 0 0.501597 0 0 0 1 0"/>
<feBlend mode="normal" in2="BackgroundImageFix" result="effect1_dropShadow"/>
<feBlend mode="normal" in="SourceGraphic" in2="effect1_dropShadow" result="shape"/>
</filter>
<filter id="filter3_d" x="0" y="0" width="161" height="102.007" filterUnits="userSpaceOnUse" color-interpolation-filters="sRGB">
<feFlood flood-opacity="0" result="BackgroundImageFix"/>
<feColorMatrix in="SourceAlpha" type="matrix" values="0 0 0 0 0 0 0 0 0 0 0 0 0 0 0 0 0 0 127 0"/>
<feOffset/>
<feGaussianBlur stdDeviation="4"/>
<feColorMatrix type="matrix" values="0 0 0 0 0.970833 0 0 0 0 0.813392 0 0 0 0 0.501597 0 0 0 1 0"/>
<feBlend mode="normal" in2="BackgroundImageFix" result="effect1_dropShadow"/>
<feBlend mode="normal" in="SourceGraphic" in2="effect1_dropShadow" result="shape"/>
</filter>
</defs>
</svg>
