<svg width="176" height="120" viewBox="0 0 176 120" fill="none" xmlns="http://www.w3.org/2000/svg">
<mask id="mask0" mask-type="alpha" maskUnits="userSpaceOnUse" x="36" y="8" width="105" height="68">
<path d="M103.66 10.3042C103.199 9.14981 102.081 8.39441 100.84 8.39441H76.5484C75.3074 8.39441 74.19 9.14981 73.7285 10.3042L64.0114 34.6066C63.2148 36.5988 64.6831 38.7727 66.8307 38.7727H110.558C112.703 38.7727 114.175 36.6015 113.377 34.6066L103.66 10.3042Z" fill="black"/>
<path d="M76.7397 46.7619C76.2781 45.6076 75.1607 44.8522 73.9198 44.8522H49.6277C48.3868 44.8522 47.2693 45.6076 46.8078 46.7619L37.0907 71.0643C36.2942 73.0565 37.7626 75.2304 39.91 75.2304H83.6374C85.7822 75.2304 87.2543 73.0592 86.4567 71.0643L76.7397 46.7619Z" fill="black"/>
<path d="M130.581 46.7619C130.119 45.6076 129.002 44.8522 127.761 44.8522H103.469C102.228 44.8522 101.111 45.6076 100.649 46.7619L90.9321 71.0643C90.1355 73.0565 91.6037 75.2304 93.7514 75.2304H137.479C139.624 75.2304 141.096 73.0592 140.298 71.0643L130.581 46.7619Z" fill="black"/>
</mask>
<g mask="url(#mask0)">
<path d="M156.395 15.7117L114.759 73.1154" stroke="#F4D8A0" stroke-miterlimit="10"/>
<path d="M114.756 73.115L114.678 73.2506L160.459 146.251" stroke="#F4D8A0" stroke-miterlimit="10"/>
<path d="M115.212 73.9436C115.671 73.6915 115.839 73.1147 115.588 72.6554C115.336 72.1961 114.76 72.028 114.301 72.2801C113.842 72.5322 113.674 73.1089 113.926 73.5683C114.177 74.0276 114.753 74.1956 115.212 73.9436Z" fill="#F4D8A0"/>
<path d="M114.403 73.1142L95.542 52.6005" stroke="#F4D8A0" stroke-miterlimit="10"/>
<path d="M115.105 72.4722C115.46 72.8577 115.435 73.4579 115.049 73.8124C114.664 74.167 114.064 74.1419 113.71 73.7565C113.355 73.371 113.38 72.7709 113.766 72.4163C114.151 72.0617 114.751 72.0868 115.105 72.4722Z" fill="#F4D8A0"/>
<path d="M96.3518 146.251L114.478 73.2509L114.399 73.1152" stroke="#F4D8A0" stroke-miterlimit="10"/>
<path d="M-9.96167 63.0771L44.6887 26.2886" stroke="#F4D8A0" stroke-miterlimit="10"/>
<path d="M44.7451 26.1925L44.6858 26.2953" stroke="#F4D8A0" stroke-miterlimit="10"/>
<path d="M43.9253 25.7157C44.1871 25.2622 44.767 25.1068 45.2204 25.3687C45.6738 25.6306 45.8291 26.2108 45.5673 26.6644C45.3054 27.1179 44.7255 27.2733 44.2722 27.0114C43.8188 26.7494 43.6635 26.1692 43.9253 25.7157Z" fill="#F4D8A0"/>
<path d="M95.5393 52.6056L95.48 52.5028" stroke="#F4D8A0" stroke-miterlimit="10"/>
<path d="M96.3615 52.1283C96.6233 52.5818 96.4679 53.162 96.0146 53.4239C95.5612 53.6858 94.9813 53.5304 94.7195 53.0769C94.4577 52.6234 94.613 52.0432 95.0664 51.7813C95.5197 51.5194 96.0996 51.6748 96.3615 52.1283Z" fill="#F4D8A0"/>
<path d="M156.392 15.5103L111.967 -41.2152L112.045 -41.3508" stroke="#F4D8A0" stroke-miterlimit="10"/>
<path d="M95.5398 52.3991L111.768 -41.2163L111.689 -41.3519" stroke="#F4D8A0" stroke-miterlimit="10"/>
<path d="M96.4746 52.5628C96.3851 53.0788 95.8943 53.4248 95.3785 53.3353C94.8627 53.2458 94.5169 52.7547 94.6064 52.2387C94.6958 51.7226 95.1866 51.3767 95.7025 51.4662C96.2183 51.5557 96.564 52.0468 96.4746 52.5628Z" fill="#F4D8A0"/>
<path d="M20.3969 -30.5023L20.3186 -30.3667L44.6805 26.0876" stroke="#F4D8A0" stroke-miterlimit="10"/>
<path d="M95.5398 52.3987L95.4805 52.5014" stroke="#F4D8A0" stroke-miterlimit="10"/>
<path d="M94.72 51.9235C94.9818 51.4699 95.5617 51.3145 96.0151 51.5765C96.4684 51.8384 96.6237 52.4186 96.3619 52.8722C96.1001 53.3258 95.5202 53.4812 95.0668 53.2192C94.6135 52.9573 94.4582 52.3771 94.72 51.9235Z" fill="#F4D8A0"/>
<path d="M44.7451 26.1933L44.6858 26.0906" stroke="#F4D8A0" stroke-miterlimit="10"/>
<path d="M45.5673 25.7157C45.8291 26.1693 45.6738 26.7495 45.2204 27.0114C44.767 27.2733 44.1871 27.1179 43.9253 26.6644C43.6635 26.2108 43.8188 25.6306 44.2722 25.3687C44.7255 25.1068 45.3054 25.2622 45.5673 25.7157Z" fill="#F4D8A0"/>
<path d="M73.4219 69.3237L73.5016 69.4614" stroke="#F4D8A0" stroke-miterlimit="10"/>
<path d="M72.6032 69.7963C72.3407 69.3431 72.4952 68.7627 72.9482 68.5001C73.4012 68.2376 73.9813 68.3921 74.2438 68.8453C74.5063 69.2984 74.3518 69.8788 73.8988 70.1414C73.4459 70.404 72.8657 70.2495 72.6032 69.7963Z" fill="#F4D8A0"/>
<path d="M44.6833 26.2927L44.6238 26.1899" stroke="#F4D8A0" stroke-miterlimit="10"/>
<path d="M45.5042 25.8164C45.7667 26.2695 45.6123 26.8499 45.1593 27.1125C44.7063 27.375 44.1262 27.2205 43.8637 26.7674C43.6013 26.3143 43.7557 25.7339 44.2087 25.4713C44.6616 25.2087 45.2418 25.3633 45.5042 25.8164Z" fill="#F4D8A0"/>
<path d="M96.3571 146.251L73.5051 69.4531" stroke="#F4D8A0" stroke-miterlimit="10"/>
<path d="M73.422 69.3187L44.6836 26.2913" stroke="#F4D8A0" stroke-miterlimit="10"/>
<path d="M74.2119 68.7936C74.5028 69.2291 74.3857 69.8181 73.9504 70.1091C73.5151 70.4 72.9263 70.2829 72.6354 69.8474C72.3446 69.412 72.4617 68.8229 72.897 68.532C73.3322 68.241 73.9211 68.3582 74.2119 68.7936Z" fill="#F4D8A0"/>
<path d="M95.5414 52.3973L57.5061 -38.7769" stroke="#F4D8A0" stroke-miterlimit="10"/>
<path d="M96.4194 52.0337C96.621 52.517 96.3927 53.0725 95.9096 53.2742C95.4265 53.4759 94.8712 53.2476 94.6696 52.7642C94.4679 52.2809 94.6962 51.7254 95.1793 51.5237C95.6625 51.322 96.2177 51.5504 96.4194 52.0337Z" fill="#F4D8A0"/>
<path d="M95.6047 52.5033L95.5452 52.4005" stroke="#F4D8A0" stroke-miterlimit="10"/>
<path d="M96.4234 52.027C96.6859 52.4802 96.5314 53.0606 96.0785 53.3232C95.6255 53.5857 95.0454 53.4312 94.7829 52.978C94.5204 52.5249 94.6749 51.9445 95.1279 51.6819C95.5808 51.4193 96.161 51.5738 96.4234 52.027Z" fill="#F4D8A0"/>
<path d="M95.6047 52.5054L95.5452 52.6081" stroke="#F4D8A0" stroke-miterlimit="10"/>
<path d="M94.7829 52.027C95.0454 51.5739 95.6255 51.4193 96.0785 51.6819C96.5314 51.9445 96.6859 52.5249 96.4234 52.9781C96.161 53.4312 95.5808 53.5858 95.1279 53.3231C94.6749 53.0606 94.5204 52.4802 94.7829 52.027Z" fill="#F4D8A0"/>
<path d="M73.5878 69.3237L73.5081 69.4614" stroke="#F4D8A0" stroke-miterlimit="10"/>
<path d="M72.7646 68.8453C73.0271 68.3921 73.6072 68.2376 74.0602 68.5001C74.5131 68.7627 74.6676 69.3431 74.4051 69.7963C74.1427 70.2495 73.5625 70.404 73.1096 70.1414C72.6566 69.8788 72.5021 69.2984 72.7646 68.8453Z" fill="#F4D8A0"/>
<path d="M73.5845 69.3181L95.5445 52.6019" stroke="#F4D8A0" stroke-miterlimit="10"/>
<path d="M74.1591 70.0763C73.7425 70.3935 73.1475 70.3127 72.8305 69.8959C72.5135 69.479 72.5943 68.8838 73.011 68.5667C73.4276 68.2496 74.0225 68.3304 74.3395 68.7472C74.6565 69.164 74.5757 69.7592 74.1591 70.0763Z" fill="#F4D8A0"/>
<path d="M32.2144 146.252L73.5034 69.4536" stroke="#F4D8A0" stroke-miterlimit="10"/>
<path d="M44.6833 26.0871L57.5035 -38.7759" stroke="#F4D8A0" stroke-miterlimit="10"/>
<path d="M45.6138 26.2686C45.5123 26.7824 45.0135 27.1167 44.4999 27.0151C43.9863 26.9135 43.6522 26.4145 43.7538 25.9007C43.8553 25.3869 44.3541 25.0526 44.8677 25.1542C45.3813 25.2558 45.7154 25.7548 45.6138 26.2686Z" fill="#F4D8A0"/>
<path d="M44.624 26.1933L44.6836 26.0906" stroke="#F4D8A0" stroke-miterlimit="10"/>
<path d="M45.4479 26.6655C45.1854 27.1187 44.6052 27.2732 44.1523 27.0107C43.6993 26.7481 43.5449 26.1677 43.8073 25.7145C44.0698 25.2613 44.65 25.1068 45.1029 25.3694C45.5559 25.632 45.7103 26.2124 45.4479 26.6655Z" fill="#F4D8A0"/>
<path d="M114.58 73.1155H114.758" stroke="#F4D8A0" stroke-miterlimit="10"/>
<path d="M114.578 74.0612C114.054 74.0612 113.63 73.6365 113.63 73.1128C113.63 72.589 114.054 72.1643 114.578 72.1643C115.101 72.1643 115.526 72.589 115.526 73.1128C115.526 73.6365 115.101 74.0612 114.578 74.0612Z" fill="#F4D8A0"/>
<path d="M114.758 73.1147L198.147 110.819" stroke="#F4D8A0" stroke-miterlimit="10"/>
<path d="M114.368 73.9767C113.891 73.761 113.679 73.1991 113.894 72.7218C114.11 72.2446 114.671 72.0325 115.149 72.2482C115.626 72.4639 115.838 73.0258 115.622 73.503C115.406 73.9802 114.845 74.1923 114.368 73.9767Z" fill="#F4D8A0"/>
<path d="M114.402 73.1149L73.5813 69.3174" stroke="#F4D8A0" stroke-miterlimit="10"/>
<path d="M114.493 72.168C115.014 72.2165 115.398 72.6787 115.349 73.2001C115.301 73.7216 114.839 74.1052 114.317 74.0567C113.796 74.0082 113.413 73.546 113.461 73.0245C113.51 72.503 113.972 72.1195 114.493 72.168Z" fill="#F4D8A0"/>
<path d="M73.4249 69.3162L-9.96387 63.0774" stroke="#F4D8A0" stroke-miterlimit="10"/>
<path d="M73.4934 68.3726C74.0154 68.4116 74.4071 68.8668 74.368 69.3891C74.329 69.9114 73.874 70.3032 73.352 70.2642C72.8299 70.2251 72.4383 69.7699 72.4773 69.2476C72.5163 68.7254 72.9713 68.3335 73.4934 68.3726Z" fill="#F4D8A0"/>
<path d="M114.405 73.1155H114.583" stroke="#F4D8A0" stroke-miterlimit="10"/>
<path d="M114.403 74.0612C113.879 74.0612 113.455 73.6365 113.455 73.1128C113.455 72.589 113.879 72.1643 114.403 72.1643C114.926 72.1643 115.351 72.589 115.351 73.1128C115.351 73.6365 114.926 74.0612 114.403 74.0612Z" fill="#F4D8A0"/>
<path d="M73.5842 69.3237H73.426" stroke="#F4D8A0" stroke-miterlimit="10"/>
<path d="M73.5847 68.3722C74.1082 68.3722 74.5328 68.7969 74.5328 69.3206C74.5328 69.8443 74.1082 70.269 73.5847 70.269C73.0612 70.269 72.6367 69.8443 72.6367 69.3206C72.6367 68.7969 73.0612 68.3722 73.5847 68.3722Z" fill="#F4D8A0"/>
<path d="M128.407 146.353L114.579 73.1158" stroke="#F4D8A0" stroke-miterlimit="10"/>
<path d="M114.579 73.1149L128.406 35.4114" stroke="#F4D8A0" stroke-miterlimit="10"/>
<path d="M115.469 73.4387C115.289 73.9304 114.744 74.1829 114.253 74.0024C113.761 73.822 113.509 73.277 113.689 72.7853C113.87 72.2936 114.414 72.0412 114.906 72.2216C115.397 72.402 115.65 72.947 115.469 73.4387Z" fill="#F4D8A0"/>
<path d="M128.404 35.4128L156.33 15.6116" stroke="#F4D8A0" stroke-miterlimit="10"/>
<path d="M128.953 36.184C128.525 36.4868 127.934 36.3859 127.631 35.9586C127.328 35.5312 127.429 34.9391 127.856 34.6362C128.283 34.3334 128.875 34.4343 129.178 34.8616C129.481 35.289 129.38 35.8811 128.953 36.184Z" fill="#F4D8A0"/>
<path d="M95.6047 52.5054H95.4858" stroke="#F4D8A0" stroke-miterlimit="10"/>
<path d="M95.603 51.554C96.1266 51.554 96.5511 51.9787 96.5511 52.5024C96.5511 53.0261 96.1266 53.4509 95.603 53.4509C95.0795 53.4509 94.655 53.0261 94.655 52.5024C94.655 51.9787 95.0795 51.554 95.603 51.554Z" fill="#F4D8A0"/>
<path d="M0.156494 35.4092L44.6221 26.1868" stroke="#F4D8A0" stroke-miterlimit="10"/>
<path d="M128.406 35.4131L95.5994 52.5018" stroke="#F4D8A0" stroke-miterlimit="10"/>
<path d="M127.966 34.5716C128.431 34.3297 129.003 34.5103 129.245 34.9748C129.487 35.4394 129.306 36.0122 128.842 36.2541C128.378 36.4959 127.805 36.3154 127.563 35.8508C127.322 35.3863 127.502 34.8135 127.966 34.5716Z" fill="#F4D8A0"/>
<path d="M44.751 26.1925H44.6321" stroke="#F4D8A0" stroke-miterlimit="10"/>
<path d="M44.7461 25.2415C45.2697 25.2415 45.6942 25.6662 45.6942 26.1899C45.6942 26.7136 45.2697 27.1384 44.7461 27.1384C44.2226 27.1384 43.7981 26.7136 43.7981 26.1899C43.7981 25.6662 44.2226 25.2415 44.7461 25.2415Z" fill="#F4D8A0"/>
<path d="M44.748 26.1925L95.4866 52.5037" stroke="#F4D8A0" stroke-miterlimit="10"/>
<path d="M44.31 27.0322C43.8452 26.7912 43.6637 26.2186 43.9046 25.7536C44.1455 25.2886 44.7178 25.107 45.1826 25.348C45.6474 25.5891 45.8289 26.1616 45.588 26.6266C45.3471 27.0916 44.7748 27.2733 44.31 27.0322Z" fill="#F4D8A0"/>
<path d="M128.409 35.4127L111.87 -41.3508" stroke="#F4D8A0" stroke-miterlimit="10"/>
<path d="M129.101 36.0638C129.461 35.6829 129.444 35.0824 129.063 34.7224C128.682 34.3624 128.082 34.3793 127.722 34.7601C127.363 35.141 127.379 35.7415 127.76 36.1015C128.141 36.4615 128.741 36.4446 129.101 36.0638Z" fill="#F4D8A0"/>
</g>
<g filter="url(#filter0_d)">
<path d="M103.66 10.3042C103.199 9.14981 102.081 8.39441 100.84 8.39441H76.5484C75.3074 8.39441 74.19 9.14981 73.7285 10.3042L64.0114 34.6066C63.2148 36.5988 64.6831 38.7727 66.8307 38.7727H110.558C112.703 38.7727 114.175 36.6015 113.377 34.6066L103.66 10.3042Z" stroke="#E3B04B" stroke-width="2"/>
<path d="M76.7397 46.7619C76.2781 45.6076 75.1607 44.8522 73.9198 44.8522H49.6277C48.3868 44.8522 47.2693 45.6076 46.8078 46.7619L37.0907 71.0643C36.2942 73.0565 37.7626 75.2304 39.91 75.2304H83.6374C85.7822 75.2304 87.2543 73.0592 86.4567 71.0643L76.7397 46.7619Z" stroke="#E3B04B" stroke-width="2"/>
<path d="M130.581 46.7619C130.119 45.6076 129.002 44.8522 127.761 44.8522H103.469C102.228 44.8522 101.111 45.6076 100.649 46.7619L90.9321 71.0643C90.1355 73.0565 91.6037 75.2304 93.7514 75.2304H137.479C139.624 75.2304 141.096 73.0592 140.298 71.0643L130.581 46.7619Z" stroke="#E3B04B" stroke-width="2"/>
</g>
<mask id="mask1" mask-type="alpha" maskUnits="userSpaceOnUse" x="8" y="44" width="160" height="68">
<path d="M130.312 46.5153C129.85 45.3609 128.733 44.6055 127.492 44.6055H103.2C101.959 44.6055 100.842 45.3609 100.38 46.5153L90.663 70.8177C89.8664 72.8099 91.3347 74.9838 93.4823 74.9838H137.21C139.354 74.9838 140.827 72.8126 140.029 70.8177L130.312 46.5153Z" fill="black"/>
<path d="M103.392 82.9702C102.93 81.8158 101.813 81.0604 100.572 81.0604H76.2795C75.0386 81.0604 73.9212 81.8158 73.4596 82.9702L63.7426 107.273C62.946 109.265 64.4145 111.439 66.5619 111.439H110.289C112.434 111.439 113.906 109.267 113.109 107.273L103.392 82.9702Z" fill="black"/>
<path d="M157.233 82.9702C156.771 81.8158 155.654 81.0604 154.413 81.0604H130.121C128.88 81.0604 127.762 81.8158 127.301 82.9702L117.584 107.273C116.787 109.265 118.255 111.439 120.403 111.439H164.13C166.275 111.439 167.747 109.267 166.95 107.273L157.233 82.9702Z" fill="black"/>
<path d="M48.6733 82.9702C48.2117 81.8158 47.0943 81.0604 45.8534 81.0604H21.5613C20.3204 81.0604 19.2029 81.8158 18.7414 82.9702L9.02435 107.273C8.22777 109.265 9.69602 111.439 11.8436 111.439H55.571C57.7158 111.439 59.1879 109.267 58.3903 107.273L48.6733 82.9702Z" fill="black"/>
</mask>
<g mask="url(#mask1)">
<path d="M183.046 51.9225L141.41 109.326" stroke="#F4D8A0" stroke-miterlimit="10"/>
<path d="M74.4866 51.9225L32.8506 109.326" stroke="#F4D8A0" stroke-miterlimit="10"/>
<path d="M141.41 109.323L141.331 109.459L187.113 182.459" stroke="#F4D8A0" stroke-miterlimit="10"/>
<path d="M141.866 110.152C142.325 109.9 142.493 109.323 142.241 108.864C141.99 108.404 141.414 108.236 140.955 108.488C140.496 108.74 140.328 109.317 140.579 109.776C140.831 110.236 141.407 110.404 141.866 110.152Z" fill="#F4D8A0"/>
<path d="M32.8498 109.323L32.7715 109.459L78.5528 182.459" stroke="#F4D8A0" stroke-miterlimit="10"/>
<path d="M33.3058 110.152C33.7648 109.9 33.9329 109.323 33.6812 108.864C33.4295 108.404 32.8535 108.236 32.3945 108.488C31.9355 108.74 31.7675 109.317 32.0191 109.776C32.2708 110.236 32.8469 110.404 33.3058 110.152Z" fill="#F4D8A0"/>
<path d="M141.056 109.323L122.195 88.8096" stroke="#F4D8A0" stroke-miterlimit="10"/>
<path d="M141.758 108.678C142.112 109.064 142.087 109.664 141.702 110.018C141.316 110.373 140.716 110.348 140.362 109.962C140.008 109.577 140.033 108.977 140.418 108.622C140.803 108.268 141.403 108.293 141.758 108.678Z" fill="#F4D8A0"/>
<path d="M32.4962 109.323L13.6353 88.8096" stroke="#F4D8A0" stroke-miterlimit="10"/>
<path d="M33.1973 108.678C33.5517 109.064 33.5266 109.664 33.1413 110.018C32.756 110.373 32.1562 110.348 31.8018 109.962C31.4474 109.577 31.4724 108.977 31.8577 108.622C32.243 108.268 32.8428 108.293 33.1973 108.678Z" fill="#F4D8A0"/>
<path d="M123.007 182.46L141.133 109.46L141.055 109.324" stroke="#F4D8A0" stroke-miterlimit="10"/>
<path d="M14.4473 182.46L32.5731 109.459L32.4948 109.324" stroke="#F4D8A0" stroke-miterlimit="10"/>
<path d="M58.8677 182.458L16.6111 99.4216L16.6894 99.2859" stroke="#F4D8A0" stroke-miterlimit="10"/>
<path d="M16.6912 99.2886L71.3416 62.5" stroke="#F4D8A0" stroke-miterlimit="10"/>
<path d="M17.2203 100.075C16.7859 100.367 16.1967 100.252 15.9045 99.8176C15.6122 99.3831 15.7274 98.7936 16.1618 98.5013C16.5961 98.2089 17.1853 98.3242 17.4776 98.7587C17.7698 99.1932 17.6546 99.7827 17.2203 100.075Z" fill="#F4D8A0"/>
<path d="M71.3963 62.4027L71.3369 62.5055" stroke="#F4D8A0" stroke-miterlimit="10"/>
<path d="M70.5767 61.9243C70.8385 61.4708 71.4184 61.3154 71.8718 61.5773C72.3251 61.8392 72.4804 62.4194 72.2186 62.8729C71.9568 63.3264 71.3769 63.4818 70.9235 63.2199C70.4702 62.958 70.3148 62.3778 70.5767 61.9243Z" fill="#F4D8A0"/>
<path d="M122.193 88.812L122.133 88.7092" stroke="#F4D8A0" stroke-miterlimit="10"/>
<path d="M123.013 88.3358C123.275 88.7894 123.12 89.3696 122.666 89.6315C122.213 89.8935 121.633 89.7381 121.371 89.2845C121.11 88.831 121.265 88.2508 121.718 87.9888C122.172 87.7269 122.751 87.8823 123.013 88.3358Z" fill="#F4D8A0"/>
<path d="M13.6326 88.812L13.5732 88.7092" stroke="#F4D8A0" stroke-miterlimit="10"/>
<path d="M14.4542 88.3358C14.716 88.7894 14.5607 89.3696 14.1073 89.6315C13.654 89.8935 13.0741 89.7381 12.8122 89.2845C12.5504 88.831 12.7058 88.2508 13.1591 87.9888C13.6124 87.7269 14.1924 87.8823 14.4542 88.3358Z" fill="#F4D8A0"/>
<path d="M16.3318 99.2953L16.4101 99.4309L-5.24048 182.468" stroke="#F4D8A0" stroke-miterlimit="10"/>
<path d="M15.5119 99.7661C15.2501 99.3125 15.4055 98.7323 15.8589 98.4705C16.3123 98.2086 16.8922 98.364 17.154 98.8176C17.4157 99.2711 17.2604 99.8513 16.807 100.113C16.3536 100.375 15.7737 100.22 15.5119 99.7661Z" fill="#F4D8A0"/>
<path d="M16.3359 99.2887L-37.23 62.5" stroke="#F4D8A0" stroke-miterlimit="10"/>
<path d="M16.8731 98.5071C17.3047 98.8035 17.4144 99.394 17.1181 99.8257C16.8218 100.258 16.2316 100.367 15.8 100.071C15.3684 99.7745 15.2586 99.184 15.5549 98.7522C15.8512 98.3204 16.4415 98.2107 16.8731 98.5071Z" fill="#F4D8A0"/>
<path d="M183.047 51.7205L138.621 -5.005L138.699 -5.14062" stroke="#F4D8A0" stroke-miterlimit="10"/>
<path d="M122.192 88.6104L138.42 -5.005L138.341 -5.14062" stroke="#F4D8A0" stroke-miterlimit="10"/>
<path d="M123.126 88.7741C123.037 89.2901 122.546 89.6361 122.03 89.5466C121.515 89.4571 121.169 88.966 121.258 88.45C121.348 87.9339 121.839 87.5881 122.354 87.6776C122.87 87.767 123.216 88.2581 123.126 88.7741Z" fill="#F4D8A0"/>
<path d="M13.6326 88.6104L29.8605 -5.005L29.7822 -5.14062" stroke="#F4D8A0" stroke-miterlimit="10"/>
<path d="M14.5673 88.7741C14.4779 89.2901 13.9871 89.6361 13.4712 89.5466C12.9554 89.4571 12.6097 88.966 12.6991 88.45C12.7886 87.9339 13.2794 87.5881 13.7952 87.6776C14.311 87.767 14.6568 88.2581 14.5673 88.7741Z" fill="#F4D8A0"/>
<path d="M47.0497 5.71021L46.9714 5.84583L71.3333 62.3002" stroke="#F4D8A0" stroke-miterlimit="10"/>
<path d="M122.193 88.6096L122.133 88.7124" stroke="#F4D8A0" stroke-miterlimit="10"/>
<path d="M121.371 88.1321C121.633 87.6786 122.213 87.5232 122.666 87.7851C123.12 88.047 123.275 88.6272 123.013 89.0807C122.751 89.5343 122.172 89.6897 121.718 89.4277C121.265 89.1658 121.11 88.5856 121.371 88.1321Z" fill="#F4D8A0"/>
<path d="M13.6326 88.6096L13.5732 88.7124" stroke="#F4D8A0" stroke-miterlimit="10"/>
<path d="M12.8122 88.1321C13.0741 87.6786 13.654 87.5232 14.1073 87.7851C14.5607 88.047 14.716 88.6272 14.4542 89.0807C14.1924 89.5343 13.6124 89.6897 13.1591 89.4277C12.7058 89.1658 12.5504 88.5856 12.8122 88.1321Z" fill="#F4D8A0"/>
<path d="M71.3963 62.4006L71.3369 62.2979" stroke="#F4D8A0" stroke-miterlimit="10"/>
<path d="M72.2186 61.9243C72.4804 62.3779 72.3251 62.958 71.8718 63.2199C71.4184 63.4818 70.8385 63.3264 70.5767 62.8729C70.3148 62.4194 70.4702 61.8393 70.9235 61.5773C71.3769 61.3154 71.9568 61.4708 72.2186 61.9243Z" fill="#F4D8A0"/>
<path d="M46.6997 5.70996L46.778 5.84559L-37.2329 62.2998" stroke="#F4D8A0" stroke-miterlimit="10"/>
<path d="M116.236 147.026L74.4832 51.9189" stroke="#F4D8A0" stroke-miterlimit="10"/>
<path d="M100.075 105.529L100.154 105.667" stroke="#F4D8A0" stroke-miterlimit="10"/>
<path d="M99.2546 106.005C98.9921 105.552 99.1466 104.971 99.5995 104.709C100.053 104.446 100.633 104.601 100.895 105.054C101.158 105.507 101.003 106.087 100.55 106.35C100.097 106.612 99.5171 106.458 99.2546 106.005Z" fill="#F4D8A0"/>
<path d="M71.3344 62.5044L71.2749 62.4016" stroke="#F4D8A0" stroke-miterlimit="10"/>
<path d="M72.1556 62.0277C72.4181 62.4809 72.2636 63.0613 71.8107 63.3238C71.3577 63.5864 70.7776 63.4319 70.5151 62.9787C70.2526 62.5256 70.4071 61.9452 70.8601 61.6826C71.313 61.42 71.8932 61.5746 72.1556 62.0277Z" fill="#F4D8A0"/>
<path d="M123.008 182.463L100.156 105.665" stroke="#F4D8A0" stroke-miterlimit="10"/>
<path d="M14.4492 182.462L-8.40283 105.664" stroke="#F4D8A0" stroke-miterlimit="10"/>
<path d="M100.076 105.527L71.3379 62.5" stroke="#F4D8A0" stroke-miterlimit="10"/>
<path d="M100.867 105.002C101.158 105.437 101.04 106.027 100.605 106.318C100.17 106.608 99.5811 106.491 99.2902 106.056C98.9994 105.62 99.1165 105.031 99.5518 104.74C99.987 104.449 100.576 104.566 100.867 105.002Z" fill="#F4D8A0"/>
<path d="M122.193 88.606L84.1572 -2.56824" stroke="#F4D8A0" stroke-miterlimit="10"/>
<path d="M123.07 88.2418C123.272 88.7251 123.043 89.2806 122.56 89.4823C122.077 89.6841 121.522 89.4557 121.32 88.9724C121.119 88.489 121.347 87.9335 121.83 87.7318C122.313 87.5301 122.868 87.7585 123.07 88.2418Z" fill="#F4D8A0"/>
<path d="M13.6335 88.606L-24.4019 -2.56824" stroke="#F4D8A0" stroke-miterlimit="10"/>
<path d="M14.5102 88.2418C14.7118 88.7251 14.4836 89.2806 14.0004 89.4823C13.5173 89.6841 12.962 89.4557 12.7604 88.9724C12.5587 88.489 12.787 87.9335 13.2701 87.7318C13.7533 87.5301 14.3086 87.7585 14.5102 88.2418Z" fill="#F4D8A0"/>
<path d="M122.261 88.7116L122.201 88.6089" stroke="#F4D8A0" stroke-miterlimit="10"/>
<path d="M123.075 88.2356C123.338 88.6888 123.183 89.2692 122.73 89.5317C122.277 89.7943 121.697 89.6398 121.435 89.1866C121.172 88.7335 121.327 88.1531 121.779 87.8905C122.232 87.6279 122.813 87.7825 123.075 88.2356Z" fill="#F4D8A0"/>
<path d="M13.6975 88.7116L13.6379 88.6089" stroke="#F4D8A0" stroke-miterlimit="10"/>
<path d="M14.5155 88.2356C14.778 88.6888 14.6235 89.2692 14.1705 89.5317C13.7176 89.7943 13.1374 89.6398 12.875 89.1866C12.6125 88.7335 12.767 88.1531 13.2199 87.8905C13.6729 87.6279 14.253 87.7825 14.5155 88.2356Z" fill="#F4D8A0"/>
<path d="M122.261 88.7107L122.201 88.8134" stroke="#F4D8A0" stroke-miterlimit="10"/>
<path d="M121.435 88.2356C121.697 87.7825 122.277 87.6279 122.73 87.8905C123.183 88.1531 123.338 88.7335 123.075 89.1866C122.813 89.6398 122.232 89.7943 121.779 89.5317C121.327 89.2691 121.172 88.6887 121.435 88.2356Z" fill="#F4D8A0"/>
<path d="M13.6975 88.7107L13.6379 88.8134" stroke="#F4D8A0" stroke-miterlimit="10"/>
<path d="M12.875 88.2356C13.1374 87.7825 13.7176 87.6279 14.1705 87.8905C14.6235 88.1531 14.778 88.7335 14.5155 89.1866C14.253 89.6398 13.6729 89.7943 13.2199 89.5317C12.767 89.2691 12.6125 88.6887 12.875 88.2356Z" fill="#F4D8A0"/>
<path d="M100.239 105.529L100.159 105.667" stroke="#F4D8A0" stroke-miterlimit="10"/>
<path d="M99.416 105.054C99.6785 104.601 100.259 104.446 100.712 104.709C101.164 104.971 101.319 105.552 101.056 106.005C100.794 106.458 100.214 106.612 99.7609 106.35C99.308 106.087 99.1535 105.507 99.416 105.054Z" fill="#F4D8A0"/>
<path d="M100.235 105.526L122.195 88.8094" stroke="#F4D8A0" stroke-miterlimit="10"/>
<path d="M-8.32446 105.525L13.6356 88.8086" stroke="#F4D8A0" stroke-miterlimit="10"/>
<path d="M100.807 106.284C100.39 106.601 99.795 106.52 99.478 106.103C99.161 105.687 99.2418 105.091 99.6584 104.774C100.075 104.457 100.67 104.538 100.987 104.955C101.304 105.372 101.223 105.967 100.807 106.284Z" fill="#F4D8A0"/>
<path d="M58.866 182.463L100.155 105.665" stroke="#F4D8A0" stroke-miterlimit="10"/>
<path d="M71.3347 62.2947L84.1548 -2.56824" stroke="#F4D8A0" stroke-miterlimit="10"/>
<path d="M72.2655 62.4808C72.1639 62.9946 71.6651 63.3288 71.1515 63.2272C70.6379 63.1256 70.3038 62.6266 70.4054 62.1128C70.5069 61.599 71.0058 61.2647 71.5193 61.3663C72.0329 61.468 72.367 61.967 72.2655 62.4808Z" fill="#F4D8A0"/>
<path d="M71.2749 62.4006L71.3344 62.2979" stroke="#F4D8A0" stroke-miterlimit="10"/>
<path d="M72.0992 62.8741C71.8367 63.3273 71.2566 63.4818 70.8036 63.2192C70.3507 62.9567 70.1962 62.3763 70.4587 61.9231C70.7212 61.47 71.3013 61.3154 71.7543 61.578C72.2072 61.8406 72.3617 62.421 72.0992 62.8741Z" fill="#F4D8A0"/>
<path d="M141.23 109.326H141.408" stroke="#F4D8A0" stroke-miterlimit="10"/>
<path d="M141.229 110.27C140.706 110.27 140.281 109.845 140.281 109.321C140.281 108.798 140.706 108.373 141.229 108.373C141.753 108.373 142.177 108.798 142.177 109.321C142.177 109.845 141.753 110.27 141.229 110.27Z" fill="#F4D8A0"/>
<path d="M32.6763 109.326H32.8544" stroke="#F4D8A0" stroke-miterlimit="10"/>
<path d="M32.6729 110.27C32.1494 110.27 31.7249 109.845 31.7249 109.321C31.7249 108.798 32.1494 108.373 32.6729 108.373C33.1964 108.373 33.621 108.798 33.621 109.321C33.621 109.845 33.1964 110.27 32.6729 110.27Z" fill="#F4D8A0"/>
<path d="M141.41 109.326L224.799 147.03" stroke="#F4D8A0" stroke-miterlimit="10"/>
<path d="M141.02 110.186C140.543 109.97 140.331 109.408 140.547 108.931C140.762 108.454 141.324 108.241 141.801 108.457C142.278 108.673 142.49 109.235 142.275 109.712C142.059 110.189 141.497 110.401 141.02 110.186Z" fill="#F4D8A0"/>
<path d="M32.8501 109.326L116.239 147.03" stroke="#F4D8A0" stroke-miterlimit="10"/>
<path d="M32.4609 110.186C31.9838 109.97 31.7718 109.408 31.9874 108.931C32.203 108.454 32.7647 108.241 33.2418 108.457C33.7188 108.673 33.9308 109.235 33.7152 109.712C33.4996 110.189 32.9379 110.401 32.4609 110.186Z" fill="#F4D8A0"/>
<path d="M141.054 109.323L100.233 105.526" stroke="#F4D8A0" stroke-miterlimit="10"/>
<path d="M141.144 108.376C141.665 108.425 142.048 108.887 142 109.408C141.951 109.93 141.489 110.313 140.968 110.265C140.447 110.216 140.064 109.754 140.112 109.233C140.161 108.711 140.623 108.328 141.144 108.376Z" fill="#F4D8A0"/>
<path d="M32.4944 109.323L-8.32666 105.526" stroke="#F4D8A0" stroke-miterlimit="10"/>
<path d="M32.5857 108.376C33.1069 108.425 33.4903 108.887 33.4419 109.408C33.3934 109.93 32.9314 110.313 32.4101 110.265C31.8888 110.216 31.5055 109.754 31.5539 109.233C31.6024 108.711 32.0644 108.328 32.5857 108.376Z" fill="#F4D8A0"/>
<path d="M100.076 105.525L16.6875 99.2859" stroke="#F4D8A0" stroke-miterlimit="10"/>
<path d="M100.146 104.581C100.668 104.62 101.06 105.075 101.021 105.597C100.982 106.12 100.527 106.511 100.005 106.472C99.4828 106.433 99.0911 105.978 99.1301 105.456C99.1692 104.934 99.6242 104.542 100.146 104.581Z" fill="#F4D8A0"/>
<path d="M141.056 109.326H141.234" stroke="#F4D8A0" stroke-miterlimit="10"/>
<path d="M141.054 110.27C140.53 110.27 140.106 109.845 140.106 109.321C140.106 108.798 140.53 108.373 141.054 108.373C141.577 108.373 142.002 108.798 142.002 109.321C142.002 109.845 141.577 110.27 141.054 110.27Z" fill="#F4D8A0"/>
<path d="M32.4976 109.326H32.6756" stroke="#F4D8A0" stroke-miterlimit="10"/>
<path d="M32.4947 110.27C31.9712 110.27 31.5466 109.845 31.5466 109.321C31.5466 108.798 31.9712 108.373 32.4947 108.373C33.0182 108.373 33.4427 108.798 33.4427 109.321C33.4427 109.845 33.0182 110.27 32.4947 110.27Z" fill="#F4D8A0"/>
<path d="M100.235 105.529H100.077" stroke="#F4D8A0" stroke-miterlimit="10"/>
<path d="M100.236 104.581C100.76 104.581 101.184 105.005 101.184 105.529C101.184 106.053 100.76 106.478 100.236 106.478C99.7126 106.478 99.2881 106.053 99.2881 105.529C99.2881 105.005 99.7126 104.581 100.236 104.581Z" fill="#F4D8A0"/>
<path d="M16.5156 99.2932H16.6937" stroke="#F4D8A0" stroke-miterlimit="10"/>
<path d="M16.5125 100.238C15.989 100.238 15.5645 99.813 15.5645 99.2892C15.5645 98.7655 15.989 98.3408 16.5125 98.3408C17.036 98.3408 17.4606 98.7655 17.4606 99.2892C17.4606 99.813 17.036 100.238 16.5125 100.238Z" fill="#F4D8A0"/>
<path d="M16.3359 99.2915L-34.2458 97.3928" stroke="#F4D8A0" stroke-miterlimit="10"/>
<path d="M16.3718 98.3455C16.8949 98.3651 17.3033 98.8054 17.2836 99.3288C17.264 99.8522 16.8238 100.261 16.3007 100.241C15.7775 100.221 15.3692 99.781 15.3889 99.2577C15.4085 98.7343 15.8486 98.3258 16.3718 98.3455Z" fill="#F4D8A0"/>
<path d="M16.3313 99.2932H16.5094" stroke="#F4D8A0" stroke-miterlimit="10"/>
<path d="M16.3343 100.238C15.8107 100.238 15.3862 99.813 15.3862 99.2892C15.3862 98.7655 15.8107 98.3408 16.3343 98.3408C16.8578 98.3408 17.2823 98.7655 17.2823 99.2892C17.2823 99.813 16.8578 100.238 16.3343 100.238Z" fill="#F4D8A0"/>
<path d="M155.057 182.561L141.229 109.324" stroke="#F4D8A0" stroke-miterlimit="10"/>
<path d="M46.4974 182.561L32.6697 109.324" stroke="#F4D8A0" stroke-miterlimit="10"/>
<path d="M141.232 109.324L155.059 71.6207" stroke="#F4D8A0" stroke-miterlimit="10"/>
<path d="M142.122 109.648C141.942 110.14 141.397 110.392 140.906 110.212C140.414 110.031 140.162 109.486 140.342 108.995C140.523 108.503 141.068 108.251 141.559 108.431C142.05 108.612 142.303 109.156 142.122 109.648Z" fill="#F4D8A0"/>
<path d="M32.6724 109.324L46.5001 71.6207" stroke="#F4D8A0" stroke-miterlimit="10"/>
<path d="M33.5632 109.648C33.3829 110.14 32.8381 110.392 32.3466 110.212C31.8551 110.031 31.6028 109.486 31.7831 108.995C31.9634 108.503 32.5082 108.251 32.9997 108.431C33.4912 108.612 33.7435 109.156 33.5632 109.648Z" fill="#F4D8A0"/>
<path d="M26.8152 182.56L16.5122 99.2859" stroke="#F4D8A0" stroke-miterlimit="10"/>
<path d="M16.5122 99.2881L26.8152 71.6207" stroke="#F4D8A0" stroke-miterlimit="10"/>
<path d="M17.4021 99.6193C17.2193 100.11 16.6733 100.36 16.1827 100.177C15.6922 99.9942 15.4426 99.4479 15.6253 98.9571C15.8081 98.4663 16.3541 98.2165 16.8447 98.3994C17.3352 98.5822 17.5849 99.1285 17.4021 99.6193Z" fill="#F4D8A0"/>
<path d="M155.055 71.6239L182.982 51.8228" stroke="#F4D8A0" stroke-miterlimit="10"/>
<path d="M155.603 72.3997C155.176 72.7026 154.585 72.6016 154.282 72.1743C153.979 71.747 154.08 71.1549 154.507 70.852C154.934 70.5492 155.526 70.6501 155.829 71.0774C156.131 71.5048 156.031 72.0969 155.603 72.3997Z" fill="#F4D8A0"/>
<path d="M122.26 88.7107H122.142" stroke="#F4D8A0" stroke-miterlimit="10"/>
<path d="M122.255 87.7626C122.778 87.7626 123.203 88.1873 123.203 88.711C123.203 89.2347 122.778 89.6594 122.255 89.6594C121.731 89.6594 121.307 89.2347 121.307 88.711C121.307 88.1873 121.731 87.7626 122.255 87.7626Z" fill="#F4D8A0"/>
<path d="M13.6975 88.7107H13.5786" stroke="#F4D8A0" stroke-miterlimit="10"/>
<path d="M13.6951 87.7626C14.2186 87.7626 14.6431 88.1873 14.6431 88.711C14.6431 89.2347 14.2186 89.6594 13.6951 89.6594C13.1716 89.6594 12.7471 89.2347 12.7471 88.711C12.7471 88.1873 13.1716 87.7626 13.6951 87.7626Z" fill="#F4D8A0"/>
<path d="M26.8083 71.6177L71.274 62.3953" stroke="#F4D8A0" stroke-miterlimit="10"/>
<path d="M27.0015 72.5473C26.4889 72.6536 25.987 72.3239 25.8808 71.8111C25.7745 71.2983 26.104 70.7962 26.6166 70.6899C27.1292 70.5835 27.6311 70.9132 27.7373 71.426C27.8436 71.9388 27.5141 72.4409 27.0015 72.5473Z" fill="#F4D8A0"/>
<path d="M155.058 71.6216L122.251 88.7103" stroke="#F4D8A0" stroke-miterlimit="10"/>
<path d="M46.4988 71.6216L13.6919 88.7103" stroke="#F4D8A0" stroke-miterlimit="10"/>
<path d="M154.618 70.7801C155.083 70.5382 155.655 70.7188 155.897 71.1833C156.139 71.6479 155.958 72.2207 155.494 72.4626C155.03 72.7044 154.457 72.5239 154.215 72.0593C153.973 71.5948 154.154 71.022 154.618 70.7801Z" fill="#F4D8A0"/>
<path d="M71.4018 62.4027H71.283" stroke="#F4D8A0" stroke-miterlimit="10"/>
<path d="M71.3975 61.4501C71.921 61.4501 72.3455 61.8748 72.3455 62.3985C72.3455 62.9222 71.921 63.3469 71.3975 63.3469C70.874 63.3469 70.4495 62.9222 70.4495 62.3985C70.4495 61.8748 70.874 61.4501 71.3975 61.4501Z" fill="#F4D8A0"/>
<path d="M71.3972 62.4045L122.136 88.7158" stroke="#F4D8A0" stroke-miterlimit="10"/>
<path d="M-37.1621 62.4045L13.5765 88.7158" stroke="#F4D8A0" stroke-miterlimit="10"/>
<path d="M70.9587 63.2407C70.4939 62.9997 70.3124 62.4272 70.5533 61.9622C70.7942 61.4972 71.3665 61.3156 71.8313 61.5566C72.2961 61.7977 72.4776 62.3702 72.2367 62.8352C71.9958 63.3001 71.4235 63.4817 70.9587 63.2407Z" fill="#F4D8A0"/>
<path d="M155.061 71.623L138.522 -5.14062" stroke="#F4D8A0" stroke-miterlimit="10"/>
<path d="M155.753 72.2769C156.113 71.8961 156.096 71.2955 155.716 70.9355C155.335 70.5755 154.735 70.5925 154.375 70.9733C154.015 71.3541 154.032 71.9547 154.412 72.3147C154.793 72.6746 155.393 72.6577 155.753 72.2769Z" fill="#F4D8A0"/>
<path d="M-37.1709 62.4027L26.8162 71.6251" stroke="#F4D8A0" stroke-miterlimit="10"/>
<path d="M26.8113 71.6237L46.8751 5.70996" stroke="#F4D8A0" stroke-miterlimit="10"/>
<path d="M27.7182 71.8974C27.5657 72.3984 27.0359 72.681 26.5351 72.5284C26.0343 72.3758 25.7519 71.8458 25.9044 71.3447C26.0569 70.8437 26.5867 70.5612 27.0875 70.7137C27.5883 70.8663 27.8707 71.3963 27.7182 71.8974Z" fill="#F4D8A0"/>
</g>
<g filter="url(#filter1_d)">
<path d="M130.312 46.5153C129.85 45.3609 128.733 44.6055 127.492 44.6055H103.2C101.959 44.6055 100.842 45.3609 100.38 46.5153L90.663 70.8177C89.8664 72.8099 91.3347 74.9838 93.4823 74.9838H137.21C139.354 74.9838 140.827 72.8126 140.029 70.8177L130.312 46.5153Z" stroke="#E3B04B" stroke-width="2"/>
<path d="M103.392 82.9702C102.93 81.8158 101.813 81.0604 100.572 81.0604H76.2795C75.0386 81.0604 73.9212 81.8158 73.4596 82.9702L63.7426 107.273C62.946 109.265 64.4145 111.439 66.5619 111.439H110.289C112.434 111.439 113.906 109.267 113.109 107.273L103.392 82.9702Z" stroke="#E3B04B" stroke-width="2"/>
<path d="M157.233 82.9702C156.771 81.8158 155.654 81.0604 154.413 81.0604H130.121C128.88 81.0604 127.762 81.8158 127.301 82.9702L117.584 107.273C116.787 109.265 118.255 111.439 120.403 111.439H164.13C166.275 111.439 167.747 109.267 166.95 107.273L157.233 82.9702Z" stroke="#E3B04B" stroke-width="2"/>
<path d="M48.6733 82.9702C48.2117 81.8158 47.0943 81.0604 45.8534 81.0604H21.5613C20.3204 81.0604 19.2029 81.8158 18.7414 82.9702L9.02435 107.273C8.22777 109.265 9.69602 111.439 11.8436 111.439H55.571C57.7158 111.439 59.1879 109.267 58.3903 107.273L48.6733 82.9702Z" stroke="#E3B04B" stroke-width="2"/>
</g>
<defs>
<filter id="filter0_d" x="28.8701" y="0.394409" width="119.649" height="82.836" filterUnits="userSpaceOnUse" color-interpolation-filters="sRGB">
<feFlood flood-opacity="0" result="BackgroundImageFix"/>
<feColorMatrix in="SourceAlpha" type="matrix" values="0 0 0 0 0 0 0 0 0 0 0 0 0 0 0 0 0 0 127 0"/>
<feOffset/>
<feGaussianBlur stdDeviation="3.5"/>
<feColorMatrix type="matrix" values="0 0 0 0 0.970833 0 0 0 0 0.813392 0 0 0 0 0.501597 0 0 0 0.74 0"/>
<feBlend mode="normal" in2="BackgroundImageFix" result="effect1_dropShadow"/>
<feBlend mode="normal" in="SourceGraphic" in2="effect1_dropShadow" result="shape"/>
</filter>
<filter id="filter1_d" x="0.803711" y="36.6055" width="174.367" height="82.8333" filterUnits="userSpaceOnUse" color-interpolation-filters="sRGB">
<feFlood flood-opacity="0" result="BackgroundImageFix"/>
<feColorMatrix in="SourceAlpha" type="matrix" values="0 0 0 0 0 0 0 0 0 0 0 0 0 0 0 0 0 0 127 0"/>
<feOffset/>
<feGaussianBlur stdDeviation="3.5"/>
<feColorMatrix type="matrix" values="0 0 0 0 0.970833 0 0 0 0 0.813392 0 0 0 0 0.501597 0 0 0 0.74 0"/>
<feBlend mode="normal" in2="BackgroundImageFix" result="effect1_dropShadow"/>
<feBlend mode="normal" in="SourceGraphic" in2="effect1_dropShadow" result="shape"/>
</filter>
</defs>
</svg>
